# Blender v3.2.1 OBJ File: ''
# www.blender.org
mtllib props_texw1.mtl
v 17.076508 5.800009 -9.506528
v 17.076508 3.500009 -9.506528
v 19.476509 3.500009 -9.506528
v 23.476509 3.500009 -9.506528
v 23.476509 5.800009 -9.506528
v 21.076508 3.500009 -9.506528
v 31.476509 5.800009 -9.506528
v 31.476509 3.500009 -9.506528
v 29.076508 3.500009 -9.506528
v 25.076508 5.800009 -9.506528
v 22.776508 2.400009 -9.506529
v 22.776508 0.000009 -9.506529
v 15.276507 0.200009 -9.506529
v 25.776508 2.400009 -9.506529
v 15.276507 6.000009 -9.506528
v 26.576508 0.200009 -9.506529
v 33.276508 0.200009 -9.506529
v 33.276508 6.000009 -9.506528
v 21.976509 0.000009 -9.506529
v 21.976509 0.200009 -9.506529
v 25.076508 3.500009 -9.506528
v 19.476509 5.800009 -9.506528
v 21.076508 5.800009 -9.506528
v 27.476509 5.800009 -9.506528
v 29.076508 5.800009 -9.506528
v 27.476509 3.500009 -9.506528
v 25.776508 0.000009 -9.506529
v 26.576508 0.000009 -9.506529
v 15.276507 0.200012 -25.506529
v 31.476509 5.800010 -25.506533
v 31.476509 3.500009 -25.506531
v 29.076508 3.500009 -25.506531
v 25.076508 3.500009 -25.506531
v 25.076508 5.800010 -25.506531
v 27.476509 3.500009 -25.506531
v 17.076508 5.800010 -25.506531
v 17.076508 3.500009 -25.506531
v 19.476509 3.500009 -25.506531
v 23.476509 5.800010 -25.506531
v 25.776508 2.400009 -25.506531
v 25.776508 0.000009 -25.506531
v 33.276508 0.200009 -25.506531
v 22.776508 2.400009 -25.506531
v 33.276508 6.000010 -25.506531
v 21.976509 0.200009 -25.506531
v 15.276508 6.000010 -25.506529
v 26.576508 0.000009 -25.506531
v 26.576508 0.200009 -25.506531
v 23.476509 3.500009 -25.506531
v 29.076508 5.800010 -25.506531
v 27.476509 5.800010 -25.506531
v 21.076508 5.800010 -25.506531
v 19.476509 5.800010 -25.506531
v 21.076508 3.500009 -25.506531
v 22.776508 0.000009 -25.506531
v 21.976509 0.000009 -25.506531
vt 9.994980 0.098492
vt 0.078392 0.098492
vt 0.078392 3.273368
vt 9.994980 3.273368
vt 9.994980 3.273368
vt 0.078392 3.273368
vt 0.078392 0.020100
vt 9.994980 0.020100
vt 5.840204 1.313568
vt 5.448244 1.940704
vt 4.585932 1.940704
vt 4.193972 1.313568
vt 1.058292 1.940704
vt 1.058292 3.234172
vt 0.039196 3.351760
vt 0.039196 0.098492
vt 7.682416 1.940704
vt 6.310556 0.098492
vt 9.994980 0.098492
vt 9.015079 1.940704
vt 9.994980 3.312564
vt 9.015079 3.194976
vt 2.351760 1.940704
vt 3.762816 0.098492
vt 3.762816 -0.019096
vt 4.193972 -0.019096
vt 3.253268 1.940704
vt 6.780908 1.940704
vt 7.682416 3.194976
vt 0.039196 3.312564
vt 1.058292 3.194976
vt 2.351760 3.194976
vt 3.253268 3.194976
vt 4.585932 3.194976
vt 5.448244 3.194976
vt 6.780908 3.194976
vt 5.840204 -0.019096
vt 6.271360 -0.019096
vt 5.840204 1.313568
vt 5.448244 1.940704
vt 4.585932 1.940704
vt 4.193972 1.313568
vt 1.058292 1.940704
vt 1.058292 3.234172
vt 0.039196 3.351760
vt 0.039196 0.098492
vt 7.682416 1.940704
vt 6.310556 0.098492
vt 9.015079 1.940704
vt 9.994980 3.312564
vt 9.015079 3.194976
vt 2.351760 1.940704
vt 3.762816 0.098492
vt 3.762816 -0.019096
vt 4.193972 -0.019096
vt 3.253268 1.940704
vt 6.780908 1.940704
vt 7.682416 3.194976
vt 0.039196 3.312564
vt 1.058292 3.194976
vt 2.351760 3.194976
vt 3.253268 3.194976
vt 4.585932 3.194976
vt 5.448244 3.194976
vt 6.780908 3.194976
vt 5.840204 -0.019096
vt 6.271360 -0.019096
vn -1.0000 -0.0000 0.0000
vn 1.0000 -0.0000 0.0000
vn 0.0000 -0.0000 1.0000
vn 0.0000 0.0000 -1.0000
usemtl texw1.png
s off
f 29/1/1 13/2/1 15/3/1
f 15/3/1 46/4/1 29/1/1
f 44/5/2 18/6/2 17/7/2
f 17/7/2 42/8/2 44/5/2
f 14/9/3 21/10/3 4/11/3
f 4/11/3 11/12/3 14/9/3
f 2/13/3 1/14/3 15/15/3
f 2/13/3 15/15/3 13/16/3
f 9/17/3 16/18/3 17/19/3
f 17/19/3 8/20/3 9/17/3
f 8/20/3 17/19/3 18/21/3
f 18/21/3 7/22/3 8/20/3
f 3/23/3 2/13/3 13/16/3
f 13/16/3 20/24/3 3/23/3
f 20/24/3 19/25/3 12/26/3
f 20/24/3 12/26/3 11/12/3
f 20/24/3 11/12/3 6/27/3
f 26/28/3 21/10/3 14/9/3
f 16/18/3 9/17/3 25/29/3
f 25/29/3 7/22/3 18/21/3
f 18/21/3 15/30/3 1/31/3
f 18/21/3 1/31/3 22/32/3
f 22/32/3 3/23/3 20/24/3
f 22/32/3 20/24/3 6/27/3
f 22/32/3 6/27/3 23/33/3
f 18/21/3 22/32/3 23/33/3
f 18/21/3 23/33/3 5/34/3
f 5/34/3 4/11/3 21/10/3
f 5/34/3 21/10/3 10/35/3
f 18/21/3 5/34/3 10/35/3
f 18/21/3 10/35/3 24/36/3
f 25/29/3 18/21/3 24/36/3
f 25/29/3 24/36/3 26/28/3
f 16/18/3 25/29/3 26/28/3
f 14/9/3 27/37/3 28/38/3
f 14/9/3 28/38/3 16/18/3
f 14/9/3 16/18/3 26/28/3
f 11/12/3 4/11/3 6/27/3
f 43/39/4 49/40/4 33/41/4
f 33/41/4 40/42/4 43/39/4
f 31/43/4 30/44/4 44/45/4
f 31/43/4 44/45/4 42/46/4
f 38/47/4 45/48/4 29/1/4
f 29/1/4 37/49/4 38/47/4
f 37/49/4 29/1/4 46/50/4
f 46/50/4 36/51/4 37/49/4
f 32/52/4 31/43/4 42/46/4
f 42/46/4 48/53/4 32/52/4
f 48/53/4 47/54/4 41/55/4
f 48/53/4 41/55/4 40/42/4
f 48/53/4 40/42/4 35/56/4
f 54/57/4 49/40/4 43/39/4
f 45/48/4 38/47/4 53/58/4
f 53/58/4 36/51/4 46/50/4
f 46/50/4 44/59/4 30/60/4
f 46/50/4 30/60/4 50/61/4
f 50/61/4 32/52/4 48/53/4
f 50/61/4 48/53/4 35/56/4
f 50/61/4 35/56/4 51/62/4
f 46/50/4 50/61/4 51/62/4
f 46/50/4 51/62/4 34/63/4
f 34/63/4 33/41/4 49/40/4
f 34/63/4 49/40/4 39/64/4
f 46/50/4 34/63/4 39/64/4
f 46/50/4 39/64/4 52/65/4
f 53/58/4 46/50/4 52/65/4
f 53/58/4 52/65/4 54/57/4
f 45/48/4 53/58/4 54/57/4
f 43/39/4 55/66/4 56/67/4
f 43/39/4 56/67/4 45/48/4
f 43/39/4 45/48/4 54/57/4
f 40/42/4 33/41/4 35/56/4
