# Blender v3.2.1 OBJ File: ''
# www.blender.org
mtllib props_texgr3.mtl
v 25.276505 0.200023 -51.690002
v 35.276505 0.200023 -51.690002
v 35.276505 0.000023 -51.490005
v 35.276505 0.200023 -51.490005
v 25.276505 0.200023 -51.490005
v 25.276505 0.000023 -51.490005
v 7.190000 0.199995 31.700001
v 7.190000 0.199993 41.700001
v 6.989999 -0.000007 41.700001
v 6.989999 0.199993 41.700001
v 6.990000 0.199995 31.700001
v 6.990000 -0.000005 31.700001
v -9.000000 0.200004 6.000000
v 1.000000 0.200004 6.000000
v 1.000000 0.000004 6.200001
v 1.000000 0.200004 6.200001
v -9.000000 0.200004 6.199999
v -9.000000 0.000004 6.199999
v 5.000000 0.200004 6.000000
v 5.200000 0.200005 2.000000
v 5.200000 0.000004 6.200001
v 5.200000 0.000005 2.000000
v 5.000000 0.200005 2.000000
v 1.000000 0.200004 6.200001
v 1.000000 0.000004 6.200001
v 1.000000 0.200004 6.000000
v 5.200000 0.200004 6.200001
v 30.000004 0.200003 14.600000
v 30.000004 0.000003 14.400000
v 20.000000 0.000003 14.400000
v 30.000004 0.200003 14.400000
v 20.000000 0.200003 14.600000
v 20.000000 0.200003 14.400000
v 14.476508 0.200018 -35.099998
v 24.476509 0.200018 -35.099998
v 24.476509 0.000018 -34.900002
v 24.476509 0.200018 -34.900002
v 14.476508 0.200018 -34.900002
v 14.476508 0.000018 -34.900002
v 24.476509 0.200018 -35.099998
v 34.476505 0.200018 -35.099998
v 34.476505 0.000018 -34.900002
v 34.476505 0.200018 -34.900002
v 24.476509 0.200018 -34.900002
v 24.476509 0.000018 -34.900002
v 26.776508 0.200009 -9.506529
v 26.776508 0.200007 0.493471
v 26.576508 0.000007 0.493471
v 26.576508 0.200007 0.493471
v 26.576508 0.200009 -9.506529
v 26.576508 0.000009 -9.506529
v 21.776508 0.200009 -8.506529
v 21.776508 0.200007 -18.506527
v 21.976509 0.000007 -18.506527
v 21.976509 0.200007 -18.506527
v 21.976509 0.200009 -8.506529
v 14.460649 0.003655 -8.506529
v 21.976509 0.208727 -8.706530
v 21.976509 0.008727 -8.506529
v 14.660650 0.203655 -8.506529
v 14.462606 0.058450 -8.506529
v 14.468006 0.208728 -8.556359
v 14.471769 0.208728 -8.706530
v 14.460649 0.203655 -8.506529
v 14.460649 0.003655 -18.506527
v 14.660650 0.203655 -18.506527
v 14.460649 0.203655 -18.506527
v 14.460649 0.063636 -25.507572
v 14.460649 0.003656 -25.509384
v 14.660650 0.203657 -25.502502
v 14.460649 0.203657 -25.503212
v 14.520720 0.203657 -25.502983
v 21.976509 0.205515 -26.306530
v 14.649867 0.205514 -26.506531
v 14.651720 0.205514 -26.360035
v 14.652279 0.205514 -26.306530
v 21.976509 0.205515 -26.506531
v 21.776508 0.214233 -26.506531
v 21.976509 0.014233 -26.506531
v 21.976507 0.063956 -18.992628
v 21.926678 0.214234 -18.998028
v 21.976507 0.214234 -18.998545
v 21.776506 0.214234 -19.001791
v 21.976507 0.014234 -18.990671
v 16.976509 0.105515 -26.506531
v 14.472851 0.005514 -26.506531
v 14.478027 0.205514 -26.506531
v 14.471144 0.155621 -26.506531
v 26.560644 0.003655 -18.506527
v 26.760645 0.203655 -18.506527
v 26.560644 0.203655 -18.506527
v 26.560644 0.063636 -25.507572
v 26.560644 0.003656 -25.509384
v 26.760645 0.203657 -25.502502
v 26.560644 0.203657 -25.503212
v 26.620716 0.203657 -25.502983
v 34.076504 0.205515 -26.306530
v 26.749863 0.205514 -26.506531
v 26.751715 0.205514 -26.360035
v 26.752274 0.205514 -26.306530
v 34.076504 0.205515 -26.506531
v 34.076504 0.005515 -26.506531
v 29.076504 0.105515 -26.506531
v 26.572845 0.005514 -26.506531
v 26.578022 0.205514 -26.506531
v 26.571138 0.155621 -26.506531
vt 0.000000 0.007573
vt 10.010568 0.007573
vt 10.010568 1.000000
vt 0.992427 0.007573
vt 11.002995 0.007573
vt 11.002995 1.000000
vt 0.000000 1.000000
vt 0.992427 1.000000
vt 0.000000 0.007573
vt 10.010568 0.007573
vt 10.010568 1.000000
vt 0.992427 0.007573
vt 11.002995 0.007573
vt 11.002995 1.000000
vt 0.000000 1.000000
vt 0.992427 1.000000
vt 0.000000 0.007573
vt 10.010568 0.007573
vt 10.010568 1.000000
vt 0.992427 0.007573
vt 11.002995 0.007573
vt 11.002995 1.000000
vt 0.000000 1.000000
vt 0.992427 1.000000
vt 4.748800 0.003600
vt 4.960800 1.021200
vt 0.763200 1.021200
vt 5.406000 0.024800
vt 5.406000 1.021200
vt 1.208400 1.021200
vt 4.197600 0.024800
vt 4.197600 1.021200
vt 0.000000 1.021200
vt 4.197600 0.024800
vt 4.197600 1.021200
vt 0.763200 0.003600
vt 1.208400 0.024800
vt 0.212000 0.024800
vt 0.000000 0.024800
vt 0.000000 0.007573
vt 10.010568 0.007573
vt 10.010568 1.000000
vt 0.992427 0.007573
vt 11.002995 0.007573
vt 11.002995 1.000000
vt 0.000000 1.000000
vt 0.992427 1.000000
vt 0.000000 0.007573
vt 10.010568 0.007573
vt 10.010568 1.000000
vt 0.992427 0.007573
vt 11.002995 0.007573
vt 11.002995 1.000000
vt 0.000000 1.000000
vt 0.992427 1.000000
vt 0.000000 0.007573
vt 10.010568 0.007573
vt 10.010568 1.000000
vt 0.992427 0.007573
vt 11.002995 0.007573
vt 11.002995 1.000000
vt 0.000000 1.000000
vt 0.992427 1.000000
vt 0.000000 0.007573
vt 10.010568 0.007573
vt 10.010568 1.000000
vt 0.992427 0.007573
vt 11.002995 0.007573
vt 11.002995 1.000000
vt 0.000000 1.000000
vt 0.992427 1.000000
vt 0.000000 0.007573
vt 10.010568 0.007573
vt 10.010568 1.000000
vt 0.992427 0.007573
vt 11.002995 0.007573
vt 11.002995 1.000000
vt 0.000000 1.000000
vt 0.992427 1.000000
vt 0.000000 0.007573
vt 7.512673 0.007573
vt 7.516440 0.752737
vt 11.002995 1.000000
vt 0.992427 1.000000
vt 0.992427 0.007573
vt 10.010568 1.000000
vt 0.000000 1.000000
vt 0.000000 0.007573
vt 11.002995 1.000000
vt 3.487072 1.000000
vt 3.481150 0.254300
vt 11.002995 0.007573
vt 10.010568 0.007573
vt 3.479190 0.007573
vt 11.002995 0.007573
vt 7.515923 1.000000
vt 0.000000 1.000000
vt 10.968750 1.000000
vt 3.968750 1.000000
vt 3.968750 0.375000
vt 0.000000 0.007573
vt 7.003370 0.007573
vt 7.003850 0.701920
vt 7.004080 1.000000
vt 0.000000 1.000000
vt 3.968750 0.000000
vt 10.968750 0.000000
vt 0.125000 0.125000
vt 0.125000 1.125000
vt 0.125000 0.250000
vt 0.992427 0.007573
vt 8.504016 0.007573
vt 8.505724 0.752426
vt 5.997711 0.503787
vt 10.010568 1.000000
vt 2.676183 1.000000
vt 2.678037 0.273068
vt 0.968750 0.625000
vt 0.968750 1.000000
vt 0.156250 1.000000
vt 0.093750 1.000000
vt 0.000000 0.007573
vt 7.512673 0.007573
vt 7.516440 0.752737
vt 11.002995 1.000000
vt 3.487072 1.000000
vt 3.481150 0.254300
vt 3.479190 0.007573
vt 11.002995 0.007573
vt 7.515923 1.000000
vt 0.000000 1.000000
vt 2.678596 0.007573
vt 10.010568 0.007573
vt 0.968750 -0.000000
vt 0.968750 0.125000
vt -0.250000 0.375000
vt -0.250000 -0.000000
vt 8.498834 1.000000
vt 8.326813 1.000000
vt 0.992427 1.000000
vt -0.250000 1.000000
vt -0.250000 0.500000
vt 0.968750 0.500000
vt 10.968750 1.000000
vt 3.968750 1.000000
vt 3.968750 0.375000
vt 0.000000 0.007573
vt 7.003370 0.007573
vt 7.003850 0.701920
vt 7.004080 1.000000
vt 0.000000 1.000000
vt 3.968750 0.000000
vt 10.968750 0.000000
vt 0.125000 0.125000
vt 0.125000 1.125000
vt 0.125000 0.250000
vt 0.992427 0.007573
vt 8.504016 0.007573
vt 8.505724 0.752426
vt 5.997711 0.503787
vt 10.010568 1.000000
vt 2.676183 1.000000
vt 2.678037 0.273068
vt 0.968750 0.625000
vt 0.968750 1.000000
vt 0.156250 1.000000
vt 0.093750 1.000000
vt 2.678596 0.007573
vt 10.010568 0.007573
vt 0.968750 -0.000000
vt 0.968750 0.125000
vt -0.250000 0.375000
vt -0.250000 -0.000000
vt 8.498834 1.000000
vt 8.326813 1.000000
vt 0.992427 1.000000
vt -0.250000 1.000000
vt -0.250000 0.500000
vt 0.968750 0.500000
vn 0.0000 1.0000 0.0000
vn 0.0000 0.0000 1.0000
vn -1.0000 0.0000 -0.0000
vn 1.0000 0.0000 -0.0000
vn 0.0000 0.0000 -1.0000
vn 0.0008 0.9985 0.0551
vn -0.0131 0.9999 0.0002
vn -0.0008 1.0000 0.0022
vn 0.0349 0.9994 -0.0009
vn -0.9999 -0.0080 -0.0117
vn -0.0000 1.0000 0.0019
vn -0.9993 0.0365 -0.0122
usemtl texgr3.png
s off
f 2/1/1 1/2/1 5/3/1
f 6/4/2 3/5/2 4/6/2
f 5/3/1 4/7/1 2/1/1
f 4/6/2 5/8/2 6/4/2
f 8/9/1 7/10/1 11/11/1
f 12/12/3 9/13/3 10/14/3
f 11/11/1 10/15/1 8/9/1
f 10/14/3 11/16/3 12/12/3
f 14/17/1 13/18/1 17/19/1
f 18/20/2 15/21/2 16/22/2
f 17/19/1 16/23/1 14/17/1
f 16/22/2 17/24/2 18/20/2
f 19/25/1 27/26/1 20/27/1
f 21/28/2 27/29/2 24/30/2
f 26/31/1 24/32/1 27/33/1
f 22/34/4 20/35/4 27/33/4
f 20/27/1 23/36/1 19/25/1
f 24/30/2 25/37/2 21/28/2
f 27/33/1 19/38/1 26/31/1
f 27/33/4 21/39/4 22/34/4
f 32/40/1 28/41/1 31/42/1
f 29/43/5 30/44/5 33/45/5
f 31/42/1 33/46/1 32/40/1
f 33/45/5 31/47/5 29/43/5
f 35/48/1 34/49/1 38/50/1
f 39/51/2 36/52/2 37/53/2
f 38/50/1 37/54/1 35/48/1
f 37/53/2 38/55/2 39/51/2
f 41/56/1 40/57/1 44/58/1
f 45/59/2 42/60/2 43/61/2
f 44/58/1 43/62/1 41/56/1
f 43/61/2 44/63/2 45/59/2
f 47/64/1 46/65/1 50/66/1
f 51/67/3 48/68/3 49/69/3
f 50/66/1 49/70/1 47/64/1
f 49/69/3 50/71/3 51/67/3
f 53/72/1 52/73/1 56/74/1
f 59/75/4 54/76/4 55/77/4
f 56/74/1 55/78/1 53/72/1
f 55/77/4 56/79/4 59/75/4
f 58/80/1 63/81/1 62/82/1
f 64/83/3 67/84/3 65/85/3
f 67/86/1 64/87/1 60/88/1
f 56/89/2 64/90/2 61/91/2
f 65/85/3 57/92/3 64/83/3
f 60/88/1 66/93/1 67/86/1
f 61/91/2 57/94/2 59/95/2 56/89/2
f 62/82/6 64/96/6 56/97/6 58/80/6
f 67/98/3 71/99/3 68/100/3
f 66/101/1 70/102/1 72/103/1
f 72/103/1 71/104/1 67/105/1 66/101/1
f 68/100/3 69/106/3 65/107/3 67/98/3
f 74/108/7 72/109/7 75/110/7
f 79/111/5 86/112/5 88/113/5 85/114/5
f 77/115/1 74/116/1 75/117/1
f 72/118/8 70/119/8 76/120/8 75/121/8
f 78/122/1 83/123/1 81/124/1
f 77/125/4 82/126/4 80/127/4
f 80/127/4 84/128/4 79/129/4 77/125/4
f 81/124/9 82/130/9 77/131/9 78/122/9
f 75/117/1 76/132/1 73/133/1 77/115/1
f 69/134/10 68/135/10 88/136/10 86/137/10
f 88/113/5 87/138/5 74/139/5 77/140/5 79/111/5 85/114/5
f 72/118/11 74/141/11 87/142/11 71/143/11
f 68/135/12 71/143/12 87/142/12 88/136/12
f 91/144/3 95/145/3 92/146/3
f 90/147/1 94/148/1 96/149/1
f 96/149/1 95/150/1 91/151/1 90/147/1
f 92/146/3 93/152/3 89/153/3 91/144/3
f 98/154/7 96/155/7 99/156/7
f 102/157/5 104/158/5 106/159/5 103/160/5
f 101/161/1 98/162/1 99/163/1
f 96/164/8 94/165/8 100/166/8 99/167/8
f 99/163/1 100/168/1 97/169/1 101/161/1
f 93/170/10 92/171/10 106/172/10 104/173/10
f 106/159/5 105/174/5 98/175/5 101/176/5 102/157/5 103/160/5
f 96/164/11 98/177/11 105/178/11 95/179/11
f 92/171/12 95/179/12 105/178/12 106/172/12
