# Blender v3.2.1 OBJ File: ''
# www.blender.org
mtllib props_texw2.mtl
v 35.276505 6.000023 -51.500000
v 35.276505 6.000024 -57.500000
v 35.276505 0.000024 -57.500000
v 37.276505 4.700023 -51.000000
v 44.276505 0.000023 -51.000000
v 37.276505 3.300023 -51.000000
v 44.276505 2.600023 -51.000000
v 47.276505 0.000023 -51.000000
v 48.276505 0.000023 -51.000000
v 48.276505 6.000023 -51.000000
v 47.276505 3.300023 -51.199997
v 47.276505 4.700023 -51.000000
v 37.276505 3.300023 -51.199997
v 47.276505 3.300023 -51.000000
v 35.076508 0.000023 -50.800003
v 35.776505 6.000023 -51.000000
v 35.776505 6.000023 -50.800003
v 35.776505 0.000023 -50.800003
v 35.776505 0.000023 -51.000000
v 35.276505 0.000023 -51.500000
v 35.076508 6.000023 -51.500000
v 35.076508 0.000023 -51.500000
v 35.076508 6.000023 -50.800003
v 47.276505 2.600023 -51.000000
v 47.276505 2.600023 -51.199997
v 37.276505 4.700023 -51.199997
v 47.276505 4.700023 -51.199997
v 44.276505 2.600023 -51.199997
v 44.276505 0.000023 -51.199997
v 47.276505 0.000023 -51.199997
v 48.276505 6.000022 -45.000000
v 48.276505 6.000023 -51.000000
v 48.276505 0.000023 -51.000000
v 50.276505 4.700022 -44.500000
v 57.276505 0.000022 -44.500000
v 50.276505 3.300021 -44.500000
v 57.276505 2.600022 -44.500000
v 60.276505 0.000022 -44.500000
v 61.276505 0.000022 -44.500000
v 61.276505 6.000022 -44.500000
v 60.276505 3.300022 -44.699997
v 60.276505 4.700022 -44.500000
v 50.276505 3.300022 -44.699997
v 60.276505 3.300021 -44.500000
v 48.076508 0.000022 -44.300003
v 48.776505 6.000022 -44.500000
v 48.776505 6.000022 -44.300003
v 48.776505 0.000022 -44.300003
v 48.776505 0.000022 -44.500000
v 48.276505 0.000022 -45.000000
v 48.076508 6.000022 -45.000000
v 48.076508 0.000022 -45.000000
v 48.076508 6.000022 -44.300003
v 60.276505 2.600022 -44.500000
v 60.276505 2.600022 -44.699997
v 50.276505 4.700022 -44.699997
v 60.276505 4.700022 -44.699997
v 57.276505 2.600022 -44.699997
v 57.276505 0.000022 -44.699997
v 60.276505 0.000022 -44.699997
v 7.000000 1.000000 32.700001
v 7.000000 1.000003 13.299999
v 7.000000 7.000002 13.300000
v 7.000000 5.000001 23.000000
v 7.000000 7.000002 14.400001
v 7.000000 5.000002 18.400002
v 7.000000 5.000000 27.700001
v 7.000000 7.000000 31.700003
v 19.000000 1.000000 32.700001
v 19.000000 7.000000 32.700001
v 7.000000 7.000000 32.700001
v 7.000000 5.000000 31.700001
v 7.000000 5.000002 14.400001
v 19.000000 7.000002 13.300000
v 19.000000 1.000003 13.299999
vt 1.985173 4.835758
vt -1.009410 4.835758
vt -1.009410 -3.744227
vt 1.985173 -3.744227
vt -2.018820 2.951526
vt 2.994583 2.951526
vt 3.499288 4.835758
vt -2.759054 4.835758
vt -2.759054 -3.744227
vt -2.018820 0.966353
vt 1.480468 -3.744227
vt 1.480468 -0.043057
vt 2.994583 0.966353
vt 2.994583 -0.043057
vt 2.994583 -3.744227
vt 3.499288 -3.744227
vt 1.884232 2.951526
vt 1.884232 0.966353
vt 1.985173 0.966353
vt 1.985173 2.951526
vt 2.994583 -0.917879
vt -1.985173 -0.917879
vt -1.985173 -1.018820
vt 2.994583 -1.018820
vt -0.908469 0.966353
vt -0.908469 2.951526
vt -1.009410 2.951526
vt -1.009410 0.966353
vt 2.994583 -0.917879
vt -2.018820 -0.917879
vt -2.018820 -1.018820
vt 2.994583 -1.018820
vt 0.706587 4.835758
vt 0.000000 4.835758
vt 0.000000 -3.744227
vt 0.706587 -3.744227
vt 0.706587 4.835758
vt 0.000000 4.835758
vt 0.000000 -3.744227
vt 0.706587 -3.744227
vt 1.009410 4.835758
vt 0.302823 4.835758
vt 0.302823 -3.744227
vt 1.009410 -3.744227
vt 0.975763 4.835758
vt 0.302823 4.835758
vt 0.302823 -3.744227
vt 0.975763 -3.744227
vt 2.994583 -0.043057
vt 2.994583 -3.744227
vt 1.480468 -0.043057
vt 1.480468 -3.744227
vt 1.985173 4.835758
vt -1.009410 4.835758
vt -1.009410 -3.744227
vt 1.985173 -3.744227
vt -2.018820 2.951526
vt 2.994583 2.951526
vt 3.499288 4.835758
vt -2.759054 4.835758
vt -2.759054 -3.744227
vt -2.018820 0.966353
vt 1.480468 -3.744227
vt 1.480468 -0.043057
vt 2.994583 0.966353
vt 2.994583 -0.043057
vt 2.994583 -3.744227
vt 3.499288 -3.744227
vt 1.884232 2.951526
vt 1.884232 0.966353
vt 1.985173 0.966353
vt 1.985173 2.951526
vt 2.994583 -0.917879
vt -1.985173 -0.917879
vt -1.985173 -1.018820
vt 2.994583 -1.018820
vt -0.908469 0.966353
vt -0.908469 2.951526
vt -1.009410 2.951526
vt -1.009410 0.966353
vt 2.994583 -0.917879
vt -2.018820 -0.917879
vt -2.018820 -1.018820
vt 2.994583 -1.018820
vt 0.706587 4.835758
vt 0.000000 4.835758
vt 0.000000 -3.744227
vt 0.706587 -3.744227
vt 0.706587 4.835758
vt 0.000000 4.835758
vt 0.000000 -3.744227
vt 0.706587 -3.744227
vt 1.009410 4.835758
vt 0.302823 4.835758
vt 0.302823 -3.744227
vt 1.009410 -3.744227
vt 0.975763 4.835758
vt 0.302823 4.835758
vt 0.302823 -3.744227
vt 0.975763 -3.744227
vt 2.994583 -0.043057
vt 2.994583 -3.744227
vt 1.480468 -0.043057
vt 1.480468 -3.744227
vt 0.441196 3.016896
vt 0.441196 4.529568
vt 0.000000 4.529568
vt 0.000000 -0.008448
vt 0.000000 -0.008448
vt 0.000000 4.529568
vt 5.073754 4.529568
vt 5.073754 -0.008448
vt 8.036070 -0.008448
vt 7.626388 3.016896
vt 5.956146 3.016896
vt 8.036070 4.529568
vt 7.626388 4.529568
vt 2.111438 3.016896
vt 4.002278 3.016896
vt 0.000000 -0.008448
vt 5.073754 -0.008448
vt 5.073754 4.529568
vt 0.000000 4.529568
vn -1.0000 0.0000 0.0000
vn 0.0000 0.0000 1.0000
vn 0.0000 -1.0000 0.0000
vn 1.0000 0.0000 0.0000
vn 0.0000 1.0000 0.0000
vn 0.0000 0.0000 -1.0000
usemtl texw2
s off
f 1/1/1 2/2/1 3/3/1
f 3/3/1 20/4/1 1/1/1
f 4/5/2 12/6/2 10/7/2
f 4/5/2 10/7/2 16/8/2
f 4/5/2 16/8/2 19/9/2
f 6/10/2 4/5/2 19/9/2
f 6/10/2 19/9/2 5/11/2
f 6/10/2 5/11/2 7/12/2
f 14/13/2 6/10/2 7/12/2
f 14/13/2 7/12/2 24/14/2
f 24/14/2 8/15/2 9/16/2
f 14/13/2 24/14/2 9/16/2
f 14/13/2 9/16/2 10/7/2
f 14/13/2 10/7/2 12/6/2
f 27/17/1 11/18/1 14/19/1
f 14/19/1 12/20/1 27/17/1
f 26/21/3 27/22/3 12/23/3
f 12/23/3 4/24/3 26/21/3
f 13/25/4 26/26/4 4/27/4
f 4/27/4 6/28/4 13/25/4
f 11/29/5 13/30/5 6/31/5
f 6/31/5 14/32/5 11/29/5
f 17/33/2 23/34/2 15/35/2
f 15/35/2 18/36/2 17/33/2
f 16/37/4 17/38/4 18/39/4
f 18/39/4 19/40/4 16/37/4
f 21/41/6 1/42/6 20/43/6
f 20/43/6 22/44/6 21/41/6
f 23/45/1 21/46/1 22/47/1
f 22/47/1 15/48/1 23/45/1
f 25/49/1 30/50/1 8/15/1
f 8/15/1 24/14/1 25/49/1
f 28/51/3 25/49/3 24/14/3
f 24/14/3 7/12/3 28/51/3
f 29/52/4 28/51/4 7/12/4
f 7/12/4 5/11/4 29/52/4
f 31/53/1 32/54/1 33/55/1
f 33/55/1 50/56/1 31/53/1
f 34/57/2 42/58/2 40/59/2
f 34/57/2 40/59/2 46/60/2
f 34/57/2 46/60/2 49/61/2
f 36/62/2 34/57/2 49/61/2
f 36/62/2 49/61/2 35/63/2
f 36/62/2 35/63/2 37/64/2
f 44/65/2 36/62/2 37/64/2
f 44/65/2 37/64/2 54/66/2
f 54/66/2 38/67/2 39/68/2
f 44/65/2 54/66/2 39/68/2
f 44/65/2 39/68/2 40/59/2
f 44/65/2 40/59/2 42/58/2
f 57/69/1 41/70/1 44/71/1
f 44/71/1 42/72/1 57/69/1
f 56/73/3 57/74/3 42/75/3
f 42/75/3 34/76/3 56/73/3
f 43/77/4 56/78/4 34/79/4
f 34/79/4 36/80/4 43/77/4
f 41/81/5 43/82/5 36/83/5
f 36/83/5 44/84/5 41/81/5
f 47/85/2 53/86/2 45/87/2
f 45/87/2 48/88/2 47/85/2
f 46/89/4 47/90/4 48/91/4
f 48/91/4 49/92/4 46/89/4
f 51/93/6 31/94/6 50/95/6
f 50/95/6 52/96/6 51/93/6
f 53/97/1 51/98/1 52/99/1
f 52/99/1 45/100/1 53/97/1
f 55/101/1 60/102/1 38/67/1
f 38/67/1 54/66/1 55/101/1
f 58/103/3 55/101/3 54/66/3
f 54/66/3 37/64/3 58/103/3
f 59/104/4 58/103/4 37/64/4
f 37/64/4 35/63/4 59/104/4
f 73/105/1 65/106/1 63/107/1
f 63/107/1 62/108/1 73/105/1
f 69/109/2 70/110/2 71/111/2
f 71/111/2 61/112/2 69/109/2
f 61/113/1 72/114/1 67/115/1
f 71/116/1 68/117/1 72/114/1
f 72/114/1 61/113/1 71/116/1
f 66/118/1 73/105/1 62/108/1
f 67/115/1 64/119/1 61/113/1
f 64/119/1 62/108/1 61/113/1
f 64/119/1 66/118/1 62/108/1
f 75/120/6 62/121/6 63/122/6
f 63/122/6 74/123/6 75/120/6
