# Blender v3.2.1 OBJ File: ''
# www.blender.org
mtllib props_texgr2.mtl
v 11.190000 0.199993 41.700001
v 11.190000 0.199995 31.700001
v 7.190000 0.199995 31.700001
v 7.190000 0.199993 41.700001
v 1.000000 0.200005 2.000000
v -9.000000 0.200005 2.000000
v -9.000000 0.200004 6.000000
v 1.000000 0.200004 6.000000
v 1.000000 0.200005 2.000000
v 5.000000 0.200004 6.000000
v 5.000000 0.200005 2.000000
v 1.000000 0.200004 6.000000
v 20.000000 0.200002 18.600000
v 30.000004 0.200002 18.600000
v 30.000004 0.200003 14.600000
v 20.000000 0.200003 14.600000
v 24.476509 0.200019 -39.099998
v 14.476508 0.200019 -39.099998
v 14.476508 0.200018 -35.099998
v 24.476509 0.200018 -35.099998
v 24.476509 0.200019 -39.099998
v 24.476509 0.200018 -35.099998
v 34.476505 0.200018 -35.099998
v 30.435520 0.200018 -37.483604
v 27.697283 0.200019 -39.099998
v 30.776508 0.200007 1.493471
v 30.776508 0.200009 -8.506529
v 26.776508 0.200009 -8.506529
v 26.776508 0.200007 1.493471
v 35.276505 0.200024 -55.690002
v 25.276505 0.200024 -55.690002
v 25.276505 0.200023 -51.690002
v 35.276505 0.200023 -51.690002
v 26.776508 0.200009 -8.506529
v 26.776508 0.200009 -9.506529
v 15.276507 0.200009 -9.506529
v 33.276508 0.200009 -9.506529
v 14.476508 0.200012 -25.506529
v 14.476504 0.200009 -8.506529
v 15.276507 0.200012 -25.506529
v 21.776508 0.200009 -8.506529
v 21.776508 0.200009 -9.506529
v 34.076511 0.200009 -8.506529
v 33.276508 0.200009 -25.506531
v 21.776505 0.200009 -26.506531
v 21.776505 0.200009 -25.506531
v 14.476501 0.200009 -26.506529
v 34.076504 0.200012 -26.506533
v 33.276505 0.200012 -26.506533
v 26.776508 0.200009 -25.506531
v 26.776508 0.200009 -26.506531
v 34.076511 0.200009 -25.506533
vt 0.000000 0.007573
vt 5.005284 0.007573
vt 5.005284 1.992427
vt 0.000000 1.992427
vt 0.000000 0.007573
vt 5.005284 0.007573
vt 5.005284 1.992427
vt 0.000000 1.992427
vt 0.000000 0.024800
vt 1.992800 0.024800
vt 1.992800 2.017600
vt 0.000000 2.017600
vt 0.000000 0.007573
vt 5.005284 0.007573
vt 5.005284 1.992427
vt 0.000000 1.992427
vt 0.000000 0.007573
vt 5.005284 0.007573
vt 5.005284 1.992427
vt 0.000000 1.992427
vt 5.005284 1.992427
vt 0.000000 1.992427
vt 2.022629 0.809650
vt 3.393194 0.007573
vt 5.005284 0.007573
vt 0.000000 0.007573
vt 5.005284 0.007573
vt 5.005284 1.992427
vt 0.000000 1.992427
vt 0.000000 0.007573
vt 5.005284 0.007573
vt 5.005284 1.992427
vt 0.000000 1.992427
vt 9.720608 4.135680
vt 9.720608 4.684424
vt 0.744724 4.684424
vt 1.254272 4.135680
vt 0.744724 0.725628
vt 1.254272 0.725628
vt 0.587940 0.568844
vt 0.587940 4.018092
vt 0.039196 4.018092
vt 0.039196 0.020100
vt 9.054276 0.568844
vt 9.054276 0.020100
vt 0.593750 0.562500
vt 0.562500 4.000000
vt -0.000000 4.000000
vt 0.031250 0.000000
vt 0.593750 0.000000
vt 0.593750 0.562500
vt 0.562500 4.000000
vt -0.000000 4.000000
vt 0.031250 0.000000
vt 0.593750 0.000000
vn 0.0000 1.0000 0.0000
usemtl texgr2.png
s off
f 1/1/1 2/2/1 3/3/1
f 3/3/1 4/4/1 1/1/1
f 5/5/1 6/6/1 7/7/1
f 7/7/1 8/8/1 5/5/1
f 9/9/1 12/10/1 10/11/1
f 10/11/1 11/12/1 9/9/1
f 13/13/1 14/14/1 15/15/1
f 15/15/1 16/16/1 13/13/1
f 17/17/1 18/18/1 19/19/1
f 19/19/1 20/20/1 17/17/1
f 22/21/1 23/22/1 24/23/1
f 24/23/1 25/24/1 21/25/1 22/21/1
f 26/26/1 27/27/1 28/28/1
f 28/28/1 29/29/1 26/26/1
f 30/30/1 31/31/1 32/32/1
f 32/32/1 33/33/1 30/30/1
f 40/34/1 38/35/1 39/36/1
f 39/36/1 36/37/1 40/34/1
f 36/37/1 39/36/1 41/38/1
f 41/38/1 42/39/1 36/37/1
f 37/40/1 35/41/1 34/42/1
f 34/42/1 43/43/1 37/40/1
f 44/44/1 37/40/1 43/43/1
f 43/43/1 52/45/1 44/44/1
f 40/46/1 46/47/1 45/48/1
f 45/48/1 47/49/1 40/46/1
f 40/46/1 47/49/1 38/50/1
f 49/51/1 51/52/1 50/53/1
f 50/53/1 52/54/1 49/51/1
f 49/51/1 52/54/1 48/55/1
