# Blender v3.0.0 OBJ File: ''
# www.blender.org
mtllib f_road_forest.mtl
v -46.106621 -6.315744 -50.205296
v 20.409935 -6.315742 -65.105957
v 20.409935 27.697504 -65.105949
v -46.106621 27.697500 -50.205292
v -20.398012 -6.315763 65.105957
v -66.609932 -6.315755 14.801323
v -20.398012 27.697481 65.105965
v -66.609932 27.697491 14.801329
vt -0.000046 -0.000046
vt 1.000046 -0.000046
vt -0.000046 1.000046
vt 1.000046 1.000046
vt -0.000046 -0.000046
vt 1.000046 -0.000046
vt -0.000046 1.000046
vt 1.000046 1.000046
vt -0.000046 -0.000046
vt 1.000046 -0.000046
vt -0.000046 1.000046
vt 1.000046 1.000046
vn 0.2186 -0.0000 0.9758
vn 0.9537 -0.0000 0.3008
vn 0.7364 0.0000 -0.6765
usemtl forest
s off
f 1/1/1 2/2/1 4/3/1
f 2/2/1 3/4/1 4/3/1
f 6/5/2 1/6/2 8/7/2
f 1/6/2 4/8/2 8/7/2
f 5/9/3 6/10/3 7/11/3
f 6/10/3 8/12/3 7/11/3
