# Blender v3.0.0 OBJ File: ''
# www.blender.org
mtllib f_road_1.mtl
v 7.200000 2.200001 -2.899999
v 7.200000 2.200001 -4.100000
v 7.200000 0.000001 -4.100000
v 7.200000 0.000000 -2.900000
v 4.753117 1.100000 -1.664120
v 4.822576 1.100000 -2.058043
v 3.177424 1.100000 -1.941957
v 4.915349 0.000000 -1.432429
v 3.246883 1.100000 -2.335880
v 5.054267 0.000000 -2.220275
v 3.084651 0.000000 -2.567571
v 2.945733 0.000000 -1.779725
v 0.177424 1.100000 -2.058043
v 0.084652 0.000000 -1.432429
v 2.054267 0.000000 -1.779725
v 1.822576 1.100000 -1.941957
v 1.915349 0.000000 -2.567571
v -0.054267 0.000000 -2.220275
v 1.753117 1.100000 -2.335880
v 0.246883 1.100000 -1.664120
v -2.869228 2.000000 -0.794420
v -1.884420 2.000000 -0.620772
v -2.869228 1.000000 -0.794420
v -1.884420 1.000000 -0.620772
v -1.710772 1.000000 -1.605580
v -1.710772 2.000000 -1.605579
v -2.695580 2.000000 -1.779228
v -2.695580 1.000000 -1.779228
v -2.654520 1.000000 -0.658325
v -1.745481 1.000000 -1.741675
v -1.658325 1.000000 -0.745480
v -1.658325 0.000000 -0.745481
v -2.741675 1.000000 -1.654519
v -1.745481 0.000000 -1.741675
v -2.741675 0.000000 -1.654520
v -2.654520 0.000000 -0.658325
v -3.212372 1.000000 -2.046447
v -2.246447 1.000000 -1.787628
v -3.212372 0.000000 -2.046447
v -2.246447 0.000000 -1.787628
v -1.987628 0.000000 -2.753553
v -1.987628 1.000000 -2.753553
v -2.953553 1.000000 -3.012372
v -2.953553 0.000000 -3.012372
v -5.368149 0.000000 -1.082362
v -5.368149 2.000000 -1.082361
v -1.504446 2.000000 -0.047085
v -1.504446 0.000000 -0.047085
v -9.231852 0.000000 -2.117638
v -9.231852 2.000000 -2.117638
v -13.095554 0.000001 -3.152915
v -13.095554 2.000000 -3.152915
v -1.800000 0.000001 -4.800000
v -2.100000 1.100001 -5.000000
v -2.300000 1.000001 -5.000000
v -2.100000 1.000001 -5.300000
v -2.300000 1.000001 -5.300000
v -1.800000 0.000001 -5.200000
v -2.200000 0.000001 -5.200000
v -2.200000 0.000001 -4.800000
v -0.800000 4.300001 -4.300000
v -2.700000 2.500001 -4.800000
v -3.500000 3.900001 -5.000000
v -2.800000 2.400001 -5.000000
v -2.000000 2.700001 -5.500000
v -1.900000 2.600001 -5.599999
v -1.500000 3.200001 -5.900000
v -1.400000 3.100001 -6.000000
v -1.800000 2.600001 -5.500000
v -1.000000 4.700001 -6.699999
v -2.900000 2.300001 -4.800000
v -2.700000 3.300001 -5.300000
v -2.600000 3.300001 -5.199999
v -2.400000 3.900001 -5.699999
v -1.300000 3.100001 -5.900000
v -1.500000 3.900001 -6.599999
v -1.500000 3.000001 -4.300000
v -0.800000 3.500001 -4.699999
v -1.700000 3.100001 -4.300000
v -1.600000 3.100001 -4.400000
v -2.800000 4.500001 -5.499999
v -2.800000 3.400001 -5.199999
v -1.900000 2.100001 -4.900000
v -1.900000 2.000001 -5.099999
v -2.100000 2.000001 -5.099999
v -2.100000 1.900001 -4.900000
v 6.528441 1.399997 19.151947
v 6.926919 1.199997 19.186810
v 7.026539 1.299997 19.195524
v 7.898098 1.299999 9.233578
v 7.225778 0.799997 19.212955
v 7.126158 0.799997 19.204239
v 8.097337 0.799999 9.251009
v 7.997717 0.799999 9.242293
v 7.798478 1.199998 9.224862
v 7.026539 0.299997 19.195524
v 6.926919 0.399997 19.186810
v 7.898098 0.299999 9.233578
v 7.798478 0.399999 9.224862
v 7.400000 0.199999 9.190000
v 6.030344 0.299997 19.108368
v 7.400000 0.099999 9.190000
v 6.528441 0.199997 19.151947
v 6.528441 0.099997 19.151947
v 6.901903 0.299999 9.146421
v 6.129963 0.399997 19.117085
v 5.930725 0.799997 19.099651
v 5.831105 0.799997 19.090937
v 7.001522 0.399999 9.155137
v 6.702664 0.799999 9.128990
v 6.129963 1.199997 19.117085
v 6.901903 1.299999 9.146421
v 6.802283 0.799999 9.137706
v 6.528441 1.499997 19.151947
v 6.030344 1.299997 19.108368
v 7.001522 1.199998 9.155137
v 7.400000 1.499998 9.190000
v 7.400000 1.399999 9.190000
v 10.400000 1.799999 8.190000
v 8.663517 1.699997 18.038076
v 10.400000 1.699999 8.190000
v 10.892404 1.599999 8.276824
v 9.155921 1.599997 18.124901
v 9.057440 1.499997 18.107536
v 10.793922 1.499999 8.259459
v 10.892404 0.599999 8.276824
v 11.089365 1.099999 8.311553
v 9.352882 1.099997 18.159630
v 9.254402 1.099997 18.142265
v 9.057440 0.699997 18.107536
v 10.990884 1.099999 8.294188
v 9.155921 0.599997 18.124901
v 8.663517 0.499997 18.038076
v 10.400000 0.399999 8.190000
v 10.400000 0.499999 8.190000
v 10.793922 0.699999 8.259459
v 8.663517 0.399997 18.038076
v 8.171114 0.599997 17.951252
v 8.269594 0.699997 17.968616
v 9.907596 0.599999 8.103175
v 8.072633 1.099997 17.933887
v 7.974152 1.099997 17.916523
v 10.006077 0.699999 8.120541
v 9.809115 1.099999 8.085811
v 9.710634 1.099999 8.068446
v 10.006077 1.499999 8.120541
v 8.171114 1.599997 17.951252
v 8.269594 1.499997 17.968616
v 8.663517 1.799997 18.038076
v 9.907596 1.599999 8.103175
v -0.825689 -0.000001 7.992390
v -0.825689 1.999999 7.992390
v -0.477066 1.999998 11.977168
v -0.477066 -0.000002 11.977168
v -1.174311 -0.000001 4.007610
v -1.174311 1.999999 4.007611
v -1.522934 -0.000000 0.022832
v -1.522934 2.000000 0.022832
vt 0.625000 0.255000
vt 0.625000 0.500000
vt 0.500000 0.500000
vt 0.500000 0.255000
vt 0.500000 0.090000
vt 0.255000 0.090000
vt 0.255000 0.125000
vt 0.500000 0.125000
vt 0.250000 0.000000
vt 0.495000 0.000000
vt 0.470000 0.125000
vt 0.275000 0.125000
vt 0.460000 0.000000
vt 0.335000 0.000000
vt 0.365000 0.125000
vt 0.425000 0.125000
vt 0.495000 0.000000
vt 0.250000 0.000000
vt 0.275000 0.125000
vt 0.470000 0.125000
vt 0.335000 0.000000
vt 0.460000 0.000000
vt 0.425000 0.125000
vt 0.365000 0.125000
vt 0.500000 0.090000
vt 0.255000 0.090000
vt 0.255000 0.125000
vt 0.500000 0.125000
vt 0.250000 0.000000
vt 0.495000 0.000000
vt 0.470000 0.125000
vt 0.275000 0.125000
vt 0.460000 0.000000
vt 0.335000 0.000000
vt 0.365000 0.125000
vt 0.425000 0.125000
vt 0.495000 0.000000
vt 0.250000 0.000000
vt 0.275000 0.125000
vt 0.470000 0.125000
vt 0.335000 0.000000
vt 0.460000 0.000000
vt 0.425000 0.125000
vt 0.365000 0.125000
vt 0.810000 0.435000
vt 0.625000 0.435000
vt 0.625000 0.250000
vt 0.810000 0.250000
vt 0.810000 0.435000
vt 0.625000 0.435000
vt 0.625000 0.250000
vt 0.810000 0.250000
vt 0.625000 0.435000
vt 0.625000 0.250000
vt 0.810000 0.250000
vt 0.810000 0.435000
vt 0.625000 0.435000
vt 0.625000 0.250000
vt 0.810000 0.250000
vt 0.810000 0.435000
vt 0.625000 0.250000
vt 0.810000 0.250000
vt 0.810000 0.435000
vt 0.625000 0.435000
vt 0.625000 0.250000
vt 0.810000 0.250000
vt 0.810000 0.435000
vt 0.625000 0.435000
vt 0.625000 0.250000
vt 0.810000 0.250000
vt 0.625000 0.435000
vt 0.625000 0.250000
vt 0.810000 0.250000
vt 0.810000 0.435000
vt 0.625000 0.435000
vt 0.625000 0.250000
vt 0.810000 0.250000
vt 0.810000 0.435000
vt 0.625000 0.250000
vt 0.810000 0.250000
vt 0.810000 0.435000
vt 0.625000 0.435000
vt 0.625000 0.250000
vt 0.810000 0.250000
vt 0.810000 0.435000
vt 0.625000 0.435000
vt 0.625000 0.250000
vt 0.810000 0.250000
vt 0.625000 0.435000
vt 0.625000 0.250000
vt 0.810000 0.250000
vt 0.810000 0.435000
vt 0.625000 0.435000
vt 0.625000 0.250000
vt 0.810000 0.250000
vt 0.810000 0.435000
vt 0.625000 0.250000
vt 0.810000 0.250000
vt 0.500000 0.750000
vt 0.755000 0.750000
vt 0.755000 0.940000
vt 0.500000 0.940000
vt 0.500000 0.750000
vt 0.755000 0.750000
vt 0.755000 0.940000
vt 0.500000 0.940000
vt 0.500000 0.750000
vt 0.755000 0.750000
vt 0.755000 0.940000
vt 0.500000 0.940000
vt 0.360000 0.585000
vt 0.320000 0.585000
vt 0.320000 0.550000
vt 0.360000 0.550000
vt 0.320000 0.605000
vt 0.340000 0.525000
vt 0.370000 0.530000
vt 0.360000 0.605000
vt 0.335000 0.525000
vt 0.375000 0.530000
vt 0.375000 0.610000
vt 0.345000 0.610000
vt 0.315000 0.520000
vt 0.355000 0.525000
vt 0.365000 0.600000
vt 0.335000 0.600000
vt 0.325000 0.605000
vt 0.340000 0.525000
vt 0.370000 0.525000
vt 0.365000 0.600000
vt 0.335000 0.515000
vt 0.370000 0.620000
vt 0.350000 0.620000
vt 0.320000 0.515000
vt 0.360000 0.515000
vt 0.360000 0.600000
vt 0.350000 0.620000
vt 0.345000 0.515000
vt 0.330000 0.610000
vt 0.340000 0.520000
vt 0.355000 0.535000
vt 0.350000 0.610000
vt 0.320000 0.615000
vt 0.365000 0.505000
vt 0.340000 0.615000
vt 0.335000 0.610000
vt 0.345000 0.520000
vt 0.350000 0.525000
vt 0.365000 0.605000
vt 0.330000 0.525000
vt 0.335000 0.595000
vt 0.335000 0.530000
vt 0.360000 0.545000
vt 0.350000 0.600000
vt 0.375000 0.535000
vt 0.340000 0.590000
vt 0.325000 0.600000
vt 0.355000 0.535000
vt 0.355000 0.540000
vt 0.355000 0.595000
vt 0.340000 0.595000
vt 0.340000 0.535000
vt 0.365000 0.510000
vt 0.355000 0.625000
vt 0.350000 0.515000
vt 0.345000 0.615000
vt 0.320000 0.520000
vt 0.365000 0.620000
vt 0.345000 0.510000
vt 0.340000 0.615000
vt 0.325000 0.515000
vt 0.365000 0.545000
vt 0.360000 0.600000
vt 0.330000 0.595000
vt 0.350000 0.545000
vt 0.340000 0.595000
vt 0.335000 0.540000
vt 0.350000 0.540000
vt 0.350000 0.595000
vt 0.325000 0.595000
vt 0.340000 0.540000
vt 0.360000 0.545000
vt 0.335000 0.600000
vt 0.340000 0.535000
vt 0.365000 0.590000
vt 0.350000 0.595000
vt 0.330000 0.535000
vt 0.330000 0.580000
vt 0.340000 0.530000
vt 0.355000 0.535000
vt 0.350000 0.585000
vt 0.340000 0.590000
vt 0.340000 0.540000
vt 0.355000 0.540000
vt 0.360000 0.590000
vt 0.325000 0.605000
vt 0.345000 0.515000
vt 0.340000 0.605000
vt 0.350000 0.520000
vt 0.355000 0.615000
vt 0.330000 0.520000
vt 0.335000 0.605000
vt 0.345000 0.505000
vt 0.355000 0.605000
vt 0.365000 0.515000
vt 0.355000 0.595000
vt 0.345000 0.580000
vt 0.345000 0.520000
vt 0.345000 0.605000
vt 0.345000 0.535000
vt 0.355000 0.525000
vt 0.365000 0.610000
vt 0.345000 0.600000
vt 0.340000 0.530000
vt 0.355000 0.530000
vt 0.355000 0.600000
vt 0.345000 0.580000
vt 0.335000 0.530000
vt 0.360000 0.580000
vt 0.370000 0.540000
vt 0.345000 0.595000
vt 0.350000 0.535000
vt 0.365000 0.540000
vt 0.345000 0.600000
vt 0.345000 0.535000
vt 0.350000 0.610000
vt 0.355000 0.520000
vt 0.365000 0.600000
vt 0.355000 0.520000
vt 0.350000 0.605000
vt 0.340000 0.525000
vt 0.360000 0.530000
vt 0.345000 0.610000
vt 0.345000 0.520000
vt 0.340000 0.590000
vt 0.350000 0.515000
vt 0.355000 0.595000
vt 0.350000 0.605000
vt 0.355000 0.525000
vt 0.365000 0.590000
vt 0.335000 0.595000
vt 0.345000 0.530000
vt 0.350000 0.595000
vt 0.335000 0.515000
vt 0.335000 0.610000
vt 0.320000 0.520000
vt 0.350000 0.520000
vt 0.340000 0.610000
vt 0.335000 0.515000
vt 0.355000 0.605000
vt 0.350000 0.540000
vt 0.340000 0.605000
vt 0.320000 0.520000
vt 0.340000 0.530000
vt 0.370000 0.605000
vt 0.345000 0.605000
vt 0.325000 0.610000
vt 0.345000 0.530000
vt 0.375000 0.530000
vt 0.335000 0.600000
vt 0.315000 0.600000
vt 0.335000 0.525000
vt 0.365000 0.520000
vt 0.340000 0.600000
vt 0.325000 0.525000
vt 0.345000 0.525000
vt 0.370000 0.605000
vt 0.250000 0.875000
vt 0.375000 0.875000
vt 0.375000 0.890000
vt 0.250000 0.890000
vt 0.310000 1.000000
vt 0.310000 0.990000
vt 0.350000 0.975000
vt 0.355000 0.980000
vt 0.310000 0.990000
vt 0.310000 1.000000
vt 0.355000 0.980000
vt 0.350000 0.975000
vt 0.375000 0.905000
vt 0.250000 0.905000
vt 0.365000 0.935000
vt 0.375000 0.935000
vt 0.375000 0.935000
vt 0.365000 0.935000
vt 0.375000 0.920000
vt 0.250000 0.920000
vt 0.350000 0.900000
vt 0.355000 0.895000
vt 0.355000 0.895000
vt 0.350000 0.900000
vt 0.375000 0.935000
vt 0.250000 0.935000
vt 0.310000 0.885000
vt 0.310000 0.875000
vt 0.310000 0.875000
vt 0.310000 0.885000
vt 0.375000 0.950000
vt 0.250000 0.950000
vt 0.275000 0.900000
vt 0.270000 0.895000
vt 0.270000 0.895000
vt 0.275000 0.900000
vt 0.375000 0.965000
vt 0.250000 0.965000
vt 0.260000 0.935000
vt 0.250000 0.935000
vt 0.250000 0.935000
vt 0.260000 0.935000
vt 0.375000 0.985000
vt 0.250000 0.985000
vt 0.275000 0.975000
vt 0.270000 0.980000
vt 0.270000 0.980000
vt 0.275000 0.975000
vt 0.375000 1.000000
vt 0.250000 1.000000
vt 0.250000 0.875000
vt 0.375000 0.875000
vt 0.375000 0.890000
vt 0.250000 0.890000
vt 0.310000 1.000000
vt 0.310000 0.990000
vt 0.350000 0.975000
vt 0.355000 0.980000
vt 0.310000 0.990000
vt 0.310000 1.000000
vt 0.355000 0.980000
vt 0.350000 0.975000
vt 0.375000 0.905000
vt 0.250000 0.905000
vt 0.365000 0.935000
vt 0.375000 0.935000
vt 0.375000 0.935000
vt 0.365000 0.935000
vt 0.375000 0.920000
vt 0.250000 0.920000
vt 0.350000 0.900000
vt 0.355000 0.895000
vt 0.355000 0.895000
vt 0.350000 0.900000
vt 0.375000 0.935000
vt 0.250000 0.935000
vt 0.310000 0.885000
vt 0.310000 0.875000
vt 0.310000 0.875000
vt 0.310000 0.885000
vt 0.375000 0.950000
vt 0.250000 0.950000
vt 0.275000 0.900000
vt 0.270000 0.895000
vt 0.270000 0.895000
vt 0.275000 0.900000
vt 0.375000 0.965000
vt 0.250000 0.965000
vt 0.260000 0.935000
vt 0.250000 0.935000
vt 0.250000 0.935000
vt 0.260000 0.935000
vt 0.375000 0.985000
vt 0.250000 0.985000
vt 0.275000 0.975000
vt 0.270000 0.980000
vt 0.270000 0.980000
vt 0.275000 0.975000
vt 0.375000 1.000000
vt 0.250000 1.000000
vt 0.500000 0.750000
vt 0.755000 0.750000
vt 0.755000 0.940000
vt 0.500000 0.940000
vt 0.500000 0.750000
vt 0.755000 0.750000
vt 0.755000 0.940000
vt 0.500000 0.940000
vt 0.500000 0.750000
vt 0.755000 0.750000
vt 0.755000 0.940000
vt 0.500000 0.940000
vn -1.0000 -0.0000 0.0000
vn 0.0000 1.0000 0.0000
vn -0.1708 0.1789 0.9689
vn 0.9689 0.1789 0.1708
vn 0.1708 0.1789 -0.9689
vn -0.9689 0.1789 -0.1708
vn 0.1708 0.1789 0.9689
vn 0.9689 0.1789 -0.1708
vn -0.1708 0.1789 -0.9689
vn -0.9689 0.1789 0.1708
vn -0.1736 -0.0000 0.9848
vn 0.9848 0.0000 0.1736
vn 0.1736 0.0000 -0.9848
vn -0.9848 0.0000 -0.1736
vn 0.0872 -0.0000 0.9962
vn 0.9962 -0.0000 -0.0872
vn -0.0872 0.0000 -0.9962
vn -0.9962 -0.0000 0.0872
vn -0.2588 -0.0000 0.9659
vn 0.9659 -0.0000 0.2588
vn 0.2588 0.0000 -0.9659
vn -0.9659 0.0000 -0.2588
vn 0.0000 -1.0000 -0.0000
vn -0.0787 0.1575 0.9844
vn 0.0000 0.1961 0.9806
vn 0.9578 0.2873 0.0000
vn 0.9652 0.2482 -0.0827
vn 0.0000 -0.0995 -0.9950
vn -0.9950 -0.0995 0.0000
vn -0.9331 0.3217 0.1609
vn -0.6092 0.5077 -0.6092
vn 0.6360 0.2120 -0.7420
vn 0.7448 0.0828 -0.6621
vn 0.5145 -0.5145 0.6860
vn -0.2328 -0.4657 0.8538
vn -0.6247 0.4685 -0.6247
vn 0.5229 -0.2816 -0.8045
vn -0.0000 0.0000 1.0000
vn 0.2791 0.7177 -0.6380
vn 0.3522 0.7547 -0.5535
vn 0.0828 -0.0828 0.9931
vn -0.4985 -0.7754 -0.3877
vn -0.4243 -0.7071 -0.5657
vn 0.7547 0.3522 -0.5535
vn -0.0902 0.0902 0.9918
vn -0.7547 -0.3522 -0.5535
vn -0.7392 0.4107 0.5338
vn 0.3458 0.6917 0.6340
vn 0.0000 -0.6402 -0.7682
vn -0.7898 -0.2154 -0.5744
vn 0.9904 -0.1238 0.0619
vn 0.6092 -0.5077 -0.6092
vn 0.2290 0.4581 0.8589
vn -0.6671 0.0741 -0.7413
vn -0.6671 0.0741 -0.7412
vn 0.4369 -0.7863 -0.4369
vn 0.2035 0.4071 0.8904
vn -0.7510 -0.0980 -0.6530
vn 0.6359 -0.4372 -0.6359
vn -0.3482 0.3482 0.8704
vn 0.2082 0.4165 0.8850
vn -0.8808 -0.0587 -0.4698
vn -0.7715 -0.1543 -0.6172
vn 0.9082 -0.2724 -0.3179
vn 0.6746 -0.2998 -0.6746
vn 0.2791 0.5581 0.7814
vn -0.7412 -0.0741 -0.6671
vn 0.5455 -0.6364 -0.5455
vn 0.3333 0.6667 0.6667
vn -0.8165 -0.4082 -0.4082
vn 0.6468 -0.4042 -0.6468
vn -0.5298 0.6623 -0.5298
vn 0.0613 -0.6745 -0.7358
vn 0.1304 0.2609 0.9565
vn -0.7754 -0.1662 -0.6092
vn 0.7059 -0.0588 -0.7059
vn 0.1231 -0.1231 0.9847
vn 0.0619 -0.1238 0.9904
vn 0.9734 -0.2049 0.1025
vn 0.9754 -0.2090 0.0697
vn 0.0000 0.1961 -0.9806
vn -0.9734 0.2049 0.1025
vn -0.9806 0.1961 0.0000
vn 0.3700 0.9285 0.0324
vn -0.0872 0.0000 0.9962
vn 0.0872 0.0000 -0.9962
vn 0.9249 0.3714 0.0809
vn -0.0871 -0.0000 0.9962
vn 0.9249 -0.3714 0.0809
vn 0.0871 -0.0000 -0.9962
vn 0.3700 -0.9285 0.0324
vn -0.3700 -0.9285 -0.0324
vn -0.9249 -0.3714 -0.0809
vn -0.9249 0.3714 -0.0809
vn -0.3700 0.9285 -0.0324
vn 0.3657 0.9285 0.0645
vn -0.1737 0.0000 0.9848
vn 0.9144 0.3714 0.1612
vn 0.1737 0.0000 -0.9848
vn 0.9144 -0.3714 0.1612
vn 0.3657 -0.9285 0.0645
vn -0.3657 -0.9285 -0.0645
vn -0.9144 -0.3714 -0.1612
vn -0.9144 0.3714 -0.1612
vn -0.3657 0.9285 -0.0645
usemtl texobj1
s off
f 4/1/1 1/2/1 2/3/1
f 2/3/1 3/4/1 4/1/1
f 7/5/2 5/6/2 6/7/2
f 6/7/2 9/8/2 7/5/2
f 12/9/3 8/10/3 5/11/3
f 5/11/3 7/12/3 12/9/3
f 8/13/4 10/14/4 6/15/4
f 6/15/4 5/16/4 8/13/4
f 10/17/5 11/18/5 9/19/5
f 9/19/5 6/20/5 10/17/5
f 11/21/6 12/22/6 7/23/6
f 7/23/6 9/24/6 11/21/6
f 20/25/2 16/26/2 19/27/2
f 19/27/2 13/28/2 20/25/2
f 14/29/7 15/30/7 16/31/7
f 16/31/7 20/32/7 14/29/7
f 15/33/8 17/34/8 19/35/8
f 19/35/8 16/36/8 15/33/8
f 17/37/9 18/38/9 13/39/9
f 13/39/9 19/40/9 17/37/9
f 18/41/10 14/42/10 20/43/10
f 20/43/10 13/44/10 18/41/10
f 26/45/2 27/46/2 21/47/2
f 21/47/2 22/48/2 26/45/2
f 22/49/11 21/50/11 23/51/11
f 23/51/11 24/52/11 22/49/11
f 26/45/12 22/53/12 24/54/12
f 24/54/12 25/55/12 26/45/12
f 27/56/13 26/57/13 25/58/13
f 25/58/13 28/59/13 27/56/13
f 21/60/14 27/46/14 28/61/14
f 28/61/14 23/62/14 21/60/14
f 30/63/2 33/64/2 29/65/2
f 29/65/2 31/66/2 30/63/2
f 31/67/15 29/68/15 36/69/15
f 36/69/15 32/70/15 31/67/15
f 30/63/16 31/71/16 32/72/16
f 32/72/16 34/73/16 30/63/16
f 33/74/17 30/75/17 34/76/17
f 34/76/17 35/77/17 33/74/17
f 29/78/18 33/64/18 35/79/18
f 35/79/18 36/80/18 29/78/18
f 42/81/2 43/82/2 37/83/2
f 37/83/2 38/84/2 42/81/2
f 38/85/19 37/86/19 39/87/19
f 39/87/19 40/88/19 38/85/19
f 42/81/20 38/89/20 40/90/20
f 40/90/20 41/91/20 42/81/20
f 43/92/21 42/93/21 41/94/21
f 41/94/21 44/95/21 43/92/21
f 37/96/22 43/82/22 44/97/22
f 44/97/22 39/98/22 37/96/22
f 48/99/21 45/100/21 46/101/21
f 46/101/21 47/102/21 48/99/21
f 45/103/21 49/104/21 50/105/21
f 50/105/21 46/106/21 45/103/21
f 49/107/21 51/108/21 52/109/21
f 52/109/21 50/110/21 49/107/21
f 60/111/23 59/112/23 58/113/23
f 58/113/23 53/114/23 60/111/23
f 53/115/24 54/116/24 55/117/24
f 55/117/25 60/118/25 53/115/25
f 53/119/26 58/120/26 56/121/26
f 56/121/27 54/122/27 53/119/27
f 58/123/28 59/124/28 57/125/28
f 57/125/28 56/126/28 58/123/28
f 60/127/29 55/128/29 57/129/29
f 57/129/29 59/130/29 60/127/29
f 80/131/30 85/132/30 86/133/30
f 86/133/31 79/134/31 80/131/31
f 77/135/32 83/136/32 85/137/32
f 85/137/33 80/138/33 77/135/33
f 79/139/34 86/140/34 83/141/34
f 83/141/35 77/142/35 79/139/35
f 79/143/36 61/144/36 80/145/36
f 80/146/37 61/147/37 77/142/37
f 77/148/38 61/149/38 79/150/38
f 62/151/39 83/152/39 85/153/39
f 85/153/40 64/154/40 62/151/40
f 71/155/41 86/156/41 83/157/41
f 83/157/41 62/158/41 71/155/41
f 64/159/42 85/160/42 86/161/42
f 86/161/43 71/162/43 64/159/43
f 64/163/44 63/164/44 62/165/44
f 62/166/45 63/167/45 71/168/45
f 71/169/46 63/170/46 64/171/46
f 65/172/47 85/173/47 83/174/47
f 83/174/48 69/175/48 65/172/48
f 66/176/49 84/177/49 85/178/49
f 85/178/50 65/179/50 66/176/50
f 69/180/51 83/181/51 84/182/51
f 84/182/52 66/183/52 69/180/52
f 67/184/53 65/185/53 69/186/53
f 69/186/53 75/187/53 67/184/53
f 68/188/54 66/189/54 65/190/54
f 65/190/55 67/191/55 68/188/55
f 75/192/56 69/193/56 66/194/56
f 66/194/56 68/195/56 75/192/56
f 75/196/57 70/197/57 67/198/57
f 67/199/58 70/200/58 68/201/58
f 68/202/59 70/203/59 75/204/59
f 82/205/60 71/206/60 62/207/60
f 62/207/61 73/208/61 82/205/61
f 72/209/62 64/210/62 71/211/62
f 71/211/63 82/212/63 72/209/63
f 73/213/64 62/214/64 64/215/64
f 64/215/65 72/216/65 73/213/65
f 73/217/66 74/218/66 82/219/66
f 82/220/67 74/221/67 72/222/67
f 72/223/68 74/224/68 73/225/68
f 75/226/69 76/227/69 67/228/69
f 67/229/70 76/230/70 68/231/70
f 68/232/71 76/233/71 75/234/71
f 77/235/61 78/236/61 79/237/61
f 79/238/72 78/239/72 80/240/72
f 80/241/73 78/242/73 77/243/73
f 73/244/74 81/245/74 82/246/74
f 82/247/75 81/248/75 72/249/75
f 72/223/76 81/250/76 73/251/76
f 54/252/77 83/253/77 86/254/77
f 86/254/78 55/255/78 54/252/78
f 84/256/79 83/257/79 54/258/79
f 54/258/80 56/259/80 84/256/80
f 85/260/81 84/261/81 56/262/81
f 56/262/81 57/263/81 85/260/81
f 55/264/82 86/265/82 85/266/82
f 85/266/83 57/267/83 55/264/83
f 117/268/84 114/269/84 89/270/84
f 89/270/84 90/271/84 117/268/84
f 114/272/85 87/273/85 88/274/85
f 88/274/85 89/275/85 114/272/85
f 118/276/86 117/277/86 90/278/86
f 90/278/86 95/279/86 118/276/86
f 90/271/87 89/270/87 91/280/87
f 91/280/87 93/281/87 90/271/87
f 89/275/85 88/274/85 92/282/85
f 92/282/88 91/283/88 89/275/88
f 95/279/86 90/278/86 93/284/86
f 93/284/86 94/285/86 95/279/86
f 93/281/89 91/280/89 96/286/89
f 96/286/89 98/287/89 93/281/89
f 91/283/85 92/282/85 97/288/85
f 97/288/88 96/289/88 91/283/88
f 94/285/90 93/284/90 98/290/90
f 98/290/86 99/291/86 94/285/86
f 98/287/91 96/286/91 104/292/91
f 104/292/91 102/293/91 98/287/91
f 96/289/85 97/288/85 103/294/85
f 103/294/85 104/295/85 96/289/85
f 99/291/90 98/290/90 102/296/90
f 102/296/86 100/297/86 99/291/86
f 102/293/92 104/292/92 101/298/92
f 101/298/92 105/299/92 102/293/92
f 104/295/88 103/294/88 106/300/88
f 106/300/85 101/301/85 104/295/85
f 100/297/86 102/296/86 105/302/86
f 105/302/90 109/303/90 100/297/90
f 105/299/93 101/298/93 108/304/93
f 108/304/93 110/305/93 105/299/93
f 101/301/85 106/300/85 107/306/85
f 107/306/85 108/307/85 101/301/85
f 109/303/86 105/302/86 110/308/86
f 110/308/86 113/309/86 109/303/86
f 110/305/94 108/304/94 115/310/94
f 115/310/94 112/311/94 110/305/94
f 108/307/88 107/306/88 111/312/88
f 111/312/85 115/313/85 108/307/85
f 113/309/90 110/308/90 112/314/90
f 112/314/86 116/315/86 113/309/86
f 112/311/95 115/310/95 114/316/95
f 114/316/95 117/317/95 112/311/95
f 115/313/85 111/312/85 87/273/85
f 87/273/85 114/272/85 115/313/85
f 116/315/86 112/314/86 117/277/86
f 117/277/86 118/276/86 116/315/86
f 119/318/96 149/319/96 123/320/96
f 123/320/96 122/321/96 119/318/96
f 149/322/97 120/323/97 124/324/97
f 124/324/11 123/325/11 149/322/11
f 121/326/13 119/327/13 122/328/13
f 122/328/13 125/329/13 121/326/13
f 122/321/98 123/320/98 128/330/98
f 128/330/98 127/331/98 122/321/98
f 123/325/11 124/324/11 129/332/11
f 129/332/11 128/333/11 123/325/11
f 125/329/99 122/328/99 127/334/99
f 127/334/13 131/335/13 125/329/13
f 127/331/100 128/330/100 132/336/100
f 132/336/100 126/337/100 127/331/100
f 128/333/11 129/332/11 130/338/11
f 130/338/11 132/339/11 128/333/11
f 131/335/13 127/334/13 126/340/13
f 126/340/99 136/341/99 131/335/99
f 126/337/101 132/336/101 137/342/101
f 137/342/101 134/343/101 126/337/101
f 132/339/11 130/338/11 133/344/11
f 133/344/97 137/345/97 132/339/97
f 136/341/13 126/340/13 134/346/13
f 134/346/13 135/347/13 136/341/13
f 134/343/102 137/342/102 138/348/102
f 138/348/102 140/349/102 134/343/102
f 137/345/97 133/344/97 139/350/97
f 139/350/11 138/351/11 137/345/11
f 135/347/13 134/346/13 140/352/13
f 140/352/13 143/353/13 135/347/13
f 140/349/103 138/348/103 142/354/103
f 142/354/103 145/355/103 140/349/103
f 138/351/11 139/350/11 141/356/11
f 141/356/11 142/357/11 138/351/11
f 143/353/13 140/352/13 145/358/13
f 145/358/99 144/359/99 143/353/99
f 145/355/104 142/354/104 147/360/104
f 147/360/104 150/361/104 145/355/104
f 142/357/97 141/356/97 148/362/97
f 148/362/11 147/363/11 142/357/11
f 144/359/13 145/358/13 150/364/13
f 150/364/99 146/365/99 144/359/99
f 150/361/105 147/360/105 149/366/105
f 149/366/105 119/367/105 150/361/105
f 147/363/11 148/362/11 120/323/11
f 120/323/97 149/322/97 147/363/97
f 146/365/13 150/364/13 119/327/13
f 119/327/99 121/326/99 146/365/99
f 154/368/16 151/369/16 152/370/16
f 152/370/16 153/371/16 154/368/16
f 151/372/16 155/373/16 156/374/16
f 156/374/16 152/375/16 151/372/16
f 155/376/16 157/377/16 158/378/16
f 158/378/16 156/379/16 155/376/16
