# Blender v2.82 (sub 7) OBJ File: 'village_e3.blend'
# www.blender.org
mtllib botan_npc.mtl
v -12.555037 0.603667 1.460384
v -12.428243 0.600594 1.607538
v -12.630154 0.218793 1.411837
v -12.563393 0.577406 1.705375
v -12.693408 0.208403 1.529683
v -12.691814 0.582045 1.551422
v -12.791690 0.258595 1.396250
v -12.527137 0.694245 1.590394
v -12.716179 0.254946 1.340645
v -12.798909 1.601813 1.405295
v -12.812181 1.604481 1.647997
v -12.671205 1.589173 1.579065
v -12.856389 1.415457 1.714585
v -12.652421 1.403079 1.614910
v -12.885415 1.108103 1.618669
v -12.710842 1.107888 1.552217
v -12.718859 0.926641 1.551471
v -12.984543 1.444587 1.539284
v -12.966625 1.126562 1.507583
v -12.895997 1.001114 1.524676
v -12.874282 0.961969 1.338869
v -12.496760 1.400643 1.449214
v -12.596167 1.096188 1.405232
v -12.677376 1.114647 1.294146
v -12.688475 0.992566 1.371545
v -12.652562 1.614534 1.342078
v -12.563219 1.594226 1.464289
v -12.624915 1.429773 1.273914
v -12.901523 1.624789 1.525786
v -12.820539 1.639693 1.459727
v -12.762731 1.868669 1.504391
v -12.730436 1.631163 1.414493
v -12.674383 1.856529 1.449815
v -12.641079 1.603588 1.491507
v -12.573784 1.820685 1.519637
v -12.632126 1.597224 1.590945
v -12.578399 1.803759 1.632343
v -12.832105 1.628522 1.559622
v -12.783613 1.853691 1.605737
v -12.728731 1.601312 1.616627
v -12.683012 1.817848 1.675558
v -12.651927 1.894703 1.582487
v -12.674178 1.558077 1.560773
v -12.879724 1.208762 1.589424
v -13.034402 1.219218 1.556438
v -12.957882 1.431239 1.517105
v -13.057638 1.241705 1.676297
v -12.960529 1.517709 1.660688
v -12.827435 1.486691 1.694191
v -13.000528 1.155195 1.632236
v -12.910299 1.232883 1.707387
v -12.767080 1.386760 1.565071
v -12.852275 1.549143 1.592888
v -12.671842 1.218090 1.760517
v -12.884023 1.277612 1.704775
v -12.709325 1.133826 1.768689
v -12.933777 1.165762 1.715623
v -12.688800 1.113164 1.662773
v -12.911249 1.142239 1.595894
v -12.649231 1.202179 1.653999
v -12.858298 1.261275 1.584348
v -12.588696 1.210542 1.781975
v -12.581271 1.112611 1.803258
v -12.558215 1.089840 1.686497
v -12.563676 1.192443 1.664667
v -12.948114 1.234106 1.633869
v -12.650408 1.371712 1.333023
v -12.523054 1.479767 1.319690
v -12.448751 1.197347 1.342927
v -12.517149 1.506279 1.457749
v -12.451306 1.248673 1.484746
v -12.641942 1.409717 1.530933
v -12.568795 1.212663 1.502956
v -12.566543 1.159817 1.353541
v -12.492587 1.129806 1.421573
v -12.617394 1.532809 1.394384
v -12.495680 1.103889 1.687464
v -12.390532 1.133039 1.672963
v -12.450700 1.251820 1.488742
v -12.376677 1.065341 1.611309
v -12.432318 1.162006 1.406946
v -12.481052 1.032420 1.622375
v -12.550138 1.124840 1.418791
v -12.569691 1.220381 1.505804
v -12.340528 1.007514 1.727126
v -12.455415 0.971189 1.739663
v -12.484174 1.068726 1.765970
v -12.368515 1.101280 1.749998
v -12.518614 1.225842 1.412938
v -12.785489 0.588444 1.482062
v -12.852411 0.907794 1.357280
v -12.670375 0.611802 1.683437
v -12.699299 0.980712 1.555323
v -12.789240 0.629901 1.761703
v -12.920341 1.104765 1.592925
v -12.920082 0.605761 1.581650
v -13.000366 1.066667 1.489501
v -12.775160 0.470927 1.635467
v -12.937348 0.298014 1.293330
v -12.776156 0.569420 1.491234
v -12.847490 0.210357 1.413105
v -12.669891 0.517914 1.653338
v -12.976510 0.233420 1.442602
v -12.799610 0.539499 1.758787
v -12.900132 0.587878 1.599782
v -12.773355 0.647797 1.678573
v -13.013071 0.294160 1.348939
v -12.940506 0.206409 1.276346
v -12.961545 0.111807 1.257479
v -13.017713 0.213329 1.329420
v -13.045904 0.110034 1.315188
v -12.976830 0.213359 1.439574
v -12.891761 0.110287 1.591648
v -12.843987 0.206969 1.420545
v -12.735242 0.112304 1.557099
v -12.937388 0.289530 1.377496
v -12.841746 0.880134 1.380055
v -12.694209 1.039114 1.247995
v -12.569006 0.617579 1.432327
v -12.625672 1.105702 1.345085
v -12.441616 0.691093 1.600917
v -12.710650 1.007503 1.565767
v -12.548668 0.675091 1.694963
v -12.701086 0.600489 1.535340
v -12.543392 0.515163 1.608257
v -12.802315 0.111467 1.362147
v -12.715040 0.212946 1.335673
v -12.718223 0.109638 1.304295
v -12.627118 0.212896 1.413519
v -12.515958 0.109842 1.547506
v -12.692579 0.206470 1.530396
v -12.604401 0.111817 1.680879
v -12.792223 0.206032 1.388647
v -12.699050 0.289141 1.427937
vt 0.274381 0.682804
vt 0.203403 0.729908
vt 0.161994 0.544908
vt 0.140597 0.731889
vt 0.106915 0.563977
vt 0.051093 0.726490
vt 0.030785 0.558380
vt 0.287903 0.680079
vt 0.298305 0.723717
vt 0.322823 0.697514
vt 0.355415 0.711482
vt 0.346499 0.660811
vt 0.234310 0.497011
vt 0.199787 0.518705
vt 0.033906 0.550109
vt 0.105677 0.553279
vt 0.064417 0.503004
vt 0.110283 0.515882
vt 0.331194 0.635996
vt 0.979535 0.975022
vt 0.854474 0.884169
vt 0.954903 0.847184
vt 0.794685 0.788930
vt 0.927493 0.744636
vt 0.766618 0.610001
vt 0.868874 0.584931
vt 0.844022 0.495978
vt 0.760113 0.895498
vt 0.662170 0.785787
vt 0.682636 0.607882
vt 0.713626 0.553428
vt 0.602965 0.497074
vt 0.794685 0.788930
vt 0.766618 0.610001
vt 0.682636 0.607882
vt 0.713626 0.553428
vt 0.668090 0.893378
vt 0.760113 0.895498
vt 0.662170 0.785787
vt 0.871432 0.974583
vt 0.854474 0.884169
vt 0.871432 0.974583
vt 0.668090 0.893378
vt 0.534172 0.019081
vt 0.519668 0.319788
vt 0.660271 0.031712
vt 0.650208 0.325478
vt 0.830992 0.044967
vt 0.810034 0.331100
vt 0.948416 0.073768
vt 0.948832 0.331377
vt 0.660271 0.031712
vt 0.650208 0.325478
vt 0.830992 0.044967
vt 0.810034 0.331100
vt 0.744799 0.473021
vt 0.894215 0.441583
vt 0.576367 0.433602
vt 0.925375 0.018179
vt 0.087701 0.325815
vt 0.183504 0.318873
vt 0.182335 0.461811
vt 0.274996 0.314634
vt 0.299111 0.496595
vt 0.403172 0.494768
vt 0.111378 0.085905
vt 0.069870 0.109801
vt 0.077689 0.074432
vt 0.048020 0.059889
vt 0.090916 0.037601
vt 0.064389 0.019405
vt 0.125993 0.040816
vt 0.073013 0.057478
vt 0.084486 0.115281
vt 0.035378 0.070486
vt 0.512422 0.430607
vt 0.366707 0.313027
vt 0.033478 0.472407
vt 0.454326 0.285404
vt 0.338779 0.141681
vt 0.363315 0.286300
vt 0.270291 0.162081
vt 0.274567 0.313919
vt 0.184487 0.164394
vt 0.181192 0.318266
vt 0.111302 0.144485
vt 0.085925 0.288473
vt 0.343196 0.086301
vt 0.270992 0.074735
vt 0.179580 0.075366
vt 0.104572 0.089176
vt 0.490829 0.018934
vt 0.499521 0.109925
vt 0.417222 0.024823
vt 0.421499 0.117426
vt 0.364577 0.112729
vt 0.456970 0.270387
vt 0.421569 0.127100
vt 0.360791 0.028678
vt 0.066507 0.082095
vt 0.040079 0.106631
vt 0.044215 0.052092
vt 0.091183 0.056298
vt 0.089711 0.110697
vt 0.182978 0.460608
vt 0.301804 0.495981
vt 0.277281 0.310868
vt 0.407625 0.494197
vt 0.370469 0.309307
vt 0.518722 0.428876
vt 0.459570 0.281217
vt 0.184093 0.315327
vt 0.086818 0.322312
vt 0.031678 0.471383
vt 0.090013 0.029223
vt 0.046392 0.051814
vt 0.076637 0.066603
vt 0.068611 0.102570
vt 0.110895 0.078418
vt 0.033610 0.062590
vt 0.083474 0.108218
vt 0.071807 0.049511
vt 0.125683 0.032493
vt 0.062963 0.010719
vt 0.420383 0.126893
vt 0.338209 0.141423
vt 0.362611 0.284776
vt 0.270217 0.161584
vt 0.274597 0.312167
vt 0.185123 0.163879
vt 0.181925 0.316478
vt 0.112613 0.144204
vt 0.087376 0.287001
vt 0.270982 0.074892
vt 0.180326 0.075587
vt 0.105869 0.089283
vt 0.360108 0.029286
vt 0.363793 0.112572
vt 0.416003 0.025393
vt 0.420313 0.117300
vt 0.497621 0.109930
vt 0.489000 0.019622
vt 0.455491 0.268995
vt 0.342589 0.086432
vt 0.046081 0.052506
vt 0.041979 0.106524
vt 0.068189 0.082330
vt 0.092591 0.056677
vt 0.091200 0.110626
vt 0.049617 0.737374
vt 0.029784 0.897680
vt 0.138206 0.729705
vt 0.144023 0.890222
vt 0.200984 0.727696
vt 0.233722 0.931475
vt 0.287722 0.727220
vt 0.293698 0.931422
vt 0.376416 0.879592
vt 0.295391 0.722407
vt 0.283596 0.677399
vt 0.329504 0.693688
vt 0.342884 0.657777
vt 0.357482 0.709079
vt 0.121176 0.986109
vt 0.061411 0.990023
vt 0.360814 0.718810
vt 0.029785 0.556875
vt 0.049987 0.724204
vt 0.105516 0.562591
vt 0.139022 0.729623
vt 0.160307 0.543621
vt 0.201499 0.727603
vt 0.272106 0.680696
vt 0.343895 0.658819
vt 0.352715 0.709323
vt 0.320294 0.695281
vt 0.295904 0.721395
vt 0.285606 0.678085
vt 0.232195 0.495876
vt 0.198000 0.517507
vt 0.032889 0.548696
vt 0.063290 0.501789
vt 0.104383 0.551899
vt 0.108916 0.514698
vt 0.328621 0.634085
vt 0.333803 0.605495
vt 0.318795 0.569698
vt 0.373500 0.599192
vt 0.370784 0.557406
vt 0.422912 0.608106
vt 0.516686 0.585402
vt 0.448297 0.659398
vt 0.521805 0.662706
vt 0.382693 0.694011
vt 0.389413 0.732210
vt 0.408600 0.651598
vt 0.521213 0.507890
vt 0.371689 0.503990
vt 0.376316 0.880325
vt 0.294075 0.931699
vt 0.288081 0.728675
vt 0.234393 0.931805
vt 0.201897 0.729201
vt 0.145212 0.890684
vt 0.139480 0.731094
vt 0.031684 0.898309
vt 0.051403 0.738876
vt 0.357491 0.710691
vt 0.342978 0.659686
vt 0.329674 0.695285
vt 0.284084 0.679194
vt 0.295705 0.723890
vt 0.122496 0.986123
vt 0.063076 0.990014
vt 0.360804 0.720314
vt 0.318913 0.570187
vt 0.373296 0.599491
vt 0.370594 0.557994
vt 0.422517 0.608393
vt 0.515799 0.585809
vt 0.447803 0.659485
vt 0.520787 0.662707
vt 0.382510 0.693812
vt 0.389195 0.731810
vt 0.408211 0.651691
vt 0.371599 0.504790
vt 0.520198 0.508704
vt 0.333808 0.605796
vn 0.7553 -0.0651 -0.6521
vn 0.5368 -0.5920 0.6012
vn 0.7966 -0.4647 0.3866
vn -0.7680 -0.0339 0.6396
vn -0.8102 -0.0306 0.5853
vn 0.4159 0.5690 0.7094
vn 0.6295 0.5676 -0.5306
vn -0.4259 0.7827 -0.4539
vn -0.5051 0.4798 -0.7174
vn 0.6310 -0.0254 -0.7754
vn -0.2161 -0.9556 -0.2003
vn -0.2124 -0.9507 -0.2261
vn -0.5345 0.4940 -0.6857
vn -0.5666 0.6606 0.4926
vn 0.1055 0.9944 -0.0052
vn 0.4478 0.2021 0.8710
vn 0.4474 0.2028 0.8710
vn 0.4476 0.2027 0.8710
vn 0.4394 0.2125 0.8728
vn 0.4027 -0.3071 0.8623
vn 0.3433 -0.2596 0.9026
vn 0.3557 -0.0196 0.9344
vn -0.7177 0.3746 0.5870
vn -0.8111 -0.1031 0.5758
vn -0.7784 -0.3691 0.5078
vn -0.3591 -0.5957 0.7185
vn -0.4019 -0.9044 0.1436
vn 0.7108 0.1917 0.6767
vn 0.7154 0.2011 0.6691
vn 0.7109 0.1919 0.6766
vn 0.6884 -0.3189 0.6514
vn 0.7821 -0.1687 -0.5998
vn 0.6934 -0.4297 -0.5783
vn 0.2311 -0.5359 -0.8121
vn 0.2068 -0.9294 -0.3056
vn 0.7470 -0.2763 0.6048
vn 0.7864 -0.0373 0.6165
vn 0.7594 -0.6418 -0.1069
vn 0.7908 0.3125 -0.5262
vn -0.0113 0.9850 0.1720
vn 0.0171 0.9981 0.0600
vn 0.7107 0.1913 0.6770
vn 0.2200 0.9755 0.0013
vn -0.8715 -0.4904 0.0015
vn -0.4108 0.2734 -0.8698
vn -0.4834 0.2516 -0.8385
vn 0.6450 -0.0408 -0.7631
vn 0.5535 -0.0640 -0.8304
vn 0.9537 -0.2822 -0.1039
vn 0.9677 -0.2521 0.0018
vn -0.9573 0.2393 -0.1619
vn -0.4959 -0.0705 0.8655
vn -0.5900 -0.0937 0.8020
vn 0.2331 -0.3009 0.9247
vn 0.3367 -0.2685 0.9025
vn 0.5056 0.8026 -0.3165
vn 0.7350 0.6655 0.1300
vn -0.9623 0.2590 -0.0824
vn -0.1383 0.7859 0.6027
vn -0.2830 0.9555 0.0829
vn 0.1550 -0.7021 0.6950
vn 0.3620 0.6558 0.6625
vn 0.7180 -0.6875 -0.1086
vn -0.0351 0.9620 -0.2709
vn 0.1825 -0.2456 -0.9520
vn 0.1865 -0.2439 -0.9517
vn 0.1861 -0.2441 -0.9517
vn -0.9275 0.2912 -0.2344
vn -0.9266 0.3143 -0.2064
vn -0.2135 0.1299 0.9683
vn -0.8478 -0.5262 -0.0656
vn 0.0920 -0.7401 -0.6662
vn 0.4723 -0.8315 0.2924
vn 0.8882 0.4552 0.0629
vn 0.2993 0.3115 -0.9018
vn -0.4987 0.7384 -0.4539
vn 0.7997 -0.2323 0.5536
vn -0.1985 0.1154 0.9733
vn 0.1821 -0.2455 -0.9521
vn 0.8218 -0.4776 0.3107
vn -0.2040 -0.5479 0.8113
vn 0.0711 0.8568 0.5108
vn -0.2015 0.1829 0.9623
vn -0.2015 0.1830 0.9623
vn -0.1751 -0.9722 0.1557
vn -0.1750 -0.9721 0.1561
vn -0.1746 -0.9719 0.1577
vn -0.1746 -0.9719 0.1581
vn 0.2567 -0.2072 -0.9440
vn 0.2566 -0.2069 -0.9441
vn 0.2564 -0.2058 -0.9444
vn 0.2565 -0.2057 -0.9444
vn -0.2291 0.1901 0.9547
vn -0.2288 0.1904 0.9547
vn -0.2274 0.1916 0.9548
vn -0.2258 0.1930 0.9549
vn -0.2007 -0.9682 0.1492
vn -0.2004 -0.9682 0.1497
vn -0.2005 -0.9682 0.1496
vn -0.2002 -0.9682 0.1501
vn 0.1407 -0.1989 -0.9699
vn 0.1063 -0.1442 -0.9838
vn 0.9788 0.1115 0.1715
vn 0.9766 0.0932 0.1939
vn 0.1271 0.9841 -0.1242
vn 0.1275 0.9840 -0.1246
vn 0.1215 0.9851 -0.1217
vn 0.2920 0.9541 -0.0670
vn 0.2889 0.9539 -0.0812
vn 0.1208 0.9852 -0.1215
vn -0.9374 -0.3301 -0.1115
vn -0.7888 0.3964 0.4697
vn -0.3849 0.9001 -0.2043
vn -0.5110 0.1451 -0.8472
vn -0.0284 -0.0894 -0.9956
vn 0.9651 0.2466 -0.0886
vn 0.9682 0.2402 -0.0695
vn 0.3815 0.1923 0.9042
vn 0.1750 -0.0744 0.9818
vn -0.0522 -0.1167 -0.9918
vn -0.9276 -0.3563 0.1120
vn -0.9269 -0.3593 0.1088
vn -0.9276 -0.3565 0.1117
vn -0.9268 -0.3595 0.1087
vn 0.2852 -0.5252 0.8018
vn -0.5635 -0.7814 0.2679
vn 0.2021 -0.7958 -0.5708
vn -0.4221 0.3969 -0.8150
vn -0.9799 0.1994 0.0036
vn -0.2042 0.7451 0.6350
vn 0.9028 -0.3989 0.1606
vn 0.3620 0.9125 -0.1907
vn -0.1458 0.8091 0.5693
vn 0.9470 0.2996 -0.1161
vn 0.2210 -0.8570 -0.4655
vn 0.2231 -0.8568 -0.4649
vn 0.2214 -0.8570 -0.4654
vn 0.2235 -0.8567 -0.4648
vn -0.9275 -0.3371 0.1617
vn 0.9391 0.3143 -0.1386
vn 0.9391 0.3150 -0.1371
vn 0.9392 0.3156 -0.1355
vn 0.2140 -0.8456 -0.4890
vn 0.2148 -0.8457 -0.4885
vn 0.2145 -0.8457 -0.4887
vn 0.2149 -0.8457 -0.4885
vn -0.9537 -0.2958 0.0541
vn -0.9716 -0.2334 0.0379
vn -0.1882 0.8879 0.4198
vn -0.1886 0.8876 0.4202
vn -0.1905 0.8854 0.4240
vn -0.1905 0.8852 0.4244
vn 0.1898 -0.2031 0.9606
vn 0.1648 -0.1870 0.9684
vn -0.1317 0.8092 0.5726
vn 0.9391 0.3142 -0.1389
vn -0.0908 -0.0293 -0.9954
vn 0.4396 0.6523 -0.6174
vn -0.2665 0.9596 -0.0901
vn -0.8563 0.2408 -0.4568
vn 0.8687 -0.0115 -0.4952
vn 0.8074 -0.1361 -0.5741
vn 0.5552 0.3114 0.7712
vn 0.3673 0.3999 0.8398
vn -0.8080 -0.0137 0.5890
vn -0.7883 -0.0143 0.6152
vn -0.7806 -0.2505 -0.5726
vn 0.4003 -0.5479 0.7346
vn -0.6684 -0.4979 0.5525
vn -0.4733 -0.7144 -0.5154
vn 0.3383 0.7677 -0.5442
vn 0.3382 0.7677 -0.5442
vn 0.3381 0.7677 -0.5443
vn 0.3380 0.7678 -0.5443
vn -0.5780 -0.3992 -0.7117
vn 0.7950 -0.4545 -0.4017
vn 0.7911 -0.0242 -0.6112
vn 0.8291 -0.0435 -0.5573
vn 0.0620 -0.6364 0.7689
vn 0.3258 -0.7638 0.5571
vn -0.8509 -0.0486 0.5231
vn -0.1944 0.9059 -0.3761
vn -0.6117 0.5612 0.5575
vn 0.6235 0.3620 0.6929
vn -0.4601 0.6722 -0.5800
vn -0.9243 0.0304 0.3805
vn -0.2545 -0.8614 -0.4395
vn -0.2815 -0.8515 -0.4423
vn -0.4201 0.6842 -0.5961
vn 0.7253 0.6312 -0.2749
vn -0.5272 0.2774 -0.8032
vn -0.5490 0.2593 -0.7946
vn -0.9179 0.2036 0.3406
vn -0.8734 -0.0024 0.4870
vn 0.1144 0.8509 0.5127
vn 0.1130 0.8513 0.5123
vn 0.1030 0.8535 0.5107
vn 0.1017 0.8537 0.5108
vn 0.8214 0.1497 -0.5504
vn 0.7967 -0.0572 -0.6017
vn -0.3405 0.7316 -0.5907
vn -0.7433 0.6095 0.2757
vn 0.1428 0.5798 0.8021
vn 0.0114 -0.9999 -0.0069
vn 0.0146 -0.9999 -0.0076
vn 0.0121 -0.9999 -0.0071
vn 0.0157 -0.9998 -0.0078
vn 0.6965 0.5437 -0.4683
vn -0.2727 -0.4523 -0.8492
vn 0.8193 -0.0074 -0.5733
vn 0.8007 -0.0141 -0.5989
vn 0.6290 0.5909 0.5052
vn 0.5198 0.5175 0.6797
vn -0.7664 -0.1288 0.6294
vn -0.7268 0.0157 0.6867
vn -0.2485 -0.8524 -0.4600
vn 0.7897 -0.4732 -0.3904
vn 0.6478 -0.3465 0.6785
vn -0.7193 0.6940 0.0318
vn -0.4448 -0.5953 -0.6691
vn -0.5562 -0.4102 0.7228
vn -0.5436 0.2592 -0.7983
vn 0.6492 0.2027 -0.7331
vn 0.7689 -0.0020 -0.6394
vn 0.4372 0.8508 0.2916
vn 0.4395 0.8534 0.2803
vn 0.4374 0.8512 0.2902
vn 0.4399 0.8536 0.2791
vn -0.8091 0.1497 0.5683
vn -0.8481 -0.0571 0.5267
vn 0.6978 0.5784 0.4226
vn 0.5262 0.6087 -0.5939
vn -0.4291 0.7316 -0.5298
vn -0.0135 -0.9998 0.0120
vn -0.0128 -0.9999 0.0110
vn -0.0112 -0.9999 0.0085
vn -0.0107 -0.9999 0.0077
vn -0.5603 0.2784 -0.7801
vn -0.6877 0.5432 0.4817
usemtl pstalker.png
s 1
f 1/1/1 2/2/1 3/3/1
f 2/2/2 4/4/2 3/3/2
f 3/3/3 4/4/3 5/5/3
f 4/4/4 6/6/4 5/5/4
f 5/5/5 6/6/5 7/7/5
f 4/8/6 2/9/6 8/10/6
f 2/9/7 1/11/7 8/10/7
f 8/10/8 1/11/8 6/12/8
f 7/13/9 1/1/9 9/14/9
f 1/1/10 3/3/10 9/14/10
f 5/15/11 7/16/11 3/17/11
f 7/16/12 9/18/12 3/17/12
f 1/1/13 7/13/13 6/19/13
f 6/12/14 4/8/14 8/10/14
f 10/20/15 11/21/15 12/22/15
f 11/21/16 13/23/17 12/22/18
f 12/22/18 13/23/17 14/24/19
f 13/23/20 15/25/20 14/24/20
f 14/24/21 15/25/21 16/26/21
f 15/25/22 17/27/22 16/26/22
f 11/28/23 18/29/23 13/23/23
f 18/29/24 19/30/24 13/23/24
f 13/23/24 19/30/24 15/25/24
f 19/30/25 20/31/25 15/25/25
f 15/25/26 20/31/26 17/27/26
f 20/31/27 21/32/27 17/27/27
f 12/22/28 14/24/29 22/33/30
f 14/24/31 23/34/31 22/33/31
f 22/33/32 23/34/32 24/35/32
f 23/34/33 25/36/33 24/35/33
f 24/35/34 25/36/34 21/32/34
f 25/36/35 17/27/35 21/32/35
f 14/24/36 16/26/36 23/34/36
f 16/26/37 17/27/37 23/34/37
f 23/34/38 17/27/38 25/36/38
f 26/37/39 27/38/39 28/39/39
f 27/38/39 22/33/39 28/39/39
f 28/39/32 22/33/32 24/35/32
f 26/40/40 10/20/40 27/41/40
f 10/20/41 12/22/41 27/41/41
f 27/41/42 12/22/28 22/33/30
f 11/21/43 10/20/43 29/42/43
f 18/29/23 11/28/23 29/43/23
f 20/31/44 19/30/44 21/32/44
f 30/44/45 31/45/45 32/46/45
f 31/45/46 33/47/46 32/46/46
f 32/46/47 33/47/47 34/48/47
f 33/47/48 35/49/48 34/48/48
f 34/48/49 35/49/49 36/50/49
f 35/49/50 37/51/50 36/50/50
f 31/45/51 38/52/51 39/53/51
f 38/52/52 40/54/52 39/53/52
f 39/53/53 40/54/53 41/55/53
f 40/54/54 36/50/54 41/55/54
f 41/55/55 36/50/55 37/51/55
f 33/47/56 42/56/56 35/49/56
f 42/56/57 37/57/57 35/49/57
f 38/52/58 31/45/58 30/44/58
f 41/55/59 42/56/59 39/53/59
f 42/56/60 31/58/60 39/53/60
f 40/54/61 43/59/61 36/50/61
f 37/57/62 42/56/62 41/55/62
f 36/50/63 43/59/63 34/48/63
f 31/58/64 42/56/64 33/47/64
f 44/60/65 45/61/66 46/62/67
f 45/61/68 47/63/68 46/62/68
f 46/62/69 47/63/69 48/64/69
f 47/63/70 49/65/70 48/64/70
f 47/66/71 45/67/71 50/68/71
f 45/67/72 44/69/72 50/68/72
f 50/68/73 44/69/73 51/70/73
f 49/71/74 52/72/74 53/73/74
f 52/72/75 46/74/75 53/73/75
f 53/73/76 46/74/76 48/75/76
f 52/76/77 49/65/77 51/77/77
f 49/65/78 47/63/78 51/77/78
f 44/60/65 46/62/67 52/78/79
f 44/79/80 52/76/80 51/77/80
f 50/68/81 51/70/81 47/66/81
f 53/73/82 48/75/82 49/71/82
f 54/80/83 55/81/83 56/82/83
f 55/81/83 57/83/84 56/82/83
f 56/82/85 57/83/86 58/84/87
f 57/83/86 59/85/88 58/84/87
f 58/84/89 59/85/90 60/86/91
f 59/85/90 61/87/92 60/86/91
f 62/88/93 54/80/94 63/89/95
f 54/80/94 56/82/96 63/89/95
f 63/89/97 56/82/98 64/90/99
f 56/82/98 58/84/100 64/90/99
f 64/90/101 58/84/101 65/91/101
f 58/84/102 60/86/102 65/91/102
f 63/92/103 64/93/103 62/94/103
f 64/93/104 65/95/104 62/94/104
f 62/94/105 65/95/106 60/96/107
f 61/97/108 55/81/108 60/98/108
f 55/81/109 54/80/109 60/98/109
f 62/94/105 60/96/107 54/99/110
f 66/100/111 59/101/111 57/102/111
f 66/100/112 57/102/112 55/103/112
f 66/100/113 55/103/113 61/104/113
f 66/100/114 61/104/114 59/101/114
f 67/105/115 68/106/115 69/107/115
f 68/106/116 70/108/116 69/107/116
f 69/107/117 70/108/117 71/109/117
f 70/108/118 72/110/118 71/109/118
f 71/109/119 72/110/119 73/111/119
f 69/107/120 74/112/120 67/105/120
f 74/112/121 73/113/122 67/105/123
f 67/105/123 73/113/122 72/114/124
f 71/115/125 73/116/125 75/117/125
f 73/116/126 74/118/126 75/117/126
f 75/117/127 74/118/127 69/119/127
f 68/120/128 67/121/128 76/122/128
f 67/121/129 72/123/129 76/122/129
f 76/122/130 72/123/130 70/124/130
f 69/119/131 71/115/131 75/117/131
f 70/124/132 68/120/132 76/122/132
f 77/125/133 78/126/133 79/127/133
f 78/126/134 80/128/134 79/127/134
f 79/127/134 80/128/134 81/129/134
f 80/128/135 82/130/136 81/129/137
f 81/129/137 82/130/136 83/131/138
f 82/130/139 77/132/139 83/131/139
f 83/131/139 77/132/139 84/133/139
f 78/126/140 85/134/141 80/128/142
f 85/134/143 86/135/144 80/128/145
f 80/128/145 86/135/144 82/130/146
f 86/135/147 87/136/147 82/130/147
f 82/130/148 87/136/148 77/132/148
f 78/137/149 77/138/150 88/139/151
f 77/138/150 87/140/152 88/139/151
f 88/139/153 87/140/153 86/141/153
f 88/139/154 86/141/154 85/142/154
f 79/127/155 84/143/155 77/125/155
f 85/134/141 78/126/140 88/144/156
f 81/145/157 83/146/157 89/147/157
f 79/148/158 81/145/158 89/147/158
f 84/149/159 79/148/159 89/147/159
f 83/146/160 84/149/160 89/147/160
f 90/150/161 91/151/161 92/152/161
f 91/151/162 93/153/162 92/152/162
f 92/152/163 93/153/163 94/154/163
f 93/153/164 95/155/164 94/154/164
f 94/154/165 95/155/165 96/156/165
f 95/155/166 97/157/166 96/156/166
f 96/156/167 97/157/167 91/158/167
f 92/159/168 94/160/168 98/161/168
f 94/160/169 96/162/169 98/161/169
f 98/161/170 96/162/170 90/163/170
f 93/153/171 91/151/172 95/164/173
f 91/151/172 97/165/174 95/164/173
f 96/156/175 91/158/175 90/166/175
f 98/161/176 90/163/176 92/159/176
f 99/167/177 100/168/177 101/169/177
f 100/168/178 102/170/178 101/169/178
f 101/169/179 102/170/179 103/171/179
f 102/170/180 104/172/180 103/171/180
f 103/171/181 104/172/181 105/173/181
f 100/174/182 105/175/182 106/176/182
f 105/175/183 104/177/183 106/176/183
f 106/176/184 104/177/184 102/178/184
f 99/179/185 107/180/185 105/173/185
f 107/180/186 103/171/186 105/173/186
f 101/181/187 103/182/187 99/183/187
f 103/182/188 107/184/188 99/183/188
f 99/179/189 105/173/189 100/185/189
f 106/176/190 102/178/190 100/174/190
f 108/186/191 109/187/191 110/188/191
f 109/187/192 111/189/192 110/188/192
f 110/188/193 111/189/193 112/190/193
f 111/189/194 113/191/194 112/190/194
f 112/190/195 113/191/196 114/192/197
f 113/191/196 115/193/198 114/192/197
f 114/192/199 115/193/199 108/194/199
f 115/193/200 109/195/200 108/194/200
f 108/194/201 110/188/201 116/196/201
f 110/188/202 112/190/202 116/196/202
f 116/196/203 112/190/203 114/192/203
f 115/197/204 113/191/205 109/198/206
f 113/191/205 111/189/207 109/198/206
f 116/196/208 114/192/208 108/194/208
f 117/199/209 118/200/209 119/201/209
f 118/200/210 120/202/210 119/201/210
f 119/201/211 120/202/211 121/203/211
f 120/202/212 122/204/212 121/203/212
f 121/203/213 122/204/213 123/205/213
f 122/204/214 117/206/214 123/205/214
f 123/205/215 117/206/215 124/207/215
f 124/208/216 119/209/216 125/210/216
f 119/209/217 121/211/217 125/210/217
f 125/210/218 121/211/218 123/212/218
f 122/204/219 120/213/219 117/206/219
f 120/213/219 118/214/219 117/206/219
f 124/215/220 117/199/220 119/201/220
f 123/212/221 124/208/221 125/210/221
f 126/216/222 127/217/222 128/218/222
f 127/217/223 129/219/223 128/218/223
f 128/218/224 129/219/224 130/220/224
f 129/219/225 131/221/226 130/220/227
f 130/220/227 131/221/226 132/222/228
f 131/221/229 133/223/229 132/222/229
f 132/222/230 133/223/230 126/224/230
f 131/221/231 129/219/231 134/225/231
f 129/219/232 127/217/232 134/225/232
f 134/225/233 127/217/233 133/223/233
f 128/218/234 130/220/235 126/226/236
f 130/220/235 132/227/237 126/226/236
f 127/217/238 126/216/238 133/228/238
f 133/223/239 131/221/239 134/225/239
