# Blender v2.82 (sub 7) OBJ File: 'village_e3.blend'
# www.blender.org
mtllib galosh_npc.mtl
v -9.322096 0.401541 7.239778
v -9.253891 0.122145 7.438068
v -9.170903 0.569631 7.296660
v -9.090748 0.287645 7.556282
v -9.067013 0.520031 7.211052
v -8.943707 0.091898 7.480621
v -9.196838 0.352688 7.138503
v -9.028899 0.005435 7.418828
v -9.253727 0.549754 7.135812
v -8.926133 0.749078 7.648653
v -8.979604 0.784872 7.414246
v -9.095923 0.787204 7.520662
v -8.999723 0.602786 7.321737
v -9.165804 0.615644 7.476473
v -9.016550 0.284921 7.378200
v -9.161489 0.308774 7.493594
v -9.195201 0.131322 7.476570
v -8.825327 0.580340 7.452443
v -8.906036 0.270698 7.461028
v -9.005361 0.165248 7.455310
v -8.983696 0.104100 7.635089
v -9.266397 0.619044 7.680338
v -9.231034 0.297998 7.666623
v -9.120522 0.283774 7.749450
v -9.159244 0.174629 7.662240
v -9.042633 0.780479 7.753619
v -9.164214 0.796127 7.662495
v -9.092001 0.596597 7.811045
v -8.858023 0.769224 7.505368
v -8.930120 0.782133 7.579377
v -8.946035 1.021952 7.579376
v -9.016586 0.781545 7.631919
v -9.030787 1.015869 7.640299
v -9.115024 0.784568 7.561369
v -9.141281 1.011567 7.576639
v -9.132364 0.798018 7.463763
v -9.148353 1.014815 7.462843
v -8.928338 0.787402 7.478349
v -8.935974 1.022161 7.475309
v -9.038941 0.789616 7.428973
v -9.046469 1.017858 7.411648
v -9.055248 1.080816 7.518861
v -9.096495 0.747265 7.482440
v -9.000678 0.451348 7.255444
v -8.846364 0.415363 7.251560
v -8.864717 0.547876 7.437189
v -8.826657 0.511532 7.175566
v -8.850610 0.708457 7.391203
v -8.989231 0.727426 7.376292
v -8.900311 0.427329 7.162461
v -8.973343 0.546383 7.180257
v -9.063444 0.575017 7.415853
v -8.942629 0.697808 7.484599
v -9.212020 0.598280 7.181152
v -8.988604 0.580997 7.219326
v -9.193378 0.540764 7.111033
v -8.963861 0.504652 7.126251
v -9.209822 0.453979 7.176334
v -8.981824 0.406366 7.199826
v -9.229477 0.514637 7.250502
v -9.008158 0.487616 7.298879
v -9.296296 0.615948 7.177130
v -9.325257 0.562252 7.097276
v -9.343803 0.466628 7.169353
v -9.315756 0.523435 7.253138
v -8.929765 0.494419 7.227706
v -9.028150 0.591852 7.756465
v -9.117358 0.723681 7.808771
v -9.154877 0.475981 7.960625
v -9.223688 0.700598 7.719556
v -9.260765 0.472184 7.853262
v -9.180575 0.558762 7.628574
v -9.189519 0.406315 7.775690
v -9.077789 0.411331 7.888001
v -9.174279 0.377029 7.910621
v -9.112171 0.724110 7.677372
v -9.317191 0.220111 7.843057
v -9.380335 0.279310 7.911060
v -9.255080 0.463178 7.864472
v -9.320262 0.269579 7.980865
v -9.175382 0.450267 7.957080
v -9.253771 0.209838 7.916751
v -9.099862 0.383219 7.884939
v -9.184644 0.396952 7.786424
v -9.404045 0.166152 7.999512
v -9.331080 0.100114 7.928866
v -9.367636 0.149492 7.843670
v -9.437252 0.214988 7.918205
v -9.150808 0.471008 7.854495
v -9.428468 0.064331 7.232444
v -9.261795 0.389565 7.304923
v -9.501326 0.171623 7.117188
v -9.303577 0.545748 7.186249
v -9.396194 0.100969 7.072431
v -9.171429 0.518422 7.085242
v -9.134208 0.367259 7.201397
v -9.139815 0.527085 7.218574
v -9.365142 0.039431 7.167552
v -9.389132 0.147372 7.250907
v -9.378347 0.051910 7.273688
v -9.318950 0.140811 7.188803
v -9.302841 0.035523 7.206757
v -9.372972 0.140618 7.084462
v -9.489087 0.042292 6.950911
v -9.502075 0.153537 7.119321
v -9.638443 0.067598 7.003336
v -9.394096 0.224661 7.145306
v -9.225823 0.038773 7.550318
v -9.139093 0.100897 7.780752
v -9.539670 0.255606 7.573511
v -9.077883 0.220744 7.759585
v -9.475500 0.465163 7.528527
v -9.108741 0.268013 7.509828
v -9.444796 0.431542 7.392557
v -9.501563 0.206907 7.416906
v -9.612676 0.365394 7.416306
v -9.562582 0.283439 7.550284
v -9.541735 0.472086 7.508827
v -9.924479 0.210402 7.409488
v -9.509738 0.419917 7.351887
v -9.886733 0.227781 7.281935
v -9.530948 0.225937 7.398112
v -9.864199 0.068299 7.345504
v -9.442413 0.377755 7.499794
v -9.897892 0.097600 7.428048
v -9.706346 0.112564 7.376872
v -9.754108 0.225602 7.436510
v -9.748886 0.122757 7.469112
v -9.868507 0.238955 7.413607
v -10.044549 0.154187 7.361135
v -9.872849 0.223698 7.280433
v -10.036587 0.143963 7.201615
v -9.716114 0.207746 7.352552
v -9.804641 0.303888 7.359753
vt 0.049617 0.737374
vt 0.029784 0.897680
vt 0.138206 0.729705
vt 0.144023 0.890222
vt 0.200984 0.727696
vt 0.233722 0.931475
vt 0.287722 0.727220
vt 0.293698 0.931422
vt 0.376416 0.879592
vt 0.295391 0.722407
vt 0.283596 0.677399
vt 0.329504 0.693688
vt 0.342884 0.657777
vt 0.357482 0.709079
vt 0.121176 0.986109
vt 0.061411 0.990023
vt 0.360814 0.718810
vt 0.979535 0.975022
vt 0.854474 0.884169
vt 0.954903 0.847184
vt 0.794685 0.788930
vt 0.927493 0.744636
vt 0.766618 0.610001
vt 0.868874 0.584931
vt 0.844022 0.495978
vt 0.760113 0.895498
vt 0.662170 0.785787
vt 0.682636 0.607882
vt 0.713626 0.553428
vt 0.602965 0.497074
vt 0.794685 0.788930
vt 0.766618 0.610001
vt 0.682636 0.607882
vt 0.713626 0.553428
vt 0.668090 0.893378
vt 0.760113 0.895498
vt 0.662170 0.785787
vt 0.871432 0.974583
vt 0.854474 0.884169
vt 0.871432 0.974583
vt 0.668090 0.893378
vt 0.534172 0.019081
vt 0.519668 0.319788
vt 0.660271 0.031712
vt 0.650208 0.325478
vt 0.830992 0.044967
vt 0.810034 0.331100
vt 0.948416 0.073768
vt 0.948832 0.331377
vt 0.660271 0.031712
vt 0.650208 0.325478
vt 0.830992 0.044967
vt 0.810034 0.331100
vt 0.744799 0.473021
vt 0.894215 0.441583
vt 0.576367 0.433602
vt 0.925375 0.018179
vt 0.087701 0.325815
vt 0.183504 0.318873
vt 0.182335 0.461811
vt 0.274996 0.314634
vt 0.299111 0.496595
vt 0.403172 0.494768
vt 0.111378 0.085905
vt 0.069870 0.109801
vt 0.077689 0.074432
vt 0.048020 0.059889
vt 0.090916 0.037601
vt 0.064389 0.019405
vt 0.125993 0.040816
vt 0.073013 0.057478
vt 0.084486 0.115281
vt 0.035378 0.070486
vt 0.512422 0.430607
vt 0.366707 0.313027
vt 0.033478 0.472407
vt 0.454326 0.285404
vt 0.338779 0.141681
vt 0.363315 0.286300
vt 0.270291 0.162081
vt 0.274567 0.313919
vt 0.184487 0.164394
vt 0.181192 0.318266
vt 0.111302 0.144485
vt 0.085925 0.288473
vt 0.343196 0.086301
vt 0.270992 0.074735
vt 0.179580 0.075366
vt 0.104572 0.089176
vt 0.490829 0.018934
vt 0.499521 0.109925
vt 0.417222 0.024823
vt 0.421499 0.117426
vt 0.364577 0.112729
vt 0.456970 0.270387
vt 0.421569 0.127100
vt 0.360791 0.028678
vt 0.066507 0.082095
vt 0.040079 0.106631
vt 0.044215 0.052092
vt 0.091183 0.056298
vt 0.089711 0.110697
vt 0.182978 0.460608
vt 0.301804 0.495981
vt 0.277281 0.310868
vt 0.407625 0.494197
vt 0.370469 0.309307
vt 0.518722 0.428876
vt 0.459570 0.281217
vt 0.184093 0.315327
vt 0.086818 0.322312
vt 0.031678 0.471383
vt 0.090013 0.029223
vt 0.046392 0.051814
vt 0.076637 0.066603
vt 0.068611 0.102570
vt 0.110895 0.078418
vt 0.033610 0.062590
vt 0.083474 0.108218
vt 0.071807 0.049511
vt 0.125683 0.032493
vt 0.062963 0.010719
vt 0.420383 0.126893
vt 0.338209 0.141423
vt 0.362611 0.284776
vt 0.270217 0.161584
vt 0.274597 0.312167
vt 0.185123 0.163879
vt 0.181925 0.316478
vt 0.112613 0.144204
vt 0.087376 0.287001
vt 0.270982 0.074892
vt 0.180326 0.075587
vt 0.105869 0.089283
vt 0.360108 0.029286
vt 0.363793 0.112572
vt 0.416003 0.025393
vt 0.420313 0.117300
vt 0.497621 0.109930
vt 0.489000 0.019622
vt 0.455491 0.268995
vt 0.342589 0.086432
vt 0.046081 0.052506
vt 0.041979 0.106524
vt 0.068189 0.082330
vt 0.092591 0.056677
vt 0.091200 0.110626
vt 0.029785 0.556875
vt 0.049987 0.724204
vt 0.105516 0.562591
vt 0.139022 0.729623
vt 0.160307 0.543621
vt 0.201499 0.727603
vt 0.272106 0.680696
vt 0.343895 0.658819
vt 0.352715 0.709323
vt 0.320294 0.695281
vt 0.295904 0.721395
vt 0.285606 0.678085
vt 0.232195 0.495876
vt 0.198000 0.517507
vt 0.032889 0.548696
vt 0.063290 0.501789
vt 0.104383 0.551899
vt 0.108916 0.514698
vt 0.328621 0.634085
vt 0.333803 0.605495
vt 0.318795 0.569698
vt 0.373500 0.599192
vt 0.370784 0.557406
vt 0.422912 0.608106
vt 0.516686 0.585402
vt 0.448297 0.659398
vt 0.521805 0.662706
vt 0.382693 0.694011
vt 0.389413 0.732210
vt 0.408600 0.651598
vt 0.521213 0.507890
vt 0.371689 0.503990
vt 0.376316 0.880325
vt 0.294075 0.931699
vt 0.288081 0.728675
vt 0.234393 0.931805
vt 0.201897 0.729201
vt 0.145212 0.890684
vt 0.139480 0.731094
vt 0.031684 0.898309
vt 0.051403 0.738876
vt 0.357491 0.710691
vt 0.342978 0.659686
vt 0.329674 0.695285
vt 0.284084 0.679194
vt 0.295705 0.723890
vt 0.122496 0.986123
vt 0.063076 0.990014
vt 0.360804 0.720314
vt 0.274381 0.682804
vt 0.203403 0.729908
vt 0.161994 0.544908
vt 0.140597 0.731889
vt 0.106915 0.563977
vt 0.051093 0.726490
vt 0.030785 0.558380
vt 0.287903 0.680079
vt 0.298305 0.723717
vt 0.322823 0.697514
vt 0.355415 0.711482
vt 0.346499 0.660811
vt 0.234310 0.497011
vt 0.199787 0.518705
vt 0.033906 0.550109
vt 0.105677 0.553279
vt 0.064417 0.503004
vt 0.110283 0.515882
vt 0.331194 0.635996
vt 0.318913 0.570187
vt 0.373296 0.599491
vt 0.370594 0.557994
vt 0.422517 0.608393
vt 0.515799 0.585809
vt 0.447803 0.659485
vt 0.520787 0.662707
vt 0.382510 0.693812
vt 0.389195 0.731810
vt 0.408211 0.651691
vt 0.371599 0.504790
vt 0.520198 0.508704
vt 0.333808 0.605796
vt 0.843750 0.578125
vt 0.875000 0.765625
vt 0.812500 0.906250
vt 0.718750 0.890625
vt 0.625000 0.906250
vt 0.562500 0.765625
vt 0.593750 0.578125
vt 0.718750 0.468750
vn -0.6361 0.3373 0.6940
vn -0.7476 0.3222 0.5807
vn 0.6589 0.6022 0.4507
vn 0.8062 0.4636 0.3675
vn 0.6871 -0.2350 -0.6875
vn 0.7038 -0.2080 -0.6793
vn -0.4069 -0.6848 -0.6045
vn 0.2473 0.9379 -0.2433
vn 0.3854 0.0987 -0.9174
vn -0.6621 -0.2010 -0.7219
vn -0.1646 -0.4607 0.8721
vn -0.1646 -0.4608 0.8721
vn -0.1646 -0.4609 0.8721
vn -0.1646 -0.4610 0.8720
vn -0.6464 -0.5402 -0.5388
vn -0.7558 0.5721 0.3185
vn 0.1301 0.9841 0.1206
vn -0.6108 0.4112 -0.6766
vn -0.6102 0.4117 -0.6769
vn -0.6103 0.4115 -0.6769
vn -0.6010 0.4200 -0.6800
vn -0.6826 -0.0926 -0.7249
vn -0.6272 -0.0522 -0.7771
vn -0.5927 0.1877 -0.7832
vn 0.5953 0.3107 -0.7410
vn 0.9947 -0.1000 -0.0256
vn 0.9307 -0.2939 0.2177
vn 0.5764 -0.1724 -0.7987
vn 0.5765 -0.1724 -0.7987
vn 0.5038 -0.4341 -0.7468
vn 0.0026 -0.5415 -0.8407
vn 0.1296 -0.9339 -0.3333
vn -0.8056 0.4236 -0.4142
vn -0.8057 0.4324 -0.4048
vn -0.8056 0.4237 -0.4140
vn -0.8944 -0.0797 -0.4400
vn -0.6049 -0.1004 0.7899
vn 0.2219 -0.2538 0.9415
vn -0.5876 -0.3675 0.7209
vn -0.1158 -0.5946 0.7956
vn 0.7229 -0.4099 0.5562
vn -0.3218 -0.9064 0.2737
vn -0.9266 -0.0339 -0.3745
vn -0.9121 0.2072 -0.3537
vn -0.8268 -0.4909 0.2746
vn 0.2756 0.6840 0.6755
vn -0.5233 0.3789 0.7633
vn 0.1039 0.0375 0.9939
vn 0.7593 0.3498 0.5488
vn 0.1885 0.9785 -0.0835
vn 0.1956 0.9801 0.0325
vn -0.8057 0.4231 -0.4145
vn 0.0170 0.9890 0.1471
vn 0.7553 0.6547 0.0304
vn 0.7017 -0.6445 -0.3038
vn 0.5188 0.0344 0.8542
vn 0.5834 0.0063 0.8122
vn -0.5826 -0.0643 0.8102
vn -0.4925 -0.1150 0.8627
vn -0.9798 -0.1239 0.1570
vn -0.9955 -0.0732 0.0598
vn 0.9948 0.0336 0.0962
vn 0.4077 0.0014 -0.9131
vn 0.5000 -0.0491 -0.8646
vn -0.3543 -0.0824 -0.9315
vn -0.4478 -0.0368 -0.8934
vn -0.3173 0.8082 0.4961
vn -0.6011 0.7969 0.0601
vn 0.9976 0.0662 0.0211
vn 0.2417 0.8453 -0.4766
vn 0.4542 0.8897 0.0457
vn -0.3379 -0.5260 -0.7804
vn -0.2773 0.8184 -0.5033
vn -0.8266 -0.5585 0.0699
vn 0.2391 0.8754 0.4200
vn -0.1712 -0.8114 0.5588
vn -0.1747 -0.8095 0.5606
vn -0.1743 -0.8097 0.5603
vn 0.9848 -0.0798 0.1543
vn 0.9877 -0.0439 0.1498
vn 0.1712 0.7369 -0.6540
vn 0.6924 -0.5293 -0.4903
vn -0.2269 -0.9739 0.0066
vn -0.6838 -0.3215 -0.6550
vn -0.7489 0.4826 0.4542
vn -0.1488 -0.3676 0.9180
vn 0.6973 0.1401 0.7030
vn -0.8689 0.3265 -0.3720
vn 0.1527 0.7322 -0.6638
vn -0.1708 -0.8115 0.5588
vn -0.9345 -0.0127 -0.3558
vn 0.0041 0.1503 -0.9886
vn 0.1092 0.9698 0.2182
vn 0.1630 0.7836 -0.5994
vn -0.0406 -0.5958 -0.8021
vn -0.0406 -0.5954 -0.8024
vn -0.0410 -0.5943 -0.8032
vn -0.0412 -0.5939 -0.8035
vn -0.2233 -0.7827 0.5810
vn -0.2232 -0.7826 0.5811
vn -0.2227 -0.7821 0.5820
vn -0.2227 -0.7819 0.5822
vn 0.1921 0.7807 -0.5946
vn 0.1919 0.7810 -0.5943
vn 0.1907 0.7820 -0.5933
vn 0.1894 0.7833 -0.5921
vn -0.0143 -0.6001 -0.7998
vn -0.0146 -0.5997 -0.8001
vn -0.0146 -0.5998 -0.8000
vn -0.0149 -0.5994 -0.8003
vn -0.1064 -0.8061 0.5822
vn -0.0606 -0.7805 0.6223
vn -0.9449 0.2930 0.1456
vn -0.9481 0.2956 0.1170
vn 0.0875 0.6217 0.7784
vn 0.0872 0.6214 0.7786
vn 0.0930 0.6236 0.7762
vn -0.0838 0.6563 0.7498
vn -0.0797 0.6460 0.7591
vn 0.0937 0.6238 0.7760
vn 0.8551 -0.4017 -0.3279
vn 0.8165 0.5336 -0.2206
vn 0.5758 0.4570 0.6779
vn 0.5912 -0.5394 0.5996
vn 0.7462 0.2621 0.6120
vn -0.6239 0.4750 0.6206
vn -0.6391 0.4632 0.6140
vn -0.9333 -0.0561 -0.3547
vn -0.8192 -0.3727 -0.4360
vn 0.7627 0.2306 0.6043
vn 0.5931 -0.5743 -0.5643
vn 0.5950 -0.5758 -0.5607
vn 0.5932 -0.5745 -0.5640
vn 0.5953 -0.5758 -0.5605
vn -0.7170 -0.6936 -0.0696
vn 0.2766 -0.9322 -0.2336
vn 0.3576 -0.4761 0.8034
vn 0.8340 0.5506 0.0347
vn 0.6477 -0.0434 -0.7607
vn -0.3970 0.4070 -0.8226
vn -0.6919 -0.2130 0.6899
vn -0.2081 0.9781 -0.0050
vn -0.6100 0.2229 -0.7604
vn -0.5923 0.5522 0.5867
vn 0.5079 -0.3010 0.8071
vn 0.5061 -0.3006 0.8084
vn 0.5075 -0.3009 0.8074
vn 0.5057 -0.3005 0.8087
vn 0.5615 -0.6025 -0.5672
vn -0.5769 0.5748 0.5804
vn -0.5781 0.5742 0.5797
vn -0.5795 0.5738 0.5787
vn 0.5247 -0.2802 0.8038
vn 0.5243 -0.2802 0.8041
vn 0.5242 -0.2802 0.8041
vn 0.5238 -0.2803 0.8044
vn 0.6394 -0.5137 -0.5721
vn 0.6393 -0.4620 -0.6146
vn -0.5059 0.3606 -0.7836
vn -0.5061 0.3600 -0.7837
vn -0.5069 0.3556 -0.7852
vn -0.5068 0.3552 -0.7855
vn -0.7281 -0.6806 -0.0820
vn -0.7245 -0.6800 -0.1126
vn -0.6208 0.2248 -0.7510
vn -0.5766 0.5747 0.5807
vn 0.7770 0.5543 0.2982
vn -0.0560 0.9811 0.1850
vn -0.1199 0.7010 -0.7030
vn 0.7540 0.2233 -0.6178
vn -0.7182 0.2210 0.6598
vn -0.7353 0.2742 0.6198
vn -0.2084 0.2830 -0.9362
vn -0.5353 0.3123 -0.7848
vn 0.6708 -0.3409 -0.6586
vn 0.6223 -0.0620 0.7803
vn 0.9704 0.0592 -0.2339
vn 0.1313 0.9868 -0.0952
vn 0.5434 -0.4556 0.7051
vn 0.7193 -0.4522 -0.5274
vn -0.6160 -0.7317 -0.2918
vn -0.5936 -0.7501 -0.2915
vn 0.5218 -0.4314 0.7360
vn -0.0919 0.5867 0.8046
vn 0.6553 0.2446 0.7147
vn 0.6733 0.2232 0.7049
vn 0.8865 0.0574 -0.4591
vn 0.7977 -0.1480 -0.5846
vn -0.0664 0.8302 -0.5535
vn -0.0649 0.8303 -0.5535
vn -0.0545 0.8312 -0.5533
vn -0.0533 0.8313 -0.5532
vn -0.7195 0.2899 0.6311
vn -0.7156 0.0846 0.6934
vn 0.5039 0.7081 0.4946
vn 0.7756 0.4863 -0.4025
vn -0.1658 0.5506 -0.8181
vn -0.1401 -0.9871 0.0775
vn -0.1432 -0.9866 0.0786
vn -0.1408 -0.9870 0.0778
vn -0.1442 -0.9864 0.0789
vn -0.5558 0.6582 0.5079
vn -0.5019 -0.7688 0.3962
vn -0.3321 0.3259 0.8852
vn -0.3378 0.2953 0.8937
vn 0.4750 0.8735 0.1066
vn 0.4661 0.8777 -0.1118
vn 0.1986 -0.2680 -0.9427
vn 0.3345 -0.1847 -0.9241
vn -0.8186 -0.5740 -0.0207
vn -0.7323 0.3497 0.5843
vn -0.3861 0.8714 -0.3027
vn 0.8589 -0.4732 -0.1957
vn -0.5584 -0.8210 0.1194
vn -0.1087 -0.0799 -0.9909
vn -0.3935 0.2386 0.8878
vn -0.4598 0.8104 -0.3631
vn -0.4522 0.8918 -0.0123
vn 0.2992 -0.2520 -0.9203
vn 0.2928 -0.3181 -0.9017
vn 0.6801 0.7259 -0.1026
vn 0.2575 0.1802 0.9493
vn 0.6646 -0.6428 0.3810
vn 0.3134 -0.8474 0.4287
vn -0.3731 0.0644 0.9256
vn -0.9182 -0.2517 -0.3060
vn -0.9222 -0.2639 -0.2828
vn 0.3416 -0.8535 0.3935
vn 0.8681 -0.2029 -0.4530
vn 0.9017 0.1716 0.3969
vn -0.1550 0.2914 0.9440
vn -0.3310 0.1071 0.9375
vn -0.4100 0.9076 -0.0906
vn -0.4060 0.9104 -0.0797
vn -0.4095 0.9079 -0.0893
vn -0.4056 0.9107 -0.0786
vn 0.4205 0.0327 -0.9067
vn 0.4480 -0.1779 -0.8761
vn -0.7338 0.6772 -0.0537
vn -0.0681 0.6757 0.7340
vn 0.7293 0.6573 0.1902
vn -0.1244 -0.9909 0.0521
vn -0.1244 -0.9908 0.0533
vn -0.1245 -0.9906 0.0564
vn -0.1246 -0.9906 0.0573
vn 0.9092 0.1882 0.3714
vn 0.4120 0.4392 -0.7983
usemtl pstalker.png
s 1
f 1/1/1 2/2/1 3/3/1
f 2/2/2 4/4/2 3/3/2
f 3/3/3 4/4/3 5/5/3
f 4/4/4 6/6/4 5/5/4
f 5/5/5 6/6/5 7/7/5
f 6/6/6 8/8/6 7/7/6
f 7/7/7 8/8/7 2/9/7
f 3/10/8 5/11/8 9/12/8
f 5/11/9 7/13/9 9/12/9
f 9/12/10 7/13/10 1/14/10
f 4/4/11 2/2/12 6/15/13
f 2/2/12 8/16/14 6/15/13
f 7/7/15 2/9/15 1/17/15
f 9/12/16 1/14/16 3/10/16
f 10/18/17 11/19/17 12/20/17
f 11/19/18 13/21/19 12/20/20
f 12/20/20 13/21/19 14/22/21
f 13/21/22 15/23/22 14/22/22
f 14/22/23 15/23/23 16/24/23
f 15/23/24 17/25/24 16/24/24
f 11/26/25 18/27/25 13/21/25
f 18/27/26 19/28/27 13/21/28
f 13/21/29 19/28/29 15/23/29
f 19/28/30 20/29/30 15/23/30
f 15/23/31 20/29/31 17/25/31
f 20/29/32 21/30/32 17/25/32
f 12/20/33 14/22/34 22/31/35
f 14/22/36 23/32/36 22/31/36
f 22/31/37 23/32/37 24/33/38
f 23/32/39 25/34/39 24/33/39
f 24/33/38 25/34/40 21/30/41
f 25/34/42 17/25/42 21/30/42
f 14/22/43 16/24/43 23/32/43
f 16/24/44 17/25/44 23/32/44
f 23/32/45 17/25/45 25/34/45
f 26/35/46 27/36/47 28/37/48
f 27/36/47 22/31/47 28/37/48
f 28/37/48 22/31/37 24/33/38
f 26/38/46 10/18/49 27/39/50
f 10/18/51 12/20/51 27/39/51
f 27/39/52 12/20/33 22/31/35
f 11/19/53 10/18/49 29/40/54
f 18/27/26 11/26/25 29/41/54
f 20/29/55 19/28/27 21/30/41
f 30/42/56 31/43/56 32/44/56
f 31/43/57 33/45/57 32/44/57
f 32/44/58 33/45/58 34/46/58
f 33/45/59 35/47/59 34/46/59
f 34/46/60 35/47/60 36/48/60
f 35/47/61 37/49/61 36/48/61
f 31/43/62 38/50/62 39/51/62
f 38/50/63 40/52/63 39/51/63
f 39/51/64 40/52/64 41/53/64
f 40/52/65 36/48/65 41/53/65
f 41/53/66 36/48/66 37/49/66
f 33/45/67 42/54/67 35/47/67
f 42/54/68 37/55/68 35/47/68
f 38/50/69 31/43/69 30/42/69
f 41/53/70 42/54/70 39/51/70
f 42/54/71 31/56/71 39/51/71
f 40/52/72 43/57/72 36/48/72
f 37/55/73 42/54/73 41/53/73
f 36/48/74 43/57/74 34/46/74
f 31/56/75 42/54/75 33/45/75
f 44/58/76 45/59/77 46/60/78
f 45/59/79 47/61/79 46/60/79
f 46/60/80 47/61/80 48/62/80
f 47/61/81 49/63/81 48/62/81
f 47/64/82 45/65/82 50/66/82
f 45/65/83 44/67/83 50/66/83
f 50/66/84 44/67/84 51/68/84
f 49/69/85 52/70/85 53/71/85
f 52/70/86 46/72/86 53/71/86
f 53/71/87 46/72/87 48/73/87
f 52/74/88 49/63/88 51/75/88
f 49/63/89 47/61/89 51/75/89
f 44/58/76 46/60/78 52/76/90
f 44/77/91 52/74/91 51/75/91
f 50/66/92 51/68/92 47/64/92
f 53/71/93 48/73/93 49/69/93
f 54/78/94 55/79/94 56/80/94
f 55/79/94 57/81/94 56/80/94
f 56/80/95 57/81/96 58/82/97
f 57/81/96 59/83/98 58/82/97
f 58/82/99 59/83/100 60/84/101
f 59/83/100 61/85/102 60/84/101
f 62/86/103 54/78/104 63/87/105
f 54/78/104 56/80/106 63/87/105
f 63/87/107 56/80/108 64/88/109
f 56/80/108 58/82/110 64/88/109
f 64/88/111 58/82/111 65/89/111
f 58/82/112 60/84/112 65/89/112
f 63/90/113 64/91/113 62/92/113
f 64/91/114 65/93/114 62/92/114
f 62/92/115 65/93/116 60/94/117
f 61/95/118 55/79/118 60/96/118
f 55/79/119 54/78/119 60/96/119
f 62/92/115 60/94/117 54/97/120
f 66/98/121 59/99/121 57/100/121
f 66/98/122 57/100/122 55/101/122
f 66/98/123 55/101/123 61/102/123
f 66/98/124 61/102/124 59/99/124
f 67/103/125 68/104/125 69/105/125
f 68/104/126 70/106/126 69/105/126
f 69/105/127 70/106/127 71/107/127
f 70/106/128 72/108/128 71/107/128
f 71/107/129 72/108/129 73/109/129
f 69/105/130 74/110/130 67/103/130
f 74/110/131 73/111/132 67/103/133
f 67/103/133 73/111/132 72/112/134
f 71/113/135 73/114/135 75/115/135
f 73/114/136 74/116/136 75/115/136
f 75/115/137 74/116/137 69/117/137
f 68/118/138 67/119/138 76/120/138
f 67/119/139 72/121/139 76/120/139
f 76/120/140 72/121/140 70/122/140
f 69/117/141 71/113/141 75/115/141
f 70/122/142 68/118/142 76/120/142
f 77/123/143 78/124/143 79/125/143
f 78/124/144 80/126/144 79/125/144
f 79/125/144 80/126/144 81/127/144
f 80/126/145 82/128/146 81/127/147
f 81/127/147 82/128/146 83/129/148
f 82/128/149 77/130/149 83/129/149
f 83/129/149 77/130/149 84/131/149
f 78/124/150 85/132/151 80/126/152
f 85/132/153 86/133/154 80/126/155
f 80/126/155 86/133/154 82/128/156
f 86/133/157 87/134/157 82/128/157
f 82/128/158 87/134/158 77/130/158
f 78/135/159 77/136/160 88/137/161
f 77/136/160 87/138/162 88/137/161
f 88/137/163 87/138/163 86/139/163
f 88/137/164 86/139/164 85/140/164
f 79/125/165 84/141/165 77/123/165
f 85/132/151 78/124/150 88/142/166
f 81/143/167 83/144/167 89/145/167
f 79/146/168 81/143/168 89/145/168
f 84/147/169 79/146/169 89/145/169
f 83/144/170 84/147/170 89/145/170
f 90/148/171 91/149/171 92/150/171
f 91/149/172 93/151/172 92/150/172
f 92/150/173 93/151/173 94/152/173
f 93/151/174 95/153/174 94/152/174
f 94/152/175 95/153/175 96/154/175
f 91/155/176 96/156/176 97/157/176
f 96/156/177 95/158/177 97/157/177
f 97/157/178 95/158/178 93/159/178
f 90/160/179 98/161/179 96/154/179
f 98/161/180 94/152/180 96/154/180
f 92/162/181 94/163/181 90/164/181
f 94/163/182 98/165/182 90/164/182
f 90/160/183 96/154/183 91/166/183
f 97/157/184 93/159/184 91/155/184
f 99/167/185 100/168/185 101/169/185
f 100/168/186 102/170/186 101/169/186
f 101/169/187 102/170/187 103/171/187
f 102/170/188 104/172/188 103/171/188
f 103/171/189 104/172/190 105/173/191
f 104/172/190 106/174/192 105/173/191
f 105/173/193 106/174/193 99/175/193
f 106/174/194 100/176/194 99/175/194
f 99/175/195 101/169/195 107/177/195
f 101/169/196 103/171/196 107/177/196
f 107/177/197 103/171/197 105/173/197
f 106/178/198 104/172/199 100/179/200
f 104/172/199 102/170/201 100/179/200
f 107/177/202 105/173/202 99/175/202
f 108/180/203 109/181/203 110/182/203
f 109/181/204 111/183/204 110/182/204
f 110/182/205 111/183/205 112/184/205
f 111/183/206 113/185/206 112/184/206
f 112/184/207 113/185/207 114/186/207
f 113/185/208 108/187/208 114/186/208
f 114/186/209 108/187/209 115/188/209
f 115/189/210 110/190/210 116/191/210
f 110/190/211 112/192/211 116/191/211
f 116/191/212 112/192/212 114/193/212
f 113/185/213 111/194/213 108/187/213
f 111/194/213 109/195/213 108/187/213
f 115/196/214 108/180/214 110/182/214
f 114/193/215 115/189/215 116/191/215
f 117/197/216 118/198/216 119/199/216
f 118/198/217 120/200/217 119/199/217
f 119/199/218 120/200/218 121/201/218
f 120/200/219 122/202/219 121/201/219
f 121/201/220 122/202/220 123/203/220
f 120/204/221 118/205/221 124/206/221
f 118/205/222 117/207/222 124/206/222
f 124/206/223 117/207/223 122/208/223
f 123/209/224 117/197/224 125/210/224
f 117/197/225 119/199/225 125/210/225
f 121/211/226 123/212/226 119/213/226
f 123/212/227 125/214/227 119/213/227
f 117/197/228 123/209/228 122/215/228
f 122/208/229 120/204/229 124/206/229
f 126/216/230 127/217/230 128/218/230
f 127/217/231 129/219/231 128/218/231
f 128/218/232 129/219/232 130/220/232
f 129/219/233 131/221/234 130/220/235
f 130/220/235 131/221/234 132/222/236
f 131/221/237 133/223/237 132/222/237
f 132/222/238 133/223/238 126/224/238
f 131/221/239 129/219/239 134/225/239
f 129/219/240 127/217/240 134/225/240
f 134/225/241 127/217/241 133/223/241
f 128/218/242 130/220/243 126/226/244
f 130/220/243 132/227/245 126/226/244
f 127/217/246 126/216/246 133/228/246
f 133/223/247 131/221/247 134/225/247
f 19/229/27 18/230/26 29/231/54 10/232/49 26/233/46 28/234/48 24/235/38 21/236/41
