# Blender v2.82 (sub 7) OBJ File: 'village_e3.blend'
# www.blender.org
mtllib trader_npc.mtl
v 1.160901 -0.008436 4.826806
v 1.164701 0.093042 4.917928
v 1.195878 -0.010265 4.922696
v 1.067337 0.092992 4.983581
v 0.909801 -0.010061 5.057690
v 0.970551 0.086566 4.890963
v 0.802794 -0.008087 4.938694
v 1.132720 0.086128 4.829948
v 1.071372 0.169238 4.910330
v 1.284801 1.156965 4.574312
v 1.064418 1.091619 4.495267
v 1.099389 1.074180 4.648018
v 1.074404 0.901217 4.419336
v 1.121812 0.885187 4.641118
v 1.267872 0.643571 4.392924
v 1.287817 0.634206 4.578413
v 1.348561 0.464692 4.556255
v 1.256034 1.000077 4.346953
v 1.382969 0.706218 4.347055
v 1.390928 0.571448 4.399889
v 1.568839 0.584589 4.468471
v 1.237965 0.905426 4.835514
v 1.399425 0.646956 4.727654
v 1.514522 0.709603 4.681787
v 1.485311 0.573876 4.640042
v 1.304271 1.163454 4.732913
v 1.177647 1.094533 4.783375
v 1.419596 1.004286 4.763131
v 1.191042 1.160540 4.444805
v 1.267121 1.133430 4.566584
v 1.222267 1.368730 4.586283
v 1.266359 1.130067 4.667706
v 1.230276 1.361086 4.690248
v 1.155396 1.114789 4.713856
v 1.119944 1.338132 4.750082
v 1.062311 1.114996 4.677196
v 1.020157 1.327437 4.695873
v 1.182363 1.127117 4.511686
v 1.140034 1.357916 4.522625
v 1.082981 1.112245 4.579349
v 1.029701 1.334962 4.582460
v 1.105611 1.408678 4.648331
v 1.104411 1.070695 4.655368
v 1.140610 0.736662 4.371753
v 1.205436 0.773932 4.231999
v 1.247445 0.958675 4.360298
v 1.095459 0.816526 4.193234
v 1.115975 1.062294 4.351439
v 1.053193 1.009555 4.465786
v 1.118773 0.715084 4.236277
v 1.034136 0.782083 4.326675
v 1.157504 0.883047 4.524235
v 1.162712 1.061623 4.474399
v 0.918458 0.614572 4.423792
v 1.031722 0.794075 4.342426
v 0.934861 0.579859 4.339543
v 1.053496 0.747998 4.230595
v 1.030001 0.537366 4.374315
v 1.161287 0.700299 4.269346
v 1.012812 0.574037 4.463344
v 1.138115 0.749336 4.388362
v 0.872230 0.555624 4.466441
v 0.863584 0.482313 4.398256
v 0.968324 0.435184 4.436877
v 0.976185 0.510484 4.509688
v 1.125046 0.796747 4.294347
v 1.379073 0.916673 4.724254
v 1.345469 1.027388 4.845438
v 1.366658 0.747834 4.930424
v 1.206376 1.024199 4.824437
v 1.220503 0.767945 4.898998
v 1.179681 0.912102 4.694149
v 1.232822 0.726780 4.782440
v 1.386640 0.706785 4.815047
v 1.313324 0.664404 4.876912
v 1.280945 1.061716 4.736118
v 1.069923 0.576547 4.827476
v 1.057962 0.609813 4.931717
v 1.217056 0.768507 4.897481
v 1.130188 0.559112 4.959806
v 1.312879 0.701242 4.934747
v 1.146173 0.523021 4.857130
v 1.331540 0.660653 4.818956
v 1.229608 0.732207 4.779315
v 1.026531 0.475674 4.978722
v 1.043807 0.435778 4.865648
v 1.001065 0.523722 4.827285
v 0.987814 0.560793 4.941924
v 1.307821 0.760539 4.845215
v 0.980631 0.391377 4.506648
v 1.328585 0.389767 4.537599
v 0.910080 0.613063 4.491576
v 1.294368 0.647391 4.558575
v 0.934082 0.622386 4.350441
v 1.454693 0.617424 4.360938
v 1.001551 0.409143 4.340576
v 1.472563 0.482845 4.349928
v 0.823509 0.468066 4.423690
v 1.151674 0.090670 4.480848
v 1.040497 0.445058 4.510158
v 0.978787 0.077607 4.474245
v 0.844504 0.484335 4.493843
v 1.041272 0.082487 4.355418
v 0.853631 0.517265 4.328784
v 1.042841 0.477602 4.347589
v 0.942126 0.588757 4.405655
v 1.153978 0.092825 4.386874
v 1.150104 0.076864 4.471714
v 1.177695 -0.017739 4.465607
v 1.151954 0.083785 4.378043
v 1.179946 -0.019510 4.363422
v 1.038609 0.083816 4.347089
v 0.865449 -0.019255 4.327617
v 0.976675 0.077425 4.466140
v 0.802332 -0.017238 4.474955
v 1.066081 0.159986 4.415313
v 1.371106 0.384000 4.576389
v 1.578285 0.500273 4.666048
v 1.174718 0.409613 4.903238
v 1.546573 0.632366 4.655870
v 1.093545 0.617900 4.912354
v 1.310447 0.636666 4.556922
v 1.006827 0.593991 4.800687
v 1.079528 0.374969 4.768747
v 0.974363 0.453101 4.911226
v 1.174209 0.445112 4.884054
v 1.030957 0.549448 4.963638
v 1.066135 0.076795 4.977810
v 0.940873 0.502755 4.829175
v 0.958531 0.079766 4.897754
v 1.091058 0.396676 4.749134
v 1.106717 0.031837 4.822076
v 1.090990 0.576610 4.843210
v 1.151132 0.043882 4.903865
vt 0.318913 0.570187
vt 0.373296 0.599491
vt 0.370594 0.557994
vt 0.422517 0.608393
vt 0.515799 0.585809
vt 0.447803 0.659485
vt 0.520787 0.662707
vt 0.382510 0.693812
vt 0.389195 0.731810
vt 0.408211 0.651691
vt 0.371599 0.504790
vt 0.520198 0.508704
vt 0.333808 0.605796
vt 0.979535 0.975022
vt 0.854474 0.884169
vt 0.954903 0.847184
vt 0.794685 0.788930
vt 0.927493 0.744636
vt 0.766618 0.610001
vt 0.868874 0.584931
vt 0.844022 0.495978
vt 0.760113 0.895498
vt 0.662170 0.785787
vt 0.682636 0.607882
vt 0.713626 0.553428
vt 0.602965 0.497074
vt 0.794685 0.788930
vt 0.766618 0.610001
vt 0.682636 0.607882
vt 0.713626 0.553428
vt 0.668090 0.893378
vt 0.760113 0.895498
vt 0.662170 0.785787
vt 0.871432 0.974583
vt 0.854474 0.884169
vt 0.871432 0.974583
vt 0.668090 0.893378
vt 0.534172 0.019081
vt 0.519668 0.319788
vt 0.660271 0.031712
vt 0.650208 0.325478
vt 0.830992 0.044967
vt 0.810034 0.331100
vt 0.948416 0.073768
vt 0.948832 0.331377
vt 0.660271 0.031712
vt 0.650208 0.325478
vt 0.830992 0.044967
vt 0.810034 0.331100
vt 0.744799 0.473021
vt 0.894215 0.441583
vt 0.576367 0.433602
vt 0.925375 0.018179
vt 0.087701 0.325815
vt 0.183504 0.318873
vt 0.182335 0.461811
vt 0.274996 0.314634
vt 0.299111 0.496595
vt 0.403172 0.494768
vt 0.111378 0.085905
vt 0.069870 0.109801
vt 0.077689 0.074432
vt 0.048020 0.059889
vt 0.090916 0.037601
vt 0.064389 0.019405
vt 0.125993 0.040816
vt 0.073013 0.057478
vt 0.084486 0.115281
vt 0.035378 0.070486
vt 0.512422 0.430607
vt 0.366707 0.313027
vt 0.033478 0.472407
vt 0.454326 0.285404
vt 0.338779 0.141681
vt 0.363315 0.286300
vt 0.270291 0.162081
vt 0.274567 0.313919
vt 0.184487 0.164394
vt 0.181192 0.318266
vt 0.111302 0.144485
vt 0.085925 0.288473
vt 0.343196 0.086301
vt 0.270992 0.074735
vt 0.179580 0.075366
vt 0.104572 0.089176
vt 0.490829 0.018934
vt 0.499521 0.109925
vt 0.417222 0.024823
vt 0.421499 0.117426
vt 0.364577 0.112729
vt 0.456970 0.270387
vt 0.421569 0.127100
vt 0.360791 0.028678
vt 0.066507 0.082095
vt 0.040079 0.106631
vt 0.044215 0.052092
vt 0.091183 0.056298
vt 0.089711 0.110697
vt 0.182978 0.460608
vt 0.301804 0.495981
vt 0.277281 0.310868
vt 0.407625 0.494197
vt 0.370469 0.309307
vt 0.518722 0.428876
vt 0.459570 0.281217
vt 0.184093 0.315327
vt 0.086818 0.322312
vt 0.031678 0.471383
vt 0.090013 0.029223
vt 0.046392 0.051814
vt 0.076637 0.066603
vt 0.068611 0.102570
vt 0.110895 0.078418
vt 0.033610 0.062590
vt 0.083474 0.108218
vt 0.071807 0.049511
vt 0.125683 0.032493
vt 0.062963 0.010719
vt 0.420383 0.126893
vt 0.338209 0.141423
vt 0.362611 0.284776
vt 0.270217 0.161584
vt 0.274597 0.312167
vt 0.185123 0.163879
vt 0.181925 0.316478
vt 0.112613 0.144204
vt 0.087376 0.287001
vt 0.270982 0.074892
vt 0.180326 0.075587
vt 0.105869 0.089283
vt 0.360108 0.029286
vt 0.363793 0.112572
vt 0.416003 0.025393
vt 0.420313 0.117300
vt 0.497621 0.109930
vt 0.489000 0.019622
vt 0.455491 0.268995
vt 0.342589 0.086432
vt 0.046081 0.052506
vt 0.041979 0.106524
vt 0.068189 0.082330
vt 0.092591 0.056677
vt 0.091200 0.110626
vt 0.049617 0.737374
vt 0.029784 0.897680
vt 0.138206 0.729705
vt 0.144023 0.890222
vt 0.200984 0.727696
vt 0.233722 0.931475
vt 0.287722 0.727220
vt 0.293698 0.931422
vt 0.376416 0.879592
vt 0.295391 0.722407
vt 0.283596 0.677399
vt 0.329504 0.693688
vt 0.342884 0.657777
vt 0.357482 0.709079
vt 0.121176 0.986109
vt 0.061411 0.990023
vt 0.360814 0.718810
vt 0.029785 0.556875
vt 0.049987 0.724204
vt 0.105516 0.562591
vt 0.139022 0.729623
vt 0.160307 0.543621
vt 0.201499 0.727603
vt 0.272106 0.680696
vt 0.343895 0.658819
vt 0.352715 0.709323
vt 0.320294 0.695281
vt 0.295904 0.721395
vt 0.285606 0.678085
vt 0.232195 0.495876
vt 0.198000 0.517507
vt 0.032889 0.548696
vt 0.063290 0.501789
vt 0.104383 0.551899
vt 0.108916 0.514698
vt 0.328621 0.634085
vt 0.333803 0.605495
vt 0.318795 0.569698
vt 0.373500 0.599192
vt 0.370784 0.557406
vt 0.422912 0.608106
vt 0.516686 0.585402
vt 0.448297 0.659398
vt 0.521805 0.662706
vt 0.382693 0.694011
vt 0.389413 0.732210
vt 0.408600 0.651598
vt 0.521213 0.507890
vt 0.371689 0.503990
vt 0.376316 0.880325
vt 0.294075 0.931699
vt 0.288081 0.728675
vt 0.234393 0.931805
vt 0.201897 0.729201
vt 0.145212 0.890684
vt 0.139480 0.731094
vt 0.031684 0.898309
vt 0.051403 0.738876
vt 0.357491 0.710691
vt 0.342978 0.659686
vt 0.329674 0.695285
vt 0.284084 0.679194
vt 0.295705 0.723890
vt 0.122496 0.986123
vt 0.063076 0.990014
vt 0.360804 0.720314
vt 0.274381 0.682804
vt 0.203403 0.729908
vt 0.161994 0.544908
vt 0.140597 0.731889
vt 0.106915 0.563977
vt 0.051093 0.726490
vt 0.030785 0.558380
vt 0.287903 0.680079
vt 0.298305 0.723717
vt 0.322823 0.697514
vt 0.355415 0.711482
vt 0.346499 0.660811
vt 0.234310 0.497011
vt 0.199787 0.518705
vt 0.033906 0.550109
vt 0.105677 0.553279
vt 0.064417 0.503004
vt 0.110283 0.515882
vt 0.331194 0.635996
vn 0.9089 0.2592 -0.3266
vn 0.5474 0.2027 0.8120
vn 0.4268 -0.0020 0.9044
vn -0.3917 0.8508 0.3503
vn -0.3813 0.8533 0.3556
vn -0.3905 0.8511 0.3509
vn -0.3803 0.8536 0.3561
vn -0.3478 0.1497 -0.9255
vn -0.2978 -0.0571 -0.9529
vn -0.5837 0.5784 0.5699
vn 0.4434 0.6087 0.6580
vn 0.6203 0.7316 -0.2830
vn -0.0083 -0.9998 -0.0160
vn -0.0075 -0.9999 -0.0152
vn -0.0054 -0.9999 -0.0130
vn -0.0048 -0.9999 -0.0123
vn 0.8954 0.2784 -0.3474
vn -0.2944 0.5432 -0.7863
vn -0.3392 0.9227 0.1830
vn -0.9693 -0.1333 0.2067
vn -0.9695 -0.1327 0.2061
vn -0.9694 -0.1330 0.2062
vn -0.9723 -0.1226 0.1990
vn -0.7872 -0.6039 0.1246
vn -0.8255 -0.5611 0.0604
vn -0.9346 -0.3458 0.0830
vn -0.4898 0.3007 -0.8184
vn -0.3043 -0.1318 -0.9434
vn -0.1641 -0.3684 -0.9151
vn -0.3834 -0.7111 -0.5894
vn 0.2532 -0.8295 -0.4978
vn -0.8496 -0.1298 0.5113
vn -0.8468 -0.1194 0.5184
vn -0.8495 -0.1296 0.5114
vn -0.6573 -0.6006 0.4553
vn 0.4203 -0.1131 0.9003
vn 0.5053 -0.3512 0.7883
vn 0.8626 -0.3089 0.4007
vn 0.5300 -0.8224 0.2067
vn -0.6419 -0.5564 0.5276
vn -0.7387 -0.3407 0.5815
vn 0.1253 -0.6980 0.7051
vn 0.1963 0.3183 0.9274
vn -0.4712 0.8817 0.0218
vn -0.3794 0.9217 0.0808
vn -0.8497 -0.1302 0.5109
vn -0.3661 0.8844 0.2894
vn 0.3612 -0.3218 -0.8752
vn 0.9824 0.1861 0.0136
vn 0.9850 0.1601 -0.0641
vn 0.3873 -0.0294 0.9215
vn 0.4860 -0.0642 0.8716
vn -0.3591 -0.2047 0.9106
vn -0.4567 -0.1674 0.8737
vn 0.5934 0.1464 -0.7915
vn -0.5553 -0.0625 -0.8293
vn -0.4587 -0.0974 -0.8832
vn -0.9544 -0.2256 -0.1953
vn -0.9780 -0.1857 -0.0946
vn 0.1285 0.8234 0.5528
vn -0.3839 0.7326 0.5620
vn 0.5267 0.1701 -0.8328
vn -0.4036 0.8047 -0.4355
vn 0.1391 0.9309 -0.3378
vn -0.7514 -0.6447 -0.1406
vn -0.6920 0.7218 -0.0103
vn -0.2863 -0.6284 0.7233
vn 0.3438 0.9381 0.0425
vn 0.8680 -0.4025 0.2907
vn 0.8669 -0.4019 0.2949
vn 0.8670 -0.4019 0.2945
vn 0.4453 0.4402 -0.7797
vn 0.4199 0.4662 -0.7787
vn -0.8879 0.2991 -0.3495
vn 0.1898 -0.3462 -0.9188
vn 0.5627 -0.8257 0.0408
vn -0.4579 -0.8635 0.2113
vn -0.2018 0.2687 0.9418
vn 0.8459 0.1203 0.5196
vn 0.6121 0.7571 -0.2285
vn -0.7247 -0.3143 0.6132
vn -0.8972 0.2827 -0.3393
vn 0.8680 -0.4027 0.2904
vn -0.5150 -0.5892 0.6227
vn -0.7988 -0.3811 -0.4655
vn -0.4340 0.8848 0.1698
vn -0.8588 0.3927 -0.3290
vn 0.0476 -0.5666 -0.8226
vn 0.0472 -0.5666 -0.8227
vn 0.0456 -0.5665 -0.8228
vn 0.0451 -0.5665 -0.8228
vn 0.8270 -0.4453 0.3431
vn 0.8271 -0.4451 0.3432
vn 0.8273 -0.4442 0.3439
vn 0.8273 -0.4442 0.3441
vn -0.8436 0.4156 -0.3399
vn -0.8438 0.4156 -0.3396
vn -0.8445 0.4156 -0.3378
vn -0.8453 0.4156 -0.3358
vn 0.0615 -0.5473 -0.8347
vn 0.0610 -0.5474 -0.8346
vn 0.0611 -0.5474 -0.8346
vn 0.0605 -0.5475 -0.8346
vn 0.8880 -0.3641 0.2807
vn 0.9047 -0.3030 0.2995
vn -0.4964 -0.5591 0.6641
vn -0.5140 -0.5679 0.6428
vn -0.0628 0.6118 0.7885
vn -0.0627 0.6114 0.7888
vn -0.0635 0.6166 0.7847
vn -0.1662 0.4858 0.8581
vn -0.1520 0.4860 0.8606
vn -0.0636 0.6172 0.7842
vn 0.4573 0.3802 -0.8039
vn -0.2360 0.8814 -0.4091
vn 0.1913 0.8868 0.4206
vn 0.9388 0.3419 0.0419
vn 0.9795 0.1227 0.1595
vn -0.1497 0.2772 0.9491
vn -0.1673 0.2669 0.9491
vn -0.9802 0.0035 0.1978
vn -0.9608 -0.2772 -0.0036
vn 0.9860 0.0948 0.1370
vn 0.1425 -0.3886 -0.9103
vn 0.1460 -0.3908 -0.9088
vn 0.1428 -0.3888 -0.9102
vn 0.1462 -0.3910 -0.9087
vn -0.7170 -0.6776 0.1635
vn 0.0101 -0.8305 -0.5569
vn 0.6720 -0.6533 0.3488
vn 0.7821 0.5527 -0.2880
vn 0.1430 0.1764 -0.9739
vn -0.7228 0.5901 -0.3596
vn -0.2452 -0.4075 0.8797
vn -0.0725 0.9385 0.3375
vn -0.7067 0.6465 -0.2874
vn -0.1302 0.3321 0.9342
vn 0.6052 -0.7169 0.3462
vn 0.6041 -0.7168 0.3482
vn 0.6049 -0.7169 0.3466
vn 0.6040 -0.7167 0.3486
vn 0.0919 -0.3792 -0.9208
vn 0.0919 -0.3792 -0.9207
vn -0.1109 0.3515 0.9296
vn -0.1123 0.3519 0.9293
vn -0.1140 0.3522 0.9289
vn 0.6262 -0.7003 0.3428
vn 0.6259 -0.7003 0.3431
vn 0.6259 -0.7004 0.3432
vn 0.6256 -0.7004 0.3436
vn 0.1898 -0.3136 -0.9304
vn 0.1939 -0.2494 -0.9488
vn -0.5747 0.7582 -0.3079
vn -0.5751 0.7578 -0.3081
vn -0.5779 0.7548 -0.3105
vn -0.5780 0.7545 -0.3108
vn -0.9045 -0.4252 0.0330
vn -0.9112 -0.4118 0.0061
vn -0.7124 0.6460 -0.2741
vn -0.1104 0.3516 0.9296
vn 0.9743 0.2094 0.0836
vn 0.3579 0.7877 0.5015
vn -0.0901 0.9493 -0.3012
vn 0.5349 0.3313 -0.7773
vn -0.0884 0.0396 0.9953
vn -0.1621 -0.1014 0.9816
vn -0.0974 0.9940 0.0491
vn 0.0123 0.9901 -0.1402
vn 0.0206 0.0527 -0.9984
vn 0.0069 0.0824 -0.9966
vn 0.1519 -0.9269 -0.3432
vn -0.8313 0.5457 -0.1053
vn -0.4480 -0.1007 -0.8883
vn -0.3712 -0.9172 -0.1449
vn 0.7794 0.0527 0.6243
vn 0.7795 0.0526 0.6242
vn 0.7796 0.0525 0.6241
vn 0.0048 -0.9944 -0.1058
vn -0.5028 -0.1017 0.8584
vn -0.0311 -0.0921 0.9953
vn -0.0987 -0.0804 0.9919
vn -0.8505 -0.2587 -0.4579
vn -0.9074 -0.3996 -0.1299
vn 0.0947 -0.0201 -0.9953
vn 0.7685 0.6252 0.1362
vn 0.2015 0.5907 -0.7813
vn -0.6795 0.7258 0.1072
vn 0.9595 0.2802 0.0299
vn 0.2705 -0.0201 -0.9625
vn 0.0754 -0.9972 -0.0013
vn 0.0970 -0.9951 -0.0204
vn 0.9533 0.2931 0.0724
vn 0.0571 0.6125 0.7884
vn 0.9599 0.2774 0.0395
vn 0.9657 0.2593 0.0168
vn 0.2580 0.2036 -0.9445
vn 0.1131 -0.0023 -0.9936
vn -0.4833 0.8509 -0.2058
vn -0.4823 0.8513 -0.2067
vn -0.4751 0.8535 -0.2140
vn -0.4744 0.8537 -0.2149
vn -0.0313 0.1496 0.9882
vn 0.0248 -0.0572 0.9981
vn 0.6784 0.7316 0.0675
vn 0.2090 0.6096 -0.7647
vn -0.7351 0.5798 -0.3513
vn -0.0010 -0.9999 0.0133
vn -0.0024 -0.9999 0.0163
vn -0.0013 -0.9999 0.0140
vn -0.0028 -0.9998 0.0173
vn -0.0252 0.5437 0.8389
vn 0.3693 -0.8825 0.2911
vn 0.4683 0.1791 0.8652
vn 0.4834 0.1507 0.8623
vn -0.0031 0.9987 0.0508
vn -0.1886 0.9800 -0.0634
vn -0.5955 -0.2029 -0.7773
vn -0.5484 -0.0604 -0.8341
vn -0.1836 -0.9127 0.3650
vn 0.0331 -0.0308 0.9990
vn -0.7246 0.5209 0.4512
vn 0.3867 0.0218 -0.9219
vn 0.1340 -0.9784 0.1572
vn -0.8378 -0.2042 -0.5064
vn 0.5200 0.0642 0.8518
vn -0.8228 -0.0442 0.5666
vn -0.5918 0.1049 0.7993
vn -0.5482 -0.1561 -0.8217
vn -0.4947 -0.1908 -0.8479
vn -0.4401 0.8978 -0.0169
vn 0.6753 0.5720 0.4656
vn 0.7595 0.3016 -0.5764
vn 0.8809 -0.0738 -0.4675
vn 0.6562 -0.0005 0.7545
vn -0.1939 -0.9548 0.2251
vn -0.1686 -0.9579 0.2326
vn 0.8597 -0.0644 -0.5067
vn -0.1436 0.4585 -0.8770
usemtl pstalker.png
s 1
f 1/1/1 2/2/1 3/3/1
f 2/2/2 4/4/2 3/3/2
f 3/3/3 4/4/3 5/5/3
f 4/4/4 6/6/5 5/5/6
f 5/5/6 6/6/5 7/7/7
f 6/6/8 8/8/8 7/7/8
f 7/7/9 8/8/9 1/9/9
f 6/6/10 4/4/10 9/10/10
f 4/4/11 2/2/11 9/10/11
f 9/10/12 2/2/12 8/8/12
f 3/3/13 5/5/14 1/11/15
f 5/5/14 7/12/16 1/11/15
f 2/2/17 1/1/17 8/13/17
f 8/8/18 6/6/18 9/10/18
f 10/14/19 11/15/19 12/16/19
f 11/15/20 13/17/21 12/16/22
f 12/16/22 13/17/21 14/18/23
f 13/17/24 15/19/24 14/18/24
f 14/18/25 15/19/25 16/20/25
f 15/19/26 17/21/26 16/20/26
f 11/22/27 18/23/27 13/17/27
f 18/23/28 19/24/28 13/17/28
f 13/17/28 19/24/28 15/19/28
f 19/24/29 20/25/29 15/19/29
f 15/19/30 20/25/30 17/21/30
f 20/25/31 21/26/31 17/21/31
f 12/16/32 14/18/33 22/27/34
f 14/18/35 23/28/35 22/27/35
f 22/27/36 23/28/36 24/29/36
f 23/28/37 25/30/37 24/29/37
f 24/29/38 25/30/38 21/26/38
f 25/30/39 17/21/39 21/26/39
f 14/18/40 16/20/40 23/28/40
f 16/20/41 17/21/41 23/28/41
f 23/28/42 17/21/42 25/30/42
f 26/31/43 27/32/43 28/33/43
f 27/32/43 22/27/43 28/33/43
f 28/33/36 22/27/36 24/29/36
f 26/34/44 10/14/44 27/35/44
f 10/14/45 12/16/45 27/35/45
f 27/35/46 12/16/32 22/27/34
f 11/15/47 10/14/47 29/36/47
f 18/23/27 11/22/27 29/37/27
f 20/25/48 19/24/48 21/26/48
f 30/38/49 31/39/49 32/40/49
f 31/39/50 33/41/50 32/40/50
f 32/40/51 33/41/51 34/42/51
f 33/41/52 35/43/52 34/42/52
f 34/42/53 35/43/53 36/44/53
f 35/43/54 37/45/54 36/44/54
f 31/39/55 38/46/55 39/47/55
f 38/46/56 40/48/56 39/47/56
f 39/47/57 40/48/57 41/49/57
f 40/48/58 36/44/58 41/49/58
f 41/49/59 36/44/59 37/45/59
f 33/41/60 42/50/60 35/43/60
f 42/50/61 37/51/61 35/43/61
f 38/46/62 31/39/62 30/38/62
f 41/49/63 42/50/63 39/47/63
f 42/50/64 31/52/64 39/47/64
f 40/48/65 43/53/65 36/44/65
f 37/51/66 42/50/66 41/49/66
f 36/44/67 43/53/67 34/42/67
f 31/52/68 42/50/68 33/41/68
f 44/54/69 45/55/70 46/56/71
f 45/55/72 47/57/72 46/56/72
f 46/56/73 47/57/73 48/58/73
f 47/57/74 49/59/74 48/58/74
f 47/60/75 45/61/75 50/62/75
f 45/61/76 44/63/76 50/62/76
f 50/62/77 44/63/77 51/64/77
f 49/65/78 52/66/78 53/67/78
f 52/66/79 46/68/79 53/67/79
f 53/67/80 46/68/80 48/69/80
f 52/70/81 49/59/81 51/71/81
f 49/59/82 47/57/82 51/71/82
f 44/54/69 46/56/71 52/72/83
f 44/73/84 52/70/84 51/71/84
f 50/62/85 51/64/85 47/60/85
f 53/67/86 48/69/86 49/65/86
f 54/74/87 55/75/87 56/76/87
f 55/75/87 57/77/87 56/76/87
f 56/76/88 57/77/89 58/78/90
f 57/77/89 59/79/91 58/78/90
f 58/78/92 59/79/93 60/80/94
f 59/79/93 61/81/95 60/80/94
f 62/82/96 54/74/97 63/83/98
f 54/74/97 56/76/99 63/83/98
f 63/83/100 56/76/101 64/84/102
f 56/76/101 58/78/103 64/84/102
f 64/84/104 58/78/104 65/85/104
f 58/78/105 60/80/105 65/85/105
f 63/86/106 64/87/106 62/88/106
f 64/87/107 65/89/107 62/88/107
f 62/88/108 65/89/109 60/90/110
f 61/91/111 55/75/111 60/92/111
f 55/75/112 54/74/112 60/92/112
f 62/88/108 60/90/110 54/93/113
f 66/94/114 59/95/114 57/96/114
f 66/94/115 57/96/115 55/97/115
f 66/94/116 55/97/116 61/98/116
f 66/94/117 61/98/117 59/95/117
f 67/99/118 68/100/118 69/101/118
f 68/100/119 70/102/119 69/101/119
f 69/101/120 70/102/120 71/103/120
f 70/102/121 72/104/121 71/103/121
f 71/103/122 72/104/122 73/105/122
f 69/101/123 74/106/123 67/99/123
f 74/106/124 73/107/125 67/99/126
f 67/99/126 73/107/125 72/108/127
f 71/109/128 73/110/128 75/111/128
f 73/110/129 74/112/129 75/111/129
f 75/111/130 74/112/130 69/113/130
f 68/114/131 67/115/131 76/116/131
f 67/115/132 72/117/132 76/116/132
f 76/116/133 72/117/133 70/118/133
f 69/113/134 71/109/134 75/111/134
f 70/118/135 68/114/135 76/116/135
f 77/119/136 78/120/136 79/121/136
f 78/120/137 80/122/137 79/121/137
f 79/121/137 80/122/137 81/123/137
f 80/122/138 82/124/139 81/123/140
f 81/123/140 82/124/139 83/125/141
f 82/124/142 77/126/142 83/125/142
f 83/125/142 77/126/142 84/127/143
f 78/120/144 85/128/145 80/122/146
f 85/128/147 86/129/148 80/122/149
f 80/122/149 86/129/148 82/124/150
f 86/129/151 87/130/151 82/124/151
f 82/124/152 87/130/152 77/126/152
f 78/131/153 77/132/154 88/133/155
f 77/132/154 87/134/156 88/133/155
f 88/133/157 87/134/157 86/135/157
f 88/133/158 86/135/158 85/136/158
f 79/121/159 84/137/159 77/119/159
f 85/128/145 78/120/144 88/138/160
f 81/139/161 83/140/161 89/141/161
f 79/142/162 81/139/162 89/141/162
f 84/143/163 79/142/163 89/141/163
f 83/140/164 84/143/164 89/141/164
f 90/144/165 91/145/165 92/146/165
f 91/145/166 93/147/166 92/146/166
f 92/146/167 93/147/167 94/148/167
f 93/147/168 95/149/168 94/148/168
f 94/148/169 95/149/169 96/150/169
f 95/149/170 97/151/170 96/150/170
f 96/150/171 97/151/171 91/152/171
f 92/153/172 94/154/172 98/155/172
f 94/154/173 96/156/173 98/155/173
f 98/155/174 96/156/174 90/157/174
f 93/147/175 91/145/176 95/158/176
f 91/145/176 97/159/177 95/158/176
f 96/150/178 91/152/178 90/160/178
f 98/155/179 90/157/179 92/153/179
f 99/161/180 100/162/180 101/163/180
f 100/162/181 102/164/181 101/163/181
f 101/163/182 102/164/182 103/165/182
f 102/164/183 104/166/183 103/165/183
f 103/165/184 104/166/184 105/167/184
f 100/168/185 105/169/185 106/170/185
f 105/169/186 104/171/186 106/170/186
f 106/170/187 104/171/187 102/172/187
f 99/173/188 107/174/188 105/167/188
f 107/174/189 103/165/189 105/167/189
f 101/175/190 103/176/190 99/177/190
f 103/176/191 107/178/191 99/177/191
f 99/173/192 105/167/192 100/179/192
f 106/170/193 102/172/193 100/168/193
f 108/180/194 109/181/194 110/182/194
f 109/181/195 111/183/195 110/182/195
f 110/182/196 111/183/196 112/184/196
f 111/183/197 113/185/197 112/184/197
f 112/184/198 113/185/199 114/186/200
f 113/185/199 115/187/201 114/186/200
f 114/186/202 115/187/202 108/188/202
f 115/187/203 109/189/203 108/188/203
f 108/188/204 110/182/204 116/190/204
f 110/182/205 112/184/205 116/190/205
f 116/190/206 112/184/206 114/186/206
f 115/191/207 113/185/208 109/192/209
f 113/185/208 111/183/210 109/192/209
f 116/190/211 114/186/211 108/188/211
f 117/193/212 118/194/212 119/195/212
f 118/194/213 120/196/213 119/195/213
f 119/195/214 120/196/214 121/197/214
f 120/196/215 122/198/215 121/197/215
f 121/197/216 122/198/216 123/199/216
f 122/198/217 117/200/217 123/199/217
f 123/199/218 117/200/218 124/201/218
f 124/202/219 119/203/219 125/204/219
f 119/203/220 121/205/220 125/204/220
f 125/204/221 121/205/221 123/206/221
f 122/198/222 120/207/222 117/200/222
f 120/207/222 118/208/222 117/200/222
f 124/209/223 117/193/223 119/195/223
f 123/206/224 124/202/224 125/204/224
f 126/210/225 127/211/225 128/212/225
f 127/211/226 129/213/226 128/212/226
f 128/212/227 129/213/227 130/214/227
f 129/213/228 131/215/228 130/214/228
f 130/214/229 131/215/229 132/216/229
f 129/217/230 127/218/230 133/219/230
f 127/218/231 126/220/231 133/219/231
f 133/219/232 126/220/232 131/221/232
f 132/222/233 126/210/233 134/223/233
f 126/210/234 128/212/234 134/223/234
f 130/224/235 132/225/235 128/226/235
f 132/225/236 134/227/236 128/226/236
f 126/210/237 132/222/237 131/228/237
f 131/221/238 129/217/238 133/219/238
