# Blender v2.82 (sub 7) OBJ File: 'village_e3.blend'
# www.blender.org
mtllib zabor_npc.mtl
v -9.692614 0.311974 1.020327
v -9.682030 0.220857 0.983805
v -9.784410 0.309611 1.000486
v -9.781005 0.209086 0.961112
v -9.835890 0.294040 1.104950
v -9.875046 0.171084 1.260949
v -9.730709 0.292856 1.188530
v -9.743522 0.180925 1.352058
v -9.773360 0.379241 1.098464
v -9.574878 1.151195 1.298193
v -9.782045 1.121499 1.421833
v -9.645165 1.087208 1.492175
v -9.861958 0.938286 1.375303
v -9.663963 0.898112 1.479589
v -9.799580 0.660915 1.221409
v -9.645627 0.633849 1.323675
v -9.649574 0.460322 1.270869
v -9.790668 1.018538 1.184307
v -9.754403 0.711770 1.100377
v -9.728291 0.573216 1.134117
v -9.563114 0.557651 1.039232
v -9.439143 0.887180 1.511647
v -9.459510 0.619810 1.331070
v -9.414333 0.670665 1.210038
v -9.484306 0.543725 1.212794
v -9.439644 1.142068 1.383067
v -9.489344 1.086119 1.516221
v -9.367853 0.967432 1.320652
v -9.732346 1.177448 1.288679
v -9.536771 1.116073 1.400259
v -9.544948 1.353915 1.433887
v -9.521471 1.107700 1.499925
v -9.521204 1.340007 1.534754
v -9.624443 1.104781 1.563678
v -9.622383 1.328709 1.611665
v -9.721335 1.119060 1.543261
v -9.730190 1.333967 1.574780
v -9.629405 1.123733 1.360287
v -9.637165 1.357232 1.384730
v -9.717496 1.118603 1.443292
v -9.738344 1.345935 1.461641
v -9.643274 1.405610 1.515824
v -9.689876 1.070788 1.513402
v -9.772288 0.761310 1.235404
v -9.833135 0.808489 1.096860
v -9.757262 1.003263 1.189927
v -9.944935 0.817782 1.150024
v -9.876862 1.066717 1.288768
v -9.828717 1.004084 1.405203
v -9.876212 0.728544 1.149253
v -9.886703 0.773991 1.282103
v -9.688189 0.913470 1.356812
v -9.759524 1.084306 1.345569
v -9.941545 0.650358 1.463875
v -9.961480 0.831554 1.328076
v -9.943290 0.603870 1.383825
v -9.963799 0.769847 1.221819
v -9.834016 0.611537 1.375663
v -9.840431 0.778759 1.211965
v -9.832047 0.660707 1.460190
v -9.837965 0.844431 1.325048
v -9.936481 0.591560 1.526708
v -9.935028 0.505471 1.474887
v -9.814444 0.513692 1.466232
v -9.815743 0.602451 1.522389
v -9.904667 0.856990 1.243498
v -9.343812 0.952446 1.329800
v -9.295208 1.051150 1.456163
v -9.191401 0.777249 1.461113
v -9.408360 1.023717 1.535170
v -9.319294 0.771806 1.540909
v -9.506017 0.913120 1.443057
v -9.387195 0.737494 1.442704
v -9.253046 0.744390 1.358565
v -9.257668 0.687449 1.446514
v -9.420720 1.076996 1.426650
v -9.461215 0.564058 1.567852
v -9.400971 0.591243 1.655873
v -9.323019 0.773193 1.544139
v -9.325311 0.550953 1.620822
v -9.222642 0.719740 1.497638
v -9.381339 0.521522 1.530849
v -9.285378 0.686757 1.395758
v -9.392155 0.743619 1.445224
v -9.380102 0.452248 1.693759
v -9.442028 0.419640 1.594878
v -9.506596 0.501535 1.607390
v -9.440455 0.531899 1.704319
v -9.292803 0.780900 1.443835
v -9.793860 0.362087 1.491679
v -9.602471 0.333021 1.200891
v -9.869249 0.582135 1.507320
v -9.633977 0.591761 1.194432
v -9.982202 0.560904 1.421453
v -9.726737 0.507822 0.970797
v -9.931114 0.344442 1.395849
v -9.710326 0.372650 0.974152
v -9.950354 0.435612 1.578597
v -9.713689 0.422533 1.081552
v -9.778831 0.498691 1.440393
v -9.728146 0.264864 1.152514
v -9.816930 0.345546 1.564159
v -9.840261 0.314293 1.097425
v -9.984086 0.359046 1.547161
v -9.943924 0.506238 1.426956
v -9.921343 0.475717 1.583255
v -9.805006 0.419670 1.059322
v -9.601300 0.366732 1.220133
v -9.465158 0.435448 1.017092
v -9.303634 0.362807 1.459787
v -9.453897 0.570438 1.031538
v -9.265401 0.575693 1.516997
v -9.579757 0.624938 1.247764
v -9.389795 0.583885 1.587848
v -9.453381 0.365670 1.536706
v -9.313340 0.431991 1.652701
v -9.334918 0.523559 1.424152
v -9.272738 0.423875 1.578871
v -9.387259 0.235096 1.159244
v -9.434811 0.383516 1.600759
v -9.490196 0.181485 1.226525
v -9.495938 0.488170 1.440990
v -9.530991 0.308831 1.116517
v -9.357698 0.531613 1.583218
v -9.440126 0.317726 1.094799
v -9.528393 0.172575 1.086308
v -9.437310 0.273360 1.099021
v -9.428729 0.171461 1.064236
v -9.385095 0.268555 1.204096
v -9.332708 0.158175 1.365345
v -9.489703 0.258723 1.287446
v -9.464790 0.156513 1.455709
v -9.528761 0.265803 1.118786
v -9.456976 0.345512 1.193790
vt 0.333803 0.605495
vt 0.318795 0.569698
vt 0.373500 0.599192
vt 0.370784 0.557406
vt 0.422912 0.608106
vt 0.516686 0.585402
vt 0.448297 0.659398
vt 0.521805 0.662706
vt 0.382693 0.694011
vt 0.389413 0.732210
vt 0.408600 0.651598
vt 0.521213 0.507890
vt 0.371689 0.503990
vt 0.979535 0.975022
vt 0.854474 0.884169
vt 0.954903 0.847184
vt 0.794685 0.788930
vt 0.927493 0.744636
vt 0.766618 0.610001
vt 0.868874 0.584931
vt 0.844022 0.495978
vt 0.760113 0.895498
vt 0.662170 0.785787
vt 0.682636 0.607882
vt 0.713626 0.553428
vt 0.602965 0.497074
vt 0.794685 0.788930
vt 0.766618 0.610001
vt 0.682636 0.607882
vt 0.713626 0.553428
vt 0.668090 0.893378
vt 0.760113 0.895498
vt 0.662170 0.785787
vt 0.871432 0.974583
vt 0.854474 0.884169
vt 0.871432 0.974583
vt 0.668090 0.893378
vt 0.534172 0.019081
vt 0.519668 0.319788
vt 0.660271 0.031712
vt 0.650208 0.325478
vt 0.830992 0.044967
vt 0.810034 0.331100
vt 0.948416 0.073768
vt 0.948832 0.331377
vt 0.660271 0.031712
vt 0.650208 0.325478
vt 0.830992 0.044967
vt 0.810034 0.331100
vt 0.744799 0.473021
vt 0.894215 0.441583
vt 0.576367 0.433602
vt 0.925375 0.018179
vt 0.087701 0.325815
vt 0.183504 0.318873
vt 0.182335 0.461811
vt 0.274996 0.314634
vt 0.299111 0.496595
vt 0.403172 0.494768
vt 0.111378 0.085905
vt 0.069870 0.109801
vt 0.077689 0.074432
vt 0.048020 0.059889
vt 0.090916 0.037601
vt 0.064389 0.019405
vt 0.125993 0.040816
vt 0.073013 0.057478
vt 0.084486 0.115281
vt 0.035378 0.070486
vt 0.512422 0.430607
vt 0.366707 0.313027
vt 0.033478 0.472407
vt 0.454326 0.285404
vt 0.338779 0.141681
vt 0.363315 0.286300
vt 0.270291 0.162081
vt 0.274567 0.313919
vt 0.184487 0.164394
vt 0.181192 0.318266
vt 0.111302 0.144485
vt 0.085925 0.288473
vt 0.343196 0.086301
vt 0.270992 0.074735
vt 0.179580 0.075366
vt 0.104572 0.089176
vt 0.490829 0.018934
vt 0.499521 0.109925
vt 0.417222 0.024823
vt 0.421499 0.117426
vt 0.364577 0.112729
vt 0.456970 0.270387
vt 0.421569 0.127100
vt 0.360791 0.028678
vt 0.066507 0.082095
vt 0.040079 0.106631
vt 0.044215 0.052092
vt 0.091183 0.056298
vt 0.089711 0.110697
vt 0.182978 0.460608
vt 0.301804 0.495981
vt 0.277281 0.310868
vt 0.407625 0.494197
vt 0.370469 0.309307
vt 0.518722 0.428876
vt 0.459570 0.281217
vt 0.184093 0.315327
vt 0.086818 0.322312
vt 0.031678 0.471383
vt 0.090013 0.029223
vt 0.046392 0.051814
vt 0.076637 0.066603
vt 0.068611 0.102570
vt 0.110895 0.078418
vt 0.033610 0.062590
vt 0.083474 0.108218
vt 0.071807 0.049511
vt 0.125683 0.032493
vt 0.062963 0.010719
vt 0.420383 0.126893
vt 0.338209 0.141423
vt 0.362611 0.284776
vt 0.270217 0.161584
vt 0.274597 0.312167
vt 0.185123 0.163879
vt 0.181925 0.316478
vt 0.112613 0.144204
vt 0.087376 0.287001
vt 0.270982 0.074892
vt 0.180326 0.075587
vt 0.105869 0.089283
vt 0.360108 0.029286
vt 0.363793 0.112572
vt 0.416003 0.025393
vt 0.420313 0.117300
vt 0.497621 0.109930
vt 0.489000 0.019622
vt 0.455491 0.268995
vt 0.342589 0.086432
vt 0.046081 0.052506
vt 0.041979 0.106524
vt 0.068189 0.082330
vt 0.092591 0.056677
vt 0.091200 0.110626
vt 0.049617 0.737374
vt 0.029784 0.897680
vt 0.138206 0.729705
vt 0.144023 0.890222
vt 0.200984 0.727696
vt 0.233722 0.931475
vt 0.287722 0.727220
vt 0.293698 0.931422
vt 0.376416 0.879592
vt 0.295391 0.722407
vt 0.283596 0.677399
vt 0.329504 0.693688
vt 0.342884 0.657777
vt 0.357482 0.709079
vt 0.121176 0.986109
vt 0.061411 0.990023
vt 0.360814 0.718810
vt 0.029785 0.556875
vt 0.049987 0.724204
vt 0.105516 0.562591
vt 0.139022 0.729623
vt 0.160307 0.543621
vt 0.201499 0.727603
vt 0.272106 0.680696
vt 0.343895 0.658819
vt 0.352715 0.709323
vt 0.320294 0.695281
vt 0.295904 0.721395
vt 0.285606 0.678085
vt 0.232195 0.495876
vt 0.198000 0.517507
vt 0.032889 0.548696
vt 0.063290 0.501789
vt 0.104383 0.551899
vt 0.108916 0.514698
vt 0.328621 0.634085
vt 0.376316 0.880325
vt 0.294075 0.931699
vt 0.288081 0.728675
vt 0.234393 0.931805
vt 0.201897 0.729201
vt 0.145212 0.890684
vt 0.139480 0.731094
vt 0.031684 0.898309
vt 0.051403 0.738876
vt 0.357491 0.710691
vt 0.342978 0.659686
vt 0.329674 0.695285
vt 0.284084 0.679194
vt 0.295705 0.723890
vt 0.122496 0.986123
vt 0.063076 0.990014
vt 0.360804 0.720314
vt 0.274381 0.682804
vt 0.203403 0.729908
vt 0.161994 0.544908
vt 0.140597 0.731889
vt 0.106915 0.563977
vt 0.051093 0.726490
vt 0.030785 0.558380
vt 0.287903 0.680079
vt 0.298305 0.723717
vt 0.322823 0.697514
vt 0.355415 0.711482
vt 0.346499 0.660811
vt 0.234310 0.497011
vt 0.199787 0.518705
vt 0.033906 0.550109
vt 0.105677 0.553279
vt 0.064417 0.503004
vt 0.110283 0.515882
vt 0.331194 0.635996
vt 0.318913 0.570187
vt 0.373296 0.599491
vt 0.370594 0.557994
vt 0.422517 0.608393
vt 0.515799 0.585809
vt 0.447803 0.659485
vt 0.520787 0.662707
vt 0.382510 0.693812
vt 0.389195 0.731810
vt 0.408211 0.651691
vt 0.371599 0.504790
vt 0.520198 0.508704
vt 0.333808 0.605796
vn 0.1856 0.3841 -0.9045
vn 0.1667 0.3645 -0.9162
vn -0.8966 0.1348 -0.4218
vn -0.9470 -0.0897 -0.3084
vn -0.3935 0.7674 0.5061
vn -0.3943 0.7678 0.5049
vn -0.4003 0.7701 0.4967
vn -0.4011 0.7703 0.4958
vn 0.9395 0.2438 0.2405
vn 0.9844 0.0464 0.1694
vn 0.1055 0.8049 -0.5839
vn -0.7793 0.5489 -0.3022
vn -0.5502 0.4570 0.6989
vn 0.1327 -0.9875 -0.0849
vn 0.1355 -0.9873 -0.0830
vn 0.1334 -0.9875 -0.0845
vn 0.1363 -0.9872 -0.0824
vn 0.7478 0.6192 0.2397
vn 0.0642 0.9406 0.3335
vn -0.4617 -0.0238 0.8867
vn -0.4618 -0.0230 0.8867
vn -0.4616 -0.0232 0.8868
vn -0.4679 -0.0123 0.8837
vn -0.4801 -0.5057 0.7168
vn -0.5471 -0.4532 0.7037
vn -0.5662 -0.2281 0.7920
vn -0.8910 0.4275 -0.1529
vn -0.9349 -0.0135 -0.3546
vn -0.8604 -0.2678 -0.4337
vn -0.7952 -0.6049 -0.0417
vn -0.3467 -0.8115 -0.4704
vn -0.1524 -0.0606 0.9865
vn -0.1434 -0.0515 0.9883
vn -0.1522 -0.0605 0.9865
vn -0.1442 -0.5463 0.8251
vn 0.9382 -0.2399 0.2494
vn 0.8701 -0.4769 0.1244
vn 0.7993 -0.4493 -0.3990
vn 0.3690 -0.8980 -0.2396
vn -0.0726 -0.5105 0.8568
vn -0.0598 -0.2894 0.9554
vn 0.5199 -0.7639 0.3824
vn 0.8826 0.2131 0.4190
vn -0.1479 0.9303 0.3357
vn -0.0396 0.9531 0.3000
vn -0.1526 -0.0612 0.9864
vn 0.1240 0.8974 0.4234
vn -0.8910 0.4275 -0.1530
vn -0.4969 -0.2926 -0.8170
vn 0.9876 0.0547 -0.1470
vn 0.9739 0.0326 -0.2248
vn 0.5248 -0.1268 0.8418
vn 0.6083 -0.1717 0.7750
vn -0.2303 -0.2019 0.9519
vn -0.3266 -0.1503 0.9331
vn 0.4707 0.1073 -0.8757
vn -0.6865 0.0531 -0.7252
vn -0.6057 0.0087 -0.7956
vn -0.9954 -0.0882 -0.0378
vn -0.9965 -0.0508 0.0664
vn 0.3292 0.7702 0.5462
vn -0.1823 0.7471 0.6392
vn 0.4021 0.1417 -0.9046
vn -0.3544 0.8718 -0.3382
vn 0.2090 0.9206 -0.3300
vn -0.8458 -0.5326 -0.0300
vn -0.5782 0.8059 0.1269
vn -0.2482 -0.6214 0.7431
vn 0.4721 0.8815 0.0104
vn 0.8868 -0.1380 -0.4410
vn 0.8888 -0.1374 -0.4371
vn 0.8887 -0.1375 -0.4375
vn -0.3347 0.5092 -0.7929
vn -0.3573 0.5273 -0.7709
vn -0.9178 0.0304 0.3958
vn -0.4282 -0.3225 -0.8442
vn 0.6003 -0.6388 -0.4812
vn 0.0281 -0.9451 0.3255
vn 0.4535 0.2457 0.8567
vn 0.9120 0.3691 -0.1789
vn 0.0897 0.8839 -0.4590
vn -0.0005 -0.4716 0.8818
vn -0.9134 0.0125 0.4069
vn 0.8867 -0.1380 -0.4413
vn 0.2119 -0.6784 0.7035
vn -0.7833 -0.6045 0.1449
vn -0.3797 0.7401 0.5551
vn -0.9961 -0.0650 0.0595
vn -0.0044 -0.6988 -0.7153
vn -0.0047 -0.6989 -0.7152
vn -0.0061 -0.6995 -0.7146
vn -0.0065 -0.6996 -0.7145
vn 0.9995 0.0099 -0.0290
vn 0.9995 0.0101 -0.0289
vn 0.9995 0.0112 -0.0284
vn 0.9995 0.0113 -0.0284
vn -0.9983 -0.0418 0.0414
vn -0.9983 -0.0417 0.0418
vn -0.9982 -0.0416 0.0437
vn -0.9981 -0.0414 0.0458
vn -0.0063 -0.6795 -0.7337
vn -0.0067 -0.6798 -0.7334
vn -0.0066 -0.6797 -0.7334
vn -0.0071 -0.6800 -0.7332
vn 0.9891 0.0889 -0.1177
vn 0.9816 0.1544 -0.1127
vn 0.0962 -0.5121 0.8535
vn 0.0782 -0.5322 0.8430
vn -0.0410 0.7242 0.6884
vn -0.0407 0.7239 0.6887
vn -0.0452 0.7272 0.6849
vn -0.0419 0.5911 0.8055
vn -0.0295 0.5974 0.8014
vn -0.0457 0.7276 0.6845
vn -0.0976 0.3021 -0.9483
vn -0.7436 0.5851 -0.3236
vn -0.0955 0.9691 0.2273
vn 0.6204 0.6722 -0.4039
vn 0.7943 0.2914 -0.5331
vn 0.5240 0.2135 0.8245
vn 0.5125 0.2002 0.8350
vn -0.5598 -0.1795 0.8090
vn -0.6562 -0.4452 0.6093
vn 0.7862 0.2659 -0.5578
vn -0.4903 -0.3257 -0.8084
vn -0.4865 -0.3272 -0.8101
vn -0.4899 -0.3258 -0.8086
vn -0.4863 -0.3274 -0.8101
vn -0.3242 -0.8006 0.5039
vn -0.2919 -0.7958 -0.5306
vn 0.7895 -0.5333 -0.3037
vn 0.2971 0.6937 -0.6561
vn -0.5941 0.2321 -0.7702
vn -0.8265 0.4623 0.3211
vn 0.4804 -0.4744 0.7376
vn 0.0835 0.8982 0.4315
vn -0.7615 0.5433 0.3534
vn 0.5205 0.2737 0.8088
vn 0.7346 -0.6302 -0.2513
vn 0.7352 -0.6303 -0.2492
vn 0.7348 -0.6303 -0.2508
vn 0.7353 -0.6304 -0.2487
vn -0.5349 -0.3265 -0.7793
vn 0.5296 0.2961 0.7949
vn 0.5283 0.2962 0.7957
vn 0.5268 0.2963 0.7967
vn 0.7460 -0.6106 -0.2659
vn 0.7461 -0.6107 -0.2654
vn 0.7461 -0.6107 -0.2653
vn 0.7461 -0.6109 -0.2648
vn -0.4764 -0.2466 -0.8439
vn -0.4914 -0.1819 -0.8517
vn -0.6897 0.6743 0.2638
vn -0.6902 0.6739 0.2637
vn -0.6935 0.6706 0.2634
vn -0.6938 0.6702 0.2635
vn -0.5943 -0.5571 0.5800
vn -0.6187 -0.5440 0.5668
vn -0.7565 0.5415 0.3668
vn 0.5299 0.2962 0.7947
vn 0.7428 0.3500 -0.5707
vn 0.5370 0.8133 0.2242
vn -0.3515 0.9356 -0.0340
vn -0.1762 0.4366 -0.8822
vn 0.8210 0.2446 0.5159
vn 0.7926 0.1115 0.5994
vn -0.1330 0.9887 -0.0696
vn -0.2457 0.9366 -0.2496
vn -0.8677 -0.1487 -0.4744
vn -0.8765 -0.1180 -0.4668
vn -0.1065 -0.9868 -0.1218
vn -0.5554 0.5917 0.5843
vn -0.9728 -0.2311 0.0129
vn -0.1817 -0.8874 0.4236
vn 0.9052 0.0999 -0.4130
vn 0.9052 0.0998 -0.4130
vn 0.9052 0.0998 -0.4131
vn 0.9052 0.0996 -0.4132
vn 0.0399 -0.9913 0.1254
vn 0.5245 0.1198 0.8430
vn 0.9835 -0.0090 0.1805
vn 0.9730 -0.0625 0.2221
vn -0.4354 -0.8965 0.0818
vn -0.0875 -0.9936 0.0709
vn -0.9521 0.0103 -0.3055
vn 0.0296 0.9818 0.1874
vn -0.8868 0.4124 0.2086
vn -0.1171 -0.2355 0.9648
vn 0.0232 0.9750 -0.2208
vn -0.9090 0.1658 -0.3825
vn 0.2464 -0.4165 -0.8751
vn 0.2288 -0.3978 -0.8885
vn 0.0607 0.9786 -0.1967
vn 0.6176 0.3957 0.6797
vn 0.1621 -0.9626 -0.2171
vn 0.9365 -0.0408 -0.3484
vn 0.9302 -0.0702 -0.3604
vn 0.2400 0.9652 -0.1036
vn 0.1014 0.9928 0.0632
vn -0.8718 0.0204 0.4894
vn -0.8937 0.1624 0.4181
vn 0.1571 -0.9271 0.3404
vn 0.9705 -0.2074 0.1232
vn 0.4453 0.5317 0.7204
vn -0.8432 0.1263 -0.5226
vn -0.0168 -0.9998 0.0045
vn -0.6396 0.0062 0.7687
vn 0.9449 0.1114 -0.3080
vn 0.2699 -0.9035 0.3328
vn 0.5917 -0.7427 0.3134
vn -0.9521 -0.1869 0.2418
vn -0.9709 -0.1492 0.1873
vn 0.1202 0.0548 0.9912
vn 0.7842 0.6152 0.0812
vn -0.2220 0.9717 -0.0810
vn -0.1972 0.8584 -0.4735
vn 0.8761 0.2301 -0.4237
vn -0.1274 -0.6714 -0.7300
vn -0.1143 -0.6554 -0.7466
vn -0.2363 0.8610 -0.4504
vn -0.7085 0.4348 0.5559
vn -0.2030 0.3010 -0.9318
vn 0.8777 0.2194 -0.4261
vn 0.9528 0.0089 -0.3034
vn 0.2977 0.8301 0.4715
vn 0.3042 0.8331 0.4619
vn 0.2984 0.8305 0.4703
vn 0.3049 0.8333 0.4610
vn -0.9630 0.1422 0.2290
vn -0.9841 -0.0620 0.1667
vn 0.4892 0.5478 0.6786
vn 0.7123 0.6218 -0.3256
vn -0.1967 0.7600 -0.6194
vn -0.0196 -0.9991 -0.0378
vn -0.0186 -0.9991 -0.0385
vn -0.0161 -0.9991 -0.0402
vn -0.0153 -0.9990 -0.0408
vn -0.2253 0.3197 -0.9203
vn -0.8169 0.5365 0.2117
usemtl pstalker.png
s 1
f 1/1/1 2/2/1 3/3/1
f 2/2/2 4/4/2 3/3/2
f 3/3/3 4/4/3 5/5/3
f 4/4/4 6/6/4 5/5/4
f 5/5/5 6/6/6 7/7/7
f 6/6/6 8/8/8 7/7/7
f 7/7/9 8/8/9 1/9/9
f 8/8/10 2/10/10 1/9/10
f 1/9/11 3/3/11 9/11/11
f 3/3/12 5/5/12 9/11/12
f 9/11/13 5/5/13 7/7/13
f 8/12/14 6/6/15 2/13/16
f 6/6/15 4/4/17 2/13/16
f 9/11/18 7/7/18 1/9/18
f 10/14/19 11/15/19 12/16/19
f 11/15/20 13/17/21 12/16/22
f 12/16/22 13/17/21 14/18/23
f 13/17/24 15/19/24 14/18/24
f 14/18/25 15/19/25 16/20/25
f 15/19/26 17/21/26 16/20/26
f 11/22/27 18/23/27 13/17/27
f 18/23/28 19/24/28 13/17/28
f 13/17/28 19/24/28 15/19/28
f 19/24/29 20/25/29 15/19/29
f 15/19/30 20/25/30 17/21/30
f 20/25/31 21/26/31 17/21/31
f 12/16/32 14/18/33 22/27/34
f 14/18/35 23/28/35 22/27/35
f 22/27/36 23/28/36 24/29/36
f 23/28/37 25/30/37 24/29/37
f 24/29/38 25/30/38 21/26/38
f 25/30/39 17/21/39 21/26/39
f 14/18/40 16/20/40 23/28/40
f 16/20/41 17/21/41 23/28/41
f 23/28/42 17/21/42 25/30/42
f 26/31/43 27/32/43 28/33/43
f 27/32/43 22/27/43 28/33/43
f 28/33/36 22/27/36 24/29/36
f 26/34/44 10/14/44 27/35/44
f 10/14/45 12/16/45 27/35/45
f 27/35/46 12/16/32 22/27/34
f 11/15/47 10/14/47 29/36/47
f 18/23/48 11/22/48 29/37/48
f 20/25/49 19/24/49 21/26/49
f 30/38/50 31/39/50 32/40/50
f 31/39/51 33/41/51 32/40/51
f 32/40/52 33/41/52 34/42/52
f 33/41/53 35/43/53 34/42/53
f 34/42/54 35/43/54 36/44/54
f 35/43/55 37/45/55 36/44/55
f 31/39/56 38/46/56 39/47/56
f 38/46/57 40/48/57 39/47/57
f 39/47/58 40/48/58 41/49/58
f 40/48/59 36/44/59 41/49/59
f 41/49/60 36/44/60 37/45/60
f 33/41/61 42/50/61 35/43/61
f 42/50/62 37/51/62 35/43/62
f 38/46/63 31/39/63 30/38/63
f 41/49/64 42/50/64 39/47/64
f 42/50/65 31/52/65 39/47/65
f 40/48/66 43/53/66 36/44/66
f 37/51/67 42/50/67 41/49/67
f 36/44/68 43/53/68 34/42/68
f 31/52/69 42/50/69 33/41/69
f 44/54/70 45/55/71 46/56/72
f 45/55/73 47/57/73 46/56/73
f 46/56/74 47/57/74 48/58/74
f 47/57/75 49/59/75 48/58/75
f 47/60/76 45/61/76 50/62/76
f 45/61/77 44/63/77 50/62/77
f 50/62/78 44/63/78 51/64/78
f 49/65/79 52/66/79 53/67/79
f 52/66/80 46/68/80 53/67/80
f 53/67/81 46/68/81 48/69/81
f 52/70/82 49/59/82 51/71/82
f 49/59/83 47/57/83 51/71/83
f 44/54/70 46/56/72 52/72/84
f 44/73/85 52/70/85 51/71/85
f 50/62/86 51/64/86 47/60/86
f 53/67/87 48/69/87 49/65/87
f 54/74/88 55/75/88 56/76/88
f 55/75/88 57/77/88 56/76/88
f 56/76/89 57/77/90 58/78/91
f 57/77/90 59/79/92 58/78/91
f 58/78/93 59/79/94 60/80/95
f 59/79/94 61/81/96 60/80/95
f 62/82/97 54/74/98 63/83/99
f 54/74/98 56/76/100 63/83/99
f 63/83/101 56/76/102 64/84/103
f 56/76/102 58/78/104 64/84/103
f 64/84/105 58/78/105 65/85/105
f 58/78/106 60/80/106 65/85/106
f 63/86/107 64/87/107 62/88/107
f 64/87/108 65/89/108 62/88/108
f 62/88/109 65/89/110 60/90/111
f 61/91/112 55/75/112 60/92/112
f 55/75/113 54/74/113 60/92/113
f 62/88/109 60/90/111 54/93/114
f 66/94/115 59/95/115 57/96/115
f 66/94/116 57/96/116 55/97/116
f 66/94/117 55/97/117 61/98/117
f 66/94/118 61/98/118 59/95/118
f 67/99/119 68/100/119 69/101/119
f 68/100/120 70/102/120 69/101/120
f 69/101/121 70/102/121 71/103/121
f 70/102/122 72/104/122 71/103/122
f 71/103/123 72/104/123 73/105/123
f 69/101/124 74/106/124 67/99/124
f 74/106/125 73/107/126 67/99/127
f 67/99/127 73/107/126 72/108/128
f 71/109/129 73/110/129 75/111/129
f 73/110/130 74/112/130 75/111/130
f 75/111/131 74/112/131 69/113/131
f 68/114/132 67/115/132 76/116/132
f 67/115/133 72/117/133 76/116/133
f 76/116/134 72/117/134 70/118/134
f 69/113/135 71/109/135 75/111/135
f 70/118/136 68/114/136 76/116/136
f 77/119/137 78/120/137 79/121/137
f 78/120/138 80/122/138 79/121/138
f 79/121/138 80/122/138 81/123/138
f 80/122/139 82/124/140 81/123/141
f 81/123/141 82/124/140 83/125/142
f 82/124/143 77/126/143 83/125/143
f 83/125/143 77/126/143 84/127/143
f 78/120/144 85/128/145 80/122/146
f 85/128/147 86/129/148 80/122/149
f 80/122/149 86/129/148 82/124/150
f 86/129/151 87/130/151 82/124/151
f 82/124/152 87/130/152 77/126/152
f 78/131/153 77/132/154 88/133/155
f 77/132/154 87/134/156 88/133/155
f 88/133/157 87/134/157 86/135/157
f 88/133/158 86/135/158 85/136/158
f 79/121/159 84/137/159 77/119/159
f 85/128/145 78/120/144 88/138/160
f 81/139/161 83/140/161 89/141/161
f 79/142/162 81/139/162 89/141/162
f 84/143/163 79/142/163 89/141/163
f 83/140/164 84/143/164 89/141/164
f 90/144/165 91/145/165 92/146/165
f 91/145/166 93/147/166 92/146/166
f 92/146/167 93/147/167 94/148/167
f 93/147/168 95/149/168 94/148/168
f 94/148/169 95/149/169 96/150/169
f 95/149/170 97/151/170 96/150/170
f 96/150/171 97/151/171 91/152/171
f 92/153/172 94/154/172 98/155/172
f 94/154/173 96/156/173 98/155/173
f 98/155/174 96/156/174 90/157/174
f 93/147/175 91/145/176 95/158/177
f 91/145/176 97/159/178 95/158/177
f 96/150/179 91/152/179 90/160/179
f 98/155/180 90/157/180 92/153/180
f 99/161/181 100/162/181 101/163/181
f 100/162/182 102/164/182 101/163/182
f 101/163/183 102/164/183 103/165/183
f 102/164/184 104/166/184 103/165/184
f 103/165/185 104/166/185 105/167/185
f 100/168/186 105/169/186 106/170/186
f 105/169/187 104/171/187 106/170/187
f 106/170/188 104/171/188 102/172/188
f 99/173/189 107/174/189 105/167/189
f 107/174/190 103/165/190 105/167/190
f 101/175/191 103/176/191 99/177/191
f 103/176/192 107/178/192 99/177/192
f 99/173/193 105/167/193 100/179/193
f 106/170/194 102/172/194 100/168/194
f 108/180/195 109/181/195 110/182/195
f 109/181/196 111/183/196 110/182/196
f 110/182/197 111/183/197 112/184/197
f 111/183/198 113/185/198 112/184/198
f 112/184/199 113/185/199 114/186/199
f 113/185/200 108/187/200 114/186/200
f 114/186/201 108/187/201 115/188/201
f 115/189/202 110/190/202 116/191/202
f 110/190/203 112/192/203 116/191/203
f 116/191/204 112/192/204 114/193/204
f 113/185/205 111/194/205 108/187/205
f 111/194/205 109/195/205 108/187/205
f 115/196/206 108/180/206 110/182/206
f 114/193/207 115/189/207 116/191/207
f 117/197/208 118/198/208 119/199/208
f 118/198/209 120/200/209 119/199/209
f 119/199/210 120/200/210 121/201/210
f 120/200/211 122/202/211 121/201/211
f 121/201/212 122/202/212 123/203/212
f 120/204/213 118/205/213 124/206/213
f 118/205/214 117/207/214 124/206/214
f 124/206/215 117/207/215 122/208/215
f 123/209/216 117/197/216 125/210/216
f 117/197/217 119/199/217 125/210/217
f 121/211/218 123/212/218 119/213/218
f 123/212/219 125/214/219 119/213/219
f 117/197/220 123/209/220 122/215/220
f 122/208/221 120/204/221 124/206/221
f 126/216/222 127/217/222 128/218/222
f 127/217/223 129/219/223 128/218/223
f 128/218/224 129/219/224 130/220/224
f 129/219/225 131/221/226 130/220/227
f 130/220/227 131/221/226 132/222/228
f 131/221/229 133/223/229 132/222/229
f 132/222/230 133/223/230 126/224/230
f 131/221/231 129/219/231 134/225/231
f 129/219/232 127/217/232 134/225/232
f 134/225/233 127/217/233 133/223/233
f 128/218/234 130/220/235 126/226/236
f 130/220/235 132/227/237 126/226/236
f 127/217/238 126/216/238 133/228/238
f 133/223/239 131/221/239 134/225/239
