# Blender v2.82 (sub 7) OBJ File: ''
# www.blender.org
mtllib l_1_0_village_terrain.mtl
v -8.787080 0.007868 -34.830357
v -8.898654 0.007869 -28.563494
v -1.181304 2.016240 -32.394279
v -4.212458 0.007868 -37.173458
v -12.748034 -0.103708 -38.214832
v -7.652724 1.235205 -41.655098
v 7.484443 0.007868 -37.396614
v 31.789452 1.848876 -32.412888
v 15.313363 0.007864 -60.939186
v 0.008837 2.016237 -48.070728
v 1.422142 2.016241 -27.391949
v -2.947924 0.007870 -25.699707
v -4.584376 0.268213 -31.073959
v -12.171552 0.416983 -21.050699
v -7.485354 0.007870 -23.579760
v -14.179925 0.416983 -24.900076
v -12.896801 0.007869 -31.947971
v -16.504429 0.416982 -28.563492
v -19.145065 0.416982 -32.003754
v -22.827074 0.807500 -19.897741
v -19.907495 0.007872 -13.612285
v -10.497909 0.100852 -17.033957
v -42.129749 0.007872 -12.719669
v -26.806625 0.807499 -25.588123
v -16.578815 -0.271072 -35.016315
v -4.770329 0.007873 -9.483972
v -5.811708 0.175236 -14.151575
v 5.290119 0.007871 -16.773619
v 12.988871 0.305406 -25.588137
v 3.597878 0.007871 -22.166466
v 7.503052 0.007874 -0.000002
v 16.354757 0.602945 -12.980033
v 37.498444 2.853066 -0.000013
v 1.310573 0.007873 -5.206888
v 7.261301 0.007873 -5.653194
v 6.517458 0.305409 -11.250598
v 0.380770 0.007872 -10.357987
v 1.533727 0.007874 -0.000001
v -3.673163 0.175238 -4.779178
v -7.689904 0.007873 -4.332872
v -17.508606 0.007874 0.000006
v -9.196184 0.007872 -12.887044
v -37.499332 0.324007 0.000012
v -18.103680 0.007873 -6.917717
v -38.689484 2.034840 -6.768941
v -1.330066 0.175236 -15.453299
v -1.757777 0.007871 -20.455629
v -6.443975 0.007871 -18.744793
v -3.673159 0.007875 4.779181
v 1.310576 0.007875 5.206887
v 16.354765 0.007876 12.980021
v 7.261305 0.007875 5.653190
v 12.988888 0.007878 25.588129
v 17.507713 1.105040 -0.000006
v 3.597893 0.007878 22.166462
v -1.757763 0.007877 20.455629
v -0.177103 0.007877 15.471894
v 5.290129 1.365387 16.773615
v 6.517466 0.007876 11.250594
v 0.622525 0.007876 10.376583
v -5.012070 0.007876 14.188770
v -4.305422 0.007876 9.521167
v -8.247781 0.007876 8.647156
v -3.468605 0.007874 0.000001
v -9.196177 0.007876 12.887050
v -10.497897 0.416990 17.033964
v -7.689901 0.007875 4.332877
v -7.503942 0.324007 0.000002
v -18.103676 0.695928 6.917728
v -7.652701 0.007879 29.642069
v 1.422160 0.007879 27.391949
v 0.548148 0.714529 33.454254
v -7.652698 1.421179 41.655106
v 0.008868 0.007882 48.070728
v 15.313403 2.499752 60.939178
v 7.484468 0.007880 37.396606
v 31.789474 2.109231 32.412865
v -2.501599 0.007880 38.214836
v -11.483479 0.007880 38.437992
v -6.908858 0.007880 36.113487
v -3.319826 0.007879 32.152531
v -10.999985 0.007880 33.231106
v -15.314262 0.007880 35.220879
v -12.376093 0.733123 26.276190
v -6.443963 0.007877 18.744797
v -14.589019 0.919084 29.697859
v -17.675957 1.848886 33.361275
v -20.781498 0.695931 21.273861
v -12.171538 0.733123 21.050707
v -19.907488 0.249625 13.612298
v -42.129742 2.239400 12.719696
v -38.689476 1.644326 6.768966
v -2.315643 0.007878 25.718306
v -6.853074 0.007878 23.598360
v -8.247787 0.621542 -8.647150
v -24.984198 0.007879 27.038631
vt 0.624973 0.309969
vt 0.624973 0.190031
vt 0.750023 0.309969
vt 0.750023 0.190031
vt 0.249977 0.309969
vt 0.249977 0.190031
vt 0.375027 0.309969
vt 0.375027 0.190031
vt 0.249977 0.309969
vt 0.249977 0.190031
vt 0.375027 0.309969
vt 0.375027 0.190031
vt 0.375027 0.309969
vt 0.249977 0.309969
vt 0.375027 0.250000
vt 0.249977 0.190031
vt 0.375027 0.190031
vt 0.375027 0.309969
vt 0.249977 0.309969
vt 0.375027 0.250000
vt 0.249977 0.190031
vt 0.375027 0.190031
vt 0.375027 0.309969
vt 0.249977 0.309969
vt 0.375027 0.250000
vt 0.249977 0.190031
vt 0.375027 0.190031
vt 0.249977 0.309969
vt 0.249977 0.190031
vt 0.375027 0.309969
vt 0.375027 0.190031
vt 0.249977 0.309969
vt 0.249977 0.190031
vt 0.375027 0.309969
vt 0.375027 0.190031
vt 0.624973 0.309969
vt 0.624973 0.190031
vt 0.750023 0.309969
vt 0.750023 0.190031
vt 0.624973 0.309969
vt 0.624973 0.190031
vt 0.750023 0.309969
vt 0.750023 0.190031
vt 0.249977 0.309969
vt 0.249977 0.190031
vt 0.375027 0.309969
vt 0.375027 0.190031
vt 0.249977 0.309969
vt 0.249977 0.190031
vt 0.375027 0.309969
vt 0.375027 0.190031
vt 0.249977 0.309969
vt 0.249977 0.190031
vt 0.375027 0.309969
vt 0.375027 0.190031
vt 0.249977 0.309969
vt 0.249977 0.190031
vt 0.375027 0.309969
vt 0.375027 0.190031
vt 0.375027 0.190031
vt 0.375027 0.309969
vt 0.249977 0.250000
vt 0.249977 0.309969
vt 0.375027 0.309969
vt 0.249977 0.250000
vt 0.375027 0.190031
vt 0.249977 0.190031
vt 0.375027 0.309969
vt 0.249977 0.250000
vt 0.375027 0.190031
vt 0.249977 0.190031
vt 0.624973 0.309969
vt 0.624973 0.190031
vt 0.750023 0.309969
vt 0.750023 0.190031
vt 0.624973 0.309969
vt 0.624973 0.190031
vt 0.750023 0.309969
vt 0.750023 0.190031
vt 0.249977 0.309969
vt 0.249977 0.190031
vt 0.375027 0.309969
vt 0.375027 0.190031
vt 0.249977 0.309969
vt 0.249977 0.190031
vt 0.375027 0.309969
vt 0.375027 0.190031
vt 0.375027 0.309969
vt 0.249977 0.309969
vt 0.375027 0.250000
vt 0.249977 0.190031
vt 0.375027 0.190031
vt 0.375027 0.309969
vt 0.249977 0.309969
vt 0.375027 0.250000
vt 0.249977 0.190031
vt 0.375027 0.190031
vt 0.375027 0.309969
vt 0.249977 0.309969
vt 0.375027 0.250000
vt 0.249977 0.190031
vt 0.375027 0.190031
vt 0.249977 0.309969
vt 0.249977 0.190031
vt 0.375027 0.309969
vt 0.375027 0.190031
vt 0.249977 0.309969
vt 0.249977 0.190031
vt 0.375027 0.309969
vt 0.375027 0.190031
vt 0.624973 0.309969
vt 0.624973 0.190031
vt 0.750023 0.309969
vt 0.750023 0.190031
vt 0.624973 0.309969
vt 0.624973 0.190031
vt 0.750023 0.309969
vt 0.750023 0.190031
vt 0.249977 0.309969
vt 0.249977 0.190031
vt 0.375027 0.309969
vt 0.375027 0.190031
vt 0.249977 0.309969
vt 0.249977 0.190031
vt 0.375027 0.309969
vt 0.375027 0.190031
vt 0.249977 0.309969
vt 0.249977 0.190031
vt 0.375027 0.309969
vt 0.375027 0.190031
vt 0.249977 0.309969
vt 0.249977 0.190031
vt 0.375027 0.309969
vt 0.375027 0.190031
vt 0.375027 0.190031
vt 0.375027 0.309969
vt 0.249977 0.250000
vt 0.249977 0.309969
vt 0.375027 0.309969
vt 0.249977 0.250000
vt 0.375027 0.190031
vt 0.249977 0.190031
vt 0.375027 0.309969
vt 0.249977 0.250000
vt 0.375027 0.190031
vt 0.249977 0.190031
vt 0.624973 0.309969
vt 0.624973 0.190031
vt 0.750023 0.309969
vt 0.750023 0.190031
vt 0.624973 0.309969
vt 0.624973 0.190031
vt 0.750023 0.309969
vt 0.750023 0.190031
vt 0.249977 0.309969
vt 0.249977 0.190031
vt 0.375027 0.309969
vt 0.375027 0.190031
vt 0.249977 0.309969
vt 0.249977 0.190031
vt 0.375027 0.309969
vt 0.375027 0.190031
vt 0.375027 0.309969
vt 0.249977 0.309969
vt 0.375027 0.250000
vt 0.249977 0.190031
vt 0.375027 0.190031
vt 0.375027 0.309969
vt 0.249977 0.309969
vt 0.375027 0.250000
vt 0.249977 0.190031
vt 0.375027 0.190031
vt 0.375027 0.309969
vt 0.249977 0.309969
vt 0.375027 0.250000
vt 0.249977 0.190031
vt 0.375027 0.190031
vt 0.249977 0.309969
vt 0.249977 0.190031
vt 0.375027 0.309969
vt 0.375027 0.190031
vt 0.249977 0.309969
vt 0.249977 0.190031
vt 0.375027 0.309969
vt 0.375027 0.190031
vt 0.624973 0.309969
vt 0.624973 0.190031
vt 0.750023 0.309969
vt 0.750023 0.190031
vt 0.624973 0.309969
vt 0.624973 0.190031
vt 0.750023 0.309969
vt 0.750023 0.190031
vt 0.249977 0.309969
vt 0.249977 0.190031
vt 0.375027 0.309969
vt 0.375027 0.190031
vt 0.249977 0.309969
vt 0.249977 0.190031
vt 0.375027 0.309969
vt 0.375027 0.190031
vt 0.249977 0.309969
vt 0.249977 0.190031
vt 0.375027 0.309969
vt 0.375027 0.190031
vt 0.249977 0.309969
vt 0.249977 0.190031
vt 0.375027 0.309969
vt 0.375027 0.190031
vt 0.375027 0.190031
vt 0.375027 0.309969
vt 0.249977 0.250000
vt 0.249977 0.309969
vt 0.375027 0.309969
vt 0.249977 0.250000
vt 0.375027 0.190031
vt 0.249977 0.190031
vt 0.375027 0.309969
vt 0.249977 0.250000
vt 0.375027 0.190031
vt 0.249977 0.190031
vt 0.624973 0.309969
vt 0.624973 0.190031
vt 0.750023 0.309969
vt 0.750023 0.190031
vt 0.624973 0.309969
vt 0.624973 0.190031
vt 0.750023 0.309969
vt 0.750023 0.190031
vt 0.249977 0.309969
vt 0.249977 0.190031
vt 0.375027 0.309969
vt 0.375027 0.190031
vt 0.249977 0.309969
vt 0.249977 0.190031
vt 0.375027 0.309969
vt 0.375027 0.190031
vt 0.375027 0.309969
vt 0.249977 0.309969
vt 0.375027 0.250000
vt 0.249977 0.190031
vt 0.375027 0.190031
vt 0.375027 0.309969
vt 0.249977 0.309969
vt 0.375027 0.250000
vt 0.249977 0.190031
vt 0.375027 0.190031
vt 0.375027 0.309969
vt 0.249977 0.309969
vt 0.375027 0.250000
vt 0.249977 0.190031
vt 0.375027 0.190031
vt 0.249977 0.309969
vt 0.249977 0.190031
vt 0.375027 0.309969
vt 0.375027 0.190031
vt 0.249977 0.309969
vt 0.249977 0.190031
vt 0.375027 0.309969
vt 0.375027 0.190031
vt 0.624973 0.309969
vt 0.624973 0.190031
vt 0.750023 0.309969
vt 0.750023 0.190031
vt 0.624973 0.309969
vt 0.624973 0.190031
vt 0.750023 0.309969
vt 0.750023 0.190031
vt 0.249977 0.309969
vt 0.249977 0.190031
vt 0.375027 0.309969
vt 0.375027 0.190031
vt 0.249977 0.309969
vt 0.249977 0.190031
vt 0.375027 0.309969
vt 0.375027 0.190031
vt 0.249977 0.309969
vt 0.249977 0.190031
vt 0.375027 0.309969
vt 0.375027 0.190031
vt 0.249977 0.309969
vt 0.249977 0.190031
vt 0.375027 0.309969
vt 0.375027 0.190031
vt 0.375027 0.190031
vt 0.375027 0.309969
vt 0.249977 0.250000
vt 0.249977 0.309969
vt 0.375027 0.309969
vt 0.249977 0.250000
vt 0.375027 0.190031
vt 0.249977 0.190031
vt 0.375027 0.309969
vt 0.249977 0.250000
vt 0.375027 0.190031
vt 0.249977 0.190031
vt 0.624973 0.309969
vt 0.624973 0.190031
vt 0.750023 0.309969
vt 0.750023 0.190031
vt 0.249977 0.309969
vt 0.249977 0.190031
vt 0.249977 0.309969
vt 0.249977 0.309969
vt 0.249977 0.190031
vt 0.249977 0.309969
vt 0.249977 0.309969
vt 0.249977 0.190031
vt 0.249977 0.309969
vt 0.249977 0.309969
vt 0.249977 0.190031
vt 0.249977 0.309969
vn -0.0609 0.9981 -0.0011
vn -0.0000 1.0000 -0.0000
vn -0.4762 0.8768 -0.0665
vn -0.0225 0.9988 -0.0440
vn 0.0983 0.9765 0.1919
vn -0.1555 0.9764 0.1498
vn -0.0073 0.9235 -0.3835
vn 0.0035 0.9832 0.1826
vn 0.0756 0.9750 0.2090
vn 0.0886 0.9416 0.3250
vn 0.1608 0.9819 -0.0997
vn 0.1747 0.9804 -0.0909
vn -0.0778 0.9969 0.0111
vn -0.0707 0.9972 -0.0235
vn 0.1789 0.9821 0.0595
vn 0.1021 0.9420 0.3196
vn -0.3876 0.9176 0.0880
vn -0.3512 0.9183 0.1828
vn -0.3992 0.9019 0.1652
vn 0.0198 0.9989 0.0424
vn -0.0517 0.9986 0.0147
vn 0.0210 0.9998 -0.0045
vn 0.1053 0.9938 0.0343
vn 0.0755 0.9969 -0.0214
vn 0.0568 0.9979 -0.0296
vn 0.0425 0.9978 -0.0502
vn 0.0708 0.9965 -0.0449
vn 0.0132 0.9943 -0.1062
vn 0.1389 0.9846 -0.1066
vn 0.0477 0.9934 0.1042
vn 0.0162 0.9973 0.0717
vn 0.0315 0.9993 -0.0220
vn 0.0310 0.9992 -0.0238
vn -0.1327 0.9591 -0.2500
vn -0.0328 0.9992 0.0230
vn -0.0127 0.9998 -0.0181
vn -0.0596 0.9980 -0.0192
vn 0.0053 0.9995 0.0311
vn 0.0098 0.9994 0.0337
vn -0.0544 0.9976 -0.0417
vn 0.0298 0.9993 0.0228
vn 0.0238 0.9997 -0.0075
vn -0.0104 0.9994 -0.0325
vn -0.0382 0.9982 -0.0453
vn -0.0502 0.9987 -0.0102
vn -0.0284 0.9996 0.0089
vn -0.1090 0.9940 0.0047
vn -0.0897 0.9955 -0.0305
vn -0.0204 0.9982 0.0558
vn -0.0871 0.9957 -0.0308
vn -0.0975 0.9951 -0.0137
vn -0.0824 0.9966 -0.0015
vn 0.0039 0.9986 0.0526
vn -0.0472 0.9988 0.0085
vn 0.0331 0.9994 -0.0060
vn -0.0058 0.9994 -0.0342
vn 0.0364 0.9988 0.0334
vn 0.0781 0.9964 0.0316
vn -0.0494 0.9963 -0.0706
vn -0.0444 0.9987 -0.0252
vn 0.1989 0.9735 0.1127
vn 0.1730 0.9849 -0.0033
vn -0.0944 0.9880 -0.1219
vn -0.0598 0.9978 -0.0281
vn 0.0286 0.9995 0.0134
vn -0.0315 0.9970 -0.0714
vn -0.0016 0.9997 0.0229
vn 0.0970 0.9689 0.2278
vn 0.0978 0.9949 -0.0263
vn -0.0095 0.9994 -0.0326
vn -0.0127 0.9993 -0.0347
vn -0.0632 0.9949 0.0785
vn -0.1090 0.9940 -0.0047
vn -0.0800 0.9723 0.2196
vn 0.1337 0.9904 0.0357
vn 0.0404 0.9723 -0.2300
vn -0.1013 0.9945 -0.0271
vn -0.1339 0.9910 -0.0008
vn -0.0869 0.9933 0.0762
vn -0.0711 0.9723 0.2225
vn -0.2244 0.9719 -0.0712
vn -0.1708 0.9474 -0.2708
vn 0.0887 0.9957 0.0279
vn 0.0278 0.9956 -0.0895
vn 0.0779 0.9941 0.0759
vn 0.0275 0.9969 0.0739
vn 0.0162 0.9955 -0.0931
vn 0.0421 0.9946 -0.0953
vn -0.0315 0.9970 0.0714
vn 0.0466 0.9819 -0.1833
vn 0.0157 0.9951 -0.0976
vn -0.1343 0.9819 -0.1338
vn 0.1529 0.9839 -0.0926
vn 0.2279 0.9720 -0.0581
vn 0.0127 0.9879 0.1548
vn -0.1017 0.9923 -0.0712
vn -0.1005 0.9924 -0.0716
vn -0.0951 0.9945 -0.0443
vn -0.0097 0.9197 -0.3924
vn -0.0538 0.9922 0.1128
vn -0.1376 0.9826 -0.1247
vn 0.2373 0.8240 0.5145
vn 0.2654 0.9639 -0.0210
vn 0.1302 0.9840 0.1215
vn 0.1304 0.9910 0.0305
vn 0.1389 0.9901 0.0184
vn 0.1327 0.9911 0.0052
vn 0.1300 0.9915 0.0110
vn 0.1133 0.9931 -0.0310
vn -0.0990 0.9940 0.0465
vn -0.0181 0.9654 -0.2602
vn -0.0058 0.9983 -0.0588
vn 0.0094 0.9972 -0.0746
vn 0.0908 0.9948 -0.0470
vn 0.0912 0.9947 -0.0475
vn 0.1305 0.9893 0.0652
vn 0.0347 0.9992 -0.0181
vn 0.0330 0.9992 -0.0209
vn 0.0158 0.9999 -0.0014
vn -0.0361 0.9887 0.1453
vn -0.0834 0.9887 -0.1244
vn 0.0453 0.9959 0.0786
vn 0.0670 0.9976 0.0150
vn 0.0681 0.9976 0.0088
vn 0.0188 0.9911 0.1320
vn 0.0201 0.9989 -0.0413
vn -0.0043 1.0000 -0.0002
usemtl mesh_1_submesh_0_mat_18.001
s off
f 13/1/1 1/2/1 2/3/1
f 1/2/2 17/4/2 2/3/2
f 3/5/3 4/6/3 13/7/3
f 4/6/4 1/8/4 13/7/4
f 4/9/5 6/10/5 1/11/5
f 6/10/6 5/12/6 1/11/6
f 3/13/7 7/14/7 4/15/7
f 7/14/8 10/16/8 4/15/8
f 4/15/9 10/16/9 6/17/9
f 30/18/10 29/19/10 11/20/10
f 29/19/11 7/21/11 11/20/11
f 11/20/12 7/21/12 3/22/12
f 29/23/13 8/24/13 7/25/13
f 8/24/14 9/26/14 7/25/14
f 7/25/15 9/26/15 10/27/15
f 30/28/16 11/29/16 47/30/16
f 11/29/17 12/31/17 47/30/17
f 11/32/18 3/33/18 12/34/18
f 3/33/19 13/35/19 12/34/19
f 12/36/20 13/37/20 15/38/20
f 13/37/21 2/39/21 15/38/21
f 47/40/2 12/41/2 48/42/2
f 12/41/2 15/43/2 48/42/2
f 48/44/22 15/45/22 22/46/22
f 15/45/23 14/47/23 22/46/23
f 15/48/24 2/49/24 14/50/24
f 2/49/25 16/51/25 14/50/25
f 2/52/26 17/53/26 16/54/26
f 17/53/27 18/55/27 16/54/27
f 17/56/28 25/57/28 18/58/28
f 25/57/29 19/59/29 18/58/29
f 20/60/30 21/61/30 14/62/30
f 21/61/31 22/63/31 14/62/31
f 20/64/32 18/65/32 24/66/32
f 18/65/33 19/67/33 24/66/33
f 45/68/34 20/69/34 23/70/34
f 20/69/35 24/71/35 23/70/35
f 1/72/36 5/73/36 17/74/36
f 5/73/37 25/75/37 17/74/37
f 37/76/38 46/77/38 26/78/38
f 46/77/39 27/79/39 26/78/39
f 36/80/40 28/81/40 37/82/40
f 28/81/41 46/83/41 37/82/41
f 28/84/42 30/85/42 46/86/42
f 30/85/43 47/87/43 46/86/43
f 36/88/44 32/89/44 28/90/44
f 32/89/45 29/91/45 28/90/45
f 28/90/46 29/91/46 30/92/46
f 31/93/47 54/94/47 35/95/47
f 54/94/48 32/96/48 35/95/48
f 35/95/49 32/96/49 36/97/49
f 54/98/50 33/99/50 32/100/50
f 33/99/51 8/101/51 32/100/51
f 32/100/52 8/101/52 29/102/52
f 31/103/2 35/104/2 38/105/2
f 35/104/2 34/106/2 38/105/2
f 35/107/53 36/108/53 34/109/53
f 36/108/54 37/110/54 34/109/54
f 34/111/55 37/112/55 39/113/55
f 37/112/56 26/114/56 39/113/56
f 38/115/2 34/116/2 64/117/2
f 34/116/57 39/118/57 64/117/57
f 64/119/58 39/120/58 68/121/58
f 39/120/59 40/122/59 68/121/59
f 39/123/60 26/124/60 40/125/60
f 26/124/61 95/126/61 40/125/61
f 26/127/62 27/128/62 95/129/62
f 27/128/63 42/130/63 95/129/63
f 27/131/64 48/132/64 42/133/64
f 48/132/65 22/134/65 42/133/65
f 44/135/2 41/136/2 40/137/2
f 41/136/66 68/138/66 40/137/66
f 44/139/2 42/140/2 21/141/2
f 42/140/67 22/142/67 21/141/67
f 43/143/68 44/144/68 45/145/68
f 44/144/69 21/146/69 45/145/69
f 46/147/70 47/148/70 27/149/70
f 47/148/71 48/150/71 27/149/71
f 60/151/2 50/152/2 62/153/2
f 50/152/2 49/154/2 62/153/2
f 59/155/2 52/156/2 60/157/2
f 52/156/2 50/158/2 60/157/2
f 52/159/2 31/160/2 50/161/2
f 31/160/2 38/162/2 50/161/2
f 59/163/2 51/164/2 52/165/2
f 51/164/72 54/166/72 52/165/72
f 52/165/73 54/166/73 31/167/73
f 55/168/74 53/169/74 58/170/74
f 53/169/75 51/171/75 58/170/75
f 58/170/76 51/171/76 59/172/76
f 53/173/77 77/174/77 51/175/77
f 77/174/78 33/176/78 51/175/78
f 51/175/79 33/176/79 54/177/79
f 55/178/80 58/179/80 56/180/80
f 58/179/81 57/181/81 56/180/81
f 58/182/82 59/183/82 57/184/82
f 59/183/2 60/185/2 57/184/2
f 57/186/2 60/187/2 61/188/2
f 60/187/2 62/189/2 61/188/2
f 56/190/2 57/191/2 85/192/2
f 57/191/2 61/193/2 85/192/2
f 85/194/83 61/195/83 66/196/83
f 61/195/84 65/197/84 66/196/84
f 61/198/2 62/199/2 65/200/2
f 62/199/2 63/201/2 65/200/2
f 62/202/2 49/203/2 63/204/2
f 49/203/2 67/205/2 63/204/2
f 49/206/2 64/207/2 67/208/2
f 64/207/85 68/209/85 67/208/85
f 69/210/86 90/211/86 65/212/86
f 90/211/87 66/213/87 65/212/87
f 69/214/88 67/215/88 41/216/88
f 67/215/89 68/217/89 41/216/89
f 92/218/90 69/219/90 43/220/90
f 69/219/91 41/221/91 43/220/91
f 50/222/2 38/223/2 49/224/2
f 38/223/2 64/225/2 49/224/2
f 81/226/2 93/227/2 70/228/2
f 93/227/2 94/229/2 70/228/2
f 72/230/92 71/231/92 81/232/92
f 71/231/2 93/233/2 81/232/2
f 71/234/2 55/235/2 93/236/2
f 55/235/2 56/237/2 93/236/2
f 72/238/93 76/239/93 71/240/93
f 76/239/2 53/241/2 71/240/2
f 71/240/2 53/241/2 55/242/2
f 73/243/94 74/244/94 78/245/94
f 74/244/2 76/246/2 78/245/2
f 78/245/95 76/246/95 72/247/95
f 74/248/96 75/249/96 76/250/96
f 75/249/97 77/251/97 76/250/97
f 76/250/98 77/251/98 53/252/98
f 73/253/99 78/254/99 79/255/99
f 78/254/2 80/256/2 79/255/2
f 78/257/100 72/258/100 80/259/100
f 72/258/101 81/260/101 80/259/101
f 80/261/2 81/262/2 82/263/2
f 81/262/2 70/264/2 82/263/2
f 79/265/2 80/266/2 83/267/2
f 80/266/2 82/268/2 83/267/2
f 83/269/102 82/270/102 87/271/102
f 82/270/103 86/272/103 87/271/103
f 82/273/104 70/274/104 86/275/104
f 70/274/105 84/276/105 86/275/105
f 70/277/106 94/278/106 84/279/106
f 94/278/107 89/280/107 84/279/107
f 94/281/108 85/282/108 89/283/108
f 85/282/109 66/284/109 89/283/109
f 88/285/110 96/286/110 86/287/110
f 96/286/111 87/288/111 86/287/111
f 88/289/112 89/290/112 90/291/112
f 89/290/113 66/292/113 90/291/113
f 91/293/114 88/294/114 92/295/114
f 88/294/115 90/296/115 92/295/115
f 93/297/2 56/298/2 94/299/2
f 56/298/2 85/300/2 94/299/2
f 20/69/116 45/68/116 21/301/116
f 20/60/117 14/62/117 16/302/117
f 18/65/118 20/64/118 16/303/118
f 44/144/119 43/143/119 41/304/119
f 44/135/120 40/137/120 95/305/120
f 42/140/121 44/139/121 95/306/121
f 69/219/122 92/218/122 90/307/122
f 69/210/123 65/212/123 63/308/123
f 67/215/124 69/214/124 63/309/124
f 88/294/125 91/293/125 96/310/125
f 88/285/126 86/287/126 84/311/126
f 89/290/127 88/289/127 84/312/127
