# Blender v3.0.0 OBJ File: 'pito_npc_rig.blend'
# www.blender.org
mtllib antigas.mtl
v 0.076085 0.035545 -0.016902
v 0.094618 0.260344 -0.009234
v -0.074474 0.035545 -0.016902
v -0.093006 0.260344 -0.009234
v 0.000805 0.048342 0.045458
v 0.000805 0.262446 0.052646
v 0.000805 -0.002961 0.007278
v 0.083455 0.035545 -0.039351
v 0.094618 0.260344 -0.031683
v -0.081844 0.035545 -0.039351
v -0.093006 0.260344 -0.031683
v 0.000805 0.274409 0.030197
v 0.000805 -0.002961 -0.015172
vt 0.500000 0.083333
vt 0.500000 0.916667
vt 1.000000 0.125000
vt 1.000000 0.916667
vt 0.500000 0.916667
vt 0.500000 0.083333
vt 0.812500 -0.000000
vt 0.437500 0.708333
vt 0.125000 0.458333
vt 0.062500 0.458333
vt 0.375000 0.708333
vt 0.812500 -0.000000
vt 0.500000 0.083333
vt 0.437500 0.750000
vt 0.437500 0.166667
vt 0.312500 0.166667
vt 0.312500 0.750000
vt 0.437500 0.166667
vt 0.437500 0.750000
vt 0.312500 0.750000
vt 0.312500 0.166667
vt 0.500000 0.083333
vt 0.125000 0.958333
vt 0.062500 0.958333
vn 0.4397 -0.7100 0.5500
vn -0.0039 0.4322 0.9018
vn 0.5782 -0.2454 0.7782
vn 0.5500 -0.0280 0.8347
vn 0.0039 0.4322 0.9018
vn -0.4397 -0.7101 0.5500
vn -0.5782 -0.2454 0.7782
vn -0.5500 -0.0280 0.8347
vn -0.4906 -0.5202 0.6990
vn 0.4906 -0.5202 0.6990
vn -0.0000 0.9663 0.2575
vn 0.6453 0.6475 -0.4053
vn 0.0000 -0.9965 0.0840
vn 0.9316 -0.2765 -0.2360
vn -0.6453 0.6475 -0.4053
vn -0.9316 -0.2764 -0.2361
usemtl antigas
s 1
f 1/1/1 2/2/2 5/3/3
f 5/3/3 2/2/2 6/4/4
f 4/5/5 3/6/6 5/3/7
f 4/5/5 5/3/7 6/4/8
f 3/6/6 7/7/9 5/3/7
f 5/3/3 7/7/10 1/1/1
f 6/8/11 2/9/2 9/10/12 12/11/11
f 1/1/1 7/7/13 13/12/13 8/13/14
f 3/14/6 4/15/5 11/16/15 10/17/16
f 2/18/2 1/19/1 8/20/14 9/21/12
f 7/7/13 3/6/6 10/22/16 13/12/13
f 4/23/5 6/8/11 12/11/11 11/24/15
