# Blender v3.2.1 OBJ File: ''
# www.blender.org
mtllib asphalt.mtl
v -19.960421 -0.000004 -0.007468
v -14.960421 -0.000004 -0.007468
v -14.960421 -0.000002 -5.007468
v -19.960421 -0.000002 -5.007468
v -9.960421 -0.000004 -0.007468
v -9.960421 -0.000002 -5.007468
v -4.960421 -0.000004 -0.007468
v -4.960421 -0.000002 -5.007468
v -14.960421 -0.000000 -10.007467
v -19.960421 -0.000000 -10.007467
v -9.960421 -0.000000 -10.007467
v -4.960421 -0.000000 -10.007467
v -14.960421 0.000002 -15.007467
v -19.960421 0.000002 -15.007467
v -9.960421 0.000002 -15.007467
v -4.960421 0.000002 -15.007467
v -14.960421 0.000004 -20.007467
v -19.960421 0.000004 -20.007467
v -9.960421 0.000004 -20.007467
v -4.960421 0.000004 -20.007467
v -19.960421 -0.000010 19.992533
v -14.960421 -0.000010 19.992533
v -14.960421 -0.000008 14.992533
v -19.960421 -0.000008 14.992533
v -9.960421 -0.000010 19.992533
v -9.960421 -0.000008 14.992533
v -4.960421 -0.000010 19.992533
v -4.960421 -0.000008 14.992533
v -14.960421 -0.000007 9.992533
v -19.960421 -0.000007 9.992533
v -9.960421 -0.000007 9.992533
v -4.960421 -0.000007 9.992533
v -14.960421 -0.000006 4.992532
v -19.960421 -0.000006 4.992532
v -9.960421 -0.000006 4.992532
v -4.960421 -0.000006 4.992532
v -14.960421 -0.000004 -0.007468
v -19.960421 -0.000004 -0.007468
v -9.960421 -0.000004 -0.007468
v -4.960421 -0.000004 -0.007468
v 0.039579 -0.000004 -0.007468
v 5.039579 -0.000004 -0.007468
v 5.039579 -0.000002 -5.007468
v 0.039579 -0.000002 -5.007468
v 10.039579 -0.000004 -0.007468
v 10.039579 -0.000002 -5.007468
v 15.039579 -0.000004 -0.007468
v 15.039579 -0.000002 -5.007468
v 20.039579 -0.000004 -0.007468
v 20.039579 -0.000002 -5.007468
v 5.039579 -0.000000 -10.007467
v 0.039579 -0.000000 -10.007467
v 10.039579 -0.000000 -10.007467
v 15.039579 -0.000000 -10.007467
v 20.039579 -0.000000 -10.007467
v 5.039579 0.000002 -15.007467
v 0.039579 0.000002 -15.007467
v 10.039579 0.000002 -15.007467
v 15.039579 0.000002 -15.007467
v 20.039579 0.000002 -15.007467
v 5.039579 0.000004 -20.007467
v 0.039579 0.000004 -20.007467
v 10.039579 0.000004 -20.007467
v 15.039579 0.000004 -20.007467
v 20.039579 0.000004 -20.007467
v 0.039579 -0.000010 19.992533
v 5.039579 -0.000010 19.992533
v 5.039579 -0.000008 14.992533
v 0.039579 -0.000008 14.992533
v 10.039579 -0.000010 19.992533
v 10.039579 -0.000008 14.992533
v 15.039579 -0.000010 19.992533
v 15.039579 -0.000008 14.992533
v 20.039579 -0.000010 19.992533
v 20.039579 -0.000008 14.992533
v 5.039579 -0.000007 9.992533
v 0.039579 -0.000007 9.992533
v 10.039579 -0.000007 9.992533
v 15.039579 -0.000007 9.992533
v 20.039579 -0.000007 9.992533
v 5.039579 -0.000006 4.992532
v 0.039579 -0.000006 4.992532
v 10.039579 -0.000006 4.992532
v 15.039579 -0.000006 4.992532
v 20.039579 -0.000006 4.992532
v 5.039579 -0.000004 -0.007468
v 10.039579 -0.000004 -0.007468
v 15.039579 -0.000004 -0.007468
v 20.039579 -0.000004 -0.007468
vt 0.005000 0.190000
vt 0.245000 0.190000
vt 0.245000 0.435000
vt 0.005000 0.435000
vt 0.005000 0.190000
vt 0.245000 0.190000
vt 0.245000 0.435000
vt 0.005000 0.435000
vt 0.005000 0.190000
vt 0.245000 0.190000
vt 0.245000 0.435000
vt 0.005000 0.435000
vt 0.005000 0.190000
vt 0.245000 0.190000
vt 0.245000 0.435000
vt 0.005000 0.435000
vt 0.005000 0.190000
vt 0.245000 0.190000
vt 0.245000 0.435000
vt 0.005000 0.435000
vt 0.005000 0.190000
vt 0.245000 0.190000
vt 0.245000 0.435000
vt 0.005000 0.435000
vt 0.005000 0.190000
vt 0.245000 0.190000
vt 0.245000 0.435000
vt 0.005000 0.435000
vt 0.005000 0.190000
vt 0.245000 0.190000
vt 0.245000 0.435000
vt 0.005000 0.435000
vt 0.005000 0.190000
vt 0.245000 0.190000
vt 0.245000 0.435000
vt 0.005000 0.435000
vt 0.005000 0.190000
vt 0.245000 0.190000
vt 0.245000 0.435000
vt 0.005000 0.435000
vt 0.005000 0.190000
vt 0.245000 0.190000
vt 0.245000 0.435000
vt 0.005000 0.435000
vt 0.005000 0.190000
vt 0.245000 0.190000
vt 0.245000 0.435000
vt 0.005000 0.435000
vt 0.005000 0.190000
vt 0.245000 0.190000
vt 0.245000 0.435000
vt 0.005000 0.435000
vt 0.005000 0.190000
vt 0.245000 0.190000
vt 0.245000 0.435000
vt 0.005000 0.435000
vt 0.005000 0.190000
vt 0.245000 0.190000
vt 0.245000 0.435000
vt 0.005000 0.435000
vt 0.005000 0.190000
vt 0.245000 0.190000
vt 0.245000 0.435000
vt 0.005000 0.435000
vt 0.005000 0.190000
vt 0.245000 0.190000
vt 0.245000 0.435000
vt 0.005000 0.435000
vt 0.005000 0.190000
vt 0.245000 0.190000
vt 0.245000 0.435000
vt 0.005000 0.435000
vt 0.005000 0.190000
vt 0.245000 0.190000
vt 0.245000 0.435000
vt 0.005000 0.435000
vt 0.005000 0.190000
vt 0.245000 0.190000
vt 0.245000 0.435000
vt 0.005000 0.435000
vt 0.005000 0.190000
vt 0.245000 0.190000
vt 0.245000 0.435000
vt 0.005000 0.435000
vt 0.005000 0.190000
vt 0.245000 0.190000
vt 0.245000 0.435000
vt 0.005000 0.435000
vt 0.005000 0.190000
vt 0.245000 0.190000
vt 0.245000 0.435000
vt 0.005000 0.435000
vt 0.005000 0.190000
vt 0.245000 0.190000
vt 0.245000 0.435000
vt 0.005000 0.435000
vt 0.005000 0.190000
vt 0.245000 0.190000
vt 0.245000 0.435000
vt 0.005000 0.435000
vt 0.005000 0.190000
vt 0.245000 0.190000
vt 0.245000 0.435000
vt 0.005000 0.435000
vt 0.005000 0.190000
vt 0.245000 0.190000
vt 0.245000 0.435000
vt 0.005000 0.435000
vt 0.005000 0.190000
vt 0.245000 0.190000
vt 0.245000 0.435000
vt 0.005000 0.435000
vt 0.005000 0.190000
vt 0.245000 0.190000
vt 0.245000 0.435000
vt 0.005000 0.435000
vt 0.005000 0.190000
vt 0.245000 0.190000
vt 0.245000 0.435000
vt 0.005000 0.435000
vt 0.005000 0.190000
vt 0.245000 0.190000
vt 0.245000 0.435000
vt 0.005000 0.435000
vt 0.005000 0.190000
vt 0.245000 0.190000
vt 0.245000 0.435000
vt 0.005000 0.435000
vt 0.005000 0.190000
vt 0.245000 0.190000
vt 0.245000 0.435000
vt 0.005000 0.435000
vt 0.005000 0.190000
vt 0.245000 0.190000
vt 0.245000 0.435000
vt 0.005000 0.435000
vt 0.005000 0.190000
vt 0.245000 0.190000
vt 0.245000 0.435000
vt 0.005000 0.435000
vt 0.005000 0.190000
vt 0.245000 0.190000
vt 0.245000 0.435000
vt 0.005000 0.435000
vt 0.005000 0.190000
vt 0.245000 0.190000
vt 0.245000 0.435000
vt 0.005000 0.435000
vt 0.005000 0.190000
vt 0.245000 0.190000
vt 0.245000 0.435000
vt 0.005000 0.435000
vt 0.005000 0.190000
vt 0.245000 0.190000
vt 0.245000 0.435000
vt 0.005000 0.435000
vt 0.005000 0.190000
vt 0.245000 0.190000
vt 0.245000 0.435000
vt 0.005000 0.435000
vt 0.005000 0.190000
vt 0.245000 0.190000
vt 0.245000 0.435000
vt 0.005000 0.435000
vt 0.005000 0.190000
vt 0.245000 0.190000
vt 0.245000 0.435000
vt 0.005000 0.435000
vt 0.005000 0.190000
vt 0.245000 0.190000
vt 0.245000 0.435000
vt 0.005000 0.435000
vt 0.005000 0.190000
vt 0.245000 0.190000
vt 0.245000 0.435000
vt 0.005000 0.435000
vt 0.005000 0.190000
vt 0.245000 0.190000
vt 0.245000 0.435000
vt 0.005000 0.435000
vt 0.005000 0.190000
vt 0.245000 0.190000
vt 0.245000 0.435000
vt 0.005000 0.435000
vt 0.005000 0.190000
vt 0.245000 0.190000
vt 0.245000 0.435000
vt 0.005000 0.435000
vt 0.005000 0.190000
vt 0.245000 0.190000
vt 0.245000 0.435000
vt 0.005000 0.435000
vt 0.005000 0.190000
vt 0.245000 0.190000
vt 0.245000 0.435000
vt 0.005000 0.435000
vt 0.005000 0.190000
vt 0.245000 0.190000
vt 0.245000 0.435000
vt 0.005000 0.435000
vt 0.005000 0.190000
vt 0.245000 0.190000
vt 0.245000 0.435000
vt 0.005000 0.435000
vt 0.005000 0.190000
vt 0.245000 0.190000
vt 0.245000 0.435000
vt 0.005000 0.435000
vt 0.005000 0.190000
vt 0.245000 0.190000
vt 0.245000 0.435000
vt 0.005000 0.435000
vt 0.005000 0.190000
vt 0.245000 0.190000
vt 0.245000 0.435000
vt 0.005000 0.435000
vt 0.005000 0.190000
vt 0.245000 0.190000
vt 0.245000 0.435000
vt 0.005000 0.435000
vt 0.005000 0.190000
vt 0.245000 0.190000
vt 0.245000 0.435000
vt 0.005000 0.435000
vt 0.005000 0.190000
vt 0.245000 0.190000
vt 0.245000 0.435000
vt 0.005000 0.435000
vt 0.005000 0.190000
vt 0.245000 0.190000
vt 0.245000 0.435000
vt 0.005000 0.435000
vt 0.005000 0.190000
vt 0.245000 0.190000
vt 0.245000 0.435000
vt 0.005000 0.435000
vt 0.005000 0.190000
vt 0.245000 0.190000
vt 0.245000 0.435000
vt 0.005000 0.435000
vt 0.005000 0.190000
vt 0.245000 0.190000
vt 0.245000 0.435000
vt 0.005000 0.435000
vt 0.005000 0.190000
vt 0.245000 0.190000
vt 0.245000 0.435000
vt 0.005000 0.435000
vt 0.005000 0.190000
vt 0.245000 0.190000
vt 0.245000 0.435000
vt 0.005000 0.435000
vt 0.005000 0.190000
vt 0.245000 0.190000
vt 0.245000 0.435000
vt 0.005000 0.435000
vn 0.0000 1.0000 0.0000
usemtl texobj2
s 1
f 1/1/1 2/2/1 3/3/1
f 3/3/1 4/4/1 1/1/1
f 2/5/1 5/6/1 6/7/1
f 6/7/1 3/8/1 2/5/1
f 5/9/1 7/10/1 8/11/1
f 8/11/1 6/12/1 5/9/1
f 7/13/1 41/14/1 44/15/1
f 44/15/1 8/16/1 7/13/1
f 4/17/1 3/18/1 9/19/1
f 9/19/1 10/20/1 4/17/1
f 3/21/1 6/22/1 11/23/1
f 11/23/1 9/24/1 3/21/1
f 6/25/1 8/26/1 12/27/1
f 12/27/1 11/28/1 6/25/1
f 8/29/1 44/30/1 52/31/1
f 52/31/1 12/32/1 8/29/1
f 10/33/1 9/34/1 13/35/1
f 13/35/1 14/36/1 10/33/1
f 9/37/1 11/38/1 15/39/1
f 15/39/1 13/40/1 9/37/1
f 11/41/1 12/42/1 16/43/1
f 16/43/1 15/44/1 11/41/1
f 12/45/1 52/46/1 57/47/1
f 57/47/1 16/48/1 12/45/1
f 14/49/1 13/50/1 17/51/1
f 17/51/1 18/52/1 14/49/1
f 13/53/1 15/54/1 19/55/1
f 19/55/1 17/56/1 13/53/1
f 15/57/1 16/58/1 20/59/1
f 20/59/1 19/60/1 15/57/1
f 16/61/1 57/62/1 62/63/1
f 62/63/1 20/64/1 16/61/1
f 21/65/1 22/66/1 23/67/1
f 23/67/1 24/68/1 21/65/1
f 22/69/1 25/70/1 26/71/1
f 26/71/1 23/72/1 22/69/1
f 25/73/1 27/74/1 28/75/1
f 28/75/1 26/76/1 25/73/1
f 27/77/1 66/78/1 69/79/1
f 69/79/1 28/80/1 27/77/1
f 24/81/1 23/82/1 29/83/1
f 29/83/1 30/84/1 24/81/1
f 23/85/1 26/86/1 31/87/1
f 31/87/1 29/88/1 23/85/1
f 26/89/1 28/90/1 32/91/1
f 32/91/1 31/92/1 26/89/1
f 28/93/1 69/94/1 77/95/1
f 77/95/1 32/96/1 28/93/1
f 30/97/1 29/98/1 33/99/1
f 33/99/1 34/100/1 30/97/1
f 29/101/1 31/102/1 35/103/1
f 35/103/1 33/104/1 29/101/1
f 31/105/1 32/106/1 36/107/1
f 36/107/1 35/108/1 31/105/1
f 32/109/1 77/110/1 82/111/1
f 82/111/1 36/112/1 32/109/1
f 34/113/1 33/114/1 37/115/1
f 37/115/1 38/116/1 34/113/1
f 33/117/1 35/118/1 39/119/1
f 39/119/1 37/120/1 33/117/1
f 35/121/1 36/122/1 40/123/1
f 40/123/1 39/124/1 35/121/1
f 36/125/1 82/126/1 41/127/1
f 41/127/1 40/128/1 36/125/1
f 41/129/1 42/130/1 43/131/1
f 43/131/1 44/132/1 41/129/1
f 42/133/1 45/134/1 46/135/1
f 46/135/1 43/136/1 42/133/1
f 45/137/1 47/138/1 48/139/1
f 48/139/1 46/140/1 45/137/1
f 47/141/1 49/142/1 50/143/1
f 50/143/1 48/144/1 47/141/1
f 44/145/1 43/146/1 51/147/1
f 51/147/1 52/148/1 44/145/1
f 43/149/1 46/150/1 53/151/1
f 53/151/1 51/152/1 43/149/1
f 46/153/1 48/154/1 54/155/1
f 54/155/1 53/156/1 46/153/1
f 48/157/1 50/158/1 55/159/1
f 55/159/1 54/160/1 48/157/1
f 52/161/1 51/162/1 56/163/1
f 56/163/1 57/164/1 52/161/1
f 51/165/1 53/166/1 58/167/1
f 58/167/1 56/168/1 51/165/1
f 53/169/1 54/170/1 59/171/1
f 59/171/1 58/172/1 53/169/1
f 54/173/1 55/174/1 60/175/1
f 60/175/1 59/176/1 54/173/1
f 57/177/1 56/178/1 61/179/1
f 61/179/1 62/180/1 57/177/1
f 56/181/1 58/182/1 63/183/1
f 63/183/1 61/184/1 56/181/1
f 58/185/1 59/186/1 64/187/1
f 64/187/1 63/188/1 58/185/1
f 59/189/1 60/190/1 65/191/1
f 65/191/1 64/192/1 59/189/1
f 66/193/1 67/194/1 68/195/1
f 68/195/1 69/196/1 66/193/1
f 67/197/1 70/198/1 71/199/1
f 71/199/1 68/200/1 67/197/1
f 70/201/1 72/202/1 73/203/1
f 73/203/1 71/204/1 70/201/1
f 72/205/1 74/206/1 75/207/1
f 75/207/1 73/208/1 72/205/1
f 69/209/1 68/210/1 76/211/1
f 76/211/1 77/212/1 69/209/1
f 68/213/1 71/214/1 78/215/1
f 78/215/1 76/216/1 68/213/1
f 71/217/1 73/218/1 79/219/1
f 79/219/1 78/220/1 71/217/1
f 73/221/1 75/222/1 80/223/1
f 80/223/1 79/224/1 73/221/1
f 77/225/1 76/226/1 81/227/1
f 81/227/1 82/228/1 77/225/1
f 76/229/1 78/230/1 83/231/1
f 83/231/1 81/232/1 76/229/1
f 78/233/1 79/234/1 84/235/1
f 84/235/1 83/236/1 78/233/1
f 79/237/1 80/238/1 85/239/1
f 85/239/1 84/240/1 79/237/1
f 82/241/1 81/242/1 86/243/1
f 86/243/1 41/244/1 82/241/1
f 81/245/1 83/246/1 87/247/1
f 87/247/1 86/248/1 81/245/1
f 83/249/1 84/250/1 88/251/1
f 88/251/1 87/252/1 83/249/1
f 84/253/1 85/254/1 89/255/1
f 89/255/1 88/256/1 84/253/1
