# Blender v2.82 (sub 7) OBJ File: ''
# www.blender.org
mtllib barrel_2.mtl
v 0.400000 0.000000 0.000000
v 0.300000 1.100000 -0.300000
v 0.300000 0.000000 -0.300000
v 0.000000 0.000000 -0.400000
v -0.400000 1.100000 0.000000
v -0.300000 1.100000 -0.300000
v -0.300000 0.000000 -0.300000
v -0.300000 1.100000 0.300000
v -0.400000 0.000000 0.000000
v -0.300000 -0.000000 0.300000
v 0.000000 -0.000000 0.400000
v 0.300000 -0.000000 0.300000
v 0.000000 1.100000 0.400000
v 0.000000 1.100000 -0.400000
v 0.300000 1.100000 0.300000
v 0.400000 1.100000 0.000000
vt 0.220000 0.000000
vt 0.250000 0.000000
vt 0.250000 0.125000
vt 0.220000 0.125000
vt 0.125000 0.000000
vt 0.155000 0.000000
vt 0.155000 0.125000
vt 0.125000 0.125000
vt 0.190000 0.000000
vt 0.190000 0.125000
vt 0.220000 0.000000
vt 0.220000 0.125000
vt 0.250000 0.000000
vt 0.250000 0.125000
vt 0.125000 0.000000
vt 0.155000 0.000000
vt 0.155000 0.125000
vt 0.125000 0.125000
vt 0.190000 0.000000
vt 0.190000 0.125000
vt 0.250000 0.185000
vt 0.230000 0.230000
vt 0.190000 0.250000
vt 0.145000 0.230000
vt 0.125000 0.185000
vt 0.145000 0.145000
vt 0.190000 0.125000
vt 0.230000 0.145000
vn 0.9487 0.0000 -0.3162
vn 0.3162 0.0000 -0.9487
vn -0.3162 0.0000 -0.9487
vn -0.9487 0.0000 -0.3162
vn -0.9487 -0.0000 0.3162
vn -0.3162 -0.0000 0.9487
vn 0.3162 -0.0000 0.9487
vn 0.9487 -0.0000 0.3162
vn 0.0000 1.0000 0.0000
usemtl texobj1.png.001
s off
f 1/1/1 3/2/1 2/3/1
f 2/3/1 16/4/1 1/1/1
f 3/5/2 4/6/2 14/7/2
f 14/7/2 2/8/2 3/5/2
f 4/6/3 7/9/3 6/10/3
f 6/10/3 14/7/3 4/6/3
f 7/9/4 9/11/4 5/12/4
f 5/12/4 6/10/4 7/9/4
f 9/11/5 10/13/5 8/14/5
f 8/14/5 5/12/5 9/11/5
f 10/15/6 11/16/6 13/17/6
f 13/17/6 8/18/6 10/15/6
f 11/16/7 12/19/7 15/20/7
f 15/20/7 13/17/7 11/16/7
f 12/19/8 1/1/8 16/4/8
f 16/4/8 15/20/8 12/19/8
f 16/21/9 2/22/9 14/23/9
f 14/23/9 6/24/9 5/25/9
f 5/25/9 8/26/9 13/27/9
f 14/23/9 5/25/9 13/27/9
f 16/21/9 14/23/9 13/27/9
f 15/28/9 16/21/9 13/27/9
