# Blender v3.2.1 OBJ File: ''
# www.blender.org
mtllib border_line.mtl
v 9.517458 -0.000005 -0.043473
v 9.517458 0.198832 -0.043472
v 9.517458 0.199995 0.156526
v -6.834776 0.190140 -0.043473
v -6.832104 -0.000003 -0.043473
v -6.830464 0.199997 0.156527
v -6.834913 0.199940 -0.043473
v -6.830650 0.199948 0.147990
vt -8.875000 0.000000
vt 7.997368 0.000000
vt 8.000126 0.475356
vt -8.875000 0.500000
vt 8.000267 0.500000
vt 7.997643 0.978657
vt 7.997451 1.000000
vt -8.875000 1.000000
vn 0.0000 0.0000 -1.0000
vn 0.0001 1.0000 -0.0000
vn 0.0000 1.0000 -0.0058
usemtl texw1.png
s 1
f 1/1/1 5/2/1 4/3/1
f 2/4/2 7/5/2 8/6/2
f 8/6/3 6/7/3 3/8/3 2/4/3
f 4/3/1 7/5/1 2/4/1 1/1/1
