# Blender v3.2.1 OBJ File: ''
# www.blender.org
mtllib border_line_s.mtl
v -0.989599 0.000026 0.161804
v -0.989599 0.210553 0.161804
v -0.989599 0.000026 -0.046821
v -0.989599 0.210553 -0.046821
v 0.989599 0.000026 0.161804
v 0.989599 0.210553 0.161804
v 0.989599 0.000026 -0.046821
v 0.989599 0.210553 -0.046821
vt 0.000000 0.000000
vt 0.000000 1.000000
vt 0.500000 1.000000
vt 0.500000 0.000000
vt -1.062500 0.000000
vt -1.062500 1.000000
vt 1.937500 1.000000
vt 1.937500 -0.000000
vt 0.500000 0.000000
vt 0.500000 1.000000
vt 0.000000 1.000000
vt 0.000000 0.000000
vt 1.937500 -0.000000
vt 1.937500 1.000000
vt -1.062500 1.000000
vt -1.062500 0.000000
vt -1.062500 0.000000
vt 1.937500 -0.000000
vn -1.0000 0.0000 0.0000
vn 0.0000 0.0000 -1.0000
vn 1.0000 0.0000 0.0000
vn 0.0000 0.0000 1.0000
vn 0.0000 1.0000 0.0000
usemtl texw1.png
s off
f 1/1/1 2/2/1 4/3/1 3/4/1
f 3/5/2 4/6/2 8/7/2 7/8/2
f 7/9/3 8/10/3 6/11/3 5/12/3
f 5/13/4 6/14/4 2/15/4 1/16/4
f 8/7/5 4/6/5 2/17/5 6/18/5
