# Blender v3.2.1 OBJ File: ''
# www.blender.org
mtllib column.mtl
o storage_room_column_Storage2_00
v 0.300784 5.000000 0.302610
v -0.299216 5.000000 0.302610
v -0.299216 -0.000000 0.302609
v 0.300784 5.000000 -0.297390
v 0.300784 -0.000000 0.302609
v 0.300784 -0.000000 -0.297390
v -0.299216 5.000000 -0.297390
v -0.299216 -0.000000 -0.297390
vt 1.000000 0.750000
vt 0.940000 0.750000
vt 0.940000 0.500000
vt 1.000000 0.500000
vt 1.000000 0.750000
vt 0.940000 0.750000
vt 0.940000 0.500000
vt 1.000000 0.500000
vt 1.000000 0.750000
vt 0.940000 0.750000
vt 0.940000 0.500000
vt 1.000000 0.500000
vt 1.000000 0.750000
vt 0.940000 0.750000
vt 0.940000 0.500000
vt 1.000000 0.500000
vn 0.0000 -0.0000 1.0000
vn 1.0000 -0.0000 0.0000
vn 0.0000 0.0000 -1.0000
vn -1.0000 -0.0000 0.0000
usemtl texobj2.png
s off
f 1/1/1 2/2/1 3/3/1
f 3/3/1 5/4/1 1/1/1
f 4/5/2 1/6/2 5/7/2
f 5/7/2 6/8/2 4/5/2
f 7/9/3 4/10/3 6/11/3
f 6/11/3 8/12/3 7/9/3
f 2/13/4 7/14/4 8/15/4
f 8/15/4 3/16/4 2/13/4
