# Blender v2.82 (sub 7) OBJ File: ''
# www.blender.org
mtllib concrete_block.mtl
v 0.800000 1.100000 -0.200000
v 1.000000 -0.000000 0.400000
v 0.800000 1.100000 0.200000
v -0.800000 1.100000 -0.200000
v 1.000000 0.000000 -0.400000
v -1.000000 0.000000 -0.400000
v -1.000000 -0.000000 0.400000
v -0.800000 1.100000 0.200000
vt 0.500000 0.090000
vt 0.255000 0.090000
vt 0.255000 0.125000
vt 0.500000 0.125000
vt 0.250000 0.000000
vt 0.495000 0.000000
vt 0.470000 0.125000
vt 0.275000 0.125000
vt 0.460000 0.000000
vt 0.335000 0.000000
vt 0.365000 0.125000
vt 0.425000 0.125000
vt 0.495000 0.000000
vt 0.250000 0.000000
vt 0.275000 0.125000
vt 0.470000 0.125000
vt 0.335000 0.000000
vt 0.460000 0.000000
vt 0.425000 0.125000
vt 0.365000 0.125000
vn 0.0000 1.0000 0.0000
vn 0.0000 0.1789 0.9839
vn 0.9839 0.1789 0.0000
vn 0.0000 0.1789 -0.9839
vn -0.9839 0.1789 0.0000
usemtl texobj1.png.005
s off
f 8/1/1 3/2/1 1/3/1
f 1/3/1 4/4/1 8/1/1
f 7/5/2 2/6/2 3/7/2
f 3/7/2 8/8/2 7/5/2
f 2/9/3 5/10/3 1/11/3
f 1/11/3 3/12/3 2/9/3
f 5/13/4 6/14/4 4/15/4
f 4/15/4 1/16/4 5/13/4
f 6/17/5 7/18/5 8/19/5
f 8/19/5 4/20/5 6/17/5
