# Blender v2.82 (sub 7) OBJ File: ''
# www.blender.org
mtllib concrete_slabs.mtl
v -2.200000 0.400000 0.800000
v -2.200000 0.400000 -1.200000
v -2.200000 0.000000 -1.200000
v 2.600000 0.400000 0.900000
v -2.200000 -0.000000 0.800000
v 2.600000 -0.000000 0.900000
v 2.600000 0.000000 -1.200000
v 2.600000 0.400000 -1.200000
v -2.200000 0.800000 1.000000
v 2.600000 0.800000 1.300000
v -2.100000 0.800000 -1.100000
v -2.100000 0.400000 -1.100000
v -2.200000 0.400000 1.000000
v 2.600000 0.400000 1.300000
v 2.700000 0.400000 -0.800000
v 2.700000 0.800000 -0.800000
v 2.600000 1.200000 1.000000
v 2.700000 1.200000 -1.100000
v -2.100000 1.200000 -1.400000
v -2.200000 1.200000 0.700000
v -2.100000 0.800000 -1.400000
v -2.200000 0.800000 0.700000
v 2.600000 0.800000 1.000000
v 2.700000 0.800000 -1.100000
vt 0.810000 0.500000
vt 0.625000 0.500000
vt 0.625000 0.440000
vt 0.810000 0.440000
vt 0.375000 0.875000
vt 0.375000 1.000000
vt 0.250000 1.000000
vt 0.250000 0.875000
vt 0.810000 0.500000
vt 0.625000 0.500000
vt 0.625000 0.440000
vt 0.810000 0.440000
vt 0.375000 0.875000
vt 0.375000 1.000000
vt 0.250000 1.000000
vt 0.250000 0.875000
vt 0.810000 0.500000
vt 0.625000 0.500000
vt 0.625000 0.440000
vt 0.810000 0.440000
vt 0.375000 0.875000
vt 0.375000 1.000000
vt 0.250000 1.000000
vt 0.250000 0.875000
vt 0.810000 0.500000
vt 0.625000 0.500000
vt 0.625000 0.440000
vt 0.810000 0.440000
vt 0.375000 0.875000
vt 0.375000 1.000000
vt 0.250000 1.000000
vt 0.250000 0.875000
vt 0.810000 0.500000
vt 0.625000 0.500000
vt 0.625000 0.440000
vt 0.810000 0.440000
vt 0.375000 0.875000
vt 0.375000 1.000000
vt 0.250000 1.000000
vt 0.250000 0.875000
vt 0.810000 0.500000
vt 0.625000 0.500000
vt 0.625000 0.440000
vt 0.810000 0.440000
vn -1.0000 -0.0000 0.0000
vn -0.0208 -0.0000 0.9998
vn 1.0000 0.0000 0.0000
vn 0.0000 1.0000 0.0000
vn -0.9989 0.0000 -0.0476
vn -0.0624 0.0000 0.9981
vn 0.9989 0.0000 0.0476
usemtl texobj1.png.003
s off
f 1/1/1 2/2/1 3/3/1
f 3/3/1 5/4/1 1/1/1
f 4/5/2 1/6/2 5/7/2
f 5/7/2 6/8/2 4/5/2
f 8/9/3 4/10/3 6/11/3
f 6/11/3 7/12/3 8/9/3
f 9/13/4 10/14/4 16/15/4
f 16/15/4 11/16/4 9/13/4
f 9/17/5 11/18/5 12/19/5
f 12/19/5 13/20/5 9/17/5
f 10/21/6 9/22/6 13/23/6
f 13/23/6 14/24/6 10/21/6
f 16/25/7 10/26/7 14/27/7
f 14/27/7 15/28/7 16/25/7
f 20/29/4 17/30/4 18/31/4
f 18/31/4 19/32/4 20/29/4
f 20/33/5 19/34/5 21/35/5
f 21/35/5 22/36/5 20/33/5
f 17/37/6 20/38/6 22/39/6
f 22/39/6 23/40/6 17/37/6
f 18/41/7 17/42/7 23/43/7
f 23/43/7 24/44/7 18/41/7
