# Blender v2.82 (sub 7) OBJ File: ''
# www.blender.org
mtllib concrete_fence.mtl
v 2.000000 3.000000 0.200000
v 2.000000 3.000000 0.000000
v -2.000000 3.000000 0.000000
v 2.000000 0.000000 0.000000
v -2.000000 3.000000 0.200000
v 2.000000 -0.000000 0.200000
v -2.000000 0.000000 0.000000
v -2.000000 -0.000000 0.200000
vt 0.830000 0.750000
vt 0.860000 0.750000
vt 0.860000 0.500000
vt 0.830000 0.500000
vt 0.830000 0.500000
vt 0.830000 0.750000
vt 0.860000 0.750000
vt 0.860000 0.500000
vt 0.500000 0.000000
vt 0.500000 0.250000
vt 0.750000 0.250000
vt 0.750000 0.000000
vt 0.830000 0.500000
vt 0.830000 0.750000
vt 0.860000 0.750000
vt 0.860000 0.500000
vn 0.0000 1.0000 0.0000
vn 1.0000 0.0000 0.0000
vn 0.0000 -0.0000 1.0000
vn -1.0000 0.0000 0.0000
usemtl texobj1.png.002
s off
f 3/1/1 5/2/1 1/3/1
f 1/3/1 2/4/1 3/1/1
f 4/5/2 2/6/2 1/7/2
f 1/7/2 6/8/2 4/5/2
f 6/9/3 1/10/3 5/11/3
f 5/11/3 8/12/3 6/9/3
f 8/13/4 5/14/4 3/15/4
f 3/15/4 7/16/4 8/13/4
