# Blender v3.2.1 OBJ File: ''
# www.blender.org
mtllib corpse.mtl
v -0.277547 0.567618 0.306786
v -0.056643 0.414240 -0.000374
v -0.388007 0.659022 0.063110
v -0.209517 0.133930 0.020058
v -0.115724 0.273266 0.210846
v -0.272349 0.715409 0.126564
v -0.396867 0.712381 0.259277
v -0.415057 0.510411 0.228355
v -0.178607 0.207584 -0.090271
v -0.096429 0.433934 -0.567474
v 0.055320 0.452988 -0.529137
v -0.196815 0.461395 -0.390594
v 0.024137 0.489225 -0.344788
v -0.213611 0.358578 -0.084564
v -0.203160 0.245230 -0.425728
v -0.217633 0.221596 -0.106827
v -0.186904 0.271801 0.025665
v 0.242511 0.435596 -0.311211
v 0.139737 0.337828 -0.020714
v 0.135716 0.200846 -0.042976
v 0.066607 0.256913 0.071472
v -0.073665 0.127304 0.078819
v -0.065969 0.389467 0.121430
v -0.033238 0.398405 -0.056793
v 0.236165 0.219431 -0.346336
v 0.203280 0.265373 -0.537010
v 0.046102 0.237992 -0.547996
v 0.207705 0.416074 -0.512520
v -0.100852 0.283233 -0.591965
v 0.049369 0.245145 -0.546974
v 0.135957 0.290238 -0.520393
v 0.179585 0.368412 -0.737564
v 0.121266 0.406203 -0.488579
v 0.175673 0.488696 -0.695183
v 0.045999 0.472027 -0.491882
v 0.087190 0.330465 -0.768463
v -0.038945 0.294494 -0.548622
v -0.008325 0.372986 -0.767891
v -0.029523 0.409873 -0.512909
v -0.012237 0.493270 -0.725510
v 0.093400 0.467202 -0.786308
v 0.038943 0.418231 -0.456276
v 0.080144 0.550916 -0.691551
v -0.385713 0.348436 -0.344925
v -0.175204 0.220732 -0.359512
v -0.418721 0.190585 -0.464424
v -0.134786 0.234918 -0.521576
v -0.143348 0.375360 -0.522377
v -0.401326 0.190742 -0.341499
v -0.474607 0.250337 -0.387001
v -0.187472 0.422059 -0.360596
v -0.062451 0.319202 -0.451096
v -0.402694 0.340537 -0.467728
v -0.434100 0.319009 -0.462837
v -0.655007 0.254667 -0.414474
v -0.432828 0.196528 -0.452820
v -0.632844 0.262523 -0.307175
v -0.737681 0.371991 -0.410805
v -0.784595 0.284460 -0.395431
v -0.713523 0.385922 -0.292747
v -0.760520 0.293310 -0.277000
v -0.633773 0.360010 -0.315033
v -0.655967 0.346940 -0.422020
v -0.407258 0.204975 -0.331696
v -0.363290 0.264796 -0.407387
v -0.408612 0.335325 -0.342354
v 0.477447 0.187613 -0.388382
v 0.398902 0.209249 -0.515335
v 0.420041 0.331662 -0.515701
v 0.523841 0.253005 -0.467377
v 0.501555 0.309143 -0.381645
v 0.199862 0.220591 -0.300743
v 0.291419 0.360761 -0.307266
v 0.124892 0.319461 -0.344292
v 0.215684 0.383421 -0.492836
v 0.147033 0.236398 -0.430191
v 0.460357 0.334673 -0.712425
v 0.388469 0.251882 -0.722115
v 0.452435 0.189065 -0.698906
v 0.527886 0.268356 -0.687927
v 0.522965 0.264799 -0.453995
v 0.432693 0.353452 -0.486748
v 0.461226 0.191856 -0.832992
v 0.544278 0.279264 -0.821251
v 0.389537 0.257728 -0.808090
v 0.469026 0.348635 -0.797646
v 0.437661 0.175589 -0.466949
v 0.352798 0.258928 -0.497734
v 0.422702 0.271295 -0.420319
v -0.337739 0.699402 0.316773
v -0.360997 0.239727 0.403488
v -0.478858 0.665543 0.231033
v -0.371684 0.532644 0.138413
v -0.229526 0.562073 0.218529
v -0.369929 0.692899 0.152054
v -0.279746 0.192577 0.332962
v -0.286275 0.310499 0.489838
v -0.198215 0.222630 0.368889
v -0.208541 0.270693 0.333450
v -0.203359 0.176091 0.305672
v -0.294011 0.277614 0.295075
v -0.296506 0.174318 0.263596
v -0.366866 0.277644 0.387260
v -0.452571 0.174574 0.538979
v -0.281564 0.271254 0.490860
v -0.293334 0.353816 0.388687
v -0.341701 0.176591 0.654739
v 0.124873 0.271239 -0.061844
v -0.080403 0.384635 0.040955
v -0.026135 0.624137 0.346108
v -0.037976 0.174402 0.188942
v 0.143786 0.425564 0.412399
v 0.049542 0.581860 0.506134
v 0.114591 0.626624 0.318710
v 0.147054 0.161330 0.015518
v -0.021113 0.412746 0.443909
v 0.265513 0.574377 0.437042
v 0.147870 0.243484 0.755646
v 0.106284 0.615138 0.473923
v 0.175637 0.547424 0.336838
v 0.194077 0.398630 0.395203
v 0.089215 0.158190 0.700325
v 0.049661 0.328870 0.788216
v -0.000438 0.185544 0.704956
v 0.035510 0.432967 0.428978
v 0.132016 0.292761 0.612785
v 0.159022 0.292711 0.727074
v 0.172675 0.189658 0.900635
v 0.038177 0.286285 0.784882
v 0.045430 0.191283 0.584137
v 0.091926 0.368957 0.697411
v 0.147494 0.189453 0.585304
v 0.023541 0.191632 0.958679
v 0.038411 0.285847 0.611610
vt 0.049617 0.737374
vt 0.029784 0.897680
vt 0.138206 0.729705
vt 0.144023 0.890222
vt 0.200984 0.727696
vt 0.233722 0.931475
vt 0.287722 0.727220
vt 0.293698 0.931422
vt 0.376416 0.879592
vt 0.295391 0.722407
vt 0.283596 0.677399
vt 0.329504 0.693688
vt 0.342884 0.657777
vt 0.357482 0.709079
vt 0.121176 0.986109
vt 0.061411 0.990023
vt 0.360814 0.718810
vt 0.979535 0.975022
vt 0.854474 0.884169
vt 0.954903 0.847184
vt 0.794685 0.788930
vt 0.927493 0.744636
vt 0.766618 0.610001
vt 0.868874 0.584931
vt 0.844022 0.495978
vt 0.760113 0.895498
vt 0.662170 0.785787
vt 0.682636 0.607882
vt 0.713626 0.553428
vt 0.602965 0.497074
vt 0.794685 0.788930
vt 0.766618 0.610001
vt 0.682636 0.607882
vt 0.713626 0.553428
vt 0.668090 0.893378
vt 0.760113 0.895498
vt 0.662170 0.785787
vt 0.871432 0.974583
vt 0.854474 0.884169
vt 0.871432 0.974583
vt 0.668090 0.893378
vt 0.534172 0.019081
vt 0.519668 0.319788
vt 0.660271 0.031712
vt 0.650208 0.325478
vt 0.830992 0.044967
vt 0.810034 0.331100
vt 0.948416 0.073768
vt 0.948832 0.331377
vt 0.660271 0.031712
vt 0.650208 0.325478
vt 0.830992 0.044967
vt 0.810034 0.331100
vt 0.744799 0.473021
vt 0.894215 0.441583
vt 0.576367 0.433602
vt 0.925375 0.018179
vt 0.087701 0.325815
vt 0.183504 0.318873
vt 0.182335 0.461811
vt 0.274996 0.314634
vt 0.299111 0.496595
vt 0.403172 0.494768
vt 0.111378 0.085905
vt 0.069870 0.109801
vt 0.077689 0.074432
vt 0.048020 0.059889
vt 0.090916 0.037601
vt 0.064389 0.019405
vt 0.125993 0.040816
vt 0.073013 0.057478
vt 0.084486 0.115281
vt 0.035378 0.070486
vt 0.512422 0.430607
vt 0.366707 0.313027
vt 0.033478 0.472407
vt 0.454326 0.285404
vt 0.338779 0.141681
vt 0.363315 0.286300
vt 0.270291 0.162081
vt 0.274567 0.313919
vt 0.184487 0.164394
vt 0.181192 0.318266
vt 0.111302 0.144485
vt 0.085925 0.288473
vt 0.343196 0.086301
vt 0.270992 0.074735
vt 0.179580 0.075366
vt 0.104572 0.089176
vt 0.490829 0.018934
vt 0.499521 0.109925
vt 0.417222 0.024823
vt 0.421499 0.117426
vt 0.364577 0.112729
vt 0.456970 0.270387
vt 0.421569 0.127100
vt 0.360791 0.028678
vt 0.066507 0.082095
vt 0.040079 0.106631
vt 0.044215 0.052092
vt 0.091183 0.056298
vt 0.089711 0.110697
vt 0.182978 0.460608
vt 0.301804 0.495981
vt 0.277281 0.310868
vt 0.407625 0.494197
vt 0.370469 0.309307
vt 0.518722 0.428876
vt 0.459570 0.281217
vt 0.184093 0.315327
vt 0.086818 0.322312
vt 0.031678 0.471383
vt 0.090013 0.029223
vt 0.046392 0.051814
vt 0.076637 0.066603
vt 0.068611 0.102570
vt 0.110895 0.078418
vt 0.033610 0.062590
vt 0.083474 0.108218
vt 0.071807 0.049511
vt 0.125683 0.032493
vt 0.062963 0.010719
vt 0.420383 0.126893
vt 0.338209 0.141423
vt 0.362611 0.284776
vt 0.270217 0.161584
vt 0.274597 0.312167
vt 0.185123 0.163879
vt 0.181925 0.316478
vt 0.112613 0.144204
vt 0.087376 0.287001
vt 0.270982 0.074892
vt 0.180326 0.075587
vt 0.105869 0.089283
vt 0.360108 0.029286
vt 0.363793 0.112572
vt 0.416003 0.025393
vt 0.420313 0.117300
vt 0.497621 0.109930
vt 0.489000 0.019622
vt 0.455491 0.268995
vt 0.342589 0.086432
vt 0.046081 0.052506
vt 0.041979 0.106524
vt 0.068189 0.082330
vt 0.092591 0.056677
vt 0.091200 0.110626
vt 0.029785 0.556875
vt 0.049987 0.724204
vt 0.105516 0.562591
vt 0.139022 0.729623
vt 0.160307 0.543621
vt 0.201499 0.727603
vt 0.272106 0.680696
vt 0.343895 0.658819
vt 0.352715 0.709323
vt 0.320294 0.695281
vt 0.295904 0.721395
vt 0.285606 0.678085
vt 0.232195 0.495876
vt 0.198000 0.517507
vt 0.032889 0.548696
vt 0.063290 0.501789
vt 0.104383 0.551899
vt 0.108916 0.514698
vt 0.328621 0.634085
vt 0.333803 0.605495
vt 0.318795 0.569698
vt 0.373500 0.599192
vt 0.370784 0.557406
vt 0.422912 0.608106
vt 0.516686 0.585402
vt 0.448297 0.659398
vt 0.521805 0.662706
vt 0.382693 0.694011
vt 0.389413 0.732210
vt 0.408600 0.651598
vt 0.521213 0.507890
vt 0.371689 0.503990
vt 0.376316 0.880325
vt 0.294075 0.931699
vt 0.288081 0.728675
vt 0.234393 0.931805
vt 0.201897 0.729201
vt 0.145212 0.890684
vt 0.139480 0.731094
vt 0.031684 0.898309
vt 0.051403 0.738876
vt 0.357491 0.710691
vt 0.342978 0.659686
vt 0.329674 0.695285
vt 0.284084 0.679194
vt 0.295705 0.723890
vt 0.122496 0.986123
vt 0.063076 0.990014
vt 0.360804 0.720314
vt 0.274381 0.682804
vt 0.203403 0.729908
vt 0.161994 0.544908
vt 0.140597 0.731889
vt 0.106915 0.563977
vt 0.051093 0.726490
vt 0.030785 0.558380
vt 0.287903 0.680079
vt 0.298305 0.723717
vt 0.322823 0.697514
vt 0.355415 0.711482
vt 0.346499 0.660811
vt 0.234310 0.497011
vt 0.199787 0.518705
vt 0.033906 0.550109
vt 0.105677 0.553279
vt 0.064417 0.503004
vt 0.110283 0.515882
vt 0.331194 0.635996
vt 0.318913 0.570187
vt 0.373296 0.599491
vt 0.370594 0.557994
vt 0.422517 0.608393
vt 0.515799 0.585809
vt 0.447803 0.659485
vt 0.520787 0.662707
vt 0.382510 0.693812
vt 0.389195 0.731810
vt 0.408211 0.651691
vt 0.371599 0.504790
vt 0.520198 0.508704
vt 0.333808 0.605796
vn 0.8687 0.3704 0.3288
vn 0.7986 0.3729 0.4723
vn 0.2128 0.5050 -0.8365
vn 0.0841 0.3553 -0.9310
vn -0.8785 -0.2747 -0.3909
vn -0.8760 -0.2501 -0.4124
vn -0.4421 -0.6068 0.6605
vn -0.3025 0.9162 -0.2629
vn -0.9923 0.1004 -0.0721
vn -0.4638 -0.0931 0.8810
vn 0.8730 -0.4816 -0.0773
vn 0.8728 -0.4819 -0.0772
vn -0.2995 -0.4405 0.8463
vn 0.5563 0.6346 0.5365
vn 0.2354 0.0749 -0.9690
vn -0.0739 0.9783 -0.1938
vn -0.0803 0.9754 -0.2053
vn -0.1809 0.9352 0.3043
vn -0.2450 0.9376 0.2468
vn -0.2169 0.9761 0.0091
vn -0.8575 0.1070 -0.5033
vn -0.9984 0.0362 -0.0426
vn -0.9734 -0.0086 0.2290
vn -0.7745 0.3921 0.4963
vn -0.5425 -0.1192 0.8316
vn 0.2569 0.9556 -0.1444
vn 0.1682 0.9148 0.3674
vn 0.9478 -0.0780 0.3091
vn 0.8247 -0.1142 0.5539
vn 0.5541 -0.5650 0.6114
vn 0.2011 -0.1629 0.9659
vn 0.2481 0.9086 0.3360
vn 0.3093 0.9452 0.1042
vn 0.5919 0.3119 0.7433
vn 0.9854 -0.0013 -0.1703
vn 0.9854 -0.0013 -0.1702
vn 0.0412 0.1591 -0.9864
vn 0.1275 0.0812 -0.9885
vn 0.2472 0.9594 -0.1358
vn 0.3237 0.1425 -0.9354
vn -0.7928 -0.4859 0.3680
vn 0.5046 -0.8310 -0.2340
vn 0.4339 -0.8720 -0.2267
vn 0.9738 0.0634 0.2185
vn 0.9706 -0.0513 0.2351
vn 0.5839 0.6892 0.4290
vn 0.5129 0.7648 0.3899
vn -0.3815 -0.8521 -0.3583
vn -0.9889 0.1112 -0.0983
vn -0.9966 -0.0034 -0.0824
vn -0.6558 0.7194 0.2289
vn -0.5726 0.7912 0.2147
vn 0.6848 0.2619 -0.6800
vn 0.4369 0.7036 -0.5604
vn -0.4443 -0.8080 -0.3871
vn -0.4230 0.2889 -0.8588
vn -0.0622 -0.1264 -0.9900
vn -0.5878 0.4987 0.6370
vn -0.2047 0.7192 -0.6640
vn 0.3807 0.4751 0.7933
vn 0.3642 -0.1368 -0.9212
vn 0.0776 0.0140 0.9969
vn 0.1301 -0.9914 -0.0171
vn 0.1441 -0.9883 -0.0506
vn -0.1947 -0.0175 -0.9807
vn -0.6629 -0.7427 0.0947
vn -0.4864 0.0671 0.8712
vn -0.7527 0.6555 0.0619
vn 0.6063 0.7927 -0.0635
vn 0.6080 0.0413 0.7929
vn 0.7046 -0.7004 0.1144
vn -0.1920 0.9277 -0.3202
vn -0.2063 0.0005 -0.9785
vn 0.0751 0.0099 0.9971
vn -0.3490 0.9371 -0.0120
vn -0.7824 0.0700 -0.6188
vn 0.6750 0.0369 -0.7369
vn -0.1903 -0.0820 -0.9783
vn -0.2321 -0.9654 0.1186
vn -0.2336 -0.9653 0.1166
vn 0.1281 0.0809 0.9885
vn 0.1289 0.0821 0.9882
vn -0.1614 -0.0862 -0.9831
vn -0.1633 -0.0821 -0.9831
vn -0.2066 -0.9717 0.1146
vn -0.2074 -0.9716 0.1140
vn 0.2397 0.0433 0.9699
vn 0.2922 0.0796 0.9530
vn -0.8625 0.4867 0.1390
vn -0.8761 0.4657 0.1243
vn 0.2625 0.9506 -0.1659
vn 0.0894 0.9843 -0.1522
vn 0.0981 0.9852 -0.1407
vn 0.2672 0.9483 -0.1713
vn 0.7314 -0.6735 -0.1074
vn 0.5866 -0.0600 -0.8077
vn 0.7014 0.6714 -0.2393
vn 0.8450 0.0523 0.5322
vn 0.2829 -0.1406 0.9488
vn -0.1378 -0.9884 -0.0645
vn -0.1350 -0.9872 -0.0847
vn -0.3339 -0.2332 -0.9133
vn -0.1073 0.0156 -0.9941
vn 0.3067 -0.1132 0.9450
vn 0.2435 0.9698 0.0149
vn 0.2473 0.9688 0.0174
vn 0.3782 -0.0681 -0.9232
vn 0.6596 0.6958 -0.2842
vn 0.9082 -0.2005 0.3674
vn -0.2625 0.2152 0.9406
vn -0.2820 0.9317 0.2288
vn -0.8716 0.2204 -0.4378
vn 0.4371 -0.8020 -0.4071
vn -0.8206 -0.5017 0.2736
vn -0.7398 0.6585 -0.1383
vn -0.6821 -0.7262 -0.0856
vn 0.7240 -0.6898 0.0060
vn 0.7224 -0.6915 0.0047
vn 0.6957 0.7179 0.0256
vn 0.6957 0.7179 0.0255
vn -0.6882 -0.7230 -0.0602
vn 0.7223 -0.6908 0.0330
vn 0.7218 -0.6913 0.0322
vn 0.6947 0.7049 0.1431
vn 0.6530 0.7340 0.1867
vn -0.7566 0.6529 0.0350
vn -0.7542 0.6559 0.0307
vn -0.1118 0.2093 -0.9714
vn -0.1153 0.2390 -0.9641
vn -0.7472 0.6485 -0.1456
vn -0.6863 -0.7250 -0.0578
vn 0.2709 -0.3871 0.8813
vn -0.6414 -0.4147 0.6454
vn -0.6771 0.5107 0.5298
vn 0.2930 0.5794 0.7606
vn 0.8611 0.2702 0.4307
vn 0.8258 0.3169 0.4666
vn -0.8049 0.1491 0.5744
vn -0.5421 0.1822 0.8203
vn -0.8295 -0.3911 -0.3987
vn 0.4789 0.0693 -0.8751
vn -0.5976 0.0745 -0.7984
vn -0.2380 0.9712 0.0082
vn 0.4805 -0.3340 -0.8109
vn -0.7169 -0.4820 -0.5037
vn 0.0463 -0.7919 0.6090
vn 0.0397 -0.8089 0.5866
vn 0.5147 -0.3071 -0.8005
vn 0.7132 0.6809 -0.1663
vn 0.4121 0.2774 -0.8679
vn 0.3935 0.2593 -0.8820
vn -0.7681 0.2036 -0.6071
vn -0.8700 -0.0023 -0.4930
vn -0.3786 0.8509 0.3642
vn -0.3835 0.8537 0.3524
vn 0.8971 0.1496 0.4156
vn 0.9281 -0.0572 0.3679
vn 0.3277 0.7316 -0.5979
vn -0.6219 0.6095 -0.4917
vn -0.6111 0.5798 0.5389
vn 0.0118 -0.9999 0.0061
vn 0.0148 -0.9998 0.0093
vn 0.7621 0.5437 0.3516
vn 0.4203 -0.7537 0.5053
vn 0.9866 0.1395 -0.0847
vn 0.9912 0.1090 -0.0750
vn 0.0627 0.7303 -0.6803
vn -0.1303 0.7911 -0.5977
vn -0.9762 -0.0482 0.2114
vn -0.9981 0.0048 0.0616
vn 0.2018 -0.4114 0.8888
vn 0.8758 0.3025 0.3762
vn 0.0300 0.9698 0.2420
vn -0.5959 -0.5392 -0.5951
vn 0.1833 -0.7242 0.6648
vn -0.8665 0.1925 0.4606
vn 0.9289 -0.3682 -0.0394
vn 0.3228 0.5944 0.7365
vn 0.6357 0.5102 0.5793
vn -0.9345 0.3304 0.1325
vn -0.9567 0.2675 0.1152
vn 0.1466 0.9143 -0.3775
vn 0.7558 -0.1558 -0.6360
vn -0.2707 -0.3804 -0.8843
vn -0.2521 -0.7161 -0.6509
vn 0.8512 -0.5129 -0.1117
vn -0.1165 -0.4681 0.8759
vn -0.1046 -0.4895 0.8657
vn -0.2906 -0.6933 -0.6594
vn -0.7119 0.4161 -0.5657
vn 0.0157 0.2592 -0.9657
vn 0.9530 0.2027 -0.2251
vn 0.9968 -0.0020 -0.0796
vn 0.1893 0.8508 0.4903
vn 0.1987 0.8536 0.4816
vn -0.9887 0.1497 -0.0017
vn -0.9967 -0.0571 -0.0582
vn 0.3268 0.5784 0.7475
vn 0.7722 0.6087 -0.1822
vn -0.0455 0.7316 -0.6802
vn -0.0179 -0.9998 0.0021
vn -0.0132 -0.9999 0.0002
vn -0.0085 0.2784 -0.9604
vn -0.8396 0.5432 -0.0025
usemtl psoldier.png
s off
f 1/1/1 5/2/1 6/3/1
f 5/2/2 2/4/2 6/3/2
f 6/3/3 2/4/3 3/5/3
f 2/4/4 9/6/4 3/5/4
f 3/5/5 9/6/5 8/7/5
f 9/6/6 4/8/6 8/7/6
f 8/7/7 4/8/7 5/9/7
f 6/10/8 3/11/8 7/12/8
f 3/11/9 8/13/9 7/12/9
f 7/12/10 8/13/10 1/14/10
f 2/4/11 5/2/11 9/15/11
f 5/2/12 4/16/12 9/15/12
f 8/7/13 5/9/13 1/17/13
f 7/12/14 1/14/14 6/10/14
f 27/18/15 10/19/15 11/20/15
f 10/19/16 12/21/16 11/20/16
f 11/20/17 12/21/17 13/22/17
f 12/21/18 14/23/18 13/22/18
f 13/22/19 14/23/19 24/24/19
f 14/23/20 23/25/20 24/24/20
f 10/26/21 15/27/21 12/21/21
f 15/27/22 16/28/22 12/21/22
f 12/21/22 16/28/22 14/23/22
f 16/28/23 17/29/23 14/23/23
f 14/23/24 17/29/24 23/25/24
f 17/29/25 22/30/25 23/25/25
f 11/20/26 13/22/26 18/31/26
f 13/22/27 19/32/27 18/31/27
f 18/31/28 19/32/28 20/33/28
f 19/32/29 21/34/29 20/33/29
f 20/33/30 21/34/30 22/30/30
f 21/34/31 23/25/31 22/30/31
f 13/22/32 24/24/32 19/32/32
f 24/24/33 23/25/33 19/32/33
f 19/32/34 23/25/34 21/34/34
f 26/35/35 28/36/35 25/37/35
f 28/36/36 18/31/36 25/37/36
f 25/37/28 18/31/28 20/33/28
f 26/38/37 27/18/37 28/39/37
f 27/18/38 11/20/38 28/39/38
f 28/39/39 11/20/39 18/31/39
f 10/19/40 27/18/40 29/40/40
f 15/27/21 10/26/21 29/41/21
f 17/29/41 16/28/41 22/30/41
f 30/42/42 36/43/42 31/44/42
f 36/43/43 32/45/43 31/44/43
f 31/44/44 32/45/44 33/46/44
f 32/45/45 34/47/45 33/46/45
f 33/46/46 34/47/46 35/48/46
f 34/47/47 43/49/47 35/48/47
f 36/43/48 37/50/48 38/51/48
f 37/50/49 39/52/49 38/51/49
f 38/51/50 39/52/50 40/53/50
f 39/52/51 35/48/51 40/53/51
f 40/53/52 35/48/52 43/49/52
f 32/45/53 41/54/53 34/47/53
f 41/54/54 43/55/54 34/47/54
f 37/50/55 36/43/55 30/42/55
f 40/53/56 41/54/56 38/51/56
f 41/54/57 36/56/57 38/51/57
f 39/52/58 42/57/58 35/48/58
f 43/55/59 41/54/59 40/53/59
f 35/48/60 42/57/60 33/46/60
f 36/56/61 41/54/61 32/45/61
f 44/58/62 49/59/62 45/60/62
f 49/59/63 46/61/63 45/60/63
f 45/60/64 46/61/64 47/62/64
f 46/61/65 48/63/65 47/62/65
f 46/64/66 49/65/66 50/66/66
f 49/65/67 44/67/67 50/66/67
f 50/66/68 44/67/68 53/68/68
f 48/69/69 51/70/69 52/71/69
f 51/70/70 45/72/70 52/71/70
f 52/71/71 45/72/71 47/73/71
f 51/74/72 48/63/72 53/75/72
f 48/63/73 46/61/73 53/75/73
f 44/58/74 45/60/74 51/76/74
f 44/77/75 51/74/75 53/75/75
f 50/66/76 53/68/76 46/64/76
f 52/71/77 47/73/77 48/69/77
f 63/78/78 54/79/78 55/80/78
f 54/79/78 56/81/78 55/80/78
f 55/80/79 56/81/79 57/82/79
f 56/81/80 64/83/80 57/82/80
f 57/82/81 64/83/81 62/84/81
f 64/83/82 66/85/82 62/84/82
f 58/86/83 63/78/83 59/87/83
f 63/78/84 55/80/84 59/87/84
f 59/87/85 55/80/85 61/88/85
f 55/80/86 57/82/86 61/88/86
f 61/88/87 57/82/87 60/89/87
f 57/82/88 62/84/88 60/89/88
f 59/90/89 61/91/89 58/92/89
f 61/91/90 60/93/90 58/92/90
f 58/92/91 60/93/91 62/94/91
f 66/95/92 54/79/92 62/96/92
f 54/79/93 63/78/93 62/96/93
f 58/92/94 62/94/94 63/97/94
f 65/98/95 64/99/95 56/100/95
f 65/98/96 56/100/96 54/101/96
f 65/98/97 54/101/97 66/102/97
f 65/98/98 66/102/98 64/99/98
f 73/103/99 72/104/99 67/105/99
f 72/104/100 76/106/100 67/105/100
f 67/105/101 76/106/101 68/107/101
f 76/106/102 75/108/102 68/107/102
f 68/107/103 75/108/103 69/109/103
f 67/105/104 71/110/104 73/103/104
f 71/110/105 69/111/105 73/103/105
f 73/103/106 69/111/106 75/112/106
f 68/113/107 69/114/107 70/115/107
f 69/114/108 71/116/108 70/115/108
f 70/115/109 71/116/109 67/117/109
f 72/118/110 73/119/110 74/120/110
f 73/119/111 75/121/111 74/120/111
f 74/120/112 75/121/112 76/122/112
f 67/117/113 68/113/113 70/115/113
f 76/122/114 72/118/114 74/120/114
f 77/123/115 78/124/115 88/125/115
f 78/124/116 79/126/116 88/125/116
f 88/125/116 79/126/116 87/127/116
f 79/126/117 80/128/117 87/127/117
f 87/127/118 80/128/118 81/129/118
f 80/128/119 77/130/119 81/129/119
f 81/129/120 77/130/120 82/131/120
f 78/124/121 83/132/121 79/126/121
f 83/132/122 84/133/122 79/126/122
f 79/126/123 84/133/123 80/128/123
f 84/133/124 86/134/124 80/128/124
f 80/128/125 86/134/125 77/130/125
f 78/135/126 77/136/126 85/137/126
f 77/136/127 86/138/127 85/137/127
f 85/137/128 86/138/128 84/139/128
f 85/137/129 84/139/129 83/140/129
f 88/125/130 82/141/130 77/123/130
f 83/132/131 78/124/131 85/142/131
f 87/143/132 81/144/132 89/145/132
f 88/146/133 87/143/133 89/145/133
f 82/147/134 88/146/134 89/145/134
f 81/144/135 82/147/135 89/145/135
f 98/148/136 94/149/136 97/150/136
f 94/149/137 90/151/137 97/150/137
f 97/150/138 90/151/138 91/152/138
f 90/151/139 92/153/139 91/152/139
f 91/152/140 92/153/140 93/154/140
f 94/155/141 93/156/141 95/157/141
f 93/156/142 92/158/142 95/157/142
f 95/157/143 92/158/143 90/159/143
f 98/160/144 96/161/144 93/154/144
f 96/161/145 91/152/145 93/154/145
f 97/162/146 91/163/146 98/164/146
f 91/163/147 96/165/147 98/164/147
f 98/160/148 93/154/148 94/166/148
f 95/157/149 90/159/149 94/155/149
f 99/167/150 100/168/150 101/169/150
f 100/168/151 102/170/151 101/169/151
f 101/169/152 102/170/152 103/171/152
f 102/170/153 104/172/153 103/171/153
f 103/171/154 104/172/154 105/173/154
f 104/172/155 107/174/155 105/173/155
f 105/173/156 107/174/156 99/175/156
f 107/174/157 100/176/157 99/175/157
f 99/175/158 101/169/158 106/177/158
f 101/169/159 103/171/159 106/177/159
f 106/177/160 103/171/160 105/173/160
f 107/178/161 104/172/161 100/179/161
f 104/172/162 102/170/162 100/179/162
f 106/177/163 105/173/163 99/175/163
f 111/180/164 115/181/164 112/182/164
f 115/181/165 108/183/165 112/182/165
f 112/182/166 108/183/166 114/184/166
f 108/183/167 109/185/167 114/184/167
f 114/184/168 109/185/168 110/186/168
f 109/185/169 111/187/169 110/186/169
f 110/186/170 111/187/170 116/188/170
f 116/189/171 112/190/171 113/191/171
f 112/190/172 114/192/172 113/191/172
f 113/191/173 114/192/173 110/193/173
f 109/185/174 108/194/174 111/187/174
f 108/194/174 115/195/174 111/187/174
f 116/196/175 111/180/175 112/182/175
f 110/193/176 116/189/176 113/191/176
f 121/197/177 117/198/177 118/199/177
f 117/198/178 119/200/178 118/199/178
f 118/199/179 119/200/179 123/201/179
f 119/200/180 125/202/180 123/201/180
f 123/201/181 125/202/181 124/203/181
f 119/204/182 117/205/182 120/206/182
f 117/205/183 121/207/183 120/206/183
f 120/206/184 121/207/184 125/208/184
f 124/209/185 121/197/185 122/210/185
f 121/197/186 118/199/186 122/210/186
f 123/211/187 124/212/187 118/213/187
f 124/212/188 122/214/188 118/213/188
f 121/197/189 124/209/189 125/215/189
f 125/208/190 119/204/190 120/206/190
f 130/216/191 126/217/191 132/218/191
f 126/217/192 127/219/192 132/218/192
f 132/218/193 127/219/193 128/220/193
f 127/219/194 129/221/194 128/220/194
f 128/220/195 129/221/195 133/222/195
f 129/221/196 134/223/196 133/222/196
f 133/222/197 134/223/197 130/224/197
f 129/221/198 127/219/198 131/225/198
f 127/219/199 126/217/199 131/225/199
f 131/225/200 126/217/200 134/223/200
f 132/218/201 128/220/201 130/226/201
f 128/220/202 133/227/202 130/226/202
f 126/217/203 130/216/203 134/228/203
f 134/223/204 129/221/204 131/225/204
