# Blender v2.82 (sub 7) OBJ File: ''
# www.blender.org
mtllib door_stud_1.mtl
v -0.600000 0.000000 0.000000
v -0.600000 2.200000 0.000000
v -0.600000 2.200000 0.100000
v 0.600000 2.200000 0.100000
v 0.600000 2.200000 0.000000
v 0.600000 0.000000 0.000000
v 0.600000 -0.000000 0.100000
v 0.800000 2.400000 0.100000
v 0.800000 -0.000000 0.100000
v 0.800000 0.000000 0.000000
v 0.800000 2.400000 0.000000
v -0.800000 -0.000000 0.100000
v -0.800000 2.400000 0.000000
v -0.800000 0.000000 0.000000
v -0.600000 -0.000000 0.100000
v -0.800000 2.400000 0.100000
vt 0.515000 0.485000
vt 0.515000 0.255000
vt 0.515000 0.255000
vt 0.515000 0.485000
vt 0.615000 0.485000
vt 0.615000 0.485000
vt 0.615000 0.255000
vt 0.615000 0.255000
vt 0.570000 0.500000
vt 0.570000 0.250000
vt 0.560000 0.250000
vt 0.560000 0.500000
vt 0.570000 0.250000
vt 0.570000 0.500000
vt 0.560000 0.500000
vt 0.560000 0.250000
vt 0.500000 0.500000
vt 0.500000 0.250000
vt 0.625000 0.500000
vt 0.625000 0.250000
vn 1.0000 0.0000 0.0000
vn 0.0000 -1.0000 0.0000
vn -1.0000 -0.0000 0.0000
vn 0.0000 -0.0000 1.0000
usemtl texobj1.png.009
s off
f 3/1/1 15/2/1 1/3/1
f 1/3/1 2/4/1 3/1/1
f 4/5/2 3/1/2 2/4/2
f 2/4/2 5/6/2 4/5/2
f 7/7/3 4/5/3 5/6/3
f 5/6/3 6/8/3 7/7/3
f 8/9/1 9/10/1 10/11/1
f 10/11/1 11/12/1 8/9/1
f 12/13/3 16/14/3 13/15/3
f 13/15/3 14/16/3 12/13/3
f 16/17/4 12/18/4 15/2/4
f 16/17/4 15/2/4 3/1/4
f 3/1/4 4/5/4 8/19/4
f 8/19/4 16/17/4 3/1/4
f 4/5/4 7/7/4 9/20/4
f 9/20/4 8/19/4 4/5/4
