# Blender v2.82 (sub 7) OBJ File: ''
# www.blender.org
mtllib grass_plot_2.mtl
v 2.000000 0.200000 2.000000
v -2.000000 0.200000 2.000000
v 2.200000 0.200000 2.000000
v 2.200000 0.200000 -2.200000
v -2.000000 0.200000 -2.200000
v -2.000000 0.200000 -2.000000
v 2.000000 0.200000 -2.000000
v 2.200000 -0.000000 2.000000
v 2.200000 0.000000 -2.200000
v -2.000000 0.000000 -2.200000
vt 0.000000 0.024800
vt 1.992800 0.024800
vt 1.992800 2.017600
vt 0.000000 2.017600
vt 4.748800 0.003600
vt 4.960800 1.021200
vt 0.763200 1.021200
vt 5.406000 0.024800
vt 5.406000 1.021200
vt 1.208400 1.021200
vt 4.197600 0.024800
vt 4.197600 1.021200
vt 0.000000 1.021200
vt 4.197600 0.024800
vt 4.197600 1.021200
vt 0.763200 0.003600
vt 1.208400 0.024800
vt 0.212000 0.024800
vt 0.000000 0.024800
vn 0.0000 1.0000 0.0000
vn 1.0000 0.0000 0.0000
vn 0.0000 0.0000 -1.0000
usemtl texgr2.png.001
s off
f 2/1/1 1/2/1 7/3/1
f 7/3/1 6/4/1 2/1/1
usemtl texgr3.png.001
f 7/5/1 4/6/1 5/7/1
f 9/8/2 4/9/2 3/10/2
f 1/11/1 3/12/1 4/13/1
f 10/14/3 5/15/3 4/13/3
f 5/7/1 6/16/1 7/5/1
f 3/10/2 8/17/2 9/8/2
f 4/13/1 7/18/1 1/11/1
f 4/13/3 9/19/3 10/14/3
