# Blender v2.82 (sub 7) OBJ File: ''
# www.blender.org
mtllib industry_build_1.mtl
v -6.000000 6.000000 2.500001
v -6.000000 6.000000 -3.499999
v -6.000000 0.000001 -3.500000
v -4.000000 4.700000 3.000001
v 3.000000 -0.000000 3.000000
v -4.000000 3.299999 3.000000
v 3.000000 2.600000 3.000000
v 6.000000 -0.000000 3.000000
v 7.000000 -0.000000 3.000000
v 7.000000 6.000000 3.000001
v 6.000000 3.299999 2.800000
v 6.000000 4.700000 3.000001
v -4.000000 3.299999 2.800000
v 6.000000 3.299999 3.000000
v -6.200000 -0.000001 3.200000
v -5.500000 6.000000 3.000001
v -5.500000 6.000000 3.200001
v -5.500000 -0.000001 3.200000
v -5.500000 -0.000000 3.000000
v -6.000000 -0.000000 2.500000
v -6.200000 6.000000 2.500001
v -6.200000 -0.000000 2.500000
v -6.200000 6.000000 3.200001
v 6.000000 2.600000 3.000000
v 6.000000 2.600000 2.800000
v -4.000000 4.700000 2.800001
v 6.000000 4.700000 2.800001
v 3.000000 2.600000 2.800000
v 3.000000 -0.000000 2.800000
v 6.000000 -0.000000 2.800000
vt 1.985173 4.835758
vt -1.009410 4.835758
vt -1.009410 -3.744227
vt 1.985173 -3.744227
vt -2.018820 2.951526
vt 2.994583 2.951526
vt 3.499288 4.835758
vt -2.759054 4.835758
vt -2.759054 -3.744227
vt -2.018820 0.966353
vt 1.480468 -3.744227
vt 1.480468 -0.043057
vt 2.994583 0.966353
vt 2.994583 -0.043057
vt 2.994583 -3.744227
vt 3.499288 -3.744227
vt 1.884232 2.951526
vt 1.884232 0.966353
vt 1.985173 0.966353
vt 1.985173 2.951526
vt 2.994583 -0.917879
vt -1.985173 -0.917879
vt -1.985173 -1.018820
vt 2.994583 -1.018820
vt -0.908469 0.966353
vt -0.908469 2.951526
vt -1.009410 2.951526
vt -1.009410 0.966353
vt 2.994583 -0.917879
vt -2.018820 -0.917879
vt -2.018820 -1.018820
vt 2.994583 -1.018820
vt 0.706587 4.835758
vt 0.000000 4.835758
vt 0.000000 -3.744227
vt 0.706587 -3.744227
vt 0.706587 4.835758
vt 0.000000 4.835758
vt 0.000000 -3.744227
vt 0.706587 -3.744227
vt 1.009410 4.835758
vt 0.302823 4.835758
vt 0.302823 -3.744227
vt 1.009410 -3.744227
vt 0.975763 4.835758
vt 0.302823 4.835758
vt 0.302823 -3.744227
vt 0.975763 -3.744227
vt 2.994583 -0.043057
vt 2.994583 -3.744227
vt 1.480468 -0.043057
vt 1.480468 -3.744227
vn -1.0000 0.0000 0.0000
vn 0.0000 -0.0000 1.0000
vn 0.0000 -1.0000 0.0000
vn 1.0000 0.0000 0.0000
vn 0.0000 1.0000 0.0000
vn 0.0000 0.0000 -1.0000
usemtl texw4.png
s off
f 1/1/1 2/2/1 3/3/1
f 3/3/1 20/4/1 1/1/1
f 4/5/2 12/6/2 10/7/2
f 4/5/2 10/7/2 16/8/2
f 4/5/2 16/8/2 19/9/2
f 6/10/2 4/5/2 19/9/2
f 6/10/2 19/9/2 5/11/2
f 6/10/2 5/11/2 7/12/2
f 14/13/2 6/10/2 7/12/2
f 14/13/2 7/12/2 24/14/2
f 24/14/2 8/15/2 9/16/2
f 14/13/2 24/14/2 9/16/2
f 14/13/2 9/16/2 10/7/2
f 14/13/2 10/7/2 12/6/2
f 27/17/1 11/18/1 14/19/1
f 14/19/1 12/20/1 27/17/1
f 26/21/3 27/22/3 12/23/3
f 12/23/3 4/24/3 26/21/3
f 13/25/4 26/26/4 4/27/4
f 4/27/4 6/28/4 13/25/4
f 11/29/5 13/30/5 6/31/5
f 6/31/5 14/32/5 11/29/5
f 17/33/2 23/34/2 15/35/2
f 15/35/2 18/36/2 17/33/2
f 16/37/4 17/38/4 18/39/4
f 18/39/4 19/40/4 16/37/4
f 21/41/6 1/42/6 20/43/6
f 20/43/6 22/44/6 21/41/6
f 23/45/1 21/46/1 22/47/1
f 22/47/1 15/48/1 23/45/1
f 25/49/1 30/50/1 8/15/1
f 8/15/1 24/14/1 25/49/1
f 28/51/3 25/49/3 24/14/3
f 24/14/3 7/12/3 28/51/3
f 29/52/4 28/51/4 7/12/4
f 7/12/4 5/11/4 29/52/4
