# Blender v3.2.1 OBJ File: ''
# www.blender.org
mtllib lamp_3.mtl
v -0.300000 -0.100000 0.300000
v 0.300000 -0.100000 -0.300000
v 0.300000 -0.100000 0.300000
v 0.300000 -0.000000 0.300000
v -0.300000 -0.000000 0.300000
v 0.300000 0.000000 -0.300000
v -0.300000 0.000000 -0.300000
v -0.300000 -0.100000 -0.300000
vt 0.810000 0.500000
vt 0.810000 0.565000
vt 0.750000 0.565000
vt 0.750000 0.600000
vt 0.810000 0.600000
vt 0.810000 0.625000
vt 0.750000 0.600000
vt 0.810000 0.600000
vt 0.810000 0.625000
vt 0.750000 0.600000
vt 0.810000 0.600000
vt 0.810000 0.625000
vt 0.750000 0.600000
vt 0.810000 0.600000
vt 0.810000 0.625000
vt 0.750000 0.500000
vt 0.750000 0.625000
vt 0.750000 0.625000
vt 0.750000 0.625000
vt 0.750000 0.625000
vn 0.0000 -1.0000 -0.0000
vn 0.0000 -0.0000 1.0000
vn 1.0000 -0.0000 0.0000
vn 0.0000 0.0000 -1.0000
vn -1.0000 0.0000 0.0000
usemtl texobj1.png.004
s off
f 1/1/1 8/2/1 2/3/1
f 1/4/2 3/5/2 4/6/2
f 3/7/3 2/8/3 6/9/3
f 2/10/4 8/11/4 7/12/4
f 8/13/5 1/14/5 5/15/5
f 2/3/1 3/16/1 1/1/1
f 4/6/2 5/17/2 1/4/2
f 6/9/3 4/18/3 3/7/3
f 7/12/4 6/19/4 2/10/4
f 5/15/5 7/20/5 8/13/5
