# Blender v3.2.1 OBJ File: ''
# www.blender.org
mtllib lamp_2.mtl
v 0.500000 -0.000000 0.200000
v -0.500000 -0.000000 0.200000
v 0.500000 -0.100000 0.200000
v 0.500000 0.000000 -0.200000
v -0.500000 0.000000 -0.200000
v -0.500000 -0.100000 -0.200000
v 0.500000 -0.100000 -0.200000
v -0.500000 -0.100000 0.200000
vt 0.685000 0.940000
vt 0.500000 1.000000
vt 0.500000 0.940000
vt 0.470000 0.845000
vt 0.500000 0.870000
vt 0.470000 0.870000
vt 0.470000 0.845000
vt 0.500000 0.870000
vt 0.470000 0.870000
vt 0.470000 0.845000
vt 0.500000 0.870000
vt 0.470000 0.870000
vt 0.470000 0.845000
vt 0.500000 0.870000
vt 0.470000 0.870000
vt 0.685000 1.000000
vt 0.500000 0.845000
vt 0.500000 0.845000
vt 0.500000 0.845000
vt 0.500000 0.845000
vn 0.0000 -1.0000 -0.0000
vn 0.0000 -0.0000 1.0000
vn 1.0000 -0.0000 0.0000
vn 0.0000 0.0000 -1.0000
vn -1.0000 0.0000 0.0000
usemtl texobj1.png.003
s off
f 8/1/1 7/2/1 3/3/1
f 8/4/2 1/5/2 2/6/2
f 3/7/3 4/8/3 1/9/3
f 7/10/4 5/11/4 4/12/4
f 6/13/5 2/14/5 5/15/5
f 8/1/1 6/16/1 7/2/1
f 8/4/2 3/17/2 1/5/2
f 3/7/3 7/18/3 4/8/3
f 7/10/4 6/19/4 5/11/4
f 6/13/5 8/20/5 2/14/5
