# Blender v3.2.1 OBJ File: ''
# www.blender.org
mtllib mi24.mtl
v -6.908641 4.326588 1.602121
v 6.908641 1.089528 -1.299895
v -6.908641 4.088062 0.876338
v 6.908641 0.851003 -2.025679
v -3.454320 3.819168 0.058148
v 0.000000 4.308850 -0.102784
v 3.454320 3.339071 -1.402687
v 3.454320 3.100546 -2.128470
v 0.000000 4.070325 -0.828567
v -3.454320 3.580642 -0.667635
v -2.637834 2.294995 -7.272483
v 1.154920 4.487976 6.323437
v -1.913581 2.053701 -7.242635
v 1.879172 4.246682 6.353286
v -0.872902 3.205866 -3.934851
v -0.488095 4.399550 -0.823778
v 1.033280 4.530034 2.673498
v 1.757533 4.288740 2.703347
v 0.236157 4.158257 -0.793929
v -0.148649 2.964571 -3.905002
v -0.732737 1.252984 -5.459307
v -0.732737 1.741476 -4.115955
v -0.244246 1.741476 -5.825675
v -0.488492 1.252984 -6.069921
v 0.488492 1.985721 -3.993832
v 0.732737 1.741476 -4.115955
v 0.244246 1.741476 -5.825675
v 0.488492 1.252984 -6.069921
v 0.488492 2.962704 -2.039866
v -0.488492 2.962704 -2.039866
v -0.366369 2.474213 -3.871710
v 0.366369 2.474213 -3.871710
v -0.488492 1.985721 -3.993832
v -0.854860 3.695441 -2.039866
v -0.854860 2.596335 -2.039866
v -0.976983 0.886616 -3.261096
v 0.854860 2.596335 -2.039866
v 0.000000 0.520247 4.310523
v 1.221229 2.596335 5.775998
v 0.854860 3.695441 -2.039866
v 0.000000 4.550302 3.699909
v 0.000000 4.306056 0.158345
v 0.000000 3.451195 6.630858
v -0.976983 3.939687 0.158345
v 0.976983 3.939687 0.036222
v 1.221229 2.718458 3.455663
v 0.000000 3.573318 14.080353
v 2.930949 2.840580 13.836107
v 0.244246 2.718458 12.859124
v 0.122123 2.840580 14.324598
v -0.122123 2.840580 14.324598
v -0.244246 2.718458 12.859124
v -2.930949 2.840580 13.836107
v 5.495530 1.375107 5.043261
v 5.617652 1.375107 3.944155
v 4.274301 1.745749 2.845049
v 3.902187 1.500163 2.845049
v 4.518547 1.501503 2.845049
v 4.396424 1.013011 2.845049
v -4.336452 1.013139 2.842627
v -4.166541 1.748602 2.846716
v -4.442071 1.500128 2.839725
v -3.934381 1.075985 2.850007
v 2.889691 1.435616 6.023791
v 2.719779 2.171079 6.019702
v 2.995309 1.922605 6.026694
v 2.487620 1.498462 6.016412
v 0.000000 2.962703 15.790072
v 0.000000 6.137898 16.522812
v 0.000000 6.137898 17.866163
v -5.617652 1.375107 3.944155
v -5.617652 1.375107 5.043261
v -3.942480 1.013473 6.021370
v -3.807590 1.496145 2.846175
v -2.672818 2.168225 6.021369
v -2.300704 1.922640 6.021369
v -2.917063 1.923980 6.021370
v -2.794941 1.435488 6.021370
v -2.283468 1.918622 2.846175
v -2.418358 1.435950 6.021370
v -2.410259 1.498462 2.850007
v -2.917949 1.922605 2.839725
v -2.642418 2.171079 2.846716
v -2.812330 1.435616 2.842627
v -4.319063 1.013011 6.021370
v -4.441186 1.501503 6.021370
v -3.824827 1.500163 6.021370
v -4.196940 1.745749 6.021370
v 0.732737 1.252984 -5.459307
v 0.488492 0.886616 -6.192044
v 0.976983 0.886616 -3.261096
v 0.000000 0.276001 -5.947799
v -0.488492 0.886616 -6.192044
v -1.221229 2.596335 5.775998
v -1.221229 2.718458 3.455663
v 2.495718 1.435950 2.845049
v 2.360829 1.918622 6.020244
v 2.872301 1.435488 2.845049
v 2.994424 1.923980 2.845049
v 2.378064 1.922640 2.845049
v 2.750179 2.168225 2.845049
v 3.884951 1.496145 6.020244
v 4.019841 1.013473 2.845049
v 4.011742 1.075985 6.016411
v 4.519432 1.500128 6.026694
v 4.243902 1.748602 6.019702
v 4.413814 1.013139 6.023791
vt 0.515625 0.062500
vt 0.734375 0.062500
vt 0.734375 0.125000
vt 0.515625 0.125000
vt 0.437500 0.062500
vt 0.617188 0.062500
vt 0.617188 0.125000
vt 0.437500 0.125000
vt 0.515625 0.062500
vt 0.734375 0.062500
vt 0.734375 0.125000
vt 0.515625 0.125000
vt 0.554688 0.062500
vt 0.734375 0.062500
vt 0.734375 0.125000
vt 0.554688 0.125000
vt 0.515625 0.062500
vt 0.734375 0.062500
vt 0.734375 0.125000
vt 0.515625 0.125000
vt 0.437500 0.062500
vt 0.617188 0.062500
vt 0.617188 0.125000
vt 0.437500 0.125000
vt 0.515625 0.062500
vt 0.734375 0.062500
vt 0.734375 0.125000
vt 0.515625 0.125000
vt 0.554688 0.062500
vt 0.734375 0.062500
vt 0.734375 0.125000
vt 0.554688 0.125000
vt 0.046875 0.171875
vt 0.109375 0.175781
vt 0.109375 0.199219
vt 0.046875 0.218750
vt 0.203125 0.148438
vt 0.191406 0.175781
vt 0.167969 0.175781
vt 0.156250 0.148438
vt 0.015625 0.167969
vt 0.066406 0.183594
vt 0.066406 0.195312
vt 0.003906 0.183594
vt -0.007812 0.167969
vt 0.066406 0.195312
vt 0.066406 0.183594
vt 0.015625 0.167969
vt 0.003906 0.183594
vt -0.007812 0.167969
vt 0.164062 0.238281
vt 0.167969 0.183594
vt 0.191406 0.183594
vt 0.195312 0.238281
vt 0.140625 0.218750
vt 0.140625 0.226562
vt 0.074219 0.210938
vt 0.066406 0.160156
vt 0.042969 0.160156
vt 0.039062 0.144531
vt 0.070312 0.144531
vt 0.039062 0.136719
vt 0.039062 0.152344
vt 0.046875 0.175781
vt 0.140625 0.218750
vt 0.074219 0.210938
vt 0.140625 0.226562
vt 0.574219 0.128906
vt 0.574219 0.207031
vt 0.636719 0.207031
vt 0.636719 0.128906
vt 0.500000 0.226562
vt 0.289062 0.218750
vt 0.230469 0.132812
vt 0.539062 0.140625
vt 0.371094 0.277344
vt 0.289062 0.265625
vt 0.427451 0.196078
vt 0.396078 0.196078
vt 0.403922 0.156863
vt 0.419608 0.156863
vt 0.388235 0.188235
vt 0.419608 0.164706
vt 0.388235 0.141176
vt 0.230469 0.132812
vt 0.289062 0.218750
vt 0.500000 0.226562
vt 0.289062 0.265625
vt 0.371094 0.277344
vt 0.593750 0.218750
vt 0.388235 0.188235
vt 0.388235 0.141176
vt 0.419608 0.164706
vt 0.511719 0.304688
vt 0.371094 0.292969
vt 0.593750 0.218750
vt 0.628906 0.257812
vt 0.584314 0.039216
vt 0.647059 0.039216
vt 0.647059 0.109804
vt 1.015625 0.152344
vt 0.957031 0.187500
vt 0.652344 0.187500
vt 0.585938 0.132812
vt 0.652344 0.187500
vt 0.691406 0.210938
vt 0.859375 0.210938
vt 0.941406 0.171875
vt 0.953125 0.214844
vt 0.953125 0.214844
vt 0.941406 0.171875
vt 0.859375 0.210938
vt 0.593750 0.164062
vt 0.617188 0.281250
vt 0.562500 0.281250
vt 0.562500 0.164062
vt 0.582031 0.000000
vt 0.582031 0.062500
vt 0.437500 0.062500
vt 0.437500 0.000000
vt 0.582031 0.000000
vt 0.582031 0.062500
vt 0.437500 0.062500
vt 0.437500 0.000000
vt 0.710938 0.003906
vt 0.726562 0.042969
vt 0.687500 0.066406
vt 0.656250 0.042969
vt 0.671875 0.003906
vt 0.437500 0.062500
vt 0.437500 0.000000
vt 0.582031 0.000000
vt 0.582031 0.062500
vt 0.437500 0.062500
vt 0.437500 0.000000
vt 0.582031 0.000000
vt 0.582031 0.062500
vt 0.710938 0.003906
vt 0.687500 0.066406
vt 0.656250 0.042969
vt 0.671875 0.003906
vt 0.726562 0.042969
vt 0.894531 0.183594
vt 0.878906 0.250000
vt 0.746094 0.250000
vt 0.777344 0.207031
vt 0.593750 0.164062
vt 0.562500 0.164062
vt 0.562500 0.281250
vt 0.617188 0.281250
vt 0.710938 0.003906
vt 0.726562 0.042969
vt 0.687500 0.066406
vt 0.656250 0.042969
vt 0.671875 0.003906
vt 0.582031 0.000000
vt 0.582031 0.062500
vt 0.437500 0.062500
vt 0.437500 0.000000
vt 0.582031 0.000000
vt 0.582031 0.062500
vt 0.437500 0.062500
vt 0.437500 0.000000
vt 0.710938 0.003906
vt 0.687500 0.066406
vt 0.656250 0.042969
vt 0.671875 0.003906
vt 0.726562 0.042969
vt 0.437500 0.062500
vt 0.437500 0.000000
vt 0.582031 0.000000
vt 0.582031 0.062500
vt 0.437500 0.062500
vt 0.437500 0.000000
vt 0.582031 0.000000
vt 0.582031 0.062500
vt 0.304688 0.390625
vt 0.273438 0.378906
vt 0.410156 0.371094
vt 0.371094 0.410156
vt 0.464844 0.449219
vt -0.011719 0.160156
vt 0.498039 0.180392
vt 0.380392 0.180392
vt 0.380392 0.133333
vt 0.490196 0.133333
vt 0.273438 0.394531
vt 0.308594 0.347656
vt 0.343750 0.394531
vt 0.410156 0.371094
vt 0.273438 0.378906
vt 0.304688 0.390625
vt 0.371094 0.410156
vt 0.464844 0.449219
vt 0.281250 0.390625
vt 0.277344 0.347656
vt 0.437500 0.062500
vt 0.437500 0.000000
vt 0.582031 0.000000
vt 0.582031 0.062500
vt 0.437500 0.062500
vt 0.437500 0.000000
vt 0.582031 0.000000
vt 0.582031 0.062500
vt 0.582031 0.000000
vt 0.582031 0.062500
vt 0.437500 0.062500
vt 0.437500 0.000000
vt 0.582031 0.000000
vt 0.582031 0.062500
vt 0.437500 0.062500
vt 0.437500 0.000000
vt 0.582031 0.000000
vt 0.582031 0.062500
vt 0.437500 0.062500
vt 0.437500 0.000000
vt 0.710938 0.003906
vt 0.726562 0.042969
vt 0.687500 0.066406
vt 0.656250 0.042969
vt 0.671875 0.003906
vt 0.582031 0.000000
vt 0.582031 0.062500
vt 0.437500 0.062500
vt 0.437500 0.000000
vt 0.710938 0.003906
vt 0.726562 0.042969
vt 0.687500 0.066406
vt 0.656250 0.042969
vt 0.671875 0.003906
vt 0.437500 0.062500
vt 0.437500 0.000000
vt 0.582031 0.000000
vt 0.582031 0.062500
vt 0.437500 0.062500
vt 0.437500 0.000000
vt 0.582031 0.000000
vt 0.582031 0.062500
vt 0.582031 0.000000
vt 0.582031 0.062500
vt 0.437500 0.062500
vt 0.437500 0.000000
vt 0.582031 0.000000
vt 0.582031 0.062500
vt 0.437500 0.062500
vt 0.437500 0.000000
vt 0.582031 0.000000
vt 0.582031 0.062500
vt 0.437500 0.062500
vt 0.437500 0.000000
vt 0.710938 0.003906
vt 0.726562 0.042969
vt 0.687500 0.066406
vt 0.656250 0.042969
vt 0.671875 0.003906
vt 0.582031 0.000000
vt 0.582031 0.062500
vt 0.437500 0.062500
vt 0.437500 0.000000
vt 0.710938 0.003906
vt 0.726562 0.042969
vt 0.687500 0.066406
vt 0.656250 0.042969
vt 0.671875 0.003906
vn 0.5318 0.8045 -0.2644
vn -0.0000 0.9500 -0.3122
vn -0.1476 0.9396 -0.3088
vn 0.1476 0.9396 -0.3088
vn 0.3161 0.9487 0.0004
vn 0.3048 0.8656 -0.3974
vn 0.3070 0.8752 -0.3738
vn 0.3177 0.9323 -0.1730
vn 0.0000 0.9912 -0.1322
vn 0.0000 0.4472 -0.8944
vn -0.6096 0.7450 -0.2709
vn -0.7607 0.6224 -0.1844
vn -0.7785 0.5449 -0.3114
vn 0.6096 0.7450 -0.2709
vn 0.7607 0.6224 -0.1844
vn 0.7785 0.5449 -0.3114
vn 0.0000 0.9662 -0.2577
vn -0.5743 0.7445 -0.3403
vn -0.6882 0.6882 -0.2294
vn -0.9180 0.2956 -0.2645
vn 0.0000 0.2425 -0.9701
vn -0.3124 0.1562 -0.9370
vn 0.8285 0.4990 -0.2542
vn 0.6882 0.6882 -0.2294
vn 0.0000 0.9932 -0.1168
vn -0.0069 0.9938 -0.1108
vn -0.9904 0.1198 -0.0687
vn -0.8852 -0.4559 0.0922
vn -0.9985 0.0000 -0.0555
vn -0.9976 0.0188 -0.0669
vn 0.0000 0.0000 -1.0000
vn 0.9904 0.1198 -0.0687
vn 0.8852 -0.4559 0.0922
vn 0.9983 0.0000 -0.0587
vn 0.8695 -0.4932 -0.0260
vn 0.9977 0.0125 -0.0668
vn -0.8291 0.5578 -0.0385
vn -0.3343 0.8916 0.3054
vn -0.5927 0.8043 0.0423
vn -0.0615 0.1641 -0.9845
vn -0.8277 0.5255 0.1971
vn 0.3676 0.8838 0.2894
vn 0.8291 0.5578 -0.0385
vn 0.5927 0.8043 0.0423
vn 0.8277 0.5255 0.1971
vn -0.9499 0.2942 0.1051
vn -0.8163 -0.5650 0.1202
vn 0.5670 0.8236 -0.0135
vn 0.8163 -0.5650 0.1202
vn 0.9499 0.2942 0.1051
vn -0.5670 0.8236 -0.0135
vn -0.0147 0.9963 -0.0842
vn 0.0147 0.9963 -0.0842
vn 0.2867 0.9567 0.0504
vn 0.2795 0.9596 0.0311
vn 0.7071 0.7071 0.0061
vn 0.6697 0.7426 0.0001
vn -0.5508 0.8346 -0.0019
vn -0.5753 0.8179 -0.0062
vn -0.1547 -0.9878 0.0191
vn -0.0012 -1.0000 0.0000
vn -0.9574 -0.2888 -0.0056
vn -0.9720 -0.2350 0.0021
vn -1.0000 0.0000 0.0000
vn -0.2676 0.9635 0.0000
vn -0.2867 0.9567 0.0504
vn 0.0000 0.0000 1.0000
vn 0.9720 -0.2350 -0.0021
vn 0.9574 -0.2888 0.0056
vn 0.0012 -1.0000 -0.0000
vn 0.1547 -0.9878 -0.0191
vn 0.5753 0.8179 0.0062
vn 0.5508 0.8346 0.0019
vn -0.6697 0.7426 -0.0001
vn -0.7071 0.7071 -0.0061
vn -0.9370 -0.3123 -0.1562
vn -0.9760 0.2045 -0.0744
vn -0.9799 0.1575 -0.1225
vn -0.9214 0.1229 -0.3686
vn 0.0000 0.3162 -0.9487
vn 0.0000 -0.3714 -0.9285
vn 0.9370 -0.3123 -0.1562
vn 0.9760 0.2045 -0.0744
vn 0.9799 0.1575 -0.1225
vn 0.9214 0.1229 -0.3686
vn 0.7498 -0.6498 -0.1250
vn -0.7498 -0.6498 -0.1250
vn -0.8695 -0.4932 -0.0260
vn 0.9773 -0.2119 -0.0053
vn 0.9701 -0.2425 -0.0004
vn -0.0257 -0.0004 0.9997
vn -0.0208 -0.0154 0.9997
vn -0.0021 0.0051 1.0000
vn -0.9773 -0.2119 0.0053
vn -0.9701 -0.2425 0.0004
vn 0.0257 -0.0004 -0.9997
vn 0.0208 -0.0154 -0.9997
vn 0.0021 0.0051 -1.0000
usemtl mi24
s off
f 7/1/1 2/2/1 4/3/1 8/4/1
f 1/5/2 5/6/2 10/7/2 3/8/2
f 5/9/3 6/10/3 9/11/3 10/12/3
f 6/13/4 7/14/4 8/15/4 9/16/4
f 17/17/5 12/18/5 14/19/5 18/20/5
f 11/21/6 15/22/6 20/23/6 13/24/6
f 15/25/7 16/26/7 19/27/7 20/28/7
f 16/29/8 17/30/8 18/31/8 19/32/8
f 25/33/9 27/34/9 23/35/9
f 23/35/9 33/36/9 25/33/9
f 24/37/10 23/38/10 27/39/10
f 27/39/10 28/40/10 24/37/10
f 21/41/11 22/42/11 33/43/11
f 21/41/12 33/43/12 23/44/12
f 24/45/13 21/41/13 23/44/13
f 25/46/14 26/47/14 89/48/14
f 27/49/15 25/46/15 89/48/15
f 28/50/16 27/49/16 89/48/16
f 29/51/17 32/52/17 31/53/17
f 31/53/17 30/54/17 29/51/17
f 33/43/18 22/42/18 35/55/18
f 35/55/19 30/56/19 31/57/19
f 33/43/20 35/55/20 31/57/20
f 31/58/21 32/59/21 25/60/21
f 25/60/21 33/61/21 31/58/21
f 26/62/22 25/63/22 32/64/22
f 37/65/23 26/47/23 32/66/23
f 37/65/24 32/66/24 29/67/24
f 45/68/25 40/69/25 34/70/25
f 34/70/26 44/71/26 45/68/26
f 95/72/27 35/73/27 36/74/27
f 38/75/28 95/72/28 36/74/28
f 35/73/29 44/76/29 34/77/29
f 35/73/30 95/72/30 44/76/30
f 34/78/31 40/79/31 29/80/31
f 29/80/31 30/81/31 34/78/31
f 34/82/31 30/83/31 35/84/31
f 91/85/32 37/86/32 46/87/32
f 91/85/33 46/87/33 38/75/33
f 37/86/34 40/88/34 45/89/34
f 38/75/35 46/87/35 39/90/35
f 37/86/36 45/89/36 46/87/36
f 40/91/31 37/92/31 29/93/31
f 95/72/37 41/94/37 42/95/37
f 42/95/38 44/76/38 95/72/38
f 94/96/39 43/97/39 95/72/39
f 44/98/40 42/99/40 45/100/40
f 43/97/41 41/94/41 95/72/41
f 46/87/42 45/89/42 42/95/42
f 42/95/43 41/94/43 46/87/43
f 39/90/44 46/87/44 43/97/44
f 43/97/45 46/87/45 41/94/45
f 68/101/46 47/102/46 94/103/46
f 94/103/47 38/104/47 68/101/47
f 47/102/48 39/105/48 43/106/48
f 68/101/49 38/104/49 39/105/49
f 39/105/50 47/102/50 68/101/50
f 43/106/51 94/103/51 47/102/51
f 48/107/52 49/108/52 50/109/52
f 51/110/53 52/111/53 53/112/53
f 55/113/54 46/114/54 39/115/54
f 39/115/55 54/116/55 55/113/55
f 58/117/56 56/118/56 106/119/56
f 106/119/57 105/120/57 58/117/57
f 56/121/58 57/122/58 102/123/58
f 102/123/59 106/124/59 56/121/59
f 103/125/31 57/126/31 56/127/31
f 58/128/31 59/129/31 103/125/31
f 103/125/31 56/127/31 58/128/31
f 64/130/60 67/131/60 96/132/60
f 96/132/61 98/133/61 64/130/61
f 67/134/62 97/135/62 100/136/62
f 100/136/63 96/137/63 67/134/63
f 96/138/31 101/139/31 99/140/31
f 99/140/31 98/141/31 96/138/31
f 96/138/31 100/142/31 101/139/31
f 47/143/64 68/144/64 70/145/64
f 70/145/64 69/146/64 47/143/64
f 71/147/65 72/148/65 94/149/65
f 94/149/66 95/150/66 71/147/66
f 80/151/67 76/152/67 75/153/67
f 77/154/67 78/155/67 80/151/67
f 80/151/67 75/153/67 77/154/67
f 76/156/68 80/157/68 81/158/68
f 81/158/69 79/159/69 76/156/69
f 80/160/70 78/161/70 84/162/70
f 84/162/71 81/163/71 80/160/71
f 73/164/67 88/165/67 86/166/67
f 86/166/67 85/167/67 73/164/67
f 73/164/67 87/168/67 88/165/67
f 74/169/72 61/170/72 88/171/72
f 88/171/73 87/172/73 74/169/73
f 61/173/74 62/174/74 86/175/74
f 86/175/75 88/176/75 61/173/75
f 21/177/76 93/178/76 36/179/76
f 22/180/77 21/177/77 36/179/77
f 35/181/78 22/180/78 36/179/78
f 21/41/79 24/45/79 93/182/79
f 90/183/80 93/184/80 24/185/80
f 24/185/80 28/186/80 90/183/80
f 90/187/81 92/188/81 93/189/81
f 91/190/82 90/191/82 89/192/82
f 91/190/83 89/192/83 26/193/83
f 91/190/84 26/193/84 37/194/84
f 90/191/85 28/195/85 89/192/85
f 90/191/86 91/190/86 92/196/86
f 36/179/87 93/178/87 92/196/87
f 38/75/88 94/96/88 95/72/88
f 97/197/59 65/198/59 101/199/59
f 101/199/58 100/200/58 97/197/58
f 65/201/57 66/202/57 99/203/57
f 99/203/56 101/204/56 65/201/56
f 57/205/63 103/206/63 104/207/63
f 104/207/62 102/208/62 57/205/62
f 103/209/61 59/210/61 107/211/61
f 107/211/60 104/212/60 103/209/60
f 105/213/89 107/214/89 59/215/89
f 59/215/90 58/216/90 105/213/90
f 107/217/91 105/218/91 106/219/91
f 102/220/92 104/221/92 107/217/92
f 107/217/93 106/219/93 102/220/93
f 66/222/89 64/223/89 98/224/89
f 98/224/90 99/225/90 66/222/90
f 64/226/91 66/227/91 65/228/91
f 97/229/92 67/230/92 64/226/92
f 64/226/93 65/228/93 97/229/93
f 79/231/72 83/232/72 75/233/72
f 75/233/73 76/234/73 79/231/73
f 83/235/74 82/236/74 77/237/74
f 77/237/75 75/238/75 83/235/75
f 87/239/68 73/240/68 63/241/68
f 63/241/69 74/242/69 87/239/69
f 73/243/70 85/244/70 60/245/70
f 60/245/71 63/246/71 73/243/71
f 62/247/94 60/248/94 85/249/94
f 85/249/95 86/250/95 62/247/95
f 60/251/96 62/252/96 61/253/96
f 74/254/97 63/255/97 60/251/97
f 60/251/98 61/253/98 74/254/98
f 82/256/94 84/257/94 78/258/94
f 78/258/95 77/259/95 82/256/95
f 84/260/96 82/261/96 83/262/96
f 79/263/97 81/264/97 84/260/97
f 84/260/98 83/262/98 79/263/98
