# Blender v3.2.1 OBJ File: ''
# www.blender.org
mtllib npc_doll.mtl
v 0.265040 2.274448 -0.172501
v 0.365027 1.498922 -0.159878
v 0.012799 2.182369 -0.416224
v 0.285132 1.538687 -0.421853
v 0.013113 1.456138 -0.541223
v 0.014369 1.311252 -0.185111
v -0.303641 1.490892 -0.184780
v -0.270050 1.511418 -0.418606
v -0.239912 2.276824 -0.168032
v 0.008247 2.339979 -0.168919
v 0.382522 -0.015003 -0.270057
v 0.233355 -0.012329 -0.271766
v 0.201362 -0.011821 0.275649
v 0.359900 0.135987 -0.229892
v 0.399372 0.135913 -0.062859
v 0.419324 -0.014707 0.190809
v 0.222751 0.126522 0.021629
v 0.223093 0.125882 -0.231611
v 0.301306 0.247351 -0.106213
v -0.351521 -0.015298 0.295381
v -0.323561 -0.015669 -0.166399
v -0.163208 0.125190 -0.131210
v -0.300064 0.135303 -0.126674
v -0.336484 0.135347 0.041147
v -0.157944 0.126009 0.122345
v -0.131606 -0.012348 0.376120
v -0.174251 -0.013077 -0.171009
v -0.239036 0.246677 -0.004219
v 0.629037 2.091146 -0.069984
v 0.767681 2.145095 -0.107879
v 0.634126 1.988116 0.045545
v 1.022468 1.974015 0.046704
v 0.721708 1.971570 -0.112442
v 0.945499 1.989082 0.187051
v 0.683033 2.172705 0.050397
v 1.198116 1.969675 0.134553
v 1.087778 2.134897 0.260380
v 1.057122 2.104811 0.050142
v 0.982082 2.127163 0.190681
v 1.113805 1.986402 0.289348
v 1.170158 2.110883 0.105393
v -0.682031 2.095013 -0.219985
v -0.700934 2.194254 -0.071468
v -0.582389 2.100613 -0.098598
v -0.625762 1.953601 -0.121368
v -1.018501 2.116462 -0.012517
v -1.004261 2.041696 -0.124405
v -0.955166 1.916586 -0.036581
v -0.970070 1.995449 0.081715
v -1.192242 2.011863 -0.076280
v -1.138639 1.873824 0.020868
v -1.137958 2.103084 0.025229
v -1.084934 1.969141 0.128574
v -0.645881 2.059219 0.036690
v -0.578519 1.940098 -0.086860
v -0.642225 2.091723 -0.250009
v -0.309846 2.126740 -0.238293
v -0.670977 2.216363 -0.121317
v -0.252904 2.289608 -0.064344
v -0.228399 2.147621 0.082389
v -0.733305 2.064234 -0.129886
v -0.124692 2.146364 -0.061882
v -0.274706 1.923133 -0.028015
v -0.608701 2.072477 0.033679
v 0.402332 2.111594 -0.252376
v 0.727790 2.089544 -0.178705
v 0.303471 2.294523 -0.123030
v 0.626174 2.108879 0.088330
v 0.318514 1.938204 -0.029174
v 0.627369 1.959735 -0.015207
v 0.786997 2.083198 -0.037463
v 0.723284 2.232034 -0.066613
v 0.179563 2.147788 -0.130423
v 0.245001 2.173570 0.032673
v 0.141346 2.319842 -0.104877
v 0.150977 2.662745 -0.118786
v 0.123490 2.336891 0.070455
v 0.150977 2.670484 0.067537
v -0.117668 2.319842 -0.104877
v -0.127299 2.662745 -0.118786
v -0.099813 2.336891 0.070455
v -0.127299 2.670484 0.067537
v 0.011838 2.359816 0.162046
v 0.011838 2.761844 -0.006485
v 0.011838 2.311073 -0.175730
v 0.011838 2.662292 -0.181964
v 0.011838 2.677530 0.159097
v 0.011838 2.281370 0.108730
v -0.083810 0.766558 0.106873
v -0.338832 0.141624 -0.007204
v -0.090828 0.639573 -0.157225
v -0.325317 0.700559 -0.152240
v -0.219371 0.887996 -0.057865
v -0.322869 0.825913 0.102461
v -0.171957 0.101656 -0.181392
v -0.157482 0.145445 0.067965
v -0.308701 0.113016 -0.173788
v 0.366776 0.706884 -0.147631
v 0.345727 0.821380 0.111345
v 0.419657 0.145500 -0.022874
v 0.112290 0.743424 0.104828
v 0.236366 0.131879 0.045400
v 0.243069 0.881526 -0.050207
v 0.397489 0.121203 -0.191235
v 0.262660 0.099644 -0.204236
v 0.138331 0.627940 -0.163297
v 0.011838 2.309730 0.095247
v -0.314955 2.046123 0.121090
v 0.011838 2.045022 0.181303
v -0.251001 1.586986 0.029704
v -0.214393 2.320306 0.052666
v -0.314955 2.055949 -0.198979
v -0.251001 1.593212 -0.173120
v -0.176736 1.421525 -0.073594
v 0.338632 2.046123 0.121090
v 0.274679 1.586986 0.029704
v 0.274679 1.593212 -0.173120
v 0.200414 1.421525 -0.073594
v 0.011838 1.350322 -0.266987
v 0.011838 1.338406 0.121189
v 0.011838 1.602861 0.101801
v 0.238069 2.327156 -0.170471
v 0.238069 2.320306 0.052666
v 0.338632 2.055949 -0.198979
v 0.011838 2.295793 -0.220169
v -0.214393 2.327156 -0.170471
v -0.037806 0.880768 -0.208375
v 0.008478 1.384041 -0.280873
v -0.086649 0.825486 0.124278
v 0.007920 1.389440 0.100163
v -0.293276 0.860104 0.115749
v -0.281779 0.912354 -0.207061
v -0.275666 1.609212 -0.199734
v -0.168327 0.668593 -0.074413
v -0.275882 1.612039 -0.000681
v 0.102075 1.351780 -0.301804
v 0.378028 0.893389 -0.141425
v 0.022079 1.377561 0.069650
v 0.243557 0.653650 -0.021562
v 0.321999 0.858683 0.178860
v 0.118968 0.818507 0.145933
v 0.316562 1.602594 0.017760
v 0.358383 1.589116 -0.176434
v 0.140361 0.854486 -0.191988
vt 0.894291 0.303306
vt 0.876294 0.209897
vt 0.938292 0.286206
vt 0.889109 0.212797
vt 0.937993 0.204509
vt 0.940593 0.189000
vt 0.998906 0.211001
vt 0.991198 0.210496
vt 0.987101 0.304409
vt 0.941491 0.311499
vt 0.371599 0.504790
vt 0.515799 0.585809
vt 0.520198 0.508704
vt 0.521213 0.507890
vt 0.516686 0.585402
vt 0.371689 0.503990
vt 0.370784 0.557406
vt 0.046081 0.052506
vt 0.041979 0.106524
vt 0.068189 0.082331
vt 0.092591 0.056677
vt 0.091200 0.110626
vt 0.066507 0.082095
vt 0.040079 0.106631
vt 0.044215 0.052092
vt 0.091183 0.056298
vt 0.089711 0.110697
vt 0.087701 0.325815
vt 0.183504 0.318873
vt 0.182335 0.461811
vt 0.033478 0.472407
vt 0.064389 0.019405
vt 0.035378 0.070486
vt 0.084486 0.115282
vt 0.125993 0.040817
vt 0.182978 0.460608
vt 0.184093 0.315327
vt 0.086818 0.322312
vt 0.031678 0.471383
vt 0.370594 0.557994
vt 0.318913 0.570187
vt 0.373296 0.599491
vt 0.422517 0.608393
vt 0.447803 0.659485
vt 0.520787 0.662707
vt 0.382510 0.693812
vt 0.389195 0.731810
vt 0.408211 0.651691
vt 0.333808 0.605796
vt 0.333803 0.605495
vt 0.318795 0.569698
vt 0.373500 0.599192
vt 0.422912 0.608106
vt 0.448297 0.659398
vt 0.521805 0.662706
vt 0.382693 0.694011
vt 0.389413 0.732210
vt 0.408600 0.651598
vt 0.420383 0.126894
vt 0.338209 0.141423
vt 0.362611 0.284776
vt 0.270217 0.161584
vt 0.274597 0.312167
vt 0.185123 0.163879
vt 0.181925 0.316478
vt 0.112613 0.144204
vt 0.087376 0.287001
vt 0.270982 0.074892
vt 0.180326 0.075587
vt 0.105869 0.089282
vt 0.360108 0.029286
vt 0.363793 0.112572
vt 0.416003 0.025393
vt 0.420313 0.117300
vt 0.497621 0.109930
vt 0.489000 0.019622
vt 0.455491 0.268995
vt 0.342589 0.086432
vt 0.338779 0.141681
vt 0.363315 0.286300
vt 0.270291 0.162081
vt 0.274567 0.313919
vt 0.184487 0.164394
vt 0.181192 0.318266
vt 0.111302 0.144485
vt 0.085925 0.288473
vt 0.343196 0.086301
vt 0.270992 0.074735
vt 0.179580 0.075366
vt 0.104572 0.089176
vt 0.490829 0.018934
vt 0.499521 0.109925
vt 0.417222 0.024823
vt 0.421499 0.117426
vt 0.364577 0.112729
vt 0.456970 0.270387
vt 0.421569 0.127100
vt 0.360791 0.028678
vt 0.274996 0.314634
vt 0.299111 0.496595
vt 0.403172 0.494768
vt 0.111378 0.085905
vt 0.069870 0.109801
vt 0.077689 0.074432
vt 0.048020 0.059889
vt 0.090916 0.037601
vt 0.073013 0.057478
vt 0.512422 0.430607
vt 0.366707 0.313027
vt 0.454326 0.285404
vt 0.301804 0.495981
vt 0.277281 0.310868
vt 0.407625 0.494197
vt 0.370469 0.309307
vt 0.518722 0.428876
vt 0.459569 0.281217
vt 0.090013 0.029223
vt 0.046392 0.051814
vt 0.076637 0.066603
vt 0.068611 0.102570
vt 0.110895 0.078418
vt 0.033610 0.062590
vt 0.083474 0.108218
vt 0.071806 0.049511
vt 0.125683 0.032493
vt 0.062963 0.010720
vt 0.534172 0.019081
vt 0.519668 0.319788
vt 0.660271 0.031712
vt 0.650208 0.325478
vt 0.830992 0.044967
vt 0.810034 0.331100
vt 0.948416 0.073768
vt 0.948832 0.331377
vt 0.660271 0.031712
vt 0.650208 0.325478
vt 0.830992 0.044967
vt 0.810034 0.331100
vt 0.744799 0.473021
vt 0.894215 0.441583
vt 0.576367 0.433602
vt 0.925375 0.018179
vt 0.029785 0.556875
vt 0.049987 0.724204
vt 0.105516 0.562591
vt 0.139022 0.729623
vt 0.160307 0.543621
vt 0.201499 0.727603
vt 0.272106 0.680696
vt 0.343895 0.658819
vt 0.352715 0.709323
vt 0.320294 0.695281
vt 0.295904 0.721395
vt 0.285606 0.678085
vt 0.232195 0.495877
vt 0.198000 0.517507
vt 0.032889 0.548696
vt 0.063290 0.501789
vt 0.104383 0.551899
vt 0.108916 0.514698
vt 0.328621 0.634085
vt 0.274381 0.682804
vt 0.203403 0.729908
vt 0.161994 0.544908
vt 0.140597 0.731889
vt 0.106915 0.563977
vt 0.051093 0.726490
vt 0.030785 0.558380
vt 0.287903 0.680079
vt 0.298305 0.723717
vt 0.322823 0.697514
vt 0.355415 0.711482
vt 0.346499 0.660812
vt 0.234310 0.497011
vt 0.199787 0.518705
vt 0.033906 0.550109
vt 0.105677 0.553279
vt 0.064417 0.503004
vt 0.110283 0.515882
vt 0.331194 0.635996
vt 0.979535 0.975022
vt 0.854474 0.884169
vt 0.954903 0.847184
vt 0.794685 0.788930
vt 0.927493 0.744637
vt 0.766618 0.610001
vt 0.868874 0.584931
vt 0.844022 0.495978
vt 0.760113 0.895498
vt 0.662170 0.785787
vt 0.682636 0.607882
vt 0.713626 0.553428
vt 0.602965 0.497074
vt 0.794685 0.788930
vt 0.766618 0.610001
vt 0.682636 0.607882
vt 0.713626 0.553428
vt 0.668090 0.893378
vt 0.760113 0.895498
vt 0.662170 0.785787
vt 0.871432 0.974583
vt 0.854474 0.884169
vt 0.871432 0.974583
vt 0.668090 0.893378
vt 0.049617 0.737374
vt 0.029784 0.897680
vt 0.138206 0.729705
vt 0.144023 0.890222
vt 0.200984 0.727696
vt 0.233722 0.931475
vt 0.287722 0.727220
vt 0.293698 0.931423
vt 0.376416 0.879592
vt 0.295391 0.722407
vt 0.283596 0.677399
vt 0.329504 0.693688
vt 0.342885 0.657777
vt 0.357482 0.709079
vt 0.121176 0.986109
vt 0.061411 0.990023
vt 0.360814 0.718810
vt 0.376316 0.880326
vt 0.294075 0.931699
vt 0.288081 0.728675
vt 0.234393 0.931805
vt 0.201897 0.729201
vt 0.145212 0.890684
vt 0.139480 0.731094
vt 0.031684 0.898309
vt 0.051403 0.738876
vt 0.357491 0.710691
vt 0.342978 0.659686
vt 0.329674 0.695284
vt 0.284084 0.679194
vt 0.295705 0.723890
vt 0.122496 0.986123
vt 0.063077 0.990014
vt 0.360804 0.720314
vn 0.4770 0.4401 -0.7608
vn 0.8321 -0.3275 -0.4475
vn -0.0060 0.4595 -0.8882
vn 0.7675 -0.2280 -0.5991
vn 0.0054 -0.5052 -0.8630
vn 0.0340 -0.9473 -0.3185
vn -0.8545 -0.3639 -0.3707
vn -0.7949 -0.2630 -0.5468
vn -0.4765 0.4470 -0.7570
vn -0.0008 0.8433 -0.5375
vn -0.0132 -0.9999 0.0002
vn 0.0133 -0.9999 0.0003
vn 0.0174 -0.9998 0.0019
vn -0.7900 -0.4744 -0.3883
vn -0.2998 0.1044 -0.9483
vn -0.4230 0.8269 -0.3705
vn 0.7693 -0.1301 -0.6255
vn 0.4928 0.7511 -0.4392
vn 0.6090 0.6321 0.4792
vn 0.8929 -0.3135 0.3231
vn 0.0993 -0.7092 -0.6979
vn 0.0962 -0.7070 -0.7006
vn -0.9673 0.0815 0.2404
vn -0.9673 0.0813 0.2404
vn 0.0790 -0.8038 -0.5896
vn 0.0827 -0.8018 -0.5918
vn 0.6106 0.3221 -0.7235
vn 0.7026 -0.1730 0.6902
vn 0.1169 0.2447 -0.9625
vn 0.5270 0.5151 -0.6759
vn 0.8335 0.5173 0.1938
vn -0.6069 0.7047 0.3675
vn -0.2203 0.8591 0.4620
vn -0.9051 0.3861 -0.1782
vn -0.0081 0.9981 0.0614
vn 0.9012 0.3866 -0.1957
vn -0.1112 0.2725 -0.9557
vn -0.5397 0.5152 -0.6658
vn -0.6391 0.2403 -0.7306
vn -0.8295 0.5179 0.2092
vn -0.4424 0.7851 0.4335
vn 0.6137 0.7051 0.3552
vn 0.2291 0.8593 0.4574
vn 0.0095 0.9981 0.0603
vn -0.1331 -0.7576 0.6390
vn -0.9439 0.3248 0.0597
vn -0.9360 0.2412 0.2564
vn 0.1005 0.9894 -0.1051
vn 0.5011 0.1963 -0.8428
vn 0.4528 0.5835 -0.6742
vn 0.2872 -0.7714 -0.5679
vn 0.2694 -0.8261 -0.4950
vn -0.3582 -0.6505 0.6698
vn 0.1550 -0.8259 -0.5421
vn -0.4854 -0.7033 0.5194
vn -0.4515 0.2018 0.8691
vn 0.5512 0.7936 0.2577
vn -0.2891 0.9129 -0.2883
vn -0.2167 0.9679 0.1270
vn -0.2844 0.1262 -0.9504
vn -0.2899 0.0336 -0.9565
vn 0.1150 -0.9761 -0.1846
vn 0.0541 -0.9748 -0.2164
vn 0.0749 0.6319 0.7714
vn 0.0002 0.5763 0.8172
vn -0.4632 0.3458 0.8160
vn -0.1696 0.0444 -0.9845
vn 0.2601 -0.9135 -0.3130
vn 0.2974 -0.7125 0.6355
vn 0.0341 0.0916 -0.9952
vn 0.0244 0.1012 -0.9946
vn -0.1728 0.9803 -0.0961
vn -0.1952 0.9608 0.1970
vn -0.1645 0.2346 0.9581
vn -0.9232 0.3730 0.0929
vn -0.7457 -0.2419 -0.6208
vn -0.9679 -0.2472 -0.0460
vn -0.6421 -0.7555 0.1301
vn -0.7625 -0.2570 0.5938
vn 0.8116 0.0363 0.5831
vn 0.8113 -0.5669 -0.1431
vn 0.9936 0.0616 -0.0944
vn 0.6920 -0.0809 -0.7173
vn 0.7303 0.6501 -0.2097
vn -0.0710 -0.5123 0.8559
vn -0.2231 0.0897 0.9707
vn -0.1753 -0.6844 0.7077
vn 0.9477 0.3058 -0.0909
vn 0.9477 0.3058 -0.0913
vn -0.1540 -0.2672 -0.9513
vn -0.6425 0.6142 -0.4582
vn 0.1437 0.9665 -0.2127
vn -0.0581 0.3750 0.9252
vn 0.5297 -0.0900 0.8434
vn -0.7486 -0.6491 -0.1353
vn 0.5935 -0.7018 0.3939
vn 0.7088 -0.4027 -0.5791
vn 0.9517 -0.2088 0.2250
vn -0.9411 0.0053 -0.3381
vn -0.2757 -0.4093 -0.8698
vn -0.0000 -0.1980 -0.9802
vn 0.8686 -0.0289 -0.4947
vn 0.7640 0.4103 -0.4980
vn 0.8467 -0.1378 0.5139
vn 0.8125 0.4205 0.4038
vn -0.3393 -0.6639 0.6664
vn -0.0001 0.9312 0.3644
vn -0.8686 -0.0289 -0.4947
vn -0.7640 0.4103 -0.4980
vn -0.8467 -0.1378 0.5139
vn -0.8125 0.4205 0.4038
vn -0.4109 0.9104 0.0473
vn 0.0798 -0.8902 0.4486
vn -0.4869 -0.6900 -0.5355
vn 0.8802 0.4641 -0.0997
vn 0.6022 -0.0161 0.7982
vn 0.4206 -0.2146 0.8815
vn -0.9017 0.0803 0.4249
vn -0.3145 0.9328 0.1758
vn -0.8602 0.0009 -0.5099
vn 0.0462 0.9402 -0.3375
vn -0.5799 0.1202 -0.8058
vn 0.8742 0.0880 -0.4775
vn 0.2331 0.9468 0.2219
vn 0.8774 0.1334 0.4609
vn -0.4314 -0.2817 0.8570
vn -0.6263 -0.0954 0.7737
vn -0.9107 0.3968 -0.1149
vn 0.5578 -0.6283 -0.5423
vn -0.1099 0.9464 -0.3038
vn 0.5954 0.1966 -0.7790
vn 0.0211 0.9958 0.0886
vn -0.8788 0.4633 0.1143
vn 0.0660 0.8109 0.5815
vn -0.7610 0.0809 0.6437
vn 0.1929 0.0369 0.9805
vn -0.7917 -0.2895 0.5379
vn 0.2610 -0.0551 0.9638
vn -0.5361 -0.6556 0.5318
vn -0.9940 0.1094 0.0034
vn -0.9356 -0.3317 -0.1206
vn -0.7151 -0.6987 -0.0203
vn -0.5353 -0.8241 -0.1854
vn 0.7610 0.0809 0.6437
vn 0.7917 -0.2895 0.5379
vn 0.9356 -0.3317 -0.1206
vn 0.7151 -0.6987 -0.0203
vn 0.9262 0.3770 0.0116
vn 0.8788 0.4633 0.1143
vn 0.9940 0.1094 0.0034
vn -0.9262 0.3770 0.0116
vn 0.1150 -0.7068 -0.6980
vn 0.9327 0.3506 0.0847
vn 0.6092 -0.0074 0.7930
vn 0.6625 0.3469 0.6639
vn -0.6285 0.1223 0.7682
vn -0.9225 -0.0194 0.3856
vn -0.7435 -0.0045 -0.6687
vn -0.9092 -0.0642 -0.4113
vn -0.0171 -0.9892 -0.1455
vn -0.9354 0.3274 -0.1336
vn 0.9765 -0.0595 -0.2071
vn 0.8679 -0.0187 -0.4965
vn 0.8206 0.0282 0.5708
vn 0.4497 0.1813 0.8746
vn -0.7935 0.3624 0.4889
vn -0.7626 0.0176 0.6466
vn 0.0474 -0.7456 -0.6648
vn 0.0653 -0.9946 -0.0806
usemtl texobj2
s 1
f 1/1/1 2/2/2 3/3/3
f 3/3/3 2/2/2 4/4/4
f 3/3/3 4/4/4 5/5/5
f 5/5/5 4/4/4 2/2/2
f 5/5/5 2/2/2 6/6/6
f 5/5/5 6/6/6 7/7/7
f 5/5/5 7/7/7 8/8/8
f 3/3/3 5/5/5 8/8/8
f 8/8/8 7/7/7 3/3/3
f 3/3/3 7/7/7 9/9/9
f 1/1/1 3/3/3 9/9/9
f 1/1/1 9/9/9 10/10/10
usemtl pstalker
s off
f 12/11/11 16/12/11 13/13/11
f 26/14/12 20/15/12 27/16/12
f 27/16/13 20/15/13 21/17/13
f 33/18/14 31/19/14 29/20/14
f 30/21/15 33/18/15 29/20/15
f 35/22/16 30/21/16 29/20/16
f 44/23/17 45/24/17 42/25/17
f 44/23/18 42/25/18 43/26/18
f 44/23/19 43/26/19 54/27/19
f 44/23/20 54/27/20 45/24/20
f 55/28/21 56/29/21 57/30/21
f 55/28/22 57/30/22 63/31/22
f 60/32/23 59/33/23 57/34/23
f 60/32/24 57/34/24 63/35/24
f 65/36/25 66/37/25 70/38/25
f 65/36/26 70/38/26 69/39/26
s 1
f 11/40/27 16/12/28 12/11/29
f 12/41/29 14/42/30 11/40/27
f 11/40/27 14/42/30 15/43/31
f 11/40/27 15/43/31 16/12/28
f 16/12/28 15/43/31 17/44/32
f 16/12/28 17/44/32 13/45/33
f 13/45/33 17/44/32 18/46/34
f 13/45/33 18/46/34 12/47/29
f 17/44/32 15/43/31 19/48/35
f 19/48/35 15/43/31 14/42/30
f 19/48/35 14/42/30 18/46/34
f 14/42/30 12/41/29 18/49/34
f 18/46/34 17/44/32 19/48/35
f 22/50/36 27/51/37 23/52/38
f 23/52/38 27/51/37 21/17/39
f 23/52/38 21/17/39 24/53/40
f 24/53/40 21/17/39 20/15/41
f 24/53/40 20/15/41 25/54/42
f 25/54/42 20/15/41 26/55/43
f 25/54/42 26/55/43 22/56/36
f 22/56/36 26/55/43 27/57/37
f 22/56/36 23/52/38 28/58/44
f 28/58/44 23/52/38 24/53/40
f 28/58/44 24/53/40 25/54/42
f 28/58/44 25/54/42 22/56/36
f 31/19/45 35/22/46 29/20/47
f 39/59/48 38/60/49 30/61/50
f 30/61/50 38/60/49 32/62/51
f 30/61/50 32/62/51 33/63/52
f 33/63/52 32/62/51 34/64/53
f 33/63/52 34/64/53 31/65/45
f 31/65/45 34/64/53 39/66/48
f 31/65/45 39/66/48 35/67/46
f 38/60/49 36/68/54 32/62/51
f 32/62/51 36/68/54 40/69/55
f 32/62/51 40/69/55 34/64/53
f 34/64/53 40/69/55 37/70/56
f 34/64/53 37/70/56 39/66/48
f 38/71/49 39/72/48 41/73/57
f 41/73/57 39/72/48 37/74/56
f 41/73/57 37/74/56 40/75/55
f 41/73/57 40/75/55 36/76/54
f 30/61/50 35/77/46 39/59/48
f 36/68/54 38/60/49 41/78/57
f 46/79/58 43/80/59 47/81/60
f 47/81/60 43/80/59 42/82/61
f 47/81/60 42/82/61 48/83/62
f 48/83/62 42/82/61 45/84/63
f 48/83/62 45/84/63 49/85/64
f 49/85/64 45/84/63 54/86/65
f 52/87/66 46/79/58 50/88/67
f 50/88/67 46/79/58 47/81/60
f 50/88/67 47/81/60 51/89/68
f 51/89/68 47/81/60 48/83/62
f 51/89/68 48/83/62 53/90/69
f 53/90/69 48/83/62 49/85/64
f 50/91/67 51/92/68 52/93/66
f 52/93/66 51/92/68 53/94/69
f 52/93/66 53/94/69 49/95/64
f 54/96/65 43/80/59 49/97/64
f 49/97/64 43/80/59 46/79/58
f 52/93/66 49/95/64 46/98/58
f 57/30/70 56/29/71 58/99/72
f 57/30/70 58/99/72 59/100/73
f 59/100/73 58/99/72 60/101/74
f 58/102/75 56/103/76 61/104/77
f 61/104/77 56/103/76 55/105/78
f 61/104/77 55/105/78 64/106/79
f 60/32/80 63/35/81 62/107/82
f 62/107/82 63/35/81 57/34/83
f 62/107/82 57/34/83 59/33/84
f 63/108/85 60/101/74 64/109/86
f 64/109/86 60/101/74 58/99/72
f 55/110/87 63/108/85 64/109/86
f 61/104/77 64/106/79 58/102/75
f 62/107/82 59/33/84 60/32/80
f 58/102/88 64/106/89 55/105/89
f 58/102/88 55/105/89 56/103/89
f 65/36/90 67/111/91 72/112/92
f 72/112/92 67/111/91 74/113/93
f 72/112/92 74/113/93 68/114/94
f 68/114/94 74/113/93 69/115/95
f 68/114/94 69/115/95 70/116/96
f 72/112/92 66/37/97 65/36/90
f 68/117/94 70/118/96 71/119/98
f 71/119/98 70/118/96 66/120/97
f 71/119/98 66/120/97 72/121/92
f 67/122/91 65/123/90 73/124/99
f 73/124/99 65/123/90 69/125/95
f 73/124/99 69/125/95 74/126/93
f 72/121/92 68/117/94 71/119/98
f 74/126/93 67/122/91 73/124/99
f 85/127/100 86/128/101 75/129/102
f 75/129/102 86/128/101 76/130/103
f 75/129/102 76/130/103 77/131/104
f 77/131/104 76/130/103 78/132/105
f 77/131/104 78/132/105 83/133/106
f 83/133/106 78/132/105 87/134/107
f 86/128/101 79/135/108 80/136/109
f 80/136/109 79/135/108 81/137/110
f 80/136/109 81/137/110 82/138/111
f 82/138/111 81/137/110 83/133/106
f 82/138/111 83/133/106 87/134/107
f 76/130/103 84/139/112 78/132/105
f 78/132/105 84/139/112 87/140/107
f 79/135/108 86/128/101 85/127/100
f 82/138/111 84/139/112 80/136/109
f 80/136/109 84/139/112 86/141/101
f 81/137/110 88/142/113 83/133/106
f 87/140/107 84/139/112 82/138/111
f 83/133/106 88/142/113 77/131/104
f 86/141/101 84/139/112 76/130/103
f 95/143/114 91/144/115 96/145/116
f 96/145/116 91/144/115 89/146/117
f 96/145/116 89/146/117 90/147/118
f 90/147/118 89/146/117 94/148/119
f 90/147/118 94/148/119 92/149/120
f 91/150/115 92/151/120 93/152/121
f 93/152/121 92/151/120 94/153/119
f 93/152/121 94/153/119 89/154/117
f 95/155/114 97/156/122 92/149/120
f 92/149/120 97/156/122 90/147/118
f 96/157/116 90/158/118 95/159/114
f 95/159/114 90/158/118 97/160/122
f 95/155/114 92/149/120 91/161/115
f 93/152/121 89/154/117 91/150/115
f 98/162/123 99/163/124 100/164/125
f 100/164/125 99/163/124 101/165/126
f 100/164/125 101/165/126 102/166/127
f 102/166/127 101/165/126 106/167/128
f 102/166/127 106/167/128 105/168/129
f 101/169/126 99/170/124 103/171/130
f 103/171/130 99/170/124 98/172/123
f 103/171/130 98/172/123 106/173/128
f 105/174/129 98/162/123 104/175/131
f 104/175/131 98/162/123 100/164/125
f 102/176/127 105/177/129 100/178/125
f 100/178/125 105/177/129 104/179/131
f 98/162/123 105/174/129 106/180/128
f 106/173/128 101/169/126 103/171/130
f 125/181/132 111/182/133 107/183/134
f 107/183/134 111/182/133 108/184/135
f 107/183/134 108/184/135 109/185/136
f 109/185/136 108/184/135 110/186/137
f 109/185/136 110/186/137 121/187/138
f 121/187/138 110/186/137 120/188/139
f 111/189/133 112/190/140 108/184/135
f 108/184/135 112/190/140 113/191/141
f 108/184/135 113/191/141 110/186/137
f 110/186/137 113/191/141 114/192/142
f 110/186/137 114/192/142 120/188/139
f 120/188/139 114/192/142 119/193/143
f 107/183/134 109/185/136 115/194/144
f 115/194/144 109/185/136 116/195/145
f 115/194/144 116/195/145 117/196/146
f 117/196/146 116/195/145 118/197/147
f 117/196/146 118/197/147 119/193/143
f 119/193/143 118/197/147 120/188/139
f 109/185/136 121/187/138 116/195/145
f 116/195/145 121/187/138 120/188/139
f 116/195/145 120/188/139 118/197/147
f 122/198/148 123/199/149 124/200/150
f 124/200/150 123/199/149 115/194/144
f 124/200/150 115/194/144 117/196/146
f 122/201/148 125/181/132 123/202/149
f 123/202/149 125/181/132 107/183/134
f 123/202/149 107/183/134 115/194/144
f 111/182/133 125/181/132 126/203/151
f 112/190/140 111/189/133 126/204/151
f 114/192/142 113/191/141 119/193/143
f 127/205/152 128/206/153 129/207/154
f 129/207/154 128/206/153 130/208/155
f 129/207/154 130/208/155 131/209/156
f 131/209/156 130/208/155 135/210/157
f 131/209/156 135/210/157 132/211/158
f 132/211/158 135/210/157 133/212/159
f 132/211/158 133/212/159 128/213/153
f 129/214/154 131/215/156 134/216/160
f 134/216/160 131/215/156 132/217/158
f 134/216/160 132/217/158 127/218/152
f 130/208/155 128/206/153 135/219/157
f 135/219/157 128/206/153 133/220/159
f 132/211/158 128/213/153 127/221/152
f 134/216/160 127/218/152 129/214/154
f 136/222/161 143/223/162 137/224/163
f 137/224/163 143/223/162 142/225/164
f 137/224/163 142/225/164 140/226/165
f 140/226/165 142/225/164 138/227/166
f 140/226/165 138/227/166 141/228/167
f 141/228/167 138/227/166 136/229/161
f 141/228/167 136/229/161 144/230/168
f 144/231/168 137/232/163 139/233/169
f 139/233/169 137/232/163 140/234/165
f 139/233/169 140/234/165 141/235/167
f 138/227/166 142/236/164 136/229/161
f 136/229/161 142/236/164 143/237/162
f 144/238/168 136/222/161 137/224/163
f 141/235/167 144/231/168 139/233/169
