# Blender v3.2.1 OBJ File: ''
# www.blender.org
mtllib pripyat_house.mtl
v -11.419483 -0.000154 3.338436
v 11.419485 -0.000154 3.338436
v 11.419485 14.644599 3.338443
v -11.419483 14.644599 3.338443
v 11.419485 -0.000151 -3.338451
v 11.419485 14.644603 -3.338445
v -11.419483 -0.000151 -3.338451
v -11.419483 14.644603 -3.338445
v 11.419485 14.644599 3.338443
v 9.716131 16.622421 0.000001
v -9.716125 16.622421 0.000001
v -11.419483 14.644599 3.338443
v 11.419485 14.644603 -3.338445
v -11.419483 14.644603 -3.338445
vt -0.468750 0.200000
vt 1.000000 0.200000
vt 1.000000 1.000000
vt -0.468750 1.000000
vt 0.859375 0.200000
vt 0.859375 1.000000
vt 0.351562 1.000000
vt 0.351562 0.200000
vt -0.468750 0.200000
vt 1.000000 0.200000
vt 1.000000 1.000000
vt -0.468750 1.000000
vt 0.859375 0.200000
vt 0.859375 1.000000
vt 0.351562 1.000000
vt 0.351562 0.200000
vt -0.367188 0.000000
vt -0.234375 0.200000
vt 1.218750 0.200000
vt 1.351562 -0.000000
vt 1.359375 0.000000
vt -0.359375 0.000000
vt -0.226562 0.200000
vt 1.226562 0.200000
vt 0.710938 0.012500
vt 0.382812 0.193750
vt 0.054688 0.012500
vt 0.054688 0.012500
vt 0.382812 0.193750
vt 0.710938 0.012500
vn 0.0000 -0.0000 1.0000
vn 1.0000 0.0000 0.0000
vn 0.0000 0.0000 -1.0000
vn -1.0000 -0.0000 0.0000
vn 0.0000 0.8603 0.5097
vn 0.0000 0.8604 -0.5097
vn 0.7577 0.6526 0.0000
vn -0.7577 0.6526 0.0000
usemtl pripyat_house
s 1
f 1/1/1 2/2/1 3/3/1 4/4/1
f 5/5/2 6/6/2 3/7/2 2/8/2
f 5/9/3 7/10/3 8/11/3 6/12/3
f 1/13/4 4/14/4 8/15/4 7/16/4
f 9/17/5 10/18/5 11/19/5 12/20/5
f 13/21/6 14/22/6 11/23/6 10/24/6
f 13/25/7 10/26/7 9/27/7
f 12/28/8 11/29/8 14/30/8
