# Blender v3.2.1 OBJ File: ''
# www.blender.org
mtllib room_2.mtl
v 0.000000 0.000000 0.000000
v -3.000000 -0.000000 3.000000
v 3.000000 -0.000000 3.000000
v 3.000000 0.000000 -3.000000
v -2.500000 3.000000 0.000000
v -2.500000 3.000000 -2.500000
v 3.000000 3.000000 -3.000000
v 2.500000 3.000000 -2.500000
v 0.000000 3.000000 -2.500000
v 3.000000 3.000000 0.000000
v 2.500000 3.000000 2.500000
v 0.000000 -0.000000 3.000000
v 0.000000 1.500000 3.000000
v 0.000000 3.000000 3.000000
v 3.000000 1.500000 0.000000
v 3.000000 1.500000 3.000000
v 3.000000 3.000000 3.000000
v 3.000000 0.000000 0.000000
v 3.000000 1.500000 -3.000000
v 0.000000 0.000000 -3.000000
v 0.000000 1.500000 -3.000000
v -3.000000 0.000000 -3.000000
v -3.000000 1.500000 -3.000000
v -3.000000 3.000000 -3.000000
v -3.000000 3.000000 0.000000
v -3.000000 3.000000 3.000000
v -3.000000 1.500000 3.000000
v -3.000000 1.500000 0.000000
v -3.000000 0.000000 0.000000
v 0.000000 3.000000 2.500000
v 2.500000 3.500000 -2.500000
v 2.500000 3.000000 0.000000
v 0.000000 3.500000 -2.500000
v 0.000000 3.500000 0.000001
v 2.500000 3.500000 0.000001
v 0.000000 3.500000 2.500000
v -2.500000 3.500000 0.000001
v -2.500000 3.500000 -2.500000
v -2.500000 3.500000 2.500000
v 2.500000 3.500000 2.500000
v -2.500000 3.000000 2.500000
v 0.000000 3.000000 -3.000000
vt 0.845000 0.750000
vt 0.845000 0.875000
vt 1.000000 0.875000
vt 1.000000 0.750000
vt 0.690000 0.875000
vt 0.690000 0.750000
vt 0.845000 1.000000
vt 0.690000 1.000000
vt 1.000000 1.000000
vt 0.715000 0.980000
vt 0.715000 0.875000
vt 0.690000 0.875000
vt 0.690000 1.000000
vt 0.845000 0.980000
vt 0.845000 1.000000
vt 1.000000 1.000000
vt 0.975000 0.980000
vt 0.975000 0.770000
vt 0.975000 0.875000
vt 1.000000 0.875000
vt 1.000000 0.750000
vt 0.690000 0.875000
vt 0.845000 0.875000
vt 0.690000 0.750000
vt 0.845000 1.000000
vt 0.690000 1.000000
vt 1.000000 0.875000
vt 1.000000 1.000000
vt 1.000000 0.750000
vt 0.690000 0.875000
vt 0.845000 0.875000
vt 0.845000 0.750000
vt 0.845000 1.000000
vt 0.690000 1.000000
vt 1.000000 0.875000
vt 1.000000 0.750000
vt 0.690000 0.875000
vt 0.845000 0.875000
vt 0.845000 0.750000
vt 0.690000 0.750000
vt 0.690000 1.000000
vt 1.000000 0.875000
vt 1.000000 1.000000
vt 1.000000 0.750000
vt 0.690000 0.875000
vt 0.845000 0.875000
vt 0.845000 0.750000
vt 0.690000 0.750000
vt 0.845000 1.000000
vt 1.000000 0.875000
vt 1.000000 1.000000
vt 0.715000 0.770000
vt 0.845000 0.770000
vt 0.845000 0.750000
vt 0.690000 0.750000
vt 0.690000 0.950000
vt 0.690000 1.000000
vt 0.845000 1.000000
vt 0.845000 0.950000
vt 0.690000 0.950000
vt 0.690000 1.000000
vt 0.845000 1.000000
vt 0.845000 0.950000
vt 0.690000 0.950000
vt 0.690000 1.000000
vt 0.845000 1.000000
vt 0.845000 0.950000
vt 0.845000 0.950000
vt 0.690000 0.950000
vt 0.690000 1.000000
vt 0.845000 1.000000
vt 0.690000 0.875000
vt 0.845000 0.875000
vt 1.000000 1.000000
vt 1.000000 0.875000
vt 1.000000 0.750000
vt 0.845000 0.750000
vt 0.690000 0.750000
vt 1.000000 1.000000
vt 1.000000 0.950000
vt 1.000000 1.000000
vt 1.000000 0.950000
vt 1.000000 0.950000
vt 1.000000 1.000000
vt 1.000000 0.950000
vn 0.0000 1.0000 0.0000
vn 0.0000 -1.0000 -0.0000
vn 0.0000 0.0000 -1.0000
vn -1.0000 -0.0000 0.0000
vn 0.0000 -0.0000 1.0000
vn 1.0000 0.0000 0.0000
usemtl texobj2.png.001
s off
f 12/1/1 1/2/1 29/3/1
f 29/3/1 2/4/1 12/1/1
f 18/5/1 1/2/1 12/1/1
f 12/1/1 3/6/1 18/5/1
f 20/7/1 1/2/1 18/5/1
f 18/5/1 4/8/1 20/7/1
f 29/3/1 1/2/1 20/7/1
f 20/7/1 22/9/1 29/3/1
f 6/10/2 5/11/2 25/12/2
f 25/12/2 24/13/2 6/10/2
f 9/14/2 42/15/2 7/16/2
f 7/16/2 8/17/2 9/14/2
f 11/18/2 32/19/2 10/20/2
f 10/20/2 17/21/2 11/18/2
f 27/22/3 13/23/3 12/1/3
f 12/1/3 2/24/3 27/22/3
f 14/25/3 13/23/3 27/22/3
f 27/22/3 26/26/3 14/25/3
f 16/27/3 13/23/3 14/25/3
f 14/25/3 17/28/3 16/27/3
f 12/1/3 13/23/3 16/27/3
f 16/27/3 3/29/3 12/1/3
f 16/30/4 15/31/4 18/32/4
f 18/32/4 3/6/4 16/30/4
f 10/33/4 15/31/4 16/30/4
f 16/30/4 17/34/4 10/33/4
f 19/35/4 15/31/4 10/33/4
f 10/33/4 7/16/4 19/35/4
f 18/32/4 15/31/4 19/35/4
f 19/35/4 4/36/4 18/32/4
f 19/37/5 21/38/5 20/39/5
f 20/39/5 4/40/5 19/37/5
f 42/15/5 21/38/5 19/37/5
f 19/37/5 7/41/5 42/15/5
f 23/42/5 21/38/5 42/15/5
f 42/15/5 24/43/5 23/42/5
f 20/39/5 21/38/5 23/42/5
f 23/42/5 22/44/5 20/39/5
f 23/45/6 28/46/6 29/47/6
f 29/47/6 22/48/6 23/45/6
f 25/49/6 28/46/6 23/45/6
f 23/45/6 24/13/6 25/49/6
f 27/50/6 28/46/6 25/49/6
f 25/49/6 26/51/6 27/50/6
f 29/47/6 28/46/6 27/50/6
f 27/50/6 2/4/6 29/47/6
f 41/52/2 30/53/2 14/54/2
f 14/54/2 26/55/2 41/52/2
f 41/56/3 39/57/3 36/58/3
f 36/58/3 30/59/3 41/56/3
f 6/60/6 38/61/6 37/62/6
f 37/62/6 5/63/6 6/60/6
f 8/64/5 31/65/5 33/66/5
f 33/66/5 9/67/5 8/64/5
f 32/68/4 11/69/4 40/70/4
f 40/70/4 35/71/4 32/68/4
f 37/72/2 38/61/2 33/66/2
f 33/66/2 34/73/2 37/72/2
f 33/66/2 31/74/2 35/75/2
f 35/75/2 34/73/2 33/66/2
f 35/75/2 40/76/2 36/77/2
f 36/77/2 34/73/2 35/75/2
f 36/77/2 39/78/2 37/72/2
f 37/72/2 34/73/2 36/77/2
f 38/79/5 6/80/5 9/67/5
f 9/67/5 33/66/5 38/79/5
f 39/81/6 41/82/6 5/63/6
f 5/63/6 37/62/6 39/81/6
f 32/68/4 35/71/4 31/74/4
f 31/74/4 8/83/4 32/68/4
f 40/84/3 11/85/3 30/59/3
f 30/59/3 36/58/3 40/84/3
f 17/21/2 14/54/2 30/53/2
f 30/53/2 11/18/2 17/21/2
f 41/52/2 26/55/2 25/12/2
f 25/12/2 5/11/2 41/52/2
f 6/10/2 24/13/2 42/15/2
f 42/15/2 9/14/2 6/10/2
f 10/20/2 32/19/2 8/17/2
f 8/17/2 7/16/2 10/20/2
