# Blender v3.2.1 OBJ File: ''
# www.blender.org
mtllib room_1.mtl
v -4.000000 -0.000000 3.000000
v -3.000000 -0.000001 4.000000
v -4.000000 2.999999 4.000000
v -3.000000 3.000000 3.000000
v -4.000000 -0.000001 4.000000
v 4.000000 0.600001 -4.000000
v -4.000000 0.600001 -4.000000
v -4.000000 0.600001 -3.000000
v 0.000000 -0.000001 4.000000
v 0.000000 3.000001 -4.000000
v -4.000000 3.000001 -4.000000
v 3.000000 2.400001 -4.000000
v 3.000000 -0.000000 3.000000
v 3.000000 3.000000 -3.000000
v -3.000000 0.000000 -3.000000
v -4.000000 0.000001 -4.000000
v 4.000000 3.000000 -3.000000
v 4.000000 3.000001 -4.000000
v -4.000000 2.400000 0.000000
v -4.000000 2.400001 -3.000000
v -4.000000 3.000000 0.000000
v 3.000000 0.000000 -3.000000
v 3.000000 0.000001 -4.000000
v 0.000000 0.000000 -3.000000
v 0.000000 3.000000 0.000000
v 4.000000 0.000001 -4.000000
v 3.000000 3.000000 0.000000
v -4.000000 0.000000 0.000000
v -4.000000 3.000000 3.000000
v 4.000000 3.000000 0.000000
v 3.000000 0.000000 0.000000
v 4.000000 -0.000000 3.000000
v 3.000000 2.999999 4.000000
v 3.000000 -0.000001 4.000000
v 3.000000 3.000001 -4.000000
v 0.000000 2.999999 4.000000
v -3.000000 3.000001 -4.000000
v -3.000000 2.400001 -4.000000
v 0.000000 3.000000 3.000000
v -3.000000 0.000000 0.000000
v -4.000000 2.400000 3.000000
v 3.000000 3.000000 3.000000
v 4.000000 3.000000 3.000000
v -3.000000 3.000000 -3.000000
v 4.000000 2.400001 -3.000000
v 0.000000 0.000000 0.000000
v 0.000000 3.000000 -3.000000
v -3.000000 3.000000 0.000000
v -3.000000 -0.000000 3.000000
v 0.000000 -0.000000 3.000000
v -3.000000 2.999999 4.000000
v 4.000000 2.399999 4.000000
v 4.000000 2.999999 4.000000
v 4.000000 2.400000 3.000000
v -3.000000 0.599999 4.000000
v -3.000000 2.399999 4.000000
v 3.000000 0.600001 -4.000000
v 3.000000 0.599999 4.000000
v 4.000000 0.600001 -3.000000
v 4.000000 2.400001 -4.000000
v 4.000000 2.400000 0.000000
v 4.000000 0.600000 3.000000
v -4.000000 0.599999 4.000000
v 0.000000 0.599999 4.000000
v 0.000000 2.399999 4.000000
v 3.000000 2.399999 4.000000
v 0.000000 2.400001 -4.000000
v -4.000000 2.399999 4.000000
v 4.000000 0.599999 4.000000
v -4.000000 2.400001 -4.000000
v -3.000000 0.600001 -4.000000
v -3.000000 0.000001 -4.000000
v 0.000000 0.600001 -4.000000
v 0.000000 0.000001 -4.000000
v 4.000000 -0.000001 4.000000
v -4.000000 0.000000 -3.000000
v 4.000000 0.000000 0.000000
v -4.000000 0.600000 3.000000
v -4.000000 0.600000 0.000000
v 4.000000 0.600000 0.000000
v 4.000000 0.000000 -3.000000
v -4.000000 3.000000 -3.000000
vt 0.375000 0.765000
vt 0.375000 0.750000
vt 0.360000 0.750000
vt 0.360000 0.765000
vt 0.025000 0.565000
vt 0.000000 0.565000
vt 0.000000 0.585000
vt 0.025000 0.585000
vt 0.030000 0.750000
vt 0.000000 0.750000
vt 0.000000 0.775000
vt 0.030000 0.775000
vt 0.220000 0.750000
vt 0.250000 0.750000
vt 0.250000 0.775000
vt 0.220000 0.775000
vt 0.220000 0.750000
vt 0.250000 0.750000
vt 0.250000 0.775000
vt 0.220000 0.775000
vt 0.030000 0.750000
vt 0.000000 0.750000
vt 0.000000 0.775000
vt 0.030000 0.775000
vt 0.310000 0.765000
vt 0.310000 0.750000
vt 0.025000 0.750000
vt 0.095000 0.750000
vt 0.095000 0.725000
vt 0.025000 0.725000
vt 0.125000 0.850000
vt 0.030000 0.850000
vt 0.030000 0.875000
vt 0.125000 0.875000
vt 0.000000 0.875000
vt 0.000000 0.850000
vt 0.030000 0.850000
vt 0.030000 0.875000
vt 0.125000 0.850000
vt 0.220000 0.850000
vt 0.220000 0.875000
vt 0.125000 0.875000
vt 0.265000 0.765000
vt 0.265000 0.750000
vt 0.250000 0.765000
vt 0.165000 0.725000
vt 0.165000 0.750000
vt 0.185000 0.750000
vt 0.185000 0.725000
vt 0.220000 0.850000
vt 0.220000 0.875000
vt 0.250000 0.875000
vt 0.250000 0.850000
vt 0.375000 0.860000
vt 0.360000 0.860000
vt 0.360000 0.875000
vt 0.375000 0.875000
vt 0.030000 0.850000
vt 0.030000 0.875000
vt 0.000000 0.875000
vt 0.000000 0.850000
vt 0.125000 0.850000
vt 0.030000 0.850000
vt 0.030000 0.875000
vt 0.125000 0.875000
vt 0.310000 0.860000
vt 0.265000 0.860000
vt 0.265000 0.875000
vt 0.310000 0.875000
vt 0.095000 0.655000
vt 0.165000 0.655000
vt 0.250000 0.860000
vt 0.250000 0.875000
vt 0.185000 0.655000
vt 0.375000 0.810000
vt 0.360000 0.810000
vt 0.025000 0.655000
vt 0.000000 0.655000
vt 0.125000 0.850000
vt 0.220000 0.850000
vt 0.220000 0.875000
vt 0.125000 0.875000
vt 0.310000 0.810000
vt 0.265000 0.810000
vt 0.250000 0.810000
vt 0.220000 0.850000
vt 0.220000 0.875000
vt 0.250000 0.875000
vt 0.250000 0.850000
vt 0.095000 0.585000
vt 0.165000 0.585000
vt 0.165000 0.565000
vt 0.095000 0.565000
vt 0.185000 0.585000
vt 0.185000 0.565000
vt 0.000000 0.725000
vt 0.000000 0.850000
vt 0.000000 0.875000
vt 0.250000 0.850000
vt 0.250000 0.875000
vt 0.125000 0.775000
vt 0.030000 0.775000
vt 0.125000 0.775000
vt 0.220000 0.775000
vt 0.030000 0.775000
vt 0.000000 0.775000
vt 0.125000 0.775000
vt 0.125000 0.775000
vt 0.220000 0.775000
vt 0.250000 0.775000
vt 0.125000 0.750000
vt 0.030000 0.750000
vt 0.125000 0.750000
vt 0.220000 0.750000
vt 0.000000 0.750000
vt 0.030000 0.750000
vt 0.125000 0.750000
vt 0.125000 0.750000
vt 0.250000 0.750000
vt 0.220000 0.750000
vt 0.000000 0.750000
vn 0.0000 1.0000 0.0000
vn 0.0000 -1.0000 -0.0000
vn 0.0000 0.0000 -1.0000
vn -1.0000 0.0000 0.0000
vn 0.0000 0.0000 1.0000
vn 1.0000 0.0000 0.0000
usemtl texobj2.png
s off
f 1/1/1 5/2/1 2/3/1
f 2/3/1 49/4/1 1/1/1
f 51/5/2 3/6/2 29/7/2
f 29/7/2 4/8/2 51/5/2
f 2/9/3 5/10/3 63/11/3
f 63/11/3 55/12/3 2/9/3
f 32/13/4 75/14/4 69/15/4
f 69/15/4 62/16/4 32/13/4
f 23/17/5 26/18/5 6/19/5
f 6/19/5 57/20/5 23/17/5
f 76/21/6 16/22/6 7/23/6
f 7/23/6 8/24/6 76/21/6
f 50/25/1 49/4/1 2/3/1
f 2/3/1 9/26/1 50/25/1
f 37/27/2 10/28/2 47/29/2
f 37/27/2 47/29/2 44/30/2
f 65/31/3 56/32/3 51/33/3
f 51/33/3 36/34/3 65/31/3
f 11/35/5 70/36/5 38/37/5
f 11/35/5 38/37/5 37/38/5
f 67/39/5 12/40/5 35/41/5
f 35/41/5 10/42/5 67/39/5
f 13/43/1 34/44/1 75/14/1
f 75/14/1 32/45/1 13/43/1
f 14/46/2 35/47/2 18/48/2
f 18/48/2 17/49/2 14/46/2
f 66/50/3 33/51/3 53/52/3
f 53/52/3 52/53/3 66/50/3
f 76/54/1 15/55/1 72/56/1
f 72/56/1 16/57/1 76/54/1
f 45/58/4 17/59/4 18/60/4
f 18/60/4 60/61/4 45/58/4
f 19/62/6 20/63/6 82/64/6
f 82/64/6 21/65/6 19/62/6
f 24/66/1 22/67/1 23/68/1
f 23/68/1 74/69/1 24/66/1
f 25/70/2 47/29/2 14/46/2
f 14/46/2 27/71/2 25/70/2
f 22/67/1 81/72/1 26/73/1
f 26/73/1 23/68/1 22/67/1
f 27/71/2 14/46/2 17/49/2
f 17/49/2 30/74/2 27/71/2
f 28/75/1 1/1/1 49/4/1
f 49/4/1 40/76/1 28/75/1
f 48/77/2 4/8/2 29/7/2
f 29/7/2 21/78/2 48/77/2
f 61/79/4 54/80/4 43/81/4
f 43/81/4 30/82/4 61/79/4
f 46/83/1 50/25/1 13/43/1
f 13/43/1 31/84/1 46/83/1
f 31/84/1 13/43/1 32/45/1
f 32/45/1 77/85/1 31/84/1
f 41/86/6 29/87/6 3/88/6
f 3/88/6 68/89/6 41/86/6
f 39/90/2 42/91/2 33/92/2
f 33/92/2 36/93/2 39/90/2
f 42/91/2 43/94/2 53/95/2
f 53/95/2 33/92/2 42/91/2
f 13/43/1 50/25/1 9/26/1
f 9/26/1 34/44/1 13/43/1
f 14/46/2 47/29/2 10/28/2
f 10/28/2 35/47/2 14/46/2
f 66/50/3 65/31/3 36/34/3
f 36/34/3 33/51/3 66/50/3
f 38/37/5 67/39/5 10/42/5
f 10/42/5 37/38/5 38/37/5
f 15/55/1 24/66/1 74/69/1
f 74/69/1 72/56/1 15/55/1
f 48/77/2 25/70/2 39/90/2
f 39/90/2 4/8/2 48/77/2
f 40/76/1 46/83/1 24/66/1
f 24/66/1 15/55/1 40/76/1
f 4/8/2 39/90/2 36/93/2
f 36/93/2 51/5/2 4/8/2
f 41/86/6 19/62/6 21/65/6
f 21/65/6 29/87/6 41/86/6
f 39/90/2 25/70/2 27/71/2
f 27/71/2 42/91/2 39/90/2
f 42/91/2 27/71/2 30/74/2
f 30/74/2 43/94/2 42/91/2
f 76/54/1 28/75/1 40/76/1
f 40/76/1 15/55/1 76/54/1
f 44/30/2 48/77/2 21/78/2
f 21/78/2 82/96/2 44/30/2
f 45/58/4 61/79/4 30/82/4
f 30/82/4 17/59/4 45/58/4
f 24/66/1 46/83/1 31/84/1
f 31/84/1 22/67/1 24/66/1
f 22/67/1 31/84/1 77/85/1
f 77/85/1 81/72/1 22/67/1
f 47/29/2 25/70/2 48/77/2
f 48/77/2 44/30/2 47/29/2
f 50/25/1 46/83/1 40/76/1
f 40/76/1 49/4/1 50/25/1
f 56/32/3 68/97/3 3/98/3
f 3/98/3 51/33/3 56/32/3
f 54/80/4 52/53/4 53/52/4
f 53/52/4 43/81/4 54/80/4
f 12/40/5 60/99/5 18/100/5
f 18/100/5 35/41/5 12/40/5
f 20/63/6 70/36/6 11/35/6
f 11/35/6 82/64/6 20/63/6
f 55/12/3 56/32/3 65/31/3
f 65/31/3 64/101/3 55/12/3
f 71/102/5 38/37/5 70/36/5
f 70/36/5 7/23/5 71/102/5
f 57/20/5 12/40/5 67/39/5
f 67/39/5 73/103/5 57/20/5
f 58/104/3 66/50/3 52/53/3
f 52/53/3 69/15/3 58/104/3
f 59/105/4 45/58/4 60/61/4
f 60/61/4 6/106/4 59/105/4
f 8/24/6 20/63/6 19/62/6
f 19/62/6 79/107/6 8/24/6
f 62/16/4 54/80/4 61/79/4
f 61/79/4 80/108/4 62/16/4
f 78/109/6 41/86/6 68/89/6
f 68/89/6 63/110/6 78/109/6
f 64/101/3 65/31/3 66/50/3
f 66/50/3 58/104/3 64/101/3
f 73/103/5 67/39/5 38/37/5
f 38/37/5 71/102/5 73/103/5
f 79/107/6 19/62/6 41/86/6
f 41/86/6 78/109/6 79/107/6
f 80/108/4 61/79/4 45/58/4
f 45/58/4 59/105/4 80/108/4
f 56/32/3 55/12/3 63/11/3
f 63/11/3 68/97/3 56/32/3
f 54/80/4 62/16/4 69/15/4
f 69/15/4 52/53/4 54/80/4
f 12/40/5 57/20/5 6/19/5
f 6/19/5 60/99/5 12/40/5
f 20/63/6 8/24/6 7/23/6
f 7/23/6 70/36/6 20/63/6
f 2/9/3 55/12/3 64/101/3
f 64/101/3 9/111/3 2/9/3
f 71/102/5 7/23/5 16/22/5
f 16/22/5 72/112/5 71/102/5
f 23/17/5 57/20/5 73/103/5
f 73/103/5 74/113/5 23/17/5
f 58/104/3 69/15/3 75/14/3
f 75/14/3 34/114/3 58/104/3
f 59/105/4 6/106/4 26/115/4
f 26/115/4 81/116/4 59/105/4
f 76/21/6 8/24/6 79/107/6
f 79/107/6 28/117/6 76/21/6
f 32/13/4 62/16/4 80/108/4
f 80/108/4 77/118/4 32/13/4
f 78/109/6 63/110/6 5/119/6
f 5/119/6 1/120/6 78/109/6
f 9/111/3 64/101/3 58/104/3
f 58/104/3 34/114/3 9/111/3
f 74/113/5 73/103/5 71/102/5
f 71/102/5 72/112/5 74/113/5
f 28/117/6 79/107/6 78/109/6
f 78/109/6 1/120/6 28/117/6
f 77/118/4 80/108/4 59/105/4
f 59/105/4 81/116/4 77/118/4
f 44/30/2 82/96/2 11/121/2
f 11/121/2 37/27/2 44/30/2
