# Blender v3.2.1 OBJ File: ''
# www.blender.org
mtllib static_npc.mtl
o dead_head_ID141
v 0.109761 0.061099 -1.268093
v 0.117240 0.012796 -1.530177
v 0.095895 0.194017 -1.300431
v 0.117240 0.155185 -1.556563
v -0.091374 0.061099 -1.268093
v -0.098853 0.012796 -1.530177
v -0.077509 0.194017 -1.300431
v -0.098853 0.155185 -1.556563
v 0.009193 0.261913 -1.328100
v 0.009193 0.088259 -1.618678
v 0.009193 0.007592 -1.253581
v 0.009193 -0.035723 -1.522899
v 0.009193 0.224799 -1.572021
v 0.009193 0.229531 -1.261946
v 0.205815 0.015192 -1.223119
v 0.283459 0.127502 -0.631374
v 0.009939 -0.159112 -1.120402
v 0.221417 -0.078219 -0.627125
v 0.010183 -0.158632 -0.548160
v 0.011158 0.133035 -0.484432
v -0.235790 0.109510 -0.621933
v -0.209705 -0.072126 -0.606689
v -0.186302 0.018297 -1.225528
v 0.006404 0.009259 -1.273736
v 0.297047 -0.061423 0.462984
v 0.181210 -0.061953 0.460578
v 0.156365 0.337208 0.606775
v 0.279480 0.008281 0.363678
v 0.310132 0.130016 0.408453
v 0.325626 0.274593 0.586163
v 0.172975 0.189087 0.437921
v 0.173241 0.004323 0.370583
v 0.233978 0.128251 0.315616
v -0.272973 0.305927 0.598609
v -0.251260 -0.039380 0.501907
v -0.126738 0.016510 0.403991
v -0.233014 0.022024 0.397383
v -0.261296 0.147497 0.432594
v -0.122650 0.206241 0.456628
v -0.102197 0.366907 0.613360
v -0.135313 -0.042282 0.499001
v -0.185622 0.136963 0.339836
v 0.455782 0.077962 -1.286573
v 0.494651 -0.013490 -1.352437
v 0.526521 0.174875 -1.294877
v 0.738048 0.029081 -1.453188
v 0.568599 0.047709 -1.251288
v 0.700896 0.141628 -1.492432
v 0.447860 0.109772 -1.402475
v 0.839854 0.016589 -1.566100
v 0.698853 0.093065 -1.653394
v 0.682310 -0.017050 -1.529430
v 0.642054 0.092929 -1.572921
v 0.799121 0.140468 -1.609680
v 0.742692 -0.028244 -1.605566
v -0.448820 0.061732 -1.177085
v -0.507841 0.074423 -1.072993
v -0.510774 -0.040811 -1.153894
v -0.521156 0.037702 -1.268713
v -0.771077 -0.014265 -1.190959
v -0.769054 0.087979 -1.119647
v -0.518891 0.157979 -1.195189
v -0.872878 0.171013 -1.222576
v -0.921850 -0.004559 -1.211340
v -0.920066 0.108333 -1.132813
v -0.874375 0.054798 -1.296376
v -0.777247 0.150587 -1.210950
v -0.778898 0.044884 -1.277460
v -0.479186 0.110545 -1.066071
v -0.478609 -0.054686 -1.137205
v -0.226050 0.001846 -1.115778
v -0.489098 0.001662 -1.265923
v -0.170189 0.095774 -1.271515
v -0.196180 0.240165 -1.208444
v -0.564756 0.022546 -1.165015
v -0.103761 0.154924 -1.151607
v -0.263305 0.208805 -1.025296
v -0.488310 0.158896 -1.198197
v 0.310203 -0.021575 -1.142762
v 0.499348 -0.024559 -1.320679
v 0.165466 0.083121 -1.207962
v 0.457438 0.193830 -1.322038
v 0.383259 0.171892 -1.044573
v 0.534007 0.124481 -1.226087
v 0.545751 0.071206 -1.374006
v 0.425533 0.052224 -1.412810
v 0.183157 0.108905 -1.062026
v 0.216428 0.218081 -1.139468
v -0.065081 0.329196 -0.025499
v -0.263119 0.112669 0.417747
v -0.070531 0.105087 0.013972
v -0.252624 0.121622 -0.030574
v -0.170352 0.231541 -0.150884
v -0.250723 0.338363 -0.070800
v -0.133532 -0.025949 0.411046
v -0.122291 0.169668 0.430677
v -0.239721 -0.017879 0.404150
v 0.284820 0.189927 -0.041888
v 0.268474 0.409357 -0.056007
v 0.325885 0.130557 0.400722
v 0.087196 0.383734 -0.000928
v 0.183548 0.176678 0.428931
v 0.188754 0.307701 -0.143104
v 0.308670 0.001330 0.373354
v 0.203967 -0.013919 0.385589
v 0.107418 0.157371 0.011462
v 0.009193 0.215397 -1.285556
v -0.244576 0.270063 -1.087270
v 0.009193 0.316283 -1.094398
v -0.194913 0.260910 -0.723852
v -0.166485 0.181415 -1.288013
v -0.244576 0.023853 -1.052423
v -0.194913 0.104889 -0.701769
v -0.137243 0.203769 -0.583572
v 0.262962 0.270063 -1.087270
v 0.213300 0.260910 -0.723852
v 0.213300 0.104889 -0.701769
v 0.155630 0.203769 -0.583572
v 0.009193 0.065214 -0.503491
v 0.009193 0.363815 -0.545753
v 0.009193 0.313976 -0.745542
v 0.184871 0.009769 -1.263719
v 0.184871 0.181415 -1.288013
v 0.262962 0.023853 -1.052423
v 0.009193 -0.024108 -1.233142
v -0.166485 0.009769 -1.263719
v -0.029357 0.172214 -0.151956
v 0.006585 0.050125 -0.527454
v -0.067286 0.434071 -0.153686
v 0.006152 0.340972 -0.582021
v -0.227743 0.422962 -0.179047
v -0.218815 0.169039 -0.176299
v -0.214068 0.082407 -0.710490
v -0.130713 0.302803 -0.007336
v -0.214236 0.234344 -0.739000
v 0.079264 0.092667 -0.529804
v 0.293558 0.180125 -0.162967
v 0.017142 0.381651 -0.520199
v 0.189133 0.253663 0.031749
v 0.250048 0.424776 -0.110704
v 0.092382 0.396149 -0.082287
v 0.245827 0.359452 -0.698153
v 0.278303 0.208372 -0.703175
v 0.108995 0.137976 -0.136934
vt 0.370594 0.557994
vt 0.515799 0.585809
vt 0.371599 0.504790
vt 0.520198 0.508704
vt 0.521213 0.507890
vt 0.516686 0.585402
vt 0.371689 0.503990
vt 0.370784 0.557406
vt 0.046081 0.052506
vt 0.041979 0.106524
vt 0.068189 0.082331
vt 0.092591 0.056677
vt 0.091200 0.110626
vt 0.066507 0.082095
vt 0.040079 0.106631
vt 0.044215 0.052092
vt 0.091183 0.056298
vt 0.089711 0.110697
vt 0.087701 0.325815
vt 0.183504 0.318873
vt 0.182335 0.461811
vt 0.033478 0.472407
vt 0.182978 0.460608
vt 0.184093 0.315327
vt 0.086818 0.322312
vt 0.031678 0.471383
vt 0.534172 0.019081
vt 0.519668 0.319788
vt 0.660271 0.031712
vt 0.650208 0.325478
vt 0.830992 0.044967
vt 0.810034 0.331100
vt 0.948416 0.073768
vt 0.948832 0.331377
vt 0.660271 0.031712
vt 0.650208 0.325478
vt 0.830992 0.044967
vt 0.810034 0.331100
vt 0.744799 0.473021
vt 0.894215 0.441583
vt 0.576367 0.433602
vt 0.925375 0.018179
vt 0.318913 0.570187
vt 0.373296 0.599491
vt 0.422517 0.608393
vt 0.447803 0.659485
vt 0.520787 0.662707
vt 0.382510 0.693812
vt 0.389195 0.731810
vt 0.408211 0.651691
vt 0.333808 0.605796
vt 0.333803 0.605495
vt 0.318795 0.569698
vt 0.373500 0.599192
vt 0.422912 0.608106
vt 0.448297 0.659398
vt 0.521805 0.662706
vt 0.382693 0.694011
vt 0.389413 0.732210
vt 0.408600 0.651598
vt 0.420383 0.126894
vt 0.338209 0.141423
vt 0.362611 0.284776
vt 0.270217 0.161584
vt 0.274597 0.312167
vt 0.185123 0.163879
vt 0.181925 0.316478
vt 0.112613 0.144204
vt 0.087376 0.287001
vt 0.270982 0.074892
vt 0.180326 0.075587
vt 0.105869 0.089282
vt 0.360108 0.029286
vt 0.363793 0.112572
vt 0.416003 0.025393
vt 0.420313 0.117300
vt 0.497621 0.109930
vt 0.489000 0.019622
vt 0.455491 0.268995
vt 0.342589 0.086432
vt 0.338779 0.141681
vt 0.363315 0.286300
vt 0.270291 0.162081
vt 0.274567 0.313919
vt 0.184487 0.164394
vt 0.181192 0.318266
vt 0.111302 0.144485
vt 0.085925 0.288473
vt 0.343196 0.086301
vt 0.270992 0.074735
vt 0.179580 0.075366
vt 0.104572 0.089176
vt 0.490829 0.018934
vt 0.499521 0.109925
vt 0.417222 0.024823
vt 0.421499 0.117426
vt 0.364577 0.112729
vt 0.456970 0.270387
vt 0.421569 0.127100
vt 0.360791 0.028678
vt 0.274996 0.314634
vt 0.299111 0.496595
vt 0.403172 0.494768
vt 0.111378 0.085905
vt 0.069870 0.109801
vt 0.077689 0.074432
vt 0.048020 0.059889
vt 0.090916 0.037601
vt 0.064389 0.019405
vt 0.125993 0.040817
vt 0.073013 0.057478
vt 0.084486 0.115282
vt 0.035378 0.070486
vt 0.512422 0.430607
vt 0.366707 0.313027
vt 0.454326 0.285404
vt 0.301804 0.495981
vt 0.277281 0.310868
vt 0.407625 0.494197
vt 0.370469 0.309307
vt 0.518722 0.428876
vt 0.459569 0.281217
vt 0.090013 0.029223
vt 0.046392 0.051814
vt 0.076637 0.066603
vt 0.068611 0.102570
vt 0.110895 0.078418
vt 0.033610 0.062590
vt 0.083474 0.108218
vt 0.071806 0.049511
vt 0.125683 0.032493
vt 0.062963 0.010720
vt 0.029785 0.556875
vt 0.049987 0.724204
vt 0.105516 0.562591
vt 0.139022 0.729623
vt 0.160307 0.543621
vt 0.201499 0.727603
vt 0.272106 0.680696
vt 0.343895 0.658819
vt 0.352715 0.709323
vt 0.320294 0.695281
vt 0.295904 0.721395
vt 0.285606 0.678085
vt 0.232195 0.495877
vt 0.198000 0.517507
vt 0.032889 0.548696
vt 0.063290 0.501789
vt 0.104383 0.551899
vt 0.108916 0.514698
vt 0.328621 0.634085
vt 0.274381 0.682804
vt 0.203403 0.729908
vt 0.161994 0.544908
vt 0.140597 0.731889
vt 0.106915 0.563977
vt 0.051093 0.726490
vt 0.030785 0.558380
vt 0.287903 0.680079
vt 0.298305 0.723717
vt 0.322823 0.697514
vt 0.355415 0.711482
vt 0.346499 0.660812
vt 0.234310 0.497011
vt 0.199787 0.518705
vt 0.033906 0.550109
vt 0.105677 0.553279
vt 0.064417 0.503004
vt 0.110283 0.515882
vt 0.331194 0.635996
vt 0.979535 0.975022
vt 0.854474 0.884169
vt 0.954903 0.847184
vt 0.794685 0.788930
vt 0.927493 0.744637
vt 0.766618 0.610001
vt 0.868874 0.584931
vt 0.844022 0.495978
vt 0.760113 0.895498
vt 0.662170 0.785787
vt 0.682636 0.607882
vt 0.713626 0.553428
vt 0.602965 0.497074
vt 0.794685 0.788930
vt 0.766618 0.610001
vt 0.682636 0.607882
vt 0.713626 0.553428
vt 0.668090 0.893378
vt 0.760113 0.895498
vt 0.662170 0.785787
vt 0.871432 0.974583
vt 0.854474 0.884169
vt 0.871432 0.974583
vt 0.668090 0.893378
vt 0.049617 0.737374
vt 0.029784 0.897680
vt 0.138206 0.729705
vt 0.144023 0.890222
vt 0.200984 0.727696
vt 0.233722 0.931475
vt 0.287722 0.727220
vt 0.293698 0.931423
vt 0.376416 0.879592
vt 0.295391 0.722407
vt 0.283596 0.677399
vt 0.329504 0.693688
vt 0.342885 0.657777
vt 0.357482 0.709079
vt 0.121176 0.986109
vt 0.061411 0.990023
vt 0.360814 0.718810
vt 0.376316 0.880326
vt 0.294075 0.931699
vt 0.288081 0.728675
vt 0.234393 0.931805
vt 0.201897 0.729201
vt 0.145212 0.890684
vt 0.139480 0.731094
vt 0.031684 0.898309
vt 0.051403 0.738876
vt 0.357491 0.710691
vt 0.342978 0.659686
vt 0.329674 0.695284
vt 0.284084 0.679194
vt 0.295705 0.723890
vt 0.122496 0.986123
vt 0.063077 0.990014
vt 0.360804 0.720314
vt 0.894291 0.303306
vt 0.876294 0.209897
vt 0.938292 0.286206
vt 0.889109 0.212797
vt 0.937993 0.204509
vt 0.940593 0.189000
vt 0.998906 0.211001
vt 0.991198 0.210496
vt 0.987101 0.304409
vt 0.941491 0.311499
vn -0.0179 -0.3428 0.9392
vn -0.0132 -0.3446 0.9387
vn 0.0133 -0.2701 0.9627
vn 0.0174 -0.2686 0.9631
vn -0.2282 0.2473 0.9417
vn -0.3804 -0.6415 0.6662
vn -0.9291 -0.3679 -0.0375
vn -0.7800 0.5878 0.2146
vn 0.7898 -0.3658 0.4924
vn 0.7253 -0.5359 -0.4321
vn 0.6776 0.3742 -0.6331
vn 0.7285 0.5944 0.3406
vn 0.0106 -0.3954 0.9185
vn 0.0086 -0.3993 0.9168
vn 0.5770 -0.5291 0.6222
vn 0.5777 -0.5322 0.6188
vn 0.4807 -0.8658 0.1392
vn 0.4309 -0.8868 0.1669
vn 0.8686 -0.4857 0.0984
vn 0.7640 -0.5510 -0.3358
vn 0.8467 0.5282 0.0638
vn 0.8125 0.3403 -0.4733
vn 0.5782 0.8100 0.0984
vn 0.5500 0.8257 -0.1256
vn -0.4309 -0.8868 0.1669
vn -0.8686 -0.4857 0.0984
vn -0.7640 -0.5510 -0.3358
vn -0.8467 0.5282 0.0638
vn -0.8125 0.3403 -0.4733
vn -0.5782 0.8100 0.0984
vn -0.5500 0.8257 -0.1256
vn 0.4137 -0.1296 -0.9011
vn 0.3251 0.3058 -0.8949
vn -0.4807 -0.8658 0.1392
vn -0.4137 -0.1296 -0.9011
vn -0.2160 -0.5969 -0.7727
vn -0.4906 0.7826 0.3831
vn -0.3251 0.3058 -0.8949
vn 0.4906 0.7826 0.3831
vn 0.2160 -0.5969 -0.7727
vn 0.0046 -0.8119 -0.5838
vn 0.5270 -0.4569 -0.7166
vn 0.6251 -0.6143 -0.4815
vn 0.8335 0.3603 -0.4188
vn 0.4506 0.6697 -0.5903
vn -0.6069 0.5880 -0.5348
vn -0.2203 0.7299 -0.6471
vn -0.8719 -0.1223 -0.4742
vn -0.9967 -0.0743 0.0335
vn -0.0081 0.4018 -0.9157
vn -0.0085 -0.8055 -0.5925
vn -0.0113 -0.8498 -0.5269
vn -0.0238 -0.8549 -0.5182
vn -0.5397 -0.5017 -0.6760
vn -0.6391 -0.6384 -0.4290
vn -0.8295 0.3414 -0.4420
vn -0.4424 0.6297 -0.6386
vn 0.6137 0.5327 -0.5827
vn 0.2291 0.6727 -0.7035
vn 0.8662 -0.1753 -0.4678
vn 0.9954 -0.0901 0.0341
vn 0.0095 0.3280 -0.9446
vn -0.6060 -0.4779 -0.6358
vn -0.0050 -0.9994 0.0344
vn -0.1932 -0.9626 -0.1898
vn 0.6961 -0.3306 0.6373
vn 0.7318 -0.2449 0.6360
vn 0.3054 0.9349 0.1806
vn 0.3708 0.9123 0.1738
vn -0.3182 0.8961 -0.3095
vn -0.2431 0.8984 -0.3658
vn 0.7056 -0.2465 0.6644
vn 0.3190 0.9118 0.2586
vn -0.3371 0.9025 -0.2680
vn -0.7254 -0.4659 -0.5068
vn -0.7243 -0.4643 -0.5097
vn -0.1611 -0.4059 -0.8996
vn -0.1549 -0.4103 -0.8987
vn 0.4508 -0.1721 -0.8759
vn 0.4364 -0.1675 -0.8840
vn -0.6000 -0.4858 -0.6356
vn 0.2725 -0.8970 0.3480
vn 0.0289 -0.5123 -0.8583
vn 0.0233 -0.2393 -0.9707
vn -0.1069 -0.9790 0.1738
vn -0.1351 -0.9563 0.2594
vn -0.1145 0.1664 0.9794
vn -0.1680 0.1233 0.9780
vn 0.0351 0.8258 0.5629
vn -0.0581 0.8216 0.5671
vn 0.0256 -0.8264 -0.5625
vn -0.0961 -0.9609 0.2595
vn -0.0732 0.0968 0.9926
vn 0.0770 0.8125 0.5778
vn -0.9092 0.2473 -0.3349
vn -0.9144 0.2324 -0.3315
vn -0.4674 0.4827 -0.7407
vn -0.4713 0.4771 -0.7418
vn 0.2142 0.5202 -0.8268
vn 0.0371 0.5207 -0.8529
vn 0.0415 0.5282 -0.8481
vn 0.2177 0.5174 -0.8276
vn 0.1951 -0.9392 0.2827
vn 0.1882 -0.9438 0.2718
vn 0.0996 -0.4393 -0.8928
vn 0.0322 -0.1677 -0.9853
vn -0.2309 0.7722 -0.5919
vn -0.8002 -0.2365 -0.5511
vn -0.6886 -0.6593 0.3020
vn -0.9827 -0.1766 0.0564
vn -0.8260 0.2195 0.5192
vn -0.8781 0.4615 -0.1265
vn 0.7041 0.7046 -0.0881
vn 0.6505 0.2275 0.7246
vn 0.9793 0.1120 0.1686
vn 0.7413 -0.4832 0.4659
vn 0.8945 -0.2399 -0.3772
vn -0.3188 0.9368 0.1444
vn -0.3259 0.8171 -0.4755
vn -0.4420 0.8321 0.3350
vn 0.0725 -0.9917 0.1064
vn -0.6197 -0.0137 -0.7847
vn -0.6008 -0.3048 -0.7390
vn -0.2247 0.8853 -0.4071
vn -0.0813 0.9287 -0.3619
vn 0.2865 0.9460 0.1514
vn 0.5065 0.8383 0.2017
vn 0.0718 -0.9931 0.0930
vn 0.5880 0.6355 -0.5003
vn 0.9567 0.2897 -0.0284
vn 0.8187 0.0089 -0.5742
vn 0.7654 -0.5536 -0.3282
vn 0.3056 0.0106 -0.9521
vn -0.9226 -0.3449 0.1728
vn -0.2711 -0.6834 0.6778
vn -0.6751 -0.1056 0.7302
vn -0.0812 -0.0181 0.9965
vn -0.6486 0.5619 0.5134
vn 0.9885 -0.0702 0.1337
vn 0.9919 -0.0178 0.1260
vn 0.5811 0.7334 0.3526
vn 0.4435 0.7956 0.4128
vn -0.8975 0.4135 0.1532
vn -0.6075 0.7269 0.3204
vn -0.8405 -0.5102 -0.1821
vn 0.5037 -0.5107 -0.6967
vn -0.2652 -0.6146 -0.7429
vn 0.0462 -0.0706 -0.9964
vn -0.3067 0.4124 -0.8578
vn 0.6371 0.2495 -0.7293
vn -0.0420 -0.9510 -0.3065
vn -0.5976 -0.7684 -0.2289
vn -0.0521 -0.0968 0.9939
vn -0.0589 -0.1031 0.9929
vn -0.0622 -0.1061 0.9924
vn -0.0732 -0.1163 0.9905
vn -0.0092 -0.9492 -0.3147
vn 0.8527 -0.4335 -0.2915
vn 0.5878 0.7213 0.3664
vn 0.8820 0.4478 0.1468
vn -0.4567 0.7145 0.5300
vn -0.5954 0.6505 0.4715
vn -0.9787 -0.0931 0.1828
vn -0.9720 -0.1460 0.1840
vn -0.6977 0.2917 -0.6543
vn 0.2254 0.5259 -0.8201
vn -0.1099 0.0411 -0.9931
vn 0.2465 -0.5082 -0.8252
vn -0.5217 -0.4578 -0.7198
vn 0.0723 -0.9055 -0.4181
vn 0.6214 -0.6993 -0.3533
vn 0.1251 -0.2072 0.9703
vn 0.1348 -0.2151 0.9673
vn 0.1316 -0.2125 0.9683
vn 0.1452 -0.2235 0.9638
vn 0.0385 -0.9048 -0.4242
vn 0.0986 -0.1772 -0.9792
vn -0.0486 0.4469 -0.8933
vn -0.0844 0.4808 -0.8728
vn -0.7610 0.6205 -0.1894
vn -0.1935 0.9568 -0.2171
vn -0.7917 0.5794 0.1936
vn -0.2610 0.9592 -0.1089
vn -0.5427 0.6845 0.4867
vn -0.9379 -0.0486 -0.3434
vn -0.9940 -0.0153 -0.1083
vn -0.9356 -0.0623 0.3474
vn -0.7151 0.0991 0.6920
vn -0.5368 -0.0820 0.8397
vn 0.0844 0.4808 -0.8728
vn 0.1935 0.9568 -0.2171
vn 0.7610 0.6205 -0.1894
vn 0.7917 0.5794 0.1936
vn 0.9356 -0.0623 0.3474
vn 0.7151 0.0991 0.6920
vn 0.5368 -0.0820 0.8397
vn 0.5427 0.6845 0.4867
vn 0.2610 0.9592 -0.1089
vn 0.9379 -0.0486 -0.3434
vn 0.9940 -0.0153 -0.1083
vn -0.1438 -0.1387 -0.9798
vn -0.0986 -0.1772 -0.9792
vn 0.0486 0.4469 -0.8933
vn 0.1438 -0.1387 -0.9798
vn 0.9885 0.1435 0.0480
vn 0.9345 -0.0384 -0.3539
vn 0.6077 0.7878 -0.1001
vn 0.6625 0.5951 -0.4550
vn -0.6435 0.7383 -0.2019
vn -0.9087 0.3915 -0.1449
vn -0.7384 -0.6543 0.1631
vn -0.8995 -0.4325 0.0621
vn -0.2147 -0.9586 0.1868
vn 0.3333 0.6255 0.7055
vn -0.6008 0.4546 0.6576
vn -0.0171 0.0252 0.9995
vn -0.5478 -0.4930 0.6759
vn 0.4179 -0.5090 0.7525
vn 0.6193 -0.1440 -0.7718
vn 0.6192 -0.1442 -0.7719
vn -0.0235 -0.9514 0.3071
vn 0.4162 -0.9089 -0.0265
vn 0.9710 -0.2356 -0.0397
vn 0.8645 -0.5025 0.0121
vn 0.8003 0.5962 -0.0637
vn 0.4666 0.8834 -0.0422
vn -0.7935 0.5234 -0.3105
vn -0.7608 0.6444 0.0769
vn -0.9241 -0.1603 -0.3468
vn -0.9931 -0.0818 0.0846
vn -0.2641 -0.7323 0.6277
vn 0.6727 -0.4967 0.5484
vn 0.0653 -0.1820 0.9811
vn 0.5294 0.4235 0.7351
vn -0.4165 0.3787 0.8265
vn -0.6171 -0.1067 -0.7796
vn 0.2342 -0.9676 0.0939
vn 0.4770 -0.8246 -0.3040
vn 0.8321 -0.3852 0.3990
vn -0.0060 -0.9535 -0.3013
vn 0.7675 -0.5515 0.3268
vn 0.0054 -0.7643 0.6449
vn 0.0340 -0.1524 0.9877
vn -0.8545 -0.3033 0.4217
vn -0.7949 -0.4940 0.3524
vn -0.4765 -0.8222 -0.3114
vn -0.0008 -0.6733 -0.7393
usemtl _97
s off
f 25/1/1 30/2/1 26/3/1
f 26/3/2 30/2/2 27/4/2
f 40/5/3 34/6/3 41/7/3
f 41/7/4 34/6/4 35/8/4
f 47/9/5 45/10/5 43/11/5
f 44/12/6 47/9/6 43/11/6
f 49/13/7 44/12/7 43/11/7
f 45/10/8 49/13/8 43/11/8
f 56/14/9 57/15/9 58/16/9
f 56/14/10 58/16/10 59/17/10
f 56/14/11 59/17/11 62/18/11
f 56/14/12 62/18/12 57/15/12
f 69/19/13 70/20/13 71/21/13
f 69/19/14 71/21/14 77/22/14
f 79/23/15 80/24/15 84/25/15
f 79/23/16 84/25/16 83/26/16
s 1
f 11/27/17 12/28/18 1/29/19
f 1/29/19 12/28/18 2/30/20
f 1/29/19 2/30/20 3/31/21
f 3/31/21 2/30/20 4/32/22
f 3/31/21 4/32/22 9/33/23
f 9/33/23 4/32/22 13/34/24
f 12/28/25 5/35/26 6/36/27
f 6/36/27 5/35/26 7/37/28
f 6/36/27 7/37/28 8/38/29
f 8/38/29 7/37/28 9/33/30
f 8/38/29 9/33/30 13/34/31
f 2/30/20 10/39/32 4/32/22
f 4/32/22 10/39/32 13/40/33
f 5/35/26 12/28/25 11/27/34
f 8/38/29 10/39/35 6/36/27
f 6/36/27 10/39/35 12/41/36
f 7/37/28 14/42/37 9/33/30
f 13/40/38 10/39/35 8/38/29
f 9/33/23 14/42/39 3/31/21
f 12/41/40 10/39/32 2/30/20
f 26/43/41 28/44/42 25/1/43
f 25/1/43 28/44/42 29/45/44
f 25/1/43 29/45/44 30/2/45
f 30/2/45 29/45/44 31/46/46
f 30/2/45 31/46/46 27/47/47
f 27/47/47 31/46/46 32/48/48
f 27/47/47 32/48/48 26/49/49
f 31/46/46 29/45/44 33/50/50
f 33/50/50 29/45/44 28/44/42
f 33/50/50 28/44/42 32/48/48
f 28/44/42 26/43/41 32/51/51
f 32/48/48 31/46/46 33/50/50
f 36/52/52 41/53/53 37/54/54
f 37/54/54 41/53/53 35/8/55
f 37/54/54 35/8/55 38/55/56
f 38/55/56 35/8/55 34/6/57
f 38/55/56 34/6/57 39/56/58
f 39/56/58 34/6/57 40/57/59
f 39/56/58 40/57/59 36/58/60
f 36/58/60 40/57/59 41/59/61
f 36/58/60 37/54/54 42/60/62
f 42/60/62 37/54/54 38/55/56
f 42/60/62 38/55/56 39/56/58
f 42/60/62 39/56/58 36/58/60
f 53/61/63 52/62/64 44/63/65
f 44/63/65 52/62/64 46/64/66
f 44/63/65 46/64/66 47/65/67
f 47/65/67 46/64/66 48/66/68
f 47/65/67 48/66/68 45/67/69
f 45/67/69 48/66/68 53/68/70
f 45/67/69 53/68/70 49/69/71
f 52/62/64 50/70/72 46/64/66
f 46/64/66 50/70/72 54/71/73
f 46/64/66 54/71/73 48/66/68
f 48/66/68 54/71/73 51/72/74
f 48/66/68 51/72/74 53/68/70
f 52/73/75 53/74/76 55/75/77
f 55/75/77 53/74/76 51/76/78
f 55/75/77 51/76/78 54/77/79
f 55/75/77 54/77/79 50/78/80
f 44/63/65 49/79/81 53/61/63
f 50/70/72 52/62/64 55/80/82
f 68/81/83 59/82/84 60/83/85
f 60/83/85 59/82/84 58/84/86
f 60/83/85 58/84/86 61/85/87
f 61/85/87 58/84/86 57/86/88
f 61/85/87 57/86/88 67/87/89
f 67/87/89 57/86/88 62/88/90
f 66/89/91 68/81/83 64/90/92
f 64/90/92 68/81/83 60/83/85
f 64/90/92 60/83/85 65/91/93
f 65/91/93 60/83/85 61/85/87
f 65/91/93 61/85/87 63/92/94
f 63/92/94 61/85/87 67/87/89
f 64/93/95 65/94/96 66/95/97
f 66/95/97 65/94/96 63/96/98
f 66/95/97 63/96/98 67/97/99
f 62/98/100 59/82/84 67/99/101
f 67/99/101 59/82/84 68/81/83
f 66/95/97 67/97/99 68/100/102
f 71/21/103 70/20/104 72/101/105
f 71/21/103 72/101/105 73/102/106
f 73/102/106 72/101/105 74/103/107
f 72/104/108 70/105/109 75/106/110
f 75/106/110 70/105/109 69/107/111
f 75/106/110 69/107/111 78/108/112
f 74/109/113 77/110/114 76/111/115
f 76/111/115 77/110/114 71/112/116
f 76/111/115 71/112/116 73/113/117
f 77/114/118 74/103/107 78/115/119
f 78/115/119 74/103/107 72/101/105
f 69/116/120 77/114/118 78/115/119
f 75/106/110 78/108/112 72/104/108
f 76/111/115 73/113/117 74/109/113
f 79/23/121 81/117/122 86/118/123
f 86/118/123 81/117/122 88/119/124
f 86/118/123 88/119/124 82/120/125
f 82/120/125 88/119/124 83/121/126
f 82/120/125 83/121/126 84/122/127
f 86/118/123 80/24/128 79/23/121
f 82/123/129 84/124/130 85/125/131
f 85/125/131 84/124/130 80/126/132
f 85/125/131 80/126/132 86/127/133
f 81/128/134 79/129/135 87/130/136
f 87/130/136 79/129/135 83/131/137
f 87/130/136 83/131/137 88/132/138
f 86/127/133 82/123/129 85/125/131
f 88/132/138 81/128/134 87/130/136
f 95/133/139 91/134/140 96/135/141
f 96/135/141 91/134/140 89/136/142
f 96/135/141 89/136/142 90/137/143
f 90/137/143 89/136/142 94/138/144
f 90/137/143 94/138/144 92/139/145
f 91/140/146 92/141/147 93/142/148
f 93/142/148 92/141/147 94/143/149
f 93/142/148 94/143/149 89/144/150
f 95/145/151 97/146/152 92/139/145
f 92/139/145 97/146/152 90/137/143
f 96/147/153 90/148/154 95/149/155
f 95/149/155 90/148/154 97/150/156
f 95/145/151 92/139/145 91/151/157
f 93/142/148 89/144/150 91/140/146
f 98/152/158 99/153/159 100/154/160
f 100/154/160 99/153/159 101/155/161
f 100/154/160 101/155/161 102/156/162
f 102/156/162 101/155/161 106/157/163
f 102/156/162 106/157/163 105/158/164
f 101/159/165 99/160/166 103/161/167
f 103/161/167 99/160/166 98/162/168
f 103/161/167 98/162/168 106/163/169
f 105/164/170 98/152/158 104/165/171
f 104/165/171 98/152/158 100/154/160
f 102/166/172 105/167/173 100/168/174
f 100/168/174 105/167/173 104/169/175
f 98/152/158 105/164/170 106/170/176
f 106/163/169 101/159/165 103/161/167
f 125/171/177 111/172/178 107/173/179
f 107/173/179 111/172/178 108/174/180
f 107/173/179 108/174/180 109/175/181
f 109/175/181 108/174/180 110/176/182
f 109/175/181 110/176/182 121/177/183
f 121/177/183 110/176/182 120/178/184
f 111/179/185 112/180/186 108/174/180
f 108/174/180 112/180/186 113/181/187
f 108/174/180 113/181/187 110/176/182
f 110/176/182 113/181/187 114/182/188
f 110/176/182 114/182/188 120/178/184
f 120/178/184 114/182/188 119/183/189
f 107/173/190 109/175/191 115/184/192
f 115/184/192 109/175/191 116/185/193
f 115/184/192 116/185/193 117/186/194
f 117/186/194 116/185/193 118/187/195
f 117/186/194 118/187/195 119/183/196
f 119/183/196 118/187/195 120/178/197
f 109/175/191 121/177/198 116/185/193
f 116/185/193 121/177/198 120/178/197
f 116/185/193 120/178/197 118/187/195
f 122/188/199 123/189/199 124/190/200
f 124/190/200 123/189/199 115/184/192
f 124/190/200 115/184/192 117/186/194
f 122/191/201 125/171/202 123/192/203
f 123/192/203 125/171/202 107/173/190
f 123/192/203 107/173/190 115/184/192
f 111/172/178 125/171/177 126/193/204
f 112/180/186 111/179/185 126/194/185
f 114/182/188 113/181/187 119/183/189
f 127/195/205 128/196/206 129/197/207
f 129/197/207 128/196/206 130/198/208
f 129/197/207 130/198/208 131/199/209
f 131/199/209 130/198/208 135/200/210
f 131/199/209 135/200/210 132/201/211
f 132/201/211 135/200/210 133/202/212
f 132/201/211 133/202/212 128/203/213
f 129/204/214 131/205/215 134/206/216
f 134/206/216 131/205/215 132/207/217
f 134/206/216 132/207/217 127/208/218
f 130/198/208 128/196/206 135/209/219
f 135/209/219 128/196/206 133/210/220
f 132/201/211 128/203/213 127/211/221
f 134/206/216 127/208/218 129/204/214
f 136/212/222 143/213/223 137/214/224
f 137/214/224 143/213/223 142/215/225
f 137/214/224 142/215/225 140/216/226
f 140/216/226 142/215/225 138/217/227
f 140/216/226 138/217/227 141/218/228
f 141/218/228 138/217/227 136/219/229
f 141/218/228 136/219/229 144/220/230
f 144/221/231 137/222/232 139/223/233
f 139/223/233 137/222/232 140/224/234
f 139/223/233 140/224/234 141/225/235
f 138/217/227 142/226/236 136/219/229
f 136/219/229 142/226/236 143/227/236
f 144/228/237 136/212/222 137/214/224
f 141/225/235 144/221/231 139/223/233
usemtl _98
f 15/229/238 16/230/239 17/231/240
f 17/231/240 16/230/239 18/232/241
f 17/231/240 18/232/241 19/233/242
f 19/233/242 18/232/241 16/230/239 20/234/243
f 19/233/242 20/234/243 21/235/244 22/236/245
f 17/231/240 19/233/242 22/236/245
f 22/236/245 21/235/244 17/231/240
f 17/231/240 21/235/244 23/237/246
f 15/229/238 17/231/240 23/237/246 24/238/247
