# Blender v3.2.1 OBJ File: ''
# www.blender.org
mtllib underground_section.mtl
v -1.003509 2.500001 -0.206624
v -1.603509 1.800001 -0.206624
v -1.103509 2.700001 -0.206624
v -1.803509 1.900001 -0.206624
v -2.003509 1.000001 -0.206625
v -1.603509 0.100001 -0.206625
v -1.803509 1.000001 -0.206625
v 1.596491 0.100001 -0.206625
v 1.596491 1.800001 -0.206624
v 1.796491 1.900001 -0.206624
v 1.996491 1.000001 -0.206625
v 1.796491 1.000001 -0.206625
v 0.996491 2.500001 0.193376
v 0.996491 2.500001 -0.206624
v -0.003509 2.800001 -0.206624
v -0.003509 3.000001 -0.206624
v 1.096491 2.700001 -0.206624
v -1.603509 -0.099999 -0.222343
v -1.803509 0.000001 -0.206625
v -1.603509 -0.099999 0.209094
v 1.596491 -0.099999 -0.222343
v 1.596491 -0.099999 0.209094
v 1.796491 0.000001 -0.206625
v -0.003509 2.800001 0.193376
v -1.103509 2.700001 0.193376
v -1.003509 2.500001 0.193376
v -1.803509 1.900001 0.193376
v -1.803509 1.000001 0.193376
v -1.603509 1.800001 0.193376
v -2.003509 1.000001 0.193376
v -1.603509 0.100001 0.193375
v 1.796491 1.000001 0.193376
v 1.596491 0.100001 0.193375
v 1.796491 0.000001 0.193375
v 1.596491 1.800001 0.193376
v 1.996491 1.000001 0.193376
v 1.796491 1.900001 0.193376
v 1.096491 2.700001 0.193376
v -0.003509 3.000001 0.193376
v -1.803509 0.000001 0.193375
v 1.796491 -0.179005 -0.288906
v -1.803509 -0.179005 -0.288906
v -1.803509 -0.179005 0.275656
v 1.796491 -0.179005 0.275656
vt 0.195000 0.185000
vt 0.195000 0.170000
vt 0.240000 0.160000
vt 0.245000 0.170000
vt 0.360000 0.005000
vt 0.375000 0.005000
vt 0.375000 0.050000
vt 0.360000 0.050000
vt 0.275000 0.120000
vt 0.285000 0.125000
vt 0.375000 0.095000
vt 0.360000 0.095000
vt 0.285000 0.070000
vt 0.300000 0.070000
vt 0.375000 0.140000
vt 0.360000 0.140000
vt 0.275000 0.020000
vt 0.285000 0.010000
vt 0.375000 0.185000
vt 0.360000 0.185000
vt 0.100000 0.010000
vt 0.110000 0.020000
vt 0.100000 0.070000
vt 0.085000 0.070000
vt 0.360000 0.005000
vt 0.375000 0.005000
vt 0.375000 0.050000
vt 0.360000 0.050000
vt 0.110000 0.120000
vt 0.100000 0.125000
vt 0.375000 0.095000
vt 0.360000 0.095000
vt 0.145000 0.160000
vt 0.140000 0.170000
vt 0.375000 0.140000
vt 0.360000 0.140000
vt 0.375000 0.185000
vt 0.360000 0.185000
vt 0.275000 0.005000
vt 0.375000 0.185000
vt 0.360000 0.185000
vt 0.110000 0.005000
vt 0.360000 0.005000
vt 0.375000 0.005000
vt 0.610000 0.035000
vt 0.610000 0.160000
vt 0.625000 0.160000
vt 0.625000 0.035000
vt 0.240000 0.160000
vt 0.195000 0.170000
vt 0.195000 0.185000
vt 0.245000 0.170000
vt 0.275000 0.120000
vt 0.285000 0.125000
vt 0.285000 0.070000
vt 0.300000 0.070000
vt 0.275000 0.020000
vt 0.285000 0.010000
vt 0.100000 0.070000
vt 0.110000 0.020000
vt 0.100000 0.010000
vt 0.085000 0.070000
vt 0.110000 0.120000
vt 0.100000 0.125000
vt 0.145000 0.160000
vt 0.140000 0.170000
vt 0.275000 0.005000
vt 0.110000 0.005000
vt 0.437500 0.136719
vt 0.562500 0.136719
vt 0.562500 0.144531
vt 0.437500 0.144531
vt 0.437500 0.144531
vt 0.562500 0.144531
vt 0.562500 0.152344
vt 0.437500 0.152344
vn 0.0000 0.0000 -1.0000
vn 0.2873 -0.9578 0.0000
vn 0.7593 -0.6508 -0.0000
vn 0.9701 -0.2425 0.0000
vn 0.9762 0.2169 0.0000
vn -0.9762 0.2169 0.0000
vn -0.9701 -0.2425 0.0000
vn -0.7593 -0.6508 0.0000
vn -0.2873 -0.9578 0.0000
vn -0.0391 0.0783 -0.9962
vn 1.0000 0.0000 0.0000
vn 0.0391 0.0783 -0.9962
vn -1.0000 0.0000 0.0000
vn 0.0000 1.0000 0.0000
vn -0.0000 -0.0000 1.0000
vn -0.0391 0.0783 0.9962
vn 0.0391 0.0783 0.9962
vn 0.0000 0.4176 0.9086
vn 0.0000 0.4176 -0.9086
usemtl texobj2.png
s off
f 16/1/1 15/2/1 1/3/1
f 1/3/1 3/4/1 16/1/1
f 15/5/2 24/6/2 26/7/2
f 26/7/2 1/8/2 15/5/2
f 3/4/1 1/3/1 2/9/1
f 2/9/1 4/10/1 3/4/1
f 1/8/3 26/7/3 29/11/3
f 29/11/3 2/12/3 1/8/3
f 4/10/1 2/9/1 7/13/1
f 7/13/1 5/14/1 4/10/1
f 2/12/4 29/11/4 28/15/4
f 28/15/4 7/16/4 2/12/4
f 5/14/1 7/13/1 6/17/1
f 6/17/1 19/18/1 5/14/1
f 7/16/5 28/15/5 31/19/5
f 31/19/5 6/20/5 7/16/5
f 23/21/1 8/22/1 12/23/1
f 12/23/1 11/24/1 23/21/1
f 8/25/6 33/26/6 32/27/6
f 32/27/6 12/28/6 8/25/6
f 11/24/1 12/23/1 9/29/1
f 9/29/1 10/30/1 11/24/1
f 12/28/7 32/27/7 35/31/7
f 35/31/7 9/32/7 12/28/7
f 10/30/1 9/29/1 14/33/1
f 14/33/1 17/34/1 10/30/1
f 9/32/8 35/31/8 13/35/8
f 13/35/8 14/36/8 9/32/8
f 17/34/1 14/33/1 15/2/1
f 15/2/1 16/1/1 17/34/1
f 14/36/9 13/35/9 24/37/9
f 24/37/9 15/38/9 14/36/9
f 6/17/10 18/39/10 19/18/10
f 6/20/11 31/19/11 20/40/11
f 20/40/11 18/41/11 6/20/11
f 8/22/12 23/21/12 21/42/12
f 33/26/13 8/25/13 21/43/13
f 21/43/13 22/44/13 33/26/13
f 23/45/14 19/46/14 40/47/14
f 40/47/14 34/48/14 23/45/14
f 26/49/15 24/50/15 39/51/15
f 39/51/15 25/52/15 26/49/15
f 29/53/15 26/49/15 25/52/15
f 25/52/15 27/54/15 29/53/15
f 28/55/15 29/53/15 27/54/15
f 27/54/15 30/56/15 28/55/15
f 31/57/15 28/55/15 30/56/15
f 30/56/15 40/58/15 31/57/15
f 32/59/15 33/60/15 34/61/15
f 34/61/15 36/62/15 32/59/15
f 35/63/15 32/59/15 36/62/15
f 36/62/15 37/64/15 35/63/15
f 13/65/15 35/63/15 37/64/15
f 37/64/15 38/66/15 13/65/15
f 24/50/15 13/65/15 38/66/15
f 38/66/15 39/51/15 24/50/15
f 20/67/16 31/57/16 40/58/16
f 33/60/17 22/68/17 34/61/17
f 34/69/18 40/70/18 43/71/18 44/72/18
f 19/73/19 23/74/19 41/75/19 42/76/19
