# Blender v2.82 (sub 7) OBJ File: ''
# www.blender.org
mtllib village_house.mtl
v 2.000000 0.000001 -3.500000
v -2.000000 0.000001 -3.500000
v 2.000000 3.000000 -3.500000
v 0.000000 5.000000 3.500001
v 0.000000 5.000000 -3.499999
v -2.200000 2.799999 3.700001
v 0.000000 5.000000 3.700001
v 0.000000 5.000000 -3.699999
v -2.200000 2.800001 -3.700000
v -0.800000 4.200000 -1.299999
v -0.800000 5.000000 -1.299999
v -1.400000 3.600000 -1.299999
v -1.400000 3.600000 -1.899999
v -1.400000 5.000000 -1.899999
v -0.800000 5.000000 -1.899999
v -0.800000 4.200001 -1.899999
v -1.400000 5.000000 -1.299999
v -0.500000 0.999999 3.500000
v 2.000000 3.000000 3.500000
v -2.000000 1.000000 -1.000000
v -2.000000 2.600000 1.000000
v -2.000000 2.600000 2.000000
v -2.000000 3.000000 -3.500000
v -2.000000 2.600000 -1.000000
v -2.000000 -0.000001 3.500000
v -2.000000 3.000000 3.500000
v -2.000000 1.000000 1.000000
v 2.000000 -0.000001 3.500000
v 0.500000 2.600000 3.500000
v -0.500000 2.600000 3.300000
v 0.500000 0.999999 3.300000
v -1.800000 2.600000 1.000000
v -1.800000 1.000000 1.000000
v -1.800000 2.600000 2.000000
v -1.800000 2.600000 -1.000000
v -1.800000 2.600000 -2.000000
v -1.800000 1.000000 -2.000000
v 0.500000 0.999999 3.500000
v -0.500000 0.999999 3.300000
v 0.500000 2.600000 3.300000
v -0.500000 2.600000 3.500000
v -2.000000 1.000000 2.000000
v -1.800000 1.000000 2.000000
v -1.800000 1.000000 -1.000000
v -2.000000 1.000000 -2.000000
v -2.000000 2.600000 -2.000000
vt 0.375000 0.750000
vt 0.500000 0.750000
vt 0.500000 0.875000
vt 0.375000 0.875000
vt 0.095000 0.005000
vt 0.370000 0.005000
vt 0.235000 0.180000
vt 0.095000 0.005000
vt 0.235000 0.180000
vt 0.370000 0.005000
vt 0.375000 0.625000
vt 0.625000 0.625000
vt 0.625000 0.750000
vt 0.375000 0.750000
vt 0.635000 0.005000
vt 0.810000 0.080000
vt 0.810000 0.180000
vt 0.635000 0.180000
vt 0.635000 0.080000
vt 0.810000 0.005000
vt 0.810000 0.180000
vt 0.635000 0.180000
vt 0.635000 0.005000
vt 0.810000 0.005000
vt 0.810000 0.180000
vt 0.635000 0.180000
vt 0.375000 0.875000
vt 0.375000 0.750000
vt 0.420000 0.790000
vt 0.420000 0.855000
vt 0.455000 0.855000
vt 0.500000 0.875000
vt 0.465000 0.860000
vt 0.465000 0.790000
vt 0.535000 0.790000
vt 0.535000 0.860000
vt 0.570000 0.860000
vt 0.625000 0.875000
vt 0.375000 0.875000
vt 0.375000 0.750000
vt 0.430000 0.790000
vt 0.430000 0.860000
vt 0.570000 0.790000
vt 0.625000 0.750000
vt 0.500000 0.750000
vt 0.455000 0.790000
vt 1.000000 0.185000
vt 0.940000 0.185000
vt 0.940000 0.060000
vt 1.000000 0.060000
vt 1.000000 0.185000
vt 0.940000 0.185000
vt 0.940000 0.060000
vt 1.000000 0.060000
vt 1.000000 0.185000
vt 0.940000 0.185000
vt 0.940000 0.060000
vt 1.000000 0.060000
vt 0.570000 0.790000
vt 0.525000 0.790000
vt 0.525000 0.780000
vt 0.570000 0.780000
vt 0.580000 0.765000
vt 0.580000 0.865000
vt 0.570000 0.865000
vt 0.570000 0.765000
vt 0.570000 0.790000
vt 0.525000 0.790000
vt 0.525000 0.780000
vt 0.570000 0.780000
vt 0.580000 0.865000
vt 0.580000 0.765000
vt 0.570000 0.765000
vt 0.570000 0.865000
vt 0.570000 0.780000
vt 0.525000 0.780000
vt 0.525000 0.790000
vt 0.570000 0.790000
vt 0.580000 0.765000
vt 0.580000 0.865000
vt 0.570000 0.865000
vt 0.570000 0.765000
vt 0.525000 0.780000
vt 0.570000 0.780000
vt 0.570000 0.790000
vt 0.525000 0.790000
vt 0.580000 0.865000
vt 0.580000 0.765000
vt 0.570000 0.765000
vt 0.570000 0.865000
vt 0.570000 0.780000
vt 0.525000 0.780000
vt 0.525000 0.790000
vt 0.570000 0.790000
vt 0.580000 0.765000
vt 0.580000 0.865000
vt 0.570000 0.865000
vt 0.570000 0.765000
vt 0.525000 0.780000
vt 0.570000 0.780000
vt 0.570000 0.790000
vt 0.525000 0.790000
vt 0.580000 0.865000
vt 0.580000 0.765000
vt 0.570000 0.765000
vt 0.570000 0.865000
vn 0.0000 0.0000 -1.0000
vn 0.0000 -0.0000 1.0000
vn -0.7071 0.7071 0.0000
vn -1.0000 -0.0000 0.0000
vn 0.0000 1.0000 0.0000
vn 0.0000 -1.0000 0.0000
vn 1.0000 0.0000 0.0000
usemtl texobj2.png.001
s off
f 1/1/1 2/2/1 23/3/1
f 23/3/1 3/4/1 1/1/1
f 26/5/2 19/6/2 4/7/2
f 23/8/1 5/9/1 3/10/1
f 9/11/3 6/12/3 7/13/3
f 7/13/3 8/14/3 9/11/3
f 12/15/2 10/16/2 11/17/2
f 11/17/2 17/18/2 12/15/2
f 16/19/1 13/20/1 14/21/1
f 14/21/1 15/22/1 16/19/1
f 13/23/4 12/24/4 17/25/4
f 17/25/4 14/26/4 13/23/4
f 26/27/2 25/28/2 18/29/2
f 26/27/2 18/29/2 41/30/2
f 26/27/2 41/30/2 29/31/2
f 26/27/2 29/31/2 19/32/2
f 24/33/4 20/34/4 27/35/4
f 24/33/4 27/35/4 21/36/4
f 22/37/4 26/38/4 23/39/4
f 21/36/4 22/37/4 23/39/4
f 24/33/4 21/36/4 23/39/4
f 23/39/4 2/40/4 45/41/4
f 23/39/4 45/41/4 46/42/4
f 24/33/4 23/39/4 46/42/4
f 42/43/4 25/44/4 26/38/4
f 26/38/4 22/37/4 42/43/4
f 20/34/4 45/41/4 2/40/4
f 25/44/4 42/43/4 27/35/4
f 2/40/4 25/44/4 27/35/4
f 20/34/4 2/40/4 27/35/4
f 18/29/2 25/28/2 28/45/2
f 28/45/2 38/46/2 18/29/2
f 38/46/2 28/45/2 19/32/2
f 19/32/2 29/31/2 38/46/2
f 40/47/2 30/48/2 39/49/2
f 39/49/2 31/50/2 40/47/2
f 34/51/4 32/52/4 33/53/4
f 33/53/4 43/54/4 34/51/4
f 35/55/4 36/56/4 37/57/4
f 37/57/4 44/58/4 35/55/4
f 18/59/5 38/60/5 31/61/5
f 31/61/5 39/62/5 18/59/5
f 38/63/4 29/64/4 40/65/4
f 40/65/4 31/66/4 38/63/4
f 29/67/6 41/68/6 30/69/6
f 30/69/6 40/70/6 29/67/6
f 41/71/7 18/72/7 39/73/7
f 39/73/7 30/74/7 41/71/7
f 27/75/5 42/76/5 43/77/5
f 43/77/5 33/78/5 27/75/5
f 42/79/1 22/80/1 34/81/1
f 34/81/1 43/82/1 42/79/1
f 22/83/6 21/84/6 32/85/6
f 32/85/6 34/86/6 22/83/6
f 21/87/2 27/88/2 33/89/2
f 33/89/2 32/90/2 21/87/2
f 45/91/5 20/92/5 44/93/5
f 44/93/5 37/94/5 45/91/5
f 20/95/1 24/96/1 35/97/1
f 35/97/1 44/98/1 20/95/1
f 24/99/6 46/100/6 36/101/6
f 36/101/6 35/102/6 24/99/6
f 46/103/2 45/104/2 37/105/2
f 37/105/2 36/106/2 46/103/2
