# Blender v3.0.0 OBJ File: 'pito_npc_rig.blend'
# www.blender.org
mtllib w_ak.mtl
v -0.027271 0.120950 -0.037470
v 0.025587 0.019645 0.481564
v 0.026085 0.013774 -0.074236
v 0.025418 0.126301 0.480344
v -0.027890 0.019728 0.481423
v -0.027881 0.126377 0.480205
v 0.000427 -0.100684 -0.015618
v 0.000383 0.015101 0.040878
v 0.000490 -0.101178 -0.068881
v 0.019278 0.030296 0.745474
v 0.019709 0.027556 0.483431
v -0.000680 0.062955 0.483179
v 0.025866 0.016162 0.153071
v 0.025603 -0.105281 0.282577
v -0.027554 0.017398 0.259639
v -0.027641 -0.142883 0.182648
v -0.027756 -0.212622 0.345976
v 0.025748 0.017326 0.259600
v -0.021117 0.027562 0.483449
v -0.021369 0.030293 0.745493
v -0.000930 0.065692 0.745046
v 0.000913 0.117808 0.482532
v 0.000819 0.064486 0.483229
v 0.000848 0.118299 0.535972
v 0.000740 0.065549 0.586017
v 0.026207 0.120868 -0.037329
v -0.027215 0.013845 -0.074197
v 0.001248 0.027931 -0.071592
v 0.001255 0.048608 -0.062801
v 0.001615 -0.048095 -0.418477
v 0.001597 -0.002200 -0.379252
v 0.001654 0.099568 -0.420108
v 0.001189 0.107053 -0.043804
v 0.001279 0.084927 -0.051733
v 0.001520 0.065934 -0.380185
v 0.000725 0.139468 0.726083
v 0.000680 0.066642 0.687379
v 0.000602 0.067078 0.726392
v -0.027697 -0.105210 0.282617
v -0.027434 0.016237 0.152932
v 0.025666 -0.142780 0.182789
v 0.025630 -0.281969 0.265097
v -0.027677 -0.282072 0.264955
v 0.000349 0.014220 -0.036261
v 0.025543 -0.212696 0.346116
vt 0.709402 0.748206
vt 0.935092 0.748018
vt 0.690105 0.691784
vt 0.934489 0.691595
vt 0.934904 0.692688
vt 0.935507 0.749111
vt 0.690482 0.692387
vt 0.709704 0.748809
vt 0.935092 0.691294
vt 0.935318 0.703505
vt 0.690708 0.692085
vt 0.709515 0.704184
vt 0.689389 0.627785
vt 0.721086 0.627484
vt 0.689992 0.689598
vt 0.721689 0.689296
vt 0.709817 0.736711
vt 0.710005 0.748809
vt 0.935582 0.735994
vt 0.935695 0.748093
vt 0.934489 0.629218
vt 0.936411 0.690691
vt 0.909613 0.629595
vt 0.908106 0.688806
vt 0.803101 0.672599
vt 0.765184 0.672599
vt 0.803101 0.660501
vt 0.765184 0.660501
vt 0.873393 0.643804
vt 0.809508 0.643804
vt 0.873393 0.628992
vt 0.809508 0.628992
vt 0.722782 0.655186
vt 0.785688 0.682210
vt 0.784896 0.644897
vt 0.834007 0.689409
vt 0.847500 0.654282
vt 0.737783 0.690502
vt 0.784896 0.645198
vt 0.785688 0.682512
vt 0.847500 0.654583
vt 0.834007 0.689711
vt 0.737783 0.690088
vt 0.873581 0.644482
vt 0.809696 0.644482
vt 0.873581 0.627409
vt 0.809696 0.627409
vt 0.809583 0.626089
vt 0.873506 0.626089
vt 0.809583 0.643201
vt 0.873506 0.643201
vt 0.850402 0.687185
vt 0.850213 0.658202
vt 0.898985 0.687185
vt 0.907917 0.656016
vt 0.801518 0.628313
vt 0.804118 0.643804
vt 0.722782 0.628087
vt 0.723084 0.644407
vt 0.722895 0.643088
vt 0.723084 0.628690
vt 0.807510 0.644595
vt 0.806003 0.627785
vt 0.804797 0.632007
vt 0.779582 0.641618
vt 0.723197 0.632007
vt 0.742118 0.641618
vt 0.722707 0.655488
vt 0.850515 0.655789
vt 0.860013 0.647799
vt 0.869398 0.655789
vt 0.841017 0.734901
vt 0.823114 0.718318
vt 0.841205 0.718393
vt 0.817800 0.661518
vt 0.780599 0.673014
vt 0.780599 0.661518
vt 0.738311 0.673014
vt 0.738311 0.661405
vt 0.838793 0.673014
vt 0.783992 0.661405
vt 0.783992 0.673014
vt 0.735786 0.661405
vt 0.735710 0.673014
vt 0.838793 0.661405
vt 0.817687 0.673089
vn 1.0000 -0.0017 0.0015
vn 1.0000 0.0016 0.0009
vn -1.0000 0.0001 -0.0012
vn -1.0000 -0.0001 -0.0012
vn -0.0016 -0.9999 0.0106
vn -0.0013 -0.9999 0.0106
vn -0.0026 0.0114 0.9999
vn 0.0016 0.9999 -0.0105
vn 0.0014 0.9999 -0.0105
vn -1.0000 0.0002 -0.0012
vn -1.0000 -0.0014 0.0005
vn -0.0027 -0.7592 0.6508
vn -0.0003 -0.7600 0.6499
vn 0.8684 0.4958 -0.0038
vn 0.8665 0.4991 -0.0044
vn 1.0000 -0.0011 0.0010
vn 1.0000 -0.0002 0.0007
vn 1.0000 0.0003 0.0009
vn -1.0000 0.0010 -0.0009
vn -1.0000 -0.0001 -0.0005
vn -1.0000 -0.0000 -0.0010
vn 1.0000 -0.0010 0.0011
vn -0.8660 0.5000 -0.0060
vn -0.8660 0.5000 -0.0061
vn -0.0001 -0.9999 0.0105
vn 0.0001 -0.9999 0.0104
vn -1.0000 0.0017 -0.0012
vn -1.0000 0.0013 -0.0008
vn 0.0030 0.3244 -0.9459
vn -0.0003 0.3258 -0.9454
vn -1.0000 0.0009 -0.0013
vn -1.0000 0.0006 -0.0012
vn -1.0000 0.0025 -0.0013
vn -1.0000 -0.0039 -0.0005
vn -1.0000 0.0003 -0.0008
vn -1.0000 -0.0012 -0.0044
vn -1.0000 0.0011 -0.0011
vn 0.0005 0.0124 0.9999
vn -1.0000 0.0017 -0.0020
vn -0.0008 0.5089 0.8609
vn 0.0008 0.3516 0.9362
vn 0.0012 0.3514 0.9362
vn 0.0010 0.1842 0.9829
vn 0.0024 -0.1838 -0.9830
vn 0.0031 -0.3515 -0.9362
vn 0.0032 -0.3518 -0.9361
vn 0.0033 -0.5090 -0.8608
vn 0.0023 -0.1838 -0.9830
vn -0.0015 0.5091 0.8607
usemtl texobj2
s off
f 26/1/1 4/2/1 3/3/1
f 3/3/2 4/2/2 2/4/2
f 5/5/3 6/6/3 27/7/3
f 27/7/4 6/6/4 1/8/4
f 2/9/5 5/10/5 3/11/5
f 3/11/6 5/10/6 27/12/6
f 4/13/7 6/14/7 2/15/7
f 2/15/7 6/14/7 5/16/7
f 26/17/8 1/18/8 4/19/8
f 4/19/9 1/18/9 6/20/9
f 7/21/10 8/22/10 9/23/10
f 9/23/11 8/22/11 44/24/11
f 17/25/12 43/26/12 45/27/12
f 45/27/13 43/26/13 42/28/13
f 10/29/14 11/30/14 21/31/14
f 21/31/15 11/30/15 12/32/15
f 13/33/16 14/34/16 41/35/16
f 41/35/17 14/34/17 45/36/17
f 41/35/18 45/36/18 42/37/18
f 15/38/19 16/39/19 39/40/19
f 39/40/20 16/39/20 43/41/20
f 39/40/21 43/41/21 17/42/21
f 14/34/22 13/33/22 18/43/22
f 19/44/23 20/45/23 12/46/23
f 12/46/24 20/45/24 21/47/24
f 11/48/25 10/49/25 19/50/25
f 19/50/26 10/49/26 20/51/26
f 22/52/27 23/53/27 24/54/27
f 24/54/28 23/53/28 25/55/28
f 1/8/29 26/17/29 27/12/29
f 27/12/30 26/17/30 3/3/30
f 28/56/31 29/57/31 30/58/31
f 30/58/32 29/57/32 31/59/32
f 32/60/33 35/61/33 33/62/33
f 33/62/34 35/61/34 34/63/34
f 30/64/35 31/65/35 32/66/35
f 32/66/36 31/65/36 35/67/36
f 16/39/37 15/38/37 40/68/37
f 10/69/38 21/70/38 20/71/38
f 36/72/39 37/73/39 38/74/39
s 1
f 17/75/40 14/76/41 39/77/42
f 39/77/42 14/76/41 18/78/43
f 39/77/42 18/78/43 15/79/43
f 40/80/44 41/81/45 16/82/46
f 16/82/46 41/81/45 42/83/47
f 16/82/46 42/83/47 43/84/47
f 41/81/45 40/80/44 13/85/48
f 14/76/41 17/75/40 45/86/49
