# Blender v3.2.1 OBJ File: ''
# www.blender.org
mtllib wirepost.mtl
v 0.010803 -0.109619 -0.127034
v 0.027960 5.760057 -0.067057
v 0.088932 5.752131 0.033139
v 0.071861 -0.104896 -0.026688
v 0.012487 5.754011 0.122427
v -0.004617 -0.107848 0.062543
v -0.095730 5.763098 0.077413
v -0.112941 -0.114395 0.017345
v -0.086167 5.766834 -0.039694
v -0.103410 -0.115491 -0.099821
v 0.352082 5.044015 0.282099
v 0.380669 5.105502 0.294565
v -0.446447 5.493588 -0.046612
v -0.475035 5.432102 -0.059078
v -0.533292 5.763937 -0.206180
v -0.528699 5.832680 -0.203647
v 0.578042 5.729664 0.256618
v 0.573450 5.660921 0.254085
v -0.448517 5.432675 -0.122713
v -0.419929 5.494161 -0.110248
v 0.407187 5.106074 0.230929
v 0.378601 5.044588 0.218462
v 0.546932 5.660348 0.317721
v 0.551524 5.729091 0.320253
v -0.555217 5.832108 -0.140011
v -0.559810 5.763364 -0.142544
v -0.059567 5.082055 0.043767
v -0.013527 5.109221 0.063197
v -0.408985 5.791748 -0.095453
v -0.455025 5.764580 -0.114883
v -0.433147 5.765053 -0.167383
v -0.387108 5.792219 -0.147954
v 0.008351 5.109694 0.010695
v -0.037689 5.082527 -0.008735
v -0.058781 5.065006 0.043940
v -0.017936 5.029115 0.060639
v 0.413203 5.682637 0.246179
v 0.372359 5.718527 0.229482
v 0.394236 5.718999 0.176981
v 0.435081 5.683109 0.193679
v 0.003942 5.029588 0.008137
v -0.036903 5.065477 -0.008561
vt 0.960938 0.750000
vt 0.960938 0.500000
vt 0.964844 0.500000
vt 0.964844 0.750000
vt 0.937500 0.750000
vt 0.937500 0.500000
vt 0.941406 0.500000
vt 0.941406 0.750000
vt 0.949219 0.500000
vt 0.949219 0.750000
vt 0.941406 0.750000
vt 0.941406 0.500000
vt 0.957031 0.500000
vt 0.957031 0.750000
vt 0.949219 0.750000
vt 0.949219 0.500000
vt 0.957031 0.750000
vt 0.957031 0.500000
vt 0.933594 0.527344
vt 0.941406 0.523438
vt 0.972656 0.601562
vt 0.964844 0.605469
vt 0.992188 0.613281
vt 1.000000 0.613281
vt 0.992188 0.511719
vt 0.988281 0.511719
vt 0.964844 0.605469
vt 0.972656 0.601562
vt 0.941406 0.523438
vt 0.933594 0.527344
vt 0.988281 0.511719
vt 0.992188 0.511719
vt 1.000000 0.613281
vt 0.992188 0.613281
vt 0.968750 0.613281
vt 0.980469 0.511719
vt 0.972656 0.511719
vt 0.960938 0.609375
vt 0.980469 0.511719
vt 0.968750 0.609375
vt 0.960938 0.609375
vt 0.972656 0.511719
vt 0.972656 0.531250
vt 0.964844 0.527344
vt 0.957031 0.605469
vt 0.972656 0.527344
vt 0.964844 0.601562
vt 0.960938 0.601562
vt 0.964844 0.523438
vt 0.937500 0.566406
vt 0.941406 0.562500
vt 0.996094 0.601562
vt 0.992188 0.605469
vt 0.992188 0.605469
vt 0.996094 0.601562
vt 0.941406 0.562500
vt 0.937500 0.566406
vt 0.996094 0.562500
vt 0.941406 0.558594
vt 0.937500 0.562500
vt 0.996094 0.566406
vt 0.941406 0.558594
vt 1.000000 0.562500
vt 1.000000 0.566406
vt 0.937500 0.566406
vt 0.933594 0.562500
vt 0.988281 0.523438
vt 0.992188 0.527344
vt 0.992188 0.527344
vt 0.988281 0.523438
vt 0.933594 0.562500
vt 0.937500 0.566406
vt 0.988281 0.562500
vt 0.937500 0.558594
vt 0.937500 0.562500
vt 0.988281 0.566406
vt 0.933594 0.558594
vt 0.988281 0.562500
vt 0.984375 0.566406
vn 0.8543 0.0028 -0.5198
vn 0.7594 -0.0089 0.6505
vn -0.3846 -0.0083 0.9230
vn -0.9967 0.0037 -0.0812
vn -0.2324 0.0106 -0.9726
vn 0.3846 0.0083 -0.9230
vn -0.0759 -0.9963 -0.0406
vn 0.0759 0.9963 0.0406
vn -0.3644 -0.9174 -0.1601
vn 0.3644 0.9174 0.1601
vn -0.7813 -0.5295 -0.3304
vn 0.7813 0.5295 0.3303
vn -0.7516 0.5833 -0.3080
vn 0.7516 -0.5833 0.3080
usemtl texobj2
s off
f 1/1/1 2/2/1 3/3/1 4/4/1
f 4/5/2 3/6/2 5/7/2 6/8/2
f 6/9/3 5/10/3 7/11/3 8/12/3
f 8/13/4 7/14/4 9/15/4 10/16/4
f 10/17/5 9/18/5 2/2/5 1/1/5
f 11/19/3 12/20/3 13/21/3 14/22/3
f 15/23/6 16/24/6 17/25/6 18/26/6
f 19/27/6 20/28/6 21/29/6 22/30/6
f 23/31/3 24/32/3 25/33/3 26/34/3
f 15/35/7 18/36/7 23/37/7 26/38/7
f 17/39/8 16/40/8 25/41/8 24/42/8
f 19/27/9 22/43/9 11/44/9 14/45/9
f 21/46/10 20/47/10 13/48/10 12/49/10
f 27/50/3 28/51/3 29/52/3 30/53/3
f 31/54/6 32/55/6 33/56/6 34/57/6
f 31/58/11 34/59/11 27/60/11 30/61/11
f 33/62/12 32/63/12 29/64/12 28/51/12
f 35/65/3 36/66/3 37/67/3 38/68/3
f 39/69/6 40/70/6 41/71/6 42/72/6
f 39/73/13 42/74/13 35/75/13 38/76/13
f 41/77/14 40/78/14 37/79/14 36/66/14
