# Blender v2.82 (sub 7) OBJ File: ''
# www.blender.org
mtllib wood_box_green.mtl
v -0.800000 0.600000 -0.400000
v -0.800000 0.600000 0.400000
v 0.800000 0.600000 -0.400000
v -0.800000 -0.000000 0.400000
v 0.800000 -0.000000 0.400000
v 0.800000 0.600000 0.400000
v 0.800000 0.000000 -0.400000
v -0.800000 0.000000 -0.400000
vt 0.500000 0.250000
vt 0.250000 0.250000
vt 0.250000 0.125000
vt 0.500000 0.125000
vt 0.500000 0.250000
vt 0.250000 0.250000
vt 0.250000 0.125000
vt 0.500000 0.125000
vt 0.475000 0.250000
vt 0.275000 0.250000
vt 0.275000 0.125000
vt 0.475000 0.125000
vt 0.475000 0.250000
vt 0.275000 0.250000
vt 0.275000 0.125000
vt 0.475000 0.125000
vn 0.0000 1.0000 0.0000
vn 0.0000 -0.0000 1.0000
vn 1.0000 0.0000 0.0000
vn -1.0000 -0.0000 0.0000
usemtl texobj1.png.017
s off
f 3/1/1 1/2/1 2/3/1
f 2/3/1 6/4/1 3/1/1
f 6/5/2 2/6/2 4/7/2
f 4/7/2 5/8/2 6/5/2
f 3/9/3 6/10/3 5/11/3
f 5/11/3 7/12/3 3/9/3
f 2/13/4 1/14/4 8/15/4
f 8/15/4 4/16/4 2/13/4
