# Blender v2.82 (sub 7) OBJ File: ''
# www.blender.org
mtllib wood_box.mtl
v -0.500000 1.000000 -0.500000
v -0.500000 1.000000 0.500000
v 0.500000 1.000000 0.500000
v 0.500000 1.000000 -0.500000
v -0.500000 -0.000000 0.500000
v 0.500000 -0.000000 0.500000
v 0.500000 0.000000 -0.500000
v -0.500000 0.000000 -0.500000
vt 0.810000 0.435000
vt 0.625000 0.435000
vt 0.625000 0.250000
vt 0.810000 0.250000
vt 0.810000 0.435000
vt 0.625000 0.435000
vt 0.625000 0.250000
vt 0.810000 0.250000
vt 0.625000 0.435000
vt 0.625000 0.250000
vt 0.810000 0.250000
vt 0.810000 0.435000
vt 0.625000 0.435000
vt 0.625000 0.250000
vt 0.810000 0.250000
vt 0.810000 0.435000
vt 0.625000 0.250000
vt 0.810000 0.250000
vn 0.0000 1.0000 0.0000
vn 0.0000 -0.0000 1.0000
vn 1.0000 0.0000 0.0000
vn 0.0000 0.0000 -1.0000
vn -1.0000 0.0000 0.0000
usemtl texobj1.png.016
s off
f 4/1/1 1/2/1 2/3/1
f 2/3/1 3/4/1 4/1/1
f 3/5/2 2/6/2 5/7/2
f 5/7/2 6/8/2 3/5/2
f 4/1/3 3/9/3 6/10/3
f 6/10/3 7/11/3 4/1/3
f 1/12/4 4/13/4 7/14/4
f 7/14/4 8/15/4 1/12/4
f 2/16/5 1/2/5 8/17/5
f 8/17/5 5/18/5 2/16/5
