# Blender v3.2.1 OBJ File: ''
# www.blender.org
mtllib wood_reel.mtl
v 0.000000 0.100000 -0.800000
v 0.000000 2.000000 -0.800000
v 0.600000 2.000000 -0.600000
v 0.600000 0.100000 -0.600000
v -0.600000 0.100000 -0.600000
v -0.600000 2.000000 -0.600000
v 0.400000 2.000000 -1.100000
v 1.000000 2.100000 -0.700000
v 1.000000 2.000000 -0.700000
v -0.400000 2.000000 -1.100000
v -0.400000 2.100000 -1.100000
v -1.000000 2.100000 -0.700000
v 1.000000 0.000000 -0.700000
v 0.400000 0.000000 -1.100000
v -0.400000 0.000000 -1.100000
v -1.000000 0.000000 -0.700000
v 0.400000 2.100000 -1.100000
v 1.200000 2.100000 0.000000
v -1.200000 2.100000 0.000000
v -1.000000 2.000000 -0.700000
v -1.200000 2.000000 0.000000
v 1.200000 2.000000 0.000000
v 1.000000 0.100000 -0.700000
v 0.400000 0.100000 -1.100000
v -0.400000 0.100000 -1.100000
v -1.000000 0.100000 -0.700000
v 0.600000 2.000000 0.500000
v 0.000000 2.000000 0.700000
v 0.600000 0.100000 0.500000
v 0.000000 0.100000 0.700000
v -0.600000 2.000000 0.500000
v -0.600000 0.100000 0.500000
v -0.800000 2.000000 0.000000
v -0.800000 0.100000 0.000000
v 1.000000 2.000000 0.700000
v 1.000000 2.100000 0.700000
v 0.400000 2.100000 1.100000
v -0.400000 2.100000 1.100000
v 0.400000 2.000000 1.100000
v -1.000000 2.100000 0.700000
v 0.400000 -0.000000 1.100000
v 1.000000 -0.000000 0.700000
v 0.400000 0.100000 1.100000
v -0.400000 -0.000000 1.100000
v -0.400000 0.100000 1.100000
v -1.000000 0.100000 0.700000
v -1.000000 -0.000000 0.700000
v -1.200000 0.100000 0.000000
v -1.200000 0.000000 0.000000
v -0.400000 2.000000 1.100000
v -1.000000 2.000000 0.700000
v 1.000000 0.100000 0.700000
v 1.200000 0.100000 0.000000
vt 0.935000 0.500000
vt 1.000000 0.500000
vt 1.000000 0.750000
vt 0.935000 0.750000
vt 0.875000 0.500000
vt 0.935000 0.500000
vt 0.935000 0.750000
vt 0.875000 0.750000
vt 1.000000 0.500000
vt 1.000000 0.750000
vt 0.880000 0.505000
vt 0.935000 0.505000
vt 0.935000 0.525000
vt 0.880000 0.525000
vt 0.995000 0.505000
vt 0.995000 0.525000
vt 0.880000 0.505000
vt 0.935000 0.505000
vt 0.935000 0.525000
vt 0.880000 0.525000
vt 0.995000 0.505000
vt 0.995000 0.525000
vt 0.880000 0.505000
vt 0.940000 0.505000
vt 0.940000 0.525000
vt 0.880000 0.525000
vt 0.880000 0.505000
vt 0.940000 0.505000
vt 0.940000 0.525000
vt 0.880000 0.525000
vt 0.880000 0.505000
vt 0.940000 0.505000
vt 0.940000 0.525000
vt 0.880000 0.525000
vt 0.880000 0.505000
vt 0.940000 0.505000
vt 0.940000 0.525000
vt 0.880000 0.525000
vt 0.475000 0.825000
vt 0.415000 0.870000
vt 0.335000 0.870000
vt 0.275000 0.825000
vt 0.250000 0.755000
vt 0.500000 0.755000
vt 0.275000 0.825000
vt 0.335000 0.870000
vt 0.415000 0.870000
vt 0.475000 0.825000
vt 0.500000 0.755000
vt 0.250000 0.755000
vt 0.475000 0.825000
vt 0.415000 0.870000
vt 0.335000 0.870000
vt 0.275000 0.825000
vt 0.250000 0.755000
vt 0.500000 0.755000
vt 0.935000 0.500000
vt 0.935000 0.750000
vt 1.000000 0.750000
vt 1.000000 0.500000
vt 0.875000 0.500000
vt 0.875000 0.750000
vt 0.935000 0.750000
vt 0.935000 0.500000
vt 0.880000 0.505000
vt 0.880000 0.525000
vt 0.935000 0.525000
vt 0.935000 0.505000
vt 0.995000 0.525000
vt 0.995000 0.505000
vt 0.880000 0.505000
vt 0.880000 0.525000
vt 0.935000 0.525000
vt 0.935000 0.505000
vt 0.880000 0.505000
vt 0.880000 0.525000
vt 0.940000 0.525000
vt 0.940000 0.505000
vt 0.880000 0.505000
vt 0.880000 0.525000
vt 0.940000 0.525000
vt 0.940000 0.505000
vt 0.880000 0.505000
vt 0.880000 0.525000
vt 0.940000 0.525000
vt 0.940000 0.505000
vt 0.880000 0.505000
vt 0.880000 0.525000
vt 0.275000 0.825000
vt 0.335000 0.870000
vt 0.415000 0.870000
vt 0.475000 0.825000
vt 0.475000 0.825000
vt 0.415000 0.870000
vt 0.335000 0.870000
vt 0.275000 0.825000
vt 0.275000 0.825000
vt 0.335000 0.870000
vt 0.415000 0.870000
vt 0.475000 0.825000
vn 0.3162 0.0000 -0.9487
vn -0.3162 0.0000 -0.9487
vn -0.9487 0.0000 -0.3162
vn 0.5547 0.0000 -0.8321
vn 0.0000 0.0000 -1.0000
vn -0.5547 0.0000 -0.8321
vn -0.9615 -0.0000 -0.2747
vn 0.0000 1.0000 0.0000
vn 0.0000 -1.0000 -0.0000
vn 0.3162 -0.0000 0.9487
vn -0.3162 -0.0000 0.9487
vn -0.9285 -0.0000 0.3714
vn 0.5547 -0.0000 0.8320
vn 0.5547 0.0000 0.8321
vn 0.0000 0.0000 1.0000
vn -0.5547 0.0000 0.8320
vn -0.5547 -0.0000 0.8321
vn -0.9615 0.0000 0.2747
usemtl texobj1.png.002
s off
f 4/1/1 1/2/1 2/3/1
f 2/3/1 3/4/1 4/1/1
f 1/5/2 5/6/2 6/7/2
f 6/7/2 2/8/2 1/5/2
f 5/6/3 34/9/3 33/10/3
f 33/10/3 6/7/3 5/6/3
f 9/11/4 7/12/4 17/13/4
f 17/13/4 8/14/4 9/11/4
f 7/12/5 10/15/5 11/16/5
f 11/16/5 17/13/5 7/12/5
f 10/17/6 20/18/6 12/19/6
f 12/19/6 11/20/6 10/17/6
f 20/18/7 21/21/7 19/22/7
f 19/22/7 12/19/7 20/18/7
f 13/23/4 14/24/4 24/25/4
f 24/25/4 23/26/4 13/23/4
f 14/27/5 15/28/5 25/29/5
f 25/29/5 24/30/5 14/27/5
f 15/31/6 16/32/6 26/33/6
f 26/33/6 25/34/6 15/31/6
f 16/35/7 49/36/7 48/37/7
f 48/37/7 26/38/7 16/35/7
f 8/39/8 17/40/8 11/41/8
f 11/41/8 12/42/8 19/43/8
f 8/39/8 11/41/8 19/43/8
f 18/44/8 8/39/8 19/43/8
f 20/45/9 10/46/9 7/47/9
f 7/47/9 9/48/9 22/49/9
f 20/45/9 7/47/9 22/49/9
f 21/50/9 20/45/9 22/49/9
f 23/51/8 24/52/8 25/53/8
f 25/53/8 26/54/8 48/55/8
f 23/51/8 25/53/8 48/55/8
f 53/56/8 23/51/8 48/55/8
f 29/57/10 27/58/10 28/59/10
f 28/59/10 30/60/10 29/57/10
f 30/61/11 28/62/11 31/63/11
f 31/63/11 32/64/11 30/61/11
f 32/64/12 31/63/12 33/10/12
f 33/10/12 34/9/12 32/64/12
f 35/65/13 36/66/13 37/67/13
f 37/67/14 39/68/14 35/65/14
f 39/68/15 37/67/15 38/69/15
f 38/69/15 50/70/15 39/68/15
f 50/71/16 38/72/16 40/73/16
f 40/73/17 51/74/17 50/71/17
f 51/74/18 40/73/18 19/22/18
f 19/22/18 21/21/18 51/74/18
f 42/75/14 52/76/14 43/77/14
f 43/77/14 41/78/14 42/75/14
f 41/79/15 43/80/15 45/81/15
f 45/81/15 44/82/15 41/79/15
f 44/83/17 45/84/17 46/85/17
f 46/85/17 47/86/17 44/83/17
f 47/87/18 46/88/18 48/37/18
f 48/37/18 49/36/18 47/87/18
f 19/43/8 40/89/8 38/90/8
f 38/90/8 37/91/8 36/92/8
f 19/43/8 38/90/8 36/92/8
f 18/44/8 19/43/8 36/92/8
f 22/49/9 35/93/9 39/94/9
f 39/94/9 50/95/9 51/96/9
f 22/49/9 39/94/9 51/96/9
f 21/50/9 22/49/9 51/96/9
f 48/55/8 46/97/8 45/98/8
f 45/98/8 43/99/8 52/100/8
f 48/55/8 45/98/8 52/100/8
f 53/56/8 48/55/8 52/100/8
