# Blender v3.0.0 OBJ File: ''
# www.blender.org
mtllib collider.mtl
v 4.046943 -0.135770 -4.175931
v 4.046943 4.249061 -4.175931
v 4.046943 -0.135770 -5.479684
v 4.046943 4.249061 -5.479684
v 5.350695 -0.135770 -4.175931
v 5.350695 4.249061 -4.175931
v 5.350695 -0.135770 -5.479684
v 5.350695 4.249061 -5.479684
v -5.034483 -0.034540 -1.198902
v -5.034483 0.981695 -1.198902
v -5.034483 -0.034540 -3.198902
v -5.034483 0.981695 -3.198902
v -3.034483 -0.034540 -1.198902
v -3.034483 0.981695 -1.198902
v -3.034483 -0.034540 -3.198902
v -3.034483 0.981695 -3.198902
v -6.990437 -0.034540 -3.202912
v -6.990437 1.486460 -3.202912
v -6.990437 -0.034540 -5.202912
v -6.990437 1.486460 -5.202912
v -4.990437 -0.034540 -3.202912
v -4.990437 1.486460 -3.202912
v -4.990437 -0.034540 -5.202912
v -4.990437 1.486460 -5.202912
vt 0.375000 0.000000
vt 0.625000 0.000000
vt 0.625000 0.250000
vt 0.375000 0.250000
vt 0.625000 0.500000
vt 0.375000 0.500000
vt 0.625000 0.750000
vt 0.375000 0.750000
vt 0.625000 1.000000
vt 0.375000 1.000000
vt 0.375000 0.000000
vt 0.625000 0.000000
vt 0.625000 0.250000
vt 0.375000 0.250000
vt 0.875000 0.500000
vt 0.875000 0.750000
vt 0.625000 0.500000
vt 0.375000 0.500000
vt 0.625000 0.750000
vt 0.375000 0.750000
vt 0.625000 1.000000
vt 0.375000 1.000000
vt 0.875000 0.500000
vt 0.875000 0.750000
vt 0.375000 0.000000
vt 0.625000 0.000000
vt 0.625000 0.250000
vt 0.375000 0.250000
vt 0.625000 0.500000
vt 0.375000 0.500000
vt 0.625000 0.750000
vt 0.375000 0.750000
vt 0.625000 1.000000
vt 0.375000 1.000000
vt 0.875000 0.500000
vt 0.875000 0.750000
vn -1.0000 0.0000 0.0000
vn 0.0000 0.0000 -1.0000
vn 1.0000 0.0000 0.0000
vn 0.0000 0.0000 1.0000
vn 0.0000 1.0000 0.0000
usemtl None
s off
f 1/1/1 2/2/1 4/3/1 3/4/1
f 3/4/2 4/3/2 8/5/2 7/6/2
f 7/6/3 8/5/3 6/7/3 5/8/3
f 5/8/4 6/7/4 2/9/4 1/10/4
f 9/11/1 10/12/1 12/13/1 11/14/1
f 8/5/5 4/15/5 2/16/5 6/7/5
f 11/14/2 12/13/2 16/17/2 15/18/2
f 15/18/3 16/17/3 14/19/3 13/20/3
f 13/20/4 14/19/4 10/21/4 9/22/4
f 16/17/5 12/23/5 10/24/5 14/19/5
f 17/25/1 18/26/1 20/27/1 19/28/1
f 19/28/2 20/27/2 24/29/2 23/30/2
f 23/30/3 24/29/3 22/31/3 21/32/3
f 21/32/4 22/31/4 18/33/4 17/34/4
f 24/29/5 20/35/5 18/36/5 22/31/5
