# Blender v2.82 (sub 7) OBJ File: 'village_e3.blend'
# www.blender.org
mtllib intro_battle_rocks.mtl
v -4.093491 1.200000 -1.999921
v -4.593491 0.800000 -1.999921
v -4.093490 0.700000 -1.299921
v -5.493484 0.000000 -1.899920
v -4.793487 0.000000 -1.399920
v -4.093490 0.000000 -0.999920
v -3.393494 0.800000 -1.999921
v -3.393493 0.000000 -1.299921
v -3.093491 0.000000 -1.999921
v -3.993485 0.600000 -2.699921
v -3.393494 0.000000 -2.699921
v -3.993485 -0.000000 -3.199921
v -5.093491 0.000000 -2.999920
v -5.693497 1.560000 -3.799920
v -6.603500 1.430000 -3.799920
v -5.823502 1.169999 -2.889920
v -7.513505 -0.000000 -3.669919
v -6.473495 0.000000 -2.499920
v -5.693497 0.000000 -2.499920
v -4.523499 0.910000 -3.799921
v -4.783493 0.000000 -2.889920
v -4.393494 -0.000000 -3.799921
v -5.693498 1.040000 -4.709920
v -4.783494 -0.000000 -4.709920
v -5.563493 -0.000000 -5.359920
v -6.603500 -0.000000 -4.969919
vt 0.130000 0.970000
vt 0.105000 0.925000
vt 0.155000 0.925000
vt 0.105000 0.875000
vt 0.130000 0.875000
vt 0.155000 0.875000
vt 0.180000 0.970000
vt 0.205000 0.925000
vt 0.180000 0.875000
vt 0.205000 0.875000
vt 0.025000 0.970000
vt 0.000000 0.925000
vt 0.050000 0.925000
vt 0.000000 0.875000
vt 0.025000 0.875000
vt 0.050000 0.875000
vt 0.075000 0.970000
vt 0.075000 0.875000
vt 0.130000 0.970000
vt 0.105000 0.925000
vt 0.155000 0.925000
vt 0.105000 0.875000
vt 0.130000 0.875000
vt 0.155000 0.875000
vt 0.180000 0.970000
vt 0.205000 0.925000
vt 0.180000 0.875000
vt 0.205000 0.875000
vt 0.025000 0.970000
vt 0.000000 0.925000
vt 0.050000 0.925000
vt 0.000000 0.875000
vt 0.025000 0.875000
vt 0.050000 0.875000
vt 0.075000 0.970000
vt 0.075000 0.875000
vn -0.5456 0.6820 0.4871
vn -0.4637 0.6029 0.6492
vn -0.6350 0.5588 0.5334
vn -0.4650 0.3487 0.8137
vn 0.4216 0.7379 0.5270
vn 0.3665 0.3665 0.8552
vn 0.5500 0.5500 0.6285
vn 0.8690 0.3259 0.3724
vn 0.4115 0.7202 -0.5585
vn 0.8690 0.3259 -0.3724
vn 0.5500 0.5500 -0.6285
vn 0.5392 0.5392 -0.6470
vn -0.4977 0.6221 -0.6044
vn -0.1383 0.6340 -0.7608
vn -0.3077 0.8121 -0.4958
vn -0.6597 0.7122 -0.2399
vn -0.1311 0.9179 0.3746
vn -0.6587 0.4724 0.5856
vn -0.5657 0.5260 0.6351
vn 0.0000 0.3162 0.9487
vn 0.4439 0.7989 0.4058
vn 0.3718 0.3305 0.8675
vn 0.5617 0.4993 0.6597
vn 0.9113 0.1302 0.3906
vn 0.4345 0.7820 -0.4469
vn 0.9113 0.1302 -0.3906
vn 0.5668 0.4959 -0.6579
vn 0.5585 0.4887 -0.6702
vn -0.1231 0.8616 -0.4924
vn -0.3088 0.4760 -0.8234
vn -0.4490 0.5658 -0.6915
vn -0.7417 0.4248 -0.5192
usemtl texobj2.png
s 1
f 1/1/1 2/2/1 3/3/1
f 2/2/2 4/4/2 5/5/2
f 2/2/3 5/5/3 3/3/3
f 3/3/4 5/5/4 6/6/4
f 1/7/5 3/3/5 7/8/5
f 3/3/6 6/6/6 8/9/6
f 3/3/7 8/9/7 7/8/7
f 7/8/8 8/9/8 9/10/8
f 1/11/9 7/12/9 10/13/9
f 7/12/10 9/14/10 11/15/10
f 7/12/11 11/15/11 10/13/11
f 10/13/12 11/15/12 12/16/12
f 1/17/13 10/13/13 2/2/13
f 10/13/14 12/16/14 13/18/14
f 10/13/15 13/18/15 2/2/15
f 2/2/16 13/18/16 4/4/16
f 14/19/17 15/20/17 16/21/17
f 15/20/18 17/22/18 18/23/18
f 15/20/19 18/23/19 16/21/19
f 16/21/20 18/23/20 19/24/20
f 14/25/21 16/21/21 20/26/21
f 16/21/22 19/24/22 21/27/22
f 16/21/23 21/27/23 20/26/23
f 20/26/24 21/27/24 22/28/24
f 14/29/25 20/30/25 23/31/25
f 20/30/26 22/32/26 24/33/26
f 20/30/27 24/33/27 23/31/27
f 23/31/28 24/33/28 25/34/28
f 14/35/29 23/31/29 15/20/29
f 23/31/30 25/34/30 26/36/30
f 23/31/31 26/36/31 15/20/31
f 15/20/32 26/36/32 17/22/32
