# Blender v3.2.1 OBJ File: ''
# www.blender.org
mtllib props_texobj1.mtl
v 2.300000 1.899999 3.600000
v 2.300000 1.599999 3.800000
v 2.300000 1.699999 3.700000
v 2.300000 1.599999 4.000000
v 1.700000 1.399999 3.200000
v 1.700000 1.899999 3.600000
v 1.700000 1.699999 3.700000
v 1.700000 1.599999 4.000000
v 1.700000 1.599999 3.800000
v 2.300000 1.399999 3.200000
v 2.300000 1.099999 3.600000
v 1.700000 1.099999 3.600000
v 2.300000 1.099999 4.000000
v 1.700000 1.099999 4.000000
v 2.300000 4.599999 3.100001
v 2.300000 4.599999 3.600001
v 2.300000 1.899999 3.100000
v 1.700000 1.899999 3.100000
v 1.700000 4.599999 3.600001
v 1.700000 4.599999 3.100001
v 7.900000 2.200000 0.600000
v 7.900000 0.000000 -0.600000
v 7.900000 -0.000000 0.600000
v 8.000000 -0.000000 0.600000
v 8.000000 2.200000 0.600000
v 7.900000 2.200000 -0.600000
v 8.000000 2.200000 -0.600000
v 8.000000 0.000000 -0.600000
v 8.000000 0.000000 -0.600000
v 8.000000 2.200000 -0.600000
v 8.000000 2.200000 0.600000
v 8.000000 -0.000000 0.600000
v 8.000000 -0.000000 0.800000
v 8.000000 2.400000 0.800000
v 7.900000 2.400000 -0.800000
v 8.000000 2.400000 -0.800000
v 8.000000 0.000000 -0.800000
v 7.900000 0.000000 -0.800000
v 7.900000 0.000000 -0.600000
v 7.900000 2.200000 -0.600000
v 7.900000 -0.000000 0.600000
v 7.900000 -0.000000 0.800000
v 7.900000 2.400000 0.800000
v 7.900000 2.200000 0.600000
v 3.783330 2.700000 -0.181807
v 4.000000 3.000000 0.000000
v 3.818192 2.700000 0.216671
v 4.216670 2.700000 0.181808
v 3.973853 2.700000 -0.298858
v 3.701142 2.700000 0.026147
v 4.026147 2.700000 0.298859
v 4.298859 2.700000 -0.026146
v 4.181808 2.700000 -0.216670
v 4.000000 2.900000 0.000000
v 3.900381 2.900000 0.008716
v 4.099619 2.900000 -0.008715
v 4.099619 3.800000 -0.008715
v 3.900381 3.800000 0.008716
v -3.754254 2.700000 -0.172072
v -4.172073 2.700000 -0.245745
v -4.000000 3.000000 0.000000
v -4.278546 2.700000 -0.049115
v -4.049115 2.700000 0.278546
v -3.950885 2.700000 -0.278545
v -4.245746 2.700000 0.172073
v -3.827927 2.700000 0.245746
v -3.721454 2.700000 0.049116
v -4.000000 2.900000 0.000000
v -4.057358 2.900000 -0.081915
v -3.942642 2.900000 0.081916
v -3.942642 3.800000 0.081916
v -4.057358 3.800000 -0.081915
v 0.458819 0.900000 -0.934074
v -1.217930 0.900000 -2.555343
v -1.217930 0.800000 -2.555343
v -0.700292 0.900000 -0.623491
v -0.629581 0.800000 -0.745966
v -0.655463 0.000000 -0.842558
v -0.655463 0.800000 -0.842558
v 0.239752 0.000000 -0.978903
v -0.103648 0.000000 -2.646859
v -0.226122 0.000000 -2.717569
v -0.129530 0.000000 -2.743451
v -0.103648 0.800000 -2.646858
v -0.226122 0.800000 -2.717569
v -1.095455 0.000000 -2.484632
v -0.998863 0.800000 -2.510514
v -1.069574 0.000000 -2.388040
v 0.458819 0.800000 -0.934074
v -0.058819 0.900001 -2.865926
v -0.058819 0.800000 -2.865926
v -0.700292 0.800000 -0.623491
v -0.532989 0.000000 -0.771848
v -0.629581 0.000000 -0.745966
v -0.532989 0.800000 -0.771847
v 0.310463 0.000000 -1.101377
v 0.336345 0.800000 -1.004785
v 0.336345 0.000000 -1.004785
v 0.239752 0.800000 -0.978903
v 0.310463 0.800000 -1.101377
v -0.129530 0.800000 -2.743451
v -0.998863 0.000000 -2.510514
v -1.095455 0.800000 -2.484632
v -1.069574 0.800000 -2.388039
v 6.800000 0.000001 -3.500000
v 5.200000 2.000000 -3.500000
v 5.200000 2.000001 -4.000000
v 5.200000 0.000001 -4.000000
v 5.200000 0.000001 -3.500000
v 6.800000 2.000000 -3.500000
v 6.800000 0.000001 -4.000000
v 6.800000 2.000001 -4.000000
v 2.700000 0.000001 -3.500000
v 1.100000 2.000000 -3.500000
v 1.100000 2.000001 -4.000000
v 1.100000 0.000001 -4.000000
v 1.100000 0.000001 -3.500000
v 2.700000 2.000000 -3.500000
v 2.700000 0.000001 -4.000000
v 2.700000 2.000001 -4.000000
v 6.931798 0.600000 1.337907
v 7.868203 0.600000 2.862093
v 7.071247 0.600000 2.931818
v 7.071247 -0.000000 2.931818
v 7.868203 -0.000000 2.862093
v 7.728753 0.600000 1.268182
v 7.728753 -0.000000 1.268182
v 6.931798 -0.000000 1.337907
v 7.828753 1.200000 2.931818
v 7.031797 0.600000 2.862093
v 7.031797 1.200000 2.862094
v 7.828753 0.600000 2.931818
v 7.968203 1.200000 1.337907
v 7.968203 0.600000 1.337906
v 7.171247 0.600000 1.268182
v 7.171247 1.200000 1.268182
v 7.031797 0.600001 -2.962093
v 7.968203 0.600000 -1.437907
v 7.171247 0.600000 -1.368182
v 7.171247 0.000000 -1.368182
v 7.968203 0.000000 -1.437907
v 7.828753 0.600001 -3.031818
v 7.828753 0.000000 -3.031818
v 7.031797 0.000000 -2.962093
v 3.684420 1.000000 -2.820772
v 4.495580 1.000001 -3.979228
v 4.669228 1.000000 -2.994420
v 4.669228 0.000000 -2.994420
v 3.510772 1.000001 -3.805580
v 4.495580 0.000001 -3.979228
v 3.510772 0.000001 -3.805580
v 3.684420 0.000000 -2.820772
v -4.300000 0.400001 -4.000000
v -4.300000 0.400001 -3.200000
v -2.700000 0.400001 -4.000000
v -4.300000 -0.199999 -3.200000
v -2.700000 -0.199999 -3.200000
v -2.700000 0.400001 -3.200000
v -2.700000 -0.199999 -4.000000
v -4.300000 -0.199999 -4.000000
v 6.256422 0.000000 -2.998097
v 6.343578 0.000000 -2.001903
v 7.388837 0.823299 -3.097171
v 6.407612 -0.076604 -2.007505
v 7.475993 0.823299 -2.100976
v 7.411959 0.899903 -2.095374
v 7.324803 0.899903 -3.091568
v 6.320457 -0.076604 -3.003700
vt 0.870000 0.865000
vt 0.810000 0.865000
vt 0.810000 0.830000
vt 0.870000 0.830000
vt 0.870000 0.905000
vt 0.810000 0.905000
vt 0.870000 0.940000
vt 0.810000 0.940000
vt 0.870000 0.865000
vt 0.810000 0.865000
vt 0.810000 0.830000
vt 0.870000 0.830000
vt 0.870000 0.905000
vt 0.810000 0.905000
vt 0.870000 0.940000
vt 0.810000 0.940000
vt 0.820000 0.865000
vt 0.755000 0.865000
vt 0.755000 0.830000
vt 0.820000 0.830000
vt 0.820000 0.905000
vt 0.755000 0.905000
vt 0.820000 0.940000
vt 0.755000 0.940000
vt 0.875000 0.780000
vt 0.920000 0.780000
vt 0.920000 0.910000
vt 0.875000 0.910000
vt 0.930000 0.760000
vt 0.970000 0.760000
vt 0.970000 0.895000
vt 0.930000 0.895000
vt 0.880000 0.780000
vt 0.925000 0.780000
vt 0.925000 0.910000
vt 0.880000 0.910000
vt 0.625000 0.500000
vt 0.500000 0.500000
vt 0.500000 0.250000
vt 0.625000 0.250000
vt 0.625000 0.250000
vt 0.625000 0.500000
vt 0.500000 0.500000
vt 0.500000 0.250000
vt 0.515000 0.485000
vt 0.515000 0.255000
vt 0.515000 0.255000
vt 0.515000 0.485000
vt 0.615000 0.485000
vt 0.615000 0.485000
vt 0.615000 0.255000
vt 0.615000 0.255000
vt 0.570000 0.500000
vt 0.570000 0.250000
vt 0.560000 0.250000
vt 0.560000 0.500000
vt 0.570000 0.250000
vt 0.570000 0.500000
vt 0.560000 0.500000
vt 0.560000 0.250000
vt 0.500000 0.500000
vt 0.500000 0.250000
vt 0.625000 0.500000
vt 0.625000 0.250000
vt 0.845000 0.190000
vt 0.860000 0.190000
vt 0.810000 0.250000
vt 0.875000 0.190000
vt 0.750000 0.190000
vt 0.765000 0.190000
vt 0.780000 0.190000
vt 0.795000 0.190000
vt 0.810000 0.190000
vt 0.830000 0.190000
vt 0.845000 0.125000
vt 0.810000 0.185000
vt 0.860000 0.125000
vt 0.875000 0.125000
vt 0.750000 0.125000
vt 0.765000 0.125000
vt 0.780000 0.125000
vt 0.795000 0.125000
vt 0.810000 0.125000
vt 0.830000 0.125000
vt 0.875000 0.190000
vt 0.875000 0.250000
vt 0.750000 0.250000
vt 0.750000 0.190000
vt 0.845000 0.190000
vt 0.860000 0.190000
vt 0.810000 0.250000
vt 0.875000 0.190000
vt 0.750000 0.190000
vt 0.765000 0.190000
vt 0.780000 0.190000
vt 0.795000 0.190000
vt 0.810000 0.190000
vt 0.830000 0.190000
vt 0.845000 0.125000
vt 0.810000 0.185000
vt 0.860000 0.125000
vt 0.875000 0.125000
vt 0.750000 0.125000
vt 0.765000 0.125000
vt 0.780000 0.125000
vt 0.795000 0.125000
vt 0.810000 0.125000
vt 0.830000 0.125000
vt 0.875000 0.190000
vt 0.875000 0.250000
vt 0.750000 0.250000
vt 0.750000 0.190000
vt 0.310000 0.500000
vt 0.125000 0.625000
vt 0.125000 0.500000
vt 0.125000 0.500000
vt 0.310000 0.625000
vt 0.125000 0.625000
vt 0.125000 0.600000
vt 0.125000 0.625000
vt 0.125000 0.600000
vt 0.310000 0.625000
vt 0.125000 0.625000
vt 0.125000 0.600000
vt 0.310000 0.625000
vt 0.300000 0.600000
vt 0.300000 0.500000
vt 0.200000 0.500000
vt 0.310000 0.625000
vt 0.125000 0.605000
vt 0.125000 0.625000
vt 0.310000 0.625000
vt 0.125000 0.605000
vt 0.125000 0.625000
vt 0.310000 0.595000
vt 0.310000 0.595000
vt 0.125000 0.595000
vt 0.125000 0.625000
vt 0.310000 0.625000
vt 0.125000 0.605000
vt 0.310000 0.605000
vt 0.310000 0.595000
vt 0.125000 0.595000
vt 0.125000 0.625000
vt 0.200000 0.500000
vt 0.300000 0.500000
vt 0.300000 0.600000
vt 0.310000 0.625000
vt 0.125000 0.605000
vt 0.125000 0.625000
vt 0.310000 0.625000
vt 0.125000 0.605000
vt 0.125000 0.625000
vt 0.310000 0.595000
vt 0.310000 0.625000
vt 0.310000 0.500000
vt 0.310000 0.600000
vt 0.310000 0.600000
vt 0.310000 0.600000
vt 0.310000 0.605000
vt 0.310000 0.605000
vt 0.125000 0.595000
vt 0.200000 0.500000
vt 0.300000 0.500000
vt 0.300000 0.600000
vt 0.310000 0.625000
vt 0.125000 0.625000
vt 0.125000 0.605000
vt 0.310000 0.605000
vt 0.310000 0.625000
vt 0.300000 0.600000
vt 0.300000 0.500000
vt 0.200000 0.500000
vt 0.310000 0.605000
vt 0.310000 0.605000
vt 0.125000 0.595000
vt 1.000000 0.255000
vt 1.000000 0.500000
vt 0.875000 0.500000
vt 0.875000 0.255000
vt 0.815000 0.255000
vt 0.815000 0.500000
vt 0.870000 0.500000
vt 0.870000 0.255000
vt 0.815000 0.255000
vt 0.815000 0.500000
vt 0.870000 0.500000
vt 0.870000 0.255000
vt 0.815000 0.255000
vt 0.870000 0.255000
vt 1.000000 0.255000
vt 1.000000 0.500000
vt 0.875000 0.500000
vt 0.875000 0.255000
vt 0.815000 0.255000
vt 0.815000 0.500000
vt 0.870000 0.500000
vt 0.870000 0.255000
vt 0.815000 0.255000
vt 0.815000 0.500000
vt 0.870000 0.500000
vt 0.870000 0.255000
vt 0.815000 0.255000
vt 0.870000 0.255000
vt 0.500000 0.250000
vt 0.250000 0.250000
vt 0.250000 0.125000
vt 0.500000 0.125000
vt 0.500000 0.250000
vt 0.250000 0.250000
vt 0.250000 0.125000
vt 0.500000 0.125000
vt 0.475000 0.250000
vt 0.275000 0.250000
vt 0.275000 0.125000
vt 0.475000 0.125000
vt 0.475000 0.250000
vt 0.275000 0.250000
vt 0.275000 0.125000
vt 0.475000 0.125000
vt 0.500000 0.250000
vt 0.250000 0.250000
vt 0.250000 0.125000
vt 0.500000 0.125000
vt 0.500000 0.250000
vt 0.250000 0.250000
vt 0.250000 0.125000
vt 0.500000 0.125000
vt 0.475000 0.250000
vt 0.275000 0.250000
vt 0.275000 0.125000
vt 0.475000 0.125000
vt 0.475000 0.250000
vt 0.275000 0.250000
vt 0.275000 0.125000
vt 0.475000 0.125000
vt 0.500000 0.250000
vt 0.250000 0.250000
vt 0.250000 0.125000
vt 0.500000 0.125000
vt 0.500000 0.250000
vt 0.250000 0.250000
vt 0.250000 0.125000
vt 0.500000 0.125000
vt 0.475000 0.250000
vt 0.275000 0.250000
vt 0.275000 0.125000
vt 0.475000 0.125000
vt 0.475000 0.250000
vt 0.275000 0.250000
vt 0.275000 0.125000
vt 0.475000 0.125000
vt 0.810000 0.435000
vt 0.625000 0.435000
vt 0.625000 0.250000
vt 0.810000 0.250000
vt 0.810000 0.435000
vt 0.625000 0.435000
vt 0.625000 0.250000
vt 0.810000 0.250000
vt 0.625000 0.435000
vt 0.625000 0.250000
vt 0.810000 0.250000
vt 0.810000 0.435000
vt 0.625000 0.435000
vt 0.625000 0.250000
vt 0.810000 0.250000
vt 0.810000 0.435000
vt 0.625000 0.250000
vt 0.810000 0.250000
vt 0.500000 0.250000
vt 0.250000 0.250000
vt 0.250000 0.125000
vt 0.500000 0.125000
vt 0.500000 0.250000
vt 0.250000 0.250000
vt 0.250000 0.125000
vt 0.500000 0.125000
vt 0.475000 0.250000
vt 0.275000 0.250000
vt 0.275000 0.125000
vt 0.475000 0.125000
vt 0.475000 0.250000
vt 0.275000 0.250000
vt 0.275000 0.125000
vt 0.475000 0.125000
vt 0.875000 0.740000
vt 0.875000 0.500000
vt 1.000000 0.740000
vt 0.960000 0.740000
vt 0.960000 0.500000
vt 0.920000 0.740000
vt 1.000000 0.605000
vt 0.875000 0.605000
vt 1.000000 0.630000
vt 0.920000 0.500000
vt 0.920000 0.740000
vt 0.960000 0.500000
vt 1.000000 0.500000
vt 0.920000 0.500000
vt 0.875000 0.630000
vt 0.960000 0.740000
vn 1.0000 0.0000 0.0000
vn -1.0000 0.0000 -0.0000
vn 0.0000 -0.1961 -0.9806
vn 0.0000 -0.8000 -0.6000
vn 0.0000 -1.0000 -0.0000
vn 0.0000 0.0000 -1.0000
vn 0.0000 -0.0000 1.0000
vn 0.0000 1.0000 0.0000
vn -0.3902 0.6667 -0.6351
vn -0.6932 0.6667 -0.2740
vn -0.6351 0.6667 0.3902
vn -0.2740 0.6667 0.6932
vn 0.3902 0.6667 0.6351
vn 0.6932 0.6667 0.2740
vn 0.6351 0.6667 -0.3902
vn 0.2740 0.6667 -0.6932
vn 0.3128 -0.8018 0.5092
vn 0.5558 -0.8018 0.2197
vn 0.5092 -0.8018 -0.3128
vn 0.2197 -0.8018 -0.5558
vn -0.3128 -0.8018 -0.5092
vn -0.5558 -0.8018 -0.2197
vn -0.5092 -0.8018 0.3128
vn -0.2197 -0.8018 0.5558
vn 0.0872 -0.0000 0.9962
vn 0.3549 0.6667 -0.6554
vn -0.1093 0.6667 -0.7373
vn -0.6554 0.6667 -0.3549
vn -0.7373 0.6667 0.1093
vn -0.3549 0.6667 0.6554
vn 0.1093 0.6667 0.7373
vn 0.6554 0.6667 0.3549
vn 0.7373 0.6667 -0.1093
vn -0.2846 -0.8018 0.5255
vn 0.0877 -0.8018 0.5911
vn 0.5255 -0.8018 0.2846
vn 0.5911 -0.8018 -0.0877
vn 0.2846 -0.8018 -0.5255
vn -0.0877 -0.8018 -0.5911
vn -0.5255 -0.8018 -0.2846
vn -0.5911 -0.8018 0.0877
vn -0.8192 -0.0000 0.5736
vn -0.2588 0.0000 -0.9659
vn -0.9659 0.0000 0.2588
vn 0.2588 0.0000 0.9659
vn 0.5000 0.0000 -0.8660
vn -0.8660 0.0000 -0.5000
vn -0.5000 -0.0000 0.8660
vn 0.8660 -0.0000 0.5000
vn -0.9962 -0.0000 0.0872
vn -0.0872 0.0000 -0.9962
vn -0.9962 -0.0000 -0.0872
vn -0.0872 -0.0000 0.9962
vn 0.0872 0.0000 -0.9962
vn 0.1736 -0.0000 0.9848
vn 0.9848 0.0000 -0.1736
vn -0.1736 0.0000 -0.9848
vn -0.9848 0.0000 0.1736
vn -0.6403 0.7660 0.0560
vn 0.7631 0.6428 -0.0668
usemtl texobj1.png
s off
f 3/1/1 10/2/1 17/3/1
f 17/3/1 1/4/1 3/1/1
f 2/5/1 11/6/1 10/2/1
f 10/2/1 3/1/1 2/5/1
f 4/7/1 13/8/1 11/6/1
f 11/6/1 2/5/1 4/7/1
f 5/9/2 7/10/2 6/11/2
f 6/11/2 18/12/2 5/9/2
f 12/13/2 9/14/2 7/10/2
f 7/10/2 5/9/2 12/13/2
f 14/15/2 8/16/2 9/14/2
f 9/14/2 12/13/2 14/15/2
f 10/17/3 5/18/3 18/19/3
f 18/19/3 17/20/3 10/17/3
f 11/21/4 12/22/4 5/18/4
f 5/18/4 10/17/4 11/21/4
f 13/23/5 14/24/5 12/22/5
f 12/22/5 11/21/5 13/23/5
f 1/25/1 17/26/1 15/27/1
f 15/27/1 16/28/1 1/25/1
f 17/29/6 18/30/6 20/31/6
f 20/31/6 15/32/6 17/29/6
f 18/33/2 6/34/2 19/35/2
f 19/35/2 20/36/2 18/33/2
f 21/37/2 26/38/2 22/39/2
f 22/39/2 23/40/2 21/37/2
f 21/37/7 23/40/7 24/41/7
f 24/41/7 25/42/7 21/37/7
f 26/38/8 21/37/8 25/42/8
f 25/42/8 27/43/8 26/38/8
f 22/39/6 26/38/6 27/43/6
f 27/43/6 28/44/6 22/39/6
f 40/45/7 39/46/7 29/47/7
f 29/47/7 30/48/7 40/45/7
f 44/49/5 40/45/5 30/48/5
f 30/48/5 31/50/5 44/49/5
f 41/51/6 44/49/6 31/50/6
f 31/50/6 32/52/6 41/51/6
f 43/53/7 42/54/7 33/55/7
f 33/55/7 34/56/7 43/53/7
f 38/57/6 35/58/6 36/59/6
f 36/59/6 37/60/6 38/57/6
f 35/61/2 38/62/2 39/46/2
f 35/61/2 39/46/2 40/45/2
f 40/45/2 44/49/2 43/63/2
f 43/63/2 35/61/2 40/45/2
f 44/49/2 41/51/2 42/64/2
f 42/64/2 43/63/2 44/49/2
f 49/65/9 45/66/9 46/67/9
f 45/66/10 50/68/10 46/67/10
f 50/69/11 47/70/11 46/67/11
f 47/70/12 51/71/12 46/67/12
f 51/71/13 48/72/13 46/67/13
f 48/72/14 52/73/14 46/67/14
f 52/73/15 53/74/15 46/67/15
f 53/74/16 49/65/16 46/67/16
f 49/75/17 54/76/17 45/77/17
f 45/77/18 54/76/18 50/78/18
f 50/79/19 54/76/19 47/80/19
f 47/80/20 54/76/20 51/81/20
f 51/81/21 54/76/21 48/82/21
f 48/82/22 54/76/22 52/83/22
f 52/83/23 54/76/23 53/84/23
f 53/84/24 54/76/24 49/75/24
f 55/85/25 56/86/25 57/87/25
f 57/87/25 58/88/25 55/85/25
f 59/89/26 64/90/26 61/91/26
f 64/90/27 60/92/27 61/91/27
f 60/93/28 62/94/28 61/91/28
f 62/94/29 65/95/29 61/91/29
f 65/95/30 63/96/30 61/91/30
f 63/96/31 66/97/31 61/91/31
f 66/97/32 67/98/32 61/91/32
f 67/98/33 59/89/33 61/91/33
f 59/99/34 68/100/34 64/101/34
f 64/101/35 68/100/35 60/102/35
f 60/103/36 68/100/36 62/104/36
f 62/104/37 68/100/37 65/105/37
f 65/105/38 68/100/38 63/106/38
f 63/106/39 68/100/39 66/107/39
f 66/107/40 68/100/40 67/108/40
f 67/108/41 68/100/41 59/99/41
f 69/109/42 70/110/42 71/111/42
f 71/111/42 72/112/42 69/109/42
f 89/113/5 75/114/5 91/115/5
f 73/116/8 74/117/8 76/118/8
f 91/119/43 74/117/43 90/120/43
f 75/121/44 76/122/44 74/123/44
f 92/124/45 73/125/45 76/118/45
f 93/126/5 94/127/5 78/128/5
f 78/129/44 77/130/44 79/131/44
f 94/132/45 95/133/45 77/134/45
f 78/129/46 79/131/46 93/135/46
f 80/136/47 99/137/47 100/138/47
f 82/139/43 101/140/43 83/141/43
f 81/142/48 84/143/48 85/144/48
f 88/145/5 86/146/5 102/147/5
f 102/148/43 103/149/43 87/150/43
f 86/151/44 104/152/44 103/153/44
f 102/148/49 87/150/49 88/154/49
f 89/113/5 92/155/5 75/114/5
f 73/116/8 90/156/8 74/117/8
f 91/119/43 75/157/43 74/117/43
f 75/121/44 92/158/44 76/122/44
f 92/124/45 89/159/45 73/125/45
f 78/129/44 94/160/44 77/130/44
f 94/132/45 93/161/45 95/133/45
f 79/131/46 95/162/46 93/135/46
f 96/163/5 98/164/5 80/165/5
f 98/166/45 97/167/45 99/168/45
f 98/166/45 99/168/45 80/169/45
f 100/138/47 96/170/47 80/136/47
f 82/171/5 83/172/5 81/173/5
f 82/139/43 85/144/43 101/140/43
f 85/144/48 82/139/48 81/142/48
f 102/148/43 86/174/43 103/149/43
f 86/151/44 88/175/44 104/152/44
f 87/150/49 104/176/49 88/154/49
f 105/177/7 110/178/7 106/179/7
f 106/179/7 109/180/7 105/177/7
f 109/181/2 106/182/2 107/183/2
f 107/183/2 108/184/2 109/181/2
f 106/185/8 110/186/8 112/187/8
f 112/187/8 107/188/8 106/185/8
f 110/186/1 105/189/1 111/190/1
f 111/190/1 112/187/1 110/186/1
f 113/191/7 118/192/7 114/193/7
f 114/193/7 117/194/7 113/191/7
f 117/195/2 114/196/2 115/197/2
f 115/197/2 116/198/2 117/195/2
f 114/199/8 118/200/8 120/201/8
f 120/201/8 115/202/8 114/199/8
f 118/200/1 113/203/1 119/204/1
f 119/204/1 120/201/1 118/200/1
f 122/205/8 126/206/8 121/207/8
f 121/207/8 123/208/8 122/205/8
f 123/209/50 121/210/50 128/211/50
f 128/211/50 124/212/50 123/209/50
f 122/213/25 123/214/25 124/215/25
f 124/215/25 125/216/25 122/213/25
f 121/217/51 126/218/51 127/219/51
f 127/219/51 128/220/51 121/217/51
f 129/221/8 133/222/8 136/223/8
f 136/223/8 131/224/8 129/221/8
f 131/225/52 136/226/52 135/227/52
f 135/227/52 130/228/52 131/225/52
f 129/229/53 131/230/53 130/231/53
f 130/231/53 132/232/53 129/229/53
f 136/233/54 133/234/54 134/235/54
f 134/235/54 135/236/54 136/233/54
f 138/237/8 142/238/8 137/239/8
f 137/239/8 139/240/8 138/237/8
f 139/241/50 137/242/50 144/243/50
f 144/243/50 140/244/50 139/241/50
f 138/245/25 139/246/25 140/247/25
f 140/247/25 141/248/25 138/245/25
f 137/249/51 142/250/51 143/251/51
f 143/251/51 144/252/51 137/249/51
f 146/253/8 149/254/8 145/255/8
f 145/255/8 147/256/8 146/253/8
f 147/257/55 145/258/55 152/259/55
f 152/259/55 148/260/55 147/257/55
f 146/253/56 147/261/56 148/262/56
f 148/262/56 150/263/56 146/253/56
f 149/264/57 146/265/57 150/266/57
f 150/266/57 151/267/57 149/264/57
f 145/268/58 149/254/58 151/269/58
f 151/269/58 152/270/58 145/268/58
f 155/271/8 153/272/8 154/273/8
f 154/273/8 158/274/8 155/271/8
f 158/275/7 154/276/7 156/277/7
f 156/277/7 157/278/7 158/275/7
f 155/279/1 158/280/1 157/281/1
f 157/281/1 159/282/1 155/279/1
f 154/283/2 153/284/2 160/285/2
f 160/285/2 156/286/2 154/283/2
f 167/287/59 161/288/59 166/289/59
f 166/290/25 162/291/25 165/292/25
f 167/293/60 166/294/60 163/295/60
f 161/296/51 167/297/51 168/298/51
f 161/288/59 162/299/59 166/289/59
f 162/291/25 164/300/25 165/292/25
f 166/294/60 165/301/60 163/295/60
f 167/297/51 163/302/51 168/298/51
