# Blender v3.2.1 OBJ File: ''
# www.blender.org
mtllib props_texobj2.mtl
v -8.000000 4.000000 3.000001
v -8.000000 -0.000001 4.000000
v 7.000000 0.000001 -4.000000
v -8.000000 0.000001 -4.000000
v -8.000000 1.000001 -4.000000
v 7.000000 4.000000 -3.999999
v 7.000000 4.000000 -2.999999
v 0.000000 2.999999 4.000000
v -7.000000 4.000000 -3.999999
v 7.000000 -0.000001 4.000000
v -8.000000 3.999999 4.000000
v 8.000000 3.999999 4.000000
v -8.000000 3.000000 -3.000000
v -8.000000 4.000000 -3.999999
v 7.000000 2.999999 4.000000
v 8.000000 0.999999 4.000000
v -7.000000 0.999999 4.000000
v -8.000000 0.999999 4.000000
v -8.000000 2.999999 4.000000
v 8.000000 2.999999 4.000000
v 8.000000 1.000001 -4.000000
v 8.000000 3.000001 -4.000000
v 7.000000 3.000001 -4.000000
v -8.000000 1.000000 -3.000000
v -8.000000 3.000001 -4.000000
v 7.000000 0.999999 4.000000
v -7.000000 0.000001 -4.000000
v -7.000000 1.000001 -4.000000
v 7.000000 1.000001 -4.000000
v 0.000000 0.000001 -4.000000
v 7.000000 3.999999 4.000000
v 8.000000 -0.000001 4.000000
v 8.000000 -0.000000 3.000000
v 0.000000 3.000001 -4.000000
v 0.000000 1.000001 -4.000000
v -7.000000 -0.000001 4.000000
v 0.000000 0.999999 4.000000
v 0.000000 -0.000001 4.000000
v -7.000000 2.999999 4.000000
v -7.000000 3.000001 -4.000000
v -7.000000 4.000000 -2.999999
v -8.000000 4.000000 -2.999999
v 8.000000 4.000000 -3.999999
v 8.000000 1.000000 -3.000000
v 8.000000 0.000001 -4.000000
v -7.000000 0.000000 -3.000000
v -8.000000 4.000000 0.000001
v -8.000000 -0.000000 3.000000
v -7.000000 -0.000000 3.000000
v 0.000000 -0.000000 3.000000
v 8.000000 3.000000 3.000000
v 8.000000 1.000000 3.000000
v 7.000000 0.000000 0.000000
v 7.000000 -0.000000 3.000000
v 0.000000 0.000000 0.000000
v -8.000000 1.000000 3.000000
v -8.000000 3.000000 0.000000
v -8.000000 3.000000 3.000000
v 0.000000 3.999999 4.000000
v -7.000000 3.999999 4.000000
v -8.000000 0.000000 0.000000
v -8.000000 1.000000 0.000000
v 8.000000 4.000000 3.000001
v -7.000000 4.000000 3.000001
v -7.000000 4.000000 0.000001
v 8.000000 0.000000 0.000000
v -7.000000 0.000000 0.000000
v -8.000000 0.000000 -3.000000
v 8.000000 3.000000 0.000000
v 8.000000 4.000000 0.000001
v 8.000000 4.000000 -2.999999
v 8.000000 3.000000 -3.000000
v 8.000000 1.000000 0.000000
v 8.000000 0.000000 -3.000000
v 7.000000 0.000000 -3.000000
v 0.000000 0.000000 -3.000000
v 4.500000 1.800001 -4.000000
v 4.500000 2.200001 -3.400000
v 4.500000 3.400001 -3.400000
v 3.500000 2.200000 3.400001
v 4.500000 1.799999 4.000000
v 4.500000 2.200000 3.400001
v 4.500000 4.000000 -3.999999
v 4.500000 3.999999 4.000000
v 4.500000 3.400000 3.400001
v 3.500000 1.800001 -4.000000
v 3.500000 2.200001 -3.400000
v 3.500000 3.400001 -3.400000
v 3.500000 1.799999 4.000000
v 3.500000 3.999999 4.000000
v 3.500000 4.000000 -3.999999
v 3.500000 3.400000 3.400001
v -3.500000 2.200001 -3.400000
v -4.500000 2.200001 -3.400000
v -4.500000 3.400001 -3.400000
v -4.500000 3.400000 3.400001
v -3.500000 2.200000 3.400001
v -4.500000 2.200000 3.400001
v -3.500000 1.799999 4.000000
v -3.500000 1.800001 -4.000000
v -3.500000 3.400000 3.400001
v -3.500000 3.999999 4.000000
v -3.500000 3.400001 -3.400000
v -3.500000 4.000000 -3.999999
v -4.500000 1.800001 -4.000000
v -4.500000 1.799999 4.000000
v -4.500000 4.000000 -3.999999
v -4.500000 3.999999 4.000000
v 7.000000 4.000000 3.000001
v 0.000000 4.000000 3.000001
v 7.000000 4.000000 0.000001
v 0.000000 4.000000 0.000001
v 0.000000 4.000000 -2.999999
v 0.000000 4.000000 -3.999999
vt 0.235000 0.875000
vt 0.250000 0.875000
vt 0.250000 0.890000
vt 0.235000 0.890000
vt 0.220000 0.875000
vt 0.250000 0.875000
vt 0.250000 0.905000
vt 0.220000 0.905000
vt 0.220000 0.875000
vt 0.250000 0.875000
vt 0.250000 0.905000
vt 0.220000 0.905000
vt 0.220000 0.875000
vt 0.250000 0.875000
vt 0.250000 0.905000
vt 0.220000 0.905000
vt 0.220000 0.875000
vt 0.250000 0.875000
vt 0.250000 0.905000
vt 0.220000 0.905000
vt 0.000000 0.530000
vt 0.000000 0.560000
vt 0.030000 0.560000
vt 0.030000 0.530000
vt 0.015000 0.985000
vt 0.015000 1.000000
vt 0.000000 1.000000
vt 0.000000 0.985000
vt 0.250000 0.970000
vt 0.250000 1.000000
vt 0.030000 1.000000
vt 0.030000 0.970000
vt 0.250000 0.970000
vt 0.250000 1.000000
vt 0.030000 1.000000
vt 0.030000 0.970000
vt 0.250000 0.530000
vt 0.250000 0.560000
vt 0.030000 0.560000
vt 0.030000 0.530000
vt 0.220000 0.970000
vt 0.250000 0.970000
vt 0.250000 1.000000
vt 0.220000 1.000000
vt 0.220000 0.970000
vt 0.250000 0.970000
vt 0.250000 1.000000
vt 0.220000 1.000000
vt 0.220000 0.970000
vt 0.250000 0.970000
vt 0.250000 1.000000
vt 0.220000 1.000000
vt 0.220000 0.970000
vt 0.250000 0.970000
vt 0.250000 1.000000
vt 0.220000 1.000000
vt 0.000000 0.970000
vt 0.000000 0.905000
vt 0.030000 0.905000
vt 0.000000 0.970000
vt 0.000000 0.905000
vt 0.030000 0.905000
vt 0.000000 0.875000
vt 0.030000 0.875000
vt 0.000000 0.875000
vt 0.030000 0.875000
vt 0.000000 0.905000
vt 0.000000 0.875000
vt 0.000000 1.000000
vt 0.000000 0.560000
vt 0.000000 0.530000
vt 0.000000 1.000000
vt 0.000000 0.970000
vt 0.250000 0.905000
vt 0.250000 0.875000
vt 0.235000 0.985000
vt 0.235000 1.000000
vt 0.125000 1.000000
vt 0.125000 0.985000
vt 0.000000 0.905000
vt 0.000000 0.875000
vt 0.000000 1.000000
vt 0.000000 1.000000
vt 0.000000 0.970000
vt 0.250000 0.905000
vt 0.250000 0.875000
vt 0.250000 0.985000
vt 0.035000 0.875000
vt 0.035000 0.905000
vt 0.000000 0.905000
vt 0.000000 0.875000
vt 0.125000 0.905000
vt 0.125000 0.875000
vt 0.000000 0.530000
vt 0.030000 0.530000
vt 0.030000 0.560000
vt 0.000000 0.560000
vt 0.250000 0.530000
vt 0.030000 0.530000
vt 0.030000 0.560000
vt 0.250000 0.560000
vt 0.035000 0.970000
vt 0.035000 1.000000
vt 0.000000 0.970000
vt 0.125000 1.000000
vt 0.125000 0.970000
vt 0.000000 0.935000
vt 0.015000 0.935000
vt 0.000000 0.530000
vt 0.000000 0.560000
vt 0.125000 0.935000
vt 0.235000 0.935000
vt 0.250000 0.935000
vt 0.125000 0.905000
vt 0.125000 0.875000
vt 0.030000 0.440000
vt 0.000000 0.440000
vt 0.030000 0.440000
vt 0.250000 0.440000
vt 0.125000 1.000000
vt 0.125000 0.970000
vt 0.000000 0.440000
vt 0.035000 0.875000
vt 0.035000 0.905000
vt 0.000000 0.905000
vt 0.000000 0.875000
vt 0.125000 0.890000
vt 0.015000 0.890000
vt 0.015000 0.875000
vt 0.125000 0.875000
vt 0.035000 1.000000
vt 0.035000 0.970000
vt 0.000000 0.970000
vt 0.000000 0.890000
vt 0.000000 0.875000
vt 0.000000 0.925000
vt 0.020000 0.925000
vt 0.020000 0.980000
vt 0.000000 0.980000
vt 0.105000 0.925000
vt 0.140000 0.925000
vt 0.140000 0.980000
vt 0.105000 0.980000
vt 0.020000 0.925000
vt 0.230000 0.925000
vt 0.230000 0.980000
vt 0.020000 0.980000
vt 0.110000 0.925000
vt 0.150000 0.925000
vt 0.150000 0.980000
vt 0.110000 0.980000
vt 0.230000 0.925000
vt 0.250000 0.925000
vt 0.250000 0.980000
vt 0.230000 0.980000
vt 0.230000 0.975000
vt 0.230000 0.920000
vt 0.250000 0.905000
vt 0.000000 1.000000
vt 0.000000 0.905000
vt 0.020000 0.920000
vt 0.250000 1.000000
vt 0.020000 0.975000
vt 0.000000 0.905000
vt 0.020000 0.920000
vt 0.020000 0.975000
vt 0.230000 0.920000
vt 0.250000 0.905000
vt 0.250000 1.000000
vt 0.000000 1.000000
vt 0.230000 0.975000
vt 0.000000 0.925000
vt 0.020000 0.925000
vt 0.020000 0.980000
vt 0.000000 0.980000
vt 0.105000 0.925000
vt 0.140000 0.925000
vt 0.140000 0.980000
vt 0.105000 0.980000
vt 0.020000 0.925000
vt 0.230000 0.925000
vt 0.230000 0.980000
vt 0.020000 0.980000
vt 0.110000 0.925000
vt 0.150000 0.925000
vt 0.150000 0.980000
vt 0.110000 0.980000
vt 0.230000 0.925000
vt 0.250000 0.925000
vt 0.250000 0.980000
vt 0.230000 0.980000
vt 0.230000 0.975000
vt 0.230000 0.920000
vt 0.250000 0.905000
vt 0.000000 1.000000
vt 0.000000 0.905000
vt 0.020000 0.920000
vt 0.250000 1.000000
vt 0.020000 0.975000
vt 0.000000 0.905000
vt 0.020000 0.920000
vt 0.020000 0.975000
vt 0.230000 0.920000
vt 0.250000 0.905000
vt 0.250000 1.000000
vt 0.000000 1.000000
vt 0.230000 0.975000
vt 0.000000 1.000000
vn 0.0000 -1.0000 -0.0000
vn 0.0000 0.0000 -1.0000
vn -1.0000 0.0000 0.0000
vn 0.0000 -0.0000 1.0000
vn 1.0000 0.0000 0.0000
vn 0.0000 1.0000 0.0000
vn 0.0000 -0.8321 0.5547
vn 0.0000 -0.8321 -0.5547
usemtl texobj2.png
s off
f 60/1/1 11/2/1 1/3/1
f 1/3/1 64/4/1 60/1/1
f 36/5/2 2/6/2 18/7/2
f 18/7/2 17/8/2 36/5/2
f 33/9/3 32/10/3 16/11/3
f 16/11/3 52/12/3 33/9/3
f 3/13/4 45/14/4 21/15/4
f 21/15/4 29/16/4 3/13/4
f 68/17/5 4/18/5 5/19/5
f 5/19/5 24/20/5 68/17/5
f 48/21/6 2/22/6 36/23/6
f 36/23/6 49/24/6 48/21/6
f 7/25/1 6/26/1 43/27/1
f 43/27/1 71/28/1 7/25/1
f 8/29/2 59/30/2 31/31/2
f 31/31/2 15/32/2 8/29/2
f 34/33/4 114/34/4 9/35/4
f 9/35/4 40/36/4 34/33/4
f 50/37/6 38/38/6 10/39/6
f 10/39/6 54/40/6 50/37/6
f 39/41/2 19/42/2 11/43/2
f 11/43/2 60/44/2 39/41/2
f 51/45/3 20/46/3 12/47/3
f 12/47/3 63/48/3 51/45/3
f 23/49/4 22/50/4 43/51/4
f 43/51/4 6/52/4 23/49/4
f 13/53/5 25/54/5 14/55/5
f 14/55/5 42/56/5 13/53/5
f 15/32/2 20/57/2 16/58/2
f 16/58/2 26/59/2 15/32/2
f 40/36/4 25/60/4 5/61/4
f 5/61/4 28/62/4 40/36/4
f 17/8/2 18/7/2 19/42/2
f 19/42/2 39/41/2 17/8/2
f 52/12/3 16/11/3 20/46/3
f 20/46/3 51/45/3 52/12/3
f 29/16/4 21/15/4 22/50/4
f 22/50/4 23/49/4 29/16/4
f 24/20/5 5/19/5 25/54/5
f 25/54/5 13/53/5 24/20/5
f 26/59/2 16/58/2 32/63/2
f 32/63/2 10/64/2 26/59/2
f 28/62/4 5/61/4 4/65/4
f 4/65/4 27/66/4 28/62/4
f 3/13/4 29/16/4 35/67/4
f 35/67/4 30/68/4 3/13/4
f 15/32/2 31/31/2 12/69/2
f 12/69/2 20/57/2 15/32/2
f 54/40/6 10/39/6 32/70/6
f 32/70/6 33/71/6 54/40/6
f 23/49/4 6/52/4 114/72/4
f 114/72/4 34/73/4 23/49/4
f 15/32/2 26/59/2 37/74/2
f 37/74/2 8/29/2 15/32/2
f 29/16/4 23/49/4 34/73/4
f 34/73/4 35/67/4 29/16/4
f 26/59/2 10/64/2 38/75/2
f 38/75/2 37/74/2 26/59/2
f 41/76/1 9/77/1 114/78/1
f 114/78/1 113/79/1 41/76/1
f 36/5/2 17/8/2 37/80/2
f 37/80/2 38/81/2 36/5/2
f 49/24/6 36/23/6 38/38/6
f 38/38/6 50/37/6 49/24/6
f 40/36/4 9/35/4 14/82/4
f 14/82/4 25/60/4 40/36/4
f 39/41/2 60/44/2 59/83/2
f 59/83/2 8/84/2 39/41/2
f 40/36/4 28/62/4 35/85/4
f 35/85/4 34/33/4 40/36/4
f 17/8/2 39/41/2 8/84/2
f 8/84/2 37/80/2 17/8/2
f 28/62/4 27/66/4 30/86/4
f 30/86/4 35/85/4 28/62/4
f 41/76/1 42/87/1 14/55/1
f 14/55/1 9/77/1 41/76/1
f 74/88/3 44/89/3 21/90/3
f 21/90/3 45/91/3 74/88/3
f 68/17/5 24/20/5 62/92/5
f 62/92/5 61/93/5 68/17/5
f 68/94/6 46/95/6 27/96/6
f 27/96/6 4/97/6 68/94/6
f 76/98/6 75/99/6 3/100/6
f 3/100/6 30/101/6 76/98/6
f 72/102/3 71/103/3 43/27/3
f 43/27/3 22/104/3 72/102/3
f 13/53/5 42/56/5 47/105/5
f 47/105/5 57/106/5 13/53/5
f 44/89/3 72/102/3 22/104/3
f 22/104/3 21/90/3 44/89/3
f 24/20/5 13/53/5 57/106/5
f 57/106/5 62/92/5 24/20/5
f 70/107/1 111/108/1 7/25/1
f 7/25/1 71/28/1 70/107/1
f 75/99/6 74/109/6 45/110/6
f 45/110/6 3/100/6 75/99/6
f 41/76/1 113/79/1 112/111/1
f 112/111/1 65/112/1 41/76/1
f 46/95/6 76/98/6 30/101/6
f 30/101/6 27/96/6 46/95/6
f 64/4/1 1/3/1 47/113/1
f 47/113/1 65/112/1 64/4/1
f 33/9/3 52/12/3 73/114/3
f 73/114/3 66/115/3 33/9/3
f 48/21/6 49/24/6 67/116/6
f 67/116/6 61/117/6 48/21/6
f 50/37/6 54/40/6 53/118/6
f 53/118/6 55/119/6 50/37/6
f 51/45/3 63/48/3 70/120/3
f 70/120/3 69/121/3 51/45/3
f 52/12/3 51/45/3 69/121/3
f 69/121/3 73/114/3 52/12/3
f 54/40/6 33/71/6 66/122/6
f 66/122/6 53/118/6 54/40/6
f 49/24/6 50/37/6 55/119/6
f 55/119/6 67/116/6 49/24/6
f 48/123/5 56/124/5 18/125/5
f 18/125/5 2/126/5 48/123/5
f 110/127/1 109/128/1 31/129/1
f 31/129/1 59/130/1 110/127/1
f 57/106/5 47/105/5 1/131/5
f 57/106/5 1/131/5 58/132/5
f 56/124/5 58/132/5 19/133/5
f 56/124/5 19/133/5 18/125/5
f 109/128/1 63/134/1 12/135/1
f 12/135/1 31/129/1 109/128/1
f 64/4/1 110/127/1 59/130/1
f 59/130/1 60/1/1 64/4/1
f 61/93/5 62/92/5 56/124/5
f 56/124/5 48/123/5 61/93/5
f 62/92/5 57/106/5 58/132/5
f 58/132/5 56/124/5 62/92/5
f 63/134/1 109/128/1 111/108/1
f 111/108/1 70/107/1 63/134/1
f 65/112/1 112/111/1 110/127/1
f 110/127/1 64/4/1 65/112/1
f 65/112/1 47/113/1 42/87/1
f 42/87/1 41/76/1 65/112/1
f 66/115/3 73/114/3 44/89/3
f 44/89/3 74/88/3 66/115/3
f 61/117/6 67/116/6 46/95/6
f 46/95/6 68/94/6 61/117/6
f 55/119/6 53/118/6 75/99/6
f 75/99/6 76/98/6 55/119/6
f 69/121/3 70/120/3 71/103/3
f 71/103/3 72/102/3 69/121/3
f 73/114/3 69/121/3 72/102/3
f 72/102/3 44/89/3 73/114/3
f 53/118/6 66/122/6 74/109/6
f 74/109/6 75/99/6 53/118/6
f 67/116/6 55/119/6 76/98/6
f 76/98/6 46/95/6 67/116/6
f 77/136/7 78/137/7 87/138/7
f 87/138/7 86/139/7 77/136/7
f 78/140/4 79/141/4 88/142/4
f 88/142/4 87/143/4 78/140/4
f 79/144/1 85/145/1 92/146/1
f 92/146/1 88/147/1 79/144/1
f 85/148/2 82/149/2 80/150/2
f 80/150/2 92/151/2 85/148/2
f 82/152/8 81/153/8 89/154/8
f 89/154/8 80/155/8 82/152/8
f 79/156/5 78/157/5 77/158/5
f 84/159/5 81/160/5 82/161/5
f 79/156/5 77/158/5 83/162/5
f 84/159/5 82/161/5 85/163/5
f 83/162/5 84/159/5 85/163/5
f 79/156/5 83/162/5 85/163/5
f 86/164/3 87/165/3 88/166/3
f 80/167/3 89/168/3 90/169/3
f 91/170/3 86/164/3 88/166/3
f 91/170/3 88/166/3 92/171/3
f 92/171/3 80/167/3 90/169/3
f 91/170/3 92/171/3 90/169/3
f 100/172/7 93/173/7 94/174/7
f 94/174/7 105/175/7 100/172/7
f 93/176/4 103/177/4 95/178/4
f 95/178/4 94/179/4 93/176/4
f 103/180/1 101/181/1 96/182/1
f 96/182/1 95/183/1 103/180/1
f 101/184/2 97/185/2 98/186/2
f 98/186/2 96/187/2 101/184/2
f 97/188/8 99/189/8 106/190/8
f 106/190/8 98/191/8 97/188/8
f 103/192/5 93/193/5 100/194/5
f 102/195/5 99/196/5 97/197/5
f 103/192/5 100/194/5 104/198/5
f 102/195/5 97/197/5 101/199/5
f 104/198/5 102/195/5 101/199/5
f 103/192/5 104/198/5 101/199/5
f 105/200/3 94/201/3 95/202/3
f 98/203/3 106/204/3 108/205/3
f 107/206/3 105/200/3 95/202/3
f 107/206/3 95/202/3 96/207/3
f 96/207/3 98/203/3 108/205/3
f 107/206/3 96/207/3 108/205/3
f 112/111/1 111/108/1 109/128/1
f 109/128/1 110/127/1 112/111/1
f 113/79/1 7/25/1 111/108/1
f 111/108/1 112/111/1 113/79/1
f 6/26/1 7/25/1 113/79/1
f 113/79/1 114/78/1 6/26/1
f 58/132/5 1/131/5 11/208/5
f 11/208/5 19/133/5 58/132/5
