# Blender v2.82 (sub 7) OBJ File: 'garbage_camp.blend'
# www.blender.org
mtllib exterior.mtl
v -9.000000 -0.000001 7.000000
v -4.000000 -0.000001 7.000000
v -4.000000 -0.000000 2.000000
v 0.000000 -0.000000 2.000000
v 0.000000 -0.000001 7.000000
v 4.000000 -0.000000 2.000000
v 4.000000 -0.000001 7.000000
v 9.000000 -0.000001 7.000000
v -4.000000 0.000000 -2.000000
v 0.000000 0.000000 -2.000000
v 4.000000 0.000000 -2.000000
v -4.000000 5.000000 2.000001
v -4.000000 4.999999 7.000001
v 0.000000 4.999999 7.000001
v 4.000000 5.000000 2.000001
v 0.000000 5.000000 -1.999999
v 0.000000 5.000000 2.000001
v 4.000000 5.000000 -1.999999
v -4.000000 5.000001 -6.999999
v -4.000000 5.000000 -1.999999
v 4.000000 5.000001 -6.999999
v 4.000000 4.999999 7.000001
v 9.000000 4.999999 7.000001
v 9.000000 5.000000 2.000001
v 9.000000 5.000000 -1.999999
v 9.000000 0.000000 -2.000000
v 9.000000 -0.000000 2.000000
v 9.000000 0.000001 -7.000000
v 9.000000 5.000001 -6.999999
v 0.000000 5.000001 -6.999999
v 4.000000 0.000001 -7.000000
v 0.000000 0.000001 -7.000000
v -9.000000 5.000001 -6.999999
v -4.000000 0.000001 -7.000000
v -9.000000 0.000000 -2.000000
v -9.000000 0.000001 -7.000000
v -9.000000 5.000000 -1.999999
v -9.000000 -0.000000 2.000000
v -9.000000 5.000000 2.000001
v -9.000000 4.999999 7.000001
v 4.300000 5.000000 2.300001
v 3.700000 5.000000 2.300001
v 3.700000 -0.000000 2.300000
v 4.300000 5.000000 1.700001
v 4.300000 -0.000000 2.300000
v 4.300000 -0.000000 1.700000
v 3.700000 5.000000 1.700001
v 3.700000 -0.000000 1.700000
v 3.700000 0.000000 -1.700000
v 4.300000 0.000000 -1.700000
v 4.300000 5.000000 -1.699999
v 4.300000 5.000000 -2.299999
v 4.300000 0.000000 -2.300000
v 3.700000 5.000000 -2.299999
v 3.700000 5.000000 -1.699999
v 3.700000 0.000000 -2.300000
v -0.300000 5.000000 2.300001
v 0.300000 5.000000 1.700001
v 0.300000 5.000000 2.300001
v 0.300000 -0.000000 2.300000
v 0.300000 -0.000000 1.700000
v -0.300000 5.000000 1.700001
v -0.300000 -0.000000 1.700000
v -0.300000 -0.000000 2.300000
v -3.700000 5.000000 2.300001
v -4.300000 5.000000 2.300001
v -3.700000 -0.000000 2.300000
v -3.700000 -0.000000 1.700000
v -3.700000 5.000000 1.700001
v -4.300000 -0.000000 1.700000
v -4.300000 5.000000 1.700001
v -4.300000 -0.000000 2.300000
v 0.300000 5.000000 -1.699999
v -0.300000 0.000000 -1.700000
v 0.300000 5.000000 -2.299999
v 0.300000 0.000000 -1.700000
v 0.300000 0.000000 -2.300000
v -0.300000 5.000000 -1.699999
v -0.300000 5.000000 -2.299999
v -0.300000 0.000000 -2.300000
v -3.700000 0.000000 -1.700000
v -3.700000 5.000000 -2.299999
v -3.700000 5.000000 -1.699999
v -4.300000 5.000000 -2.299999
v -3.700000 0.000000 -2.300000
v -4.300000 0.000000 -2.300000
v -4.300000 0.000000 -1.700000
v -4.300000 5.000000 -1.699999
vt 0.375000 1.000000
vt 0.290000 1.000000
vt 0.290000 0.905000
vt 0.375000 0.905000
vt 0.375000 1.000000
vt 0.250000 1.000000
vt 0.250000 0.905000
vt 0.375000 0.905000
vt 0.375000 1.000000
vt 0.250000 1.000000
vt 0.250000 0.905000
vt 0.375000 0.905000
vt 0.345000 1.000000
vt 0.250000 1.000000
vt 0.250000 0.905000
vt 0.345000 0.905000
vt 0.375000 1.000000
vt 0.290000 1.000000
vt 0.290000 0.875000
vt 0.375000 0.875000
vt 0.375000 1.000000
vt 0.250000 1.000000
vt 0.250000 0.875000
vt 0.375000 0.875000
vt 0.375000 1.000000
vt 0.250000 1.000000
vt 0.250000 0.875000
vt 0.375000 0.875000
vt 0.345000 1.000000
vt 0.250000 1.000000
vt 0.250000 0.875000
vt 0.345000 0.875000
vt 0.375000 0.970000
vt 0.290000 0.970000
vt 0.290000 0.875000
vt 0.375000 0.875000
vt 0.375000 0.970000
vt 0.250000 0.970000
vt 0.250000 0.875000
vt 0.375000 0.875000
vt 0.375000 0.970000
vt 0.250000 0.970000
vt 0.250000 0.875000
vt 0.375000 0.875000
vt 0.345000 0.970000
vt 0.250000 0.970000
vt 0.250000 0.875000
vt 0.345000 0.875000
vt 0.250000 1.000000
vt 0.250000 0.905000
vt 0.345000 0.905000
vt 0.345000 1.000000
vt 0.250000 1.000000
vt 0.250000 0.905000
vt 0.375000 0.905000
vt 0.375000 1.000000
vt 0.250000 1.000000
vt 0.250000 0.905000
vt 0.375000 0.905000
vt 0.375000 1.000000
vt 0.280000 1.000000
vt 0.280000 0.905000
vt 0.375000 0.905000
vt 0.375000 1.000000
vt 0.250000 1.000000
vt 0.250000 0.875000
vt 0.345000 0.875000
vt 0.345000 1.000000
vt 0.250000 1.000000
vt 0.250000 0.875000
vt 0.375000 0.875000
vt 0.375000 1.000000
vt 0.250000 1.000000
vt 0.250000 0.875000
vt 0.375000 0.875000
vt 0.375000 1.000000
vt 0.280000 1.000000
vt 0.280000 0.875000
vt 0.375000 0.875000
vt 0.375000 1.000000
vt 0.250000 0.975000
vt 0.250000 0.875000
vt 0.345000 0.875000
vt 0.345000 0.975000
vt 0.250000 0.975000
vt 0.250000 0.875000
vt 0.375000 0.875000
vt 0.375000 0.975000
vt 0.250000 0.975000
vt 0.250000 0.875000
vt 0.375000 0.875000
vt 0.375000 0.975000
vt 0.280000 0.975000
vt 0.280000 0.875000
vt 0.375000 0.875000
vt 0.375000 0.975000
vt 0.375000 1.000000
vt 0.375000 0.875000
vt 0.500000 0.875000
vt 0.500000 1.000000
vt 0.375000 1.000000
vt 0.375000 0.875000
vt 0.500000 0.875000
vt 0.500000 1.000000
vt 0.375000 1.000000
vt 0.375000 0.875000
vt 0.500000 0.875000
vt 0.500000 1.000000
vt 0.375000 1.000000
vt 0.375000 0.875000
vt 0.500000 0.875000
vt 0.500000 1.000000
vt 0.375000 1.000000
vt 0.375000 0.875000
vt 0.500000 0.875000
vt 0.500000 1.000000
vt 0.375000 1.000000
vt 0.375000 0.875000
vt 0.500000 0.875000
vt 0.500000 1.000000
vt 0.375000 1.000000
vt 0.375000 0.875000
vt 0.500000 0.875000
vt 0.500000 1.000000
vt 0.375000 1.000000
vt 0.375000 0.875000
vt 0.500000 0.875000
vt 0.500000 1.000000
vt 0.375000 1.000000
vt 0.375000 0.875000
vt 0.500000 0.875000
vt 0.500000 1.000000
vt 0.375000 1.000000
vt 0.375000 0.875000
vt 0.500000 0.875000
vt 0.500000 1.000000
vt 0.375000 1.000000
vt 0.375000 0.875000
vt 0.500000 0.875000
vt 0.500000 1.000000
vt 0.375000 1.000000
vt 0.375000 0.875000
vt 0.500000 0.875000
vt 0.500000 1.000000
vt 0.375000 1.000000
vt 0.375000 0.875000
vt 0.500000 0.875000
vt 0.500000 1.000000
vt 0.375000 1.000000
vt 0.375000 0.875000
vt 0.500000 0.875000
vt 0.500000 1.000000
vt 0.988281 0.750000
vt 0.953125 0.750000
vt 0.953125 0.500000
vt 0.988281 0.500000
vt 0.988281 0.750000
vt 0.953125 0.750000
vt 0.953125 0.500000
vt 0.988281 0.500000
vt 0.988281 0.750000
vt 0.953125 0.750000
vt 0.953125 0.500000
vt 0.988281 0.500000
vt 0.988281 0.750000
vt 0.953125 0.750000
vt 0.953125 0.500000
vt 0.988281 0.500000
vt 0.988281 0.750000
vt 0.953125 0.750000
vt 0.953125 0.500000
vt 0.988281 0.500000
vt 0.988281 0.750000
vt 0.953125 0.750000
vt 0.953125 0.500000
vt 0.988281 0.500000
vt 0.988281 0.750000
vt 0.953125 0.750000
vt 0.953125 0.500000
vt 0.988281 0.500000
vt 0.988281 0.750000
vt 0.953125 0.750000
vt 0.953125 0.500000
vt 0.988281 0.500000
vt 0.988281 0.750000
vt 0.953125 0.750000
vt 0.953125 0.500000
vt 0.988281 0.500000
vt 0.988281 0.750000
vt 0.953125 0.750000
vt 0.953125 0.500000
vt 0.988281 0.500000
vt 0.988281 0.750000
vt 0.953125 0.750000
vt 0.953125 0.500000
vt 0.988281 0.500000
vt 0.988281 0.750000
vt 0.953125 0.750000
vt 0.953125 0.500000
vt 0.988281 0.500000
vt 0.988281 0.750000
vt 0.953125 0.750000
vt 0.953125 0.500000
vt 0.988281 0.500000
vt 0.988281 0.750000
vt 0.953125 0.750000
vt 0.953125 0.500000
vt 0.988281 0.500000
vt 0.988281 0.750000
vt 0.953125 0.750000
vt 0.953125 0.500000
vt 0.988281 0.500000
vt 0.988281 0.750000
vt 0.953125 0.750000
vt 0.953125 0.500000
vt 0.988281 0.500000
vt 0.988281 0.750000
vt 0.953125 0.750000
vt 0.953125 0.500000
vt 0.988281 0.500000
vt 0.988281 0.750000
vt 0.953125 0.750000
vt 0.953125 0.500000
vt 0.988281 0.500000
vt 0.988281 0.750000
vt 0.953125 0.750000
vt 0.953125 0.500000
vt 0.988281 0.500000
vt 0.988281 0.750000
vt 0.953125 0.750000
vt 0.953125 0.500000
vt 0.988281 0.500000
vt 0.988281 0.750000
vt 0.953125 0.750000
vt 0.953125 0.500000
vt 0.988281 0.500000
vt 0.988281 0.750000
vt 0.953125 0.750000
vt 0.953125 0.500000
vt 0.988281 0.500000
vt 0.988281 0.750000
vt 0.953125 0.750000
vt 0.953125 0.500000
vt 0.988281 0.500000
vt 0.988281 0.750000
vt 0.953125 0.750000
vt 0.953125 0.500000
vt 0.988281 0.500000
vn 0.0000 1.0000 0.0000
vn 0.0000 -1.0000 0.0000
vn 0.0000 0.0000 -1.0000
vn -1.0000 0.0000 0.0000
vn 0.0000 -0.0000 1.0000
vn 1.0000 0.0000 0.0000
usemtl texobj2
s off
f 3/1/1 38/2/1 1/3/1
f 1/3/1 2/4/1 3/1/1
f 4/5/1 3/6/1 2/7/1
f 2/7/1 5/8/1 4/5/1
f 6/9/1 4/10/1 5/11/1
f 5/11/1 7/12/1 6/9/1
f 27/13/1 6/14/1 7/15/1
f 7/15/1 8/16/1 27/13/1
f 9/17/1 35/18/1 38/19/1
f 38/19/1 3/20/1 9/17/1
f 10/21/1 9/22/1 3/23/1
f 3/23/1 4/24/1 10/21/1
f 11/25/1 10/26/1 4/27/1
f 4/27/1 6/28/1 11/25/1
f 26/29/1 11/30/1 6/31/1
f 6/31/1 27/32/1 26/29/1
f 34/33/1 36/34/1 35/35/1
f 35/35/1 9/36/1 34/33/1
f 32/37/1 34/38/1 9/39/1
f 9/39/1 10/40/1 32/37/1
f 31/41/1 32/42/1 10/43/1
f 10/43/1 11/44/1 31/41/1
f 28/45/1 31/46/1 11/47/1
f 11/47/1 26/48/1 28/45/1
f 12/49/2 13/50/2 40/51/2
f 40/51/2 39/52/2 12/49/2
f 17/53/2 14/54/2 13/55/2
f 13/55/2 12/56/2 17/53/2
f 15/57/2 22/58/2 14/59/2
f 14/59/2 17/60/2 15/57/2
f 24/61/2 23/62/2 22/63/2
f 22/63/2 15/64/2 24/61/2
f 20/65/2 12/66/2 39/67/2
f 39/67/2 37/68/2 20/65/2
f 16/69/2 17/70/2 12/71/2
f 12/71/2 20/72/2 16/69/2
f 18/73/2 15/74/2 17/75/2
f 17/75/2 16/76/2 18/73/2
f 25/77/2 24/78/2 15/79/2
f 15/79/2 18/80/2 25/77/2
f 19/81/2 20/82/2 37/83/2
f 37/83/2 33/84/2 19/81/2
f 30/85/2 16/86/2 20/87/2
f 20/87/2 19/88/2 30/85/2
f 21/89/2 18/90/2 16/91/2
f 16/91/2 30/92/2 21/89/2
f 29/93/2 25/94/2 18/95/2
f 18/95/2 21/96/2 29/93/2
f 13/97/3 2/98/3 1/99/3
f 1/99/3 40/100/3 13/97/3
f 14/101/3 5/102/3 2/103/3
f 2/103/3 13/104/3 14/101/3
f 22/105/3 7/106/3 5/107/3
f 5/107/3 14/108/3 22/105/3
f 23/109/3 8/110/3 7/111/3
f 7/111/3 22/112/3 23/109/3
f 24/113/4 27/114/4 8/115/4
f 8/115/4 23/116/4 24/113/4
f 25/117/4 26/118/4 27/119/4
f 27/119/4 24/120/4 25/117/4
f 29/121/4 28/122/4 26/123/4
f 26/123/4 25/124/4 29/121/4
f 21/125/5 31/126/5 28/127/5
f 28/127/5 29/128/5 21/125/5
f 30/129/5 32/130/5 31/131/5
f 31/131/5 21/132/5 30/129/5
f 19/133/5 34/134/5 32/135/5
f 32/135/5 30/136/5 19/133/5
f 33/137/5 36/138/5 34/139/5
f 34/139/5 19/140/5 33/137/5
f 37/141/6 35/142/6 36/143/6
f 36/143/6 33/144/6 37/141/6
f 39/145/6 38/146/6 35/147/6
f 35/147/6 37/148/6 39/145/6
f 40/149/6 1/150/6 38/151/6
f 38/151/6 39/152/6 40/149/6
f 41/153/5 42/154/5 43/155/5
f 43/155/5 45/156/5 41/153/5
f 44/157/6 41/158/6 45/159/6
f 45/159/6 46/160/6 44/157/6
f 47/161/3 44/162/3 46/163/3
f 46/163/3 48/164/3 47/161/3
f 42/165/4 47/166/4 48/167/4
f 48/167/4 43/168/4 42/165/4
f 51/169/5 55/170/5 49/171/5
f 49/171/5 50/172/5 51/169/5
f 52/173/6 51/174/6 50/175/6
f 50/175/6 53/176/6 52/173/6
f 54/177/3 52/178/3 53/179/3
f 53/179/3 56/180/3 54/177/3
f 55/181/4 54/182/4 56/183/4
f 56/183/4 49/184/4 55/181/4
f 59/185/5 57/186/5 64/187/5
f 64/187/5 60/188/5 59/185/5
f 58/189/6 59/190/6 60/191/6
f 60/191/6 61/192/6 58/189/6
f 62/193/3 58/194/3 61/195/3
f 61/195/3 63/196/3 62/193/3
f 57/197/4 62/198/4 63/199/4
f 63/199/4 64/200/4 57/197/4
f 65/201/5 66/202/5 72/203/5
f 72/203/5 67/204/5 65/201/5
f 69/205/6 65/206/6 67/207/6
f 67/207/6 68/208/6 69/205/6
f 71/209/3 69/210/3 68/211/3
f 68/211/3 70/212/3 71/209/3
f 66/213/4 71/214/4 70/215/4
f 70/215/4 72/216/4 66/213/4
f 73/217/5 78/218/5 74/219/5
f 74/219/5 76/220/5 73/217/5
f 75/221/6 73/222/6 76/223/6
f 76/223/6 77/224/6 75/221/6
f 79/225/3 75/226/3 77/227/3
f 77/227/3 80/228/3 79/225/3
f 78/229/4 79/230/4 80/231/4
f 80/231/4 74/232/4 78/229/4
f 83/233/5 88/234/5 87/235/5
f 87/235/5 81/236/5 83/233/5
f 82/237/6 83/238/6 81/239/6
f 81/239/6 85/240/6 82/237/6
f 84/241/3 82/242/3 85/243/3
f 85/243/3 86/244/3 84/241/3
f 88/245/4 84/246/4 86/247/4
f 86/247/4 87/248/4 88/245/4
