# Blender v2.82 (sub 7) OBJ File: 'garbage_camp.blend'
# www.blender.org
mtllib interior.mtl
v 2.708495 1.000000 -2.008265
v 2.246996 1.000000 -1.121124
v 3.134137 1.000000 -0.659626
v 3.595636 1.000000 -1.546767
v 2.246996 -0.000000 -1.121125
v 3.134138 -0.000000 -0.659626
v 3.595636 0.000000 -1.546767
v 2.708495 0.000000 -2.008265
v -3.400000 -0.000001 6.984160
v -3.900000 1.999999 6.984160
v -3.900000 -0.000001 6.984160
v -3.400000 1.999999 5.400000
v -3.900000 1.999999 5.400000
v -3.400000 1.999999 6.984160
v -3.400000 -0.000001 5.400000
v -3.900000 -0.000001 5.400000
v -1.440000 0.419999 6.420000
v -2.560000 0.419999 6.980000
v -2.560000 0.419999 6.420000
v -2.560000 -0.000001 6.420000
v -2.560000 -0.000001 6.980000
v -1.440000 0.419999 6.980000
v -1.440000 -0.000001 6.980000
v -1.440000 -0.000001 6.420000
v -2.931798 0.599999 3.637907
v -2.931798 -0.000001 3.637907
v -3.728753 -0.000001 3.568182
v -3.728753 0.599999 3.568182
v -3.071247 0.599999 5.231818
v -3.868203 0.599999 5.162094
v -3.868203 -0.000001 5.162094
v -3.071247 -0.000001 5.231818
v -4.300000 1.999999 6.994072
v -4.100000 2.000000 4.027653
v -4.300000 2.000000 4.027653
v -4.100000 -0.000000 4.027652
v -4.100000 1.999999 6.994072
v -4.100000 -0.000001 6.994072
v 1.200000 1.100000 1.600000
v 1.100000 -0.000000 1.900000
v 1.200000 -0.000000 1.600000
v 0.800000 1.100000 2.000000
v 1.100000 1.100000 1.900000
v 0.500000 1.100000 1.900000
v 0.500000 -0.000000 1.900000
v 0.500000 -0.000000 1.300000
v 0.400000 1.100000 1.600000
v 0.500000 1.100000 1.300000
v 0.800000 1.100000 1.200000
v 1.100000 1.100000 1.300000
v 1.100000 -0.000000 1.300000
v 0.800000 -0.000000 2.000000
v 0.400000 -0.000000 1.600000
v 0.800000 -0.000000 1.200000
v 8.900000 -0.000001 3.400000
v 8.800000 1.100000 3.100000
v 8.800000 -0.000001 3.100000
v 8.500000 -0.000000 3.000000
v 8.100000 1.099999 3.400000
v 8.200000 1.100000 3.100000
v 8.200000 -0.000001 3.100000
v 8.200000 1.099999 3.700000
v 8.100000 -0.000001 3.400000
v 8.200000 -0.000001 3.700000
v 8.500000 -0.000001 3.800000
v 8.800000 -0.000001 3.700000
v 8.500000 1.099999 3.800000
v 8.500000 1.100000 3.000000
v 8.800000 1.099999 3.700000
v 8.900000 1.099999 3.400000
v 8.981529 -0.000001 4.745222
v 8.793141 -0.000001 4.999209
v 8.891372 1.099999 4.442118
v 8.891372 -0.000001 4.442118
v 8.334281 1.099999 4.343888
v 8.637383 -0.000001 4.253730
v 8.334281 -0.000001 4.343888
v 8.145893 -0.000001 4.597876
v 8.236051 1.099999 4.900980
v 8.145893 1.099999 4.597876
v 8.236051 -0.000001 4.900980
v 8.490039 1.099999 5.089367
v 8.793141 1.099999 4.999209
v 8.490039 -0.000001 5.089367
v 8.981529 1.099999 4.745222
v 8.637383 1.099999 4.253730
v 8.363023 1.099999 5.111150
v 8.657115 1.099999 5.227381
v 8.363023 -0.000001 5.111150
v 8.093582 -0.000001 5.276684
v 7.977350 -0.000001 5.570776
v 7.977350 1.099999 5.570776
v 8.142884 -0.000001 5.840217
v 8.436976 -0.000001 5.956449
v 8.436976 1.099999 5.956449
v 8.706417 -0.000001 5.790914
v 8.822649 -0.000001 5.496822
v 8.706417 1.099999 5.790914
v 8.657115 -0.000001 5.227381
v 8.142884 1.099999 5.840217
v 8.093582 1.099999 5.276684
v 8.822649 1.099999 5.496822
v -8.700000 0.000000 -2.250000
v -9.000000 0.000000 -2.250000
v -9.000000 3.600001 -2.250000
v -9.000000 -0.000000 2.250000
v -8.700000 -0.000000 2.250000
v -8.700000 3.600000 2.250000
v -8.700000 3.600001 -2.250000
v -9.000000 3.600000 2.250000
v 8.700000 3.600000 2.250000
v 9.000000 3.600000 2.250000
v 9.000000 3.600001 -2.250000
v 9.000000 0.000000 -2.250000
v 8.700000 0.000000 -2.250000
v 8.700000 -0.000000 2.250000
v 9.000000 -0.000000 2.250000
v 8.700000 3.600001 -2.250000
v -4.100000 2.000000 2.275440
v -4.300000 2.000000 2.275440
v -4.100000 -0.000000 2.275440
v -0.287368 1.999999 -2.486437
v 2.679052 1.999999 -2.286437
v 2.679052 1.999999 -2.486437
v 2.679052 -0.000000 -2.286437
v -0.287368 1.999999 -2.286438
v -0.287368 -0.000001 -2.286438
v 4.431264 2.000000 -2.286437
v 4.431264 2.000000 -2.486437
v 4.431265 -0.000000 -2.286437
vt 0.810000 0.435000
vt 0.625000 0.435000
vt 0.625000 0.250000
vt 0.810000 0.250000
vt 0.810000 0.435000
vt 0.625000 0.435000
vt 0.625000 0.250000
vt 0.810000 0.250000
vt 0.625000 0.435000
vt 0.625000 0.250000
vt 0.810000 0.250000
vt 0.810000 0.435000
vt 0.625000 0.435000
vt 0.625000 0.250000
vt 0.810000 0.250000
vt 0.810000 0.435000
vt 0.625000 0.250000
vt 0.810000 0.250000
vt 1.000000 0.255000
vt 1.000000 0.500000
vt 0.875000 0.500000
vt 0.875000 0.255000
vt 0.815000 0.255000
vt 0.815000 0.500000
vt 0.870000 0.500000
vt 0.870000 0.255000
vt 0.815000 0.255000
vt 0.815000 0.500000
vt 0.870000 0.500000
vt 0.870000 0.255000
vt 0.815000 0.255000
vt 0.870000 0.255000
vt 0.500000 0.250000
vt 0.250000 0.250000
vt 0.250000 0.125000
vt 0.500000 0.125000
vt 0.500000 0.250000
vt 0.250000 0.250000
vt 0.250000 0.125000
vt 0.500000 0.125000
vt 0.475000 0.250000
vt 0.275000 0.250000
vt 0.275000 0.125000
vt 0.475000 0.125000
vt 0.475000 0.250000
vt 0.275000 0.250000
vt 0.275000 0.125000
vt 0.475000 0.125000
vt 0.500000 0.250000
vt 0.250000 0.250000
vt 0.250000 0.125000
vt 0.500000 0.125000
vt 0.500000 0.250000
vt 0.250000 0.250000
vt 0.250000 0.125000
vt 0.500000 0.125000
vt 0.475000 0.250000
vt 0.275000 0.250000
vt 0.275000 0.125000
vt 0.475000 0.125000
vt 0.475000 0.250000
vt 0.275000 0.250000
vt 0.275000 0.125000
vt 0.475000 0.125000
vt 0.545000 0.940000
vt 0.570000 0.940000
vt 0.570000 0.750000
vt 0.545000 0.750000
vt 0.605469 0.925781
vt 0.625000 0.925781
vt 0.625000 0.750000
vt 0.605469 0.750000
vt 0.500000 0.750000
vt 0.500000 0.941406
vt 0.750000 0.941406
vt 0.750000 0.750000
vt 0.095000 0.000000
vt 0.125000 0.000000
vt 0.125000 0.125000
vt 0.095000 0.125000
vt 0.000000 0.000000
vt 0.030000 0.000000
vt 0.030000 0.125000
vt 0.000000 0.125000
vt 0.065000 0.000000
vt 0.065000 0.125000
vt 0.095000 0.000000
vt 0.095000 0.125000
vt 0.125000 0.000000
vt 0.125000 0.125000
vt 0.000000 0.000000
vt 0.030000 0.000000
vt 0.030000 0.125000
vt 0.000000 0.125000
vt 0.065000 0.000000
vt 0.065000 0.125000
vt 0.125000 0.185000
vt 0.105000 0.230000
vt 0.065000 0.250000
vt 0.020000 0.230000
vt 0.000000 0.185000
vt 0.020000 0.145000
vt 0.065000 0.125000
vt 0.105000 0.145000
vt 0.220000 0.000000
vt 0.250000 0.000000
vt 0.250000 0.125000
vt 0.220000 0.125000
vt 0.125000 0.000000
vt 0.155000 0.000000
vt 0.155000 0.125000
vt 0.125000 0.125000
vt 0.190000 0.000000
vt 0.190000 0.125000
vt 0.220000 0.000000
vt 0.220000 0.125000
vt 0.250000 0.000000
vt 0.250000 0.125000
vt 0.125000 0.000000
vt 0.155000 0.000000
vt 0.155000 0.125000
vt 0.125000 0.125000
vt 0.190000 0.000000
vt 0.190000 0.125000
vt 0.250000 0.185000
vt 0.230000 0.230000
vt 0.190000 0.250000
vt 0.145000 0.230000
vt 0.125000 0.185000
vt 0.145000 0.145000
vt 0.190000 0.125000
vt 0.230000 0.145000
vt 0.220000 0.000000
vt 0.250000 0.000000
vt 0.250000 0.125000
vt 0.220000 0.125000
vt 0.125000 0.000000
vt 0.155000 0.000000
vt 0.155000 0.125000
vt 0.125000 0.125000
vt 0.190000 0.000000
vt 0.190000 0.125000
vt 0.220000 0.000000
vt 0.220000 0.125000
vt 0.250000 0.000000
vt 0.250000 0.125000
vt 0.125000 0.000000
vt 0.155000 0.000000
vt 0.155000 0.125000
vt 0.125000 0.125000
vt 0.190000 0.000000
vt 0.190000 0.125000
vt 0.250000 0.185000
vt 0.230000 0.230000
vt 0.190000 0.250000
vt 0.145000 0.230000
vt 0.125000 0.185000
vt 0.145000 0.145000
vt 0.190000 0.125000
vt 0.230000 0.145000
vt 0.220000 0.000000
vt 0.250000 0.000000
vt 0.250000 0.125000
vt 0.220000 0.125000
vt 0.125000 0.000000
vt 0.155000 0.000000
vt 0.155000 0.125000
vt 0.125000 0.125000
vt 0.190000 0.000000
vt 0.190000 0.125000
vt 0.220000 0.000000
vt 0.220000 0.125000
vt 0.250000 0.000000
vt 0.250000 0.125000
vt 0.125000 0.000000
vt 0.155000 0.000000
vt 0.155000 0.125000
vt 0.125000 0.125000
vt 0.190000 0.000000
vt 0.190000 0.125000
vt 0.250000 0.185000
vt 0.230000 0.230000
vt 0.190000 0.250000
vt 0.145000 0.230000
vt 0.125000 0.185000
vt 0.145000 0.145000
vt 0.190000 0.125000
vt 0.230000 0.145000
vt 0.750000 0.750000
vt 1.000000 0.750000
vt 1.000000 1.000000
vt 0.750000 0.905000
vt 0.875000 0.905000
vt 0.875000 0.915000
vt 0.750000 0.925000
vt 1.000000 0.925000
vt 1.000000 0.940000
vt 0.750000 0.905000
vt 0.875000 0.905000
vt 0.875000 0.915000
vt 0.750000 1.000000
vt 0.750000 0.915000
vt 0.750000 0.940000
vt 0.750000 0.915000
vt 0.750000 0.750000
vt 1.000000 0.750000
vt 1.000000 1.000000
vt 0.750000 0.905000
vt 0.875000 0.905000
vt 0.875000 0.915000
vt 0.750000 0.925000
vt 1.000000 0.925000
vt 1.000000 0.940000
vt 0.750000 0.905000
vt 0.875000 0.905000
vt 0.875000 0.915000
vt 0.750000 1.000000
vt 0.750000 0.915000
vt 0.750000 0.940000
vt 0.750000 0.915000
vt 0.531250 0.941406
vt 0.531250 0.750000
vt 0.683594 0.750000
vt 0.683594 0.941406
vt 0.545000 0.940000
vt 0.570000 0.940000
vt 0.570000 0.750000
vt 0.545000 0.750000
vt 0.605469 0.925781
vt 0.625000 0.925781
vt 0.625000 0.750000
vt 0.605469 0.750000
vt 0.500000 0.750000
vt 0.500000 0.941406
vt 0.750000 0.941406
vt 0.750000 0.750000
vt 0.531250 0.941406
vt 0.531250 0.750000
vt 0.683594 0.750000
vt 0.683594 0.941406
vn -0.0000 1.0000 0.0000
vn -0.4615 -0.0000 0.8871
vn 0.8871 0.0000 0.4615
vn 0.4615 0.0000 -0.8871
vn -0.8871 0.0000 -0.4615
vn 1.0000 -0.0000 0.0000
vn 0.0000 -0.0000 1.0000
vn 0.0000 0.0000 -1.0000
vn -1.0000 0.0000 0.0000
vn 0.9962 0.0000 0.0872
vn 0.0872 0.0000 -0.9962
vn -0.0872 0.0000 0.9962
vn 0.9487 -0.0000 0.3162
vn 0.3162 -0.0000 0.9487
vn -0.3162 -0.0000 0.9487
vn -0.9487 -0.0000 0.3162
vn -0.9487 0.0000 -0.3162
vn -0.3162 0.0000 -0.9487
vn 0.3162 0.0000 -0.9487
vn 0.9487 0.0000 -0.3162
vn 0.0000 -1.0000 -0.0000
vn 0.8032 0.0000 0.5957
vn 0.9585 0.0000 -0.2851
vn 0.5957 0.0000 -0.8032
vn -0.2851 0.0000 -0.9585
vn -0.8032 0.0000 -0.5957
vn -0.9585 0.0000 0.2851
vn -0.5957 0.0000 0.8032
vn 0.2851 0.0000 0.9585
vn 0.3676 0.0000 -0.9300
vn -0.5235 0.0000 -0.8520
vn -0.9300 0.0000 -0.3676
vn -0.8520 0.0000 0.5235
vn -0.3676 0.0000 0.9300
vn 0.5235 0.0000 0.8520
vn 0.9300 0.0000 0.3676
vn 0.8520 0.0000 -0.5235
usemtl texobj1
s off
f 4/1/1 1/2/1 2/3/1
f 2/3/1 3/4/1 4/1/1
f 3/5/2 2/6/2 5/7/2
f 5/7/2 6/8/2 3/5/2
f 4/1/3 3/9/3 6/10/3
f 6/10/3 7/11/3 4/1/3
f 1/12/4 4/13/4 7/14/4
f 7/14/4 8/15/4 1/12/4
f 2/16/5 1/2/5 8/17/5
f 8/17/5 5/18/5 2/16/5
f 15/19/6 12/20/6 14/21/6
f 14/21/6 9/22/6 15/19/6
f 9/23/7 14/24/7 10/25/7
f 10/25/7 11/26/7 9/23/7
f 14/27/1 12/28/1 13/29/1
f 13/29/1 10/30/1 14/27/1
f 12/28/8 15/31/8 16/32/8
f 16/32/8 13/29/8 12/28/8
f 18/33/1 22/34/1 17/35/1
f 17/35/1 19/36/1 18/33/1
f 19/37/8 17/38/8 24/39/8
f 24/39/8 20/40/8 19/37/8
f 18/41/9 19/42/9 20/43/9
f 20/43/9 21/44/9 18/41/9
f 17/45/6 22/46/6 23/47/6
f 23/47/6 24/48/6 17/45/6
f 28/49/1 30/50/1 29/51/1
f 29/51/1 25/52/1 28/49/1
f 25/53/10 29/54/10 32/55/10
f 32/55/10 26/56/10 25/53/10
f 28/57/11 25/58/11 26/59/11
f 26/59/11 27/60/11 28/57/11
f 29/61/12 30/62/12 31/63/12
f 31/63/12 32/64/12 29/61/12
f 33/65/1 37/66/1 34/67/1
f 34/67/1 35/68/1 33/65/1
f 35/69/1 34/70/1 119/71/1 120/72/1
f 36/73/6 34/74/6 37/75/6
f 37/75/6 38/76/6 36/73/6
f 39/77/13 43/78/13 40/79/13
f 40/79/13 41/80/13 39/77/13
f 43/81/14 42/82/14 52/83/14
f 52/83/14 40/84/14 43/81/14
f 42/82/15 44/85/15 45/86/15
f 45/86/15 52/83/15 42/82/15
f 44/85/16 47/87/16 53/88/16
f 53/88/16 45/86/16 44/85/16
f 47/87/17 48/89/17 46/90/17
f 46/90/17 53/88/17 47/87/17
f 48/91/18 49/92/18 54/93/18
f 54/93/18 46/94/18 48/91/18
f 49/92/19 50/95/19 51/96/19
f 51/96/19 54/93/19 49/92/19
f 50/95/20 39/77/20 41/80/20
f 41/80/20 51/96/20 50/95/20
f 41/97/21 40/98/21 52/99/21
f 52/99/21 45/100/21 53/101/21
f 53/101/21 46/102/21 54/103/21
f 52/99/21 53/101/21 54/103/21
f 41/97/21 52/99/21 54/103/21
f 51/104/21 41/97/21 54/103/21
f 55/105/20 57/106/20 56/107/20
f 56/107/20 70/108/20 55/105/20
f 57/109/19 58/110/19 68/111/19
f 68/111/19 56/112/19 57/109/19
f 58/110/18 61/113/18 60/114/18
f 60/114/18 68/111/18 58/110/18
f 61/113/17 63/115/17 59/116/17
f 59/116/17 60/114/17 61/113/17
f 63/115/16 64/117/16 62/118/16
f 62/118/16 59/116/16 63/115/16
f 64/119/15 65/120/15 67/121/15
f 67/121/15 62/122/15 64/119/15
f 65/120/14 66/123/14 69/124/14
f 69/124/14 67/121/14 65/120/14
f 66/123/13 55/105/13 70/108/13
f 70/108/13 69/124/13 66/123/13
f 70/125/1 56/126/1 68/127/1
f 68/127/1 60/128/1 59/129/1
f 59/129/1 62/130/1 67/131/1
f 68/127/1 59/129/1 67/131/1
f 70/125/1 68/127/1 67/131/1
f 69/132/1 70/125/1 67/131/1
f 72/133/22 71/134/22 85/135/22
f 85/135/22 83/136/22 72/133/22
f 71/137/23 74/138/23 73/139/23
f 73/139/23 85/140/23 71/137/23
f 74/138/24 76/141/24 86/142/24
f 86/142/24 73/139/24 74/138/24
f 76/141/25 77/143/25 75/144/25
f 75/144/25 86/142/25 76/141/25
f 77/143/26 78/145/26 80/146/26
f 80/146/26 75/144/26 77/143/26
f 78/147/27 81/148/27 79/149/27
f 79/149/27 80/150/27 78/147/27
f 81/148/28 84/151/28 82/152/28
f 82/152/28 79/149/28 81/148/28
f 84/151/29 72/133/29 83/136/29
f 83/136/29 82/152/29 84/151/29
f 83/153/1 85/154/1 73/155/1
f 73/155/1 86/156/1 75/157/1
f 75/157/1 80/158/1 79/159/1
f 73/155/1 75/157/1 79/159/1
f 83/153/1 73/155/1 79/159/1
f 82/160/1 83/153/1 79/159/1
f 99/161/30 89/162/30 87/163/30
f 87/163/30 88/164/30 99/161/30
f 89/165/31 90/166/31 101/167/31
f 101/167/31 87/168/31 89/165/31
f 90/166/32 91/169/32 92/170/32
f 92/170/32 101/167/32 90/166/32
f 91/169/33 93/171/33 100/172/33
f 100/172/33 92/170/33 91/169/33
f 93/171/34 94/173/34 95/174/34
f 95/174/34 100/172/34 93/171/34
f 94/175/35 96/176/35 98/177/35
f 98/177/35 95/178/35 94/175/35
f 96/176/36 97/179/36 102/180/36
f 102/180/36 98/177/36 96/176/36
f 97/179/37 99/161/37 88/164/37
f 88/164/37 102/180/37 97/179/37
f 88/181/1 87/182/1 101/183/1
f 101/183/1 92/184/1 100/185/1
f 100/185/1 95/186/1 98/187/1
f 101/183/1 100/185/1 98/187/1
f 88/181/1 101/183/1 98/187/1
f 102/188/1 88/181/1 98/187/1
f 107/189/6 103/190/6 109/191/6
f 104/192/8 105/193/8 109/194/8
f 105/195/1 110/196/1 108/197/1
f 110/198/7 106/199/7 107/200/7
f 109/191/6 108/201/6 107/189/6
f 109/194/8 103/202/8 104/192/8
f 108/197/1 109/203/1 105/195/1
f 107/200/7 108/204/7 110/198/7
f 115/205/9 116/206/9 111/207/9
f 117/208/7 112/209/7 111/210/7
f 112/211/1 113/212/1 118/213/1
f 113/214/8 114/215/8 115/216/8
f 111/207/9 118/217/9 115/205/9
f 111/210/7 116/218/7 117/208/7
f 118/213/1 111/219/1 112/211/1
f 115/216/8 118/220/8 113/214/8
f 34/221/6 36/222/6 121/223/6 119/224/6
f 122/225/1 126/226/1 123/227/1
f 123/227/1 124/228/1 122/225/1
f 124/229/1 123/230/1 128/231/1 129/232/1
f 125/233/7 123/234/7 126/235/7
f 126/235/7 127/236/7 125/233/7
f 123/237/7 125/238/7 130/239/7 128/240/7
