# Blender v2.82 (sub 7) OBJ File: ''
# www.blender.org
mtllib l_0_0_rocks.mtl
v 4.400000 0.960000 -0.300000
v 4.480000 0.720000 -0.860000
v 4.880000 0.000000 -1.100000
v 4.400000 0.000000 -1.100000
v 3.840000 0.000000 -0.860000
v 3.680000 0.560000 -0.300000
v 3.600000 0.000000 -0.300000
v 3.840000 -0.000000 0.260000
v 4.320000 -0.000000 0.660000
v 4.400000 0.640000 0.260000
v 4.960000 0.880000 -0.300000
v 4.960000 -0.000000 0.420000
v 5.520000 0.000000 -0.380000
v 3.515141 -0.000000 0.249772
v 3.728990 0.800000 -0.630154
v 4.557785 0.700000 -0.860586
v 4.224401 0.000000 -0.237003
v 4.839693 0.000000 -0.757980
v 3.900000 1.200000 -1.100000
v 4.797199 0.000000 -1.518371
v 4.139414 0.800000 -1.757785
v 4.242020 0.000000 -2.039693
v 3.481629 0.000000 -1.997199
v 3.276417 0.600000 -1.433383
v 2.806571 0.000000 -1.604393
v 2.618287 0.000000 -0.502327
vt 0.130000 0.970000
vt 0.105000 0.925000
vt 0.155000 0.925000
vt 0.105000 0.875000
vt 0.130000 0.875000
vt 0.155000 0.875000
vt 0.180000 0.970000
vt 0.205000 0.925000
vt 0.180000 0.875000
vt 0.205000 0.875000
vt 0.025000 0.970000
vt 0.000000 0.925000
vt 0.050000 0.925000
vt 0.000000 0.875000
vt 0.025000 0.875000
vt 0.050000 0.875000
vt 0.075000 0.970000
vt 0.075000 0.875000
vt 0.130000 0.970000
vt 0.105000 0.925000
vt 0.155000 0.925000
vt 0.105000 0.875000
vt 0.130000 0.875000
vt 0.155000 0.875000
vt 0.180000 0.970000
vt 0.205000 0.925000
vt 0.180000 0.875000
vt 0.205000 0.875000
vt 0.025000 0.970000
vt 0.000000 0.925000
vt 0.050000 0.925000
vt 0.000000 0.875000
vt 0.025000 0.875000
vt 0.050000 0.875000
vt 0.075000 0.970000
vt 0.075000 0.875000
vn 0.1311 0.9179 -0.3746
vn 0.6587 0.4724 -0.5855
vn 0.5657 0.5260 -0.6351
vn 0.0000 0.3162 -0.9487
vn -0.4439 0.7989 -0.4058
vn -0.3718 0.3305 -0.8675
vn -0.5617 0.4993 -0.6597
vn -0.9113 0.1302 -0.3906
vn -0.4345 0.7820 0.4469
vn -0.9113 0.1302 0.3906
vn -0.5668 0.4959 0.6579
vn -0.5585 0.4887 0.6702
vn 0.1231 0.8616 0.4924
vn 0.3088 0.4760 0.8234
vn 0.4490 0.5658 0.6915
vn 0.7417 0.4248 0.5192
vn 0.2711 0.6820 0.6793
vn 0.4515 0.6029 0.6578
vn 0.2840 0.5588 0.7791
vn 0.6056 0.3487 0.7153
vn 0.6395 0.7379 -0.2159
vn 0.9290 0.3665 -0.0519
vn 0.7787 0.5500 -0.3018
vn 0.6472 0.3259 -0.6892
vn -0.3841 0.7202 -0.5777
vn -0.0528 0.3259 -0.9439
vn -0.4025 0.5500 -0.7318
vn -0.4236 0.5392 -0.7279
vn -0.7381 0.6221 0.2610
vn -0.7623 0.6340 -0.1302
vn -0.5712 0.8121 0.1196
vn -0.4511 0.7122 0.5379
usemtl texobj2.png.001
s off
f 1/1/1 11/2/1 2/3/1
f 11/2/2 13/4/2 3/5/2
f 11/2/3 3/5/3 2/3/3
f 2/3/4 3/5/4 4/6/4
f 1/7/5 2/3/5 6/8/5
f 2/3/6 4/6/6 5/9/6
f 2/3/7 5/9/7 6/8/7
f 6/8/8 5/9/8 7/10/8
f 1/11/9 6/12/9 10/13/9
f 6/12/10 7/14/10 8/15/10
f 6/12/11 8/15/11 10/13/11
f 10/13/12 8/15/12 9/16/12
f 1/17/13 10/13/13 11/2/13
f 10/13/14 9/16/14 12/18/14
f 10/13/15 12/18/15 11/2/15
f 11/2/16 12/18/16 13/4/16
f 19/19/17 15/20/17 16/21/17
f 15/20/18 14/22/18 17/23/18
f 15/20/19 17/23/19 16/21/19
f 16/21/20 17/23/20 18/24/20
f 19/25/21 16/21/21 21/26/21
f 16/21/22 18/24/22 20/27/22
f 16/21/23 20/27/23 21/26/23
f 21/26/24 20/27/24 22/28/24
f 19/29/25 21/30/25 24/31/25
f 21/30/26 22/32/26 23/33/26
f 21/30/27 23/33/27 24/31/27
f 24/31/28 23/33/28 25/34/28
f 19/35/29 24/31/29 15/20/29
f 24/31/30 25/34/30 26/36/30
f 24/31/31 26/36/31 15/20/31
f 15/20/32 26/36/32 14/22/32
