# Blender v2.82 (sub 7) OBJ File: 'village_e3.blend'
# www.blender.org
mtllib terrain_intro.mtl
v -13.212321 -0.091724 35.304531
v -18.323755 0.273378 39.787178
v -9.094776 -0.112008 37.900818
v -14.490179 -0.172860 42.849983
v -17.370432 0.496498 32.687965
v -22.218182 1.044150 36.724377
v -26.396576 0.455928 40.557953
v -22.563000 0.131392 43.762741
v -26.031473 0.009697 27.373695
v -34.144859 0.009694 34.128090
v -9.175911 0.374800 23.458986
v -19.703032 0.009699 20.903269
v -12.725517 0.334231 28.286451
v -39.114311 0.009701 14.635676
v -48.870659 0.009699 21.288654
v -4.287594 -0.335122 24.574577
v -8.242870 -0.436541 30.213381
v -3.739940 -0.132289 32.099747
v 0.600722 -0.071437 25.629318
v 5.529605 0.009697 26.582640
v 0.844124 -0.010590 33.925255
v -4.936665 0.009692 40.476818
v -10.697170 0.009691 45.892506
v -18.790276 -0.071444 46.987812
v -15.037833 0.009689 50.192600
v 3.420125 1.145565 45.547684
v 15.042553 0.638483 28.286451
v -7.411249 1.307829 56.622459
v 7.923055 0.009683 69.482178
v 21.269579 2.220586 53.133701
v 33.196259 1.470105 31.511524
v -1.305924 -0.152566 12.445062
v -2.036129 -0.416253 18.550386
v 3.805511 0.009701 12.181376
v 3.095589 -0.213419 18.854637
v -6.539060 -0.071433 12.546479
v -7.106997 -0.051151 18.205566
v -17.938370 0.009701 12.850731
v -7.289547 0.009705 0.944335
v -17.978935 0.009705 1.816524
v -6.924445 0.009703 6.867107
v -39.925652 1.733799 3.520335
v -2.178113 0.009705 0.396681
v -1.731877 0.009703 6.278887
v 3.338991 0.212538 5.873218
v 2.973888 0.050272 -0.008989
v 8.166456 0.171973 -0.252390
v 8.389575 0.435656 5.528399
v 8.835811 0.131402 11.978542
v 8.146173 0.009699 19.098040
v 18.003939 0.009701 11.897408
v 18.308191 0.009705 -0.414658
v 38.591660 1.510682 0.579232
v 2.831904 0.009707 -5.444959
v 2.365384 0.009709 -10.941779
v -2.320097 0.009707 -5.363825
v -2.746050 0.009709 -11.124331
v -7.877769 0.009709 -11.286598
v -7.492383 0.009707 -5.181273
v -18.648291 0.009709 -11.570566
v -7.025863 0.009713 -24.166601
v -17.066181 1.064454 -26.519484
v -7.999469 0.009711 -17.675890
v -36.923698 1.571543 -30.657310
v -39.945930 3.782435 -13.761179
v -2.056412 0.009713 -22.888742
v -2.908318 0.009711 -17.047104
v 2.142266 0.009711 -16.337181
v 2.892754 0.009713 -21.529751
v 7.679653 0.009712 -20.069340
v 7.071149 0.009711 -15.546127
v 7.273984 0.009709 -10.637527
v 7.841921 0.313959 -5.526093
v 17.212885 0.618213 -9.765338
v 17.030333 0.131412 -16.905119
v 36.157646 -0.152559 -9.643637
v 4.880534 0.009714 -26.276083
v 8.044756 0.009715 -30.555893
v 0.215336 0.009715 -28.344995
v 3.785227 0.009716 -33.192745
v -0.433735 0.009717 -35.809315
v -4.449862 0.760204 -30.332775
v -8.891942 0.009719 -40.981598
v 7.923055 0.942759 -44.510921
v 0.174769 1.571549 -50.819080
v 4.089479 0.009719 -40.454227
v -15.342085 2.362608 -63.455685
v 11.797197 0.009719 -41.346699
v 8.044756 0.009718 -37.431992
v 12.000032 0.009717 -34.430038
v 15.671341 0.009718 -38.202763
v 19.545483 0.638505 -35.038540
v 15.955309 0.699353 -31.407799
v 12.284000 0.699353 -27.898760
v 9.424031 0.699351 -24.186884
v 20.803059 0.009713 -22.543924
v 27.314053 0.009715 -28.730383
v 43.621964 1.591822 -16.114063
vt 0.570312 1.050781
vt 0.570312 1.179688
vt 0.480469 1.050781
vt 0.480469 1.179688
vt 0.269531 -0.191406
vt 0.210938 -0.289062
vt 0.351562 -0.222656
vt 0.285156 -0.320312
vt 0.156250 -0.363281
vt 0.238281 -0.402344
vt 0.113281 -0.140625
vt 0.000000 -0.296875
vt 0.367188 -0.003906
vt 0.187500 -0.003906
vt 0.328125 -0.101562
vt -0.164062 0.011719
vt -0.300781 -0.140625
vt 0.464844 -0.003906
vt 0.410156 -0.117188
vt 0.570312 0.925781
vt 0.480469 0.925781
vt 0.570312 0.789062
vt 0.480469 0.789062
vt 0.855469 0.113281
vt 0.824219 -0.015625
vt 0.949219 0.128906
vt 0.917969 -0.015625
vt 0.777344 -0.148438
vt 0.863281 -0.164062
vt 0.718750 -0.261719
vt 0.800781 -0.292969
vt 0.671875 -0.363281
vt 0.757812 -0.386719
vt 1.031250 -0.195312
vt 1.117188 0.167969
vt 0.925781 -0.449219
vt 1.253906 -0.562500
vt 1.371094 -0.210938
vt 1.433594 0.230469
vt 0.570312 1.289062
vt 0.480469 1.289062
vt 0.570312 0.578125
vt 0.570312 0.675781
vt 0.480469 0.578125
vt 0.480469 0.675781
vt 0.367188 0.179688
vt 0.378906 0.093750
vt 0.457031 0.207031
vt 0.472656 0.109375
vt 0.179688 0.132812
vt 0.308594 0.378906
vt 0.132812 0.316406
vt 0.335938 0.277344
vt -0.226562 0.199219
vt 0.390625 0.410156
vt 0.417969 0.312500
vt 0.570312 0.496094
vt 0.480469 0.496094
vt 0.570312 0.417969
vt 0.480469 0.417969
vt 0.734375 0.550781
vt 0.777344 0.460938
vt 0.816406 0.589844
vt 0.863281 0.496094
vt 0.824219 0.359375
vt 0.910156 0.390625
vt 0.855469 0.242188
vt 0.941406 0.273438
vt 1.054688 0.453125
vt 0.988281 0.660156
vt 1.324219 0.765625
vt 0.480469 0.335938
vt 0.480469 0.269531
vt 0.570312 0.335938
vt 0.570312 0.269531
vt 0.238281 0.582031
vt 0.277344 0.484375
vt 0.328125 0.593750
vt 0.359375 0.507812
vt 0.066406 0.535156
vt 0.199219 0.800781
vt 0.019531 0.800781
vt 0.214844 0.687500
vt -0.324219 0.773438
vt -0.300781 0.484375
vt 0.292969 0.800781
vt 0.308594 0.703125
vt 0.570312 0.191406
vt 0.480469 0.191406
vt 0.570312 0.101562
vt 0.480469 0.101562
vt 0.593750 0.906250
vt 0.617188 0.820312
vt 0.687500 0.914062
vt 0.703125 0.835938
vt 0.656250 0.726562
vt 0.742188 0.757812
vt 0.703125 0.644531
vt 0.777344 0.675781
vt 0.910156 0.804688
vt 0.863281 0.921875
vt 1.226562 0.921875
vt 0.480469 0.007812
vt 0.480469 -0.093750
vt 0.570312 0.007812
vt 0.570312 -0.093750
vt 0.265625 1.019531
vt 0.214844 0.921875
vt 0.347656 0.992188
vt 0.308594 0.898438
vt 0.097656 1.066406
vt 0.367188 1.203125
vt 0.210938 1.281250
vt 0.324219 1.121094
vt -0.105469 1.421875
vt 0.445312 1.164062
vt 0.394531 1.082031
vt 0.570312 -0.191406
vt 0.480469 -0.191406
vt 0.570312 -0.296875
vt 0.480469 -0.296875
vt 0.703125 1.265625
vt 0.664062 1.179688
vt 0.785156 1.234375
vt 0.750000 1.152344
vt 0.625000 1.089844
vt 0.710938 1.074219
vt 0.601562 0.996094
vt 0.687500 0.988281
vt 0.886719 1.035156
vt 0.957031 1.179688
vt 1.300781 1.074219
vn 0.0327 0.9985 -0.0440
vn 0.0567 0.9956 0.0741
vn 0.1281 0.9916 0.0193
vn 0.1364 0.9878 0.0751
vn 0.0408 0.9800 0.1948
vn 0.0289 0.9974 0.0664
vn 0.0155 0.9931 -0.1162
vn -0.0684 0.9943 -0.0821
vn -0.0965 0.9942 0.0473
vn -0.0311 0.9994 -0.0145
vn -0.0296 0.9994 -0.0158
vn -0.0238 0.9995 -0.0212
vn -0.0228 0.9995 -0.0223
vn -0.0203 0.9981 -0.0583
vn 0.0040 1.0000 0.0008
vn 0.0000 1.0000 0.0000
vn 0.1212 0.9878 0.0974
vn 0.1215 0.9874 0.1013
vn 0.1244 0.9867 0.1048
vn 0.1270 0.9869 0.0994
vn 0.1275 0.9870 0.0982
vn 0.1132 0.9926 0.0433
vn -0.0277 0.9951 -0.0944
vn 0.0045 1.0000 0.0007
vn -0.0502 0.9986 -0.0172
vn -0.0509 0.9985 -0.0185
vn -0.0554 0.9981 -0.0272
vn -0.0557 0.9981 -0.0280
vn -0.0155 0.9999 -0.0049
vn -0.0170 0.9999 -0.0029
vn -0.0212 0.9997 -0.0079
vn -0.0220 0.9997 -0.0113
vn -0.0184 0.9996 -0.0205
vn -0.0183 0.9996 -0.0193
vn -0.0178 0.9997 -0.0188
vn -0.0214 0.9997 -0.0128
vn -0.0220 0.9997 -0.0117
vn -0.0260 0.9993 -0.0276
vn -0.0155 0.9991 -0.0406
vn -0.0116 0.9999 -0.0117
vn -0.0822 0.9933 -0.0806
vn -0.0778 0.9936 -0.0816
vn -0.0856 0.9931 -0.0799
vn -0.0598 0.9976 -0.0344
vn -0.0619 0.9978 -0.0227
vn -0.0596 0.9976 -0.0353
vn -0.0819 0.9928 -0.0878
vn -0.0819 0.9927 -0.0881
vn -0.0821 0.9921 -0.0949
vn -0.0912 0.9916 -0.0920
vn 0.0531 0.9979 0.0374
vn -0.0869 0.9942 0.0635
vn -0.0368 0.9978 -0.0549
vn 0.0472 0.9952 0.0859
vn 0.0395 0.9991 0.0166
vn -0.0345 0.9989 0.0308
vn -0.0297 0.9988 0.0396
vn -0.0383 0.9985 0.0381
vn -0.0412 0.9987 0.0290
vn 0.0073 1.0000 -0.0028
vn 0.0126 0.9999 0.0015
vn 0.0155 0.9999 -0.0020
vn 0.0683 0.9964 0.0512
vn 0.0752 0.9959 -0.0511
vn 0.1353 0.9901 0.0372
vn 0.0060 1.0000 -0.0023
vn -0.0136 0.9962 -0.0861
vn 0.0070 0.9999 0.0139
vn 0.0075 0.9999 0.0138
vn 0.0025 0.9999 0.0142
vn 0.0782 0.9969 -0.0022
vn 0.0783 0.9969 -0.0004
vn 0.0783 0.9969 -0.0003
vn 0.0128 0.9882 0.1523
vn 0.0002 1.0000 -0.0043
vn -0.0066 1.0000 0.0005
vn 0.0016 0.9999 0.0142
vn 0.0160 0.9996 0.0252
vn -0.0376 0.9989 0.0289
vn -0.0323 0.9990 0.0317
vn -0.0078 1.0000 -0.0005
vn -0.0419 0.9988 -0.0249
vn -0.0246 0.9994 -0.0260
vn -0.0471 0.9979 -0.0437
vn -0.0417 0.9985 0.0352
vn -0.0222 0.9986 0.0486
vn -0.0229 0.9993 0.0310
vn -0.0447 0.9989 0.0127
vn -0.0421 0.9987 -0.0291
vn -0.0430 0.9984 -0.0368
vn -0.0423 0.9984 -0.0365
vn -0.0154 0.9999 -0.0054
vn 0.0435 0.9991 0.0011
vn 0.0152 0.9988 -0.0461
vn -0.0325 0.9985 -0.0438
vn -0.0322 0.9985 -0.0441
vn -0.0336 0.9985 -0.0443
vn -0.0621 0.9978 -0.0217
vn -0.0796 0.9967 -0.0126
vn -0.0363 0.9979 -0.0533
vn -0.0378 0.9989 -0.0276
vn -0.0385 0.9988 -0.0287
vn -0.0053 1.0000 -0.0045
vn 0.1010 0.9948 0.0151
vn 0.0429 0.9963 0.0748
vn 0.0106 0.9974 0.0715
vn 0.1831 0.9785 -0.0953
vn 0.1617 0.9800 0.1160
vn 0.0005 1.0000 0.0000
vn 0.0019 1.0000 0.0001
vn -0.0614 0.9967 -0.0525
vn -0.0566 0.9970 -0.0532
vn -0.0608 0.9968 -0.0526
vn -0.0607 0.9981 -0.0059
vn -0.0221 0.9994 0.0283
vn -0.0214 0.9975 -0.0675
vn -0.0124 0.9999 -0.0017
vn -0.0029 0.9979 0.0653
vn 0.0164 0.9995 0.0259
vn 0.0412 0.9846 -0.1700
vn -0.0772 0.9943 0.0737
vn 0.0578 0.9939 -0.0938
vn 0.0577 0.9939 -0.0939
vn 0.0581 0.9939 -0.0936
vn 0.1211 0.9886 0.0891
vn 0.0910 0.9833 0.1577
vn 0.0575 0.9939 -0.0940
vn 0.0025 0.9974 -0.0713
vn 0.0688 0.9865 0.1488
vn -0.0590 0.9836 0.1705
vn -0.0061 0.9885 0.1513
vn -0.0444 0.9922 0.1166
vn 0.0847 0.9932 0.0797
vn 0.0364 0.9980 -0.0522
vn 0.0289 0.9678 0.2499
vn -0.0897 0.9921 -0.0873
vn -0.0920 0.9902 -0.1055
vn -0.0971 0.9902 -0.1005
vn -0.0911 0.9901 -0.1067
vn -0.0971 0.9902 -0.1004
vn -0.0973 0.9900 -0.1018
vn -0.1101 0.9906 -0.0814
vn -0.1111 0.9901 -0.0854
vn -0.1105 0.9904 -0.0834
vn -0.1110 0.9901 -0.0855
vn -0.1261 0.9906 -0.0528
vn -0.0447 0.9882 0.1466
vn 0.0526 0.9976 0.0449
vn 0.0485 0.9975 0.0511
vn 0.0486 0.9975 0.0510
vn 0.0523 0.9980 0.0350
vn 0.0580 0.9982 0.0173
vn -0.0602 0.9883 0.1400
vn -0.1079 0.9841 0.1408
vn 0.0184 0.9998 -0.0093
vn -0.0362 0.9979 -0.0537
vn -0.0867 0.9931 -0.0796
vn -0.0820 0.9928 -0.0872
vn -0.0737 0.9973 -0.0018
vn 0.0137 0.9988 0.0462
vn 0.0134 0.9997 0.0184
vn 0.0780 0.9969 -0.0039
vn 0.0410 0.9968 -0.0690
vn -0.0613 0.9981 0.0025
vn -0.0564 0.9970 -0.0531
vn -0.0533 0.9970 -0.0561
vn 0.0490 0.9975 0.0505
vn 0.0544 0.9976 0.0419
usemtl terrain
s 1
f 1/1/1 2/2/1 3/3/1
f 2/2/2 4/4/2 3/3/2
f 5/5/3 6/6/3 1/7/3
f 6/6/4 2/8/4 1/7/4
f 6/6/5 7/9/5 2/8/5
f 7/9/6 8/10/6 2/8/6
f 5/5/7 9/11/7 6/6/7
f 9/11/8 10/12/8 6/6/8
f 6/6/9 10/12/9 7/9/9
f 11/13/10 12/14/11 13/15/12
f 12/14/11 9/11/13 13/15/12
f 13/15/14 9/11/14 5/5/14
f 12/14/15 14/16/16 9/11/16
f 14/16/16 15/17/16 9/11/16
f 9/11/16 15/17/16 10/12/16
f 11/13/17 13/15/18 16/18/19
f 13/15/18 17/19/20 16/18/19
f 13/15/18 5/5/21 17/19/20
f 5/5/22 1/7/22 17/19/22
f 17/20/23 1/1/23 18/21/23
f 1/1/24 3/3/24 18/21/24
f 16/22/25 17/20/26 19/23/27
f 17/20/26 18/21/28 19/23/27
f 19/24/29 18/25/30 20/26/31
f 18/25/30 21/27/32 20/26/31
f 18/25/33 3/28/34 21/27/35
f 3/28/34 22/29/36 21/27/35
f 3/28/34 4/30/37 22/29/36
f 4/30/38 23/31/38 22/29/38
f 4/30/39 24/32/39 23/31/39
f 24/32/40 25/33/40 23/31/40
f 26/34/41 27/35/42 21/27/43
f 27/35/44 20/26/45 21/27/46
f 26/34/47 23/31/48 28/36/49
f 23/31/50 25/33/50 28/36/50
f 28/36/51 29/37/51 26/34/51
f 29/37/52 30/38/52 26/34/52
f 26/34/53 30/38/53 31/39/53
f 2/2/54 8/40/54 4/4/54
f 8/40/55 24/41/55 4/4/55
f 32/42/56 33/43/57 34/44/58
f 33/43/59 35/45/59 34/44/59
f 36/46/60 37/47/61 32/48/62
f 37/47/63 33/49/63 32/48/63
f 37/47/64 11/13/64 33/49/64
f 11/13/65 16/18/65 33/49/65
f 36/46/60 38/50/66 37/47/61
f 38/50/66 12/14/15 37/47/61
f 37/47/67 12/14/67 11/13/67
f 39/51/16 40/52/16 41/53/16
f 40/52/16 38/50/16 41/53/16
f 41/53/68 38/50/69 36/46/70
f 40/52/71 42/54/72 38/50/73
f 42/54/74 14/16/74 38/50/74
f 38/50/66 14/16/16 12/14/15
f 39/51/16 41/53/16 43/55/75
f 41/53/16 44/56/76 43/55/75
f 41/53/68 36/46/70 44/56/77
f 36/46/78 32/48/78 44/56/78
f 44/57/79 32/42/56 45/58/80
f 32/42/56 34/44/58 45/58/80
f 43/59/75 44/57/76 46/60/81
f 44/57/82 45/58/82 46/60/82
f 46/61/83 45/62/83 47/63/83
f 45/62/84 48/64/84 47/63/84
f 45/62/80 34/65/58 48/64/85
f 34/65/86 49/66/86 48/64/86
f 34/65/87 35/67/87 49/66/87
f 35/67/88 50/68/88 49/66/88
f 35/67/89 19/24/90 50/68/91
f 19/24/29 20/26/31 50/68/92
f 51/69/93 52/70/93 48/64/93
f 52/70/94 47/63/94 48/64/94
f 51/69/95 50/68/96 27/35/97
f 50/68/98 20/26/45 27/35/44
f 53/71/99 51/69/99 31/39/99
f 51/69/95 27/35/97 31/39/100
f 33/43/101 16/22/102 35/45/89
f 16/22/102 19/23/90 35/45/89
f 54/72/103 55/73/16 56/74/16
f 55/73/16 57/75/16 56/74/16
f 58/76/16 59/77/16 57/78/16
f 59/77/16 56/79/16 57/78/16
f 59/77/16 39/51/16 56/79/16
f 39/51/16 43/55/75 56/79/16
f 58/76/16 60/80/16 59/77/16
f 60/80/16 40/52/16 59/77/16
f 59/77/16 40/52/16 39/51/16
f 61/81/104 62/82/104 63/83/104
f 62/82/105 60/80/105 63/83/105
f 63/83/16 60/80/16 58/76/16
f 62/82/106 64/84/106 60/80/106
f 64/84/107 65/85/107 60/80/107
f 60/80/108 65/85/108 42/54/108
f 61/81/16 63/83/16 66/86/16
f 63/83/16 67/87/16 66/86/16
f 63/83/16 58/76/16 67/87/16
f 58/76/16 57/78/16 67/87/16
f 67/88/16 57/75/16 68/89/16
f 57/75/16 55/73/16 68/89/16
f 66/90/16 67/88/16 69/91/16
f 67/88/16 68/89/16 69/91/16
f 69/92/16 68/93/16 70/94/109
f 68/93/16 71/95/110 70/94/109
f 68/93/16 55/96/16 71/95/110
f 55/96/16 72/97/16 71/95/110
f 55/96/16 54/98/103 72/97/16
f 54/98/111 73/99/112 72/97/113
f 54/98/114 46/61/114 73/99/114
f 46/61/115 47/63/115 73/99/115
f 74/100/116 75/101/116 71/95/116
f 75/101/117 70/94/109 71/95/110
f 74/100/118 73/99/118 52/70/118
f 73/99/119 47/63/119 52/70/119
f 76/102/120 74/100/120 53/71/120
f 74/100/121 52/70/121 53/71/121
f 56/74/16 43/59/75 54/72/103
f 43/59/75 46/60/81 54/72/103
f 77/103/16 78/104/16 79/105/16
f 78/104/16 80/106/16 79/105/16
f 81/107/122 82/108/123 80/109/124
f 82/108/125 79/110/125 80/109/125
f 82/108/126 61/81/126 79/110/126
f 61/81/16 66/86/16 79/110/16
f 81/107/122 83/111/127 82/108/123
f 83/111/128 62/82/128 82/108/128
f 82/108/129 62/82/129 61/81/129
f 84/112/130 85/113/130 86/114/130
f 85/113/131 83/111/131 86/114/131
f 86/114/16 83/111/16 81/107/16
f 85/113/132 87/115/132 83/111/132
f 87/115/133 64/84/133 83/111/133
f 83/111/134 64/84/134 62/82/134
f 84/112/135 86/114/135 88/116/135
f 86/114/16 89/117/16 88/116/16
f 86/114/16 81/107/16 89/117/16
f 81/107/16 80/109/16 89/117/16
f 89/118/16 80/106/16 90/119/16
f 80/106/16 78/104/16 90/119/16
f 88/120/16 89/118/16 91/121/16
f 89/118/16 90/119/16 91/121/16
f 91/122/136 90/123/136 92/124/136
f 90/123/137 93/125/138 92/124/139
f 90/123/137 78/126/140 93/125/138
f 78/126/140 94/127/141 93/125/138
f 78/126/142 77/128/143 94/127/144
f 77/128/143 95/129/145 94/127/144
f 77/128/146 69/92/146 95/129/146
f 69/92/147 70/94/147 95/129/147
f 96/130/148 97/131/149 93/125/150
f 97/131/151 92/124/151 93/125/151
f 96/130/152 95/129/152 75/101/152
f 95/129/153 70/94/153 75/101/153
f 98/132/154 96/130/154 76/102/154
f 96/130/155 75/101/155 76/102/155
f 79/105/16 66/90/16 77/103/16
f 66/90/16 69/91/16 77/103/16
f 26/34/156 31/39/100 27/35/97
f 26/34/41 21/27/43 22/29/157
f 23/31/48 26/34/47 22/29/158
f 51/69/159 53/71/159 52/70/159
f 51/69/160 48/64/160 49/66/160
f 50/68/161 51/69/161 49/66/161
f 60/80/162 42/54/72 40/52/71
f 74/100/163 76/102/163 75/101/163
f 74/100/164 71/95/164 72/97/164
f 73/99/112 74/100/165 72/97/113
f 96/130/166 98/132/166 97/131/166
f 96/130/148 93/125/150 94/127/167
f 95/129/168 96/130/148 94/127/167
