# Blender v3.2.1 OBJ File: ''
# www.blender.org
mtllib props_texgr3.mtl
v -19.200001 0.000012 -37.399998
v -19.200001 0.200012 -37.399998
v -15.000000 0.200012 -37.399998
v -15.000000 0.200012 -37.200001
v -19.000000 0.200011 -33.200001
v -19.000000 0.200012 -37.200001
v -15.000000 0.000012 -37.399998
v -5.200000 0.200001 -9.000000
v -5.200000 0.200000 1.000000
v -5.000000 0.200000 1.000000
v -5.000000 0.200001 -9.000000
v -5.000000 -0.000000 1.000000
v 2.000000 0.200001 -9.000000
v 1.800000 -0.000000 1.000000
v 2.000000 0.200000 1.000000
v 1.800000 0.200000 1.000000
v 1.800000 0.200001 -9.000000
v 1.800000 0.000001 -9.000000
v 5.000000 0.200003 -19.200001
v -5.000000 0.200003 -19.200001
v 5.000000 0.000003 -19.000002
v 5.000000 0.200003 -19.000002
v -9.200000 0.200002 -13.200000
v -9.200000 0.200002 -13.000000
v -5.200000 0.200002 -13.000000
v -5.000000 0.000001 -9.000000
v -9.200000 0.000002 -13.200000
v 2.000000 0.200003 -19.000000
v 1.800000 0.200003 -19.000000
v 1.800000 0.000003 -19.000000
v -5.000000 0.200002 -13.000000
v -5.000000 0.000002 -13.200000
v -15.000001 0.000002 -13.200000
v -5.000000 0.200002 -13.200000
v -5.000000 0.000003 -19.000002
v -5.000000 0.200003 -19.000002
v -15.000001 0.200003 -19.000000
v -15.000001 0.200002 -13.000000
v -25.000000 0.000002 -13.200000
v -15.000001 0.200002 -13.200000
v -25.000000 0.200002 -13.000000
v -25.000000 0.200002 -13.200000
v -19.000000 0.200004 -23.200001
v -15.000001 0.200003 -19.200001
v -19.200001 0.200003 -19.000000
v -19.000000 0.200003 -19.200001
v -19.200001 0.000004 -23.200001
v -19.200001 0.000003 -19.000000
v -15.000001 0.000003 -19.000000
v -19.200001 0.200004 -23.200001
v -19.200001 0.200005 -33.200001
v -19.200001 0.000005 -33.200001
v 2.000000 0.200001 11.000000
v 1.799999 -0.000000 21.000000
v 1.999999 0.200000 21.000000
v 1.799999 0.200000 21.000000
v 1.800000 0.200001 11.000000
v 1.800000 0.000001 11.000000
v -5.199999 0.200001 11.000000
v -5.000000 0.200001 11.000000
v -5.000000 0.000001 11.000000
v -5.199999 0.200003 21.000000
v -4.999999 0.200003 21.000000
v -4.999999 0.000003 21.000000
vt 4.748800 0.003600
vt 4.960800 1.021200
vt 0.763200 1.021200
vt 5.406000 0.024800
vt 5.406000 1.021200
vt 1.208400 1.021200
vt 4.197600 0.024800
vt 4.197600 1.021200
vt 0.000000 1.021200
vt 4.197600 0.024800
vt 4.197600 1.021200
vt 0.763200 0.003600
vt 1.208400 0.024800
vt 0.212000 0.024800
vt 0.000000 0.024800
vt 0.000000 0.007573
vt 10.010568 0.007573
vt 10.010568 1.000000
vt 0.992427 0.007573
vt 11.002995 0.007573
vt 11.002995 1.000000
vt 0.000000 1.000000
vt 0.992427 1.000000
vt 0.000000 0.007573
vt 10.010568 0.007573
vt 10.010568 1.000000
vt 0.992427 0.007573
vt 11.002995 0.007573
vt 11.002995 1.000000
vt 0.000000 1.000000
vt 0.992427 1.000000
vt 0.000000 0.007573
vt 10.010568 0.007573
vt 10.010568 1.000000
vt 0.992427 0.007573
vt 11.002995 0.007573
vt 11.002995 1.000000
vt 0.000000 1.000000
vt 0.992427 1.000000
vt 4.748800 0.003600
vt 4.960800 1.021200
vt 0.763200 1.021200
vt 5.406000 0.024800
vt 5.406000 1.021200
vt 1.208400 1.021200
vt 4.197600 0.024800
vt 4.197600 1.021200
vt 0.000000 1.021200
vt 4.197600 0.024800
vt 4.197600 1.021200
vt 0.763200 0.003600
vt 1.208400 0.024800
vt 0.212000 0.024800
vt 0.000000 0.024800
vt 0.000000 0.007573
vt 10.010568 0.007573
vt 10.010568 1.000000
vt 0.992427 0.007573
vt 11.002995 0.007573
vt 11.002995 1.000000
vt 0.000000 1.000000
vt 0.992427 1.000000
vt 0.000000 0.007573
vt 10.010568 0.007573
vt 10.010568 1.000000
vt 0.992427 0.007573
vt 11.002995 0.007573
vt 11.002995 1.000000
vt 0.000000 1.000000
vt 0.992427 1.000000
vt 0.000000 0.007573
vt 10.010568 0.007573
vt 10.010568 1.000000
vt 0.992427 0.007573
vt 11.002995 0.007573
vt 11.002995 1.000000
vt 0.000000 1.000000
vt 0.992427 1.000000
vt 0.000000 0.007573
vt 10.010568 0.007573
vt 10.010568 1.000000
vt 0.992427 0.007573
vt 11.002995 0.007573
vt 11.002995 1.000000
vt 0.000000 1.000000
vt 0.992427 1.000000
vt 4.748800 0.003600
vt 4.960800 1.021200
vt 0.763200 1.021200
vt 5.406000 0.024800
vt 5.406000 1.021200
vt 1.208400 1.021200
vt 4.197600 0.024800
vt 4.197600 1.021200
vt 0.000000 1.021200
vt 4.197600 0.024800
vt 4.197600 1.021200
vt 0.763200 0.003600
vt 1.208400 0.024800
vt 0.212000 0.024800
vt 0.000000 0.024800
vt 0.000000 0.007573
vt 10.010568 0.007573
vt 10.010568 1.000000
vt 0.992427 0.007573
vt 11.002995 0.007573
vt 11.002995 1.000000
vt 0.000000 1.000000
vt 0.992427 1.000000
vt 0.000000 0.007573
vt 10.010568 0.007573
vt 10.010568 1.000000
vt 0.992427 0.007573
vt 11.002995 0.007573
vt 11.002995 1.000000
vt 0.000000 1.000000
vt 0.992427 1.000000
vt 0.000000 0.007573
vt 10.010568 0.007573
vt 10.010568 1.000000
vt 0.992427 0.007573
vt 11.002995 0.007573
vt 11.002995 1.000000
vt 0.000000 1.000000
vt 0.992427 1.000000
vt 0.000000 0.007573
vt 10.010568 0.007573
vt 10.010568 1.000000
vt 0.992427 0.007573
vt 11.002995 0.007573
vt 11.002995 1.000000
vt 0.000000 1.000000
vt 0.992427 1.000000
vt 0.000000 0.007573
vt 10.010568 0.007573
vt 10.010568 1.000000
vt 0.992427 0.007573
vt 11.002995 0.007573
vt 11.002995 1.000000
vt 0.000000 1.000000
vt 0.992427 1.000000
vn -0.0000 1.0000 0.0000
vn 0.0000 0.0000 -1.0000
vn -1.0000 0.0000 0.0000
vn 1.0000 0.0000 -0.0000
vn 0.0000 0.0000 1.0000
usemtl texgr3.png.002
s off
f 6/1/1 2/2/1 51/3/1
f 1/4/2 2/5/2 3/6/2
f 4/7/1 3/8/1 2/9/1
f 52/10/3 51/11/3 2/9/3
f 51/3/1 5/12/1 6/1/1
f 3/6/2 7/13/2 1/4/2
f 2/9/1 6/14/1 4/7/1
f 2/9/3 1/15/3 52/10/3
f 8/16/1 9/17/1 10/18/1
f 12/19/4 26/20/4 11/21/4
f 10/18/1 11/22/1 8/16/1
f 11/21/4 10/23/4 12/19/4
f 15/24/1 13/25/1 17/26/1
f 18/27/3 14/28/3 16/29/3
f 17/26/1 16/30/1 15/24/1
f 16/29/3 17/31/3 18/27/3
f 19/32/1 20/33/1 36/34/1
f 35/35/5 21/36/5 22/37/5
f 36/34/1 22/38/1 19/32/1
f 22/37/5 36/39/5 35/35/5
f 25/40/1 34/41/1 23/42/1
f 32/43/4 34/44/4 11/45/4
f 8/46/1 11/47/1 34/48/1
f 27/49/2 23/50/2 34/48/2
f 23/42/1 24/51/1 25/40/1
f 11/45/4 26/52/4 32/43/4
f 34/48/1 25/53/1 8/46/1
f 34/48/2 32/54/2 27/49/2
f 13/55/1 28/56/1 29/57/1
f 30/58/3 18/59/3 17/60/3
f 29/57/1 17/61/1 13/55/1
f 17/60/3 29/62/3 30/58/3
f 38/63/1 31/64/1 34/65/1
f 32/66/2 33/67/2 40/68/2
f 34/65/1 40/69/1 38/63/1
f 40/68/2 34/70/2 32/66/2
f 20/71/1 44/72/1 37/73/1
f 49/74/5 35/75/5 36/76/5
f 37/73/1 36/77/1 20/71/1
f 36/76/5 37/78/5 49/74/5
f 41/79/1 38/80/1 40/81/1
f 33/82/2 39/83/2 42/84/2
f 40/81/1 42/85/1 41/79/1
f 42/84/2 40/86/2 33/82/2
f 46/87/1 45/88/1 37/89/1
f 48/90/3 45/91/3 50/92/3
f 43/93/1 50/94/1 45/95/1
f 49/96/5 37/97/5 45/95/5
f 37/89/1 44/98/1 46/87/1
f 50/92/3 47/99/3 48/90/3
f 45/95/1 46/100/1 43/93/1
f 45/95/5 48/101/5 49/96/5
f 43/102/1 5/103/1 51/104/1
f 52/105/3 47/106/3 50/107/3
f 51/104/1 50/108/1 43/102/1
f 50/107/3 51/109/3 52/105/3
f 55/110/1 53/111/1 57/112/1
f 58/113/3 54/114/3 56/115/3
f 57/112/1 56/116/1 55/110/1
f 56/115/3 57/117/3 58/113/3
f 53/118/1 15/119/1 16/120/1
f 14/121/3 58/122/3 57/123/3
f 16/120/1 57/124/1 53/118/1
f 57/123/3 16/125/3 14/121/3
f 9/126/1 59/127/1 60/128/1
f 61/129/4 12/130/4 10/131/4
f 60/128/1 10/132/1 9/126/1
f 10/131/4 60/133/4 61/129/4
f 59/134/1 62/135/1 63/136/1
f 64/137/4 61/138/4 60/139/4
f 63/136/1 60/140/1 59/134/1
f 60/139/4 63/141/4 64/137/4
