# Blender v3.2.1 OBJ File: ''
# www.blender.org
mtllib props_texgr2.mtl
v -15.000000 0.200012 -37.200001
v -19.000000 0.200011 -33.200001
v -19.000000 0.200012 -37.200001
v -9.200000 0.200000 1.000000
v -5.200000 0.200001 -9.000000
v -5.200000 0.200000 1.000000
v 2.000000 0.200001 -9.000000
v 2.000000 0.200000 1.000000
v 5.000000 0.200004 -23.200001
v 5.000000 0.200003 -19.200001
v -5.000000 0.200003 -19.200001
v -9.200000 0.200001 -9.000000
v -5.200000 0.200002 -13.000000
v 2.000000 0.200003 -19.000000
v -9.200000 0.200002 -13.000000
v -15.000001 0.200002 -13.000000
v -15.000001 0.200003 -19.200001
v -25.000000 0.200001 -9.000000
v -15.000001 0.200001 -9.000000
v -25.000000 0.200002 -13.000000
v -19.000000 0.200004 -23.200001
v -19.000000 0.200003 -19.200001
v -15.000001 0.200004 -23.200001
v -15.000001 0.200005 -33.200001
v 10.000000 0.200000 1.000000
v 6.000000 0.200000 1.000000
v 10.000000 0.200001 -9.000000
v 10.000000 0.200003 -19.000000
v 6.000000 0.200003 -19.000000
v 6.000000 0.200001 -9.000000
v 15.000000 0.000004 -23.200001
v 5.000000 0.000004 -23.200001
v 15.000001 0.000003 -19.200001
v 5.000000 0.000003 -19.200001
v -5.000000 0.200004 -27.200001
v -15.000001 0.200004 -27.200001
v -5.000000 0.200003 -23.200001
v 2.000000 0.200001 11.000000
v 2.000000 0.200000 21.000000
v 10.000000 0.200000 21.000000
v 6.000000 0.200000 21.000000
v 10.000000 0.200001 11.000000
v 6.000000 0.200001 11.000000
v -5.200000 0.200000 21.000000
v -9.200001 0.200000 21.000000
v -5.200000 0.200001 11.000000
v -9.200001 0.200001 11.000000
vt 0.000000 0.024800
vt 1.992800 0.024800
vt 1.992800 2.017600
vt 0.000000 2.017600
vt 0.000000 0.007573
vt 5.005284 0.007573
vt 5.005284 1.992427
vt 0.000000 1.992427
vt 0.000000 0.007573
vt 5.005284 0.007573
vt 5.005284 1.992427
vt 0.000000 1.992427
vt 0.000000 0.007573
vt 5.005284 0.007573
vt 5.005284 1.992427
vt 0.000000 1.992427
vt 0.000000 0.024800
vt 1.992800 0.024800
vt 1.992800 2.017600
vt 0.000000 2.017600
vt 0.000000 0.007573
vt 5.005284 0.007573
vt 5.005284 1.992427
vt 0.000000 1.992427
vt 0.000000 0.007573
vt 3.218750 0.031250
vt 3.218750 2.000000
vt 0.000000 1.992427
vt 0.000000 0.007573
vt 5.005284 0.007573
vt 5.005284 1.992427
vt 0.000000 1.992427
vt 0.000000 0.007573
vt 5.005284 0.007573
vt 5.005284 1.992427
vt 0.000000 1.992427
vt 0.000000 0.024800
vt 1.992800 0.024800
vt 1.992800 2.017600
vt 0.000000 2.017600
vt 0.000000 0.007573
vt 5.005284 0.007573
vt 5.005284 1.992427
vt 0.000000 1.992427
vt 0.000000 0.007573
vt 5.005284 0.007573
vt 5.005284 1.992427
vt 0.000000 1.992427
vt 0.000000 0.007573
vt 5.005284 0.007573
vt 5.005284 1.992427
vt 0.000000 1.992427
vt 0.000000 0.007573
vt 5.005284 0.007573
vt 5.005284 1.992427
vt 0.000000 1.992427
vt 0.000000 0.007573
vt 5.005284 0.007573
vt 5.005284 1.992427
vt 0.000000 1.992427
vt 0.000000 0.007573
vt 5.005284 0.007573
vt 5.005284 1.992427
vt 0.000000 1.992427
vt 0.000000 0.007573
vt 5.005284 0.007573
vt 5.005284 1.992427
vt 0.000000 1.992427
vt 0.000000 0.007573
vt 5.005284 0.007573
vt 5.005284 1.992427
vt 0.000000 1.992427
vt 0.000000 0.007573
vt 5.005284 0.007573
vt 5.005284 1.992427
vt 0.000000 1.992427
vt 0.000000 0.007573
vt 5.005284 0.007573
vt 5.005284 1.992427
vt 0.000000 1.992427
vt 0.000000 0.007573
vt 5.005284 0.007573
vt 5.005284 1.992427
vt 0.000000 1.992427
vn 0.0000 1.0000 0.0000
usemtl texgr2.png.002
s off
f 24/1/1 1/2/1 3/3/1
f 3/3/1 2/4/1 24/1/1
f 12/5/1 4/6/1 6/7/1
f 6/7/1 5/8/1 12/5/1
f 26/9/1 30/10/1 7/11/1
f 7/11/1 8/12/1 26/9/1
f 9/13/1 37/14/1 11/15/1
f 11/15/1 10/16/1 9/13/1
f 12/17/1 5/18/1 13/19/1
f 13/19/1 15/20/1 12/17/1
f 30/21/1 29/22/1 14/23/1
f 14/23/1 7/24/1 30/21/1
f 19/25/1 12/26/1 15/27/1
f 15/27/1 16/28/1 19/25/1
f 37/29/1 23/30/1 17/31/1
f 17/31/1 11/32/1 37/29/1
f 18/33/1 19/34/1 16/35/1
f 16/35/1 20/36/1 18/33/1
f 23/37/1 21/38/1 22/39/1
f 22/39/1 17/40/1 23/37/1
f 23/41/1 24/42/1 2/43/1
f 2/43/1 21/44/1 23/41/1
f 25/45/1 27/46/1 30/47/1
f 30/47/1 26/48/1 25/45/1
f 27/49/1 28/50/1 29/51/1
f 29/51/1 30/52/1 27/49/1
f 31/53/1 32/54/1 34/55/1
f 34/55/1 33/56/1 31/53/1
f 35/57/1 36/58/1 23/59/1
f 23/59/1 37/60/1 35/57/1
f 41/61/1 43/62/1 38/63/1
f 38/63/1 39/64/1 41/61/1
f 43/65/1 26/66/1 8/67/1
f 8/67/1 38/68/1 43/65/1
f 40/69/1 42/70/1 43/71/1
f 43/71/1 41/72/1 40/69/1
f 42/73/1 25/74/1 26/75/1
f 26/75/1 43/76/1 42/73/1
f 44/77/1 46/78/1 47/79/1
f 47/79/1 45/80/1 44/77/1
f 46/81/1 6/82/1 4/83/1
f 4/83/1 47/84/1 46/81/1
