# Blender v3.2.1 OBJ File: ''
# www.blender.org
mtllib props_texobj2.mtl
v -11.212321 -0.091718 35.304531
v -12.490179 -0.172853 42.849983
v -15.370432 0.496503 32.687965
v -16.323755 0.273384 39.787178
v -24.396576 0.455935 40.557953
v -20.218182 1.044156 36.724377
v -32.144859 0.009700 34.128090
v -7.175910 0.374804 23.458986
v -17.703032 0.009702 20.903269
v -24.031473 0.009701 27.373695
v -37.114311 0.009703 14.635676
v -46.870659 0.009702 21.288654
v -10.725517 0.334236 28.286451
v -6.242871 -0.436536 30.213381
v -1.739940 -0.132284 32.099747
v -7.094777 -0.112002 37.900818
v 2.844124 -0.010584 33.925255
v -2.936665 0.009699 40.476818
v -16.790276 -0.071436 46.987812
v 5.420125 1.145572 45.547684
v -8.697170 0.009698 45.892506
v -13.037833 0.009697 50.192600
v -5.411249 1.307838 56.622459
v 9.923055 0.009694 69.482178
v 23.269579 2.220595 53.133701
v 35.196259 1.470110 31.511524
v -20.563000 0.131399 43.762741
v 0.694076 -0.152564 12.445062
v -0.036129 -0.416250 18.550386
v -2.287594 -0.335118 24.574577
v -4.539060 -0.071431 12.546479
v -5.106997 -0.051148 18.205566
v -15.938370 0.009703 12.850731
v -37.925652 1.733800 3.520335
v -0.178113 0.009705 0.396681
v -4.924445 0.009704 6.867107
v 0.268123 0.009704 6.278887
v 4.973888 0.050272 -0.008989
v 5.338991 0.212539 5.873218
v 10.389575 0.435657 5.528399
v 5.805511 0.009703 12.181376
v 10.835811 0.131404 11.978542
v 10.146173 0.009702 19.098040
v 20.003939 0.009703 11.897408
v 7.529605 0.009701 26.582640
v 17.042553 0.638488 28.286451
v 5.095589 -0.213416 18.854637
v 2.600722 -0.071433 25.629318
v 4.831904 0.009706 -5.444959
v -0.746050 0.009707 -11.124331
v -5.877769 0.009707 -11.286598
v -5.492383 0.009706 -5.181273
v -5.289547 0.009705 0.944335
v -5.999469 0.009708 -17.675890
v -16.648291 0.009707 -11.570566
v -37.945930 3.782433 -13.761180
v 4.142266 0.009708 -16.337181
v -0.056412 0.009709 -22.888742
v -0.908318 0.009708 -17.047104
v 4.892754 0.009709 -21.529751
v 9.071149 0.009708 -15.546127
v 4.365384 0.009707 -10.941779
v 9.841921 0.313958 -5.526093
v 10.166456 0.171973 -0.252390
v 19.212885 0.618211 -9.765338
v 20.308191 0.009705 -0.414658
v 38.157646 -0.152561 -9.643637
v 40.591660 1.510682 0.579232
v -0.320098 0.009706 -5.363825
v 10.044756 0.009710 -30.555893
v 5.785227 0.009711 -33.192745
v 2.215336 0.009710 -28.344995
v -2.449862 0.760199 -30.332775
v -5.025863 0.009709 -24.166601
v 6.089479 0.009712 -40.454227
v -6.891942 0.009712 -40.981598
v 2.174769 1.571541 -50.819080
v -13.342085 2.362598 -63.455685
v -34.923698 1.571538 -30.657310
v -15.066180 1.064450 -26.519484
v 9.923055 0.942752 -44.510921
v 13.797197 0.009712 -41.346699
v 1.566265 0.009711 -35.809315
v 10.044756 0.009712 -37.431992
v 14.000032 0.009711 -34.430038
v 17.671341 0.009712 -38.202763
v 21.545483 0.638499 -35.038540
v 17.955309 0.699348 -31.407799
v 11.424031 0.699347 -24.186884
v 6.880534 0.009710 -26.276083
v 29.314053 0.009710 -28.730383
v 22.803059 0.009709 -22.543924
v 9.679653 0.009709 -20.069340
v 45.621964 1.591819 -16.114063
v -15.978936 0.009705 1.816524
v 19.030333 0.131409 -16.905119
v 9.273984 0.009707 -10.637527
v 14.284000 0.699348 -27.898760
v 37.501797 16.825994 -57.180340
v 33.980682 -0.006156 -59.419205
v 25.737608 -0.006159 -36.989906
v 20.628937 -0.006163 -13.461529
v 23.804047 -0.006168 13.587963
v 11.734560 -0.006171 33.493458
v 15.255676 13.325218 35.732319
v -4.283461 -0.006174 50.162785
v -16.027294 -0.006177 71.818657
v 36.748726 24.153172 -57.180340
v 30.113560 22.260313 -34.669628
v 30.866631 14.933138 -34.669628
v 21.198830 24.458464 -12.179270
v 21.951900 17.131287 -12.179271
v 31.334755 22.260305 15.114462
v 32.108181 14.933129 15.114461
v 14.502604 20.652395 35.732319
v -4.039222 25.109756 51.648575
v -3.286151 17.782581 51.648575
v -12.119468 22.260296 73.976105
v -11.346044 14.933120 73.976105
vt 0.625000 0.312500
vt 0.625000 0.187500
vt 0.750000 0.312500
vt 0.750000 0.187500
vt 0.250000 0.312500
vt 0.250000 0.187500
vt 0.375000 0.312500
vt 0.375000 0.187500
vt 0.250000 0.312500
vt 0.250000 0.187500
vt 0.375000 0.312500
vt 0.375000 0.187500
vt 0.375000 0.312500
vt 0.250000 0.312500
vt 0.375000 0.250000
vt 0.250000 0.187500
vt 0.375000 0.187500
vt 0.375000 0.312500
vt 0.250000 0.312500
vt 0.375000 0.250000
vt 0.250000 0.187500
vt 0.375000 0.187500
vt 0.375000 0.312500
vt 0.250000 0.312500
vt 0.375000 0.250000
vt 0.250000 0.187500
vt 0.375000 0.187500
vt 0.250000 0.312500
vt 0.250000 0.187500
vt 0.375000 0.312500
vt 0.375000 0.187500
vt 0.250000 0.312500
vt 0.250000 0.187500
vt 0.375000 0.312500
vt 0.375000 0.187500
vt 0.625000 0.312500
vt 0.625000 0.187500
vt 0.750000 0.312500
vt 0.750000 0.187500
vt 0.625000 0.312500
vt 0.625000 0.187500
vt 0.750000 0.312500
vt 0.750000 0.187500
vt 0.250000 0.312500
vt 0.250000 0.187500
vt 0.375000 0.312500
vt 0.375000 0.187500
vt 0.250000 0.312500
vt 0.250000 0.187500
vt 0.375000 0.312500
vt 0.375000 0.187500
vt 0.250000 0.312500
vt 0.250000 0.187500
vt 0.375000 0.312500
vt 0.375000 0.187500
vt 0.250000 0.312500
vt 0.250000 0.187500
vt 0.375000 0.312500
vt 0.375000 0.187500
vt 0.375000 0.187500
vt 0.375000 0.312500
vt 0.250000 0.250000
vt 0.250000 0.312500
vt 0.375000 0.312500
vt 0.250000 0.250000
vt 0.375000 0.187500
vt 0.250000 0.187500
vt 0.250000 0.187500
vt 0.375000 0.187500
vt 0.250000 0.250000
vt 0.375000 0.242188
vt 0.375000 0.312500
vt 0.625000 0.312500
vt 0.625000 0.187500
vt 0.750000 0.312500
vt 0.750000 0.187500
vt 0.625000 0.312500
vt 0.625000 0.187500
vt 0.750000 0.312500
vt 0.750000 0.187500
vt 0.250000 0.312500
vt 0.250000 0.187500
vt 0.375000 0.312500
vt 0.375000 0.187500
vt 0.250000 0.312500
vt 0.250000 0.187500
vt 0.375000 0.312500
vt 0.375000 0.187500
vt 0.375000 0.312500
vt 0.250000 0.312500
vt 0.375000 0.250000
vt 0.250000 0.187500
vt 0.375000 0.187500
vt 0.375000 0.312500
vt 0.250000 0.312500
vt 0.375000 0.250000
vt 0.250000 0.187500
vt 0.375000 0.187500
vt 0.375000 0.312500
vt 0.250000 0.312500
vt 0.375000 0.250000
vt 0.250000 0.187500
vt 0.375000 0.187500
vt 0.250000 0.312500
vt 0.250000 0.187500
vt 0.375000 0.312500
vt 0.375000 0.187500
vt 0.250000 0.312500
vt 0.250000 0.187500
vt 0.375000 0.312500
vt 0.375000 0.187500
vt 0.625000 0.312500
vt 0.625000 0.187500
vt 0.750000 0.312500
vt 0.750000 0.187500
vt 0.625000 0.312500
vt 0.625000 0.187500
vt 0.750000 0.312500
vt 0.750000 0.187500
vt 0.250000 0.312500
vt 0.250000 0.187500
vt 0.375000 0.312500
vt 0.375000 0.187500
vt 0.250000 0.312500
vt 0.250000 0.187500
vt 0.375000 0.312500
vt 0.375000 0.187500
vt 0.250000 0.312500
vt 0.250000 0.187500
vt 0.375000 0.312500
vt 0.375000 0.187500
vt 0.250000 0.312500
vt 0.250000 0.187500
vt 0.375000 0.312500
vt 0.375000 0.187500
vt 0.375000 0.187500
vt 0.375000 0.312500
vt 0.250000 0.250000
vt 0.250000 0.312500
vt 0.375000 0.312500
vt 0.250000 0.250000
vt 0.375000 0.187500
vt 0.250000 0.187500
vt 0.375000 0.312500
vt 0.250000 0.250000
vt 0.375000 0.187500
vt 0.250000 0.187500
vt 0.625000 0.312500
vt 0.625000 0.187500
vt 0.750000 0.312500
vt 0.750000 0.187500
vt 0.750000 0.187500
vt 0.750000 0.312500
vt 0.625000 0.187500
vt 0.625000 0.312500
vt 0.250000 0.312500
vt 0.250000 0.187500
vt 0.375000 0.312500
vt 0.375000 0.187500
vt 0.250000 0.312500
vt 0.250000 0.187500
vt 0.375000 0.312500
vt 0.375000 0.187500
vt 0.375000 0.312500
vt 0.250000 0.312500
vt 0.375000 0.250000
vt 0.250000 0.187500
vt 0.375000 0.187500
vt 0.375000 0.312500
vt 0.250000 0.312500
vt 0.375000 0.250000
vt 0.250000 0.187500
vt 0.375000 0.187500
vt 0.375000 0.312500
vt 0.250000 0.312500
vt 0.375000 0.250000
vt 0.250000 0.250000
vt 0.250000 0.187500
vt 0.250000 0.312500
vt 0.250000 0.187500
vt 0.375000 0.312500
vt 0.375000 0.187500
vt 0.250000 0.312500
vt 0.250000 0.187500
vt 0.375000 0.312500
vt 0.375000 0.187500
vt 0.625000 0.312500
vt 0.625000 0.187500
vt 0.750000 0.312500
vt 0.750000 0.187500
vt 0.625000 0.312500
vt 0.625000 0.187500
vt 0.750000 0.312500
vt 0.750000 0.187500
vt 0.250000 0.312500
vt 0.250000 0.187500
vt 0.375000 0.312500
vt 0.375000 0.187500
vt 0.250000 0.312500
vt 0.250000 0.187500
vt 0.375000 0.312500
vt 0.375000 0.187500
vt 0.250000 0.312500
vt 0.250000 0.187500
vt 0.375000 0.312500
vt 0.375000 0.187500
vt 0.250000 0.312500
vt 0.250000 0.187500
vt 0.375000 0.312500
vt 0.375000 0.187500
vt 0.375000 0.187500
vt 0.375000 0.312500
vt 0.250000 0.250000
vt 0.250000 0.312500
vt 0.375000 0.312500
vt 0.250000 0.250000
vt 0.375000 0.187500
vt 0.250000 0.187500
vt 0.375000 0.312500
vt 0.250000 0.250000
vt 0.375000 0.187500
vt 0.250000 0.187500
vt 0.625000 0.312500
vt 0.625000 0.187500
vt 0.750000 0.312500
vt 0.750000 0.187500
vt 0.750000 0.187500
vt 0.750000 0.312500
vt 0.625000 0.187500
vt 0.625000 0.312500
vt 0.250000 0.312500
vt 0.250000 0.187500
vt 0.375000 0.312500
vt 0.375000 0.187500
vt 0.250000 0.312500
vt 0.250000 0.187500
vt 0.375000 0.312500
vt 0.375000 0.187500
vt 0.375000 0.312500
vt 0.250000 0.312500
vt 0.375000 0.250000
vt 0.250000 0.187500
vt 0.375000 0.187500
vt 0.375000 0.312500
vt 0.250000 0.312500
vt 0.375000 0.250000
vt 0.250000 0.187500
vt 0.375000 0.187500
vt 0.375000 0.312500
vt 0.250000 0.312500
vt 0.375000 0.250000
vt 0.250000 0.187500
vt 0.375000 0.187500
vt 0.250000 0.312500
vt 0.250000 0.187500
vt 0.375000 0.312500
vt 0.375000 0.187500
vt 0.250000 0.312500
vt 0.250000 0.187500
vt 0.375000 0.312500
vt 0.375000 0.187500
vt 0.625000 0.312500
vt 0.625000 0.187500
vt 0.750000 0.312500
vt 0.750000 0.187500
vt 0.625000 0.312500
vt 0.625000 0.187500
vt 0.750000 0.312500
vt 0.750000 0.187500
vt 0.250000 0.312500
vt 0.250000 0.187500
vt 0.375000 0.312500
vt 0.375000 0.187500
vt 0.250000 0.312500
vt 0.250000 0.187500
vt 0.375000 0.312500
vt 0.375000 0.187500
vt 0.250000 0.312500
vt 0.250000 0.187500
vt 0.375000 0.312500
vt 0.375000 0.187500
vt 0.250000 0.312500
vt 0.250000 0.187500
vt 0.375000 0.312500
vt 0.375000 0.187500
vt 0.375000 0.187500
vt 0.375000 0.312500
vt 0.250000 0.250000
vt 0.250000 0.312500
vt 0.375000 0.312500
vt 0.250000 0.250000
vt 0.375000 0.187500
vt 0.250000 0.187500
vt 0.375000 0.312500
vt 0.250000 0.250000
vt 0.375000 0.187500
vt 0.250000 0.187500
vt 0.625000 0.312500
vt 0.625000 0.187500
vt 0.750000 0.312500
vt 0.750000 0.187500
vt 0.250000 0.312500
vt 0.250000 0.187500
vt 0.250000 0.312500
vt 0.250000 0.312500
vt 0.250000 0.187500
vt 0.250000 0.312500
vt 0.375000 0.187500
vt 0.250000 0.312500
vt 0.250000 0.187500
vt 0.250000 0.312500
vt 0.250000 0.312500
vt 0.250000 0.187500
vt 0.250000 0.312500
vt 0.751594 0.311300
vt 0.751594 0.189200
vt 0.873806 0.311300
vt 0.873806 0.189200
vt 0.751594 0.311300
vt 0.751594 0.189200
vt 0.873806 0.311300
vt 0.873806 0.189200
vt 0.751594 0.311300
vt 0.751594 0.189200
vt 0.873806 0.311300
vt 0.873806 0.189200
vt 0.751594 0.311300
vt 0.751594 0.189200
vt 0.873806 0.311300
vt 0.873806 0.189200
vt 0.751594 0.311300
vt 0.751594 0.189200
vt 0.873806 0.311300
vt 0.873806 0.189200
vt 0.751594 0.311300
vt 0.873806 0.189200
vt 0.751594 0.189200
vt 0.873806 0.189200
vt 0.873806 0.311300
vt 0.751594 0.189200
vt 0.873806 0.189200
vt 0.751594 0.189200
vt 0.873806 0.189200
vt 0.751594 0.189200
vt 0.873806 0.189200
vt 0.751594 0.189200
vt 0.873806 0.189200
vt 0.751594 0.189200
vt 0.751594 0.311300
vt 0.873806 0.189200
vt 0.751594 0.189200
vt 0.751594 0.311300
vn 0.0327 0.9985 -0.0440
vn 0.0567 0.9956 0.0741
vn 0.1281 0.9916 0.0193
vn 0.1364 0.9878 0.0751
vn 0.0408 0.9800 0.1948
vn 0.0289 0.9974 0.0664
vn 0.0155 0.9931 -0.1162
vn -0.0684 0.9943 -0.0821
vn -0.0965 0.9942 0.0473
vn -0.0311 0.9994 -0.0145
vn -0.0228 0.9995 -0.0223
vn -0.0203 0.9981 -0.0583
vn 0.0000 1.0000 0.0000
vn 0.1212 0.9878 0.0974
vn 0.1245 0.9866 0.1051
vn 0.1275 0.9870 0.0982
vn 0.1132 0.9926 0.0433
vn -0.0277 0.9951 -0.0944
vn 0.0045 1.0000 0.0007
vn -0.0502 0.9986 -0.0172
vn -0.0557 0.9981 -0.0280
vn -0.0162 0.9999 -0.0014
vn -0.0220 0.9997 -0.0113
vn -0.0184 0.9996 -0.0205
vn -0.0177 0.9997 -0.0187
vn -0.0220 0.9997 -0.0117
vn -0.0260 0.9993 -0.0276
vn -0.0155 0.9991 -0.0406
vn -0.0116 0.9999 -0.0117
vn -0.0778 0.9936 -0.0816
vn -0.0596 0.9976 -0.0353
vn -0.0821 0.9921 -0.0949
vn -0.0912 0.9916 -0.0920
vn 0.0531 0.9979 0.0374
vn -0.0869 0.9942 0.0635
vn -0.0368 0.9978 -0.0549
vn 0.0472 0.9952 0.0859
vn 0.0395 0.9991 0.0166
vn -0.0297 0.9988 0.0396
vn -0.0412 0.9987 0.0290
vn 0.0155 0.9999 -0.0020
vn 0.0683 0.9964 0.0512
vn 0.0752 0.9959 -0.0511
vn 0.1353 0.9901 0.0372
vn 0.0070 1.0000 -0.0029
vn 0.0051 1.0000 0.0011
vn -0.0136 0.9962 -0.0861
vn 0.0075 0.9999 0.0138
vn 0.0783 0.9969 -0.0003
vn 0.0128 0.9882 0.1523
vn 0.0016 0.9999 0.0142
vn 0.0160 0.9996 0.0252
vn -0.0376 0.9989 0.0289
vn -0.0299 0.9990 0.0343
vn -0.0078 1.0000 0.0006
vn -0.0419 0.9988 -0.0249
vn -0.0246 0.9994 -0.0260
vn -0.0471 0.9979 -0.0437
vn -0.0417 0.9985 0.0352
vn -0.0222 0.9986 0.0486
vn -0.0229 0.9993 0.0310
vn -0.0447 0.9989 0.0127
vn -0.0423 0.9984 -0.0365
vn -0.0154 0.9999 -0.0054
vn 0.0435 0.9991 0.0011
vn 0.0152 0.9988 -0.0461
vn -0.0322 0.9985 -0.0441
vn -0.0621 0.9978 -0.0217
vn -0.0796 0.9967 -0.0126
vn -0.0377 0.9983 -0.0451
vn -0.0378 0.9989 -0.0276
vn -0.0457 0.9982 -0.0378
vn 0.1010 0.9948 0.0151
vn 0.0429 0.9963 0.0748
vn 0.0106 0.9974 0.0715
vn 0.1831 0.9785 -0.0953
vn 0.1617 0.9800 0.1160
vn -0.0614 0.9967 -0.0525
vn -0.0607 0.9981 -0.0059
vn -0.0221 0.9994 0.0283
vn -0.0214 0.9975 -0.0675
vn -0.0124 0.9999 -0.0017
vn -0.0029 0.9979 0.0653
vn 0.0164 0.9995 0.0259
vn 0.0412 0.9846 -0.1700
vn -0.0772 0.9943 0.0737
vn -0.0084 0.9999 -0.0072
vn 0.0581 0.9939 -0.0936
vn 0.1211 0.9886 0.0891
vn 0.0910 0.9833 0.1577
vn 0.0575 0.9939 -0.0940
vn 0.0025 0.9974 -0.0713
vn 0.0688 0.9865 0.1488
vn -0.0590 0.9836 0.1705
vn -0.0061 0.9885 0.1513
vn -0.0444 0.9922 0.1166
vn 0.0847 0.9932 0.0797
vn 0.0364 0.9980 -0.0522
vn 0.0289 0.9678 0.2499
vn -0.0897 0.9921 -0.0873
vn -0.0911 0.9901 -0.1067
vn -0.0970 0.9903 -0.0990
vn -0.0973 0.9900 -0.1018
vn -0.1101 0.9906 -0.0814
vn -0.1110 0.9901 -0.0855
vn -0.1261 0.9906 -0.0528
vn -0.0447 0.9882 0.1466
vn 0.0485 0.9975 0.0511
vn 0.0523 0.9980 0.0350
vn 0.0580 0.9982 0.0173
vn -0.0602 0.9883 0.1400
vn -0.1079 0.9841 0.1408
vn 0.0184 0.9998 -0.0093
vn -0.0362 0.9979 -0.0537
vn -0.0867 0.9931 -0.0796
vn -0.0820 0.9928 -0.0872
vn -0.0737 0.9973 -0.0018
vn 0.0137 0.9988 0.0462
vn 0.0134 0.9997 0.0184
vn 0.0780 0.9969 -0.0039
vn 0.0410 0.9968 -0.0690
vn -0.0613 0.9981 0.0025
vn -0.0564 0.9970 -0.0531
vn -0.0533 0.9970 -0.0561
vn 0.0487 0.9975 0.0510
vn 0.0544 0.9976 0.0419
vn -0.9385 0.2305 -0.2572
vn -0.8786 0.3518 -0.3229
vn -0.8576 0.3526 -0.3744
vn -0.9732 0.0909 -0.2113
vn -0.9350 0.0459 0.3516
vn -0.8738 0.4753 0.1026
vn -0.7085 0.4494 -0.5441
vn -0.8161 0.2986 -0.4948
vn -0.5849 0.2822 -0.7604
vn -0.7176 0.0978 -0.6896
vn -0.9408 0.0803 -0.3294
vn -0.8312 0.3255 -0.4507
vn -0.9523 -0.0979 -0.2889
vn -0.9285 -0.0954 -0.3587
vn -0.9356 -0.0962 0.3397
vn -0.9352 -0.0987 0.3401
vn -0.7690 -0.0812 -0.6341
vn -0.7688 -0.0790 -0.6346
vn -0.6592 -0.0677 -0.7489
vn -0.9320 -0.0958 -0.3495
vn -0.9320 -0.0984 -0.3490
usemtl texobj2.png
s off
f 1/1/1 4/2/1 16/3/1
f 4/2/2 2/4/2 16/3/2
f 3/5/3 6/6/3 1/7/3
f 6/6/4 4/8/4 1/7/4
f 6/9/5 5/10/5 4/11/5
f 5/10/6 27/12/6 4/11/6
f 3/13/7 10/14/7 6/15/7
f 10/14/8 7/16/8 6/15/8
f 6/15/9 7/16/9 5/17/9
f 8/18/10 9/19/10 13/20/10
f 9/19/11 10/21/11 13/20/11
f 13/20/12 10/21/12 3/22/12
f 9/23/13 11/24/13 10/25/13
f 11/24/13 12/26/13 10/25/13
f 10/25/13 12/26/13 7/27/13
f 8/28/14 13/29/14 30/30/14
f 13/29/15 14/31/15 30/30/15
f 13/32/16 3/33/16 14/34/16
f 3/33/17 1/35/17 14/34/17
f 14/36/18 1/37/18 15/38/18
f 1/37/19 16/39/19 15/38/19
f 30/40/20 14/41/20 48/42/20
f 14/41/21 15/43/21 48/42/21
f 48/44/22 15/45/22 45/46/22
f 15/45/23 17/47/23 45/46/23
f 15/48/24 16/49/24 17/50/24
f 16/49/25 18/51/25 17/50/25
f 16/52/26 2/53/26 18/54/26
f 2/53/27 21/55/27 18/54/27
f 2/56/28 19/57/28 21/58/28
f 19/57/29 22/59/29 21/58/29
f 20/60/30 46/61/30 17/62/30
f 46/61/31 45/63/31 17/62/31
f 20/64/32 21/65/32 23/66/32
f 21/65/33 22/67/33 23/66/33
f 23/68/34 24/69/34 20/70/34
f 24/69/35 25/71/35 20/70/35
f 20/70/36 25/71/36 26/72/36
f 4/73/37 27/74/37 2/75/37
f 27/74/38 19/76/38 2/75/38
f 28/77/39 29/78/39 41/79/39
f 29/78/40 47/80/40 41/79/40
f 31/81/41 32/82/41 28/83/41
f 32/82/42 29/84/42 28/83/42
f 32/85/43 8/86/43 29/87/43
f 8/86/44 30/88/44 29/87/44
f 31/89/45 33/90/45 32/91/45
f 33/90/46 9/92/46 32/91/46
f 32/91/47 9/92/47 8/93/47
f 53/94/13 95/95/13 36/96/13
f 95/95/13 33/97/13 36/96/13
f 36/96/48 33/97/48 31/98/48
f 95/99/49 34/100/49 33/101/49
f 34/100/50 11/102/50 33/101/50
f 33/101/13 11/102/13 9/103/13
f 53/104/13 36/105/13 35/106/13
f 36/105/13 37/107/13 35/106/13
f 36/108/51 31/109/51 37/110/51
f 31/109/52 28/111/52 37/110/52
f 37/112/53 28/113/53 39/114/53
f 28/113/54 41/115/54 39/114/54
f 35/116/55 37/117/55 38/118/55
f 37/117/56 39/119/56 38/118/56
f 38/120/57 39/121/57 64/122/57
f 39/121/58 40/123/58 64/122/58
f 39/124/59 41/125/59 40/126/59
f 41/125/60 42/127/60 40/126/60
f 41/128/61 47/129/61 42/130/61
f 47/129/62 43/131/62 42/130/62
f 47/132/63 48/133/63 43/134/63
f 48/133/64 45/135/64 43/134/64
f 44/136/65 66/137/65 40/138/65
f 66/137/66 64/139/66 40/138/66
f 44/140/67 43/141/67 46/142/67
f 43/141/68 45/143/68 46/142/68
f 68/144/69 44/145/69 26/146/69
f 44/145/70 46/147/70 26/146/70
f 29/148/71 30/149/71 47/150/71
f 30/149/72 48/151/72 47/150/72
f 49/152/13 62/153/13 69/154/13
f 62/153/13 50/155/13 69/154/13
f 51/156/13 52/157/13 50/158/13
f 52/157/13 69/159/13 50/158/13
f 52/160/13 53/161/13 69/162/13
f 53/161/13 35/163/13 69/162/13
f 51/164/13 55/165/13 52/166/13
f 55/165/13 95/167/13 52/166/13
f 52/166/13 95/167/13 53/168/13
f 74/169/73 80/170/73 54/171/73
f 80/170/74 55/172/74 54/171/74
f 54/171/13 55/172/13 51/173/13
f 80/174/75 79/175/75 55/176/75
f 79/175/76 56/177/76 55/176/76
f 55/176/77 56/177/77 34/178/77
f 74/179/13 54/180/13 58/181/13
f 54/180/13 59/182/13 58/181/13
f 54/183/13 51/184/13 59/185/13
f 51/184/13 50/186/13 59/185/13
f 59/187/13 50/188/13 57/189/13
f 50/188/13 62/190/13 57/189/13
f 58/191/13 59/192/13 60/193/13
f 59/192/13 57/194/13 60/193/13
f 60/195/13 57/196/13 93/197/13
f 57/196/13 61/198/13 93/197/13
f 57/199/13 62/200/13 61/201/13
f 62/200/13 97/202/13 61/201/13
f 62/203/13 49/204/13 97/205/13
f 49/204/78 63/206/78 97/205/78
f 49/207/79 38/208/79 63/209/79
f 38/208/80 64/210/80 63/209/80
f 65/211/81 96/212/81 61/213/81
f 96/212/82 93/214/82 61/213/82
f 65/215/83 63/216/83 66/217/83
f 63/216/84 64/218/84 66/217/84
f 67/219/85 65/220/85 68/221/85
f 65/220/86 66/222/86 68/221/86
f 69/223/13 35/224/13 49/225/13
f 35/224/87 38/226/87 49/225/87
f 90/227/13 70/228/13 72/229/13
f 70/228/13 71/230/13 72/229/13
f 83/231/88 73/232/88 71/233/88
f 73/232/89 72/234/89 71/233/89
f 73/235/90 74/236/90 72/237/90
f 74/236/13 58/238/13 72/237/13
f 83/239/91 76/240/91 73/241/91
f 76/240/92 80/242/92 73/241/92
f 73/241/93 80/242/93 74/243/93
f 81/244/94 77/245/94 75/246/94
f 77/245/95 76/247/95 75/246/95
f 75/246/13 76/247/13 83/248/13
f 77/249/96 78/250/96 76/251/96
f 78/250/97 79/252/97 76/251/97
f 76/251/98 79/252/98 80/253/98
f 81/254/99 75/255/99 82/256/99
f 75/255/13 84/257/13 82/256/13
f 75/258/13 83/259/13 84/260/13
f 83/259/13 71/261/13 84/260/13
f 84/262/13 71/263/13 85/264/13
f 71/263/13 70/265/13 85/264/13
f 82/266/13 84/267/13 86/268/13
f 84/267/13 85/269/13 86/268/13
f 86/270/100 85/271/100 87/272/100
f 85/271/101 88/273/101 87/272/101
f 85/274/102 70/275/102 88/276/102
f 70/275/103 98/277/103 88/276/103
f 70/278/104 90/279/104 98/280/104
f 90/279/105 89/281/105 98/280/105
f 90/282/106 60/283/106 89/284/106
f 60/283/107 93/285/107 89/284/107
f 92/286/108 91/287/108 88/288/108
f 91/287/109 87/289/109 88/288/109
f 92/290/110 89/291/110 96/292/110
f 89/291/111 93/293/111 96/292/111
f 94/294/112 92/295/112 67/296/112
f 92/295/113 96/297/113 67/296/113
f 72/298/13 58/299/13 90/300/13
f 58/299/13 60/301/13 90/300/13
f 20/70/114 26/72/114 46/302/114
f 20/60/115 17/62/115 18/303/115
f 21/65/116 20/64/116 18/304/116
f 44/145/117 68/144/117 66/305/117
f 44/136/118 40/138/118 42/306/118
f 43/141/119 44/140/119 42/307/119
f 55/176/120 34/178/120 95/308/120
f 65/220/121 67/219/121 96/309/121
f 65/211/122 61/213/122 97/310/122
f 63/216/123 65/215/123 97/311/123
f 92/295/124 94/294/124 91/312/124
f 92/286/125 88/288/125 98/313/125
f 89/291/126 92/290/126 98/314/126
f 99/315/127 100/316/127 110/317/127
f 100/316/128 101/318/128 110/317/128
f 110/319/129 101/320/129 112/321/129
f 101/320/130 102/322/130 112/321/130
f 112/323/131 102/324/131 114/325/131
f 102/324/132 103/326/132 114/325/132
f 114/327/133 103/328/133 105/329/133
f 103/328/134 104/330/134 105/329/134
f 105/331/135 104/332/135 117/333/135
f 104/332/136 106/334/136 117/333/136
f 117/333/137 106/335/137 119/336/137
f 106/335/138 107/337/138 119/336/138
f 108/338/139 99/339/139 109/340/139
f 99/339/139 110/319/139 109/340/139
f 109/341/140 110/317/140 111/342/140
f 110/317/140 112/323/140 111/342/140
f 111/343/141 112/321/141 113/344/141
f 112/321/142 114/327/142 113/344/142
f 113/345/143 114/325/143 115/346/143
f 114/325/144 105/331/144 115/346/144
f 115/347/145 105/329/145 116/348/145
f 105/329/145 117/349/145 116/348/145
f 116/350/146 117/333/146 118/351/146
f 117/333/147 119/352/147 118/351/147
