# Blender v3.2.1 OBJ File: ''
# www.blender.org
mtllib nosun.mtl
v -23.545433 -0.713203 0.143344
v -23.545433 5.014584 0.143344
v -23.545433 -0.713203 -18.026175
v -23.545433 5.014584 -18.026175
v -14.271669 -0.713203 0.143344
v -14.271669 5.014584 0.143344
v -14.271669 -0.713203 -18.026175
v -14.271669 5.014584 -18.026175
v -22.683760 -0.439679 -18.441700
v -22.683760 4.223713 -18.441700
v -22.683760 -0.439679 -33.826908
v -22.683760 4.223713 -33.826908
v -15.133342 -0.439679 -18.441700
v -15.133342 4.223713 -18.441700
v -15.133342 -0.439679 -33.826908
v -15.133342 4.223713 -33.826908
v -20.441526 -0.439679 -37.694649
v -20.441526 4.223713 -37.694649
v -12.801737 -0.439679 -43.576466
v -12.801737 4.223713 -43.576466
v -17.896311 -0.439679 -34.124588
v -17.896311 4.223713 -34.124588
v -6.773394 -0.439679 -41.398937
v -6.773394 4.223713 -41.398937
v -17.585878 -0.439679 -41.405369
v -17.585878 4.223713 -41.405369
v -13.974763 -0.439679 -35.577148
v -13.974763 4.223713 -35.577148
v -8.622993 -0.439679 -43.482685
v -8.622993 4.223713 -43.482685
v -20.952793 -0.439679 -34.857761
v -20.952793 4.223713 -34.857761
v -14.866226 4.223713 -39.562000
v -14.866226 -0.439679 -39.562000
v -15.109752 -0.439679 -43.786682
v -15.109752 4.223713 -43.786682
v -15.109752 -0.439679 -59.171890
v -15.109752 4.223713 -59.171890
v -5.994835 -0.439679 -43.786682
v -5.994835 4.223713 -43.786682
v -5.994835 -0.439679 -59.171890
v -5.994835 4.223713 -59.171890
v -15.681269 -0.713203 -49.171139
v -15.681269 5.014584 -49.171139
v -33.850784 -0.713203 -49.171139
v -33.850784 5.014584 -49.171139
v -15.681269 -0.713203 -58.444904
v -15.681269 5.014584 -58.444904
v -33.850784 -0.713203 -58.444904
v -33.850784 5.014584 -58.444904
v 44.221134 -0.713203 -41.567074
v 44.221134 5.014584 -41.567074
v 26.051620 -0.713203 -41.567074
v 26.051620 5.014584 -41.567074
v 44.221134 -0.713203 -50.840839
v 44.221134 5.014584 -50.840839
v 26.051620 -0.713203 -50.840839
v 26.051620 5.014584 -50.840839
v 25.621984 -0.713203 -33.281906
v 25.621984 5.014584 -33.281906
v 10.281895 -0.713203 -33.281906
v 10.281895 5.014584 -33.281906
v 25.621984 -0.713203 -48.388126
v 25.621984 5.014584 -48.388126
v 10.281895 -0.713203 -48.388126
v 10.281895 5.014584 -48.388126
v 2.297934 -0.439679 -33.469101
v 2.297934 4.223713 -33.469101
v 2.297934 -0.439679 -48.854309
v 2.297934 4.223713 -48.854309
v 9.848351 -0.439679 -33.469101
v 9.848351 4.223713 -33.469101
v 9.848351 -0.439679 -48.854309
v 9.848351 4.223713 -48.854309
v 8.834246 -0.439679 -49.171680
v 8.834246 4.223713 -49.171680
v -5.573256 -0.439679 -49.171680
v -5.573256 4.223713 -49.171680
v 8.834246 -0.439679 -56.722103
v 8.834246 4.223713 -56.722103
v -5.573256 -0.439679 -56.722095
v -5.573256 4.223713 -56.722095
v 17.679064 -0.439679 -25.270718
v 17.679064 4.223713 -25.270718
v 17.679064 -0.439679 -33.119850
v 17.679064 4.223713 -33.119850
v 25.229483 -0.439679 -25.270718
v 25.229483 4.223713 -25.270718
v 25.229483 -0.439679 -33.119850
v 25.229483 4.223713 -33.119850
vt 0.375000 0.000000
vt 0.625000 0.000000
vt 0.625000 0.250000
vt 0.375000 0.250000
vt 0.625000 0.500000
vt 0.375000 0.500000
vt 0.625000 0.750000
vt 0.375000 0.750000
vt 0.625000 1.000000
vt 0.375000 1.000000
vt 0.125000 0.500000
vt 0.125000 0.750000
vt 0.875000 0.500000
vt 0.875000 0.750000
vt 0.375000 0.000000
vt 0.625000 0.000000
vt 0.625000 0.250000
vt 0.375000 0.250000
vt 0.625000 0.500000
vt 0.375000 0.500000
vt 0.625000 0.750000
vt 0.375000 0.750000
vt 0.625000 1.000000
vt 0.375000 1.000000
vt 0.125000 0.500000
vt 0.125000 0.750000
vt 0.875000 0.500000
vt 0.875000 0.750000
vt 0.375000 0.125000
vt 0.625000 0.125000
vt 0.625000 0.250000
vt 0.375000 0.250000
vt 0.375000 0.375000
vt 0.625000 0.375000
vt 0.625000 0.500000
vt 0.375000 0.500000
vt 0.375000 0.625000
vt 0.625000 0.625000
vt 0.625000 0.750000
vt 0.375000 0.750000
vt 0.375000 0.875000
vt 0.625000 0.875000
vt 0.625000 1.000000
vt 0.375000 1.000000
vt 0.250000 0.625000
vt 0.250000 0.750000
vt 0.750000 0.625000
vt 0.875000 0.625000
vt 0.875000 0.750000
vt 0.750000 0.750000
vt 0.750000 0.500000
vt 0.875000 0.500000
vt 0.250000 0.500000
vt 0.375000 0.000000
vt 0.625000 0.000000
vt 0.125000 0.500000
vt 0.125000 0.625000
vt 0.125000 0.750000
vt 0.375000 0.000000
vt 0.625000 0.000000
vt 0.625000 0.250000
vt 0.375000 0.250000
vt 0.625000 0.500000
vt 0.375000 0.500000
vt 0.625000 0.750000
vt 0.375000 0.750000
vt 0.625000 1.000000
vt 0.375000 1.000000
vt 0.125000 0.500000
vt 0.125000 0.750000
vt 0.875000 0.500000
vt 0.875000 0.750000
vt 0.375000 0.000000
vt 0.625000 0.000000
vt 0.625000 0.250000
vt 0.375000 0.250000
vt 0.625000 0.500000
vt 0.375000 0.500000
vt 0.625000 0.750000
vt 0.375000 0.750000
vt 0.625000 1.000000
vt 0.375000 1.000000
vt 0.125000 0.500000
vt 0.125000 0.750000
vt 0.875000 0.500000
vt 0.875000 0.750000
vt 0.375000 0.000000
vt 0.625000 0.000000
vt 0.625000 0.250000
vt 0.375000 0.250000
vt 0.625000 0.500000
vt 0.375000 0.500000
vt 0.625000 0.750000
vt 0.375000 0.750000
vt 0.625000 1.000000
vt 0.375000 1.000000
vt 0.125000 0.500000
vt 0.125000 0.750000
vt 0.875000 0.500000
vt 0.875000 0.750000
vt 0.375000 0.000000
vt 0.625000 0.000000
vt 0.625000 0.250000
vt 0.375000 0.250000
vt 0.625000 0.500000
vt 0.375000 0.500000
vt 0.625000 0.750000
vt 0.375000 0.750000
vt 0.625000 1.000000
vt 0.375000 1.000000
vt 0.125000 0.500000
vt 0.125000 0.750000
vt 0.875000 0.500000
vt 0.875000 0.750000
vt 0.375000 0.000000
vt 0.625000 0.000000
vt 0.625000 0.250000
vt 0.375000 0.250000
vt 0.625000 0.500000
vt 0.375000 0.500000
vt 0.625000 0.750000
vt 0.375000 0.750000
vt 0.625000 1.000000
vt 0.375000 1.000000
vt 0.125000 0.500000
vt 0.125000 0.750000
vt 0.875000 0.500000
vt 0.875000 0.750000
vt 0.375000 0.000000
vt 0.625000 0.000000
vt 0.625000 0.250000
vt 0.375000 0.250000
vt 0.625000 0.500000
vt 0.375000 0.500000
vt 0.625000 0.750000
vt 0.375000 0.750000
vt 0.625000 1.000000
vt 0.375000 1.000000
vt 0.125000 0.500000
vt 0.125000 0.750000
vt 0.875000 0.500000
vt 0.875000 0.750000
vt 0.375000 0.000000
vt 0.625000 0.000000
vt 0.625000 0.250000
vt 0.375000 0.250000
vt 0.625000 0.500000
vt 0.375000 0.500000
vt 0.625000 0.750000
vt 0.375000 0.750000
vt 0.625000 1.000000
vt 0.375000 1.000000
vt 0.125000 0.500000
vt 0.125000 0.750000
vt 0.875000 0.500000
vt 0.875000 0.750000
vn -1.0000 0.0000 0.0000
vn 0.0000 0.0000 -1.0000
vn 1.0000 0.0000 0.0000
vn 0.0000 0.0000 1.0000
vn 0.0000 -1.0000 0.0000
vn 0.0000 1.0000 0.0000
vn -0.4132 0.0000 -0.9106
vn 0.7479 0.0000 -0.6638
vn 0.3473 0.0000 0.9377
vn -0.9841 0.0000 -0.1774
vn 0.6287 0.0000 0.7777
vn -0.7925 0.0000 -0.6099
vn -0.2333 0.0000 0.9724
vn 0.0224 0.0000 -0.9997
usemtl None
s off
f 1/1/1 2/2/1 4/3/1 3/4/1
f 3/4/2 4/3/2 8/5/2 7/6/2
f 7/6/3 8/5/3 6/7/3 5/8/3
f 5/8/4 6/7/4 2/9/4 1/10/4
f 3/11/5 7/6/5 5/8/5 1/12/5
f 8/5/6 4/13/6 2/14/6 6/7/6
f 9/15/1 10/16/1 12/17/1 11/18/1
f 11/18/2 12/17/2 16/19/2 15/20/2
f 15/20/3 16/19/3 14/21/3 13/22/3
f 13/22/4 14/21/4 10/23/4 9/24/4
f 11/25/5 15/20/5 13/22/5 9/26/5
f 16/19/6 12/27/6 10/28/6 14/21/6
f 25/29/7 26/30/7 20/31/7 19/32/7
f 29/33/8 30/34/8 24/35/8 23/36/8
f 27/37/9 28/38/9 22/39/9 21/40/9
f 31/41/10 32/42/10 18/43/10 17/44/10
f 34/45/5 27/37/5 21/40/5 31/46/5
f 33/47/6 26/48/6 18/49/6 32/50/6
f 30/51/6 20/52/6 26/48/6 33/47/6
f 29/53/5 23/36/5 27/37/5 34/45/5
f 23/36/11 24/35/11 28/38/11 27/37/11
f 17/54/12 18/55/12 26/30/12 25/29/12
f 19/56/5 29/53/5 34/45/5 25/57/5
f 24/35/6 30/51/6 33/47/6 28/38/6
f 28/38/6 33/47/6 32/50/6 22/39/6
f 25/57/5 34/45/5 31/46/5 17/58/5
f 21/40/13 22/39/13 32/42/13 31/41/13
f 19/32/14 20/31/14 30/34/14 29/33/14
f 35/59/1 36/60/1 38/61/1 37/62/1
f 37/62/2 38/61/2 42/63/2 41/64/2
f 41/64/3 42/63/3 40/65/3 39/66/3
f 39/66/4 40/65/4 36/67/4 35/68/4
f 37/69/5 41/64/5 39/66/5 35/70/5
f 42/63/6 38/71/6 36/72/6 40/65/6
f 43/73/4 44/74/4 46/75/4 45/76/4
f 45/76/1 46/75/1 50/77/1 49/78/1
f 49/78/2 50/77/2 48/79/2 47/80/2
f 47/80/3 48/79/3 44/81/3 43/82/3
f 45/83/5 49/78/5 47/80/5 43/84/5
f 50/77/6 46/85/6 44/86/6 48/79/6
f 51/87/4 52/88/4 54/89/4 53/90/4
f 53/90/1 54/89/1 58/91/1 57/92/1
f 57/92/2 58/91/2 56/93/2 55/94/2
f 55/94/3 56/93/3 52/95/3 51/96/3
f 53/97/5 57/92/5 55/94/5 51/98/5
f 58/91/6 54/99/6 52/100/6 56/93/6
f 59/101/4 60/102/4 62/103/4 61/104/4
f 61/104/1 62/103/1 66/105/1 65/106/1
f 65/106/2 66/105/2 64/107/2 63/108/2
f 63/108/3 64/107/3 60/109/3 59/110/3
f 61/111/5 65/106/5 63/108/5 59/112/5
f 66/105/6 62/113/6 60/114/6 64/107/6
f 67/115/1 68/116/1 70/117/1 69/118/1
f 69/118/2 70/117/2 74/119/2 73/120/2
f 73/120/3 74/119/3 72/121/3 71/122/3
f 71/122/4 72/121/4 68/123/4 67/124/4
f 69/125/5 73/120/5 71/122/5 67/126/5
f 74/119/6 70/127/6 68/128/6 72/121/6
f 75/129/4 76/130/4 78/131/4 77/132/4
f 77/132/1 78/131/1 82/133/1 81/134/1
f 81/134/2 82/133/2 80/135/2 79/136/2
f 79/136/3 80/135/3 76/137/3 75/138/3
f 77/139/5 81/134/5 79/136/5 75/140/5
f 82/133/6 78/141/6 76/142/6 80/135/6
f 83/143/1 84/144/1 86/145/1 85/146/1
f 85/146/2 86/145/2 90/147/2 89/148/2
f 89/148/3 90/147/3 88/149/3 87/150/3
f 87/150/4 88/149/4 84/151/4 83/152/4
f 85/153/5 89/148/5 87/150/5 83/154/5
f 90/147/6 86/155/6 84/156/6 88/149/6
