# Blender v3.2.1 OBJ File: ''
# www.blender.org
mtllib props_texobj1.mtl
v 2.395128 2.000000 -1.335521
v 2.570283 1.300000 -1.474521
v 2.570283 0.400000 -1.474521
v 1.845236 0.400000 -1.812616
v 1.845236 1.300000 -1.812615
v 0.154764 1.200000 1.812616
v 1.507630 2.000000 0.567725
v 1.302428 -0.000000 1.244402
v 1.030536 -0.000000 1.117617
v 1.791248 0.400000 -0.513737
v 2.358974 0.000000 -1.021367
v 2.129343 0.400000 -1.238783
v 1.048857 -0.000000 1.788187
v 2.105403 0.000000 -0.477582
v 0.922072 1.200000 2.060080
v 1.344690 0.400000 1.153772
v 1.006595 0.400000 1.878818
v 2.063141 0.400000 -0.386952
v 2.401235 0.400000 -1.111998
v 1.429214 1.300000 0.972510
v 0.830953 2.000000 0.362523
v 1.126297 2.000000 -1.927186
v 1.029559 1.300000 -2.192972
v 1.029559 0.400000 -2.192972
v 1.760713 2.000000 -1.631354
v -0.111510 1.300000 0.254059
v -0.618652 1.200000 1.341629
v 0.238799 2.000000 -0.023940
v 0.661905 1.300000 0.725047
v -0.262236 0.400000 1.287153
v -0.491866 -0.000000 1.069736
v -0.219974 -0.000000 1.196522
v -0.238295 -0.000000 0.525951
v 0.564679 0.000000 -1.196033
v 1.090142 0.000000 -1.613033
v 0.818250 0.000000 -1.739818
v 1.132404 0.400000 -1.703663
v -0.534128 0.400000 1.160367
v -0.196033 0.400000 0.435321
v -0.618652 0.500000 1.341629
v 0.522418 0.400000 -1.105403
v 0.860512 0.400000 -1.830449
v 0.154764 0.500000 1.812616
v 0.734703 0.400000 1.752033
v 0.922072 0.500000 2.060079
v 0.033597 -0.000000 0.652737
v 0.075859 0.400000 0.562106
v 0.794310 0.400000 -0.978617
v 0.836572 0.000000 -1.069248
v 0.776965 -0.000000 1.661402
v 1.072798 0.400000 1.026986
v 2.087081 0.000000 -1.148153
v 1.833510 0.000000 -0.604368
v 14.800000 1.999998 11.000000
v 15.000000 -0.000002 11.000000
v 15.000000 1.999998 11.000000
v 14.800000 1.999999 7.000000
v 14.800000 -0.000002 11.000000
v 14.800000 -0.000001 7.000000
v 15.000000 1.999999 7.000000
v 15.000000 -0.000001 7.000000
v 14.800000 1.999999 7.000000
v 15.000000 -0.000001 7.000000
v 15.000000 1.999999 7.000000
v 14.800000 2.000000 3.000000
v 14.800000 -0.000001 7.000000
v 14.800000 -0.000000 3.000000
v 15.000000 2.000000 3.000000
v 15.000000 -0.000000 3.000000
v 14.800000 2.000000 3.000000
v 15.000000 -0.000000 3.000000
v 15.000000 2.000000 3.000000
v 14.800000 2.000000 -1.000000
v 14.800000 -0.000000 3.000000
v 14.800000 0.000000 -1.000000
v 15.000000 2.000000 -1.000000
v 15.000000 0.000000 -1.000000
v 11.500000 1.999997 19.000000
v 11.700000 -0.000003 19.000000
v 11.700000 1.999997 19.000000
v 11.500000 1.999997 15.000000
v 11.500000 -0.000003 19.000000
v 11.500000 -0.000002 15.000000
v 11.700000 1.999997 15.000000
v 11.700000 -0.000002 15.000000
v -2.500000 0.999999 8.500000
v -2.500000 0.999998 9.500000
v -1.500000 0.999998 9.500000
v -1.500000 0.999999 8.500000
v -2.500000 -0.000002 9.500000
v -1.500000 -0.000002 9.500000
v -1.500000 -0.000001 8.500000
v -2.500000 -0.000001 8.500000
v -2.305580 0.999999 8.479228
v -1.494420 0.999999 7.320772
v -1.320772 0.999999 8.305580
v -1.320772 -0.000001 8.305580
v -2.479228 0.999999 7.494421
v -1.494420 -0.000001 7.320772
v -2.479228 -0.000001 7.494421
v -2.305580 -0.000001 8.479228
v 11.000000 0.099998 11.900000
v 10.900001 1.199998 11.599999
v 10.900001 0.099998 11.599999
v 10.600000 0.099998 11.500000
v 10.200001 1.199998 11.900000
v 10.300000 1.199998 11.599999
v 10.300000 0.099998 11.599999
v 10.300000 1.199998 12.200000
v 10.200001 0.099998 11.900000
v 10.300000 0.099998 12.200000
v 10.600000 0.099998 12.299999
v 10.900001 0.099998 12.200000
v 10.600000 1.199998 12.299999
v 10.600000 1.199998 11.500000
v 10.900001 1.199998 12.200000
v 11.000000 1.199998 11.900000
v 0.700000 1.099999 5.800000
v 0.600000 -0.000001 6.100000
v 0.700000 -0.000001 5.800000
v 0.300000 1.099999 6.200000
v 0.600000 1.099999 6.100000
v 0.000000 1.099999 6.100000
v 0.000000 -0.000001 6.100000
v 0.000000 -0.000001 5.500000
v -0.100000 1.099999 5.800000
v 0.000000 1.099999 5.500000
v 0.300000 1.099999 5.400000
v 0.600000 1.099999 5.500000
v 0.600000 -0.000001 5.500000
v 0.300000 -0.000001 6.200000
v -0.100000 -0.000001 5.800000
v 0.300000 -0.000001 5.400000
v 0.658130 0.099999 7.931056
v 0.281908 0.099999 6.897394
v 0.375877 0.399999 6.863192
v 0.752099 0.399999 7.896854
v 0.376222 -0.000001 8.033662
v 0.000000 -0.000001 7.000000
v 0.094314 0.099999 8.136268
v 0.000345 0.399999 8.170470
v 0.094314 0.699999 8.136268
v 0.376222 0.799999 8.033662
v 0.658130 0.699999 7.931056
v 0.281908 0.699999 6.897394
v -0.281908 0.099999 7.102606
v -0.375877 0.399999 7.136808
v -0.281908 0.699999 7.102606
v 0.000000 0.799999 7.000000
v -8.731675 0.999998 10.554520
v -7.735480 0.999998 10.641676
v -8.731675 -0.000002 10.554520
v -7.735480 -0.000002 10.641676
v -7.648324 -0.000002 9.645481
v -7.648324 0.999998 9.645481
v -8.644519 0.999998 9.558325
v -8.644519 -0.000002 9.558325
vt 0.200000 0.500000
vt 0.200000 0.450000
vt 0.400000 0.450000
vt 0.400000 0.500000
vt 0.385000 0.290000
vt 0.420000 0.290000
vt 0.420000 0.380000
vt 0.495000 0.380000
vt 0.495000 0.290000
vt 0.420000 0.290000
vt 0.420000 0.385000
vt 0.165000 0.385000
vt 0.195000 0.450000
vt 0.490000 0.455000
vt 0.420000 0.455000
vt 0.005000 0.390000
vt 0.005000 0.265000
vt 0.040000 0.265000
vt 0.040000 0.390000
vt 0.080000 0.405000
vt 0.005000 0.405000
vt 0.005000 0.495000
vt 0.080000 0.495000
vt 0.165000 0.495000
vt 0.165000 0.405000
vt 0.095000 0.405000
vt 0.095000 0.495000
vt 0.455000 0.465000
vt 0.490000 0.465000
vt 0.490000 0.495000
vt 0.455000 0.495000
vt 0.490000 0.495000
vt 0.420000 0.495000
vt 0.420000 0.465000
vt 0.490000 0.465000
vt 0.420000 0.465000
vt 0.455000 0.465000
vt 0.455000 0.495000
vt 0.420000 0.495000
vt 0.455000 0.465000
vt 0.490000 0.465000
vt 0.490000 0.495000
vt 0.455000 0.495000
vt 0.490000 0.495000
vt 0.420000 0.495000
vt 0.420000 0.465000
vt 0.490000 0.465000
vt 0.420000 0.465000
vt 0.455000 0.465000
vt 0.455000 0.495000
vt 0.420000 0.495000
vt 0.125000 0.255000
vt 0.140000 0.290000
vt 0.060000 0.290000
vt 0.075000 0.255000
vt 0.370000 0.255000
vt 0.305000 0.290000
vt 0.320000 0.255000
vt 0.050000 0.375000
vt 0.045000 0.305000
vt 0.400000 0.450000
vt 0.200000 0.450000
vt 0.385000 0.290000
vt 0.420000 0.380000
vt 0.420000 0.290000
vt 0.495000 0.380000
vt 0.495000 0.290000
vt 0.165000 0.385000
vt 0.195000 0.450000
vt 0.490000 0.455000
vt 0.005000 0.390000
vt 0.005000 0.265000
vt 0.080000 0.495000
vt 0.005000 0.495000
vt 0.165000 0.495000
vt 0.095000 0.495000
vt 0.455000 0.465000
vt 0.455000 0.495000
vt 0.490000 0.495000
vt 0.490000 0.465000
vt 0.490000 0.495000
vt 0.490000 0.465000
vt 0.420000 0.465000
vt 0.420000 0.495000
vt 0.420000 0.465000
vt 0.420000 0.495000
vt 0.455000 0.495000
vt 0.455000 0.465000
vt 0.455000 0.465000
vt 0.455000 0.495000
vt 0.490000 0.495000
vt 0.490000 0.465000
vt 0.490000 0.495000
vt 0.490000 0.465000
vt 0.420000 0.465000
vt 0.420000 0.495000
vt 0.420000 0.465000
vt 0.420000 0.495000
vt 0.455000 0.495000
vt 0.455000 0.465000
vt 0.125000 0.255000
vt 0.075000 0.255000
vt 0.060000 0.290000
vt 0.140000 0.290000
vt 0.370000 0.255000
vt 0.320000 0.255000
vt 0.305000 0.290000
vt 0.050000 0.375000
vt 0.045000 0.305000
vt 0.300000 0.285000
vt 0.275000 0.285000
vt 0.300000 0.260000
vt 0.220000 0.255000
vt 0.170000 0.285000
vt 0.145000 0.285000
vt 0.145000 0.260000
vt 0.125000 0.255000
vt 0.140000 0.290000
vt 0.060000 0.290000
vt 0.075000 0.255000
vt 0.370000 0.255000
vt 0.385000 0.290000
vt 0.305000 0.290000
vt 0.320000 0.255000
vt 0.125000 0.255000
vt 0.075000 0.255000
vt 0.060000 0.290000
vt 0.140000 0.290000
vt 0.370000 0.255000
vt 0.320000 0.255000
vt 0.305000 0.290000
vt 0.385000 0.290000
vt 0.545000 0.940000
vt 0.570000 0.940000
vt 0.570000 0.750000
vt 0.545000 0.750000
vt 0.545000 0.750000
vt 0.545000 0.940000
vt 0.570000 0.940000
vt 0.570000 0.750000
vt 0.500000 0.750000
vt 0.500000 0.940000
vt 0.750000 0.940000
vt 0.750000 0.750000
vt 0.545000 0.750000
vt 0.545000 0.940000
vt 0.570000 0.940000
vt 0.570000 0.750000
vt 0.545000 0.940000
vt 0.570000 0.940000
vt 0.570000 0.750000
vt 0.545000 0.750000
vt 0.545000 0.750000
vt 0.545000 0.940000
vt 0.570000 0.940000
vt 0.570000 0.750000
vt 0.500000 0.750000
vt 0.500000 0.940000
vt 0.750000 0.940000
vt 0.750000 0.750000
vt 0.545000 0.750000
vt 0.545000 0.940000
vt 0.570000 0.940000
vt 0.570000 0.750000
vt 0.545000 0.940000
vt 0.570000 0.940000
vt 0.570000 0.750000
vt 0.545000 0.750000
vt 0.545000 0.750000
vt 0.545000 0.940000
vt 0.570000 0.940000
vt 0.570000 0.750000
vt 0.500000 0.750000
vt 0.500000 0.940000
vt 0.750000 0.940000
vt 0.750000 0.750000
vt 0.545000 0.750000
vt 0.545000 0.940000
vt 0.570000 0.940000
vt 0.570000 0.750000
vt 0.545000 0.940000
vt 0.570000 0.940000
vt 0.570000 0.750000
vt 0.545000 0.750000
vt 0.545000 0.750000
vt 0.545000 0.940000
vt 0.570000 0.940000
vt 0.570000 0.750000
vt 0.500000 0.750000
vt 0.500000 0.940000
vt 0.750000 0.940000
vt 0.750000 0.750000
vt 0.545000 0.750000
vt 0.545000 0.940000
vt 0.570000 0.940000
vt 0.570000 0.750000
vt 0.810000 0.435000
vt 0.625000 0.435000
vt 0.625000 0.250000
vt 0.810000 0.250000
vt 0.810000 0.435000
vt 0.625000 0.435000
vt 0.625000 0.250000
vt 0.810000 0.250000
vt 0.625000 0.435000
vt 0.625000 0.250000
vt 0.810000 0.250000
vt 0.810000 0.435000
vt 0.625000 0.435000
vt 0.625000 0.250000
vt 0.810000 0.250000
vt 0.810000 0.435000
vt 0.625000 0.250000
vt 0.810000 0.250000
vt 0.810000 0.435000
vt 0.625000 0.435000
vt 0.625000 0.250000
vt 0.810000 0.250000
vt 0.810000 0.435000
vt 0.625000 0.435000
vt 0.625000 0.250000
vt 0.810000 0.250000
vt 0.625000 0.435000
vt 0.625000 0.250000
vt 0.810000 0.250000
vt 0.810000 0.435000
vt 0.625000 0.435000
vt 0.625000 0.250000
vt 0.810000 0.250000
vt 0.810000 0.435000
vt 0.625000 0.250000
vt 0.810000 0.250000
vt 0.220000 0.000000
vt 0.250000 0.000000
vt 0.250000 0.125000
vt 0.220000 0.125000
vt 0.125000 0.000000
vt 0.155000 0.000000
vt 0.155000 0.125000
vt 0.125000 0.125000
vt 0.190000 0.000000
vt 0.190000 0.125000
vt 0.220000 0.000000
vt 0.220000 0.125000
vt 0.250000 0.000000
vt 0.250000 0.125000
vt 0.125000 0.000000
vt 0.155000 0.000000
vt 0.155000 0.125000
vt 0.125000 0.125000
vt 0.190000 0.000000
vt 0.190000 0.125000
vt 0.250000 0.185000
vt 0.230000 0.230000
vt 0.190000 0.250000
vt 0.145000 0.230000
vt 0.125000 0.185000
vt 0.145000 0.145000
vt 0.190000 0.125000
vt 0.230000 0.145000
vt 0.095000 0.000000
vt 0.125000 0.000000
vt 0.125000 0.125000
vt 0.095000 0.125000
vt 0.000000 0.000000
vt 0.030000 0.000000
vt 0.030000 0.125000
vt 0.000000 0.125000
vt 0.065000 0.000000
vt 0.065000 0.125000
vt 0.095000 0.000000
vt 0.095000 0.125000
vt 0.125000 0.000000
vt 0.125000 0.125000
vt 0.000000 0.000000
vt 0.030000 0.000000
vt 0.030000 0.125000
vt 0.000000 0.125000
vt 0.065000 0.000000
vt 0.065000 0.125000
vt 0.125000 0.185000
vt 0.105000 0.230000
vt 0.065000 0.250000
vt 0.020000 0.230000
vt 0.000000 0.185000
vt 0.020000 0.145000
vt 0.065000 0.125000
vt 0.105000 0.145000
vt 0.095000 0.000000
vt 0.125000 0.000000
vt 0.125000 0.125000
vt 0.095000 0.125000
vt 0.000000 0.000000
vt 0.030000 0.000000
vt 0.030000 0.125000
vt 0.000000 0.125000
vt 0.065000 0.000000
vt 0.065000 0.125000
vt 0.095000 0.000000
vt 0.095000 0.125000
vt 0.125000 0.000000
vt 0.125000 0.125000
vt 0.000000 0.000000
vt 0.030000 0.000000
vt 0.030000 0.125000
vt 0.000000 0.125000
vt 0.065000 0.000000
vt 0.065000 0.125000
vt 0.125000 0.185000
vt 0.105000 0.230000
vt 0.065000 0.250000
vt 0.020000 0.230000
vt 0.000000 0.185000
vt 0.020000 0.145000
vt 0.065000 0.125000
vt 0.105000 0.145000
vt 0.810000 0.435000
vt 0.625000 0.435000
vt 0.625000 0.250000
vt 0.810000 0.250000
vt 0.810000 0.435000
vt 0.625000 0.435000
vt 0.625000 0.250000
vt 0.810000 0.250000
vt 0.625000 0.435000
vt 0.625000 0.250000
vt 0.810000 0.250000
vt 0.810000 0.435000
vt 0.625000 0.435000
vt 0.625000 0.250000
vt 0.810000 0.250000
vt 0.810000 0.435000
vt 0.625000 0.250000
vt 0.810000 0.250000
vn 0.0000 1.0000 0.0000
vn 0.9063 -0.0000 0.4226
vn 0.4226 0.0000 -0.9063
vn 0.8972 0.1414 0.4184
vn 0.4064 0.2747 -0.8714
vn -0.0257 0.9965 0.0796
vn -0.3069 -0.0000 0.9517
vn -0.2526 0.4924 0.8329
vn -0.2650 0.5048 0.8216
vn -0.4100 -0.2425 0.8792
vn -0.0000 -1.0000 -0.0000
vn 0.4100 -0.2425 -0.8792
vn -0.9063 0.0000 -0.4226
vn -0.8714 0.2747 -0.4064
vn -0.0435 0.9965 0.0714
vn -0.5201 -0.0000 0.8541
vn -0.4461 0.5142 0.7325
vn -0.4757 0.4924 0.7289
vn -0.1890 -0.8944 0.4053
vn -0.2059 -0.9183 0.3382
vn -0.1336 -0.9487 0.2866
vn -0.1199 -0.9206 0.3718
vn 0.0000 0.0000 1.0000
vn -1.0000 0.0000 0.0000
vn 0.0000 0.0000 -1.0000
vn 1.0000 0.0000 0.0000
vn 0.1736 0.0000 0.9848
vn 0.9848 0.0000 -0.1736
vn -0.1736 0.0000 -0.9848
vn -0.9848 0.0000 0.1736
vn 0.9487 0.0000 -0.3162
vn 0.3162 0.0000 -0.9487
vn -0.3162 0.0000 -0.9487
vn -0.9487 0.0000 -0.3162
vn -0.9487 0.0000 0.3162
vn -0.3162 0.0000 0.9487
vn 0.3162 0.0000 0.9487
vn 0.9487 0.0000 0.3162
vn 0.8915 -0.3162 -0.3245
vn 0.2972 -0.9487 -0.1082
vn -0.2972 -0.9487 0.1082
vn -0.8915 -0.3162 0.3245
vn -0.8915 0.3162 0.3245
vn -0.2972 0.9487 0.1082
vn 0.2972 0.9487 -0.1082
vn 0.8915 0.3162 -0.3245
vn -0.3420 -0.0000 -0.9397
vn -0.0872 0.0000 0.9962
vn 0.9962 0.0000 0.0872
vn 0.0872 0.0000 -0.9962
vn -0.9962 0.0000 -0.0872
usemtl texobj1.png
s off
f 21/1/1 7/2/1 1/3/1
f 1/3/1 25/4/1 21/1/1
f 19/5/2 3/6/2 2/7/2
f 2/8/3 3/9/3 4/10/3
f 4/10/3 5/11/3 2/8/3
f 20/12/4 2/7/4 1/3/4
f 1/3/4 7/13/4 20/12/4
f 1/14/5 2/8/5 5/11/5
f 5/11/5 25/15/5 1/14/5
f 15/16/6 20/17/6 29/18/6
f 29/18/6 6/19/6 15/16/6
f 6/20/7 43/21/7 45/22/7
f 45/22/7 15/23/7 6/20/7
f 7/24/8 21/25/8 29/26/8
f 29/26/9 20/27/9 7/24/9
f 44/28/10 50/29/10 13/30/10
f 13/30/10 17/31/10 44/28/10
f 8/32/11 13/33/11 50/34/11
f 50/34/11 9/35/11 8/32/11
f 9/36/12 51/37/12 16/38/12
f 16/38/12 8/39/12 9/36/12
f 10/40/10 53/41/10 14/42/10
f 14/42/10 18/43/10 10/40/10
f 11/44/11 14/45/11 53/46/11
f 53/46/11 52/47/11 11/44/11
f 52/48/12 12/49/12 19/50/12
f 19/50/12 11/51/12 52/48/12
f 8/52/2 16/53/2 17/54/2
f 17/54/2 13/55/2 8/52/2
f 11/56/2 19/5/2 18/57/2
f 18/57/2 14/58/2 11/56/2
f 16/53/2 20/12/2 15/59/2
f 15/59/2 17/54/2 16/53/2
f 15/59/2 45/60/2 17/54/2
f 18/57/2 19/5/2 2/7/2
f 2/7/2 20/12/2 18/57/2
f 20/12/2 16/53/2 18/57/2
f 21/1/1 25/4/1 22/61/1
f 22/61/1 28/62/1 21/1/1
f 42/63/13 23/64/13 24/65/13
f 23/66/3 5/11/3 4/10/3
f 4/10/3 24/67/3 23/66/3
f 26/68/14 28/69/14 22/61/14
f 22/61/14 23/64/14 26/68/14
f 22/70/5 25/15/5 5/11/5
f 5/11/5 23/66/5 22/70/5
f 27/71/15 6/19/15 29/18/15
f 29/18/15 26/72/15 27/71/15
f 6/20/16 27/73/16 40/74/16
f 40/74/16 43/21/16 6/20/16
f 28/75/17 26/76/17 29/26/17
f 29/26/18 21/25/18 28/75/18
f 30/77/10 38/78/10 31/79/10
f 31/79/10 32/80/10 30/77/10
f 33/81/11 46/82/11 32/83/11
f 32/83/11 31/84/11 33/81/11
f 46/85/12 33/86/12 39/87/12
f 39/87/12 47/88/12 46/85/12
f 48/89/10 41/90/10 34/91/10
f 34/91/10 49/92/10 48/89/10
f 36/93/11 35/94/11 49/95/11
f 49/95/11 34/96/11 36/93/11
f 35/97/12 36/98/12 42/99/12
f 42/99/12 37/100/12 35/97/12
f 33/101/13 31/102/13 38/103/13
f 38/103/13 39/104/13 33/101/13
f 36/105/13 34/106/13 41/107/13
f 41/107/13 42/63/13 36/105/13
f 39/104/13 38/103/13 27/108/13
f 27/108/13 26/68/13 39/104/13
f 27/108/13 38/103/13 40/109/13
f 41/107/13 26/68/13 23/64/13
f 23/64/13 42/63/13 41/107/13
f 26/68/13 41/107/13 39/104/13
f 38/110/19 30/111/19 40/112/19
f 40/112/20 30/111/20 43/113/20
f 30/111/21 44/114/21 43/113/21
f 44/114/19 17/115/19 45/116/19
f 44/114/22 45/116/22 43/113/22
f 46/117/2 47/118/2 30/119/2
f 30/119/2 32/120/2 46/117/2
f 35/121/2 37/122/2 48/123/2
f 48/123/2 49/124/2 35/121/2
f 9/125/13 50/126/13 44/127/13
f 44/127/13 51/128/13 9/125/13
f 52/129/13 53/130/13 10/131/13
f 10/131/13 12/132/13 52/129/13
f 60/133/1 57/134/1 54/135/1
f 54/135/1 56/136/1 60/133/1
f 55/137/23 56/138/23 54/139/23
f 54/139/23 58/140/23 55/137/23
f 58/141/24 54/142/24 57/143/24
f 57/143/24 59/144/24 58/141/24
f 59/145/25 57/146/25 60/147/25
f 60/147/25 61/148/25 59/145/25
f 68/149/1 65/150/1 62/151/1
f 62/151/1 64/152/1 68/149/1
f 63/153/23 64/154/23 62/155/23
f 62/155/23 66/156/23 63/153/23
f 66/157/24 62/158/24 65/159/24
f 65/159/24 67/160/24 66/157/24
f 67/161/25 65/162/25 68/163/25
f 68/163/25 69/164/25 67/161/25
f 76/165/1 73/166/1 70/167/1
f 70/167/1 72/168/1 76/165/1
f 71/169/23 72/170/23 70/171/23
f 70/171/23 74/172/23 71/169/23
f 74/173/24 70/174/24 73/175/24
f 73/175/24 75/176/24 74/173/24
f 75/177/25 73/178/25 76/179/25
f 76/179/25 77/180/25 75/177/25
f 84/181/1 81/182/1 78/183/1
f 78/183/1 80/184/1 84/181/1
f 79/185/23 80/186/23 78/187/23
f 78/187/23 82/188/23 79/185/23
f 82/189/24 78/190/24 81/191/24
f 81/191/24 83/192/24 82/189/24
f 83/193/25 81/194/25 84/195/25
f 84/195/25 85/196/25 83/193/25
f 89/197/1 86/198/1 87/199/1
f 87/199/1 88/200/1 89/197/1
f 88/201/23 87/202/23 90/203/23
f 90/203/23 91/204/23 88/201/23
f 89/197/26 88/205/26 91/206/26
f 91/206/26 92/207/26 89/197/26
f 86/208/25 89/209/25 92/210/25
f 92/210/25 93/211/25 86/208/25
f 87/212/24 86/198/24 93/213/24
f 93/213/24 90/214/24 87/212/24
f 95/215/1 98/216/1 94/217/1
f 94/217/1 96/218/1 95/215/1
f 96/219/27 94/220/27 101/221/27
f 101/221/27 97/222/27 96/219/27
f 95/215/28 96/223/28 97/224/28
f 97/224/28 99/225/28 95/215/28
f 98/226/29 95/227/29 99/228/29
f 99/228/29 100/229/29 98/226/29
f 94/230/30 98/216/30 100/231/30
f 100/231/30 101/232/30 94/230/30
f 102/233/31 104/234/31 103/235/31
f 103/235/31 117/236/31 102/233/31
f 104/237/32 105/238/32 115/239/32
f 115/239/32 103/240/32 104/237/32
f 105/238/33 108/241/33 107/242/33
f 107/242/33 115/239/33 105/238/33
f 108/241/34 110/243/34 106/244/34
f 106/244/34 107/242/34 108/241/34
f 110/243/35 111/245/35 109/246/35
f 109/246/35 106/244/35 110/243/35
f 111/247/36 112/248/36 114/249/36
f 114/249/36 109/250/36 111/247/36
f 112/248/37 113/251/37 116/252/37
f 116/252/37 114/249/37 112/248/37
f 113/251/38 102/233/38 117/236/38
f 117/236/38 116/252/38 113/251/38
f 117/253/1 103/254/1 115/255/1
f 115/255/1 107/256/1 106/257/1
f 106/257/1 109/258/1 114/259/1
f 115/255/1 106/257/1 114/259/1
f 117/253/1 115/255/1 114/259/1
f 116/260/1 117/253/1 114/259/1
f 118/261/38 122/262/38 119/263/38
f 119/263/38 120/264/38 118/261/38
f 122/265/37 121/266/37 131/267/37
f 131/267/37 119/268/37 122/265/37
f 121/266/36 123/269/36 124/270/36
f 124/270/36 131/267/36 121/266/36
f 123/269/35 126/271/35 132/272/35
f 132/272/35 124/270/35 123/269/35
f 126/271/34 127/273/34 125/274/34
f 125/274/34 132/272/34 126/271/34
f 127/275/33 128/276/33 133/277/33
f 133/277/33 125/278/33 127/275/33
f 128/276/32 129/279/32 130/280/32
f 130/280/32 133/277/32 128/276/32
f 129/279/31 118/261/31 120/264/31
f 120/264/31 130/280/31 129/279/31
f 120/281/11 119/282/11 131/283/11
f 131/283/11 124/284/11 132/285/11
f 132/285/11 125/286/11 133/287/11
f 131/283/11 132/285/11 133/287/11
f 120/281/11 131/283/11 133/287/11
f 130/288/11 120/281/11 133/287/11
f 137/289/39 134/290/39 135/291/39
f 135/291/39 136/292/39 137/289/39
f 134/293/40 138/294/40 139/295/40
f 139/295/40 135/296/40 134/293/40
f 138/294/41 140/297/41 146/298/41
f 146/298/41 139/295/41 138/294/41
f 140/297/42 141/299/42 147/300/42
f 147/300/42 146/298/42 140/297/42
f 141/299/43 142/301/43 148/302/43
f 148/302/43 147/300/43 141/299/43
f 142/303/44 143/304/44 149/305/44
f 149/305/44 148/306/44 142/303/44
f 143/304/45 144/307/45 145/308/45
f 145/308/45 149/305/45 143/304/45
f 144/307/46 137/289/46 136/292/46
f 136/292/46 145/308/46 144/307/46
f 136/309/47 135/310/47 139/311/47
f 139/311/47 146/312/47 147/313/47
f 147/313/47 148/314/47 149/315/47
f 139/311/47 147/313/47 149/315/47
f 136/309/47 139/311/47 149/315/47
f 145/316/47 136/309/47 149/315/47
f 155/317/1 156/318/1 150/319/1
f 150/319/1 151/320/1 155/317/1
f 151/321/48 150/322/48 152/323/48
f 152/323/48 153/324/48 151/321/48
f 155/317/49 151/325/49 153/326/49
f 153/326/49 154/327/49 155/317/49
f 156/328/50 155/329/50 154/330/50
f 154/330/50 157/331/50 156/328/50
f 150/332/51 156/318/51 157/333/51
f 157/333/51 152/334/51 150/332/51
