# Blender v3.2.1 OBJ File: ''
# www.blender.org
mtllib props_texw1.mtl
v 29.799999 3.500009 -52.699997
v 29.799999 3.500008 -50.300003
v 29.799999 5.800009 -52.699997
v 29.799999 5.800008 -50.300003
v 29.799999 5.800008 -46.299999
v 29.799999 3.500008 -46.299999
v 29.799999 3.500008 -48.699997
v 29.799999 5.800007 -40.700001
v 29.799999 3.500007 -40.700001
v 29.799999 3.500007 -44.700001
v 29.599998 5.800007 -44.700001
v 29.599998 3.500007 -42.299999
v 29.799999 3.500007 -42.299999
v 29.799999 5.800007 -44.700001
v 29.799999 5.800007 -42.299999
v 45.599998 6.000009 -54.500000
v 29.799999 0.000007 -44.000000
v 29.799999 5.800008 -48.699997
v 29.799999 5.800006 -38.299999
v 29.799999 3.500006 -38.299999
v 29.799999 2.400007 -44.000000
v 45.599998 6.000006 -36.500000
v 29.599998 0.200006 -36.500000
v 29.599998 2.400008 -47.000000
v 29.599998 6.000009 -54.500000
v 29.599998 0.200009 -54.500000
v 29.599998 3.500007 -40.700001
v 29.599998 5.800006 -38.299999
v 29.599998 3.500006 -38.299999
v 29.599998 3.500009 -52.699997
v 29.599998 0.200008 -47.800003
v 29.599998 3.500008 -50.300003
v 29.599998 0.000008 -47.800003
v 29.599998 0.000008 -47.000000
v 29.599998 3.500008 -48.699997
v 29.599998 2.400007 -44.000000
v 29.599998 5.800009 -52.699997
v 29.599998 5.800008 -50.300003
v 29.599998 5.800008 -48.699997
v 29.599998 5.800008 -46.299999
v 29.599998 3.500007 -44.700001
v 29.599998 6.000006 -36.500000
v 29.599998 5.800007 -42.299999
v 29.599998 5.800007 -40.700001
v 29.599998 0.000007 -44.000000
v 29.599998 0.000007 -43.200001
v 29.599998 0.200007 -43.200001
v 29.599998 3.500008 -46.299999
v 45.599998 0.200009 -54.500000
v 45.599998 0.200006 -36.500000
v 11.799999 5.800000 3.000001
v 11.799999 5.800000 3.200000
v 14.200000 5.800000 3.000001
v 14.200000 5.800000 3.200000
v 7.800000 5.800000 3.200001
v -0.200001 3.500000 3.200001
v -0.200001 5.800000 3.200001
v 2.199999 3.500000 3.000001
v 2.199999 3.500000 3.200001
v 2.199999 5.800000 3.200001
v 6.199999 5.800000 3.000001
v 6.199999 3.500000 3.200000
v 3.799999 3.500000 3.200000
v 6.199999 5.800000 3.200001
v 3.799999 5.800000 3.200001
v 3.799999 5.800000 3.000001
v 16.000000 5.999997 19.000002
v 5.500000 2.400000 3.000000
v 8.500000 2.400000 3.000000
v 9.299999 -0.000000 3.000000
v 9.299999 0.200000 3.000000
v 14.200000 3.500000 3.200000
v 11.799999 3.500000 3.200000
v 7.800000 3.500000 3.200000
v 10.200000 5.800000 3.200001
v 10.200000 3.500000 3.200000
v 16.000000 0.199997 19.000000
v -2.000000 5.999997 19.000002
v 16.000000 6.000000 3.000000
v -0.200001 3.500000 3.000001
v 14.200000 3.500000 3.000000
v 8.500000 -0.000000 3.000000
v 3.799999 3.500000 3.000000
v -0.200001 5.800000 3.000001
v 11.799999 3.500000 3.000000
v 10.200000 3.500000 3.000000
v 10.200000 5.800000 3.000001
v 7.800000 5.800000 3.000001
v 6.199999 3.500000 3.000000
v -2.000000 6.000000 3.000001
v 2.199999 5.800000 3.000001
v 4.700000 0.200000 3.000000
v 5.500000 -0.000000 3.000000
v 4.700000 -0.000000 3.000000
v 7.800000 3.500000 3.000000
v 16.000000 0.200000 2.999999
v -2.000000 0.200000 3.000000
v -2.000000 0.199997 19.000000
v 22.400000 0.199999 8.299999
v 39.599998 -0.000004 8.300000
v 22.400000 -0.000001 8.299999
v 23.599998 -0.000001 16.000000
v 23.599998 0.199999 16.000000
v 22.400000 0.199999 16.000000
v 22.400000 -0.000001 16.000000
v 22.599998 0.199999 8.500000
v 39.599998 0.199996 8.300000
v 23.599998 0.199999 15.799999
v 39.599998 0.199996 8.499999
v 22.599998 0.199999 15.799999
vt 0.000000 0.882412
vt 0.235176 0.882412
vt 0.235176 0.882412
vt 0.000000 0.882412
vt 0.235176 0.882412
vt 0.000000 0.882412
vt 0.000000 0.882412
vt 0.235176 0.882412
vt 0.235176 0.882412
vt 0.039196 0.882412
vt 0.039196 0.882412
vt 0.235176 0.882412
vt 0.235176 0.882412
vt 0.000000 0.882412
vt 0.000000 0.882412
vt 0.235176 0.882412
vt 0.235176 0.882412
vt 0.039196 0.882412
vt 0.039196 0.882412
vt 0.235176 0.882412
vt 0.000000 0.882412
vt 0.235176 0.882412
vt 0.235176 0.882412
vt 0.000000 0.882412
vt 0.039196 0.882412
vt 0.235176 0.882412
vt 0.000000 0.882412
vt 0.000000 0.882412
vt 0.235176 0.882412
vt 0.235176 0.882412
vt 0.039196 0.882412
vt 0.039196 0.882412
vt 0.235176 0.882412
vt 0.000000 0.882412
vt 0.235176 0.882412
vt 0.235176 0.882412
vt 0.000000 0.882412
vt 0.000000 0.882412
vt 0.235176 0.882412
vt 0.235176 0.882412
vt 0.000000 0.882412
vt 0.039196 0.882412
vt 0.235176 0.882412
vt 0.235176 0.882412
vt 0.039196 0.882412
vt 0.000000 0.882412
vt 0.000000 0.882412
vt 0.235176 0.882412
vt 0.039196 0.882412
vt 0.039196 0.882412
vt 0.235176 0.882412
vt 0.000000 0.960804
vt 0.235176 0.960804
vt 0.235176 0.960804
vt 9.994980 0.098492
vt 0.078392 0.098492
vt 0.078392 3.273368
vt 9.994980 3.273368
vt 9.994980 3.273368
vt 0.078392 3.273368
vt 0.078392 0.020100
vt 9.994980 0.020100
vt 5.840204 1.313568
vt 5.448244 1.940704
vt 4.585932 1.940704
vt 4.193972 1.313568
vt 1.058292 1.940704
vt 1.058292 3.234172
vt 0.039196 3.351760
vt 0.039196 0.098492
vt 7.682416 1.940704
vt 6.310556 0.098492
vt 9.994980 0.098492
vt 9.015079 1.940704
vt 9.994980 3.312564
vt 9.015079 3.194976
vt 2.351760 1.940704
vt 3.762816 0.098492
vt 3.762816 -0.019096
vt 4.193972 -0.019096
vt 3.253268 1.940704
vt 6.780908 1.940704
vt 7.682416 3.194976
vt 0.039196 3.312564
vt 1.058292 3.194976
vt 2.351760 3.194976
vt 3.253268 3.194976
vt 4.585932 3.194976
vt 5.448244 3.194976
vt 6.780908 3.194976
vt 5.840204 -0.019096
vt 6.271360 -0.019096
vt 0.000000 0.882412
vt 0.235176 0.882412
vt 0.235176 0.882412
vt 0.000000 0.882412
vt 0.039196 0.882412
vt 0.235176 0.882412
vt 0.235176 0.882412
vt 0.039196 0.882412
vt 0.000000 0.882412
vt 0.000000 0.882412
vt 0.235176 0.882412
vt 0.039196 0.882412
vt 0.039196 0.882412
vt 0.235176 0.882412
vt 0.235176 0.882412
vt 0.000000 0.882412
vt 0.000000 0.882412
vt 0.235176 0.882412
vt 0.235176 0.882412
vt 0.039196 0.882412
vt 0.039196 0.882412
vt 0.235176 0.882412
vt 0.000000 0.882412
vt 0.235176 0.882412
vt 0.235176 0.882412
vt 0.000000 0.882412
vt 0.039196 0.882412
vt 0.039196 0.882412
vt 0.235176 0.882412
vt 0.000000 0.882412
vt 0.000000 0.882412
vt 0.235176 0.882412
vt 0.235176 0.882412
vt 0.039196 0.882412
vt 0.039196 0.882412
vt 0.235176 0.882412
vt 0.000000 0.882412
vt 0.235176 0.882412
vt 0.235176 0.882412
vt 0.000000 0.882412
vt 0.039196 0.882412
vt 0.039196 0.882412
vt 0.000000 0.882412
vt 0.235176 0.882412
vt 0.235176 0.882412
vt 0.000000 0.882412
vt 0.039196 0.882412
vt 0.235176 0.882412
vt 0.235176 0.882412
vt 0.039196 0.882412
vt 0.000000 0.882412
vt 0.000000 0.882412
vt 0.235176 0.882412
vt 0.039196 0.882412
vt 0.039196 0.882412
vt 0.235176 0.882412
vt 9.994980 0.098492
vt 0.078392 0.098492
vt 0.078392 3.273368
vt 9.994980 3.273368
vt 9.994980 3.273368
vt 0.078392 3.273368
vt 0.078392 0.020100
vt 9.994980 0.020100
vt 5.840204 1.313568
vt 5.448244 1.940704
vt 4.585932 1.940704
vt 4.193972 1.313568
vt 1.058292 1.940704
vt 1.058292 3.234172
vt 0.039196 3.351760
vt 0.039196 0.098492
vt 7.682416 1.940704
vt 6.310556 0.098492
vt 9.994980 0.098492
vt 9.015079 1.940704
vt 9.994980 3.312564
vt 9.015079 3.194976
vt 2.351760 1.940704
vt 3.762816 0.098492
vt 3.762816 -0.019096
vt 4.193972 -0.019096
vt 3.253268 1.940704
vt 6.780908 1.940704
vt 7.682416 3.194976
vt 0.039196 3.312564
vt 1.058292 3.194976
vt 2.351760 3.194976
vt 3.253268 3.194976
vt 4.585932 3.194976
vt 5.448244 3.194976
vt 6.780908 3.194976
vt 5.840204 -0.019096
vt 6.271360 -0.019096
vt 0.705528 0.921608
vt 0.862312 0.921608
vt 0.862312 0.960804
vt 0.705528 0.960804
vt 0.666332 0.921608
vt 0.940704 0.921608
vt 0.940704 0.960804
vt 0.666332 0.960804
vt 0.705528 0.921608
vt 0.823116 0.921608
vt 0.823116 0.960804
vt 0.705528 0.960804
vt 0.705528 0.921608
vt 0.901508 0.921608
vt 0.901508 0.960804
vt 0.705528 0.960804
vt 0.666332 0.921608
vt 0.940704 0.921608
vt 0.940704 0.960804
vt 0.666332 0.960804
vt 0.705528 0.921608
vt 0.901508 0.921608
vt 0.901508 0.960804
vt 0.744724 0.960804
vn 0.0000 0.0000 1.0000
vn 0.0000 0.0000 -1.0000
vn 0.0000 -1.0000 0.0000
vn 0.0000 1.0000 0.0000
vn -1.0000 0.0000 0.0000
vn -1.0000 -0.0001 0.0000
vn -1.0000 0.0001 0.0000
vn 1.0000 -0.0000 0.0000
usemtl texw1.png
s off
f 37/1/1 30/2/1 1/3/1
f 1/3/1 3/4/1 37/1/1
f 32/5/2 38/6/2 4/7/2
f 4/7/2 2/8/2 32/5/2
f 38/9/3 37/10/3 3/11/3
f 3/11/3 4/12/3 38/9/3
f 48/13/2 40/14/2 5/15/2
f 5/15/2 6/16/2 48/13/2
f 40/17/3 39/18/3 18/19/3
f 18/19/3 5/20/3 40/17/3
f 39/21/1 35/22/1 7/23/1
f 7/23/1 18/24/1 39/21/1
f 35/25/4 48/13/4 6/16/4
f 29/26/2 28/27/2 19/28/2
f 19/28/2 20/29/2 29/26/2
f 28/30/3 44/31/3 8/32/3
f 8/32/3 19/33/3 28/30/3
f 44/34/1 27/35/1 9/36/1
f 9/36/1 8/37/1 44/34/1
f 11/38/1 41/39/1 10/40/1
f 10/40/1 14/41/1 11/38/1
f 41/42/4 12/43/4 13/44/4
f 13/44/4 10/45/4 41/42/4
f 12/43/2 43/46/2 15/47/2
f 15/47/2 13/44/2 12/43/2
f 43/48/3 11/49/3 14/50/3
f 14/50/3 15/51/3 43/48/3
f 21/52/2 17/53/2 45/54/2
f 49/55/2 26/56/2 25/57/2
f 25/57/2 16/58/2 49/55/2
f 22/59/1 42/60/1 23/61/1
f 23/61/1 50/62/1 22/59/1
f 36/63/5 41/64/5 48/65/5
f 48/65/5 24/66/5 36/63/5
f 30/67/5 37/68/5 25/69/5
f 30/67/5 25/69/5 26/70/5
f 27/71/5 47/72/5 23/73/5
f 23/73/5 29/74/5 27/71/5
f 29/74/5 23/73/5 42/75/5
f 42/75/5 28/76/5 29/74/5
f 32/77/5 30/67/5 26/70/5
f 26/70/5 31/78/5 32/77/5
f 31/78/5 33/79/5 34/80/5
f 31/78/5 34/80/5 24/66/5
f 31/78/5 24/66/5 35/81/5
f 12/82/5 41/64/5 36/63/5
f 47/72/5 27/71/5 44/83/5
f 44/83/5 28/76/5 42/75/5
f 42/75/5 25/84/5 37/85/5
f 42/75/5 37/85/5 38/86/5
f 38/86/5 32/77/5 31/78/5
f 38/86/5 31/78/5 35/81/5
f 38/86/5 35/81/5 39/87/5
f 42/75/6 38/86/6 39/87/6
f 42/75/7 39/87/7 40/88/7
f 40/88/5 48/65/5 41/64/5
f 40/88/5 41/64/5 11/89/5
f 42/75/6 40/88/6 11/89/6
f 42/75/7 11/89/7 43/90/7
f 44/83/5 42/75/5 43/90/5
f 44/83/5 43/90/5 12/82/5
f 47/72/5 44/83/5 12/82/5
f 36/63/5 45/91/5 46/92/5
f 36/63/5 46/92/5 47/72/5
f 36/63/5 47/72/5 12/82/5
f 24/66/5 48/65/5 35/81/5
f 53/93/5 81/94/5 72/95/5
f 72/95/5 54/96/5 53/93/5
f 81/97/4 85/98/4 73/99/4
f 73/99/4 72/100/4 81/97/4
f 85/98/8 51/101/8 52/102/8
f 52/102/8 73/99/8 85/98/8
f 51/103/3 53/104/3 54/105/3
f 54/105/3 52/106/3 51/103/3
f 95/107/8 88/108/8 55/109/8
f 55/109/8 74/110/8 95/107/8
f 88/111/3 87/112/3 75/113/3
f 75/113/3 55/114/3 88/111/3
f 87/115/5 86/116/5 76/117/5
f 76/117/5 75/118/5 87/115/5
f 86/119/4 95/107/4 74/110/4
f 74/110/4 76/120/4 86/119/4
f 80/121/8 84/122/8 57/123/8
f 57/123/8 56/124/8 80/121/8
f 84/125/3 91/126/3 60/127/3
f 60/127/3 57/128/3 84/125/3
f 91/129/5 58/130/5 59/131/5
f 59/131/5 60/132/5 91/129/5
f 58/133/4 80/121/4 56/124/4
f 56/124/4 59/134/4 58/133/4
f 61/135/5 89/136/5 62/137/5
f 62/137/5 64/138/5 61/135/5
f 89/139/4 83/140/4 63/141/4
f 63/141/4 62/142/4 89/139/4
f 83/140/8 66/143/8 65/144/8
f 65/144/8 63/141/8 83/140/8
f 66/145/3 61/146/3 64/147/3
f 64/147/3 65/148/3 66/145/3
f 77/149/8 96/150/8 79/151/8
f 79/151/8 67/152/8 77/149/8
f 78/153/5 90/154/5 97/155/5
f 97/155/5 98/156/5 78/153/5
f 68/157/2 89/158/2 95/159/2
f 95/159/2 69/160/2 68/157/2
f 81/161/2 53/162/2 79/163/2
f 81/161/2 79/163/2 96/164/2
f 58/165/2 92/166/2 97/167/2
f 97/167/2 80/168/2 58/165/2
f 80/168/2 97/167/2 90/169/2
f 90/169/2 84/170/2 80/168/2
f 85/171/2 81/161/2 96/164/2
f 96/164/2 71/172/2 85/171/2
f 71/172/2 70/173/2 82/174/2
f 71/172/2 82/174/2 69/160/2
f 71/172/2 69/160/2 86/175/2
f 83/176/2 89/158/2 68/157/2
f 92/166/2 58/165/2 91/177/2
f 91/177/2 84/170/2 90/169/2
f 90/169/2 79/178/2 53/179/2
f 90/169/2 53/179/2 51/180/2
f 51/180/2 85/171/2 71/172/2
f 51/180/2 71/172/2 86/175/2
f 51/180/2 86/175/2 87/181/2
f 90/169/2 51/180/2 87/181/2
f 90/169/2 87/181/2 88/182/2
f 88/182/2 95/159/2 89/158/2
f 88/182/2 89/158/2 61/183/2
f 90/169/2 88/182/2 61/183/2
f 90/169/2 61/183/2 66/184/2
f 91/177/2 90/169/2 66/184/2
f 91/177/2 66/184/2 83/176/2
f 92/166/2 91/177/2 83/176/2
f 68/157/2 93/185/2 94/186/2
f 68/157/2 94/186/2 92/166/2
f 68/157/2 92/166/2 83/176/2
f 69/160/2 95/159/2 86/175/2
f 101/187/5 105/188/5 104/189/5
f 104/189/5 99/190/5 101/187/5
f 100/191/2 101/192/2 99/193/2
f 99/193/2 107/194/2 100/191/2
f 105/195/1 102/196/1 103/197/1
f 103/197/1 104/198/1 105/195/1
f 99/199/4 104/200/4 110/201/4
f 110/201/4 106/202/4 99/199/4
f 107/203/4 99/204/4 106/205/4
f 106/205/4 109/206/4 107/203/4
f 104/207/4 103/208/4 108/209/4
f 108/209/4 110/210/4 104/207/4
