# Blender v3.2.1 OBJ File: ''
# www.blender.org
mtllib props_texw2.mtl
v 21.400000 1.000003 -16.046940
v 2.000000 1.000001 -4.046940
v 2.000000 1.000003 -16.046940
v 2.000000 7.000002 -16.046940
v 21.400000 7.000002 -16.046940
v 16.400000 5.000000 -4.046940
v 3.099999 5.000000 -4.046940
v 7.100000 5.000000 -4.046940
v 11.700000 5.000000 -4.046940
v 20.400000 7.000000 -4.046939
v 3.099999 7.000000 -4.046939
v 21.400000 7.000000 -4.046939
v 20.400000 5.000000 -4.046940
v 21.400000 1.000001 -4.046940
v 2.000000 7.000000 -4.046939
v 1.999997 7.000005 -28.046938
v 1.999999 7.000003 -16.046938
v 16.299997 5.000005 -28.046940
v 11.699997 5.000005 -28.046940
v 2.999997 7.000005 -28.046938
v 20.299997 7.000005 -28.046938
v 21.399996 7.000005 -28.046938
v 20.299997 5.000005 -28.046940
v 1.999999 1.000003 -16.046940
v 1.999997 1.000005 -28.046940
v 6.999997 5.000005 -28.046940
v 2.999997 5.000005 -28.046940
v 21.399996 1.000005 -28.046940
v 21.400000 7.000003 -16.046938
v 21.400000 1.000003 -16.046940
v 33.099998 5.999998 15.900001
v 33.099998 -0.000003 15.900000
v 26.600000 5.999995 28.900002
v 26.600000 4.699997 17.900000
v 26.600000 3.299997 17.900000
v 26.600000 -0.000003 16.400000
v 26.600000 -0.000004 24.900000
v 26.600000 -0.000005 28.900000
v 26.600000 3.299995 27.900000
v 26.600000 4.699996 27.900000
v 26.800001 4.699996 27.900000
v 26.799999 4.699997 17.900000
v 26.799999 3.299997 17.900000
v 26.800001 3.299995 27.900000
v 26.400000 5.999998 15.700000
v 26.400000 5.999997 16.400002
v 26.400000 -0.000003 16.400000
v 26.600000 5.999997 16.400002
v 27.100000 5.999998 15.900001
v 27.100000 -0.000003 15.900000
v 27.100000 5.999998 15.700000
v 27.100000 -0.000003 15.699999
v 26.400000 -0.000003 15.699999
v 26.800001 2.599996 27.900000
v 26.800001 -0.000005 27.900000
v 26.600000 -0.000005 27.900000
v 26.600000 2.599996 27.900000
v 26.800001 -0.000004 24.900000
v 26.600000 2.599996 24.900000
v 26.800001 2.599996 24.900000
v 22.500000 5.999995 28.900003
v 28.500000 5.999995 28.900003
v 28.500000 -0.000005 28.900002
v 22.500000 -0.000005 28.900002
v 22.000000 5.999993 41.900002
v 22.000000 4.699995 30.900002
v 22.000000 -0.000005 29.400002
v 22.000000 3.299995 30.900002
v 22.000000 -0.000006 37.900002
v 22.000000 2.599994 37.900002
v 22.000000 -0.000007 41.900002
v 22.000000 4.699994 40.900002
v 22.000000 3.299993 40.900002
v 22.200001 4.699994 40.900002
v 22.200001 4.699995 30.900002
v 22.200001 3.299993 40.900002
v 21.799999 5.999995 29.400003
v 21.799999 -0.000005 29.400002
v 22.000000 5.999995 29.400003
v 22.500000 5.999995 28.700003
v 21.799999 5.999995 28.700003
v 22.500000 -0.000005 28.700001
v 21.799999 -0.000005 28.700001
v 22.000000 -0.000007 40.900002
v 22.000000 2.599993 40.900002
v 22.200001 -0.000006 37.900002
v 22.200001 3.299995 30.900002
v 22.200001 2.599993 40.900002
v 22.200001 2.599994 37.900002
v 22.200001 -0.000007 40.900002
v 31.699999 0.200017 -84.721336
v 31.699999 0.000017 -84.921333
v 21.699999 0.000017 -84.921333
v 31.699999 0.200017 -84.921333
v 21.699999 0.200017 -84.721336
v 21.699999 0.200017 -84.921333
v 21.699999 0.200017 -84.721336
v 21.699999 0.000017 -84.921333
v 11.699999 0.000017 -84.921333
v 21.699999 0.200017 -84.921333
v 11.699999 0.200017 -84.721336
v 11.699999 0.200017 -84.921333
v 16.541573 0.207165 -84.721336
v 16.741570 0.007165 -84.721336
v 16.741570 0.007165 -94.721336
v 16.741570 0.207165 -84.721336
v 16.541573 0.207165 -94.721336
v 16.741570 0.207165 -94.721336
vt 0.441196 3.016896
vt 0.441196 4.529568
vt 0.000000 4.529568
vt 0.000000 -0.008448
vt 0.000000 -0.008448
vt 0.000000 4.529568
vt 5.073754 4.529568
vt 5.073754 -0.008448
vt 8.036070 -0.008448
vt 7.626388 3.016896
vt 5.956146 3.016896
vt 8.036070 4.529568
vt 7.626388 4.529568
vt 2.111438 3.016896
vt 4.002278 3.016896
vt 0.000000 -0.008448
vt 5.073754 -0.008448
vt 5.073754 4.529568
vt 0.000000 4.529568
vt 0.441196 3.016896
vt 0.441196 4.529568
vt 0.000000 4.529568
vt 0.000000 -0.008448
vt 0.000000 -0.008448
vt 0.000000 4.529568
vt 5.073754 4.529568
vt 5.073754 -0.008448
vt 8.036070 -0.008448
vt 7.626388 3.016896
vt 5.956146 3.016896
vt 8.036070 4.529568
vt 7.626388 4.529568
vt 2.111438 3.016896
vt 4.002278 3.016896
vt 0.000000 -0.008448
vt 5.073754 -0.008448
vt 5.073754 4.529568
vt 0.000000 4.529568
vt 1.985173 4.835758
vt -1.009410 4.835758
vt -1.009410 -3.744227
vt 1.985173 -3.744227
vt -2.018820 2.951526
vt 2.994583 2.951526
vt 3.499288 4.835758
vt -2.759054 4.835758
vt -2.759054 -3.744227
vt -2.018820 0.966353
vt 1.480468 -3.744227
vt 1.480468 -0.043057
vt 2.994583 0.966353
vt 2.994583 -0.043057
vt 2.994583 -3.744227
vt 3.499288 -3.744227
vt 1.884232 2.951526
vt 1.884232 0.966353
vt 1.985173 0.966353
vt 1.985173 2.951526
vt 2.994583 -0.917879
vt -1.985173 -0.917879
vt -1.985173 -1.018820
vt 2.994583 -1.018820
vt -0.908469 0.966353
vt -0.908469 2.951526
vt -1.009410 2.951526
vt -1.009410 0.966353
vt 2.994583 -0.917879
vt -2.018820 -0.917879
vt -2.018820 -1.018820
vt 2.994583 -1.018820
vt 0.706587 4.835758
vt 0.000000 4.835758
vt 0.000000 -3.744227
vt 0.706587 -3.744227
vt 0.706587 4.835758
vt 0.000000 4.835758
vt 0.000000 -3.744227
vt 0.706587 -3.744227
vt 1.009410 4.835758
vt 0.302823 4.835758
vt 0.302823 -3.744227
vt 1.009410 -3.744227
vt 0.975763 4.835758
vt 0.302823 4.835758
vt 0.302823 -3.744227
vt 0.975763 -3.744227
vt 2.994583 -0.043057
vt 2.994583 -3.744227
vt 1.480468 -0.043057
vt 1.480468 -3.744227
vt 1.985173 4.835758
vt -1.009410 4.835758
vt -1.009410 -3.744227
vt 1.985173 -3.744227
vt -2.018820 2.951526
vt 2.994583 2.951526
vt 3.499288 4.835758
vt -2.759054 4.835758
vt -2.759054 -3.744227
vt -2.018820 0.966353
vt 1.480468 -3.744227
vt 1.480468 -0.043057
vt 2.994583 0.966353
vt 2.994583 -0.043057
vt 2.994583 -3.744227
vt 3.499288 -3.744227
vt 1.884232 2.951526
vt 1.884232 0.966353
vt 1.985173 0.966353
vt 1.985173 2.951526
vt 2.994583 -0.917879
vt -1.985173 -0.917879
vt -1.985173 -1.018820
vt 2.994583 -1.018820
vt -0.908469 0.966353
vt -0.908469 2.951526
vt -1.009410 2.951526
vt -1.009410 0.966353
vt 2.994583 -0.917879
vt -2.018820 -0.917879
vt -2.018820 -1.018820
vt 2.994583 -1.018820
vt 0.706587 4.835758
vt 0.000000 4.835758
vt 0.000000 -3.744227
vt 0.706587 -3.744227
vt 0.706587 4.835758
vt 0.000000 4.835758
vt 0.000000 -3.744227
vt 0.706587 -3.744227
vt 1.009410 4.835758
vt 0.302823 4.835758
vt 0.302823 -3.744227
vt 1.009410 -3.744227
vt 0.975763 4.835758
vt 0.302823 4.835758
vt 0.302823 -3.744227
vt 0.975763 -3.744227
vt 2.994583 -0.043057
vt 2.994583 -3.744227
vt 1.480468 -0.043057
vt 1.480468 -3.744227
vt 0.000000 0.007573
vt 10.010568 0.007573
vt 10.010568 1.000000
vt 0.992427 0.007573
vt 11.002995 0.007573
vt 11.002995 1.000000
vt 0.000000 1.000000
vt 0.992427 1.000000
vt 0.000000 0.007573
vt 10.010568 0.007573
vt 10.010568 1.000000
vt 0.992427 0.007573
vt 11.002995 0.007573
vt 11.002995 1.000000
vt 0.000000 1.000000
vt 0.992427 1.000000
vt 0.000000 0.007573
vt 10.010568 0.007573
vt 10.010568 1.000000
vt 0.992427 0.007573
vt 11.002995 0.007573
vt 11.002995 1.000000
vt 0.000000 1.000000
vt 0.992427 1.000000
vn 0.0000 -0.0000 1.0000
vn 1.0000 0.0000 0.0000
vn -1.0000 -0.0000 0.0000
vn 0.0000 0.0000 -1.0000
vn 0.0000 -1.0000 -0.0000
vn 0.0000 1.0000 0.0000
usemtl texw2.png
s off
f 7/1/1 11/2/1 15/3/1
f 15/3/1 2/4/1 7/1/1
f 1/5/2 5/6/2 12/7/2
f 12/7/2 14/8/2 1/5/2
f 14/9/1 13/10/1 6/11/1
f 12/12/1 10/13/1 13/10/1
f 13/10/1 14/9/1 12/12/1
f 8/14/1 7/1/1 2/4/1
f 6/11/1 9/15/1 14/9/1
f 9/15/1 2/4/1 14/9/1
f 9/15/1 8/14/1 2/4/1
f 3/16/3 2/17/3 15/18/3
f 15/18/3 4/19/3 3/16/3
f 23/20/4 21/21/4 22/22/4
f 22/22/4 28/23/4 23/20/4
f 24/24/3 17/25/3 16/26/3
f 16/26/3 25/27/3 24/24/3
f 25/28/4 27/29/4 26/30/4
f 16/31/4 20/32/4 27/29/4
f 27/29/4 25/28/4 16/31/4
f 18/33/4 23/20/4 28/23/4
f 26/30/4 19/34/4 25/28/4
f 19/34/4 28/23/4 25/28/4
f 19/34/4 18/33/4 28/23/4
f 30/35/2 28/36/2 22/37/2
f 22/37/2 29/38/2 30/35/2
f 49/39/4 31/40/4 32/41/4
f 32/41/4 50/42/4 49/39/4
f 34/43/3 40/44/3 33/45/3
f 34/43/3 33/45/3 48/46/3
f 34/43/3 48/46/3 36/47/3
f 35/48/3 34/43/3 36/47/3
f 35/48/3 36/47/3 37/49/3
f 35/48/3 37/49/3 59/50/3
f 39/51/3 35/48/3 59/50/3
f 39/51/3 59/50/3 57/52/3
f 57/52/3 56/53/3 38/54/3
f 39/51/3 57/52/3 38/54/3
f 39/51/3 38/54/3 33/45/3
f 39/51/3 33/45/3 40/44/3
f 41/55/4 44/56/4 39/57/4
f 39/57/4 40/58/4 41/55/4
f 42/59/5 41/60/5 40/61/5
f 40/61/5 34/62/5 42/59/5
f 43/63/1 42/64/1 34/65/1
f 34/65/1 35/66/1 43/63/1
f 44/67/6 43/68/6 35/69/6
f 35/69/6 39/70/6 44/67/6
f 46/71/3 45/72/3 53/73/3
f 53/73/3 47/74/3 46/71/3
f 48/75/1 46/76/1 47/77/1
f 47/77/1 36/78/1 48/75/1
f 51/79/2 49/80/2 50/81/2
f 50/81/2 52/82/2 51/79/2
f 45/83/4 51/84/4 52/85/4
f 52/85/4 53/86/4 45/83/4
f 54/87/4 55/88/4 56/53/4
f 56/53/4 57/52/4 54/87/4
f 60/89/5 54/87/5 57/52/5
f 57/52/5 59/50/5 60/89/5
f 58/90/1 60/89/1 59/50/1
f 59/50/1 37/49/1 58/90/1
f 61/91/4 62/92/4 63/93/4
f 63/93/4 64/94/4 61/91/4
f 66/95/3 72/96/3 65/97/3
f 66/95/3 65/97/3 79/98/3
f 66/95/3 79/98/3 67/99/3
f 68/100/3 66/95/3 67/99/3
f 68/100/3 67/99/3 69/101/3
f 68/100/3 69/101/3 70/102/3
f 73/103/3 68/100/3 70/102/3
f 73/103/3 70/102/3 85/104/3
f 85/104/3 84/105/3 71/106/3
f 73/103/3 85/104/3 71/106/3
f 73/103/3 71/106/3 65/97/3
f 73/103/3 65/97/3 72/96/3
f 74/107/4 76/108/4 73/109/4
f 73/109/4 72/110/4 74/107/4
f 75/111/5 74/112/5 72/113/5
f 72/113/5 66/114/5 75/111/5
f 87/115/1 75/116/1 66/117/1
f 66/117/1 68/118/1 87/115/1
f 76/119/6 87/120/6 68/121/6
f 68/121/6 73/122/6 76/119/6
f 77/123/3 81/124/3 83/125/3
f 83/125/3 78/126/3 77/123/3
f 79/127/1 77/128/1 78/129/1
f 78/129/1 67/130/1 79/127/1
f 80/131/2 61/132/2 64/133/2
f 64/133/2 82/134/2 80/131/2
f 81/135/4 80/136/4 82/137/4
f 82/137/4 83/138/4 81/135/4
f 88/139/4 90/140/4 84/105/4
f 84/105/4 85/104/4 88/139/4
f 89/141/5 88/139/5 85/104/5
f 85/104/5 70/102/5 89/141/5
f 86/142/1 89/141/1 70/102/1
f 70/102/1 69/101/1 86/142/1
f 95/143/6 91/144/6 94/145/6
f 92/146/4 93/147/4 96/148/4
f 94/145/6 96/149/6 95/143/6
f 96/148/4 94/150/4 92/146/4
f 101/151/6 97/152/6 100/153/6
f 98/154/4 99/155/4 102/156/4
f 100/153/6 102/157/6 101/151/6
f 102/156/4 100/158/4 98/154/4
f 107/159/6 103/160/6 106/161/6
f 104/162/2 105/163/2 108/164/2
f 106/161/6 108/165/6 107/159/6
f 108/164/2 106/166/2 104/162/2
