# Blender v2.82 (sub 7) OBJ File: 'village_e3.blend'
# www.blender.org
mtllib fences_boxes_barrels.mtl
v -5.115343 1.134421 2.310306
v -5.097428 1.134421 1.310466
v -6.097267 1.134421 1.292551
v -6.115183 1.134421 2.292390
v -6.097267 0.134421 1.292551
v -6.115182 0.134421 2.292390
v -5.115343 0.134421 2.310306
v -5.097428 0.134421 1.310466
v -11.785342 1.129622 2.296974
v -11.685343 1.129622 1.996974
v -11.685343 0.029622 1.996973
v -11.785342 0.029622 2.296974
v -11.385343 1.129622 1.896973
v -11.385343 0.029622 1.896974
v -11.085342 1.129622 1.996973
v -11.085342 0.029622 1.996974
v -10.985341 1.129622 2.296974
v -10.985341 0.029622 2.296974
v -11.085342 1.129622 2.596973
v -11.085341 0.029622 2.596973
v -11.385341 1.129622 2.696974
v -11.385341 0.029622 2.696974
v -11.685343 1.129622 2.596974
v -11.685342 0.029622 2.596973
v 1.109960 1.100000 8.138305
v 1.209959 1.100000 7.838305
v 1.209959 0.000000 7.838305
v 1.109959 0.000000 8.138305
v 1.509958 1.100000 7.738306
v 1.509958 0.000000 7.738306
v 1.809958 1.100000 7.838305
v 1.809958 0.000000 7.838305
v 1.909959 1.100000 8.138305
v 1.909959 0.000000 8.138304
v 1.809959 1.100000 8.438305
v 1.809959 0.000000 8.438305
v 1.509958 1.100000 8.538305
v 1.509958 0.000000 8.538305
v 1.209959 1.100000 8.438305
v 1.209959 0.000000 8.438305
v 1.559449 0.365138 7.294637
v 1.504110 0.672712 7.246306
v 0.780511 0.672712 8.074800
v 0.835849 0.365138 8.123132
v 1.285583 0.798477 7.055445
v 0.561983 0.798478 7.883938
v 1.053926 0.725006 6.853117
v 0.330324 0.725006 7.681612
v 0.959201 0.434863 6.770386
v 0.235601 0.434863 7.598879
v 1.014539 0.127289 6.818717
v 0.290939 0.127289 7.647211
v 1.233068 0.001523 7.009578
v 0.509468 0.001522 7.838071
v 1.464725 0.074995 7.211905
v 0.741125 0.074995 8.040401
v 2.060824 0.446967 5.010366
v 1.612025 0.446968 3.828912
v 1.021299 0.446968 4.053312
v 1.470099 0.446967 5.234766
v 1.021299 -0.026967 4.053312
v 1.470099 -0.026967 5.234766
v 2.060825 -0.026967 5.010366
v 1.612025 -0.026967 3.828912
v -8.395042 0.570011 9.258780
v -8.241628 0.526927 7.666735
v -9.034119 0.603125 7.588305
v -9.187534 0.646209 9.180350
v -9.092566 0.006071 7.598829
v -9.245983 0.049155 9.190872
v -8.453490 -0.027043 9.269303
v -8.300076 -0.070127 7.677259
v 1.838564 0.420000 1.711804
v 1.440838 0.420000 0.664801
v 0.917338 0.420000 0.863664
v 1.315064 0.420000 1.910667
v 0.917338 0.000000 0.863664
v 1.315064 0.000000 1.910667
v 1.838564 0.000000 1.711804
v 1.440839 0.000000 0.664801
v 1.563447 0.420000 3.095678
v 1.428986 0.420000 1.983778
v 0.873037 0.420000 2.051009
v 1.007498 0.420000 3.162909
v 0.873037 0.000000 2.051009
v 1.007498 0.000000 3.162909
v 1.563447 0.000000 3.095678
v 1.428986 0.000000 1.983778
v 2.170372 0.420000 3.042968
v 2.035911 0.420000 1.931068
v 1.479962 0.420000 1.998300
v 1.614423 0.420000 3.110199
v 1.479961 0.000000 1.998300
v 1.614423 0.000000 3.110199
v 2.170372 0.000000 3.042968
v 2.035911 0.000000 1.931068
v 1.645411 0.850965 3.083178
v 1.345419 0.850966 2.004102
v 0.805882 0.850966 2.154098
v 1.105873 0.850965 3.233173
v 0.805882 0.430966 2.154098
v 1.105873 0.430965 3.233174
v 1.645411 0.430965 3.083178
v 1.345419 0.430966 2.004102
v 2.237528 0.850965 2.939879
v 1.937535 0.850966 1.860803
v 1.397999 0.850966 2.010799
v 1.697990 0.850965 3.089875
v 1.397999 0.430966 2.010799
v 1.697990 0.430965 3.089875
v 2.237528 0.430965 2.939879
v 1.937535 0.430966 1.860803
v -8.263038 0.454757 2.523507
v -8.178343 0.154802 2.470088
v -7.640647 0.135758 3.429526
v -7.725343 0.435713 3.482945
v -7.917484 0.054817 2.321912
v -7.379788 0.035773 3.281350
v -7.654935 0.154802 2.176755
v -7.117238 0.135758 3.136193
v -7.565160 0.454757 2.132397
v -7.027463 0.435713 3.091835
v -7.649856 0.754712 2.185817
v -7.112161 0.735668 3.145255
v -7.910713 0.854697 2.333993
v -7.373018 0.835653 3.293431
v -8.173265 0.754712 2.479149
v -7.635569 0.735668 3.438588
v -5.833101 1.134421 2.678486
v -6.470478 1.134421 1.907934
v -7.241030 1.134421 2.545310
v -6.603653 1.134421 3.315863
v -7.241030 0.134421 2.545310
v -6.603653 0.134421 3.315863
v -5.833101 0.134421 2.678486
v -6.470477 0.134421 1.907934
v -5.893246 2.097604 2.158161
v -6.855755 2.097604 1.886911
v -7.127005 2.097604 2.849421
v -6.164495 2.097604 3.120670
v -7.127004 1.097604 2.849421
v -6.164495 1.097604 3.120670
v -5.893246 1.097604 2.158160
v -6.855755 1.097604 1.886911
v -22.156425 0.088458 9.099420
v -22.156429 -0.009461 5.100617
v -22.156431 1.989939 5.051659
v -22.156425 2.087858 9.050460
v -22.156429 -0.107380 1.101816
v -22.156431 1.892020 1.052855
v -22.156431 -0.205300 -2.896986
v -22.156431 1.794100 -2.945945
v 2.497506 -0.634187 3.022831
v 2.148883 -0.634187 7.007609
v 2.148883 1.365813 7.007610
v 2.497505 1.365813 3.022830
v 1.800261 -0.634186 10.992389
v 1.800261 1.365814 10.992388
v 1.451637 -0.634187 14.977166
v 1.451637 1.365813 14.977165
v 2.474567 -0.634186 -9.000003
v 2.474568 -0.634187 -5.000001
v 2.474568 1.365813 -5.000002
v 2.474567 1.365814 -9.000003
v 2.474568 -0.634186 -1.000001
v 2.474567 1.365814 -1.000002
v 2.474568 -0.634187 2.999999
v 2.474567 1.365813 2.999999
v -22.167686 -0.077568 -2.867682
v -18.170830 -0.236138 -2.867683
v -18.091545 1.762290 -2.867683
v -22.088402 1.920859 -2.867682
v -14.173973 -0.394707 -2.867685
v -14.094690 1.603721 -2.867685
v -10.177118 -0.553276 -2.867685
v -10.097836 1.445152 -2.867685
v -10.670058 -0.452764 -16.382214
v -9.916446 -0.449623 -12.453846
v -9.901497 1.550316 -12.458312
v -10.655107 1.547175 -16.386679
v -9.162833 -0.446482 -8.525479
v -9.147883 1.553458 -8.529947
v -8.409225 -0.443341 -4.597114
v -8.394275 1.556599 -4.601582
v 3.188472 -0.391955 -7.798080
v 7.185328 -0.550524 -7.798081
v 7.264613 1.447903 -7.798082
v 3.267756 1.606473 -7.798080
v 11.182185 -0.709093 -7.798083
v 11.261468 1.289335 -7.798083
v 15.179040 -0.867663 -7.798083
v 15.258323 1.130765 -7.798083
v -22.156425 0.324037 21.136463
v -22.156429 0.226118 17.137661
v -22.156431 2.225518 17.088701
v -22.156425 2.323437 21.087502
v -22.156429 0.128198 13.138859
v -22.156431 2.127599 13.089898
v -22.156431 0.030279 9.140057
v -22.156431 2.029679 9.091097
vt 0.810000 0.435000
vt 0.625000 0.435000
vt 0.625000 0.250000
vt 0.810000 0.250000
vt 0.810000 0.435000
vt 0.625000 0.435000
vt 0.625000 0.250000
vt 0.810000 0.250000
vt 0.625000 0.435000
vt 0.625000 0.250000
vt 0.810000 0.250000
vt 0.810000 0.435000
vt 0.625000 0.435000
vt 0.625000 0.250000
vt 0.810000 0.250000
vt 0.810000 0.435000
vt 0.625000 0.250000
vt 0.810000 0.250000
vt 0.095000 0.000000
vt 0.125000 0.000000
vt 0.125000 0.125000
vt 0.095000 0.125000
vt 0.000000 0.000000
vt 0.030000 0.000000
vt 0.030000 0.125000
vt 0.000000 0.125000
vt 0.065000 0.000000
vt 0.065000 0.125000
vt 0.095000 0.000000
vt 0.095000 0.125000
vt 0.125000 0.000000
vt 0.125000 0.125000
vt 0.000000 0.000000
vt 0.030000 0.000000
vt 0.030000 0.125000
vt 0.000000 0.125000
vt 0.065000 0.000000
vt 0.065000 0.125000
vt 0.125000 0.185000
vt 0.105000 0.230000
vt 0.065000 0.250000
vt 0.020000 0.230000
vt 0.000000 0.185000
vt 0.020000 0.145000
vt 0.065000 0.125000
vt 0.105000 0.145000
vt 0.095000 0.000000
vt 0.125000 0.000000
vt 0.125000 0.125000
vt 0.095000 0.125000
vt 0.000000 0.000000
vt 0.030000 0.000000
vt 0.030000 0.125000
vt 0.000000 0.125000
vt 0.065000 0.000000
vt 0.065000 0.125000
vt 0.095000 0.000000
vt 0.095000 0.125000
vt 0.125000 0.000000
vt 0.125000 0.125000
vt 0.000000 0.000000
vt 0.030000 0.000000
vt 0.030000 0.125000
vt 0.000000 0.125000
vt 0.065000 0.000000
vt 0.065000 0.125000
vt 0.125000 0.185000
vt 0.105000 0.230000
vt 0.065000 0.250000
vt 0.020000 0.230000
vt 0.000000 0.185000
vt 0.020000 0.145000
vt 0.065000 0.125000
vt 0.105000 0.145000
vt 0.095000 0.000000
vt 0.125000 0.000000
vt 0.125000 0.125000
vt 0.095000 0.125000
vt 0.000000 0.000000
vt 0.030000 0.000000
vt 0.030000 0.125000
vt 0.000000 0.125000
vt 0.065000 0.000000
vt 0.065000 0.125000
vt 0.095000 0.000000
vt 0.095000 0.125000
vt 0.125000 0.000000
vt 0.125000 0.125000
vt 0.000000 0.000000
vt 0.030000 0.000000
vt 0.030000 0.125000
vt 0.000000 0.125000
vt 0.065000 0.000000
vt 0.065000 0.125000
vt 0.125000 0.185000
vt 0.105000 0.230000
vt 0.065000 0.250000
vt 0.020000 0.230000
vt 0.000000 0.185000
vt 0.020000 0.145000
vt 0.065000 0.125000
vt 0.105000 0.145000
vt 0.500000 0.250000
vt 0.250000 0.250000
vt 0.250000 0.125000
vt 0.500000 0.125000
vt 0.500000 0.250000
vt 0.250000 0.250000
vt 0.250000 0.125000
vt 0.500000 0.125000
vt 0.475000 0.250000
vt 0.275000 0.250000
vt 0.275000 0.125000
vt 0.475000 0.125000
vt 0.475000 0.250000
vt 0.275000 0.250000
vt 0.275000 0.125000
vt 0.475000 0.125000
vt 0.500000 0.250000
vt 0.250000 0.250000
vt 0.250000 0.125000
vt 0.500000 0.125000
vt 0.500000 0.250000
vt 0.250000 0.250000
vt 0.250000 0.125000
vt 0.500000 0.125000
vt 0.475000 0.250000
vt 0.275000 0.250000
vt 0.275000 0.125000
vt 0.475000 0.125000
vt 0.475000 0.250000
vt 0.275000 0.250000
vt 0.275000 0.125000
vt 0.475000 0.125000
vt 0.500000 0.250000
vt 0.250000 0.250000
vt 0.250000 0.125000
vt 0.500000 0.125000
vt 0.500000 0.250000
vt 0.250000 0.250000
vt 0.250000 0.125000
vt 0.500000 0.125000
vt 0.475000 0.250000
vt 0.275000 0.250000
vt 0.275000 0.125000
vt 0.475000 0.125000
vt 0.475000 0.250000
vt 0.275000 0.250000
vt 0.275000 0.125000
vt 0.475000 0.125000
vt 0.500000 0.250000
vt 0.250000 0.250000
vt 0.250000 0.125000
vt 0.500000 0.125000
vt 0.500000 0.250000
vt 0.250000 0.250000
vt 0.250000 0.125000
vt 0.500000 0.125000
vt 0.475000 0.250000
vt 0.275000 0.250000
vt 0.275000 0.125000
vt 0.475000 0.125000
vt 0.475000 0.250000
vt 0.275000 0.250000
vt 0.275000 0.125000
vt 0.475000 0.125000
vt 0.500000 0.250000
vt 0.250000 0.250000
vt 0.250000 0.125000
vt 0.500000 0.125000
vt 0.500000 0.250000
vt 0.250000 0.250000
vt 0.250000 0.125000
vt 0.500000 0.125000
vt 0.475000 0.250000
vt 0.275000 0.250000
vt 0.275000 0.125000
vt 0.475000 0.125000
vt 0.475000 0.250000
vt 0.275000 0.250000
vt 0.275000 0.125000
vt 0.475000 0.125000
vt 0.500000 0.250000
vt 0.250000 0.250000
vt 0.250000 0.125000
vt 0.500000 0.125000
vt 0.500000 0.250000
vt 0.250000 0.250000
vt 0.250000 0.125000
vt 0.500000 0.125000
vt 0.475000 0.250000
vt 0.275000 0.250000
vt 0.275000 0.125000
vt 0.475000 0.125000
vt 0.475000 0.250000
vt 0.275000 0.250000
vt 0.275000 0.125000
vt 0.475000 0.125000
vt 0.500000 0.250000
vt 0.250000 0.250000
vt 0.250000 0.125000
vt 0.500000 0.125000
vt 0.500000 0.250000
vt 0.250000 0.250000
vt 0.250000 0.125000
vt 0.500000 0.125000
vt 0.475000 0.250000
vt 0.275000 0.250000
vt 0.275000 0.125000
vt 0.475000 0.125000
vt 0.475000 0.250000
vt 0.275000 0.250000
vt 0.275000 0.125000
vt 0.475000 0.125000
vt 0.220000 0.000000
vt 0.250000 0.000000
vt 0.250000 0.125000
vt 0.220000 0.125000
vt 0.125000 0.000000
vt 0.155000 0.000000
vt 0.155000 0.125000
vt 0.125000 0.125000
vt 0.190000 0.000000
vt 0.190000 0.125000
vt 0.220000 0.000000
vt 0.220000 0.125000
vt 0.250000 0.000000
vt 0.250000 0.125000
vt 0.125000 0.000000
vt 0.155000 0.000000
vt 0.155000 0.125000
vt 0.125000 0.125000
vt 0.190000 0.000000
vt 0.190000 0.125000
vt 0.250000 0.185000
vt 0.230000 0.230000
vt 0.190000 0.250000
vt 0.145000 0.230000
vt 0.125000 0.185000
vt 0.145000 0.145000
vt 0.190000 0.125000
vt 0.230000 0.145000
vt 0.810000 0.435000
vt 0.625000 0.435000
vt 0.625000 0.250000
vt 0.810000 0.250000
vt 0.810000 0.435000
vt 0.625000 0.435000
vt 0.625000 0.250000
vt 0.810000 0.250000
vt 0.625000 0.435000
vt 0.625000 0.250000
vt 0.810000 0.250000
vt 0.810000 0.435000
vt 0.625000 0.435000
vt 0.625000 0.250000
vt 0.810000 0.250000
vt 0.810000 0.435000
vt 0.625000 0.250000
vt 0.810000 0.250000
vt 0.810000 0.435000
vt 0.625000 0.435000
vt 0.625000 0.250000
vt 0.810000 0.250000
vt 0.810000 0.435000
vt 0.625000 0.435000
vt 0.625000 0.250000
vt 0.810000 0.250000
vt 0.625000 0.435000
vt 0.625000 0.250000
vt 0.810000 0.250000
vt 0.810000 0.435000
vt 0.625000 0.435000
vt 0.625000 0.250000
vt 0.810000 0.250000
vt 0.810000 0.435000
vt 0.625000 0.250000
vt 0.810000 0.250000
vt 0.500000 0.750000
vt 0.755000 0.750000
vt 0.755000 0.940000
vt 0.500000 0.940000
vt 0.500000 0.750000
vt 0.755000 0.750000
vt 0.755000 0.940000
vt 0.500000 0.940000
vt 0.500000 0.750000
vt 0.755000 0.750000
vt 0.755000 0.940000
vt 0.500000 0.940000
vt 0.500000 0.750000
vt 0.755000 0.750000
vt 0.755000 0.940000
vt 0.500000 0.940000
vt 0.500000 0.750000
vt 0.755000 0.750000
vt 0.755000 0.940000
vt 0.500000 0.940000
vt 0.500000 0.750000
vt 0.755000 0.750000
vt 0.755000 0.940000
vt 0.500000 0.940000
vt 0.500000 0.750000
vt 0.755000 0.750000
vt 0.755000 0.940000
vt 0.500000 0.940000
vt 0.500000 0.750000
vt 0.755000 0.750000
vt 0.755000 0.940000
vt 0.500000 0.940000
vt 0.500000 0.750000
vt 0.755000 0.750000
vt 0.755000 0.940000
vt 0.500000 0.940000
vt 0.500000 0.750000
vt 0.755000 0.750000
vt 0.755000 0.940000
vt 0.500000 0.940000
vt 0.500000 0.750000
vt 0.755000 0.750000
vt 0.755000 0.940000
vt 0.500000 0.940000
vt 0.500000 0.750000
vt 0.755000 0.750000
vt 0.755000 0.940000
vt 0.500000 0.940000
vt 0.500000 0.750000
vt 0.755000 0.750000
vt 0.755000 0.940000
vt 0.500000 0.940000
vt 0.500000 0.750000
vt 0.755000 0.750000
vt 0.755000 0.940000
vt 0.500000 0.940000
vt 0.500000 0.750000
vt 0.755000 0.750000
vt 0.755000 0.940000
vt 0.500000 0.940000
vt 0.500000 0.750000
vt 0.755000 0.750000
vt 0.755000 0.940000
vt 0.500000 0.940000
vt 0.500000 0.750000
vt 0.755000 0.750000
vt 0.755000 0.940000
vt 0.500000 0.940000
vt 0.500000 0.750000
vt 0.755000 0.750000
vt 0.755000 0.940000
vt 0.500000 0.940000
vt 0.500000 0.750000
vt 0.755000 0.750000
vt 0.755000 0.940000
vt 0.500000 0.940000
vt 0.500000 0.750000
vt 0.755000 0.750000
vt 0.755000 0.940000
vt 0.500000 0.940000
vt 0.500000 0.750000
vt 0.755000 0.750000
vt 0.755000 0.940000
vt 0.500000 0.940000
vn -0.0000 1.0000 0.0000
vn -0.9998 0.0000 -0.0179
vn -0.0179 0.0000 0.9998
vn 0.9998 0.0000 0.0179
vn 0.0179 0.0000 -0.9998
vn -0.9487 0.0000 -0.3162
vn -0.3162 -0.0000 -0.9487
vn 0.3162 -0.0000 -0.9487
vn 0.9487 -0.0000 -0.3162
vn 0.9487 -0.0000 0.3162
vn 0.3162 -0.0000 0.9487
vn -0.3162 -0.0000 0.9487
vn -0.9487 -0.0000 0.3162
vn -0.0000 -1.0000 -0.0000
vn 0.7326 0.2323 0.6398
vn 0.2995 0.9175 0.2616
vn -0.1750 0.9726 -0.1528
vn -0.6910 0.3977 -0.6036
vn -0.7326 -0.2323 -0.6398
vn -0.2995 -0.9175 -0.2616
vn 0.1750 -0.9726 0.1528
vn 0.6910 -0.3977 0.6036
vn -0.6578 0.0000 0.7532
vn -0.9348 0.0000 0.3551
vn 0.3551 0.0000 0.9348
vn -0.3551 0.0000 -0.9348
vn 0.0974 0.9951 -0.0175
vn -0.9906 0.0952 -0.0980
vn -0.0959 0.0269 0.9950
vn 0.0959 -0.0269 -0.9950
vn -0.9928 0.0000 0.1201
vn 0.1201 0.0000 0.9928
vn -0.1201 0.0000 -0.9928
vn -0.9635 0.0000 0.2678
vn 0.2678 0.0000 0.9635
vn 0.2679 -0.0000 0.9635
vn -0.2679 0.0000 -0.9635
vn -0.2678 0.0000 -0.9635
vn -0.8303 -0.3162 0.4590
vn -0.2839 -0.9485 0.1403
vn 0.2678 -0.9485 -0.1689
vn 0.8249 -0.3162 -0.4686
vn 0.8303 0.3162 -0.4590
vn 0.2839 0.9485 -0.1403
vn -0.2678 0.9485 0.1689
vn -0.8249 0.3162 0.4686
vn 0.4888 -0.0173 0.8722
vn -0.7706 -0.0000 0.6374
vn 0.6374 -0.0000 0.7706
vn 0.7706 0.0000 -0.6374
vn -0.6374 -0.0000 -0.7706
vn -0.2712 -0.0000 0.9625
vn 0.9625 -0.0000 0.2712
vn 0.2712 0.0000 -0.9625
vn -0.9625 0.0000 -0.2712
vn 1.0000 0.0000 -0.0000
vn -0.9962 -0.0000 -0.0872
vn -1.0000 -0.0000 0.0000
vn 0.0000 0.0000 1.0000
vn -0.9821 0.0078 0.1884
usemtl texobj1
s 1
f 1/1/1 2/2/1 3/3/1
f 3/3/1 4/4/1 1/1/1
f 4/5/2 3/6/2 5/7/2
f 5/7/2 6/8/2 4/5/2
f 1/1/3 4/9/3 6/10/3
f 6/10/3 7/11/3 1/1/3
f 2/12/4 1/13/4 7/14/4
f 7/14/4 8/15/4 2/12/4
f 3/16/5 2/2/5 8/17/5
f 8/17/5 5/18/5 3/16/5
f 9/19/6 10/20/6 11/21/6
f 11/21/6 12/22/6 9/19/6
f 10/23/7 13/24/7 14/25/7
f 14/25/7 11/26/7 10/23/7
f 13/24/8 15/27/8 16/28/8
f 16/28/8 14/25/8 13/24/8
f 15/27/9 17/29/9 18/30/9
f 18/30/9 16/28/9 15/27/9
f 17/29/10 19/31/10 20/32/10
f 20/32/10 18/30/10 17/29/10
f 19/33/11 21/34/11 22/35/11
f 22/35/11 20/36/11 19/33/11
f 21/34/12 23/37/12 24/38/12
f 24/38/12 22/35/12 21/34/12
f 23/37/13 9/19/13 12/22/13
f 12/22/13 24/38/13 23/37/13
f 12/39/14 11/40/14 14/41/14
f 14/41/14 16/42/14 18/43/14
f 18/43/14 20/44/14 22/45/14
f 14/41/14 18/43/14 22/45/14
f 12/39/14 14/41/14 22/45/14
f 24/46/14 12/39/14 22/45/14
f 25/47/6 26/48/6 27/49/6
f 27/49/6 28/50/6 25/47/6
f 26/51/7 29/52/7 30/53/7
f 30/53/7 27/54/7 26/51/7
f 29/52/8 31/55/8 32/56/8
f 32/56/8 30/53/8 29/52/8
f 31/55/9 33/57/9 34/58/9
f 34/58/9 32/56/9 31/55/9
f 33/57/10 35/59/10 36/60/10
f 36/60/10 34/58/10 33/57/10
f 35/61/11 37/62/11 38/63/11
f 38/63/11 36/64/11 35/61/11
f 37/62/12 39/65/12 40/66/12
f 40/66/12 38/63/12 37/62/12
f 39/65/13 25/47/13 28/50/13
f 28/50/13 40/66/13 39/65/13
f 28/67/14 27/68/14 30/69/14
f 30/69/14 32/70/14 34/71/14
f 34/71/14 36/72/14 38/73/14
f 30/69/14 34/71/14 38/73/14
f 28/67/14 30/69/14 38/73/14
f 40/74/14 28/67/14 38/73/14
f 41/75/15 42/76/15 43/77/15
f 43/77/15 44/78/15 41/75/15
f 42/79/16 45/80/16 46/81/16
f 46/81/16 43/82/16 42/79/16
f 45/80/17 47/83/17 48/84/17
f 48/84/17 46/81/17 45/80/17
f 47/83/18 49/85/18 50/86/18
f 50/86/18 48/84/18 47/83/18
f 49/85/19 51/87/19 52/88/19
f 52/88/19 50/86/19 49/85/19
f 51/89/20 53/90/20 54/91/20
f 54/91/20 52/92/20 51/89/20
f 53/90/21 55/93/21 56/94/21
f 56/94/21 54/91/21 53/90/21
f 55/93/22 41/75/22 44/78/22
f 44/78/22 56/94/22 55/93/22
f 44/95/23 43/96/23 46/97/23
f 46/97/23 48/98/23 50/99/23
f 50/99/23 52/100/23 54/101/23
f 46/97/23 50/99/23 54/101/23
f 44/95/23 46/97/23 54/101/23
f 56/102/23 44/95/23 54/101/23
f 57/103/1 58/104/1 59/105/1
f 59/105/1 60/106/1 57/103/1
f 60/107/24 59/108/24 61/109/24
f 61/109/24 62/110/24 60/107/24
f 57/111/25 60/112/25 62/113/25
f 62/113/25 63/114/25 57/111/25
f 59/115/26 58/116/26 64/117/26
f 64/117/26 61/118/26 59/115/26
f 65/119/27 66/120/27 67/121/27
f 67/121/27 68/122/27 65/119/27
f 68/123/28 67/124/28 69/125/28
f 69/125/28 70/126/28 68/123/28
f 65/127/29 68/128/29 70/129/29
f 70/129/29 71/130/29 65/127/29
f 67/131/30 66/132/30 72/133/30
f 72/133/30 69/134/30 67/131/30
f 73/135/1 74/136/1 75/137/1
f 75/137/1 76/138/1 73/135/1
f 76/139/24 75/140/24 77/141/24
f 77/141/24 78/142/24 76/139/24
f 73/143/25 76/144/25 78/145/25
f 78/145/25 79/146/25 73/143/25
f 75/147/26 74/148/26 80/149/26
f 80/149/26 77/150/26 75/147/26
f 81/151/1 82/152/1 83/153/1
f 83/153/1 84/154/1 81/151/1
f 84/155/31 83/156/31 85/157/31
f 85/157/31 86/158/31 84/155/31
f 81/159/32 84/160/32 86/161/32
f 86/161/32 87/162/32 81/159/32
f 83/163/33 82/164/33 88/165/33
f 88/165/33 85/166/33 83/163/33
f 89/167/1 90/168/1 91/169/1
f 91/169/1 92/170/1 89/167/1
f 92/171/31 91/172/31 93/173/31
f 93/173/31 94/174/31 92/171/31
f 89/175/32 92/176/32 94/177/32
f 94/177/32 95/178/32 89/175/32
f 91/179/33 90/180/33 96/181/33
f 96/181/33 93/182/33 91/179/33
f 97/183/1 98/184/1 99/185/1
f 99/185/1 100/186/1 97/183/1
f 100/187/34 99/188/34 101/189/34
f 101/189/34 102/190/34 100/187/34
f 97/191/35 100/192/35 102/193/35
f 102/193/36 103/194/36 97/191/36
f 99/195/37 98/196/38 104/197/38
f 104/197/38 101/198/37 99/195/37
f 105/199/1 106/200/1 107/201/1
f 107/201/1 108/202/1 105/199/1
f 108/203/34 107/204/34 109/205/34
f 109/205/34 110/206/34 108/203/34
f 105/207/35 108/208/35 110/209/35
f 110/209/36 111/210/36 105/207/36
f 107/211/37 106/212/37 112/213/37
f 112/213/37 109/214/37 107/211/37
f 113/215/39 114/216/39 115/217/39
f 115/217/39 116/218/39 113/215/39
f 114/219/40 117/220/40 118/221/40
f 118/221/40 115/222/40 114/219/40
f 117/220/41 119/223/41 120/224/41
f 120/224/41 118/221/41 117/220/41
f 119/223/42 121/225/42 122/226/42
f 122/226/42 120/224/42 119/223/42
f 121/225/43 123/227/43 124/228/43
f 124/228/43 122/226/43 121/225/43
f 123/229/44 125/230/44 126/231/44
f 126/231/44 124/232/44 123/229/44
f 125/230/45 127/233/45 128/234/45
f 128/234/45 126/231/45 125/230/45
f 127/233/46 113/215/46 116/218/46
f 116/218/46 128/234/46 127/233/46
f 116/235/47 115/236/47 118/237/47
f 118/237/47 120/238/47 122/239/47
f 122/239/47 124/240/47 126/241/47
f 118/237/47 122/239/47 126/241/47
f 116/235/47 118/237/47 126/241/47
f 128/242/47 116/235/47 126/241/47
f 129/243/1 130/244/1 131/245/1
f 131/245/1 132/246/1 129/243/1
f 132/247/48 131/248/48 133/249/48
f 133/249/48 134/250/48 132/247/48
f 129/243/49 132/251/49 134/252/49
f 134/252/49 135/253/49 129/243/49
f 130/254/50 129/255/50 135/256/50
f 135/256/50 136/257/50 130/254/50
f 131/258/51 130/244/51 136/259/51
f 136/259/51 133/260/51 131/258/51
f 137/261/1 138/262/1 139/263/1
f 139/263/1 140/264/1 137/261/1
f 140/265/52 139/266/52 141/267/52
f 141/267/52 142/268/52 140/265/52
f 137/261/53 140/269/53 142/270/53
f 142/270/53 143/271/53 137/261/53
f 138/272/54 137/273/54 143/274/54
f 143/274/54 144/275/54 138/272/54
f 139/276/55 138/262/55 144/277/55
f 144/277/55 141/278/55 139/276/55
f 145/279/56 146/280/56 147/281/56
f 147/281/56 148/282/56 145/279/56
f 146/283/56 149/284/56 150/285/56
f 150/285/56 147/286/56 146/283/56
f 149/287/56 151/288/56 152/289/56
f 152/289/56 150/290/56 149/287/56
f 153/291/57 154/292/57 155/293/57
f 155/293/57 156/294/57 153/291/57
f 154/295/57 157/296/57 158/297/57
f 158/297/57 155/298/57 154/295/57
f 157/299/57 159/300/57 160/301/57
f 160/301/57 158/302/57 157/299/57
f 161/303/58 162/304/58 163/305/58
f 163/305/58 164/306/58 161/303/58
f 162/307/58 165/308/58 166/309/58
f 166/309/58 163/310/58 162/307/58
f 165/311/58 167/312/58 168/313/58
f 168/313/58 166/314/58 165/311/58
f 169/315/59 170/316/59 171/317/59
f 171/317/59 172/318/59 169/315/59
f 170/319/59 173/320/59 174/321/59
f 174/321/59 171/322/59 170/319/59
f 173/323/59 175/324/59 176/325/59
f 176/325/59 174/326/59 173/323/59
f 177/327/60 178/328/60 179/329/60
f 179/329/60 180/330/60 177/327/60
f 178/331/60 181/332/60 182/333/60
f 182/333/60 179/334/60 178/331/60
f 181/335/60 183/336/60 184/337/60
f 184/337/60 182/338/60 181/335/60
f 185/339/59 186/340/59 187/341/59
f 187/341/59 188/342/59 185/339/59
f 186/343/59 189/344/59 190/345/59
f 190/345/59 187/346/59 186/343/59
f 189/347/59 191/348/59 192/349/59
f 192/349/59 190/350/59 189/347/59
f 193/351/56 194/352/56 195/353/56
f 195/353/56 196/354/56 193/351/56
f 194/355/56 197/356/56 198/357/56
f 198/357/56 195/358/56 194/355/56
f 197/359/56 199/360/56 200/361/56
f 200/361/56 198/362/56 197/359/56
