# Blender v2.82 (sub 7) OBJ File: 'village_e3.blend'
# www.blender.org
mtllib terrain.mtl
v 3.597113 0.268218 28.783049
v 7.799819 0.007874 32.539444
v 11.760773 -0.103702 35.923920
v 0.770511 0.007874 18.164721
v 1.960659 0.007874 23.408796
v 6.498089 0.007874 21.288849
v 15.591554 -0.271066 32.725403
v 0.342798 0.175239 13.162390
v 4.824440 0.175238 11.860664
v 2.685892 0.175239 2.488267
v 2.481332 0.007874 -2.290911
v 3.318146 0.007874 -11.812077
v 2.685884 0.007874 -7.070092
v 0.770483 0.007874 -22.746538
v -0.810175 0.007874 -17.762804
v 4.024793 0.007874 -16.479681
v 5.456684 0.007874 -21.035707
v 2.332542 0.007874 -34.443439
v 6.665419 0.007874 -31.932980
v 5.865794 0.007874 -25.889271
v 10.496193 0.007874 -40.728905
v 10.012701 0.007875 -35.522018
v 14.326978 0.007874 -37.511791
v 7.911391 0.007874 26.272581
v 11.909538 0.007874 29.657059
v 0.194042 2.016245 30.103371
v 3.225197 0.007874 34.882549
v 6.665464 1.235212 39.364185
v -8.471704 -0.073104 35.105709
v -0.996094 2.838941 45.779819
v -4.585144 1.394300 19.875559
v -13.976135 0.742199 23.297232
v -2.409406 2.016246 25.101040
v -32.776714 3.439288 30.121990
v -16.300615 0.830570 58.648281
v 5.456708 0.007874 16.453882
v 9.510641 0.100855 14.743044
v 11.184285 0.416986 18.759787
v 13.192660 0.416987 22.609163
v 15.517165 0.416987 26.272577
v 18.157803 0.416987 29.712837
v 21.839808 1.917942 17.606825
v 18.920227 0.007874 11.321369
v 25.819361 1.917941 23.297205
v 37.702213 3.781542 4.478019
v 41.142479 1.118312 10.428747
v -1.368039 0.007874 8.067078
v 3.783059 0.007875 7.193060
v -7.504727 0.305411 8.959690
v -6.277387 0.911385 14.482712
v -16.745073 -0.185528 10.689129
v -8.490325 0.007874 -2.290905
v -18.494986 1.105040 -2.290898
v -8.248572 0.007874 3.362287
v -38.485718 4.524450 -2.290884
v -2.521000 0.007874 -2.290908
v -2.297844 0.007874 2.915979
v 6.516669 0.324007 -2.290914
v 6.702633 0.007874 2.041960
v 7.260518 0.621543 6.356238
v 8.208915 0.007874 10.596132
v 17.116409 0.644136 4.626802
v 16.521334 0.007874 -2.290921
v 36.512058 0.960269 -2.290934
v -1.609801 0.007874 -12.667492
v -2.297851 0.007874 -7.497796
v -7.504743 0.007874 -13.541502
v -8.248580 0.007874 -7.944097
v -17.342041 1.679258 -15.270926
v -4.585173 0.007874 -24.457369
v -13.976170 0.007874 -27.879034
v -6.277407 0.160126 -19.064522
v -32.776760 3.780610 -34.703762
v 9.510618 0.416987 -19.324877
v 8.208899 0.007874 -15.177961
v 7.260505 0.007875 -10.938068
v 6.702627 0.007874 -6.623789
v 17.116402 0.695927 -9.208643
v 18.920212 0.249623 -15.903214
v 37.702198 1.644325 -9.059889
v 1.328362 0.007874 -28.009214
v -1.535432 0.714524 -35.745163
v -2.409442 0.007875 -29.682858
v -8.471753 0.621634 -39.687511
v 6.665412 1.421172 -43.946018
v -0.996157 0.621635 -50.361637
v 1.514314 0.007874 -40.505745
v -16.300695 3.113503 -63.230083
v 5.921573 0.007874 -38.404400
v 16.688673 1.848881 -35.652191
v 13.601736 0.919079 -31.988771
v 11.388811 0.733119 -28.567102
v 11.184258 0.733120 -23.341619
v 19.794218 0.695928 -23.564777
v 23.996916 0.007875 -29.329548
v 41.142464 2.239398 -15.010618
vt 0.605469 1.421875
vt 0.503906 1.546875
vt 0.472656 1.371094
vt 0.375000 1.488281
vt 0.632812 1.257812
vt 0.488281 1.214844
vt 0.636719 1.089844
vt 0.496094 1.074219
vt 0.402344 1.667969
vt 0.273438 1.597656
vt 0.648438 0.789062
vt 0.625000 0.945312
vt 0.492188 0.789062
vt 0.492188 0.929688
vt 0.652344 0.636719
vt 0.500000 0.648438
vt 0.632812 0.480469
vt 0.484375 0.503906
vt 0.554688 0.179688
vt 0.597656 0.324219
vt 0.417969 0.230469
vt 0.453125 0.367188
vt 0.507812 0.031250
vt 0.367188 0.093750
vt 0.433594 -0.109375
vt 0.304688 -0.031250
vt 0.328125 -0.437500
vt 0.390625 -0.253906
vt 0.214844 -0.347656
vt 0.269531 -0.179688
vt 0.199219 -0.539062
vt 0.097656 -0.437500
vt 0.058594 -0.585938
vt -0.039062 -0.468750
vt 0.714844 1.441406
vt 0.652344 1.597656
vt 0.570312 1.742188
vt 0.992188 1.546875
vt 0.832031 1.898438
vt 0.800781 1.113281
vt 1.101562 1.171875
vt 0.765625 1.285156
vt 1.859375 1.171875
vt 2.441406 1.277344
vt 1.750000 1.546875
vt 2.101562 2.199219
vt 1.589844 1.898438
vt 0.367188 1.039062
vt 0.339844 1.164062
vt 0.300781 1.289062
vt 0.246094 1.406250
vt 0.183594 1.519531
vt 0.015625 1.187500
vt 0.074219 0.992188
vt -0.066406 1.371094
vt -0.121094 0.878906
vt 0.406250 1.187500
vt -0.195312 1.066406
vt 0.324219 1.371094
vt 0.832031 0.789062
vt 0.828125 0.949219
vt 1.117188 0.789062
vt 0.812500 0.445312
vt 1.101562 0.398438
vt 0.828125 0.621094
vt 1.859375 0.398438
vt 2.441406 0.300781
vt 1.875000 0.789062
vt 0.371094 0.523438
vt 0.382812 0.644531
vt 0.386719 0.789062
vt 0.382812 0.910156
vt 0.085938 0.777344
vt 0.070312 0.574219
vt -0.125000 0.671875
vt 0.476562 0.777344
vt 0.464844 0.992188
vt 0.722656 0.121094
vt 0.769531 0.285156
vt 1.003906 0.019531
vt 0.582031 -0.179688
vt 0.843750 -0.328125
vt 0.660156 -0.035156
vt 1.359375 -0.625000
vt 2.117188 -0.625000
vt 1.761719 0.019531
vt 0.195312 0.039062
vt 0.253906 0.148438
vt 0.300781 0.277344
vt 0.339844 0.398438
vt 0.019531 0.371094
vt -0.062500 0.183594
vt -0.191406 0.484375
vt 0.410156 0.371094
vt 0.460938 0.574219
vt 0.437500 -0.496094
vt 0.488281 -0.320312
vt 0.621094 -0.648438
vt 0.152344 -0.699219
vt 0.347656 -0.921875
vt 0.324219 -0.625000
vt 0.734375 -1.378906
vt -0.101562 -0.402344
vt 0.011719 -0.312500
vt 0.093750 -0.218750
vt 0.121094 -0.074219
vt -0.128906 -0.031250
vt -0.281250 -0.183594
vt -0.320312 0.324219
vt 0.261719 -0.031250
vt 0.328125 0.183594
vt 0.109375 -0.183594
vn 0.0609 0.9981 0.0011
vn -0.0000 1.0000 -0.0000
vn -0.0198 0.9989 -0.0424
vn 0.0517 0.9986 -0.0147
vn 0.0127 0.9998 0.0181
vn 0.0596 0.9980 0.0192
vn -0.0053 0.9995 -0.0311
vn -0.0095 0.9994 -0.0339
vn -0.0095 0.9994 -0.0337
vn -0.0098 0.9994 -0.0337
vn -0.0331 0.9994 0.0060
vn 0.0058 0.9994 0.0342
vn -0.0364 0.9988 -0.0334
vn 0.0820 0.9963 0.0263
vn 0.1531 0.9880 0.0218
vn 0.0111 0.9994 0.0336
vn 0.0127 0.9993 0.0347
vn 0.4762 0.8768 0.0665
vn 0.0225 0.9988 0.0440
vn -0.0983 0.9765 -0.1919
vn 0.1555 0.9764 -0.1498
vn 0.0010 0.9221 0.3869
vn -0.0116 0.9667 -0.2556
vn -0.0118 0.9667 -0.2557
vn -0.0972 0.9922 -0.0776
vn -0.1282 0.9835 0.1277
vn -0.1815 0.9788 0.0945
vn 0.1248 0.9910 -0.0480
vn 0.1253 0.9910 -0.0465
vn 0.1427 0.9898 0.0018
vn 0.1412 0.9899 0.0090
vn -0.2200 0.9692 -0.1104
vn 0.1877 0.9631 -0.1928
vn 0.3876 0.9176 -0.0880
vn 0.3512 0.9183 -0.1828
vn 0.3992 0.9019 -0.1652
vn -0.0210 0.9998 0.0045
vn -0.1053 0.9938 -0.0343
vn -0.0755 0.9969 0.0214
vn -0.0568 0.9979 0.0296
vn -0.0425 0.9978 0.0502
vn -0.0708 0.9965 0.0449
vn -0.0132 0.9943 0.1062
vn -0.1389 0.9846 0.1066
vn -0.1593 0.9627 -0.2186
vn -0.0162 0.9973 -0.0717
vn -0.1250 0.9891 0.0783
vn -0.1228 0.9891 0.0816
vn -0.1199 0.9892 0.0839
vn -0.1179 0.9889 0.0905
vn 0.1595 0.9322 0.3250
vn 0.0328 0.9992 -0.0230
vn 0.0313 0.9928 -0.1159
vn 0.0974 0.9931 -0.0653
vn 0.0869 0.9895 -0.1159
vn 0.2538 0.9672 0.0107
vn -0.0702 0.9932 -0.0934
vn -0.0844 0.9949 -0.0547
vn -0.0910 0.9940 -0.0604
vn 0.1090 0.9940 -0.0000
vn 0.1090 0.9940 -0.0047
vn 0.1304 0.9882 0.0807
vn 0.1093 0.9905 0.0837
vn 0.0561 0.9942 0.0913
vn -0.0614 0.9971 -0.0448
vn 0.1681 0.9829 0.0751
vn 0.2146 0.9767 -0.0051
vn 0.1070 0.9896 -0.0963
vn -0.0039 0.9986 -0.0526
vn 0.0472 0.9988 -0.0085
vn -0.0781 0.9964 -0.0316
vn 0.0494 0.9963 0.0706
vn 0.0444 0.9987 0.0252
vn -0.1989 0.9735 -0.1127
vn -0.1730 0.9849 0.0033
vn 0.0944 0.9880 0.1219
vn 0.0590 0.9898 0.1300
vn 0.0492 0.9900 0.1322
vn 0.0598 0.9978 0.0281
vn -0.0286 0.9995 -0.0134
vn -0.0389 0.9953 -0.0882
vn 0.0315 0.9970 0.0714
vn -0.0065 0.9953 0.0964
vn 0.0016 0.9997 -0.0229
vn -0.1431 0.9222 -0.3592
vn -0.1484 0.9799 0.1331
vn 0.0683 0.9976 0.0091
vn 0.0414 0.9991 0.0055
vn 0.1637 0.9863 0.0218
vn 0.1367 0.9890 0.0559
vn 0.1090 0.9940 0.0047
vn 0.0087 0.9996 -0.0255
vn 0.0092 0.9996 -0.0253
vn 0.0043 0.9996 -0.0269
vn 0.1000 0.9895 -0.1045
vn 0.1566 0.9857 0.0620
vn 0.2207 0.9728 -0.0701
vn 0.1339 0.9910 0.0008
vn 0.1683 0.9840 0.0585
vn 0.0082 0.9996 -0.0257
vn 0.0259 0.9996 0.0082
vn 0.0202 0.9993 0.0320
vn -0.0887 0.9957 -0.0279
vn -0.0278 0.9956 0.0895
vn -0.0169 0.9955 0.0928
vn -0.0262 0.9956 0.0900
vn -0.0779 0.9941 -0.0759
vn -0.0275 0.9969 -0.0739
vn -0.0162 0.9955 0.0931
vn -0.0421 0.9946 0.0953
vn 0.0315 0.9970 -0.0714
vn -0.0465 0.9946 0.0923
vn -0.0474 0.9944 0.0948
vn 0.1371 0.9825 0.1260
vn 0.1343 0.9819 0.1338
vn 0.1347 0.9820 0.1327
vn 0.0021 0.9999 0.0133
vn -0.0730 0.9918 0.1051
vn 0.0087 0.9984 0.0560
vn 0.0058 0.9993 0.0370
vn -0.1939 0.9748 0.1101
vn 0.0650 0.9968 0.0455
vn 0.0516 0.9921 -0.1142
vn 0.1017 0.9923 0.0712
vn 0.1258 0.9901 0.0629
vn 0.1257 0.9901 0.0629
vn 0.1403 0.9884 0.0579
vn 0.1525 0.9807 0.1221
vn 0.0098 0.9197 0.3924
vn 0.0538 0.9922 -0.1128
vn 0.1376 0.9826 0.1246
vn -0.2373 0.8240 -0.5145
vn -0.2654 0.9639 0.0210
vn -0.1302 0.9840 -0.1215
vn -0.1304 0.9910 -0.0305
vn -0.1389 0.9901 -0.0184
vn -0.1327 0.9911 -0.0058
vn -0.1304 0.9914 -0.0106
vn -0.1327 0.9911 -0.0052
vn -0.1300 0.9915 -0.0110
vn -0.1133 0.9931 0.0310
vn 0.0990 0.9940 -0.0465
vn 0.0181 0.9654 0.2602
vn 0.0058 0.9983 0.0588
vn -0.0094 0.9972 0.0746
vn -0.0908 0.9948 0.0470
vn -0.0909 0.9947 0.0471
vn -0.0908 0.9948 0.0471
vn -0.0912 0.9947 0.0475
vn -0.2537 0.9520 -0.1714
vn -0.1319 0.9889 0.0688
vn -0.1287 0.9889 0.0742
vn -0.0474 0.9950 -0.0874
vn -0.0264 0.9902 -0.1374
vn 0.0220 0.9901 0.1384
vn -0.0453 0.9959 -0.0786
vn -0.0676 0.9976 -0.0119
vn -0.0670 0.9976 -0.0150
vn -0.0681 0.9976 -0.0088
vn -0.0188 0.9911 -0.1320
vn -0.0201 0.9989 0.0413
vn 0.0043 1.0000 0.0002
usemtl terrain
s 1
f 1/1/1 2/2/1 24/3/1
f 2/2/2 25/4/2 24/3/2
f 5/5/3 1/1/3 6/6/3
f 1/1/4 24/3/4 6/6/4
f 4/7/2 5/5/2 36/8/2
f 5/5/2 6/6/2 36/8/2
f 2/2/5 3/9/5 25/4/5
f 3/9/6 7/10/6 25/4/6
f 47/11/7 8/12/8 48/13/9
f 8/12/8 9/14/10 48/13/9
f 57/15/11 47/11/11 10/16/11
f 47/11/12 48/13/12 10/16/12
f 56/17/2 57/15/2 11/18/2
f 57/15/13 10/16/13 11/18/13
f 8/12/14 4/7/15 9/14/16
f 4/7/15 36/8/17 9/14/16
f 65/19/2 66/20/2 12/21/2
f 66/20/2 13/22/2 12/21/2
f 15/23/2 65/19/2 16/24/2
f 65/19/2 12/21/2 16/24/2
f 14/25/2 15/23/2 17/26/2
f 15/23/2 16/24/2 17/26/2
f 66/20/2 56/17/2 13/22/2
f 56/17/2 11/18/2 13/22/2
f 18/27/2 81/28/2 19/29/2
f 81/28/2 20/30/2 19/29/2
f 89/31/2 18/27/2 22/32/2
f 18/27/2 19/29/2 22/32/2
f 21/33/2 89/31/2 23/34/2
f 89/31/2 22/32/2 23/34/2
f 81/28/2 14/25/2 20/30/2
f 14/25/2 17/26/2 20/30/2
f 26/35/18 27/36/18 1/1/18
f 27/36/19 2/2/19 1/1/19
f 27/36/20 28/37/20 2/2/20
f 28/37/21 3/9/21 2/2/21
f 26/35/22 29/38/22 27/36/22
f 29/38/23 30/39/23 27/36/23
f 27/36/24 30/39/24 28/37/24
f 31/40/25 32/41/25 33/42/25
f 32/41/26 29/38/26 33/42/26
f 33/42/27 29/38/27 26/35/27
f 32/43/28 34/44/29 29/45/30
f 34/44/31 35/46/31 29/45/31
f 29/45/32 35/46/32 30/47/32
f 31/40/33 33/42/33 4/7/33
f 33/42/34 5/5/34 4/7/34
f 33/42/35 26/35/35 5/5/35
f 26/35/36 1/1/36 5/5/36
f 36/8/37 6/6/37 37/48/37
f 6/6/38 38/49/38 37/48/38
f 6/6/39 24/3/39 38/49/39
f 24/3/40 39/50/40 38/49/40
f 24/3/41 25/4/41 39/50/41
f 25/4/42 40/51/42 39/50/42
f 25/4/43 7/10/43 40/51/43
f 7/10/44 41/52/44 40/51/44
f 42/53/45 43/54/45 38/49/45
f 43/54/46 37/48/46 38/49/46
f 42/53/47 40/51/48 44/55/49
f 40/51/50 41/52/50 44/55/50
f 45/56/51 42/57/51 46/58/51
f 42/57/52 44/59/52 46/58/52
f 49/60/53 50/61/53 47/11/53
f 50/61/54 8/12/54 47/11/54
f 50/61/55 31/40/55 8/12/55
f 31/40/56 4/7/15 8/12/14
f 49/60/57 51/62/57 50/61/57
f 51/62/58 32/41/58 50/61/58
f 50/61/59 32/41/59 31/40/59
f 52/63/60 53/64/60 54/65/61
f 53/64/62 51/62/63 54/65/64
f 54/65/65 51/62/65 49/60/65
f 53/66/62 55/67/66 51/68/63
f 55/67/67 34/44/67 51/68/67
f 51/68/68 34/44/29 32/43/28
f 52/63/2 54/65/2 56/17/2
f 54/65/2 57/15/2 56/17/2
f 54/65/69 49/60/69 57/15/69
f 49/60/70 47/11/70 57/15/70
f 11/18/71 10/16/71 58/69/71
f 10/16/72 59/70/72 58/69/72
f 10/16/73 48/13/73 59/70/73
f 48/13/74 60/71/74 59/70/74
f 48/13/75 9/14/75 60/71/75
f 9/14/76 61/72/77 60/71/78
f 9/14/79 36/8/79 61/72/79
f 36/8/80 37/48/80 61/72/80
f 62/73/81 63/74/81 59/70/81
f 63/74/82 58/69/82 59/70/82
f 62/73/83 61/72/83 43/54/83
f 61/72/84 37/48/84 43/54/84
f 64/75/85 62/76/85 45/56/85
f 62/76/86 43/77/86 45/56/86
f 67/78/87 68/79/88 65/19/2
f 68/79/88 66/20/2 65/19/2
f 68/79/88 52/63/2 66/20/2
f 52/63/2 56/17/2 66/20/2
f 67/78/87 69/80/89 68/79/88
f 69/80/90 53/64/90 68/79/90
f 68/79/91 53/64/60 52/63/60
f 70/81/92 71/82/93 72/83/94
f 71/82/95 69/80/95 72/83/95
f 72/83/96 69/80/96 67/78/96
f 71/82/97 73/84/97 69/80/97
f 73/85/98 55/67/98 69/86/98
f 69/86/99 55/67/99 53/66/99
f 70/81/92 72/83/94 14/25/100
f 72/83/101 15/23/101 14/25/101
f 72/83/102 67/78/102 15/23/102
f 67/78/87 65/19/2 15/23/2
f 17/26/103 16/24/103 74/87/103
f 16/24/104 75/88/105 74/87/106
f 16/24/2 12/21/2 75/88/2
f 12/21/2 76/89/2 75/88/2
f 12/21/2 13/22/2 76/89/2
f 13/22/2 77/90/2 76/89/2
f 13/22/2 11/18/2 77/90/2
f 11/18/107 58/69/107 77/90/107
f 78/91/108 79/92/108 75/88/108
f 79/92/109 74/87/106 75/88/105
f 78/91/110 77/90/110 63/74/110
f 77/90/111 58/69/111 63/74/111
f 80/93/112 78/94/112 64/75/112
f 78/94/113 63/95/113 64/75/113
f 82/96/114 83/97/115 18/27/116
f 83/97/117 81/28/2 18/27/2
f 83/97/117 70/81/2 81/28/2
f 70/81/2 14/25/2 81/28/2
f 82/96/118 84/98/118 83/97/118
f 84/98/119 71/82/120 83/97/117
f 83/97/117 71/82/120 70/81/2
f 85/99/121 86/100/121 87/101/121
f 86/100/122 84/98/122 87/101/122
f 87/101/123 84/98/123 82/96/123
f 86/100/124 88/102/125 84/98/126
f 88/102/125 73/84/127 84/98/126
f 84/98/128 73/84/128 71/82/128
f 85/99/129 87/101/129 21/33/129
f 87/101/2 89/31/2 21/33/2
f 87/101/130 82/96/130 89/31/130
f 82/96/114 18/27/116 89/31/131
f 23/34/132 22/32/132 90/103/132
f 22/32/133 91/104/133 90/103/133
f 22/32/134 19/29/134 91/104/134
f 19/29/135 92/105/135 91/104/135
f 19/29/136 20/30/136 92/105/136
f 20/30/137 93/106/138 92/105/139
f 20/30/137 17/26/140 93/106/138
f 17/26/141 74/87/141 93/106/141
f 94/107/142 95/108/142 91/104/142
f 95/108/143 90/103/143 91/104/143
f 94/107/144 93/106/144 79/92/144
f 93/106/145 74/87/145 79/92/145
f 96/109/146 94/110/147 80/93/148
f 94/110/147 79/111/149 80/93/148
f 42/57/150 45/56/150 43/77/150
f 42/53/47 38/49/151 39/50/152
f 40/51/48 42/53/47 39/50/152
f 62/76/153 64/75/153 63/95/153
f 62/73/154 59/70/154 60/71/154
f 61/72/77 62/73/155 60/71/78
f 78/94/156 80/93/156 79/111/156
f 78/91/157 75/88/158 76/89/157
f 77/90/159 78/91/157 76/89/157
f 94/110/160 96/109/160 95/112/160
f 94/107/161 91/104/161 92/105/161
f 93/106/162 94/107/162 92/105/162
