# Blender v3.2.1 OBJ File: ''
# www.blender.org
mtllib props_texobj1.mtl
v 0.185613 1.100000 -0.129514
v 0.038668 -0.000000 0.485634
v 2.031057 -0.000000 0.311322
v 1.814387 1.100000 0.129515
v 1.961332 0.000000 -0.485634
v -0.031057 0.000000 -0.311322
v 1.779525 1.100000 -0.268963
v 0.220475 1.100000 0.268964
v 4.683350 1.100000 0.461555
v 4.820158 1.100000 0.085678
v 4.802885 -0.000000 0.717897
v 5.076501 0.000000 -0.033857
v 3.316650 1.100000 -0.461554
v 3.197115 0.000000 -0.717897
v 2.923499 -0.000000 0.033857
v 3.179842 1.100000 -0.085677
v 6.746410 -0.000000 2.646410
v 6.453590 -0.000000 1.553590
v 6.900000 2.000000 1.580385
v 6.053590 -0.000000 2.246410
v 7.146410 -0.000000 1.953590
v 7.419615 2.000000 1.880385
v 6.526795 3.800000 1.826795
v 5.160769 6.200000 2.192821
v 4.187564 8.599999 3.478462
v 6.953590 5.000000 0.687565
v 6.326795 4.200000 2.173206
v 6.873205 4.000000 2.026796
v 7.400000 4.800000 0.714360
v 8.100000 7.800000 -0.498075
v 7.153590 4.600000 0.341155
v 7.466025 5.400000 2.600001
v 7.539230 5.200000 2.873206
v 7.266025 5.200000 2.946411
v 7.458846 6.200000 4.212437
v 7.658845 6.400000 3.866026
v 8.544486 9.400000 5.532053
v 7.732050 6.200000 4.139232
v 7.546410 6.600000 1.260771
v 7.746410 6.800000 0.914360
v 8.212436 7.800000 2.107181
v 8.871281 7.799999 4.566027
v 4.887564 6.000000 2.266026
v 4.880384 7.000000 3.878462
v 5.087564 6.200000 1.919616
v 7.819615 6.600000 1.187566
v 8.266026 9.000000 1.214361
v 6.700000 2.200000 1.926795
v 6.673205 4.000000 2.373206
v 7.219615 2.000000 2.226795
v 5.052032 1.999998 9.873422
v 3.224123 1.999999 8.463192
v 5.205769 0.399998 10.035795
v 5.479385 1.299999 9.284040
v 5.205769 1.299998 10.035795
v 1.540968 0.499999 8.701916
v 2.848246 1.299999 8.326385
v 3.078678 1.999998 9.155179
v 1.925482 -0.000001 8.522614
v 1.822876 -0.000001 8.804523
v 2.386691 -0.000001 9.009734
v 2.480660 0.399999 9.043937
v 4.172107 -0.000002 9.659573
v 4.078138 0.399998 9.625371
v 4.180744 0.399998 9.343463
v 4.274713 -0.000002 9.377665
v 4.932498 0.399998 9.617079
v 4.829892 0.399998 9.898987
v 4.735923 -0.000002 9.864784
v 1.540968 1.199999 8.701916
v 2.668599 1.299999 9.112340
v 5.291447 1.999998 9.215636
v 5.530861 1.999999 8.557852
v 5.411326 0.399999 8.301509
v 5.479385 0.399998 9.284040
v 5.787203 0.399999 8.438317
v 2.122402 1.199999 7.104439
v 1.720615 1.199999 7.915960
v 3.557506 1.999999 7.839610
v 2.404310 -0.000001 7.207045
v 2.301704 -0.000001 7.488953
v 3.062095 0.399999 7.446459
v 2.959489 0.399999 7.728367
v 2.865520 -0.000001 7.694165
v 4.753541 -0.000001 8.062095
v 4.556966 0.399999 8.309801
v 5.214751 -0.000001 8.549215
v 4.650935 -0.000001 8.344003
v 2.968125 -0.000001 7.412257
v 5.317357 -0.000001 8.267307
v 2.310341 0.399999 7.172843
v 5.787203 1.299999 8.438317
v 4.659572 0.399999 8.027893
v 3.250033 1.299999 7.514863
v 2.122402 0.499999 7.104439
v 1.720615 0.499999 7.915960
v 1.728906 0.399999 8.770320
v 1.831512 0.399999 8.488413
v 2.207735 0.399999 7.454751
v 5.308720 0.399999 8.583417
v 2.489297 -0.000001 8.727826
v 2.583266 0.399999 8.762029
v 4.838529 -0.000002 9.582877
vt 0.500000 0.090000
vt 0.255000 0.090000
vt 0.255000 0.125000
vt 0.500000 0.125000
vt 0.250000 0.000000
vt 0.495000 0.000000
vt 0.470000 0.125000
vt 0.275000 0.125000
vt 0.460000 0.000000
vt 0.335000 0.000000
vt 0.365000 0.125000
vt 0.425000 0.125000
vt 0.495000 0.000000
vt 0.250000 0.000000
vt 0.275000 0.125000
vt 0.470000 0.125000
vt 0.335000 0.000000
vt 0.460000 0.000000
vt 0.425000 0.125000
vt 0.365000 0.125000
vt 0.500000 0.090000
vt 0.255000 0.090000
vt 0.255000 0.125000
vt 0.500000 0.125000
vt 0.250000 0.000000
vt 0.495000 0.000000
vt 0.470000 0.125000
vt 0.275000 0.125000
vt 0.460000 0.000000
vt 0.335000 0.000000
vt 0.365000 0.125000
vt 0.425000 0.125000
vt 0.495000 0.000000
vt 0.250000 0.000000
vt 0.275000 0.125000
vt 0.470000 0.125000
vt 0.335000 0.000000
vt 0.460000 0.000000
vt 0.425000 0.125000
vt 0.365000 0.125000
vt 0.360000 0.585000
vt 0.320000 0.585000
vt 0.320000 0.550000
vt 0.360000 0.550000
vt 0.320000 0.605000
vt 0.340000 0.525000
vt 0.370000 0.530000
vt 0.360000 0.605000
vt 0.335000 0.525000
vt 0.375000 0.530000
vt 0.375000 0.610000
vt 0.345000 0.610000
vt 0.315000 0.520000
vt 0.355000 0.525000
vt 0.365000 0.600000
vt 0.335000 0.600000
vt 0.325000 0.605000
vt 0.340000 0.525000
vt 0.370000 0.525000
vt 0.365000 0.600000
vt 0.335000 0.515000
vt 0.370000 0.620000
vt 0.350000 0.620000
vt 0.320000 0.515000
vt 0.360000 0.515000
vt 0.360000 0.600000
vt 0.350000 0.620000
vt 0.345000 0.515000
vt 0.330000 0.610000
vt 0.340000 0.520000
vt 0.355000 0.535000
vt 0.350000 0.610000
vt 0.320000 0.615000
vt 0.365000 0.505000
vt 0.340000 0.615000
vt 0.335000 0.610000
vt 0.345000 0.520000
vt 0.350000 0.525000
vt 0.365000 0.605000
vt 0.330000 0.525000
vt 0.335000 0.595000
vt 0.335000 0.530000
vt 0.360000 0.545000
vt 0.350000 0.600000
vt 0.375000 0.535000
vt 0.340000 0.590000
vt 0.325000 0.600000
vt 0.355000 0.535000
vt 0.355000 0.540000
vt 0.355000 0.595000
vt 0.340000 0.595000
vt 0.340000 0.535000
vt 0.365000 0.510000
vt 0.355000 0.625000
vt 0.350000 0.515000
vt 0.345000 0.615000
vt 0.320000 0.520000
vt 0.365000 0.620000
vt 0.345000 0.510000
vt 0.340000 0.615000
vt 0.325000 0.515000
vt 0.365000 0.545000
vt 0.360000 0.600000
vt 0.330000 0.595000
vt 0.350000 0.545000
vt 0.340000 0.595000
vt 0.335000 0.540000
vt 0.350000 0.540000
vt 0.350000 0.595000
vt 0.325000 0.595000
vt 0.340000 0.540000
vt 0.360000 0.545000
vt 0.335000 0.600000
vt 0.340000 0.535000
vt 0.365000 0.590000
vt 0.350000 0.595000
vt 0.330000 0.535000
vt 0.330000 0.580000
vt 0.340000 0.530000
vt 0.355000 0.535000
vt 0.350000 0.585000
vt 0.340000 0.590000
vt 0.340000 0.540000
vt 0.355000 0.540000
vt 0.360000 0.590000
vt 0.325000 0.605000
vt 0.345000 0.515000
vt 0.340000 0.605000
vt 0.350000 0.520000
vt 0.355000 0.615000
vt 0.330000 0.520000
vt 0.335000 0.605000
vt 0.345000 0.505000
vt 0.355000 0.605000
vt 0.365000 0.515000
vt 0.355000 0.595000
vt 0.345000 0.580000
vt 0.345000 0.520000
vt 0.345000 0.605000
vt 0.345000 0.535000
vt 0.355000 0.525000
vt 0.365000 0.610000
vt 0.345000 0.600000
vt 0.340000 0.530000
vt 0.355000 0.530000
vt 0.355000 0.600000
vt 0.345000 0.580000
vt 0.335000 0.530000
vt 0.360000 0.580000
vt 0.370000 0.540000
vt 0.345000 0.595000
vt 0.350000 0.535000
vt 0.365000 0.540000
vt 0.345000 0.600000
vt 0.345000 0.535000
vt 0.350000 0.610000
vt 0.355000 0.520000
vt 0.365000 0.600000
vt 0.355000 0.520000
vt 0.350000 0.605000
vt 0.340000 0.525000
vt 0.360000 0.530000
vt 0.345000 0.610000
vt 0.345000 0.520000
vt 0.340000 0.590000
vt 0.350000 0.515000
vt 0.355000 0.595000
vt 0.350000 0.605000
vt 0.355000 0.525000
vt 0.365000 0.590000
vt 0.335000 0.595000
vt 0.345000 0.530000
vt 0.350000 0.595000
vt 0.335000 0.515000
vt 0.335000 0.610000
vt 0.320000 0.520000
vt 0.350000 0.520000
vt 0.340000 0.610000
vt 0.335000 0.515000
vt 0.355000 0.605000
vt 0.350000 0.540000
vt 0.340000 0.605000
vt 0.320000 0.520000
vt 0.340000 0.530000
vt 0.370000 0.605000
vt 0.345000 0.605000
vt 0.325000 0.610000
vt 0.345000 0.530000
vt 0.375000 0.530000
vt 0.335000 0.600000
vt 0.315000 0.600000
vt 0.335000 0.525000
vt 0.365000 0.520000
vt 0.340000 0.600000
vt 0.325000 0.525000
vt 0.345000 0.525000
vt 0.370000 0.605000
vt 0.200000 0.500000
vt 0.200000 0.450000
vt 0.400000 0.450000
vt 0.400000 0.500000
vt 0.385000 0.290000
vt 0.420000 0.290000
vt 0.420000 0.380000
vt 0.495000 0.380000
vt 0.495000 0.290000
vt 0.420000 0.290000
vt 0.420000 0.385000
vt 0.165000 0.385000
vt 0.195000 0.450000
vt 0.490000 0.455000
vt 0.420000 0.455000
vt 0.005000 0.390000
vt 0.005000 0.265000
vt 0.040000 0.265000
vt 0.040000 0.390000
vt 0.080000 0.405000
vt 0.005000 0.405000
vt 0.005000 0.495000
vt 0.080000 0.495000
vt 0.165000 0.495000
vt 0.165000 0.405000
vt 0.095000 0.405000
vt 0.095000 0.495000
vt 0.455000 0.465000
vt 0.490000 0.465000
vt 0.490000 0.495000
vt 0.455000 0.495000
vt 0.490000 0.495000
vt 0.420000 0.495000
vt 0.420000 0.465000
vt 0.490000 0.465000
vt 0.420000 0.465000
vt 0.455000 0.465000
vt 0.455000 0.495000
vt 0.420000 0.495000
vt 0.455000 0.465000
vt 0.490000 0.465000
vt 0.490000 0.495000
vt 0.455000 0.495000
vt 0.490000 0.495000
vt 0.420000 0.495000
vt 0.420000 0.465000
vt 0.490000 0.465000
vt 0.420000 0.465000
vt 0.455000 0.465000
vt 0.455000 0.495000
vt 0.420000 0.495000
vt 0.125000 0.255000
vt 0.140000 0.290000
vt 0.060000 0.290000
vt 0.075000 0.255000
vt 0.370000 0.255000
vt 0.305000 0.290000
vt 0.320000 0.255000
vt 0.050000 0.375000
vt 0.045000 0.305000
vt 0.400000 0.450000
vt 0.200000 0.450000
vt 0.385000 0.290000
vt 0.420000 0.380000
vt 0.420000 0.290000
vt 0.495000 0.380000
vt 0.495000 0.290000
vt 0.165000 0.385000
vt 0.195000 0.450000
vt 0.490000 0.455000
vt 0.005000 0.390000
vt 0.005000 0.265000
vt 0.080000 0.495000
vt 0.005000 0.495000
vt 0.165000 0.495000
vt 0.095000 0.495000
vt 0.455000 0.465000
vt 0.455000 0.495000
vt 0.490000 0.495000
vt 0.490000 0.465000
vt 0.490000 0.495000
vt 0.490000 0.465000
vt 0.420000 0.465000
vt 0.420000 0.495000
vt 0.420000 0.465000
vt 0.420000 0.495000
vt 0.455000 0.495000
vt 0.455000 0.465000
vt 0.455000 0.465000
vt 0.455000 0.495000
vt 0.490000 0.495000
vt 0.490000 0.465000
vt 0.490000 0.495000
vt 0.490000 0.465000
vt 0.420000 0.465000
vt 0.420000 0.495000
vt 0.420000 0.465000
vt 0.420000 0.495000
vt 0.455000 0.495000
vt 0.455000 0.465000
vt 0.125000 0.255000
vt 0.075000 0.255000
vt 0.060000 0.290000
vt 0.140000 0.290000
vt 0.370000 0.255000
vt 0.320000 0.255000
vt 0.305000 0.290000
vt 0.050000 0.375000
vt 0.045000 0.305000
vt 0.300000 0.285000
vt 0.275000 0.285000
vt 0.300000 0.260000
vt 0.220000 0.255000
vt 0.170000 0.285000
vt 0.145000 0.285000
vt 0.145000 0.260000
vt 0.125000 0.255000
vt 0.140000 0.290000
vt 0.060000 0.290000
vt 0.075000 0.255000
vt 0.370000 0.255000
vt 0.385000 0.290000
vt 0.305000 0.290000
vt 0.320000 0.255000
vt 0.125000 0.255000
vt 0.075000 0.255000
vt 0.060000 0.290000
vt 0.140000 0.290000
vt 0.370000 0.255000
vt 0.320000 0.255000
vt 0.305000 0.290000
vt 0.385000 0.290000
vn 0.0000 1.0000 0.0000
vn 0.0857 0.1789 0.9801
vn 0.9801 0.1789 -0.0857
vn -0.0857 0.1789 -0.9801
vn -0.9801 0.1789 0.0857
vn -0.3365 0.1789 0.9245
vn 0.9245 0.1789 0.3365
vn 0.3365 0.1789 -0.9245
vn -0.9245 0.1789 -0.3365
vn 0.0000 -1.0000 -0.0000
vn -0.8131 0.1575 -0.5604
vn -0.8492 0.1961 -0.4903
vn -0.4789 0.2873 0.8295
vn -0.4109 0.2482 0.8772
vn 0.8617 -0.0995 0.4975
vn 0.4975 -0.0995 -0.8617
vn 0.3272 0.3217 -0.8885
vn 0.8322 0.5077 -0.2230
vn 0.3246 0.2120 0.9218
vn 0.2010 0.0828 0.9761
vn -0.8513 -0.5145 0.1026
vn -0.6230 -0.4657 -0.6285
vn 0.8533 0.4685 -0.2287
vn 0.4353 -0.2816 0.8551
vn -0.8660 0.0000 -0.5000
vn 0.4129 0.7177 0.5607
vn 0.3032 0.7547 0.5818
vn -0.9015 -0.0828 -0.4249
vn 0.5850 -0.7754 -0.2378
vn 0.7020 -0.7071 -0.0846
vn 0.1020 0.3522 0.9304
vn -0.8139 0.0902 -0.5740
vn 0.8567 -0.3522 -0.3769
vn -0.0927 0.4107 -0.9071
vn -0.7220 0.6917 -0.0175
vn 0.6653 -0.6402 0.3841
vn 0.8923 -0.2154 -0.3968
vn -0.5488 -0.1238 0.8267
vn 0.2230 -0.5077 0.8322
vn -0.8583 0.4581 -0.2311
vn 0.9755 0.0741 -0.2071
vn 0.1599 -0.7863 0.5968
vn 0.1599 -0.7863 0.5967
vn -0.8729 0.4071 -0.2690
vn 0.9410 -0.0980 -0.3239
vn 0.2328 -0.4372 0.8687
vn -0.5797 0.3482 -0.7367
vn -0.8705 0.4165 -0.2622
vn 0.8473 -0.0587 -0.5279
vn 0.9203 -0.1543 -0.3595
vn -0.1788 -0.2724 0.9454
vn 0.2469 -0.2998 0.9215
vn -0.8163 0.5581 -0.1490
vn 0.9484 -0.0741 -0.3084
vn 0.1997 -0.6364 0.7451
vn -0.7440 0.6667 -0.0447
vn 0.7618 -0.4082 -0.5030
vn 0.2367 -0.4042 0.8835
vn 0.7237 0.6623 -0.1939
vn 0.6065 -0.6745 0.4210
vn -0.8936 0.2609 -0.3653
vn 0.9153 -0.1662 -0.3669
vn 0.2584 -0.0588 0.9643
vn -0.9143 -0.1231 -0.3858
vn -0.8886 -0.1238 -0.4416
vn -0.5754 -0.2049 0.7918
vn -0.5481 -0.2090 0.8099
vn 0.8492 0.1961 0.4903
vn 0.3980 0.2049 -0.8942
vn 0.4903 0.1961 -0.8492
vn -0.3420 0.0000 0.9397
vn 0.9397 0.0000 0.3420
vn -0.3386 0.1414 0.9302
vn 0.9035 0.2747 0.3289
vn -0.0816 0.9965 -0.0186
vn -0.9749 0.0000 -0.2228
vn -0.8518 0.4924 -0.1790
vn -0.8415 0.5048 -0.1924
vn -0.9116 -0.2425 -0.3318
vn 0.9116 -0.2425 0.3318
vn 0.3420 0.0000 -0.9397
vn 0.3289 0.2747 -0.9035
vn -0.0749 0.9965 -0.0371
vn -0.8962 0.0000 -0.4437
vn -0.7686 0.5142 -0.3806
vn -0.7676 0.4924 -0.4104
vn -0.4202 -0.8944 -0.1530
vn -0.3549 -0.9183 -0.1757
vn -0.2972 -0.9487 -0.1082
vn -0.3808 -0.9206 -0.0870
usemtl texobj1.png
s off
f 8/1/1 4/2/1 7/3/1
f 7/3/1 1/4/1 8/1/1
f 2/5/2 3/6/2 4/7/2
f 4/7/2 8/8/2 2/5/2
f 3/9/3 5/10/3 7/11/3
f 7/11/3 4/12/3 3/9/3
f 5/13/4 6/14/4 1/15/4
f 1/15/4 7/16/4 5/13/4
f 6/17/5 2/18/5 8/19/5
f 8/19/5 1/20/5 6/17/5
f 16/21/1 9/22/1 10/23/1
f 10/23/1 13/24/1 16/21/1
f 15/25/6 11/26/6 9/27/6
f 9/27/6 16/28/6 15/25/6
f 11/29/7 12/30/7 10/31/7
f 10/31/7 9/32/7 11/29/7
f 12/33/8 14/34/8 13/35/8
f 13/35/8 10/36/8 12/33/8
f 14/37/9 15/38/9 16/39/9
f 16/39/9 13/40/9 14/37/9
f 18/41/10 21/42/10 17/43/10
f 17/43/10 20/44/10 18/41/10
f 20/45/11 48/46/11 19/47/11
f 19/47/12 18/48/12 20/45/12
f 20/49/13 17/50/13 50/51/13
f 50/51/14 48/52/14 20/49/14
f 17/53/15 21/54/15 22/55/15
f 22/55/15 50/56/15 17/53/15
f 18/57/16 19/58/16 22/59/16
f 22/59/16 21/60/16 18/57/16
f 24/61/17 28/62/17 23/63/17
f 23/63/18 45/64/18 24/61/18
f 43/65/19 27/66/19 28/67/19
f 28/67/20 24/68/20 43/65/20
f 45/69/21 23/70/21 27/71/21
f 27/71/22 43/72/22 45/69/22
f 45/73/23 25/74/23 24/75/23
f 24/76/24 25/77/24 43/72/24
f 43/78/25 25/79/25 45/80/25
f 26/81/26 27/82/26 28/83/26
f 28/83/27 29/84/27 26/81/27
f 31/85/28 23/86/28 27/87/28
f 27/87/28 26/88/28 31/85/28
f 29/89/29 28/90/29 23/91/29
f 23/91/30 31/92/30 29/89/30
f 29/93/31 30/94/31 26/95/31
f 26/96/32 30/97/32 31/98/32
f 31/99/33 30/100/33 29/101/33
f 32/102/34 28/103/34 27/104/34
f 27/104/35 34/105/35 32/102/35
f 33/106/36 49/107/36 28/108/36
f 28/108/37 32/109/37 33/106/37
f 34/110/38 27/111/38 49/112/38
f 49/112/39 33/113/39 34/110/39
f 36/114/40 32/115/40 34/116/40
f 34/116/40 35/117/40 36/114/40
f 38/118/41 33/119/41 32/120/41
f 32/120/41 36/121/41 38/118/41
f 35/122/42 34/123/42 33/124/42
f 33/124/43 38/125/43 35/122/43
f 35/126/44 37/127/44 36/128/44
f 36/129/45 37/130/45 38/131/45
f 38/132/46 37/133/46 35/134/46
f 40/135/47 31/136/47 26/137/47
f 26/137/48 39/138/48 40/135/48
f 46/139/49 29/140/49 31/141/49
f 31/141/50 40/142/50 46/139/50
f 39/143/51 26/144/51 29/145/51
f 29/145/52 46/146/52 39/143/52
f 39/147/53 41/148/53 40/149/53
f 40/150/54 41/151/54 46/152/54
f 46/153/55 41/154/55 39/155/55
f 35/156/56 42/157/56 36/158/56
f 36/159/57 42/160/57 38/161/57
f 38/162/58 42/163/58 35/164/58
f 43/165/48 44/166/48 45/167/48
f 45/168/59 44/169/59 24/170/59
f 24/171/60 44/172/60 43/173/60
f 39/174/61 47/175/61 40/176/61
f 40/177/62 47/178/62 46/179/62
f 46/153/63 47/180/63 39/181/63
f 48/182/64 27/183/64 23/184/64
f 23/184/65 19/185/65 48/182/65
f 49/186/66 27/187/66 48/188/66
f 48/188/67 50/189/67 49/186/67
f 28/190/68 49/191/68 50/192/68
f 50/192/68 22/193/68 28/190/68
f 19/194/69 23/195/69 28/196/69
f 28/196/70 22/197/70 19/194/70
f 52/198/1 58/199/1 51/200/1
f 51/200/1 72/201/1 52/198/1
f 68/202/71 53/203/71 55/204/71
f 55/205/72 53/206/72 75/207/72
f 75/207/72 54/208/72 55/205/72
f 71/209/73 55/204/73 51/200/73
f 51/200/73 58/210/73 71/209/73
f 51/211/74 55/205/74 54/208/74
f 54/208/74 72/212/74 51/211/74
f 70/213/75 71/214/75 57/215/75
f 57/215/75 78/216/75 70/213/75
f 78/217/76 96/218/76 56/219/76
f 56/219/76 70/220/76 78/217/76
f 58/221/77 52/222/77 57/223/77
f 57/223/78 71/224/78 58/221/78
f 98/225/79 59/226/79 60/227/79
f 60/227/79 97/228/79 98/225/79
f 61/229/10 60/230/10 59/231/10
f 59/231/10 101/232/10 61/229/10
f 101/233/80 102/234/80 62/235/80
f 62/235/80 61/236/80 101/233/80
f 65/237/79 66/238/79 63/239/79
f 63/239/79 64/240/79 65/237/79
f 69/241/10 63/242/10 66/243/10
f 66/243/10 103/244/10 69/241/10
f 103/245/80 67/246/80 68/247/80
f 68/247/80 69/248/80 103/245/80
f 61/249/71 62/250/71 97/251/71
f 97/251/71 60/252/71 61/249/71
f 69/253/71 68/202/71 64/254/71
f 64/254/71 63/255/71 69/253/71
f 62/250/71 71/209/71 70/256/71
f 70/256/71 97/251/71 62/250/71
f 70/256/71 56/257/71 97/251/71
f 64/254/71 68/202/71 55/204/71
f 55/204/71 71/209/71 64/254/71
f 71/209/71 62/250/71 64/254/71
f 52/198/1 72/201/1 73/258/1
f 73/258/1 79/259/1 52/198/1
f 74/260/81 92/261/81 76/262/81
f 92/263/72 54/208/72 75/207/72
f 75/207/72 76/264/72 92/263/72
f 94/265/82 79/266/82 73/258/82
f 73/258/82 92/261/82 94/265/82
f 73/267/74 72/212/74 54/208/74
f 54/208/74 92/263/74 73/267/74
f 77/268/83 78/216/83 57/215/83
f 57/215/83 94/269/83 77/268/83
f 78/217/84 77/270/84 95/271/84
f 95/271/84 96/218/84 78/217/84
f 79/272/85 94/273/85 57/223/85
f 57/223/86 52/222/86 79/272/86
f 99/274/79 91/275/79 80/276/79
f 80/276/79 81/277/79 99/274/79
f 89/278/10 84/279/10 81/280/10
f 81/280/10 80/281/10 89/278/10
f 84/282/80 89/283/80 82/284/80
f 82/284/80 83/285/80 84/282/80
f 86/286/79 93/287/79 85/288/79
f 85/288/79 88/289/79 86/286/79
f 90/290/10 87/291/10 88/292/10
f 88/292/10 85/293/10 90/290/10
f 87/294/80 90/295/80 74/296/80
f 74/296/80 100/297/80 87/294/80
f 89/298/81 80/299/81 91/300/81
f 91/300/81 82/301/81 89/298/81
f 90/302/81 85/303/81 93/304/81
f 93/304/81 74/260/81 90/302/81
f 82/301/81 91/300/81 77/305/81
f 77/305/81 94/265/81 82/301/81
f 77/305/81 91/300/81 95/306/81
f 93/304/81 94/265/81 92/261/81
f 92/261/81 74/260/81 93/304/81
f 94/265/81 93/304/81 82/301/81
f 91/307/87 99/308/87 95/309/87
f 95/309/88 99/308/88 96/310/88
f 99/308/89 98/311/89 96/310/89
f 98/311/87 97/312/87 56/313/87
f 98/311/90 56/313/90 96/310/90
f 84/314/71 83/315/71 99/316/71
f 99/316/71 81/317/71 84/314/71
f 87/318/71 100/319/71 86/320/71
f 86/320/71 88/321/71 87/318/71
f 101/322/81 59/323/81 98/324/81
f 98/324/81 102/325/81 101/322/81
f 103/326/81 66/327/81 65/328/81
f 65/328/81 67/329/81 103/326/81
