# Blender v3.2.1 OBJ File: ''
# www.blender.org
mtllib terrain.mtl
v 3.275075 -0.994809 -0.022479
v 9.602397 0.000002 -0.022479
v 9.602397 0.000004 -6.349801
v 3.275075 0.001651 -6.349801
v -9.379574 0.000002 -0.022479
v -3.052250 -0.994809 -0.022479
v -3.052250 0.001651 -6.349801
v -9.379574 0.000004 -6.349801
v -3.052250 -0.000002 12.632170
v 3.275075 -0.000002 12.632170
v 3.275075 -0.994811 6.304846
v -3.052250 -0.994811 6.304846
v -9.379574 -0.000002 12.632170
v -9.379574 0.000000 6.304846
v 9.602397 -0.000002 12.632170
v 9.602397 0.000000 6.304846
v 3.275075 0.000005 -10.938641
v -3.052250 0.000005 -10.938641
v -9.379574 0.000005 -10.938641
v 9.602397 0.000005 -10.938641
v 9.602397 2.992887 -10.938640
v -9.379574 2.992887 -10.938640
v -3.052250 2.992887 -10.938640
v 3.275075 2.992887 -10.938640
v 9.602397 2.992882 6.304846
v 9.602397 2.992880 12.632171
v -9.379574 2.992882 6.304846
v -9.379574 2.992880 12.632171
v 3.275075 2.992880 12.632171
v -3.052250 2.992880 12.632171
v -9.379574 2.992886 -6.349800
v -9.379574 2.992884 -0.022478
v 9.602397 2.992886 -6.349800
v 9.602397 2.992884 -0.022478
v -9.409107 0.014091 -8.931633
v -7.409107 0.014091 -8.931633
v -9.409107 0.014091 -10.931633
v -7.409107 0.014091 -10.931633
v -9.409107 0.014091 -9.931633
v -8.409107 0.014091 -8.931633
v -7.409107 0.014091 -9.931633
v -8.409107 0.014091 -10.931633
v -8.409107 0.375621 -9.931633
v -7.912272 0.424471 -9.432796
v -7.412272 -0.108327 -8.932796
v -7.912272 0.300214 -9.932796
v -8.412271 0.182433 -9.432796
v -7.412272 0.010918 -9.432796
v -8.412271 -0.009620 -8.932796
v -7.412272 -0.017814 -9.932796
v -7.912272 0.119449 -8.932796
v -8.412271 0.162290 -9.932796
v -8.751370 0.476216 -10.242937
v -8.136168 -0.056583 -10.591541
v -9.233274 0.351958 -10.376236
v -8.884669 0.234177 -9.761033
v -8.618072 0.062662 -10.724840
v -8.402765 0.042124 -9.627734
v -9.099976 -0.006214 -10.858139
v -8.269466 0.171193 -10.109638
v -9.366573 -0.014624 -9.894332
vt 0.937500 0.187500
vt 0.625000 0.187500
vt 0.625000 -0.000000
vt 0.937500 -0.000000
vt 0.625000 0.187500
vt 0.937500 0.187500
vt 0.937500 0.000000
vt 0.625000 0.000000
vt 0.375000 0.562500
vt 0.625000 0.562500
vt 0.625000 0.437500
vt 0.375000 0.437500
vt 0.937500 0.187500
vt 0.625000 0.187500
vt 0.625000 0.000000
vt 0.937500 -0.000000
vt 0.937500 0.187500
vt 0.625000 0.187500
vt 0.625000 0.000000
vt 0.937500 0.000000
vt 0.625000 0.187500
vt 0.937500 0.187500
vt 0.937500 0.000000
vt 0.625000 0.000000
vt 0.625000 0.187500
vt 0.937500 0.187500
vt 0.937500 -0.000000
vt 0.625000 0.000000
vt 0.937500 0.187500
vt 0.625000 0.187500
vt 0.625000 0.000000
vt 0.937500 0.000000
vt 0.187500 0.562500
vt 0.375000 0.562500
vt 0.375000 0.750000
vt 0.187500 0.750000
vt 0.187500 0.562500
vt 0.375000 0.562500
vt 0.375000 0.750000
vt 0.187500 0.750000
vt 0.000000 0.187500
vt 0.250000 0.187500
vt 0.250000 0.437500
vt -0.000000 0.437500
vt 0.000000 0.187500
vt 0.250000 0.187500
vt 0.250000 0.437500
vt 0.000000 0.437500
vt 0.000000 0.187500
vt 0.250000 0.187500
vt 0.250000 0.437500
vt 0.000000 0.437500
vt 0.187500 0.562500
vt 0.375000 0.562500
vt 0.375000 0.750000
vt 0.187500 0.750000
vt 0.187500 0.562500
vt 0.375000 0.562500
vt 0.375000 0.750000
vt 0.187500 0.750000
vt 0.187500 0.562500
vt 0.375000 0.562500
vt 0.375000 0.750000
vt 0.187500 0.750000
vt 0.187500 0.562500
vt 0.375000 0.562500
vt 0.375000 0.750000
vt 0.187500 0.750000
vt 0.250000 0.265625
vt -0.000000 0.265625
vt 0.250000 0.265625
vt 0.000000 0.265625
vt 0.000000 0.437500
vt 0.250000 0.437500
vt 0.250000 0.257812
vt 0.000000 0.257812
vt 0.000000 0.437500
vt 0.250000 0.437500
vt 0.937500 0.187500
vt 0.625000 0.187500
vt 0.625000 0.000000
vt 0.937500 0.000000
vt 0.937500 0.187500
vt 0.625000 0.187500
vt 0.625000 0.000000
vt 0.937500 0.000000
vt 0.882812 0.187500
vt 0.625000 0.187500
vt 0.625000 0.000000
vt 0.882812 0.000000
vt 0.882812 0.187500
vt 0.882812 0.000000
vt 0.625000 0.187500
vt 0.625000 0.000000
vt 0.625000 0.187500
vt 0.937500 0.187500
vt 0.937500 -0.000000
vt 0.625000 -0.000000
vt 0.882812 0.312500
vt 0.882812 0.191406
vt 1.000000 0.191406
vt 1.000000 0.312500
vt 0.890625 0.308594
vt 0.882812 0.199219
vt 0.992188 0.191406
vt 1.000000 0.300781
vt 0.878906 0.207031
vt 0.984375 0.195312
vt 0.996094 0.300781
vt 0.890625 0.312500
vt 0.886719 0.203125
vt 0.988281 0.203125
vt 0.988281 0.304688
vt 0.886719 0.304688
vt 0.937500 0.203125
vt 0.988281 0.203125
vt 0.988281 0.253906
vt 0.937500 0.253906
vt 0.886719 0.203125
vt 0.886719 0.253906
vt 0.937500 0.304688
vt 0.886719 0.304688
vt 0.988281 0.304688
vt 0.937500 0.203125
vt 0.988281 0.203125
vt 0.988281 0.253906
vt 0.937500 0.253906
vt 0.886719 0.203125
vt 0.886719 0.253906
vt 0.937500 0.304688
vt 0.886719 0.304688
vt 0.988281 0.304688
vn 1.0000 0.0000 0.0000
vn 0.0000 0.0000 -1.0000
vn 0.0000 -0.0000 1.0000
vn -1.0000 0.0000 0.0000
vn -0.0780 0.9939 0.0783
vn 0.0780 0.9939 0.0783
vn 0.0000 0.9878 0.1556
vn 0.0000 0.9879 -0.1553
vn 0.0000 1.0000 0.0000
vn 0.0781 0.9939 -0.0781
vn 0.1553 0.9879 0.0000
vn -0.0781 0.9939 -0.0781
vn -0.1553 0.9879 0.0000
vn 0.0000 1.0000 -0.0004
vn -0.0001 1.0000 -0.0002
vn 0.0001 1.0000 -0.0002
vn 0.1751 0.9688 -0.1751
vn -0.1751 0.9688 -0.1751
vn -0.1751 0.9688 0.1751
vn 0.1751 0.9688 0.1751
vn 0.5084 0.7927 0.3363
vn -0.3154 0.8498 0.4224
vn -0.3520 0.9264 -0.1338
vn 0.5860 0.8010 -0.1225
vn 0.4597 0.7927 -0.4003
vn 0.3230 0.8498 0.4166
vn -0.4247 0.8139 0.3965
vn 0.0153 0.7826 -0.6224
usemtl texobj2
s off
f 14/1/1 5/2/1 32/3/1 27/4/1
f 15/5/2 10/6/2 29/7/2 26/8/2
f 10/9/2 9/10/2 30/11/2 29/12/2
f 5/13/1 8/14/1 31/15/1 32/16/1
f 17/17/3 20/18/3 21/19/3 24/20/3
f 16/21/4 15/22/4 26/23/4 25/24/4
f 3/25/4 2/26/4 34/27/4 33/28/4
f 18/29/3 17/30/3 24/31/3 23/32/3
f 1/33/5 2/34/5 3/35/5 4/36/5
f 5/37/6 6/38/6 7/39/6 8/40/6
f 6/41/7 1/42/7 4/43/7 7/44/7
f 9/45/8 10/46/8 11/47/8 12/48/8
f 12/49/9 11/50/9 1/51/9 6/52/9
f 13/53/10 9/54/10 12/55/10 14/56/10
f 14/57/11 12/58/11 6/59/11 5/60/11
f 10/61/12 15/62/12 16/63/12 11/64/12
f 11/65/13 16/66/13 2/67/13 1/68/13
f 7/44/14 4/43/14 17/69/14 18/70/14
f 8/71/15 7/72/15 18/73/15 19/74/15
f 4/75/16 3/76/16 20/77/16 17/78/16
f 13/79/1 14/80/1 27/81/1 28/82/1
f 19/83/3 18/84/3 23/85/3 22/86/3
f 8/87/1 19/88/1 22/89/1 31/90/1
f 20/18/4 3/91/4 33/92/4 21/19/4
f 9/93/2 13/79/2 28/82/2 30/94/2
f 2/95/4 16/96/4 25/97/4 34/98/4
f 43/99/17 41/100/17 38/101/17 42/102/17
f 39/103/18 43/104/18 42/105/18 37/106/18
f 35/107/19 40/108/19 43/109/19 39/110/19
f 40/111/20 36/112/20 41/113/20 43/114/20
f 51/115/21 45/116/21 48/117/21 44/118/21
f 49/119/22 51/115/22 44/118/22 47/120/22
f 47/120/23 44/118/23 46/121/23 52/122/23
f 44/118/24 48/117/24 50/123/24 46/121/24
f 60/124/25 54/125/25 57/126/25 53/127/25
f 58/128/26 60/124/26 53/127/26 56/129/26
f 56/129/27 53/127/27 55/130/27 61/131/27
f 53/127/28 57/126/28 59/132/28 55/130/28
